<?xml version="1.0" encoding="utf-8"?>
<!-- Generator: Adobe Illustrator 19.2.1, SVG Export Plug-In . SVG Version: 6.00 Build 0)  -->
<svg version="1.1" id="Hamburger_1_" xmlns="http://www.w3.org/2000/svg" xmlns:xlink="http://www.w3.org/1999/xlink" x="0px"
	 y="0px" viewBox="0 0 40 40" style="enable-background:new 0 0 40 40;" xml:space="preserve">
<style type="text/css">
	.st0{fill-rule:evenodd;clip-rule:evenodd;}
</style>
<g id="Afgeronde_rechthoek_6">
	<g>
		<path class="st0" d="M38.5,4H2.4C1.3,4,0.5,4.9,0.5,5.9v2.2c0,1.1,0.9,1.9,1.9,1.9h36.2c1.1,0,1.9-0.9,1.9-1.9V5.9
			C40.5,4.9,39.6,4,38.5,4z"/>
	</g>
</g>
<g id="Afgeronde_rechthoek_6_kopiëren">
	<g>
		<path class="st0" d="M38.5,17H2.4c-1.1,0-1.9,0.9-1.9,1.9v2.2c0,1.1,0.9,1.9,1.9,1.9h36.2c1.1,0,1.9-0.9,1.9-1.9v-2.2
			C40.5,17.9,39.6,17,38.5,17z"/>
	</g>
</g>
<g id="Afgeronde_rechthoek_6_kopiëren_2">
	<g>
		<path class="st0" d="M38.5,30H2.4c-1.1,0-1.9,0.9-1.9,1.9v2.2c0,1.1,0.9,1.9,1.9,1.9h36.2c1.1,0,1.9-0.9,1.9-1.9v-2.2
			C40.5,30.9,39.6,30,38.5,30z"/>
	</g>
</g>
</svg>
