<?xml version="1.0" standalone="no"?>
<!DOCTYPE svg PUBLIC "-//W3C//DTD SVG 1.1//EN" "http://www.w3.org/Graphics/SVG/1.1/DTD/svg11.dtd" >
<svg xmlns="http://www.w3.org/2000/svg" xmlns:xlink="http://www.w3.org/1999/xlink" version="1.1">
<metadata>
Created by FontForge 20170910 at Wed Nov  2 09:30:55 2011
 By Jimmy Wärting
Copyright (c) 2007-2008 DTP Types Limited. All rights reserved. SenticoSans DT is a trademark of DTP Types Limited.
</metadata>
<defs>
<font id="SenticoSansDT-Light" horiz-adv-x="558" >
  <font-face 
    font-family="SenticoSansDT-Light"
    font-weight="400"
    font-stretch="normal"
    units-per-em="1000"
    panose-1="2 11 3 4 3 3 2 2 2 4"
    ascent="776"
    descent="-224"
    x-height="483"
    cap-height="684"
    bbox="-98 -211.4 1159 870"
    underline-thickness="50"
    underline-position="-100"
    unicode-range="U+0020-FB04"
  />
<missing-glyph horiz-adv-x="500" 
d="M30 70v580h440v-580h-440zM80 120h340v480h-340v-480z" />
    <glyph glyph-name="fi" unicode="fi" horiz-adv-x="568" 
d="M332 657q-42 10 -80 10q-42 0 -65 -18t-23 -65v-110h143l-12 -45h-131v-429h-50v429h-80v45h80v111q0 64 32.5 95t106.5 31q41 0 81 -9zM486 0h-50v483h50v-483zM433 624q0 19 1 26t7.5 11.5t20.5 4.5q19 0 23.5 -8t4.5 -34t-4.5 -34t-23.5 -8q-20 0 -24.5 8t-4.5 34z
" />
    <glyph glyph-name="fl" unicode="fl" horiz-adv-x="614" 
d="M332 657q-42 10 -80 10q-42 0 -65 -18t-23 -65v-110h143l-12 -45h-131v-429h-50v429h-80v45h80v111q0 64 32.5 95t106.5 31q41 0 81 -9zM578 42l13 -43q-36 -10 -79 -10q-53 0 -67 25.5t-14 88.5v594l50 12v-611q0 -35 8.5 -49.5t33.5 -14.5q29 0 55 8z" />
    <glyph glyph-name="f_f" unicode="ff" horiz-adv-x="679" 
d="M654 657q-42 10 -80 10q-42 0 -65 -18t-23 -65v-110h143l-12 -45h-131v-429h-50v429h-272v-429h-50v429h-80v45h80v111q0 64 32.5 95t106.5 31q41 0 81 -9l-2 -45q-42 10 -80 10q-42 0 -65 -18t-23 -65v-110h272v111q0 64 32.5 95t106.5 31q41 0 81 -9z" />
    <glyph glyph-name="f_f_i" unicode="ffi" horiz-adv-x="890" 
d="M654 657q-42 10 -80 10q-42 0 -65 -18t-23 -65v-110h143l-12 -45h-131v-429h-50v429h-272v-429h-50v429h-80v45h80v111q0 64 32.5 95t106.5 31q41 0 81 -9l-2 -45q-42 10 -80 10q-42 0 -65 -18t-23 -65v-110h272v111q0 64 32.5 95t106.5 31q41 0 81 -9zM808 0h-50v483h50
v-483zM755 624q0 19 1 26t7.5 11.5t20.5 4.5q19 0 23.5 -8t4.5 -34t-4.5 -34t-23.5 -8q-20 0 -24.5 8t-4.5 34z" />
    <glyph glyph-name="f_f_l" unicode="ffl" horiz-adv-x="936" 
d="M654 657q-42 10 -80 10q-42 0 -65 -18t-23 -65v-110h143l-12 -45h-131v-429h-50v429h-272v-429h-50v429h-80v45h80v111q0 64 32.5 95t106.5 31q41 0 81 -9l-2 -45q-42 10 -80 10q-42 0 -65 -18t-23 -65v-110h272v111q0 64 32.5 95t106.5 31q41 0 81 -9zM900 42l13 -43
q-36 -10 -79 -10q-53 0 -67 25.5t-14 88.5v594l50 12v-611q0 -35 8.5 -49.5t33.5 -14.5q29 0 55 8z" />
    <glyph glyph-name=".notdef" horiz-adv-x="500" 
d="M30 70v580h440v-580h-440zM80 120h340v480h-340v-480z" />
    <glyph glyph-name=".null" horiz-adv-x="0" 
 />
    <glyph glyph-name="nonmarkingreturn" horiz-adv-x="333" 
 />
    <glyph glyph-name="space" unicode=" " horiz-adv-x="240" 
 />
    <glyph glyph-name="exclam" unicode="!" horiz-adv-x="222" 
d="M129 148h-35l-6 176l-3 374h52l-4 -374zM82 35q0 26 4.5 34t24.5 8q19 0 24 -8t5 -34q0 -25 -5 -33t-24 -8q-20 0 -24.5 8t-4.5 33z" />
    <glyph glyph-name="quotedbl" unicode="&#x22;" horiz-adv-x="342" 
d="M96 694h20q10 0 13 -4.5t3 -21.5l-9 -183q0 -13 -8 -13h-17q-8 0 -9 13l-8 183q0 17 3 21.5t12 4.5zM224 694h20q10 0 13 -4.5t3 -21.5l-9 -183q0 -13 -8 -13h-17q-8 0 -9 13l-8 183q0 17 3 21.5t12 4.5z" />
    <glyph glyph-name="numbersign" unicode="#" horiz-adv-x="630" 
d="M83 473l8 41h102l23 171h42l-23 -171h201l23 171h43l-24 -171h102l-9 -41h-98l-28 -201h104l-10 -40h-99l-25 -181h-42l24 181h-201l-24 -181h-42l24 181h-103l9 40h100l27 201h-104zM229 473l-27 -201h201l27 201h-201z" />
    <glyph glyph-name="dollar" unicode="$" 
d="M84 26l5 48q72 -30 169 -36v286q-59 19 -88 31.5t-52 33t-30 47.5t-7 72q0 87 38 127t139 46v93h45v-93q101 -8 150 -25l-4 -48q-89 24 -146 27v-277q105 -36 139 -70.5t34 -114.5q0 -92 -38 -134t-135 -46v-95h-45v94q-113 7 -174 34zM130 508q0 -59 23.5 -84t104.5 -52
v263q-70 -3 -99 -30.5t-29 -96.5zM427 170q0 57 -23.5 84.5t-100.5 54.5v-271q68 4 96 33t28 99z" />
    <glyph glyph-name="percent" unicode="%" horiz-adv-x="840" 
d="M329 497q0 -105 -28.5 -151.5t-110.5 -46.5t-110.5 46.5t-28.5 151.5t28.5 151.5t110.5 46.5t110.5 -46.5t28.5 -151.5zM285 497q0 89 -19.5 123t-75.5 34q-57 0 -76 -34t-19 -123q0 -90 19 -124t76 -34q56 0 75.5 34t19.5 124zM789 187q0 -105 -29 -151.5t-111 -46.5
t-110.5 46.5t-28.5 151.5t28.5 151.5t110.5 46.5t111 -47t29 -151zM744 187q0 89 -19 123t-76 34q-56 0 -75 -34t-19 -123q0 -90 19 -124t75 -34q57 0 76 34t19 124zM254 5l296 700l42 -15l-297 -699z" />
    <glyph glyph-name="ampersand" unicode="&#x26;" horiz-adv-x="616" 
d="M537 283l40 -19q-40 -85 -86 -138l98 -103l-35 -30l-95 100q-105 -102 -225 -102q-88 0 -136 42.5t-48 124.5q0 74 38.5 124t109.5 93q-90 101 -90 171q0 147 159 147q74 0 114.5 -35.5t40.5 -97.5q0 -63 -38.5 -106t-116.5 -89l193 -207q44 55 77 125zM99 159
q0 -61 36 -92.5t97 -31.5q108 0 197 89l-203 217q-61 -37 -94 -78.5t-33 -103.5zM375 559q0 90 -108 90q-112 0 -112 -101q0 -60 83 -150q66 35 101.5 71.5t35.5 89.5z" />
    <glyph glyph-name="quotesingle" unicode="'" horiz-adv-x="213" 
d="M96 694h20q10 0 13 -4.5t3 -21.5l-9 -183q0 -13 -8 -13h-17q-8 0 -9 13l-8 183q0 17 3 21.5t12 4.5z" />
    <glyph glyph-name="parenleft" unicode="(" horiz-adv-x="283" 
d="M226 776l39 -24q-73 -110 -105 -216.5t-32 -235.5t31.5 -233.5t105.5 -215.5l-39 -26q-148 217 -148 475q0 259 148 476z" />
    <glyph glyph-name="parenright" unicode=")" horiz-adv-x="283" 
d="M58 -175l-39 26q73 110 105 216t32 234t-32 234.5t-105 216.5l39 24q148 -220 148 -475q0 -256 -148 -476z" />
    <glyph glyph-name="asterisk" unicode="*" horiz-adv-x="513" 
d="M257 489q-14 -20 -41.5 -62t-40.5 -60q-7 -10 -11 -10t-16 9t-13.5 13t4.5 14q14 19 45 56.5t45 56.5q-22 7 -69.5 20t-71.5 21q-8 3 -11 5t-2.5 6t4.5 14q4 15 8 18t15 -1q19 -6 65.5 -24.5t72.5 -26.5q0 21 -3 71.5t-3 77.5q0 12 3 14t19 2q15 0 18.5 -2.5t3.5 -13.5
q0 -27 -3 -77.5t-3 -70.5q19 7 66.5 25.5t73.5 26.5q11 3 14 1t8 -17q5 -14 3.5 -18t-11.5 -8q-26 -8 -75 -21t-69 -19l1 -1q15 -20 46.5 -58.5t46.5 -58.5q7 -10 5.5 -13.5t-14.5 -12.5q-12 -9 -16.5 -9t-10.5 10q-16 22 -44 64.5t-39 58.5z" />
    <glyph glyph-name="plus" unicode="+" horiz-adv-x="500" 
d="M62 260v44h165v167h45v-167h166v-44h-166v-167h-45v167h-165z" />
    <glyph glyph-name="comma" unicode="," horiz-adv-x="215" 
d="M65 -111l27 94q1 3 1 6q0 4 -6 7q-7 4 -7 39q0 19 1 26t7.5 11.5t20.5 4.5q19 0 23.5 -8t4.5 -34v-13q0 -22 -10 -52l-31 -89q-3 -9 -19 -3q-9 3 -11 5t-1 6z" />
    <glyph glyph-name="hyphen" unicode="-" horiz-adv-x="362" 
d="M63 245v47h236v-47h-236z" />
    <glyph glyph-name="period" unicode="." horiz-adv-x="215" 
d="M79 35q0 26 4.5 34t24.5 8q19 0 23.5 -8t4.5 -34q0 -25 -4.5 -33t-23.5 -8q-20 0 -24.5 8t-4.5 33z" />
    <glyph glyph-name="slash" unicode="/" horiz-adv-x="425" 
d="M71 -113l-42 18l315 796l44 -20z" />
    <glyph glyph-name="zero" unicode="0" 
d="M441 326v33q0 62 -2 99.5t-11 78t-26 61.5t-47.5 35t-75.5 14q-37 0 -64.5 -8.5t-45 -27.5t-28 -40.5t-16 -58t-7 -69.5t-1.5 -84v-33q0 -51 1.5 -84t7 -69.5t16 -58t28 -40.5t45 -27.5t64.5 -8.5q45 0 75.5 14t47.5 35t26 61.5t11 78t2 99.5zM492 360v-35
q0 -54 -2 -90.5t-9 -78.5t-21 -68.5t-37 -50t-59 -34.5t-85 -11q-58 0 -98 17.5t-62.5 44.5t-34.5 74t-15 89t-3 108v35q0 66 3 108t15 89t34.5 74t62.5 44.5t98 17.5q49 0 85 -11t59 -34.5t37 -50t21 -68.5t9 -78.5t2 -90.5z" />
    <glyph glyph-name="one" unicode="1" 
d="M168 0v46h110v582l-121 -65l-11 46l139 75h43v-638h104v-46h-264z" />
    <glyph glyph-name="two" unicode="2" 
d="M159 46h303v-46h-369v40q141 162 209 256q58 80 83.5 132.5t25.5 99.5q0 61 -32 90.5t-107 29.5q-87 0 -160 -39l-7 48q69 38 170 38q102 0 145 -41.5t43 -123.5q0 -57 -27 -112t-94 -147q-68 -94 -183 -225z" />
    <glyph glyph-name="three" unicode="3" 
d="M91 14l5 48q79 -27 162 -27q84 0 123 29t39 108v34q0 68 -35.5 93t-113.5 25h-104v46h84q79 0 115.5 25.5t36.5 97.5v43q0 61 -32.5 86.5t-104.5 25.5q-73 0 -153 -28l-5 47q86 27 158 27q100 0 144 -37.5t44 -116.5v-36q0 -67 -19 -98.5t-69 -52.5q58 -13 81.5 -47
t23.5 -108v-22q0 -103 -51.5 -145t-160.5 -42q-89 0 -168 25z" />
    <glyph glyph-name="four" unicode="4" 
d="M506 210h-90v-210h-51v210h-313v48l311 426h53v-428h90v-46zM107 256h258v352z" />
    <glyph glyph-name="five" unicode="5" 
d="M146 330h-33l12 354h322v-46h-276l-8 -260q74 9 119 9q96 0 139.5 -42.5t43.5 -140.5v-23q0 -101 -45 -146.5t-161 -45.5q-95 0 -163 25l4 49q77 -28 158 -28q88 0 122 32.5t34 109.5v26q0 77 -32 107t-108 30q-63 0 -128 -10z" />
    <glyph glyph-name="six" unicode="6" 
d="M129 386v-36q101 42 172 42q99 0 139 -43.5t40 -147.5q0 -118 -44 -165t-150 -47q-55 0 -93 13.5t-60.5 36t-34.5 62t-16 81t-4 104.5v73q0 88 8.5 144.5t33.5 102.5t73 67t123 21q77 0 135 -20l-6 -47q-60 20 -127 20q-60 0 -97.5 -15.5t-57.5 -51.5t-27 -80t-7 -114z
M299 345q-59 0 -170 -41v-32q0 -65 4.5 -102.5t19.5 -71.5t47.5 -48.5t85.5 -14.5q85 0 115.5 36.5t30.5 129.5q0 79 -27.5 111.5t-105.5 32.5z" />
    <glyph glyph-name="seven" unicode="7" 
d="M105 638v46h369v-38l-278 -646h-53l275 638h-313z" />
    <glyph glyph-name="eight" unicode="8" 
d="M475 527q0 -65 -27 -104.5t-91 -64.5q71 -24 103.5 -66.5t32.5 -113.5q0 -98 -51 -143.5t-162 -45.5q-114 0 -164.5 44.5t-50.5 144.5q0 71 32 113.5t104 66.5q-62 25 -90 65t-28 104q0 79 48.5 123t148.5 44q99 0 147 -44t48 -123zM441 178q0 73 -40.5 107.5
t-121.5 51.5q-80 -18 -121.5 -51t-41.5 -108q0 -78 38 -110.5t126 -32.5q86 0 123.5 33t37.5 110zM134 524q0 -67 36 -99.5t109 -50.5q76 19 110.5 51.5t34.5 100.5q0 122 -144 122q-146 0 -146 -124z" />
    <glyph glyph-name="nine" unicode="9" 
d="M429 297v36q-101 -42 -172 -42q-99 0 -139 43.5t-40 147.5q0 118 44 165t150 47q55 0 93 -13.5t60.5 -36t34.5 -62t16 -81t4 -104.5v-73q0 -88 -8.5 -144.5t-33.5 -102.5t-73 -67t-123 -21q-77 0 -135 20l6 47q60 -20 127 -20q60 0 97.5 15.5t57.5 51.5t27 80t7 114z
M259 338q59 0 170 41v32q0 65 -4.5 102.5t-19.5 71.5t-47.5 48.5t-85.5 14.5q-85 0 -115.5 -36.5t-30.5 -129.5q0 -79 27.5 -111.5t105.5 -32.5z" />
    <glyph glyph-name="colon" unicode=":" horiz-adv-x="215" 
d="M79 357q0 26 4.5 34t24.5 8q19 0 23.5 -8t4.5 -34q0 -25 -4.5 -33t-23.5 -8q-20 0 -24.5 8t-4.5 33zM79 35q0 26 4.5 34t24.5 8q19 0 23.5 -8t4.5 -34q0 -25 -4.5 -33t-23.5 -8q-20 0 -24.5 8t-4.5 33z" />
    <glyph glyph-name="semicolon" unicode=";" horiz-adv-x="215" 
d="M65 -111l27 94q1 3 1 6q0 4 -6 7q-7 4 -7 39q0 19 1 26t7.5 11.5t20.5 4.5q19 0 23.5 -8t4.5 -34v-13q0 -22 -10 -52l-31 -89q-3 -9 -19 -3q-9 3 -11 5t-1 6zM80 357q0 26 4.5 34t24.5 8q19 0 23.5 -8t4.5 -34q0 -25 -4.5 -33t-23.5 -8q-20 0 -24.5 8t-4.5 33z" />
    <glyph glyph-name="less" unicode="&#x3c;" horiz-adv-x="500" 
d="M62 257v51l366 181l18 -39l-339 -168l339 -165l-18 -39z" />
    <glyph glyph-name="equal" unicode="=" horiz-adv-x="500" 
d="M62 339v43h376v-43h-376zM62 182v43h376v-43h-376z" />
    <glyph glyph-name="greater" unicode="&#x3e;" horiz-adv-x="500" 
d="M438 308v-51l-367 -180l-17 39l338 166l-338 166l17 39z" />
    <glyph glyph-name="question" unicode="?" horiz-adv-x="433" 
d="M184 192l-44 15q9 62 24.5 91.5t64.5 68.5q3 3 15 12t15 11.5t12.5 11t12.5 12.5t10 13t9.5 15.5t7 17.5t6 21.5t3 24t1.5 29.5q0 70 -27 98.5t-101 28.5q-60 0 -133 -22l-6 47q88 22 141 22q97 0 137 -39.5t40 -132.5q0 -24 -3 -44t-5.5 -34.5t-11.5 -30.5t-12.5 -23
t-18 -21t-18 -17.5t-22.5 -18.5t-22 -18q-40 -31 -53.5 -57t-21.5 -81zM140 35q0 26 4.5 34t24.5 8q19 0 23.5 -8t4.5 -34q0 -25 -4.5 -33t-23.5 -8q-20 0 -24.5 8t-4.5 33z" />
    <glyph glyph-name="at" unicode="@" horiz-adv-x="874" 
d="M505 186l41 252q-43 11 -93 11q-77 0 -108 -48q-19 -28 -30.5 -87t-11.5 -102q0 -36 16 -52.5t57 -16.5q68 0 129 43zM618 95q-75 0 -104 48q-65 -47 -146 -47q-116 0 -116 110q0 46 12 110t34 103q45 75 156 75q62 0 149 -18l-46 -276q-5 -29 13 -44t59 -15q69 0 97 48
t28 145q0 158 -70.5 236.5t-230.5 78.5q-170 0 -251.5 -90t-81.5 -273q0 -180 89.5 -263t264.5 -83q105 0 183 23l11 -43q-80 -25 -196 -25q-402 0 -402 394q0 406 383 406q182 0 266.5 -88.5t84.5 -268.5q0 -121 -42 -182t-144 -61z" />
    <glyph glyph-name="A" unicode="A" horiz-adv-x="604" 
d="M575 0h-55l-74 209h-292l-71 -209h-54l240 684h61zM431 254l-133 376l-128 -376h261z" />
    <glyph glyph-name="B" unicode="B" horiz-adv-x="561" 
d="M355 0h-267v684h255q141 0 141 -165q0 -73 -19.5 -113t-66.5 -52q50 -8 78.5 -42t28.5 -111q0 -104 -32.5 -152.5t-117.5 -48.5zM453 203q0 58 -29 90.5t-111 32.5h-174v-280h208q57 0 81.5 33.5t24.5 123.5zM432 516q0 121 -99 121h-194v-265h169q32 0 50.5 4t37.5 17.5
t27.5 43.5t8.5 79z" />
    <glyph glyph-name="C" unicode="C" horiz-adv-x="522" 
d="M316 647q-63 0 -101.5 -15.5t-58 -54.5t-25.5 -87t-6 -132v-32q0 -67 3 -106.5t14 -79t32 -59.5t57.5 -32t90.5 -12q82 0 148 18l1 -49q-64 -17 -150 -17q-48 0 -85.5 8t-64 21.5t-44.5 37t-28.5 48.5t-16.5 63t-7.5 72.5t-1.5 84.5v36q0 72 4.5 120t19 92.5t41 69t70 39
t106.5 14.5q90 0 158 -17l-2 -50q-67 19 -154 19z" />
    <glyph glyph-name="D" unicode="D" horiz-adv-x="604" 
d="M87 684h205q66 0 110.5 -14.5t70 -38t39 -68t17 -88t3.5 -114.5v-37q0 -49 -1 -76.5t-5.5 -67t-13.5 -61.5t-26 -48t-42.5 -39.5t-63 -22.5t-86.5 -9h-207v684zM292 636h-153v-589h155q30 0 55 4.5t43 11t32 20.5t23.5 25.5t16 33.5t9.5 37.5t4.5 44.5t2 47t0.5 53v36
q0 45 -1 74.5t-5.5 61.5t-12.5 51.5t-21.5 38.5t-33.5 28.5t-48 15.5t-66 6z" />
    <glyph glyph-name="E" unicode="E" horiz-adv-x="524" 
d="M88 0v684h372v-48h-321v-261h288v-48h-288v-279h322v-48h-373z" />
    <glyph glyph-name="F" unicode="F" horiz-adv-x="490" 
d="M139 0h-51v684h363v-48h-312v-264h284v-48h-284v-324z" />
    <glyph glyph-name="G" unicode="G" horiz-adv-x="578" 
d="M320 647q-52 0 -87.5 -11t-57 -31t-32.5 -57.5t-14.5 -79t-3.5 -108.5v-34q0 -67 2 -102.5t12 -77.5t29.5 -62t55.5 -33.5t90 -13.5q72 0 144 14v222h-92v48h142v-312q-102 -20 -194 -20q-48 0 -85.5 8.5t-63 22.5t-43 39t-27 49t-15 63t-6.5 71t-1 82v38q0 90 8.5 146
t33.5 101.5t75 65.5t129 20q85 0 175 -21l-3 -51q-98 24 -171 24z" />
    <glyph glyph-name="H" unicode="H" horiz-adv-x="618" 
d="M530 0h-51v331h-340v-331h-51v684h51v-306h340v306h51v-684z" />
    <glyph glyph-name="I" unicode="I" horiz-adv-x="237" 
d="M144 684v-684h-52v684h52z" />
    <glyph glyph-name="J" unicode="J" horiz-adv-x="262" 
d="M125 684h52v-555q0 -30 -8 -52t-17.5 -35t-33 -24.5t-38 -16.5t-48.5 -15l-12 45q61 19 83 36.5t22 60.5v556z" />
    <glyph glyph-name="K" unicode="K" 
d="M139 684v-337l286 337h65l-288 -335l323 -349h-67l-319 346v-346h-52v684h52z" />
    <glyph glyph-name="L" unicode="L" horiz-adv-x="479" 
d="M139 684v-636h302v-48h-353v684h51z" />
    <glyph glyph-name="M" unicode="M" horiz-adv-x="749" 
d="M658 0h-52l-24 595l-179 -486h-57l-180 486l-24 -595h-51l28 684h63l192 -514l193 514h62z" />
    <glyph glyph-name="N" unicode="N" horiz-adv-x="636" 
d="M482 0l-343 607v-607h-51v684h64l343 -610v610h51v-684h-64z" />
    <glyph glyph-name="O" unicode="O" horiz-adv-x="630" 
d="M503 325v34q0 80 -6.5 128.5t-25.5 87.5t-57 55.5t-99 16.5t-99 -16.5t-57.5 -55.5t-25.5 -87.5t-6 -128.5v-34q0 -80 6 -128.5t25.5 -87.5t57.5 -55.5t99 -16.5t99 16.5t57 55.5t25.5 87.5t6.5 128.5zM555 360v-36q0 -71 -5.5 -120.5t-20.5 -92.5t-41.5 -68.5
t-69.5 -39.5t-103 -14q-61 0 -103.5 14t-69.5 39.5t-42 68.5t-20.5 92.5t-5.5 120.5v36q0 71 5.5 120.5t20.5 92.5t42 68.5t69.5 39.5t103.5 14q60 0 103 -14t69.5 -39.5t41.5 -68.5t20.5 -92.5t5.5 -120.5z" />
    <glyph glyph-name="P" unicode="P" horiz-adv-x="546" 
d="M88 0v684h227q107 0 143 -46t36 -160q0 -59 -5.5 -94t-23.5 -64t-53.5 -41t-93.5 -12h-179v-267h-51zM442 477q0 93 -26.5 126t-105.5 33h-171v-321h174q44 0 70.5 9t39 32t16 48.5t3.5 72.5z" />
    <glyph glyph-name="Q" unicode="Q" horiz-adv-x="630" 
d="M555 360v-36q0 -80 -7.5 -134.5t-27.5 -98.5t-57.5 -68t-94.5 -31q3 -35 20 -50t57 -15q27 0 48 6l9 -45q-40 -8 -61 -8q-62 0 -89.5 23.5t-31.5 85.5h-5q-61 0 -103.5 14t-69.5 39.5t-42 68.5t-20.5 92.5t-5.5 120.5v36q0 71 5.5 120.5t20.5 92.5t42 68.5t69.5 39.5
t103.5 14q60 0 103 -14t69.5 -39.5t41.5 -68.5t20.5 -92.5t5.5 -120.5zM503 325v34q0 80 -6.5 128.5t-25.5 87.5t-57 55.5t-99 16.5t-99 -16.5t-57.5 -55.5t-25.5 -87.5t-6 -128.5v-34q0 -80 6 -128.5t25.5 -87.5t57.5 -55.5t99 -16.5t99 16.5t57 55.5t25.5 87.5t6.5 128.5z
" />
    <glyph glyph-name="R" unicode="R" horiz-adv-x="590" 
d="M496 0l-171 280h-186v-280h-51v684h250q50 0 82.5 -15.5t48 -45.5t21 -62.5t5.5 -78.5q0 -91 -24 -138t-89 -60l173 -284h-59zM443 482q0 80 -22.5 117t-86.5 37h-195v-308h186q69 0 93.5 33t24.5 121z" />
    <glyph glyph-name="S" unicode="S" horiz-adv-x="531" 
d="M465 170q0 -43 -8.5 -74t-31 -57t-66 -39t-108.5 -13q-89 0 -184 26l6 52q86 -30 178 -30q93 0 127 32.5t34 98.5q0 40 -7 65t-28.5 43t-49 28.5t-80.5 24.5q-50 14 -78.5 25t-54 31t-36 49t-10.5 73q0 45 8.5 77t30.5 59t66 40.5t109 13.5q84 0 166 -20l-4 -51
q-77 23 -162 23q-95 0 -128.5 -33t-33.5 -101q0 -67 32.5 -92.5t126.5 -51.5q111 -30 148.5 -67.5t37.5 -131.5z" />
    <glyph glyph-name="T" unicode="T" horiz-adv-x="522" 
d="M235 0v636h-208v48h468v-48h-209v-636h-51z" />
    <glyph glyph-name="U" unicode="U" horiz-adv-x="626" 
d="M133 684v-465q0 -183 180 -183t180 183v465h52v-462q0 -233 -232 -233t-232 233v462h52z" />
    <glyph glyph-name="V" unicode="V" horiz-adv-x="582" 
d="M71 684l220 -618l218 618h54l-245 -684h-54l-246 684h53z" />
    <glyph glyph-name="W" unicode="W" horiz-adv-x="837" 
d="M566 0l-148 585l-151 -585h-59l-175 684h54l151 -607l154 607h53l150 -607l151 607h57l-178 -684h-59z" />
    <glyph glyph-name="X" unicode="X" horiz-adv-x="561" 
d="M33 684h59l188 -296l187 296h59l-216 -341l217 -343h-60l-189 296l-188 -296h-59l218 342z" />
    <glyph glyph-name="Y" unicode="Y" horiz-adv-x="537" 
d="M70 684l198 -387l199 387h57l-230 -444v-240h-51v240l-231 444h58z" />
    <glyph glyph-name="Z" unicode="Z" horiz-adv-x="563" 
d="M495 639l-374 -591h379v-48h-441v43l375 593h-369v48h430v-45z" />
    <glyph glyph-name="bracketleft" unicode="[" horiz-adv-x="277" 
d="M260 -156h-167v941h167v-44h-118v-853h118v-44z" />
    <glyph glyph-name="backslash" unicode="\" horiz-adv-x="425" 
d="M395 -95l-41 -18l-317 794l44 20z" />
    <glyph glyph-name="bracketright" unicode="]" horiz-adv-x="277" 
d="M185 -156h-168v44h118v853h-118v44h168v-941z" />
    <glyph glyph-name="asciicircum" unicode="^" horiz-adv-x="500" 
d="M250 654l-136 -219l-41 22l152 243h49l152 -243l-41 -22z" />
    <glyph glyph-name="underscore" unicode="_" horiz-adv-x="500" 
d="M505 -125h-510v39h510v-39z" />
    <glyph glyph-name="grave" unicode="`" horiz-adv-x="333" 
d="M239 584l-9 -40l-173 78l2 50z" />
    <glyph glyph-name="a" unicode="a" horiz-adv-x="480" 
d="M407 370v-370h-47l-3 48q-83 -58 -166 -58q-60 0 -97 28t-37 105q0 42 11 70.5t29 45t51.5 24.5t66 10.5t85.5 2.5q29 0 57 -1v95q0 79 -114 79q-68 0 -151 -24l-4 47q79 23 156 23q84 0 123.5 -33.5t39.5 -91.5zM357 95v136q-50 2 -61 2q-41 0 -65 -1.5t-51 -7.5
t-40.5 -17t-22.5 -31.5t-9 -50.5q0 -52 24 -71t66 -19q79 0 159 60z" />
    <glyph glyph-name="b" unicode="b" horiz-adv-x="503" 
d="M442 241q0 -50 -3 -82.5t-13.5 -68t-30.5 -55.5t-56 -33t-87 -13q-88 0 -171 16v692l51 12v-249q79 35 159 35q89 0 120 -52.5t31 -201.5zM132 412v-368q70 -11 120 -11q39 0 66 12t41 28.5t21.5 47t9 55t1.5 65.5q0 123 -21.5 165.5t-84.5 42.5q-72 0 -153 -37z" />
    <glyph glyph-name="c" unicode="c" horiz-adv-x="426" 
d="M111 241q0 -117 27 -161.5t118 -44.5q49 0 113 13l5 -47q-63 -12 -120 -12q-63 0 -102.5 15t-59.5 50t-26.5 77t-6.5 110q0 133 39 193t155 60q69 0 123 -9l-4 -50q-55 13 -119 13q-83 0 -112.5 -45.5t-29.5 -161.5z" />
    <glyph glyph-name="d" unicode="d" horiz-adv-x="508" 
d="M377 54q-31 -28 -76.5 -46.5t-83.5 -18.5q-43 0 -69.5 7t-45 21.5t-27 46t-11.5 71t-3 106.5q0 65 4 104.5t14 71t31 46.5t51.5 22.5t78.5 7.5q62 0 135 -14v218l52 12v-709h-47zM375 106v326q-78 17 -139 17q-80 0 -101.5 -40t-21.5 -168q0 -130 18 -169t90 -39
q41 0 83.5 22t70.5 51z" />
    <glyph glyph-name="e" unicode="e" horiz-adv-x="481" 
d="M409 56l3 -46q-69 -21 -165 -21q-53 0 -88 11.5t-55 30.5t-30.5 56.5t-13 74t-2.5 99.5q0 118 41.5 176t149.5 58q47 0 80 -11.5t52 -29.5t29.5 -49t13.5 -61t3 -74v-46h-318v-15q0 -101 28.5 -138t113.5 -37q91 0 158 22zM109 277v-9h267v19q0 41 -4 67t-16.5 49.5
t-39 34.5t-67.5 11q-76 0 -108 -41.5t-32 -130.5z" />
    <glyph glyph-name="f" unicode="f" horiz-adv-x="357" 
d="M332 657q-42 10 -80 10q-42 0 -65 -18t-23 -65v-110h143l-12 -45h-131v-429h-50v429h-80v45h80v111q0 64 32.5 95t106.5 31q41 0 81 -9z" />
    <glyph glyph-name="g" unicode="g" horiz-adv-x="507" 
d="M427 479v-549q0 -69 -43 -102t-144 -33q-92 0 -167 21l2 46q75 -22 164 -22q75 0 106 22t31 67v97q-76 -33 -159 -33q-42 0 -70.5 11t-45 28t-25 51t-11 67t-2.5 88q0 140 42 198t156 58q84 0 166 -15zM376 73v367q-59 10 -118 10q-85 0 -114 -47.5t-29 -164.5
q0 -112 20 -155.5t88 -43.5q78 0 153 34z" />
    <glyph glyph-name="h" unicode="h" horiz-adv-x="510" 
d="M431 0h-51v384q0 64 -67 64q-35 0 -86 -18t-95 -44v-386h-51v697l51 12v-275q111 60 188 60q111 0 111 -107v-387z" />
    <glyph glyph-name="i" unicode="i" horiz-adv-x="215" 
d="M133 0h-50v483h50v-483zM80 624q0 19 1 26t7.5 11.5t20.5 4.5q19 0 23.5 -8t4.5 -34t-4.5 -34t-23.5 -8q-20 0 -24.5 8t-4.5 34z" />
    <glyph glyph-name="j" unicode="j" horiz-adv-x="215" 
d="M-12 -203l-10 45q64 18 84 40t20 67v534h51v-533q0 -37 -8.5 -62.5t-29.5 -42.5t-44 -27t-63 -21zM80 624q0 19 1 26t7.5 11.5t20.5 4.5q19 0 23.5 -8t4.5 -34t-4.5 -34t-23.5 -8q-20 0 -24.5 8t-4.5 34z" />
    <glyph glyph-name="k" unicode="k" horiz-adv-x="449" 
d="M132 0h-51v697l51 12v-444l213 218h68l-219 -219l234 -264h-66l-230 264v-264z" />
    <glyph glyph-name="l" unicode="l" horiz-adv-x="261" 
d="M225 42l13 -43q-36 -10 -79 -10q-53 0 -67 25.5t-14 88.5v594l50 12v-611q0 -35 8.5 -49.5t33.5 -14.5q29 0 55 8z" />
    <glyph glyph-name="m" unicode="m" horiz-adv-x="769" 
d="M690 0h-51v386q0 38 -14 50.5t-42 12.5q-73 0 -172 -64v-385h-51v386q0 38 -13.5 50.5t-41.5 12.5q-30 0 -79.5 -18t-92.5 -46v-385h-51v483h47l4 -51q99 63 182 63q78 0 93 -63q111 63 185 63q55 0 76 -27t21 -82v-386z" />
    <glyph glyph-name="n" unicode="n" horiz-adv-x="510" 
d="M431 0h-51v384q0 64 -67 64q-35 0 -86 -18t-95 -44v-386h-51v483h47l4 -49q111 60 188 60q111 0 111 -107v-387z" />
    <glyph glyph-name="o" unicode="o" horiz-adv-x="510" 
d="M397 241q0 116 -27 161.5t-115 45.5t-115 -45t-27 -162q0 -116 27 -161t115 -45t115 45t27 161zM449 241q0 -134 -38.5 -193t-155.5 -59q-61 0 -100 15.5t-59.5 50t-27.5 77t-7 109.5t7 110t27.5 77.5t59.5 50t100 15.5q117 0 155.5 -59t38.5 -194z" />
    <glyph glyph-name="p" unicode="p" horiz-adv-x="514" 
d="M295 494q41 0 69.5 -11.5t45 -30.5t25.5 -53.5t11.5 -69t2.5 -88.5q0 -46 -2.5 -77.5t-12.5 -67t-27.5 -57t-50 -35.5t-77.5 -14q-62 0 -147 17v-198l-51 -13v687h47l2 -56q33 30 79 48.5t86 18.5zM132 378v-324q81 -20 145 -20q67 0 93.5 46t26.5 161t-20.5 162
t-86.5 47q-80 0 -158 -72z" />
    <glyph glyph-name="q" unicode="q" horiz-adv-x="507" 
d="M221 -11q-96 0 -126.5 56t-30.5 196q0 58 3.5 94t15 70t33 51.5t57 28t88.5 10.5q86 0 166 -16v-670l-51 -13v225q-79 -32 -155 -32zM376 68v372q-52 11 -118 11q-39 0 -65.5 -9.5t-42 -24t-23.5 -43.5t-10 -57.5t-2 -75.5q0 -116 21 -161t92 -45q68 0 148 33z" />
    <glyph glyph-name="r" unicode="r" horiz-adv-x="318" 
d="M301 495l1 -54q-80 -10 -169 -70v-371h-51v483h48l3 -64q74 57 168 76z" />
    <glyph glyph-name="s" unicode="s" horiz-adv-x="428" 
d="M375 122q0 -75 -41.5 -104t-133.5 -29q-68 0 -135 19l6 45q66 -18 130 -18q65 0 94.5 16.5t29.5 69.5q0 50 -18 67t-97 36q-53 13 -82 24.5t-44 29.5t-18.5 36.5t-3.5 55.5q0 63 39 94t123 31q70 0 137 -13l-7 -46q-74 14 -134 14q-58 0 -83 -19t-25 -59q0 -48 16.5 -64
t87.5 -34q59 -15 90 -27t47 -31t19 -37t3 -57z" />
    <glyph glyph-name="t" unicode="t" horiz-adv-x="354" 
d="M314 6q-58 -16 -107 -16q-63 0 -80.5 27t-17.5 98v315h-82v44h82v131l51 14v-145h138l-12 -44h-126v-314q0 -48 9 -64t46 -16q45 0 93 16z" />
    <glyph glyph-name="u" unicode="u" horiz-adv-x="509" 
d="M77 483h50v-383q0 -64 67 -64q35 0 86 18t95 44v385h51v-483h-47l-3 50q-111 -60 -189 -60q-110 0 -110 107v386z" />
    <glyph glyph-name="v" unicode="v" horiz-adv-x="424" 
d="M409 483l-170 -483h-57l-167 483h54l142 -420l144 420h54z" />
    <glyph glyph-name="w" unicode="w" horiz-adv-x="683" 
d="M218 0h-62l-133 483h53l113 -426l126 334h54l125 -334l113 426h53l-133 -483h-61l-124 335z" />
    <glyph glyph-name="x" unicode="x" horiz-adv-x="439" 
d="M219 206l-141 -206h-60l172 247l-163 236h60l132 -196l133 196h59l-163 -235l172 -248h-59z" />
    <glyph glyph-name="y" unicode="y" horiz-adv-x="429" 
d="M361 483h54l-251 -684h-52l75 200l-173 484h54l145 -413z" />
    <glyph glyph-name="z" unicode="z" horiz-adv-x="449" 
d="M69 438v45h316v-41l-270 -397h278v-45h-339v40l271 398h-256z" />
    <glyph glyph-name="braceleft" unicode="{" horiz-adv-x="293" 
d="M26 306q18 2 28.5 5t23 11.5t18.5 27.5t6 49v229q0 75 41.5 106.5t123.5 35.5v-46q-57 -3 -86.5 -23t-29.5 -73v-238q0 -86 -54 -106q54 -21 54 -106v-237q0 -53 30 -73t86 -23v-46q-83 4 -124 35t-41 106v229q0 30 -6 49t-18.5 27.5t-23 11.5t-28.5 4v45z" />
    <glyph glyph-name="bar" unicode="|" horiz-adv-x="247" 
d="M146 722v-928h-45v928h45z" />
    <glyph glyph-name="braceright" unicode="}" horiz-adv-x="293" 
d="M267 307v-45q-17 -1 -28 -4t-23.5 -12t-18.5 -28t-6 -49v-229q0 -75 -41 -106.5t-123 -34.5v46q56 3 86 23t30 72v219q0 106 54 126q-54 18 -54 125v218q0 53 -30 73t-86 23v46q82 -4 123 -35t41 -106v-230q0 -30 6 -48.5t19 -27.5t23 -11.5t28 -4.5z" />
    <glyph glyph-name="asciitilde" unicode="~" horiz-adv-x="500" 
d="M435 346l14 -41q-45 -70 -113 -70q-38 0 -89.5 31t-78.5 31q-34 0 -56.5 -15.5t-47.5 -51.5l-15 40q21 32 52.5 52.5t66.5 20.5q38 0 90 -31t79 -31q34 0 55 16.5t43 48.5z" />
    <glyph glyph-name="uni00A0" unicode="&#xa0;" horiz-adv-x="240" 
 />
    <glyph glyph-name="exclamdown" unicode="&#xa1;" horiz-adv-x="222" 
d="M92 347h35l6 -176l3 -374h-52l4 374zM139 460q0 -26 -4.5 -34t-24.5 -8q-19 0 -24 8t-5 34q0 25 5 33t24 8q20 0 24.5 -8t4.5 -33z" />
    <glyph glyph-name="cent" unicode="&#xa2;" horiz-adv-x="436" 
d="M234 -14v101q-46 2 -77.5 14t-50.5 31t-29.5 52t-14 68t-3.5 87q0 127 35.5 187t139.5 65v107h45v-106q53 -1 97 -9l-4 -50q-43 10 -93 12v-412q42 3 90 13l5 -47q-46 -9 -95 -12v-101h-45zM111 339q0 -111 23 -156t100 -50v412q-72 -4 -97.5 -50t-25.5 -156z" />
    <glyph glyph-name="sterling" unicode="&#xa3;" 
d="M395 321h-173q13 -45 13 -86q0 -81 -59 -191h299l2 -44h-321q-39 0 -72 -3l-3 39l53 17q52 94 52 171q0 54 -16 97h-101v44h84l-7.5 15l-8 16t-6.5 14.5t-6.5 16.5t-5.5 15t-5.5 17t-3.5 17t-2.5 19.5t-0.5 19.5q0 83 44 126.5t152 43.5q85 0 153 -27l-4 -49
q-65 29 -149 29q-77 0 -111 -28.5t-34 -95.5q0 -16 2.5 -31t8.5 -32t10 -27t14.5 -31t13.5 -28h197z" />
    <glyph glyph-name="currency" unicode="&#xa4;" 
d="M55 526l28 29l66 -69q58 48 130 48q75 0 129 -48l68 70l28 -29l-67 -70q47 -58 47 -133t-47 -133l66 -69l-28 -29l-67 68q-57 -47 -129 -47t-130 47l-66 -68l-28 29l66 68q-46 57 -46 134q0 76 46 133zM119 324q0 -70 47 -118.5t113 -48.5q67 0 114 48.5t47 118.5
t-47 118t-114 48q-66 0 -113 -48.5t-47 -117.5z" />
    <glyph glyph-name="yen" unicode="&#xa5;" 
d="M83 317v43h111l-166 324h55l196 -385l196 385h55l-166 -324h111v-43h-134l-37 -75v-44h171v-43h-171v-155h-50v155h-171v43h171v44l-38 75h-133z" />
    <glyph glyph-name="brokenbar" unicode="&#xa6;" horiz-adv-x="247" 
d="M146 723v-383h-45v383h45zM146 -201h-45v383h45v-383z" />
    <glyph glyph-name="section" unicode="&#xa7;" horiz-adv-x="532" 
d="M462 246q0 -83 -105 -142q99 -50 99 -140q0 -70 -49 -118t-156 -48q-90 0 -169 28l7 47q65 -28 162 -28q155 0 155 118q0 18 -5 33t-17.5 28t-23 22t-31.5 19t-32 15t-36 15t-33 13q-73 30 -115 67t-42 94q0 94 91 140q-80 45 -80 125q0 72 47.5 116t153.5 44
q91 0 153 -24l-5 -48q-58 25 -148 25q-150 0 -150 -113q0 -23 9.5 -42t32 -34t37 -22.5t47.5 -20.5t41 -17q78 -33 120 -66.5t42 -85.5zM246 372l-44 17q-82 -41 -82 -115q0 -21 11 -40t23 -30.5t40 -26.5t40 -20t46 -19l37 -15q29 19 46 32t33.5 36.5t16.5 48.5
q0 23 -14 42.5t-43.5 37t-50.5 27.5t-59 25z" />
    <glyph glyph-name="dieresis" unicode="&#xa8;" horiz-adv-x="333" 
d="M219 615q0 25 4.5 33t24.5 8q19 0 24 -8t5 -33t-5 -33t-24 -8q-20 0 -24.5 8t-4.5 33zM56 615q0 25 4.5 33t24.5 8q19 0 23.5 -8t4.5 -33t-4.5 -33t-23.5 -8q-20 0 -24.5 8t-4.5 33z" />
    <glyph glyph-name="copyright" unicode="&#xa9;" horiz-adv-x="827" 
d="M416 142q-89 0 -119 42t-30 154t27.5 156t115.5 44q60 0 116 -13l-3 -41q-52 14 -111 14q-65 0 -83 -32.5t-18 -127.5q0 -92 19 -123.5t86 -31.5q57 0 107 13l3 -41q-48 -13 -110 -13zM62 342q0 160 91 256.5t261 96.5q169 0 260.5 -96.5t91.5 -256.5t-91.5 -256.5
t-260.5 -96.5q-170 0 -261 96.5t-91 256.5zM106 342q0 -141 78 -226t230 -85q151 0 229.5 85t78.5 226t-78.5 226t-229.5 85q-152 0 -230 -85t-78 -226z" />
    <glyph glyph-name="ordfeminine" unicode="&#xaa;" horiz-adv-x="372" 
d="M297 624v-229h-39l-3 25q-45 -31 -92 -31q-19 0 -33 2.5t-30 10.5t-24.5 27t-8.5 47q0 63 34 79.5t119 16.5h35v52q0 22 -15.5 32.5t-52.5 10.5q-40 0 -96 -15l-4 38q62 15 108 15q102 0 102 -81zM255 459v76q-2 0 -18 0.5t-20 0.5q-40 0 -59.5 -2.5t-34 -15.5t-14.5 -40
q0 -23 10 -35t20.5 -14.5t27.5 -2.5q42 0 88 33z" />
    <glyph glyph-name="guillemotleft" unicode="&#xab;" horiz-adv-x="454" 
d="M77 244l149 -170l-32 -32l-158 178v47l158 179l32 -33zM268 244l149 -170l-32 -32l-158 178v47l158 179l32 -33z" />
    <glyph glyph-name="logicalnot" unicode="&#xac;" horiz-adv-x="523" 
d="M62 286v44h376v-215h-45v171h-331z" />
    <glyph glyph-name="uni00AD" unicode="&#xad;" horiz-adv-x="362" 
d="M63 245v47h236v-47h-236z" />
    <glyph glyph-name="registered" unicode="&#xae;" horiz-adv-x="662" 
d="M60 433q0 126 68 199t203 73t202.5 -73t67.5 -199t-67.5 -198.5t-202.5 -72.5q-134 0 -202.5 73t-68.5 198zM100 433q0 -108 56.5 -170.5t174.5 -62.5t174 62.5t56 170.5q0 109 -56 171t-174 62t-174.5 -62.5t-56.5 -170.5zM412 288l-74 111h-69v-111h-37v294h119
q47 0 64 -23.5t17 -69.5q0 -71 -48 -86l75 -115h-47zM394 489q0 32 -10 45.5t-40 13.5h-75v-115h81q25 0 34.5 12.5t9.5 43.5z" />
    <glyph glyph-name="macron" unicode="&#xaf;" horiz-adv-x="333" 
d="M46 586v41h241v-41h-241z" />
    <glyph glyph-name="degree" unicode="&#xb0;" horiz-adv-x="338" 
d="M56 574q0 46 33 79.5t80 33.5q46 0 79 -33t33 -80t-32.5 -80t-79.5 -33t-80 33t-33 80zM91 574q0 -33 23 -56t55 -23t55 23t23 56q0 32 -23 55t-55 23t-55 -23t-23 -55z" />
    <glyph glyph-name="plusminus" unicode="&#xb1;" horiz-adv-x="500" 
d="M62 279v44h165v167h45v-167h166v-44h-166v-167h-45v167h-165zM62 0v44h376v-44h-376z" />
    <glyph glyph-name="two.superior" unicode="&#xb2;" horiz-adv-x="381" 
d="M119 278h199v-39h-257v35q99 108 140 162q72 92 72 143q0 37 -20.5 54.5t-68.5 17.5q-60 0 -110 -26l-6 40q50 26 120 26q71 0 100.5 -27.5t29.5 -82.5q0 -37 -18 -73t-63 -93q-28 -36 -118 -137z" />
    <glyph glyph-name="three.superior" unicode="&#xb3;" horiz-adv-x="381" 
d="M59 250l4 40q59 -19 112 -19q54 0 78.5 17.5t24.5 64.5v21q0 40 -22.5 55.5t-69.5 15.5h-76v39h57q53 0 76 15t23 59v26q0 36 -20.5 51.5t-66.5 15.5q-47 0 -105 -20l-4 41q62 18 110 18q68 0 99.5 -25t31.5 -77v-22q0 -41 -12.5 -62.5t-43.5 -34.5q37 -9 52.5 -31.5
t15.5 -68.5v-13q0 -67 -36 -95.5t-112 -28.5q-64 0 -116 18z" />
    <glyph glyph-name="acute" unicode="&#xb4;" horiz-adv-x="333" 
d="M276 622l-172 -79l-10 40l180 88z" />
    <glyph glyph-name="micro" unicode="&#xb5;" horiz-adv-x="509" 
d="M76 482h51v-382q0 -64 67 -64q35 0 86 18t95 44v384h51v-482h-47l-3 50q-109 -60 -189 -60q-38 0 -60 15v-196l-51 -12v685z" />
    <glyph glyph-name="paragraph" unicode="&#xb6;" horiz-adv-x="561" 
d="M441 642v-831l-46 -13v844h-116v-831l-45 -13v495q-90 0 -149.5 56t-59.5 136q0 97 59 148t166 51h262l-9 -42h-62z" />
    <glyph glyph-name="periodcentered" unicode="&#xb7;" horiz-adv-x="215" 
d="M79 285q0 26 4.5 34t24.5 8q19 0 23.5 -8t4.5 -34q0 -25 -4.5 -33t-23.5 -8q-20 0 -24.5 8t-4.5 33z" />
    <glyph glyph-name="cedilla" unicode="&#xb8;" horiz-adv-x="333" 
d="M222 -147v40q0 21 -52 21q-4 0 -9.5 -0.5t-7.5 -0.5l-21 8l17 81h35l-13 -55q94 1 94 -53v-43q0 -23 -23.5 -37t-68.5 -14q-38 0 -70 7l6 33q42 -5 60 -5q53 0 53 18z" />
    <glyph glyph-name="one.superior" unicode="&#xb9;" horiz-adv-x="381" 
d="M109 239v39h76v357l-82 -42l-10 40l98 51h38v-406h72v-39h-192z" />
    <glyph glyph-name="ordmasculine" unicode="&#xba;" horiz-adv-x="392" 
d="M281 547q0 66 -17.5 93t-68.5 27q-50 0 -67 -27t-17 -93t17 -93t67 -27q51 0 68.5 27t17.5 93zM323 547q0 -81 -27.5 -119.5t-100.5 -38.5q-72 0 -99.5 39t-27.5 119t27.5 119t99.5 39q73 0 100.5 -38.5t27.5 -119.5z" />
    <glyph glyph-name="guillemotright" unicode="&#xbb;" horiz-adv-x="454" 
d="M186 244l-150 169l32 33l158 -179v-47l-158 -178l-32 32zM377 244l-150 169l32 33l158 -179v-47l-158 -178l-32 32z" />
    <glyph glyph-name="onequarter" unicode="&#xbc;" horiz-adv-x="906" 
d="M109 239v39h76v357l-82 -42l-10 40l98 51h38v-406h72v-39h-192zM624 692l-298 -702l-43 14l297 701zM874 128h-61v-128h-45v128h-211v41l209 276h47v-277h61v-40zM606 168h162v213z" />
    <glyph glyph-name="onehalf" unicode="&#xbd;" horiz-adv-x="906" 
d="M109 239v39h76v357l-82 -42l-10 40l98 51h38v-406h72v-39h-192zM624 692l-298 -702l-43 14l297 701zM644 39h199v-39h-257v35q99 108 140 162q72 92 72 143q0 37 -20.5 54.5t-68.5 17.5q-60 0 -110 -26l-6 40q50 26 120 26q71 0 100.5 -27.5t29.5 -82.5q0 -37 -18 -73
t-63 -93q-28 -36 -118 -137z" />
    <glyph glyph-name="threequarters" unicode="&#xbe;" horiz-adv-x="906" 
d="M59 250l4 40q59 -19 112 -19q54 0 78.5 17.5t24.5 64.5v21q0 40 -22.5 55.5t-69.5 15.5h-76v39h57q53 0 76 15t23 59v26q0 36 -20.5 51.5t-66.5 15.5q-47 0 -105 -20l-4 41q62 18 110 18q68 0 99.5 -25t31.5 -77v-22q0 -41 -12.5 -62.5t-43.5 -34.5q37 -9 52.5 -31.5
t15.5 -68.5v-13q0 -67 -36 -95.5t-112 -28.5q-64 0 -116 18zM634 692l-298 -702l-43 14l297 701zM874 128h-61v-128h-45v128h-211v41l209 276h47v-277h61v-40zM606 168h162v213z" />
    <glyph glyph-name="questiondown" unicode="&#xbf;" horiz-adv-x="433" 
d="M248 309l44 -15q-9 -62 -24.5 -91.5t-64.5 -68.5q-3 -3 -15 -12t-15 -11.5t-12.5 -11t-12.5 -12.5t-10 -13t-9.5 -15.5t-7 -17.5t-6 -21.5t-3 -24t-1.5 -29.5q0 -70 27 -98.5t101 -28.5q60 0 133 22l6 -47q-88 -22 -141 -22q-97 0 -137 39.5t-40 132.5q0 24 3 44
t5.5 34.5t11.5 30.5t12.5 23t18 21t18 17.5t22.5 18.5t22 18q40 31 53.5 57t21.5 81zM292 466q0 -26 -4.5 -34t-24.5 -8q-19 0 -23.5 8t-4.5 34q0 25 4.5 33t23.5 8q20 0 24.5 -8t4.5 -33z" />
    <glyph glyph-name="Agrave" unicode="&#xc0;" horiz-adv-x="604" 
d="M575 0h-55l-74 209h-292l-71 -209h-54l240 684h61zM431 254l-133 376l-128 -376h261zM373 771l-9 -40l-173 78l2 50z" />
    <glyph glyph-name="Aacute" unicode="&#xc1;" horiz-adv-x="604" 
d="M575 0h-55l-74 209h-292l-71 -209h-54l240 684h61zM431 254l-133 376l-128 -376h261zM412 809l-172 -79l-10 40l180 88z" />
    <glyph glyph-name="Acircumflex" unicode="&#xc2;" horiz-adv-x="604" 
d="M575 0h-55l-74 209h-292l-71 -209h-54l240 684h61zM431 254l-133 376l-128 -376h261zM451 769l-20 -36l-131 72l-132 -73l-16 37l148 86z" />
    <glyph glyph-name="Atilde" unicode="&#xc3;" horiz-adv-x="604" 
d="M575 0h-55l-74 209h-292l-71 -209h-54l240 684h61zM431 254l-133 376l-128 -376h261zM364 754q-21 0 -64.5 14.5t-61.5 14.5q-38 0 -63 -22l-5 42q28 23 70 23q24 0 66.5 -14.5t58.5 -14.5q38 0 64 22l5 -42q-28 -23 -70 -23z" />
    <glyph glyph-name="Adieresis" unicode="&#xc4;" horiz-adv-x="604" 
d="M575 0h-55l-74 209h-292l-71 -209h-54l240 684h61zM431 254l-133 376l-128 -376h261zM354 802q0 25 4.5 33t24.5 8q19 0 24 -8t5 -33t-5 -33t-24 -8q-20 0 -24.5 8t-4.5 33zM191 802q0 25 4.5 33t24.5 8q19 0 23.5 -8t4.5 -33t-4.5 -33t-23.5 -8q-20 0 -24.5 8t-4.5 33z
" />
    <glyph glyph-name="Aring" unicode="&#xc5;" horiz-adv-x="604" 
d="M575 0h-55l-74 209h-292l-71 -209h-54l240 684h61zM431 254l-133 376l-128 -376h261zM372 801q0 -31 -19.5 -50t-50.5 -19q-32 0 -51.5 19.5t-19.5 49.5q0 31 19.5 50t51.5 19q31 0 50.5 -19t19.5 -50zM339 801q0 17 -10 27.5t-27 10.5q-18 0 -28.5 -10.5t-10.5 -27.5
t10.5 -27t28.5 -10q37 0 37 37z" />
    <glyph glyph-name="AE" unicode="&#xc6;" horiz-adv-x="849" 
d="M342 684h443v-48h-365l54 -260h278v-47h-269l57 -282h246v-47h-287l-43 209h-277l-96 -209h-54zM447 254l-78 380l-170 -380h248z" />
    <glyph glyph-name="Ccedilla" unicode="&#xc7;" horiz-adv-x="522" 
d="M349 -147v40q0 21 -52 21q-4 0 -9.5 -0.5t-7.5 -0.5l-21 8l14 70q-54 5 -91.5 23.5t-58.5 44t-32.5 70t-14.5 87t-3 108.5v36q0 72 4.5 120t19 92.5t41 69t70 39t106.5 14.5q90 0 158 -17l-2 -50q-67 19 -154 19q-63 0 -101.5 -15.5t-58 -54.5t-25.5 -87t-6 -132v-32
q0 -67 3 -106.5t14 -79t32 -59.5t57.5 -32t90.5 -12q82 0 148 18l1 -49q-64 -17 -150 -17h-13l-10 -42q94 1 94 -53v-43q0 -23 -23.5 -37t-68.5 -14q-38 0 -70 7l6 33q42 -5 60 -5q53 0 53 18z" />
    <glyph glyph-name="Egrave" unicode="&#xc8;" horiz-adv-x="524" 
d="M88 0v684h372v-48h-321v-261h288v-48h-288v-279h322v-48h-373zM350 771l-9 -40l-173 78l2 50z" />
    <glyph glyph-name="Eacute" unicode="&#xc9;" horiz-adv-x="524" 
d="M88 0v684h372v-48h-321v-261h288v-48h-288v-279h322v-48h-373zM382 809l-172 -79l-10 40l180 88z" />
    <glyph glyph-name="Ecircumflex" unicode="&#xca;" horiz-adv-x="524" 
d="M88 0v684h372v-48h-321v-261h288v-48h-288v-279h322v-48h-373zM417 769l-20 -36l-131 72l-132 -73l-16 37l148 86z" />
    <glyph glyph-name="Edieresis" unicode="&#xcb;" horiz-adv-x="524" 
d="M88 0v684h372v-48h-321v-261h288v-48h-288v-279h322v-48h-373zM324 802q0 25 4.5 33t24.5 8q19 0 24 -8t5 -33t-5 -33t-24 -8q-20 0 -24.5 8t-4.5 33zM161 802q0 25 4.5 33t24.5 8q19 0 23.5 -8t4.5 -33t-4.5 -33t-23.5 -8q-20 0 -24.5 8t-4.5 33z" />
    <glyph glyph-name="Igrave" unicode="&#xcc;" horiz-adv-x="237" 
d="M144 684v-684h-52v684h52zM190 771l-9 -40l-173 78l2 50z" />
    <glyph glyph-name="Iacute" unicode="&#xcd;" horiz-adv-x="237" 
d="M144 684v-684h-52v684h52zM229 809l-172 -79l-10 40l180 88z" />
    <glyph glyph-name="Icircumflex" unicode="&#xce;" horiz-adv-x="237" 
d="M144 684v-684h-52v684h52zM268 769l-20 -36l-131 72l-132 -73l-16 37l148 86z" />
    <glyph glyph-name="Idieresis" unicode="&#xcf;" horiz-adv-x="237" 
d="M144 684v-684h-52v684h52zM172 802q0 25 4.5 33t24.5 8q19 0 24 -8t5 -33t-5 -33t-24 -8q-20 0 -24.5 8t-4.5 33zM9 802q0 25 4.5 33t24.5 8q19 0 23.5 -8t4.5 -33t-4.5 -33t-23.5 -8q-20 0 -24.5 8t-4.5 33z" />
    <glyph glyph-name="Eth" unicode="&#xd0;" horiz-adv-x="604" 
d="M87 684h205q66 0 110.5 -14.5t70 -38t39 -68t17 -88t3.5 -114.5v-37q0 -49 -1 -76.5t-5.5 -67t-13.5 -61.5t-26 -48t-42.5 -39.5t-63 -22.5t-86.5 -9h-207v323h-75v47h75v314zM292 636h-153v-266h171v-47h-171v-276h155q30 0 55 4.5t43 11t32 20.5t23.5 25.5t16 33.5
t9.5 37.5t4.5 44.5t2 47t0.5 53v36q0 45 -1 74.5t-5.5 61.5t-12.5 51.5t-21.5 38.5t-33.5 28.5t-48 15.5t-66 6z" />
    <glyph glyph-name="Ntilde" unicode="&#xd1;" horiz-adv-x="636" 
d="M482 0l-343 607v-607h-51v684h64l343 -610v610h51v-684h-64zM379 754q-21 0 -64.5 14.5t-61.5 14.5q-38 0 -63 -22l-5 42q28 23 70 23q24 0 66.5 -14.5t58.5 -14.5q38 0 64 22l5 -42q-28 -23 -70 -23z" />
    <glyph glyph-name="Ograve" unicode="&#xd2;" horiz-adv-x="630" 
d="M503 325v34q0 80 -6.5 128.5t-25.5 87.5t-57 55.5t-99 16.5t-99 -16.5t-57.5 -55.5t-25.5 -87.5t-6 -128.5v-34q0 -80 6 -128.5t25.5 -87.5t57.5 -55.5t99 -16.5t99 16.5t57 55.5t25.5 87.5t6.5 128.5zM555 360v-36q0 -71 -5.5 -120.5t-20.5 -92.5t-41.5 -68.5
t-69.5 -39.5t-103 -14q-61 0 -103.5 14t-69.5 39.5t-42 68.5t-20.5 92.5t-5.5 120.5v36q0 71 5.5 120.5t20.5 92.5t42 68.5t69.5 39.5t103.5 14q60 0 103 -14t69.5 -39.5t41.5 -68.5t20.5 -92.5t5.5 -120.5zM385 771l-9 -40l-173 78l2 50z" />
    <glyph glyph-name="Oacute" unicode="&#xd3;" horiz-adv-x="630" 
d="M503 325v34q0 80 -6.5 128.5t-25.5 87.5t-57 55.5t-99 16.5t-99 -16.5t-57.5 -55.5t-25.5 -87.5t-6 -128.5v-34q0 -80 6 -128.5t25.5 -87.5t57.5 -55.5t99 -16.5t99 16.5t57 55.5t25.5 87.5t6.5 128.5zM555 360v-36q0 -71 -5.5 -120.5t-20.5 -92.5t-41.5 -68.5
t-69.5 -39.5t-103 -14q-61 0 -103.5 14t-69.5 39.5t-42 68.5t-20.5 92.5t-5.5 120.5v36q0 71 5.5 120.5t20.5 92.5t42 68.5t69.5 39.5t103.5 14q60 0 103 -14t69.5 -39.5t41.5 -68.5t20.5 -92.5t5.5 -120.5zM425 809l-172 -79l-10 40l180 88z" />
    <glyph glyph-name="Ocircumflex" unicode="&#xd4;" horiz-adv-x="630" 
d="M503 325v34q0 80 -6.5 128.5t-25.5 87.5t-57 55.5t-99 16.5t-99 -16.5t-57.5 -55.5t-25.5 -87.5t-6 -128.5v-34q0 -80 6 -128.5t25.5 -87.5t57.5 -55.5t99 -16.5t99 16.5t57 55.5t25.5 87.5t6.5 128.5zM555 360v-36q0 -71 -5.5 -120.5t-20.5 -92.5t-41.5 -68.5
t-69.5 -39.5t-103 -14q-61 0 -103.5 14t-69.5 39.5t-42 68.5t-20.5 92.5t-5.5 120.5v36q0 71 5.5 120.5t20.5 92.5t42 68.5t69.5 39.5t103.5 14q60 0 103 -14t69.5 -39.5t41.5 -68.5t20.5 -92.5t5.5 -120.5zM464 769l-20 -36l-131 72l-132 -73l-16 37l148 86z" />
    <glyph glyph-name="Otilde" unicode="&#xd5;" horiz-adv-x="630" 
d="M503 325v34q0 80 -6.5 128.5t-25.5 87.5t-57 55.5t-99 16.5t-99 -16.5t-57.5 -55.5t-25.5 -87.5t-6 -128.5v-34q0 -80 6 -128.5t25.5 -87.5t57.5 -55.5t99 -16.5t99 16.5t57 55.5t25.5 87.5t6.5 128.5zM555 360v-36q0 -71 -5.5 -120.5t-20.5 -92.5t-41.5 -68.5
t-69.5 -39.5t-103 -14q-61 0 -103.5 14t-69.5 39.5t-42 68.5t-20.5 92.5t-5.5 120.5v36q0 71 5.5 120.5t20.5 92.5t42 68.5t69.5 39.5t103.5 14q60 0 103 -14t69.5 -39.5t41.5 -68.5t20.5 -92.5t5.5 -120.5zM377 754q-21 0 -64.5 14.5t-61.5 14.5q-38 0 -63 -22l-5 42
q28 23 70 23q24 0 66.5 -14.5t58.5 -14.5q38 0 64 22l5 -42q-28 -23 -70 -23z" />
    <glyph glyph-name="Odieresis" unicode="&#xd6;" horiz-adv-x="630" 
d="M503 325v34q0 80 -6.5 128.5t-25.5 87.5t-57 55.5t-99 16.5t-99 -16.5t-57.5 -55.5t-25.5 -87.5t-6 -128.5v-34q0 -80 6 -128.5t25.5 -87.5t57.5 -55.5t99 -16.5t99 16.5t57 55.5t25.5 87.5t6.5 128.5zM555 360v-36q0 -71 -5.5 -120.5t-20.5 -92.5t-41.5 -68.5
t-69.5 -39.5t-103 -14q-61 0 -103.5 14t-69.5 39.5t-42 68.5t-20.5 92.5t-5.5 120.5v36q0 71 5.5 120.5t20.5 92.5t42 68.5t69.5 39.5t103.5 14q60 0 103 -14t69.5 -39.5t41.5 -68.5t20.5 -92.5t5.5 -120.5zM367 802q0 25 4.5 33t24.5 8q19 0 24 -8t5 -33t-5 -33t-24 -8
q-20 0 -24.5 8t-4.5 33zM204 802q0 25 4.5 33t24.5 8q19 0 23.5 -8t4.5 -33t-4.5 -33t-23.5 -8q-20 0 -24.5 8t-4.5 33z" />
    <glyph glyph-name="multiply" unicode="&#xd7;" horiz-adv-x="500" 
d="M88 413l31 30l131 -130l131 131l30 -31l-131 -131l131 -131l-31 -30l-130 130l-132 -131l-30 31l131 131z" />
    <glyph glyph-name="Oslash" unicode="&#xd8;" horiz-adv-x="630" 
d="M555 360v-36q0 -71 -5.5 -120.5t-20.5 -92.5t-41.5 -68.5t-69.5 -39.5t-103 -14q-85 0 -138 28l-37 -74l-38 19l41 80q-40 38 -54.5 105.5t-14.5 176.5v36q0 71 5.5 120.5t20.5 92.5t42 68.5t69.5 39.5t103.5 14q89 0 142 -31l33 64l38 -19l-37 -73q36 -38 50 -105
t14 -171zM127 325q0 -90 8.5 -144.5t32.5 -87.5l266 524q-42 30 -119 30q-61 0 -99 -16.5t-57.5 -55.5t-25.5 -87.5t-6 -128.5v-34zM503 325v34q0 170 -38 226l-265 -523q40 -25 115 -25q61 0 99 16.5t57 55.5t25.5 87.5t6.5 128.5z" />
    <glyph glyph-name="Ugrave" unicode="&#xd9;" horiz-adv-x="626" 
d="M133 684v-465q0 -183 180 -183t180 183v465h52v-462q0 -233 -232 -233t-232 233v462h52zM384 771l-9 -40l-173 78l2 50z" />
    <glyph glyph-name="Uacute" unicode="&#xda;" horiz-adv-x="626" 
d="M133 684v-465q0 -183 180 -183t180 183v465h52v-462q0 -233 -232 -233t-232 233v462h52zM423 809l-172 -79l-10 40l180 88z" />
    <glyph glyph-name="Ucircumflex" unicode="&#xdb;" horiz-adv-x="626" 
d="M133 684v-465q0 -183 180 -183t180 183v465h52v-462q0 -233 -232 -233t-232 233v462h52zM462 769l-20 -36l-131 72l-132 -73l-16 37l148 86z" />
    <glyph glyph-name="Udieresis" unicode="&#xdc;" horiz-adv-x="626" 
d="M133 684v-465q0 -183 180 -183t180 183v465h52v-462q0 -233 -232 -233t-232 233v462h52zM366 802q0 25 4.5 33t24.5 8q19 0 24 -8t5 -33t-5 -33t-24 -8q-20 0 -24.5 8t-4.5 33zM203 802q0 25 4.5 33t24.5 8q19 0 23.5 -8t4.5 -33t-4.5 -33t-23.5 -8q-20 0 -24.5 8
t-4.5 33z" />
    <glyph glyph-name="Yacute" unicode="&#xdd;" horiz-adv-x="537" 
d="M70 684l198 -387l199 387h57l-230 -444v-240h-51v240l-231 444h58zM379 809l-172 -79l-10 40l180 88z" />
    <glyph glyph-name="Thorn" unicode="&#xde;" horiz-adv-x="546" 
d="M88 0v684h51v-125h176q107 0 143 -46t36 -160q0 -59 -5.5 -94t-23.5 -64t-53.5 -41t-93.5 -12h-179v-142h-51zM442 353q0 93 -26.5 126t-105.5 33h-171v-322h174q44 0 70.5 9t39 32t16 49t3.5 73z" />
    <glyph glyph-name="germandbls" unicode="&#xdf;" horiz-adv-x="575" 
d="M266 347q0 9 2.5 19t5 16.5t10.5 18.5t11 16t14.5 18.5t14.5 17.5q41 54 41 104t-30.5 79.5t-86.5 29.5q-61 0 -88 -34.5t-27 -101.5v-530h-51v530q0 180 166 180q80 0 123 -42.5t43 -113.5q0 -54 -40 -109q-7 -10 -20 -26t-20 -25t-13 -21.5t-6 -23.5q0 -14 4 -23
t21 -20t27.5 -16t46.5 -22q57 -26 79 -55t22 -99q0 -66 -33.5 -95.5t-123.5 -29.5q-50 0 -113 18l9 46q54 -18 105 -18q62 0 84 18t22 61q0 51 -16 69.5t-68 44.5q-72 35 -89 50q-26 26 -26 69z" />
    <glyph glyph-name="agrave" unicode="&#xe0;" horiz-adv-x="480" 
d="M407 370v-370h-47l-3 48q-83 -58 -166 -58q-60 0 -97 28t-37 105q0 42 11 70.5t29 45t51.5 24.5t66 10.5t85.5 2.5q29 0 57 -1v95q0 79 -114 79q-68 0 -151 -24l-4 47q79 23 156 23q84 0 123.5 -33.5t39.5 -91.5zM357 95v136q-50 2 -61 2q-41 0 -65 -1.5t-51 -7.5
t-40.5 -17t-22.5 -31.5t-9 -50.5q0 -52 24 -71t66 -19q79 0 159 60zM311 584l-9 -40l-173 78l2 50z" />
    <glyph glyph-name="aacute" unicode="&#xe1;" horiz-adv-x="480" 
d="M407 370v-370h-47l-3 48q-83 -58 -166 -58q-60 0 -97 28t-37 105q0 42 11 70.5t29 45t51.5 24.5t66 10.5t85.5 2.5q29 0 57 -1v95q0 79 -114 79q-68 0 -151 -24l-4 47q79 23 156 23q84 0 123.5 -33.5t39.5 -91.5zM357 95v136q-50 2 -61 2q-41 0 -65 -1.5t-51 -7.5
t-40.5 -17t-22.5 -31.5t-9 -50.5q0 -52 24 -71t66 -19q79 0 159 60zM350 622l-172 -79l-10 40l180 88z" />
    <glyph glyph-name="acircumflex" unicode="&#xe2;" horiz-adv-x="480" 
d="M407 370v-370h-47l-3 48q-83 -58 -166 -58q-60 0 -97 28t-37 105q0 42 11 70.5t29 45t51.5 24.5t66 10.5t85.5 2.5q29 0 57 -1v95q0 79 -114 79q-68 0 -151 -24l-4 47q79 23 156 23q84 0 123.5 -33.5t39.5 -91.5zM357 95v136q-50 2 -61 2q-41 0 -65 -1.5t-51 -7.5
t-40.5 -17t-22.5 -31.5t-9 -50.5q0 -52 24 -71t66 -19q79 0 159 60zM389 582l-20 -36l-131 72l-132 -73l-16 37l148 86z" />
    <glyph glyph-name="atilde" unicode="&#xe3;" horiz-adv-x="480" 
d="M407 370v-370h-47l-3 48q-83 -58 -166 -58q-60 0 -97 28t-37 105q0 42 11 70.5t29 45t51.5 24.5t66 10.5t85.5 2.5q29 0 57 -1v95q0 79 -114 79q-68 0 -151 -24l-4 47q79 23 156 23q84 0 123.5 -33.5t39.5 -91.5zM357 95v136q-50 2 -61 2q-41 0 -65 -1.5t-51 -7.5
t-40.5 -17t-22.5 -31.5t-9 -50.5q0 -52 24 -71t66 -19q79 0 159 60zM302 567q-21 0 -64.5 14.5t-61.5 14.5q-38 0 -63 -22l-5 42q28 23 70 23q24 0 66.5 -14.5t58.5 -14.5q38 0 64 22l5 -42q-28 -23 -70 -23z" />
    <glyph glyph-name="adieresis" unicode="&#xe4;" horiz-adv-x="480" 
d="M407 370v-370h-47l-3 48q-83 -58 -166 -58q-60 0 -97 28t-37 105q0 42 11 70.5t29 45t51.5 24.5t66 10.5t85.5 2.5q29 0 57 -1v95q0 79 -114 79q-68 0 -151 -24l-4 47q79 23 156 23q84 0 123.5 -33.5t39.5 -91.5zM357 95v136q-50 2 -61 2q-41 0 -65 -1.5t-51 -7.5
t-40.5 -17t-22.5 -31.5t-9 -50.5q0 -52 24 -71t66 -19q79 0 159 60zM293 615q0 25 4.5 33t24.5 8q19 0 24 -8t5 -33t-5 -33t-24 -8q-20 0 -24.5 8t-4.5 33zM130 615q0 25 4.5 33t24.5 8q19 0 23.5 -8t4.5 -33t-4.5 -33t-23.5 -8q-20 0 -24.5 8t-4.5 33z" />
    <glyph glyph-name="aring" unicode="&#xe5;" horiz-adv-x="480" 
d="M407 370v-370h-47l-3 48q-83 -58 -166 -58q-60 0 -97 28t-37 105q0 42 11 70.5t29 45t51.5 24.5t66 10.5t85.5 2.5q29 0 57 -1v95q0 79 -114 79q-68 0 -151 -24l-4 47q79 23 156 23q84 0 123.5 -33.5t39.5 -91.5zM357 95v136q-50 2 -61 2q-41 0 -65 -1.5t-51 -7.5
t-40.5 -17t-22.5 -31.5t-9 -50.5q0 -52 24 -71t66 -19q79 0 159 60zM311 614q0 -31 -19.5 -50t-50.5 -19q-32 0 -51.5 19.5t-19.5 49.5q0 31 19.5 50t51.5 19q31 0 50.5 -19t19.5 -50zM278 614q0 17 -10 27.5t-27 10.5q-18 0 -28.5 -10.5t-10.5 -27.5t10.5 -27t28.5 -10
q37 0 37 37z" />
    <glyph glyph-name="ae" unicode="&#xe6;" horiz-adv-x="778" 
d="M706 55l3 -46q-71 -20 -166 -20q-125 0 -163 72q-34 -33 -84 -52.5t-101 -19.5q-29 0 -50.5 5t-43 18t-33 41t-11.5 69q0 36 6.5 61.5t22.5 42t33 26t49 14.5t59 6t72 1q30 0 57 -1v93q0 38 -27.5 61t-86.5 23q-68 0 -150 -24l-4 46q82 24 156 24q115 0 146 -73
q47 73 156 73q47 0 80 -11.5t51.5 -29.5t29 -49t13.5 -61t3 -74v-41h-318v-32q0 -91 29 -127t113 -36q90 0 159 21zM365 100q-9 44 -9 128q-42 2 -61 2q-42 0 -65 -1t-50 -6.5t-40.5 -16.5t-22.5 -31t-9 -50q0 -54 24.5 -72.5t67.5 -18.5q87 0 165 66zM405 281v-8h269v23
q0 77 -26 115t-102 38q-78 0 -109.5 -40.5t-31.5 -127.5z" />
    <glyph glyph-name="ccedilla" unicode="&#xe7;" horiz-adv-x="426" 
d="M291 -147v40q0 21 -52 21q-4 0 -9.5 -0.5t-7.5 -0.5l-21 8l14 70q-96 8 -126 66t-30 184q0 133 39 193t155 60q69 0 123 -9l-4 -50q-55 13 -119 13q-83 0 -112.5 -45.5t-29.5 -161.5q0 -117 27 -161.5t118 -44.5q49 0 113 13l5 -47q-63 -12 -120 -12h-4l-10 -42
q94 1 94 -53v-43q0 -23 -23.5 -37t-68.5 -14q-38 0 -70 7l6 33q42 -5 60 -5q53 0 53 18z" />
    <glyph glyph-name="egrave" unicode="&#xe8;" horiz-adv-x="481" 
d="M409 56l3 -46q-69 -21 -165 -21q-53 0 -88 11.5t-55 30.5t-30.5 56.5t-13 74t-2.5 99.5q0 118 41.5 176t149.5 58q47 0 80 -11.5t52 -29.5t29.5 -49t13.5 -61t3 -74v-46h-318v-15q0 -101 28.5 -138t113.5 -37q91 0 158 22zM109 277v-9h267v19q0 41 -4 67t-16.5 49.5
t-39 34.5t-67.5 11q-76 0 -108 -41.5t-32 -130.5zM311 584l-9 -40l-173 78l2 50z" />
    <glyph glyph-name="eacute" unicode="&#xe9;" horiz-adv-x="481" 
d="M409 56l3 -46q-69 -21 -165 -21q-53 0 -88 11.5t-55 30.5t-30.5 56.5t-13 74t-2.5 99.5q0 118 41.5 176t149.5 58q47 0 80 -11.5t52 -29.5t29.5 -49t13.5 -61t3 -74v-46h-318v-15q0 -101 28.5 -138t113.5 -37q91 0 158 22zM109 277v-9h267v19q0 41 -4 67t-16.5 49.5
t-39 34.5t-67.5 11q-76 0 -108 -41.5t-32 -130.5zM351 622l-172 -79l-10 40l180 88z" />
    <glyph glyph-name="ecircumflex" unicode="&#xea;" horiz-adv-x="481" 
d="M409 56l3 -46q-69 -21 -165 -21q-53 0 -88 11.5t-55 30.5t-30.5 56.5t-13 74t-2.5 99.5q0 118 41.5 176t149.5 58q47 0 80 -11.5t52 -29.5t29.5 -49t13.5 -61t3 -74v-46h-318v-15q0 -101 28.5 -138t113.5 -37q91 0 158 22zM109 277v-9h267v19q0 41 -4 67t-16.5 49.5
t-39 34.5t-67.5 11q-76 0 -108 -41.5t-32 -130.5zM389 582l-20 -36l-131 72l-132 -73l-16 37l148 86z" />
    <glyph glyph-name="edieresis" unicode="&#xeb;" horiz-adv-x="481" 
d="M409 56l3 -46q-69 -21 -165 -21q-53 0 -88 11.5t-55 30.5t-30.5 56.5t-13 74t-2.5 99.5q0 118 41.5 176t149.5 58q47 0 80 -11.5t52 -29.5t29.5 -49t13.5 -61t3 -74v-46h-318v-15q0 -101 28.5 -138t113.5 -37q91 0 158 22zM109 277v-9h267v19q0 41 -4 67t-16.5 49.5
t-39 34.5t-67.5 11q-76 0 -108 -41.5t-32 -130.5zM293 615q0 25 4.5 33t24.5 8q19 0 24 -8t5 -33t-5 -33t-24 -8q-20 0 -24.5 8t-4.5 33zM130 615q0 25 4.5 33t24.5 8q19 0 23.5 -8t4.5 -33t-4.5 -33t-23.5 -8q-20 0 -24.5 8t-4.5 33z" />
    <glyph glyph-name="igrave" unicode="&#xec;" horiz-adv-x="215" 
d="M133 0h-50v483h50v-483zM179 584l-9 -40l-173 78l2 50z" />
    <glyph glyph-name="iacute" unicode="&#xed;" horiz-adv-x="215" 
d="M133 0h-50v483h50v-483zM219 622l-172 -79l-10 40l180 88z" />
    <glyph glyph-name="icircumflex" unicode="&#xee;" horiz-adv-x="215" 
d="M133 0h-50v483h50v-483zM257 582l-20 -36l-131 72l-132 -73l-16 37l148 86z" />
    <glyph glyph-name="idieresis" unicode="&#xef;" horiz-adv-x="215" 
d="M133 0h-50v483h50v-483zM160 615q0 25 4.5 33t24.5 8q19 0 24 -8t5 -33t-5 -33t-24 -8q-20 0 -24.5 8t-4.5 33zM-3 615q0 25 4.5 33t24.5 8q19 0 23.5 -8t4.5 -33t-4.5 -33t-23.5 -8q-20 0 -24.5 8t-4.5 33z" />
    <glyph glyph-name="eth" unicode="&#xf0;" horiz-adv-x="510" 
d="M210 547l-23 32l79 57q-32 25 -95 63l51 18q57 -34 82 -54l75 54l23 -32l-67 -48q58 -57 86 -148t28 -250q0 -66 -7.5 -108.5t-27.5 -76.5t-59 -49.5t-100 -15.5t-100 15.5t-59.5 49.5t-27.5 76.5t-7 108.5q0 134 38.5 192.5t155.5 58.5q80 0 124 -42q-19 97 -83 161z
M397 239q0 115 -27 160t-115 45t-115 -45t-27 -160t27 -159.5t115 -44.5t115 45t27 159z" />
    <glyph glyph-name="ntilde" unicode="&#xf1;" horiz-adv-x="510" 
d="M431 0h-51v384q0 64 -67 64q-35 0 -86 -18t-95 -44v-386h-51v483h47l4 -49q111 60 188 60q111 0 111 -107v-387zM316 567q-21 0 -64.5 14.5t-61.5 14.5q-38 0 -63 -22l-5 42q28 23 70 23q24 0 66.5 -14.5t58.5 -14.5q38 0 64 22l5 -42q-28 -23 -70 -23z" />
    <glyph glyph-name="ograve" unicode="&#xf2;" horiz-adv-x="510" 
d="M397 241q0 116 -27 161.5t-115 45.5t-115 -45t-27 -162q0 -116 27 -161t115 -45t115 45t27 161zM449 241q0 -134 -38.5 -193t-155.5 -59q-61 0 -100 15.5t-59.5 50t-27.5 77t-7 109.5t7 110t27.5 77.5t59.5 50t100 15.5q117 0 155.5 -59t38.5 -194zM326 584l-9 -40
l-173 78l2 50z" />
    <glyph glyph-name="oacute" unicode="&#xf3;" horiz-adv-x="510" 
d="M397 241q0 116 -27 161.5t-115 45.5t-115 -45t-27 -162q0 -116 27 -161t115 -45t115 45t27 161zM449 241q0 -134 -38.5 -193t-155.5 -59q-61 0 -100 15.5t-59.5 50t-27.5 77t-7 109.5t7 110t27.5 77.5t59.5 50t100 15.5q117 0 155.5 -59t38.5 -194zM365 622l-172 -79
l-10 40l180 88z" />
    <glyph glyph-name="ocircumflex" unicode="&#xf4;" horiz-adv-x="510" 
d="M397 241q0 116 -27 161.5t-115 45.5t-115 -45t-27 -162q0 -116 27 -161t115 -45t115 45t27 161zM449 241q0 -134 -38.5 -193t-155.5 -59q-61 0 -100 15.5t-59.5 50t-27.5 77t-7 109.5t7 110t27.5 77.5t59.5 50t100 15.5q117 0 155.5 -59t38.5 -194zM404 582l-20 -36
l-131 72l-132 -73l-16 37l148 86z" />
    <glyph glyph-name="otilde" unicode="&#xf5;" horiz-adv-x="510" 
d="M397 241q0 116 -27 161.5t-115 45.5t-115 -45t-27 -162q0 -116 27 -161t115 -45t115 45t27 161zM449 241q0 -134 -38.5 -193t-155.5 -59q-61 0 -100 15.5t-59.5 50t-27.5 77t-7 109.5t7 110t27.5 77.5t59.5 50t100 15.5q117 0 155.5 -59t38.5 -194zM317 567
q-21 0 -64.5 14.5t-61.5 14.5q-38 0 -63 -22l-5 42q28 23 70 23q24 0 66.5 -14.5t58.5 -14.5q38 0 64 22l5 -42q-28 -23 -70 -23z" />
    <glyph glyph-name="odieresis" unicode="&#xf6;" horiz-adv-x="510" 
d="M397 241q0 116 -27 161.5t-115 45.5t-115 -45t-27 -162q0 -116 27 -161t115 -45t115 45t27 161zM449 241q0 -134 -38.5 -193t-155.5 -59q-61 0 -100 15.5t-59.5 50t-27.5 77t-7 109.5t7 110t27.5 77.5t59.5 50t100 15.5q117 0 155.5 -59t38.5 -194zM307 615q0 25 4.5 33
t24.5 8q19 0 24 -8t5 -33t-5 -33t-24 -8q-20 0 -24.5 8t-4.5 33zM144 615q0 25 4.5 33t24.5 8q19 0 23.5 -8t4.5 -33t-4.5 -33t-23.5 -8q-20 0 -24.5 8t-4.5 33z" />
    <glyph glyph-name="divide" unicode="&#xf7;" horiz-adv-x="500" 
d="M222 433q0 18 1 25t7.5 11.5t20.5 4.5q19 0 23.5 -8t4.5 -33q0 -26 -4.5 -34t-23.5 -8q-20 0 -24.5 7.5t-4.5 34.5zM222 131q0 19 1 26t7.5 11.5t20.5 4.5q19 0 23.5 -8t4.5 -34t-4.5 -34t-23.5 -8q-20 0 -24.5 7.5t-4.5 34.5zM62 260v44h376v-44h-376z" />
    <glyph glyph-name="oslash" unicode="&#xf8;" horiz-adv-x="510" 
d="M449 241q0 -134 -38.5 -193t-155.5 -59q-62 0 -104 17l-35 -66l-37 20l37 69q-32 29 -43.5 80t-11.5 132q0 67 7 110t27.5 77.5t59.5 50t100 15.5t101 -17l39 73l37 -20l-40 -75q33 -29 45 -80.5t12 -133.5zM397 241q0 125 -31 166l-192 -358q28 -14 81 -14q88 0 115 45
t27 161zM113 241q0 -124 28 -164l192 357q-31 14 -78 14q-88 0 -115 -45t-27 -162z" />
    <glyph glyph-name="ugrave" unicode="&#xf9;" horiz-adv-x="509" 
d="M77 483h50v-383q0 -64 67 -64q35 0 86 18t95 44v385h51v-483h-47l-3 50q-111 -60 -189 -60q-110 0 -110 107v386zM325 584l-9 -40l-173 78l2 50z" />
    <glyph glyph-name="uacute" unicode="&#xfa;" horiz-adv-x="509" 
d="M77 483h50v-383q0 -64 67 -64q35 0 86 18t95 44v385h51v-483h-47l-3 50q-111 -60 -189 -60q-110 0 -110 107v386zM365 622l-172 -79l-10 40l180 88z" />
    <glyph glyph-name="ucircumflex" unicode="&#xfb;" horiz-adv-x="509" 
d="M77 483h50v-383q0 -64 67 -64q35 0 86 18t95 44v385h51v-483h-47l-3 50q-111 -60 -189 -60q-110 0 -110 107v386zM404 582l-20 -36l-131 72l-132 -73l-16 37l148 86z" />
    <glyph glyph-name="udieresis" unicode="&#xfc;" horiz-adv-x="509" 
d="M77 483h50v-383q0 -64 67 -64q35 0 86 18t95 44v385h51v-483h-47l-3 50q-111 -60 -189 -60q-110 0 -110 107v386zM307 615q0 25 4.5 33t24.5 8q19 0 24 -8t5 -33t-5 -33t-24 -8q-20 0 -24.5 8t-4.5 33zM144 615q0 25 4.5 33t24.5 8q19 0 23.5 -8t4.5 -33t-4.5 -33
t-23.5 -8q-20 0 -24.5 8t-4.5 33z" />
    <glyph glyph-name="yacute" unicode="&#xfd;" horiz-adv-x="429" 
d="M361 483h54l-251 -684h-52l75 200l-173 484h54l145 -413zM324 622l-172 -79l-10 40l180 88z" />
    <glyph glyph-name="thorn" unicode="&#xfe;" horiz-adv-x="514" 
d="M294 494q42 0 70.5 -11.5t45 -30.5t25 -53.5t11 -69t2.5 -89.5q0 -46 -2.5 -77.5t-12.5 -67t-27.5 -56.5t-50 -35t-77.5 -14q-63 0 -146 17v-198l-51 -12v899l51 13v-281q33 29 78 47.5t84 18.5zM132 377v-323q75 -20 145 -20q67 0 93.5 45.5t26.5 160.5t-21 162.5
t-86 47.5q-81 0 -158 -73z" />
    <glyph glyph-name="ydieresis" unicode="&#xff;" horiz-adv-x="429" 
d="M361 483h54l-251 -684h-52l75 200l-173 484h54l145 -413zM267 615q0 25 4.5 33t24.5 8q19 0 24 -8t5 -33t-5 -33t-24 -8q-20 0 -24.5 8t-4.5 33zM104 615q0 25 4.5 33t24.5 8q19 0 23.5 -8t4.5 -33t-4.5 -33t-23.5 -8q-20 0 -24.5 8t-4.5 33z" />
    <glyph glyph-name="Amacron" unicode="&#x100;" horiz-adv-x="604" 
d="M575 0h-55l-74 209h-292l-71 -209h-54l240 684h61zM431 254l-133 376l-128 -376h261zM181 773v41h241v-41h-241z" />
    <glyph glyph-name="amacron" unicode="&#x101;" horiz-adv-x="480" 
d="M407 370v-370h-47l-3 48q-83 -58 -166 -58q-60 0 -97 28t-37 105q0 42 11 70.5t29 45t51.5 24.5t66 10.5t85.5 2.5q29 0 57 -1v95q0 79 -114 79q-68 0 -151 -24l-4 47q79 23 156 23q84 0 123.5 -33.5t39.5 -91.5zM357 95v136q-50 2 -61 2q-41 0 -65 -1.5t-51 -7.5
t-40.5 -17t-22.5 -31.5t-9 -50.5q0 -52 24 -71t66 -19q79 0 159 60zM119 586v41h241v-41h-241z" />
    <glyph glyph-name="Abreve" unicode="&#x102;" horiz-adv-x="604" 
d="M575 0h-55l-74 209h-292l-71 -209h-54l240 684h61zM431 254l-133 376l-128 -376h261zM387 841l35 -13q-19 -97 -122 -97q-100 0 -119 97l35 13q1 -2 3 -10t3.5 -11.5t5 -11.5t7 -12t10 -10t14 -9t18 -5t23.5 -2q11 0 21 1.5t17.5 5t13.5 6.5t10.5 9t7.5 9t6.5 11t4.5 10
t3 10z" />
    <glyph glyph-name="abreve" unicode="&#x103;" horiz-adv-x="480" 
d="M407 370v-370h-47l-3 48q-83 -58 -166 -58q-60 0 -97 28t-37 105q0 42 11 70.5t29 45t51.5 24.5t66 10.5t85.5 2.5q29 0 57 -1v95q0 79 -114 79q-68 0 -151 -24l-4 47q79 23 156 23q84 0 123.5 -33.5t39.5 -91.5zM357 95v136q-50 2 -61 2q-41 0 -65 -1.5t-51 -7.5
t-40.5 -17t-22.5 -31.5t-9 -50.5q0 -52 24 -71t66 -19q79 0 159 60zM325 654l35 -13q-19 -97 -122 -97q-100 0 -119 97l35 13q1 -2 3 -10t3.5 -11.5t5 -11.5t7 -12t10 -10t14 -9t18 -5t23.5 -2q11 0 21 1.5t17.5 5t13.5 6.5t10.5 9t7.5 9t6.5 11t4.5 10t3 11z" />
    <glyph glyph-name="Aogonek" unicode="&#x104;" horiz-adv-x="604" 
d="M610 -189q-18 -11 -58 -11q-45 0 -72 20.5t-27 55.5q0 73 71 124h-4l-74 209h-292l-71 -209h-54l240 684h61l245 -684h-8q-72 -51 -72 -121q0 -19 16.5 -31t44.5 -12q24 0 50 8zM431 254l-133 376l-128 -376h261z" />
    <glyph glyph-name="aogonek" unicode="&#x105;" horiz-adv-x="480" 
d="M448 -189q-18 -11 -58 -11q-45 0 -72 20.5t-27 55.5q0 73 71 124h-2l-3 48q-83 -58 -166 -58q-60 0 -97 28t-37 105q0 42 11 70.5t29 45t51.5 24.5t66 10.5t85.5 2.5q29 0 57 -1v95q0 79 -114 79q-68 0 -151 -24l-4 47q79 23 156 23q84 0 123.5 -33.5t39.5 -91.5v-368h1
l-1 -1v-1h-2q-72 -51 -72 -121q0 -19 16.5 -31t44.5 -12q24 0 50 8zM357 95v136q-50 2 -61 2q-41 0 -65 -1.5t-51 -7.5t-40.5 -17t-22.5 -31.5t-9 -50.5q0 -52 24 -71t66 -19q79 0 159 60z" />
    <glyph glyph-name="Cacute" unicode="&#x106;" horiz-adv-x="522" 
d="M316 647q-63 0 -101.5 -15.5t-58 -54.5t-25.5 -87t-6 -132v-32q0 -67 3 -106.5t14 -79t32 -59.5t57.5 -32t90.5 -12q82 0 148 18l1 -49q-64 -17 -150 -17q-48 0 -85.5 8t-64 21.5t-44.5 37t-28.5 48.5t-16.5 63t-7.5 72.5t-1.5 84.5v36q0 72 4.5 120t19 92.5t41 69t70 39
t106.5 14.5q90 0 158 -17l-2 -50q-67 19 -154 19zM393 809l-172 -79l-10 40l180 88z" />
    <glyph glyph-name="cacute" unicode="&#x107;" horiz-adv-x="426" 
d="M111 241q0 -117 27 -161.5t118 -44.5q49 0 113 13l5 -47q-63 -12 -120 -12q-63 0 -102.5 15t-59.5 50t-26.5 77t-6.5 110q0 133 39 193t155 60q69 0 123 -9l-4 -50q-55 13 -119 13q-83 0 -112.5 -45.5t-29.5 -161.5zM334 622l-172 -79l-10 40l180 88z" />
    <glyph glyph-name="Ccircumflex" unicode="&#x108;" horiz-adv-x="522" 
d="M316 647q-63 0 -101.5 -15.5t-58 -54.5t-25.5 -87t-6 -132v-32q0 -67 3 -106.5t14 -79t32 -59.5t57.5 -32t90.5 -12q82 0 148 18l1 -49q-64 -17 -150 -17q-48 0 -85.5 8t-64 21.5t-44.5 37t-28.5 48.5t-16.5 63t-7.5 72.5t-1.5 84.5v36q0 72 4.5 120t19 92.5t41 69t70 39
t106.5 14.5q90 0 158 -17l-2 -50q-67 19 -154 19zM426 769l-20 -36l-131 72l-132 -73l-16 37l148 86z" />
    <glyph glyph-name="ccircumflex" unicode="&#x109;" horiz-adv-x="426" 
d="M111 241q0 -117 27 -161.5t118 -44.5q49 0 113 13l5 -47q-63 -12 -120 -12q-63 0 -102.5 15t-59.5 50t-26.5 77t-6.5 110q0 133 39 193t155 60q69 0 123 -9l-4 -50q-55 13 -119 13q-83 0 -112.5 -45.5t-29.5 -161.5zM372 582l-20 -36l-131 72l-132 -73l-16 37l148 86z
" />
    <glyph glyph-name="Cdotaccent" unicode="&#x10a;" horiz-adv-x="522" 
d="M316 647q-63 0 -101.5 -15.5t-58 -54.5t-25.5 -87t-6 -132v-32q0 -67 3 -106.5t14 -79t32 -59.5t57.5 -32t90.5 -12q82 0 148 18l1 -49q-64 -17 -150 -17q-48 0 -85.5 8t-64 21.5t-44.5 37t-28.5 48.5t-16.5 63t-7.5 72.5t-1.5 84.5v36q0 72 4.5 120t19 92.5t41 69t70 39
t106.5 14.5q90 0 158 -17l-2 -50q-67 19 -154 19zM248 802q0 25 4.5 33t24.5 8q19 0 23.5 -8t4.5 -33t-4.5 -33t-23.5 -8q-20 0 -24.5 8t-4.5 33z" />
    <glyph glyph-name="cdotaccent" unicode="&#x10b;" horiz-adv-x="426" 
d="M111 241q0 -117 27 -161.5t118 -44.5q49 0 113 13l5 -47q-63 -12 -120 -12q-63 0 -102.5 15t-59.5 50t-26.5 77t-6.5 110q0 133 39 193t155 60q69 0 123 -9l-4 -50q-55 13 -119 13q-83 0 -112.5 -45.5t-29.5 -161.5zM196 615q0 25 4.5 33t24.5 8q19 0 23.5 -8t4.5 -33
t-4.5 -33t-23.5 -8q-20 0 -24.5 8t-4.5 33z" />
    <glyph glyph-name="Ccaron" unicode="&#x10c;" horiz-adv-x="522" 
d="M316 647q-63 0 -101.5 -15.5t-58 -54.5t-25.5 -87t-6 -132v-32q0 -67 3 -106.5t14 -79t32 -59.5t57.5 -32t90.5 -12q82 0 148 18l1 -49q-64 -17 -150 -17q-48 0 -85.5 8t-64 21.5t-44.5 37t-28.5 48.5t-16.5 63t-7.5 72.5t-1.5 84.5v36q0 72 4.5 120t19 92.5t41 69t70 39
t106.5 14.5q90 0 158 -17l-2 -50q-67 19 -154 19zM147 817l19 36l131 -72l132 73l17 -37l-149 -86z" />
    <glyph glyph-name="ccaron" unicode="&#x10d;" horiz-adv-x="426" 
d="M111 241q0 -117 27 -161.5t118 -44.5q49 0 113 13l5 -47q-63 -12 -120 -12q-63 0 -102.5 15t-59.5 50t-26.5 77t-6.5 110q0 133 39 193t155 60q69 0 123 -9l-4 -50q-55 13 -119 13q-83 0 -112.5 -45.5t-29.5 -161.5zM93 630l19 36l131 -72l132 73l17 -37l-149 -86z" />
    <glyph glyph-name="Dcaron" unicode="&#x10e;" horiz-adv-x="604" 
d="M87 684h205q66 0 110.5 -14.5t70 -38t39 -68t17 -88t3.5 -114.5v-37q0 -49 -1 -76.5t-5.5 -67t-13.5 -61.5t-26 -48t-42.5 -39.5t-63 -22.5t-86.5 -9h-207v684zM292 636h-153v-589h155q30 0 55 4.5t43 11t32 20.5t23.5 25.5t16 33.5t9.5 37.5t4.5 44.5t2 47t0.5 53v36
q0 45 -1 74.5t-5.5 61.5t-12.5 51.5t-21.5 38.5t-33.5 28.5t-48 15.5t-66 6zM132 817l19 36l131 -72l132 73l17 -37l-149 -86z" />
    <glyph glyph-name="dcaron" unicode="&#x10f;" horiz-adv-x="508" 
d="M377 54q-31 -28 -76.5 -46.5t-83.5 -18.5q-43 0 -69.5 7t-45 21.5t-27 46t-11.5 71t-3 106.5q0 65 4 104.5t14 71t31 46.5t51.5 22.5t78.5 7.5q62 0 135 -14v218l52 12v-709h-47zM375 106v326q-78 17 -139 17q-80 0 -101.5 -40t-21.5 -168q0 -130 18 -169t90 -39
q41 0 83.5 22t70.5 51zM490 512l27 94q1 3 1 6q0 4 -6 7q-7 3 -7 39q0 19 1 26t7.5 11.5t20.5 4.5q19 0 23.5 -8t4.5 -34v-13q0 -22 -10 -52l-31 -89q-3 -9 -19 -3q-9 3 -11 5t-1 6z" />
    <glyph glyph-name="Dcroat" unicode="&#x110;" horiz-adv-x="604" 
d="M87 684h205q66 0 110.5 -14.5t70 -38t39 -68t17 -88t3.5 -114.5v-37q0 -49 -1 -76.5t-5.5 -67t-13.5 -61.5t-26 -48t-42.5 -39.5t-63 -22.5t-86.5 -9h-207v323h-75v47h75v314zM292 636h-153v-266h171v-47h-171v-276h155q30 0 55 4.5t43 11t32 20.5t23.5 25.5t16 33.5
t9.5 37.5t4.5 44.5t2 47t0.5 53v36q0 45 -1 74.5t-5.5 61.5t-12.5 51.5t-21.5 38.5t-33.5 28.5t-48 15.5t-66 6z" />
    <glyph glyph-name="dcroat" unicode="&#x111;" horiz-adv-x="508" 
d="M377 54q-31 -28 -76.5 -46.5t-83.5 -18.5q-43 0 -69.5 7t-45 21.5t-27 46t-11.5 71t-3 106.5q0 65 4 104.5t14 71t31 46.5t51.5 22.5t78.5 7.5q62 0 135 -14v92h-157v44h157v82l52 12v-94h89v-44h-89v-571h-47zM375 106v326q-78 17 -139 17q-80 0 -101.5 -40t-21.5 -168
q0 -130 18 -169t90 -39q41 0 83.5 22t70.5 51z" />
    <glyph glyph-name="Emacron" unicode="&#x112;" horiz-adv-x="524" 
d="M88 0v684h372v-48h-321v-261h288v-48h-288v-279h322v-48h-373zM151 773v41h241v-41h-241z" />
    <glyph glyph-name="emacron" unicode="&#x113;" horiz-adv-x="481" 
d="M409 56l3 -46q-69 -21 -165 -21q-53 0 -88 11.5t-55 30.5t-30.5 56.5t-13 74t-2.5 99.5q0 118 41.5 176t149.5 58q47 0 80 -11.5t52 -29.5t29.5 -49t13.5 -61t3 -74v-46h-318v-15q0 -101 28.5 -138t113.5 -37q91 0 158 22zM109 277v-9h267v19q0 41 -4 67t-16.5 49.5
t-39 34.5t-67.5 11q-76 0 -108 -41.5t-32 -130.5zM119 586v41h241v-41h-241z" />
    <glyph glyph-name="Edotaccent" unicode="&#x116;" horiz-adv-x="524" 
d="M88 0v684h372v-48h-321v-261h288v-48h-288v-279h322v-48h-373zM243 802q0 25 4.5 33t24.5 8q19 0 23.5 -8t4.5 -33t-4.5 -33t-23.5 -8q-20 0 -24.5 8t-4.5 33z" />
    <glyph glyph-name="edotaccent" unicode="&#x117;" horiz-adv-x="481" 
d="M409 56l3 -46q-69 -21 -165 -21q-53 0 -88 11.5t-55 30.5t-30.5 56.5t-13 74t-2.5 99.5q0 118 41.5 176t149.5 58q47 0 80 -11.5t52 -29.5t29.5 -49t13.5 -61t3 -74v-46h-318v-15q0 -101 28.5 -138t113.5 -37q91 0 158 22zM109 277v-9h267v19q0 41 -4 67t-16.5 49.5
t-39 34.5t-67.5 11q-76 0 -108 -41.5t-32 -130.5zM211 615q0 25 4.5 33t24.5 8q19 0 23.5 -8t4.5 -33t-4.5 -33t-23.5 -8q-20 0 -24.5 8t-4.5 33z" />
    <glyph glyph-name="Eogonek" unicode="&#x118;" horiz-adv-x="524" 
d="M88 0v684h372v-48h-321v-261h288v-48h-288v-279h322v-48h-18q-72 -51 -72 -121q0 -19 16.5 -31t44.5 -12q24 0 50 8l4 -33q-18 -11 -58 -11q-45 0 -72 20.5t-27 55.5q0 73 71 124h-312z" />
    <glyph glyph-name="eogonek" unicode="&#x119;" horiz-adv-x="481" 
d="M409 56l3 -45v-1h-1q-1 0 -2 -1q-39 -28 -61.5 -58t-22.5 -72q0 -19 16.5 -31t44.5 -12q23 0 49 8l5 -33q-19 -11 -58 -11q-46 0 -72.5 20.5t-26.5 55.5q0 70 67 121q-51 -8 -103 -8q-53 0 -88 11.5t-55 30.5t-30.5 56.5t-13 74t-2.5 99.5q0 118 41.5 176t149.5 58
q47 0 80 -11.5t52 -29.5t29.5 -49t13.5 -61t3 -74v-46h-318v-15q0 -101 28.5 -138t113.5 -37q91 0 158 22zM109 277v-9h267v19q0 41 -4 67t-16.5 49.5t-39 34.5t-67.5 11q-76 0 -108 -41.5t-32 -130.5z" />
    <glyph glyph-name="Ecaron" unicode="&#x11a;" horiz-adv-x="524" 
d="M88 0v684h372v-48h-321v-261h288v-48h-288v-279h322v-48h-373zM122 817l19 36l131 -72l132 73l17 -37l-149 -86z" />
    <glyph glyph-name="ecaron" unicode="&#x11b;" horiz-adv-x="481" 
d="M409 56l3 -46q-69 -21 -165 -21q-53 0 -88 11.5t-55 30.5t-30.5 56.5t-13 74t-2.5 99.5q0 118 41.5 176t149.5 58q47 0 80 -11.5t52 -29.5t29.5 -49t13.5 -61t3 -74v-46h-318v-15q0 -101 28.5 -138t113.5 -37q91 0 158 22zM109 277v-9h267v19q0 41 -4 67t-16.5 49.5
t-39 34.5t-67.5 11q-76 0 -108 -41.5t-32 -130.5zM90 630l19 36l131 -72l132 73l17 -37l-149 -86z" />
    <glyph glyph-name="Gcircumflex" unicode="&#x11c;" horiz-adv-x="578" 
d="M320 647q-52 0 -87.5 -11t-57 -31t-32.5 -57.5t-14.5 -79t-3.5 -108.5v-34q0 -67 2 -102.5t12 -77.5t29.5 -62t55.5 -33.5t90 -13.5q72 0 144 14v222h-92v48h142v-312q-102 -20 -194 -20q-48 0 -85.5 8.5t-63 22.5t-43 39t-27 49t-15 63t-6.5 71t-1 82v38q0 90 8.5 146
t33.5 101.5t75 65.5t129 20q85 0 175 -21l-3 -51q-98 24 -171 24zM450 769l-20 -36l-131 72l-132 -73l-16 37l148 86z" />
    <glyph glyph-name="gcircumflex" unicode="&#x11d;" horiz-adv-x="507" 
d="M427 479v-549q0 -69 -43 -102t-144 -33q-92 0 -167 21l2 46q75 -22 164 -22q75 0 106 22t31 67v97q-76 -33 -159 -33q-42 0 -70.5 11t-45 28t-25 51t-11 67t-2.5 88q0 140 42 198t156 58q84 0 166 -15zM376 73v367q-59 10 -118 10q-85 0 -114 -47.5t-29 -164.5
q0 -112 20 -155.5t88 -43.5q78 0 153 34zM403 582l-20 -36l-131 72l-132 -73l-16 37l148 86z" />
    <glyph glyph-name="Gbreve" unicode="&#x11e;" horiz-adv-x="578" 
d="M320 647q-52 0 -87.5 -11t-57 -31t-32.5 -57.5t-14.5 -79t-3.5 -108.5v-34q0 -67 2 -102.5t12 -77.5t29.5 -62t55.5 -33.5t90 -13.5q72 0 144 14v222h-92v48h142v-312q-102 -20 -194 -20q-48 0 -85.5 8.5t-63 22.5t-43 39t-27 49t-15 63t-6.5 71t-1 82v38q0 90 8.5 146
t33.5 101.5t75 65.5t129 20q85 0 175 -21l-3 -51q-98 24 -171 24zM394 841l35 -13q-19 -97 -122 -97q-100 0 -119 97l35 13q1 -2 3 -10t3.5 -11.5t5 -11.5t7 -12t10 -10t14 -9t18 -5t23.5 -2q11 0 21 1.5t17.5 5t13.5 6.5t10.5 9t7.5 9t6.5 11t4.5 10t4 10z" />
    <glyph glyph-name="gbreve" unicode="&#x11f;" horiz-adv-x="507" 
d="M427 479v-549q0 -69 -43 -102t-144 -33q-92 0 -167 21l2 46q75 -22 164 -22q75 0 106 22t31 67v97q-76 -33 -159 -33q-42 0 -70.5 11t-45 28t-25 51t-11 67t-2.5 88q0 140 42 198t156 58q84 0 166 -15zM376 73v367q-59 10 -118 10q-85 0 -114 -47.5t-29 -164.5
q0 -112 20 -155.5t88 -43.5q78 0 153 34zM339 654l35 -13q-19 -97 -122 -97q-100 0 -119 97l35 13q1 -2 3 -10t3.5 -11.5t5 -11.5t7 -12t10 -10t14 -9t18 -5t23.5 -2q11 0 21 1.5t17.5 5t13.5 6.5t10.5 9t7.5 9t6.5 11t4.5 10t3 11z" />
    <glyph glyph-name="Gdotaccent" unicode="&#x120;" horiz-adv-x="578" 
d="M320 647q-52 0 -87.5 -11t-57 -31t-32.5 -57.5t-14.5 -79t-3.5 -108.5v-34q0 -67 2 -102.5t12 -77.5t29.5 -62t55.5 -33.5t90 -13.5q72 0 144 14v222h-92v48h142v-312q-102 -20 -194 -20q-48 0 -85.5 8.5t-63 22.5t-43 39t-27 49t-15 63t-6.5 71t-1 82v38q0 90 8.5 146
t33.5 101.5t75 65.5t129 20q85 0 175 -21l-3 -51q-98 24 -171 24zM272 802q0 25 4.5 33t24.5 8q19 0 23.5 -8t4.5 -33t-4.5 -33t-23.5 -8q-20 0 -24.5 8t-4.5 33z" />
    <glyph glyph-name="gdotaccent" unicode="&#x121;" horiz-adv-x="507" 
d="M427 479v-549q0 -69 -43 -102t-144 -33q-92 0 -167 21l2 46q75 -22 164 -22q75 0 106 22t31 67v97q-76 -33 -159 -33q-42 0 -70.5 11t-45 28t-25 51t-11 67t-2.5 88q0 140 42 198t156 58q84 0 166 -15zM376 73v367q-59 10 -118 10q-85 0 -114 -47.5t-29 -164.5
q0 -112 20 -155.5t88 -43.5q78 0 153 34zM225 615q0 25 4.5 33t24.5 8q19 0 23.5 -8t4.5 -33t-4.5 -33t-23.5 -8q-20 0 -24.5 8t-4.5 33z" />
    <glyph glyph-name="Gcommaaccent" unicode="&#x122;" horiz-adv-x="578" 
d="M320 647q-52 0 -87.5 -11t-57 -31t-32.5 -57.5t-14.5 -79t-3.5 -108.5v-34q0 -67 2 -102.5t12 -77.5t29.5 -62t55.5 -33.5t90 -13.5q72 0 144 14v222h-92v48h142v-312q-102 -20 -194 -20q-48 0 -85.5 8.5t-63 22.5t-43 39t-27 49t-15 63t-6.5 71t-1 82v38q0 90 8.5 146
t33.5 101.5t75 65.5t129 20q85 0 175 -21l-3 -51q-98 24 -171 24zM295 -198l12 47q1 3 1 6q0 4 -6 7q-7 4 -7 39q0 19 1 26t7.5 11.5t20.5 4.5q19 0 23.5 -8t4.5 -34v-13q0 -22 -10 -52l-16 -42q-3 -9 -19 -3q-9 3 -11 5t-1 6z" />
    <glyph glyph-name="gcommaaccent" unicode="&#x123;" horiz-adv-x="507" 
d="M427 479v-549q0 -69 -43 -102t-144 -33q-92 0 -167 21l2 46q75 -22 164 -22q75 0 106 22t31 67v97q-76 -33 -159 -33q-42 0 -70.5 11t-45 28t-25 51t-11 67t-2.5 88q0 140 42 198t156 58q84 0 166 -15zM376 73v367q-59 10 -118 10q-85 0 -114 -47.5t-29 -164.5
q0 -112 20 -155.5t88 -43.5q78 0 153 34zM364 622l-172 -79l-10 40l180 88z" />
    <glyph glyph-name="Hcircumflex" unicode="&#x124;" horiz-adv-x="618" 
d="M530 0h-51v331h-340v-331h-51v684h51v-306h340v306h51v-684zM458 769l-20 -36l-131 72l-132 -73l-16 37l148 86z" />
    <glyph glyph-name="hcircumflex" unicode="&#x125;" horiz-adv-x="510" 
d="M372 655l-20 -36l-131 72l-89 -49v-208q111 60 188 60q111 0 111 -107v-387h-51v384q0 64 -67 64q-35 0 -86 -18t-95 -44v-386h-51v636l-8 19l8 4v38l51 12v-20l89 52z" />
    <glyph glyph-name="Hbar" unicode="&#x126;" horiz-adv-x="618" 
d="M530 0h-51v331h-340v-331h-51v501h-85v47h85v136h51v-136h340v136h51v-136h88v-47h-88v-501zM139 378h340v123h-340v-123z" />
    <glyph glyph-name="hbar" unicode="&#x127;" horiz-adv-x="510" 
d="M431 0h-51v384q0 64 -67 64q-35 0 -86 -18t-95 -44v-386h-51v571h-83v44h83v82l51 12v-94h164v-44h-164v-137q111 60 188 60q111 0 111 -107v-387z" />
    <glyph glyph-name="Imacron" unicode="&#x12a;" horiz-adv-x="237" 
d="M144 684v-684h-52v684h52zM-2 773v41h241v-41h-241z" />
    <glyph glyph-name="imacron" unicode="&#x12b;" horiz-adv-x="215" 
d="M94 0h-50v483h50v-483zM26 586v41h241v-41h-241z" />
    <glyph glyph-name="Iogonek" unicode="&#x12e;" horiz-adv-x="237" 
d="M144 684v-684h-7q-57 -46 -57 -120q0 -19 13 -31.5t36 -12.5q19 0 40 8l5 -33q-18 -11 -50 -11q-40 0 -63 20.5t-23 55.5q0 73 60 124h-6v684h52z" />
    <glyph glyph-name="iogonek" unicode="&#x12f;" horiz-adv-x="215" 
d="M133 0h-6q-57 -46 -57 -120q0 -19 13 -31.5t36 -12.5q18 0 40 8l4 -33q-17 -11 -50 -11q-39 0 -62 20.5t-23 55.5q0 73 60 124h-5v483h50v-483zM80 624q0 19 1 26t7.5 11.5t20.5 4.5q19 0 23.5 -8t4.5 -34t-4.5 -34t-23.5 -8q-20 0 -24.5 8t-4.5 34z" />
    <glyph glyph-name="Idotaccent" unicode="&#x130;" horiz-adv-x="237" 
d="M144 684v-684h-52v684h52zM90 802q0 25 4.5 33t24.5 8q19 0 23.5 -8t4.5 -33t-4.5 -33t-23.5 -8q-20 0 -24.5 8t-4.5 33z" />
    <glyph glyph-name="dotlessi" unicode="&#x131;" horiz-adv-x="215" 
d="M133 0h-50v483h50v-483z" />
    <glyph glyph-name="Jcircumflex" unicode="&#x134;" horiz-adv-x="262" 
d="M125 684h52v-555q0 -30 -8 -52t-17.5 -35t-33 -24.5t-38 -16.5t-48.5 -15l-12 45q61 19 83 36.5t22 60.5v556zM289 769l-20 -36l-131 72l-132 -73l-16 37l148 86z" />
    <glyph glyph-name="jcircumflex" unicode="&#x135;" horiz-adv-x="215" 
d="M-12 -203l-10 45q64 18 84 40t20 67v534h51v-533q0 -37 -8.5 -62.5t-29.5 -42.5t-44 -27t-63 -21zM258 582l-20 -36l-131 72l-132 -73l-16 37l148 86z" />
    <glyph glyph-name="Kcommaaccent" unicode="&#x136;" 
d="M139 684v-337l286 337h65l-288 -335l323 -349h-67l-319 346v-346h-52v684h52zM255 -198l12 47q1 3 1 6q0 4 -6 7q-7 4 -7 39q0 19 1 26t7.5 11.5t20.5 4.5q19 0 23.5 -8t4.5 -34v-13q0 -22 -10 -52l-16 -42q-3 -9 -19 -3q-9 3 -11 5t-1 6z" />
    <glyph glyph-name="kcommaaccent" unicode="&#x137;" horiz-adv-x="449" 
d="M132 0h-51v697l51 12v-444l213 218h68l-219 -219l234 -264h-66l-230 264v-264zM201 -198l12 47q1 3 1 6q0 4 -6 7q-7 4 -7 39q0 19 1 26t7.5 11.5t20.5 4.5q19 0 23.5 -8t4.5 -34v-13q0 -22 -10 -52l-16 -42q-3 -9 -19 -3q-9 3 -11 5t-1 6z" />
    <glyph glyph-name="Lacute" unicode="&#x139;" horiz-adv-x="479" 
d="M139 684v-636h302v-48h-353v684h51zM240 809l-172 -79l-10 40l180 88z" />
    <glyph glyph-name="lacute" unicode="&#x13a;" horiz-adv-x="261" 
d="M225 42l13 -43q-36 -10 -79 -10q-53 0 -67 25.5t-14 88.5v594l50 12v-611q0 -35 8.5 -49.5t33.5 -14.5q29 0 55 8zM215 809l-172 -79l-10 40l180 88z" />
    <glyph glyph-name="Lcommaaccent" unicode="&#x13b;" horiz-adv-x="479" 
d="M139 684v-636h302v-48h-353v684h51zM222 -198l12 47q1 3 1 6q0 4 -6 7q-7 4 -7 39q0 19 1 26t7.5 11.5t20.5 4.5q19 0 23.5 -8t4.5 -34v-13q0 -22 -10 -52l-16 -42q-3 -9 -19 -3q-9 3 -11 5t-1 6z" />
    <glyph glyph-name="lcommaaccent" unicode="&#x13c;" horiz-adv-x="261" 
d="M225 42l13 -43q-36 -10 -79 -10q-53 0 -67 25.5t-14 88.5v594l50 12v-611q0 -35 8.5 -49.5t33.5 -14.5q29 0 55 8zM130 -198l12 47q1 3 1 6q0 4 -6 7q-7 4 -7 39q0 19 1 26t7.5 11.5t20.5 4.5q19 0 23.5 -8t4.5 -34v-13q0 -22 -10 -52l-16 -42q-3 -9 -19 -3q-9 3 -11 5
t-1 6z" />
    <glyph glyph-name="Lcaron" unicode="&#x13d;" horiz-adv-x="479" 
d="M139 684v-636h302v-48h-353v684h51zM342 512l27 94q1 3 1 6q0 4 -6 7q-7 3 -7 39q0 19 1 26t7.5 11.5t20.5 4.5q19 0 23.5 -8t4.5 -34v-13q0 -22 -10 -52l-31 -89q-3 -9 -19 -3q-9 3 -11 5t-1 6z" />
    <glyph glyph-name="lcaron" unicode="&#x13e;" horiz-adv-x="261" 
d="M225 42l13 -43q-36 -10 -79 -10q-53 0 -67 25.5t-14 88.5v594l50 12v-611q0 -35 8.5 -49.5t33.5 -14.5q29 0 55 8zM196 512l27 94q1 3 1 6q0 4 -6 7q-7 3 -7 39q0 19 1 26t7.5 11.5t20.5 4.5q19 0 23.5 -8t4.5 -34v-13q0 -22 -10 -52l-31 -89q-3 -9 -19 -3q-9 3 -11 5
t-1 6z" />
    <glyph glyph-name="Lslash" unicode="&#x141;" horiz-adv-x="479" 
d="M139 684v-292l189 136v-58l-189 -137v-285h302v-48h-353v296l-88 -63v59l88 63v329h51z" />
    <glyph glyph-name="lslash" unicode="&#x142;" horiz-adv-x="261" 
d="M225 42l13 -43q-36 -10 -79 -10q-53 0 -67 25.5t-14 88.5v197l-78 -58v56l78 58v341l50 12v-316l86 64v-55l-86 -64v-240q0 -35 8.5 -49.5t33.5 -14.5q29 0 55 8z" />
    <glyph glyph-name="Nacute" unicode="&#x143;" horiz-adv-x="636" 
d="M482 0l-343 607v-607h-51v684h64l343 -610v610h51v-684h-64zM428 809l-172 -79l-10 40l180 88z" />
    <glyph glyph-name="nacute" unicode="&#x144;" horiz-adv-x="510" 
d="M431 0h-51v384q0 64 -67 64q-35 0 -86 -18t-95 -44v-386h-51v483h47l4 -49q111 60 188 60q111 0 111 -107v-387zM365 622l-172 -79l-10 40l180 88z" />
    <glyph glyph-name="Ncommaaccent" unicode="&#x145;" horiz-adv-x="636" 
d="M482 0l-343 607v-607h-51v684h64l343 -610v610h51v-684h-64zM290 -198l12 47q1 3 1 6q0 4 -6 7q-7 4 -7 39q0 19 1 26t7.5 11.5t20.5 4.5q19 0 23.5 -8t4.5 -34v-13q0 -22 -10 -52l-16 -42q-3 -9 -19 -3q-9 3 -11 5t-1 6z" />
    <glyph glyph-name="ncommaaccent" unicode="&#x146;" horiz-adv-x="510" 
d="M431 0h-51v384q0 64 -67 64q-35 0 -86 -18t-95 -44v-386h-51v483h47l4 -49q111 60 188 60q111 0 111 -107v-387zM227 -198l12 47q1 3 1 6q0 4 -6 7q-7 4 -7 39q0 19 1 26t7.5 11.5t20.5 4.5q19 0 23.5 -8t4.5 -34v-13q0 -22 -10 -52l-16 -42q-3 -9 -19 -3q-9 3 -11 5
t-1 6z" />
    <glyph glyph-name="Ncaron" unicode="&#x147;" horiz-adv-x="636" 
d="M482 0l-343 607v-607h-51v684h64l343 -610v610h51v-684h-64zM168 817l19 36l131 -72l132 73l17 -37l-149 -86z" />
    <glyph glyph-name="ncaron" unicode="&#x148;" horiz-adv-x="510" 
d="M431 0h-51v384q0 64 -67 64q-35 0 -86 -18t-95 -44v-386h-51v483h47l4 -49q111 60 188 60q111 0 111 -107v-387zM105 630l19 36l131 -72l132 73l17 -37l-149 -86z" />
    <glyph glyph-name="Omacron" unicode="&#x14c;" horiz-adv-x="630" 
d="M503 325v34q0 80 -6.5 128.5t-25.5 87.5t-57 55.5t-99 16.5t-99 -16.5t-57.5 -55.5t-25.5 -87.5t-6 -128.5v-34q0 -80 6 -128.5t25.5 -87.5t57.5 -55.5t99 -16.5t99 16.5t57 55.5t25.5 87.5t6.5 128.5zM555 360v-36q0 -71 -5.5 -120.5t-20.5 -92.5t-41.5 -68.5
t-69.5 -39.5t-103 -14q-61 0 -103.5 14t-69.5 39.5t-42 68.5t-20.5 92.5t-5.5 120.5v36q0 71 5.5 120.5t20.5 92.5t42 68.5t69.5 39.5t103.5 14q60 0 103 -14t69.5 -39.5t41.5 -68.5t20.5 -92.5t5.5 -120.5zM194 773v41h241v-41h-241z" />
    <glyph glyph-name="omacron" unicode="&#x14d;" horiz-adv-x="510" 
d="M397 241q0 116 -27 161.5t-115 45.5t-115 -45t-27 -162q0 -116 27 -161t115 -45t115 45t27 161zM449 241q0 -134 -38.5 -193t-155.5 -59q-61 0 -100 15.5t-59.5 50t-27.5 77t-7 109.5t7 110t27.5 77.5t59.5 50t100 15.5q117 0 155.5 -59t38.5 -194zM134 586v41h241v-41
h-241z" />
    <glyph glyph-name="Ohungarumlaut" unicode="&#x150;" horiz-adv-x="630" 
d="M503 325v34q0 80 -6.5 128.5t-25.5 87.5t-57 55.5t-99 16.5t-99 -16.5t-57.5 -55.5t-25.5 -87.5t-6 -128.5v-34q0 -80 6 -128.5t25.5 -87.5t57.5 -55.5t99 -16.5t99 16.5t57 55.5t25.5 87.5t6.5 128.5zM555 360v-36q0 -71 -5.5 -120.5t-20.5 -92.5t-41.5 -68.5
t-69.5 -39.5t-103 -14q-61 0 -103.5 14t-69.5 39.5t-42 68.5t-20.5 92.5t-5.5 120.5v36q0 71 5.5 120.5t20.5 92.5t42 68.5t69.5 39.5t103.5 14q60 0 103 -14t69.5 -39.5t41.5 -68.5t20.5 -92.5t5.5 -120.5zM209 723l-34 20l108 117l48 -11zM372 723l-34 20l108 117l47 -11z
" />
    <glyph glyph-name="ohungarumlaut" unicode="&#x151;" horiz-adv-x="510" 
d="M397 241q0 116 -27 161.5t-115 45.5t-115 -45t-27 -162q0 -116 27 -161t115 -45t115 45t27 161zM449 241q0 -134 -38.5 -193t-155.5 -59q-61 0 -100 15.5t-59.5 50t-27.5 77t-7 109.5t7 110t27.5 77.5t59.5 50t100 15.5q117 0 155.5 -59t38.5 -194zM150 536l-34 20
l108 117l48 -11zM313 536l-34 20l108 117l47 -11z" />
    <glyph glyph-name="OE" unicode="&#x152;" horiz-adv-x="877" 
d="M814 0h-380q-62 -6 -112 -6q-68 0 -115 19.5t-72.5 48.5t-39.5 81t-17.5 97.5t-3.5 116.5q0 65 4 108.5t18.5 90t40.5 73t72.5 44t112.5 17.5q32 0 112 -6h379v-48h-320v-259h288v-48h-288v-281h321v-48zM322 42q65 0 119 8v585q-61 8 -119 8q-39 0 -68.5 -7t-50.5 -19
t-35 -33t-22.5 -42t-13 -53.5t-5.5 -60.5t-1 -70q0 -66 3 -107.5t14 -85.5t31.5 -68t57.5 -39.5t90 -15.5z" />
    <glyph glyph-name="oe" unicode="&#x153;" horiz-adv-x="819" 
d="M747 56l3 -46q-69 -21 -165 -21q-133 0 -166 85q-39 -85 -165 -85q-61 0 -99.5 15.5t-59 50t-27.5 77t-7 109.5t7 110t27.5 78t59 50.5t99.5 15.5q130 0 167 -92q40 92 166 92q47 0 80 -11.5t52 -29.5t29.5 -49t13.5 -61t3 -74v-46h-318v-15q0 -99 28.5 -137t113.5 -38
q91 0 158 22zM397 241q0 116 -27.5 161.5t-115.5 45.5t-115 -45.5t-27 -161.5t27 -161t115 -45q87 0 115 44.5t28 161.5zM447 277v-9h267v19q0 41 -4 67t-16.5 49.5t-39 34.5t-67.5 11q-76 0 -108 -41.5t-32 -130.5z" />
    <glyph glyph-name="Racute" unicode="&#x154;" horiz-adv-x="590" 
d="M496 0l-171 280h-186v-280h-51v684h250q50 0 82.5 -15.5t48 -45.5t21 -62.5t5.5 -78.5q0 -91 -24 -138t-89 -60l173 -284h-59zM443 482q0 80 -22.5 117t-86.5 37h-195v-308h186q69 0 93.5 33t24.5 121zM374 809l-172 -79l-10 40l180 88z" />
    <glyph glyph-name="racute" unicode="&#x155;" horiz-adv-x="318" 
d="M301 495l1 -54q-80 -10 -169 -70v-371h-51v483h48l3 -64q74 57 168 76zM285 622l-172 -79l-10 40l180 88z" />
    <glyph glyph-name="Rcommaaccent" unicode="&#x156;" horiz-adv-x="590" 
d="M496 0l-171 280h-186v-280h-51v684h250q50 0 82.5 -15.5t48 -45.5t21 -62.5t5.5 -78.5q0 -91 -24 -138t-89 -60l173 -284h-59zM443 482q0 80 -22.5 117t-86.5 37h-195v-308h186q69 0 93.5 33t24.5 121zM267 -198l12 47q1 3 1 6q0 4 -6 7q-7 4 -7 39q0 19 1 26t7.5 11.5
t20.5 4.5q19 0 23.5 -8t4.5 -34v-13q0 -22 -10 -52l-16 -42q-3 -9 -19 -3q-9 3 -11 5t-1 6z" />
    <glyph glyph-name="rcommaaccent" unicode="&#x157;" horiz-adv-x="318" 
d="M301 495l1 -54q-80 -10 -169 -70v-371h-51v483h48l3 -64q74 57 168 76zM85 -198l12 47q1 3 1 6q0 4 -6 7q-7 4 -7 39q0 19 1 26t7.5 11.5t20.5 4.5q19 0 23.5 -8t4.5 -34v-13q0 -22 -10 -52l-16 -42q-3 -9 -19 -3q-9 3 -11 5t-1 6z" />
    <glyph glyph-name="Rcaron" unicode="&#x158;" horiz-adv-x="590" 
d="M496 0l-171 280h-186v-280h-51v684h250q50 0 82.5 -15.5t48 -45.5t21 -62.5t5.5 -78.5q0 -91 -24 -138t-89 -60l173 -284h-59zM443 482q0 80 -22.5 117t-86.5 37h-195v-308h186q69 0 93.5 33t24.5 121zM125 817l19 36l131 -72l132 73l17 -37l-149 -86z" />
    <glyph glyph-name="rcaron" unicode="&#x159;" horiz-adv-x="318" 
d="M301 495l1 -54q-80 -10 -169 -70v-371h-51v483h48l3 -64q74 57 168 76zM36 630l19 36l131 -72l132 73l17 -37l-149 -86z" />
    <glyph glyph-name="Sacute" unicode="&#x15a;" horiz-adv-x="531" 
d="M465 170q0 -43 -8.5 -74t-31 -57t-66 -39t-108.5 -13q-89 0 -184 26l6 52q86 -30 178 -30q93 0 127 32.5t34 98.5q0 40 -7 65t-28.5 43t-49 28.5t-80.5 24.5q-50 14 -78.5 25t-54 31t-36 49t-10.5 73q0 45 8.5 77t30.5 59t66 40.5t109 13.5q84 0 166 -20l-4 -51
q-77 23 -162 23q-95 0 -128.5 -33t-33.5 -101q0 -67 32.5 -92.5t126.5 -51.5q111 -30 148.5 -67.5t37.5 -131.5zM376 809l-172 -79l-10 40l180 88z" />
    <glyph glyph-name="sacute" unicode="&#x15b;" horiz-adv-x="428" 
d="M375 122q0 -75 -41.5 -104t-133.5 -29q-68 0 -135 19l6 45q66 -18 130 -18q65 0 94.5 16.5t29.5 69.5q0 50 -18 67t-97 36q-53 13 -82 24.5t-44 29.5t-18.5 36.5t-3.5 55.5q0 63 39 94t123 31q70 0 137 -13l-7 -46q-74 14 -134 14q-58 0 -83 -19t-25 -59q0 -48 16.5 -64
t87.5 -34q59 -15 90 -27t47 -31t19 -37t3 -57zM324 622l-172 -79l-10 40l180 88z" />
    <glyph glyph-name="Scircumflex" unicode="&#x15c;" horiz-adv-x="531" 
d="M465 170q0 -43 -8.5 -74t-31 -57t-66 -39t-108.5 -13q-89 0 -184 26l6 52q86 -30 178 -30q93 0 127 32.5t34 98.5q0 40 -7 65t-28.5 43t-49 28.5t-80.5 24.5q-50 14 -78.5 25t-54 31t-36 49t-10.5 73q0 45 8.5 77t30.5 59t66 40.5t109 13.5q84 0 166 -20l-4 -51
q-77 23 -162 23q-95 0 -128.5 -33t-33.5 -101q0 -67 32.5 -92.5t126.5 -51.5q111 -30 148.5 -67.5t37.5 -131.5zM419 769l-20 -36l-131 72l-132 -73l-16 37l148 86z" />
    <glyph glyph-name="scircumflex" unicode="&#x15d;" horiz-adv-x="428" 
d="M375 122q0 -75 -41.5 -104t-133.5 -29q-68 0 -135 19l6 45q66 -18 130 -18q65 0 94.5 16.5t29.5 69.5q0 50 -18 67t-97 36q-53 13 -82 24.5t-44 29.5t-18.5 36.5t-3.5 55.5q0 63 39 94t123 31q70 0 137 -13l-7 -46q-74 14 -134 14q-58 0 -83 -19t-25 -59q0 -48 16.5 -64
t87.5 -34q59 -15 90 -27t47 -31t19 -37t3 -57zM367 582l-20 -36l-131 72l-132 -73l-16 37l148 86z" />
    <glyph glyph-name="Scedilla" unicode="&#x15e;" horiz-adv-x="531" 
d="M304 -147v40q0 21 -52 21q-4 0 -9.5 -0.5t-7.5 -0.5l-21 8l14 67q-80 3 -161 25l6 52q86 -30 178 -30q93 0 127 32.5t34 98.5q0 40 -7 65t-28.5 43t-49 28.5t-80.5 24.5q-50 14 -78.5 25t-54 31t-36 49t-10.5 73q0 45 8.5 77t30.5 59t66 40.5t109 13.5q84 0 166 -20
l-4 -51q-77 23 -162 23q-95 0 -128.5 -33t-33.5 -101q0 -67 32.5 -92.5t126.5 -51.5q111 -30 148.5 -67.5t37.5 -131.5q0 -87 -43 -133.5t-160 -49.5l-9 -40q94 1 94 -53v-43q0 -23 -23.5 -37t-68.5 -14q-38 0 -70 7l6 33q43 -5 60 -5q53 0 53 18z" />
    <glyph glyph-name="scedilla" unicode="&#x15f;" horiz-adv-x="428" 
d="M252 -147v40q0 21 -52 21q-4 0 -9.5 -0.5t-7.5 -0.5l-21 8l14 69q-56 3 -111 18l6 45q66 -18 130 -18q65 0 94.5 16.5t29.5 69.5q0 50 -18 67t-97 36q-53 13 -82 24.5t-44 29.5t-18.5 36.5t-3.5 55.5q0 63 39 94t123 31q70 0 137 -13l-7 -46q-74 14 -134 14
q-58 0 -83 -19t-25 -59q0 -48 16.5 -64t87.5 -34q59 -15 90 -27t47 -31t19 -37t3 -57q0 -73 -39 -102t-125 -31l-10 -42q94 1 94 -53v-43q0 -23 -23.5 -37t-68.5 -14q-38 0 -70 7l6 33q42 -5 60 -5q53 0 53 18z" />
    <glyph glyph-name="Scaron" unicode="&#x160;" horiz-adv-x="531" 
d="M465 170q0 -43 -8.5 -74t-31 -57t-66 -39t-108.5 -13q-89 0 -184 26l6 52q86 -30 178 -30q93 0 127 32.5t34 98.5q0 40 -7 65t-28.5 43t-49 28.5t-80.5 24.5q-50 14 -78.5 25t-54 31t-36 49t-10.5 73q0 45 8.5 77t30.5 59t66 40.5t109 13.5q84 0 166 -20l-4 -51
q-77 23 -162 23q-95 0 -128.5 -33t-33.5 -101q0 -67 32.5 -92.5t126.5 -51.5q111 -30 148.5 -67.5t37.5 -131.5zM116 817l19 36l131 -72l132 73l17 -37l-149 -86z" />
    <glyph glyph-name="scaron" unicode="&#x161;" horiz-adv-x="428" 
d="M375 122q0 -75 -41.5 -104t-133.5 -29q-68 0 -135 19l6 45q66 -18 130 -18q65 0 94.5 16.5t29.5 69.5q0 50 -18 67t-97 36q-53 13 -82 24.5t-44 29.5t-18.5 36.5t-3.5 55.5q0 63 39 94t123 31q70 0 137 -13l-7 -46q-74 14 -134 14q-58 0 -83 -19t-25 -59q0 -48 16.5 -64
t87.5 -34q59 -15 90 -27t47 -31t19 -37t3 -57zM64 630l19 36l131 -72l132 73l17 -37l-149 -86z" />
    <glyph glyph-name="Tcommaaccent" unicode="&#x162;" horiz-adv-x="522" 
d="M235 0v636h-208v48h468v-48h-209v-636h-51zM232 -198l12 47q1 3 1 6q0 4 -6 7q-7 4 -7 39q0 19 1 26t7.5 11.5t20.5 4.5q19 0 23.5 -8t4.5 -34v-13q0 -22 -10 -52l-16 -42q-3 -9 -19 -3q-9 3 -11 5t-1 6z" />
    <glyph glyph-name="tcommaaccent" unicode="&#x163;" horiz-adv-x="354" 
d="M314 6q-58 -16 -107 -16q-63 0 -80.5 27t-17.5 98v315h-82v44h82v131l51 14v-145h138l-12 -44h-126v-314q0 -48 9 -64t46 -16q45 0 93 16zM184 -198l12 47q1 3 1 6q0 4 -6 7q-7 4 -7 39q0 19 1 26t7.5 11.5t20.5 4.5q19 0 23.5 -8t4.5 -34v-13q0 -22 -10 -52l-16 -42
q-3 -9 -19 -3q-9 3 -11 5t-1 6z" />
    <glyph glyph-name="Tcaron" unicode="&#x164;" horiz-adv-x="522" 
d="M235 0v636h-208v48h468v-48h-209v-636h-51zM111 817l19 36l131 -72l132 73l17 -37l-149 -86z" />
    <glyph glyph-name="tcaron" unicode="&#x165;" horiz-adv-x="354" 
d="M314 6q-58 -16 -107 -16q-63 0 -80.5 27t-17.5 98v315h-82v44h82v131l51 14v-145h138l-12 -44h-126v-314q0 -48 9 -64t46 -16q45 0 93 16zM244 557l12 47q1 3 1 6q0 4 -6 7q-7 3 -7 39q0 19 1 26t7.5 11.5t20.5 4.5q19 0 23.5 -8t4.5 -34v-13q0 -22 -10 -52l-16 -42
q-3 -9 -19 -3q-9 3 -11 5t-1 6z" />
    <glyph glyph-name="Umacron" unicode="&#x16a;" horiz-adv-x="626" 
d="M133 684v-465q0 -183 180 -183t180 183v465h52v-462q0 -233 -232 -233t-232 233v462h52zM192 773v41h241v-41h-241z" />
    <glyph glyph-name="umacron" unicode="&#x16b;" horiz-adv-x="509" 
d="M77 483h50v-383q0 -64 67 -64q35 0 86 18t95 44v385h51v-483h-47l-3 50q-111 -60 -189 -60q-110 0 -110 107v386zM134 586v41h241v-41h-241z" />
    <glyph glyph-name="Ubreve" unicode="&#x16c;" horiz-adv-x="626" 
d="M133 684v-465q0 -183 180 -183t180 183v465h52v-462q0 -233 -232 -233t-232 233v462h52zM398 841l35 -13q-19 -97 -122 -97q-100 0 -119 97l35 13q1 -2 3 -10t3.5 -11.5t5 -11.5t7 -12t10 -10t14 -9t18 -5t23.5 -2q11 0 21 1.5t17.5 5t13.5 6.5t10.5 9t7.5 9t6.5 11
t4.5 10t4 10z" />
    <glyph glyph-name="ubreve" unicode="&#x16d;" horiz-adv-x="509" 
d="M77 483h50v-383q0 -64 67 -64q35 0 86 18t95 44v385h51v-483h-47l-3 50q-111 -60 -189 -60q-110 0 -110 107v386zM340 654l35 -13q-19 -97 -122 -97q-100 0 -119 97l35 13q1 -2 3 -10t3.5 -11.5t5 -11.5t7 -12t10 -10t14 -9t18 -5t23.5 -2q11 0 21 1.5t17.5 5t13.5 6.5
t10.5 9t7.5 9t6.5 11t4.5 10t4 11z" />
    <glyph glyph-name="Uring" unicode="&#x16e;" horiz-adv-x="626" 
d="M133 684v-465q0 -183 180 -183t180 183v465h52v-462q0 -233 -232 -233t-232 233v462h52zM384 801q0 -31 -19.5 -50t-50.5 -19q-32 0 -51.5 19.5t-19.5 49.5q0 31 19.5 50t51.5 19q31 0 50.5 -19t19.5 -50zM351 801q0 17 -10 27.5t-27 10.5q-18 0 -28.5 -10.5t-10.5 -27.5
t10.5 -27t28.5 -10q37 0 37 37z" />
    <glyph glyph-name="uring" unicode="&#x16f;" horiz-adv-x="509" 
d="M77 483h50v-383q0 -64 67 -64q35 0 86 18t95 44v385h51v-483h-47l-3 50q-111 -60 -189 -60q-110 0 -110 107v386zM325 614q0 -31 -19.5 -50t-50.5 -19q-32 0 -51.5 19.5t-19.5 49.5q0 31 19.5 50t51.5 19q31 0 50.5 -19t19.5 -50zM292 614q0 17 -10 27.5t-27 10.5
q-18 0 -28.5 -10.5t-10.5 -27.5t10.5 -27t28.5 -10q37 0 37 37z" />
    <glyph glyph-name="Uhungarumlaut" unicode="&#x170;" horiz-adv-x="626" 
d="M133 684v-465q0 -183 180 -183t180 183v465h52v-462q0 -233 -232 -233t-232 233v462h52zM207 723l-34 20l108 117l48 -11zM370 723l-34 20l108 117l47 -11z" />
    <glyph glyph-name="uhungarumlaut" unicode="&#x171;" horiz-adv-x="509" 
d="M77 483h50v-383q0 -64 67 -64q35 0 86 18t95 44v385h51v-483h-47l-3 50q-111 -60 -189 -60q-110 0 -110 107v386zM149 536l-34 20l108 117l48 -11zM312 536l-34 20l108 117l47 -11z" />
    <glyph glyph-name="Uogonek" unicode="&#x172;" horiz-adv-x="626" 
d="M391 -189q-18 -11 -58 -11q-45 0 -72 20.5t-27 55.5q0 65 58 114q-211 10 -211 232v462h52v-465q0 -183 180 -183t180 183v465h52v-462q0 -220 -210 -232q-59 -49 -59 -111q0 -19 16.5 -31t44.5 -12q24 0 50 8z" />
    <glyph glyph-name="uogonek" unicode="&#x173;" horiz-adv-x="509" 
d="M465 -189q-18 -11 -58 -11q-45 0 -72 20.5t-27 55.5q0 73 71 124l-3 50q-111 -60 -189 -60q-110 0 -110 107v386h50v-383q0 -64 67 -64q35 0 86 18t95 44v385h51v-483h-4q-72 -51 -72 -121q0 -19 16.5 -31t44.5 -12q24 0 50 8z" />
    <glyph glyph-name="Wcircumflex" unicode="&#x174;" horiz-adv-x="837" 
d="M566 0l-148 585l-151 -585h-59l-175 684h54l151 -607l154 607h53l150 -607l151 607h57l-178 -684h-59zM567 769l-20 -36l-131 72l-132 -73l-16 37l148 86z" />
    <glyph glyph-name="wcircumflex" unicode="&#x175;" horiz-adv-x="683" 
d="M218 0h-62l-133 483h53l113 -426l126 334h54l125 -334l113 426h53l-133 -483h-61l-124 335zM491 582l-20 -36l-131 72l-132 -73l-16 37l148 86z" />
    <glyph glyph-name="Ycircumflex" unicode="&#x176;" horiz-adv-x="537" 
d="M70 684l198 -387l199 387h57l-230 -444v-240h-51v240l-231 444h58zM418 769l-20 -36l-131 72l-132 -73l-16 37l148 86z" />
    <glyph glyph-name="ycircumflex" unicode="&#x177;" horiz-adv-x="429" 
d="M361 483h54l-251 -684h-52l75 200l-173 484h54l145 -413zM364 582l-20 -36l-131 72l-132 -73l-16 37l148 86z" />
    <glyph glyph-name="Ydieresis" unicode="&#x178;" horiz-adv-x="537" 
d="M70 684l198 -387l199 387h57l-230 -444v-240h-51v240l-231 444h58zM321 802q0 25 4.5 33t24.5 8q19 0 24 -8t5 -33t-5 -33t-24 -8q-20 0 -24.5 8t-4.5 33zM158 802q0 25 4.5 33t24.5 8q19 0 23.5 -8t4.5 -33t-4.5 -33t-23.5 -8q-20 0 -24.5 8t-4.5 33z" />
    <glyph glyph-name="Zacute" unicode="&#x179;" horiz-adv-x="563" 
d="M495 639l-374 -591h379v-48h-441v43l375 593h-369v48h430v-45zM391 809l-172 -79l-10 40l180 88z" />
    <glyph glyph-name="zacute" unicode="&#x17a;" horiz-adv-x="449" 
d="M69 438v45h316v-41l-270 -397h278v-45h-339v40l271 398h-256zM334 622l-172 -79l-10 40l180 88z" />
    <glyph glyph-name="Zdotaccent" unicode="&#x17b;" horiz-adv-x="563" 
d="M495 639l-374 -591h379v-48h-441v43l375 593h-369v48h430v-45zM252 802q0 25 4.5 33t24.5 8q19 0 23.5 -8t4.5 -33t-4.5 -33t-23.5 -8q-20 0 -24.5 8t-4.5 33z" />
    <glyph glyph-name="zdotaccent" unicode="&#x17c;" horiz-adv-x="449" 
d="M69 438v45h316v-41l-270 -397h278v-45h-339v40l271 398h-256zM196 615q0 25 4.5 33t24.5 8q19 0 23.5 -8t4.5 -33t-4.5 -33t-23.5 -8q-20 0 -24.5 8t-4.5 33z" />
    <glyph glyph-name="Zcaron" unicode="&#x17d;" horiz-adv-x="563" 
d="M495 639l-374 -591h379v-48h-441v43l375 593h-369v48h430v-45zM132 817l19 36l131 -72l132 73l17 -37l-149 -86z" />
    <glyph glyph-name="zcaron" unicode="&#x17e;" horiz-adv-x="449" 
d="M69 438v45h316v-41l-270 -397h278v-45h-339v40l271 398h-256zM75 630l19 36l131 -72l132 73l17 -37l-149 -86z" />
    <glyph glyph-name="florin" unicode="&#x192;" horiz-adv-x="459" 
d="M96 413h98l7 91q4 52 11 84t24 63.5t50 46t84 14.5q44 0 63 -6l-4 -44q-36 6 -54 6q-31 0 -53 -8t-34.5 -19.5t-20 -35t-10.5 -44.5t-6 -57l-7 -91h133l-4 -45h-132l-25 -339q-3 -43 -7.5 -73t-15.5 -63t-28.5 -52.5t-46.5 -32.5t-69 -13q-33 0 -58 5l6 44q23 -5 48 -5
q57 0 84 35t34 121l28 373h-98z" />
    <glyph glyph-name="Scommaaccent" unicode="&#x218;" horiz-adv-x="531" 
d="M465 170q0 -43 -8.5 -74t-31 -57t-66 -39t-108.5 -13q-89 0 -184 26l6 52q86 -30 178 -30q93 0 127 32.5t34 98.5q0 40 -7 65t-28.5 43t-49 28.5t-80.5 24.5q-50 14 -78.5 25t-54 31t-36 49t-10.5 73q0 45 8.5 77t30.5 59t66 40.5t109 13.5q84 0 166 -20l-4 -51
q-77 23 -162 23q-95 0 -128.5 -33t-33.5 -101q0 -67 32.5 -92.5t126.5 -51.5q111 -30 148.5 -67.5t37.5 -131.5zM237 -198l12 47q1 3 1 6q0 4 -6 7q-7 4 -7 39q0 19 1 26t7.5 11.5t20.5 4.5q19 0 23.5 -8t4.5 -34v-13q0 -22 -10 -52l-16 -42q-3 -9 -19 -3q-9 3 -11 5t-1 6z
" />
    <glyph glyph-name="scommaaccent" unicode="&#x219;" horiz-adv-x="428" 
d="M375 122q0 -75 -41.5 -104t-133.5 -29q-68 0 -135 19l6 45q66 -18 130 -18q65 0 94.5 16.5t29.5 69.5q0 50 -18 67t-97 36q-53 13 -82 24.5t-44 29.5t-18.5 36.5t-3.5 55.5q0 63 39 94t123 31q70 0 137 -13l-7 -46q-74 14 -134 14q-58 0 -83 -19t-25 -59q0 -48 16.5 -64
t87.5 -34q59 -15 90 -27t47 -31t19 -37t3 -57zM186 -198l12 47q1 3 1 6q0 4 -6 7q-7 4 -7 39q0 19 1 26t7.5 11.5t20.5 4.5q19 0 23.5 -8t4.5 -34v-13q0 -22 -10 -52l-16 -42q-3 -9 -19 -3q-9 3 -11 5t-1 6z" />
    <glyph glyph-name="uni021a" unicode="&#x21a;" horiz-adv-x="522" 
d="M235 0v636h-208v48h468v-48h-209v-636h-51zM232 -198l12 47q1 3 1 6q0 4 -6 7q-7 4 -7 39q0 19 1 26t7.5 11.5t20.5 4.5q19 0 23.5 -8t4.5 -34v-13q0 -22 -10 -52l-16 -42q-3 -9 -19 -3q-9 3 -11 5t-1 6z" />
    <glyph glyph-name="uni021b" unicode="&#x21b;" horiz-adv-x="354" 
d="M314 6q-58 -16 -107 -16q-63 0 -80.5 27t-17.5 98v315h-82v44h82v131l51 14v-145h138l-12 -44h-126v-314q0 -48 9 -64t46 -16q45 0 93 16zM184 -198l12 47q1 3 1 6q0 4 -6 7q-7 4 -7 39q0 19 1 26t7.5 11.5t20.5 4.5q19 0 23.5 -8t4.5 -34v-13q0 -22 -10 -52l-16 -42
q-3 -9 -19 -3q-9 3 -11 5t-1 6z" />
    <glyph glyph-name="circumflex" unicode="&#x2c6;" horiz-adv-x="333" 
d="M316 582l-20 -36l-131 72l-132 -73l-16 37l148 86z" />
    <glyph glyph-name="caron" unicode="&#x2c7;" horiz-adv-x="333" 
d="M17 630l19 36l131 -72l132 73l17 -37l-149 -86z" />
    <glyph glyph-name="breve" unicode="&#x2d8;" horiz-adv-x="333" 
d="M252 654l35 -13q-19 -97 -122 -97q-100 0 -119 97l35 13q1 -2 3 -10t3.5 -11.5t5 -11.5t7 -12t10 -10t14 -9t18 -5t23.5 -2q11 0 21 1.5t17.5 5t13.5 6.5t10.5 9t7.5 9t6.5 11t4.5 10t4 11z" />
    <glyph glyph-name="dotaccent" unicode="&#x2d9;" horiz-adv-x="333" 
d="M137 615q0 25 4.5 33t24.5 8q19 0 23.5 -8t4.5 -33t-4.5 -33t-23.5 -8q-20 0 -24.5 8t-4.5 33z" />
    <glyph glyph-name="ring" unicode="&#x2da;" horiz-adv-x="333" 
d="M237 614q0 -31 -19.5 -50t-50.5 -19q-32 0 -51.5 19.5t-19.5 49.5q0 31 19.5 50t51.5 19q31 0 50.5 -19t19.5 -50zM204 614q0 17 -10 27.5t-27 10.5q-18 0 -28.5 -10.5t-10.5 -27.5t10.5 -27t28.5 -10q37 0 37 37z" />
    <glyph glyph-name="ogonek" unicode="&#x2db;" horiz-adv-x="333" 
d="M248 -189q-18 -11 -58 -11q-45 0 -72 20.5t-27 55.5q0 74 74 126h43q-75 -53 -75 -123q0 -19 16.5 -31t44.5 -12q24 0 50 8z" />
    <glyph glyph-name="tilde" unicode="&#x2dc;" horiz-adv-x="333" 
d="M230 567q-21 0 -64.5 14.5t-61.5 14.5q-38 0 -63 -22l-5 42q28 23 70 23q24 0 66.5 -14.5t58.5 -14.5q38 0 64 22l5 -42q-28 -23 -70 -23z" />
    <glyph glyph-name="hungarumlaut" unicode="&#x2dd;" horiz-adv-x="333" 
d="M71 536l-34 20l108 117l48 -11zM234 536l-34 20l108 117l47 -11z" />
    <glyph glyph-name="uni0308" unicode="&#x308;" horiz-adv-x="333" 
d="M219 615q0 25 4.5 33t24.5 8q19 0 24 -8t5 -33t-5 -33t-24 -8q-20 0 -24.5 8t-4.5 33zM56 615q0 25 4.5 33t24.5 8q19 0 23.5 -8t4.5 -33t-4.5 -33t-23.5 -8q-20 0 -24.5 8t-4.5 33z" />
    <glyph glyph-name="uni037E" unicode="&#x37e;" horiz-adv-x="215" 
d="M65 -111l27 94q1 3 1 6q0 4 -6 7q-7 4 -7 39q0 19 1 26t7.5 11.5t20.5 4.5q19 0 23.5 -8t4.5 -34v-13q0 -22 -10 -52l-31 -89q-3 -9 -19 -3q-9 3 -11 5t-1 6zM80 357q0 26 4.5 34t24.5 8q19 0 23.5 -8t4.5 -34q0 -25 -4.5 -33t-23.5 -8q-20 0 -24.5 8t-4.5 33z" />
    <glyph glyph-name="anoteleia" unicode="&#x387;" horiz-adv-x="215" 
d="M79 285q0 26 4.5 34t24.5 8q19 0 23.5 -8t4.5 -34q0 -25 -4.5 -33t-23.5 -8q-20 0 -24.5 8t-4.5 33z" />
    <glyph glyph-name="Delta" unicode="&#x394;" horiz-adv-x="551" 
d="M235 495l-157 -449h391l-154 447q-26 72 -39 128h-2q-14 -51 -39 -126zM22 0v34l231 650h48l226 -650v-34h-505z" />
    <glyph glyph-name="Omega" unicode="&#x3a9;" horiz-adv-x="620" 
d="M428 49v-1h133v-48h-187v42q123 121 123 324q0 60 -3.5 99t-14 77t-31 59t-55 33.5t-84.5 12.5t-84 -13t-54.5 -34.5t-31.5 -60t-14.5 -78.5t-3.5 -101q0 -99 35.5 -186t81.5 -132v-42h-179v48h126v1q-48 47 -82 129t-34 186q0 67 5 114t19.5 91t41 69.5t70 41
t104.5 15.5q76 0 125 -21.5t74 -67t33.5 -99t8.5 -135.5q0 -110 -35.5 -192.5t-86.5 -130.5z" />
    <glyph glyph-name="mu" unicode="&#x3bc;" horiz-adv-x="509" 
d="M76 482h51v-382q0 -64 67 -64q35 0 86 18t95 44v384h51v-482h-47l-3 50q-109 -60 -189 -60q-38 0 -60 15v-196l-51 -12v685z" />
    <glyph glyph-name="pi" unicode="&#x3c0;" horiz-adv-x="567" 
d="M533 438h-78v-301q0 -84 14 -137h-48q-17 40 -17 133v305h-217q-2 -106 -23.5 -243t-48.5 -195h-49q28 68 48 198t22 240q-81 0 -113 -9l-8 36q47 18 132 18h391z" />
    <glyph glyph-name="figuredash" unicode="&#x2012;" 
d="M64 247v44h430v-44h-430z" />
    <glyph glyph-name="endash" unicode="&#x2013;" horiz-adv-x="500" 
d="M-5 247v44h510v-44h-510z" />
    <glyph glyph-name="emdash" unicode="&#x2014;" horiz-adv-x="833" 
d="M-5 247v44h841v-44h-841z" />
    <glyph glyph-name="quoteleft" unicode="&#x2018;" horiz-adv-x="215" 
d="M149 696l-27 -94q-1 -3 -1 -6q0 -4 6 -7q7 -3 7 -39q0 -19 -1 -26t-7.5 -11.5t-20.5 -4.5q-19 0 -23.5 8t-4.5 34v13q0 22 10 52l31 89q3 9 19 3q9 -3 11 -5t1 -6z" />
    <glyph glyph-name="quoteright" unicode="&#x2019;" horiz-adv-x="215" 
d="M65 512l27 94q1 3 1 6q0 4 -6 7q-7 3 -7 39q0 19 1 26t7.5 11.5t20.5 4.5q19 0 23.5 -8t4.5 -34v-13q0 -22 -10 -52l-31 -89q-3 -9 -19 -3q-9 3 -11 5t-1 6z" />
    <glyph glyph-name="quotesinglbase" unicode="&#x201a;" horiz-adv-x="215" 
d="M65 -111l27 94q1 3 1 6q0 4 -6 7q-7 4 -7 39q0 19 1 26t7.5 11.5t20.5 4.5q19 0 23.5 -8t4.5 -34v-13q0 -22 -10 -52l-31 -89q-3 -9 -19 -3q-9 3 -11 5t-1 6z" />
    <glyph glyph-name="quotedblleft" unicode="&#x201c;" horiz-adv-x="363" 
d="M149 696l-27 -94q-1 -3 -1 -6q0 -4 6 -7q7 -3 7 -39q0 -19 -1 -26t-7.5 -11.5t-20.5 -4.5q-19 0 -23.5 8t-4.5 34v13q0 22 10 52l31 89q3 9 19 3q9 -3 11 -5t1 -6zM297 696l-27 -94q-1 -3 -1 -6q0 -4 6 -7q7 -3 7 -39q0 -19 -1 -26t-7.5 -11.5t-20.5 -4.5q-19 0 -23.5 8
t-4.5 34v13q0 22 10 52l31 89q3 9 19 3q9 -3 11 -5t1 -6z" />
    <glyph glyph-name="quotedblright" unicode="&#x201d;" horiz-adv-x="363" 
d="M213 512l27 94q1 3 1 6q0 4 -6 7q-7 3 -7 39q0 19 1 26t7.5 11.5t20.5 4.5q19 0 23.5 -8t4.5 -34v-13q0 -22 -10 -52l-31 -89q-3 -9 -19 -3q-9 3 -11 5t-1 6zM65 512l27 94q1 3 1 6q0 4 -6 7q-7 3 -7 39q0 19 1 26t7.5 11.5t20.5 4.5q19 0 23.5 -8t4.5 -34v-13
q0 -22 -10 -52l-31 -89q-3 -9 -19 -3q-9 3 -11 5t-1 6z" />
    <glyph glyph-name="quotedblbase" unicode="&#x201e;" horiz-adv-x="363" 
d="M65 -111l27 94q1 3 1 6q0 4 -6 7q-7 4 -7 39q0 19 1 26t7.5 11.5t20.5 4.5q19 0 23.5 -8t4.5 -34v-13q0 -22 -10 -52l-31 -89q-3 -9 -19 -3q-9 3 -11 5t-1 6zM213 -111l27 94q1 3 1 6q0 4 -6 7q-7 4 -7 39q0 19 1 26t7.5 11.5t20.5 4.5q19 0 23.5 -8t4.5 -34v-13
q0 -22 -10 -52l-31 -89q-3 -9 -19 -3q-9 3 -11 5t-1 6z" />
    <glyph glyph-name="dagger" unicode="&#x2020;" horiz-adv-x="500" 
d="M63 432q3 15 9 49q51 -1 149 -1q0 132 -1 199q4 0 52 8q-2 -138 -2 -207q113 0 166 1q-8 -27 -10 -49q-56 3 -156 3v-520q-30 -6 -49 -8v528q-106 0 -158 -3z" />
    <glyph glyph-name="daggerdbl" unicode="&#x2021;" horiz-adv-x="500" 
d="M63 182q1 9 3.5 25t3.5 24q22 0 72.5 -0.5t78.5 -0.5v214q-26 0 -158 -3q1 9 3.5 25t3.5 24q46 -1 151 -1q0 35 -0.5 100.5t-0.5 89.5q18 2 52 8q-2 -104 -2 -198q121 0 166 1q-2 -10 -5.5 -26t-4.5 -23q-123 3 -156 3v-214q119 0 166 1q-6 -27 -10 -49q-138 3 -156 3
v-270q-30 -6 -49 -8v278q-26 0 -158 -3z" />
    <glyph glyph-name="bullet" unicode="&#x2022;" horiz-adv-x="500" 
d="M102 347q0 62 43 105t104 43t104.5 -43.5t43.5 -104.5t-43 -104t-105 -43q-61 0 -104 43t-43 104z" />
    <glyph glyph-name="twodotenleader" unicode="&#x2025;" horiz-adv-x="555" 
d="M110 35q0 26 4.5 34t24.5 8q19 0 23.5 -8t4.5 -34q0 -25 -4.5 -33t-23.5 -8q-20 0 -24.5 8t-4.5 33zM388 35q0 26 4.5 34t24.5 8q19 0 23.5 -8t4.5 -34q0 -25 -4.5 -33t-23.5 -8q-20 0 -24.5 8t-4.5 33z" />
    <glyph glyph-name="ellipsis" unicode="&#x2026;" horiz-adv-x="833" 
d="M110 35q0 26 4.5 34t24.5 8q19 0 23.5 -8t4.5 -34q0 -25 -4.5 -33t-23.5 -8q-20 0 -24.5 8t-4.5 33zM388 35q0 26 4.5 34t24.5 8q19 0 23.5 -8t4.5 -34q0 -25 -4.5 -33t-23.5 -8q-20 0 -24.5 8t-4.5 33zM665 35q0 26 4.5 34t24.5 8q19 0 23.5 -8t4.5 -34q0 -25 -4.5 -33
t-23.5 -8q-20 0 -24.5 8t-4.5 33z" />
    <glyph glyph-name="perthousand" unicode="&#x2030;" horiz-adv-x="1210" 
d="M1117 187q0 97 -19.5 128t-77.5 31t-77.5 -31t-19.5 -128t19.5 -128t77.5 -31t77.5 31t19.5 128zM1159 187q0 -101 -29 -149.5t-110 -48.5t-110.5 48.5t-29.5 149.5t29.5 149.5t110.5 48.5t110 -48.5t29 -149.5zM329 497q0 -105 -28.5 -151.5t-110.5 -46.5t-110.5 46.5
t-28.5 151.5t28.5 151.5t110.5 46.5t110.5 -46.5t28.5 -151.5zM285 497q0 89 -19.5 123t-75.5 34q-57 0 -76 -34t-19 -123q0 -90 19 -124t76 -34q56 0 75.5 34t19.5 124zM789 187q0 -105 -29 -151.5t-111 -46.5t-110.5 46.5t-28.5 151.5t28.5 151.5t110.5 46.5t111 -47
t29 -151zM744 187q0 89 -19 123t-76 34q-56 0 -75 -34t-19 -123q0 -90 19 -124t75 -34q57 0 76 34t19 124zM254 5l296 700l42 -15l-297 -699z" />
    <glyph glyph-name="guilsinglleft" unicode="&#x2039;" horiz-adv-x="263" 
d="M77 244l149 -170l-32 -32l-158 178v47l158 179l32 -33z" />
    <glyph glyph-name="guilsinglright" unicode="&#x203a;" horiz-adv-x="263" 
d="M186 244l-150 169l32 33l158 -179v-47l-158 -178l-32 32z" />
    <glyph glyph-name="fraction" unicode="&#x2044;" horiz-adv-x="144" 
d="M243 692l-298 -702l-43 14l297 701z" />
    <glyph glyph-name="zero.superior" unicode="&#x2070;" horiz-adv-x="381" 
d="M338 475v-28q0 -42 -2 -68.5t-10 -57.5t-23.5 -48t-44 -28.5t-68.5 -11.5t-68 11.5t-43.5 29t-24 47.5t-10.5 57.5t-2 68.5v28q0 41 2 68.5t10.5 57.5t24 47.5t43.5 29t68 11.5t68.5 -11.5t44 -28.5t23.5 -48t10 -57.5t2 -68.5zM293 447v28q0 38 -1.5 59.5t-7 46.5
t-16 38t-30 21.5t-48.5 8.5q-28 0 -47.5 -8.5t-30.5 -21.5t-16.5 -37.5t-7 -47t-1.5 -59.5v-28q0 -36 1.5 -58.5t7 -47t16.5 -37.5t30.5 -21.5t47.5 -8.5q29 0 48.5 8.5t30 21.5t16 37.5t7 46.5t1.5 59z" />
    <glyph glyph-name="four.superior" unicode="&#x2074;" horiz-adv-x="381" 
d="M349 367h-61v-128h-45v128h-211v41l209 276h47v-277h61v-40zM81 407h162v213z" />
    <glyph glyph-name="five.superior" unicode="&#x2075;" horiz-adv-x="381" 
d="M99 449h-24l8 235h223v-40h-183l-4 -153q52 4 72 4q68 0 98 -28t30 -93v-14q0 -67 -31.5 -97.5t-111.5 -30.5q-67 0 -115 17l5 42q53 -19 109 -19t77.5 19t21.5 67v15q0 47 -20 64.5t-72 17.5q-35 0 -83 -6z" />
    <glyph glyph-name="six.superior" unicode="&#x2076;" horiz-adv-x="381" 
d="M96 499v-25q61 25 111 25q67 0 95 -29.5t28 -97.5q0 -75 -31 -107.5t-105 -32.5q-47 0 -76.5 12.5t-43.5 41t-18.5 60t-4.5 83.5v43q0 115 33 166.5t131 51.5q53 0 94 -13l-4 -40q-46 13 -87 13q-74 0 -98 -34.5t-24 -116.5zM204 458q-47 0 -108 -23v-19q0 -41 2.5 -63.5
t12 -43.5t30 -29.5t54.5 -8.5q54 0 73 22t19 79q0 47 -17.5 66.5t-65.5 19.5z" />
    <glyph glyph-name="seven.superior" unicode="&#x2077;" horiz-adv-x="381" 
d="M68 644v40h259v-33l-187 -412h-46l183 405h-209z" />
    <glyph glyph-name="eight.superior" unicode="&#x2078;" horiz-adv-x="381" 
d="M326 579q0 -41 -17 -66t-57 -41q46 -16 66 -43t20 -71q0 -66 -34 -96t-113 -30q-80 0 -114.5 29.5t-34.5 96.5q0 44 20.5 71t65.5 43q-73 30 -73 107q0 111 136 111q135 0 135 -111zM293 358q0 43 -25 63.5t-78 31.5q-53 -11 -78 -31t-25 -64q0 -49 24 -68t80 -19
t79 19.5t23 67.5zM282 578q0 73 -91 73q-50 0 -71 -19t-21 -56q0 -40 22 -60.5t69 -30.5q50 12 71 31.5t21 61.5z" />
    <glyph glyph-name="nine.superior" unicode="&#x2079;" horiz-adv-x="381" 
d="M285 423v24q-65 -24 -111 -24q-68 0 -96 29.5t-28 97.5q0 75 31 107.5t105 32.5q90 0 117 -46.5t27 -150.5v-43q0 -115 -33 -166.5t-132 -51.5q-53 0 -94 13l4 40q47 -13 87 -13q74 0 98 34.5t25 116.5zM176 464q48 0 109 23v19q0 80 -17.5 112.5t-81.5 32.5
q-54 0 -73.5 -22t-19.5 -79q0 -47 17.5 -66.5t65.5 -19.5z" />
    <glyph glyph-name="zero.inferior" unicode="&#x2080;" horiz-adv-x="381" 
d="M338 236v-28q0 -42 -2 -68.5t-10 -57.5t-23.5 -48t-44 -28.5t-68.5 -11.5t-68 11.5t-43.5 29t-24 47.5t-10.5 57.5t-2 68.5v28q0 41 2 68.5t10.5 57.5t24 47.5t43.5 29t68 11.5t68.5 -11.5t44 -28.5t23.5 -48t10 -57.5t2 -68.5zM293 208v28q0 38 -1.5 59.5t-7 46.5
t-16 38t-30 21.5t-48.5 8.5q-28 0 -47.5 -8.5t-30.5 -21.5t-16.5 -37.5t-7 -47t-1.5 -59.5v-28q0 -36 1.5 -58.5t7 -47t16.5 -37.5t30.5 -21.5t47.5 -8.5q29 0 48.5 8.5t30 21.5t16 37.5t7 46.5t1.5 59z" />
    <glyph glyph-name="one.inferior" unicode="&#x2081;" horiz-adv-x="381" 
d="M109 0v39h76v357l-82 -42l-10 40l98 51h38v-406h72v-39h-192z" />
    <glyph glyph-name="two.inferior" unicode="&#x2082;" horiz-adv-x="381" 
d="M119 39h199v-39h-257v35q99 108 140 162q72 91 72 143q0 37 -20.5 54.5t-68.5 17.5q-60 0 -110 -26l-6 40q50 26 120 26q71 0 100.5 -27.5t29.5 -82.5q0 -37 -18 -73t-63 -93q-28 -36 -118 -137z" />
    <glyph glyph-name="three.inferior" unicode="&#x2083;" horiz-adv-x="381" 
d="M59 11l4 40q59 -19 112 -19q54 0 78.5 17.5t24.5 64.5v21q0 40 -22.5 55.5t-69.5 15.5h-76v39h57q53 0 76 15t23 59v26q0 36 -20.5 51.5t-66.5 15.5q-47 0 -105 -20l-4 41q62 18 110 18q68 0 99.5 -25t31.5 -77v-22q0 -41 -12.5 -62.5t-43.5 -34.5q37 -9 52.5 -31.5
t15.5 -68.5v-13q0 -67 -36 -95.5t-112 -28.5q-64 0 -116 18z" />
    <glyph glyph-name="four.inferior" unicode="&#x2084;" horiz-adv-x="381" 
d="M349 128h-61v-128h-45v128h-211v41l209 276h47v-277h61v-40zM81 168h162v213z" />
    <glyph glyph-name="five.inferior" unicode="&#x2085;" horiz-adv-x="381" 
d="M99 210h-24l8 235h223v-40h-183l-4 -153q52 4 72 4q68 0 98 -28t30 -93v-14q0 -67 -31.5 -97.5t-111.5 -30.5q-67 0 -115 17l5 42q53 -19 109 -19t77.5 19t21.5 67v15q0 47 -20 64.5t-72 17.5q-35 0 -83 -6z" />
    <glyph glyph-name="six.inferior" unicode="&#x2086;" horiz-adv-x="381" 
d="M96 260v-25q61 25 111 25q67 0 95 -29.5t28 -97.5q0 -75 -31 -107.5t-105 -32.5q-47 0 -76.5 12.5t-43.5 41t-18.5 60t-4.5 83.5v43q0 115 33 166.5t131 51.5q53 0 94 -13l-4 -40q-46 13 -87 13q-74 0 -98 -34.5t-24 -116.5zM204 219q-47 0 -108 -23v-19q0 -41 2.5 -63.5
t12 -43.5t30 -29.5t54.5 -8.5q54 0 73 22t19 79q0 47 -17.5 66.5t-65.5 19.5z" />
    <glyph glyph-name="seven.inferior" unicode="&#x2087;" horiz-adv-x="381" 
d="M68 405v40h259v-33l-187 -412h-46l183 405h-209z" />
    <glyph glyph-name="eight.inferior" unicode="&#x2088;" horiz-adv-x="381" 
d="M326 340q0 -41 -17 -66t-57 -41q46 -16 66 -43t20 -71q0 -66 -34 -96t-113 -30q-80 0 -114.5 29.5t-34.5 96.5q0 44 20.5 71t65.5 43q-73 30 -73 107q0 111 136 111q135 0 135 -111zM293 119q0 43 -25 63.5t-78 31.5q-53 -11 -78 -31t-25 -64q0 -49 24 -68t80 -19
t79 19.5t23 67.5zM282 339q0 73 -91 73q-50 0 -71 -19t-21 -56q0 -40 22 -60.5t69 -30.5q50 12 71 31.5t21 61.5z" />
    <glyph glyph-name="nine.inferior" unicode="&#x2089;" horiz-adv-x="381" 
d="M285 184v24q-65 -24 -111 -24q-68 0 -96 29.5t-28 97.5q0 75 31 107.5t105 32.5q90 0 117 -46.5t27 -150.5v-43q0 -115 -33 -166.5t-132 -51.5q-53 0 -94 13l4 40q47 -13 87 -13q74 0 98 34.5t25 116.5zM176 225q48 0 109 23v19q0 80 -17.5 112.5t-81.5 32.5
q-54 0 -73.5 -22t-19.5 -79q0 -47 17.5 -66.5t65.5 -19.5z" />
    <glyph glyph-name="Euro" unicode="&#x20ac;" 
d="M43 387l6 45h80q4 136 53 194.5t169 58.5q83 0 153 -18l-5 -47q-70 18 -138 18q-100 0 -138 -44t-42 -162h255l-6 -45h-250v-103h238l-7 -45h-230q3 -113 41 -158.5t143 -45.5q76 0 141 18l6 -47q-66 -17 -149 -17q-69 0 -114 15t-70.5 48t-36.5 76.5t-13 110.5h-86l6 45
h80v103h-86z" />
    <glyph glyph-name="trademark" unicode="&#x2122;" horiz-adv-x="591" 
d="M531 424h-36v178l-59 -137h-39l-60 137v-178h-35v260h37l78 -180l77 180h37v-260zM125 424v227h-81v33h197v-33h-81v-227h-35z" />
    <glyph glyph-name="uni2126" unicode="&#x2126;" horiz-adv-x="620" 
d="M428 49v-1h133v-48h-187v42q123 121 123 324q0 60 -3.5 99t-14 77t-31 59t-55 33.5t-84.5 12.5t-84 -13t-54.5 -34.5t-31.5 -60t-14.5 -78.5t-3.5 -101q0 -99 35.5 -186t81.5 -132v-42h-179v48h126v1q-48 47 -82 129t-34 186q0 67 5 114t19.5 91t41 69.5t70 41
t104.5 15.5q76 0 125 -21.5t74 -67t33.5 -99t8.5 -135.5q0 -110 -35.5 -192.5t-86.5 -130.5z" />
    <glyph glyph-name="onethird" unicode="&#x2153;" horiz-adv-x="906" 
d="M109 239v39h76v357l-82 -42l-10 40l98 51h38v-406h72v-39h-192zM624 692l-298 -702l-43 14l297 701zM584 11l4 40q59 -19 112 -19q54 0 78.5 17.5t24.5 64.5v21q0 40 -22.5 55.5t-69.5 15.5h-76v39h57q53 0 76 15t23 59v26q0 36 -20.5 51.5t-66.5 15.5q-47 0 -105 -20
l-4 41q62 18 110 18q68 0 99.5 -25t31.5 -77v-22q0 -41 -12.5 -62.5t-43.5 -34.5q37 -9 52.5 -31.5t15.5 -68.5v-13q0 -67 -36 -95.5t-112 -28.5q-64 0 -116 18z" />
    <glyph glyph-name="twothirds" unicode="&#x2154;" horiz-adv-x="906" 
d="M119 278h199v-39h-257v35q99 108 140 162q72 92 72 143q0 37 -20.5 54.5t-68.5 17.5q-60 0 -110 -26l-6 40q50 26 120 26q71 0 100.5 -27.5t29.5 -82.5q0 -37 -18 -73t-63 -93q-28 -36 -118 -137zM624 692l-298 -702l-43 14l297 701zM584 11l4 40q59 -19 112 -19
q54 0 78.5 17.5t24.5 64.5v21q0 40 -22.5 55.5t-69.5 15.5h-76v39h57q53 0 76 15t23 59v26q0 36 -20.5 51.5t-66.5 15.5q-47 0 -105 -20l-4 41q62 18 110 18q68 0 99.5 -25t31.5 -77v-22q0 -41 -12.5 -62.5t-43.5 -34.5q37 -9 52.5 -31.5t15.5 -68.5v-13q0 -67 -36 -95.5
t-112 -28.5q-64 0 -116 18z" />
    <glyph glyph-name="oneeighth" unicode="&#x215b;" horiz-adv-x="906" 
d="M109 239v39h76v357l-82 -42l-10 40l98 51h38v-406h72v-39h-192zM624 692l-298 -702l-43 14l297 701zM851 340q0 -41 -17 -66t-57 -41q46 -16 66 -43t20 -71q0 -66 -34 -96t-113 -30q-80 0 -114.5 29.5t-34.5 96.5q0 44 20.5 71t65.5 43q-73 30 -73 107q0 111 136 111
q135 0 135 -111zM818 119q0 43 -25 63.5t-78 31.5q-53 -11 -78 -31t-25 -64q0 -49 24 -68t80 -19t79 19.5t23 67.5zM807 339q0 73 -91 73q-50 0 -71 -19t-21 -56q0 -40 22 -60.5t69 -30.5q50 12 71 31.5t21 61.5z" />
    <glyph glyph-name="threeeighths" unicode="&#x215c;" horiz-adv-x="906" 
d="M59 250l4 40q59 -19 112 -19q54 0 78.5 17.5t24.5 64.5v21q0 40 -22.5 55.5t-69.5 15.5h-76v39h57q53 0 76 15t23 59v26q0 36 -20.5 51.5t-66.5 15.5q-47 0 -105 -20l-4 41q62 18 110 18q68 0 99.5 -25t31.5 -77v-22q0 -41 -12.5 -62.5t-43.5 -34.5q37 -9 52.5 -31.5
t15.5 -68.5v-13q0 -67 -36 -95.5t-112 -28.5q-64 0 -116 18zM624 692l-298 -702l-43 14l297 701zM851 340q0 -41 -17 -66t-57 -41q46 -16 66 -43t20 -71q0 -66 -34 -96t-113 -30q-80 0 -114.5 29.5t-34.5 96.5q0 44 20.5 71t65.5 43q-73 30 -73 107q0 111 136 111
q135 0 135 -111zM818 119q0 43 -25 63.5t-78 31.5q-53 -11 -78 -31t-25 -64q0 -49 24 -68t80 -19t79 19.5t23 67.5zM807 339q0 73 -91 73q-50 0 -71 -19t-21 -56q0 -40 22 -60.5t69 -30.5q50 12 71 31.5t21 61.5z" />
    <glyph glyph-name="fiveeighths" unicode="&#x215d;" horiz-adv-x="905" 
d="M99 449h-24l8 235h223v-40h-183l-4 -153q52 4 72 4q68 0 98 -28t30 -93v-14q0 -67 -31.5 -97.5t-111.5 -30.5q-67 0 -115 17l5 42q53 -19 109 -19t77.5 19t21.5 67v15q0 47 -20 64.5t-72 17.5q-35 0 -83 -6zM624 692l-298 -702l-43 14l297 701zM850 340q0 -41 -17 -66
t-57 -41q46 -16 66 -43t20 -71q0 -66 -34 -96t-113 -30q-80 0 -114.5 29.5t-34.5 96.5q0 44 20.5 71t65.5 43q-73 30 -73 107q0 111 136 111q135 0 135 -111zM817 119q0 43 -25 63.5t-78 31.5q-53 -11 -78 -31t-25 -64q0 -49 24 -68t80 -19t79 19.5t23 67.5zM806 339
q0 73 -91 73q-50 0 -71 -19t-21 -56q0 -40 22 -60.5t69 -30.5q50 12 71 31.5t21 61.5z" />
    <glyph glyph-name="seveneighths" unicode="&#x215e;" horiz-adv-x="906" 
d="M68 644v40h259v-33l-187 -412h-46l183 405h-209zM607 692l-298 -702l-43 14l297 701zM850 340q0 -41 -17 -66t-57 -41q46 -16 66 -43t20 -71q0 -66 -34 -96t-113 -30q-80 0 -114.5 29.5t-34.5 96.5q0 44 20.5 71t65.5 43q-73 30 -73 107q0 111 136 111q135 0 135 -111z
M817 119q0 43 -25 63.5t-78 31.5q-53 -11 -78 -31t-25 -64q0 -49 24 -68t80 -19t79 19.5t23 67.5zM806 339q0 73 -91 73q-50 0 -71 -19t-21 -56q0 -40 22 -60.5t69 -30.5q50 12 71 31.5t21 61.5z" />
    <glyph glyph-name="partialdiff" unicode="&#x2202;" horiz-adv-x="478" 
d="M229 444q54 0 96.5 -24t66.5 -58q-1 144 -56.5 223t-133.5 79q-82 0 -122 -34l-23 36q52 44 148 44q99 0 168 -92t69 -253q0 -180 -68.5 -278t-172.5 -98q-86 0 -132 61.5t-46 147.5q0 104 58.5 175t147.5 71zM204 34q74 0 124.5 71.5t59.5 194.5q-15 39 -55.5 69.5
t-98.5 30.5q-68 0 -113.5 -58t-45.5 -143q0 -71 34 -118t95 -47z" />
    <glyph glyph-name="uni2206" unicode="&#x2206;" horiz-adv-x="551" 
d="M235 495l-157 -449h391l-154 447q-26 72 -39 128h-2q-14 -51 -39 -126zM22 0v34l231 650h48l226 -650v-34h-505z" />
    <glyph glyph-name="product" unicode="&#x220f;" horiz-adv-x="601" 
d="M587 662h-91v-751h-52v751h-289v-751h-52v751h-89v48h573v-48z" />
    <glyph glyph-name="summation" unicode="&#x2211;" horiz-adv-x="508" 
d="M493 -90h-477v36l254 362l-248 364v38h456v-48h-385v-2l238 -351l-244 -349v-2h406v-48z" />
    <glyph glyph-name="minus" unicode="&#x2212;" horiz-adv-x="500" 
d="M62 260v44h376v-44h-376z" />
    <glyph glyph-name="uni2215" unicode="&#x2215;" horiz-adv-x="144" 
d="M243 692l-298 -702l-43 14l297 701z" />
    <glyph glyph-name="bulletoperator" unicode="&#x2219;" horiz-adv-x="215" 
d="M79 285q0 26 4.5 34t24.5 8q19 0 23.5 -8t4.5 -34q0 -25 -4.5 -33t-23.5 -8q-20 0 -24.5 8t-4.5 33z" />
    <glyph glyph-name="radical" unicode="&#x221a;" horiz-adv-x="501" 
d="M522 830l-216 -922h-37l-156 432l-71 -32l-14 37l115 50l111 -317q15 -41 29 -87h1q2 15 9 46.5t9 41.5l173 751h47z" />
    <glyph glyph-name="infinity" unicode="&#x221e;" horiz-adv-x="500" 
d="M356 148q-15 0 -27.5 5.5t-24 19t-18.5 22.5t-19.5 29t-16.5 27q-1 -2 -8 -13.5t-9 -15t-9 -14t-10 -14t-10 -12t-11.5 -12t-11.5 -9t-13 -7.5t-13.5 -4t-15.5 -2q-40 0 -65 38.5t-25 96.5q0 57 26 96.5t70 39.5q15 0 29 -8t31 -29.5t22 -29.5t24 -37q4 6 17.5 27.5
t20 30t19 22t25.5 19t28 5.5q40 0 65.5 -38.5t25.5 -97.5q0 -57 -26 -96t-70 -39zM354 192q23 0 38 26.5t15 64.5q0 40 -14 66t-35 26q-11 0 -23.5 -12t-21.5 -25.5t-28 -45.5q-4 -6 -6 -10q27 -48 43 -69t32 -21zM141 192q19 0 36.5 22t43.5 69q-53 92 -75 92
q-23 0 -37.5 -26.5t-14.5 -65.5t13.5 -65t33.5 -26z" />
    <glyph glyph-name="integral" unicode="&#x222b;" horiz-adv-x="264" 
d="M3 -168l9 44q14 -3 25 -3q81 0 81 185q0 84 -6 251t-6 237q0 231 126 231q12 0 28 -4l-7 -43q-14 2 -19 2q-40 0 -60 -43.5t-20 -144.5q0 -81 6 -244.5t6 -240.5q0 -232 -125 -232q-16 0 -38 5z" />
    <glyph glyph-name="approxequal" unicode="&#x2248;" horiz-adv-x="500" 
d="M435 266l14 -41q-45 -70 -113 -70q-38 0 -89.5 31t-78.5 31q-34 0 -56.5 -15.5t-47.5 -51.5l-15 40q21 32 52.5 52.5t66.5 20.5q38 0 90 -31t79 -31q34 0 55 16.5t43 48.5zM435 426l14 -41q-45 -70 -113 -70q-38 0 -89.5 31t-78.5 31q-34 0 -56.5 -15.5t-47.5 -51.5
l-15 40q21 32 52.5 52.5t66.5 20.5q38 0 90 -31t79 -31q34 0 55 16.5t43 48.5z" />
    <glyph glyph-name="notequal" unicode="&#x2260;" horiz-adv-x="500" 
d="M62 339v43h218l81 156l36 -20l-71 -136h112v-43h-135l-60 -114h195v-43h-217l-82 -156l-35 18l72 138h-114v43h136l59 114h-195z" />
    <glyph glyph-name="lessequal" unicode="&#x2264;" horiz-adv-x="500" 
d="M62 268v51l366 181l18 -39l-339 -168l339 -165l-18 -39zM62 0v44h376v-44h-376z" />
    <glyph glyph-name="greaterequal" unicode="&#x2265;" horiz-adv-x="500" 
d="M62 0v44h376v-44h-376zM438 319v-51l-367 -180l-17 39l338 166l-338 166l17 39z" />
    <glyph glyph-name="dotmath" unicode="&#x22c5;" horiz-adv-x="215" 
d="M79 285q0 26 4.5 34t24.5 8q19 0 23.5 -8t4.5 -34q0 -25 -4.5 -33t-23.5 -8q-20 0 -24.5 8t-4.5 33z" />
    <glyph glyph-name="lozenge" unicode="&#x25ca;" horiz-adv-x="473" 
d="M428 340l-171 -351h-43l-171 351l165 350h49zM375 339l-102 216q-3 7 -11 24t-12 26l-17 41h-1l-15 -40l-121 -265l101 -214q11 -24 38 -91h2q7 25 38 91z" />
    <glyph glyph-name="Ccommaaccent" unicode="&#xee00;" horiz-adv-x="522" 
d="M316 647q-63 0 -101.5 -15.5t-58 -54.5t-25.5 -87t-6 -132v-32q0 -67 3 -106.5t14 -79t32 -59.5t57.5 -32t90.5 -12q82 0 148 18l1 -49q-64 -17 -150 -17q-48 0 -85.5 8t-64 21.5t-44.5 37t-28.5 48.5t-16.5 63t-7.5 72.5t-1.5 84.5v36q0 72 4.5 120t19 92.5t41 69t70 39
t106.5 14.5q90 0 158 -17l-2 -50q-67 19 -154 19zM273 -198l12 47q1 3 1 6q0 4 -6 7q-7 4 -7 39q0 19 1 26t7.5 11.5t20.5 4.5q19 0 23.5 -8t4.5 -34v-13q0 -22 -10 -52l-16 -42q-3 -9 -19 -3q-9 3 -11 5t-1 6z" />
    <glyph glyph-name="ccommaaccent" unicode="&#xee01;" horiz-adv-x="426" 
d="M111 241q0 -117 27 -161.5t118 -44.5q49 0 113 13l5 -47q-63 -12 -120 -12q-63 0 -102.5 15t-59.5 50t-26.5 77t-6.5 110q0 133 39 193t155 60q69 0 123 -9l-4 -50q-55 13 -119 13q-83 0 -112.5 -45.5t-29.5 -161.5zM218 -198l12 47q1 3 1 6q0 4 -6 7q-7 4 -7 39
q0 19 1 26t7.5 11.5t20.5 4.5q19 0 23.5 -8t4.5 -34v-13q0 -22 -10 -52l-16 -42q-3 -9 -19 -3q-9 3 -11 5t-1 6z" />
    <glyph glyph-name="zero.fitted" unicode="&#xf639;" 
d="M441 326v33q0 62 -2 99.5t-11 78t-26 61.5t-47.5 35t-75.5 14q-37 0 -64.5 -8.5t-45 -27.5t-28 -40.5t-16 -58t-7 -69.5t-1.5 -84v-33q0 -51 1.5 -84t7 -69.5t16 -58t28 -40.5t45 -27.5t64.5 -8.5q45 0 75.5 14t47.5 35t26 61.5t11 78t2 99.5zM492 360v-35
q0 -54 -2 -90.5t-9 -78.5t-21 -68.5t-37 -50t-59 -34.5t-85 -11q-58 0 -98 17.5t-62.5 44.5t-34.5 74t-15 89t-3 108v35q0 66 3 108t15 89t34.5 74t62.5 44.5t98 17.5q49 0 85 -11t59 -34.5t37 -50t21 -68.5t9 -78.5t2 -90.5z" />
    <glyph glyph-name="two.fitted" unicode="&#xf63a;" horiz-adv-x="464" 
d="M115 46h303v-46h-369v40q141 162 209 256q58 80 83.5 132.5t25.5 99.5q0 61 -32 90.5t-107 29.5q-87 0 -160 -39l-7 48q69 38 170 38q102 0 145 -41.5t43 -123.5q0 -57 -27 -112t-94 -147q-68 -94 -183 -225z" />
    <glyph glyph-name="three.fitted" unicode="&#xf63b;" horiz-adv-x="481" 
d="M38 14l5 48q79 -27 162 -27q84 0 123 29t39 108v34q0 68 -35.5 93t-113.5 25h-104v46h84q79 0 115.5 25.5t36.5 97.5v43q0 61 -32.5 86.5t-104.5 25.5q-73 0 -153 -28l-5 47q86 27 158 27q100 0 144 -37.5t44 -116.5v-36q0 -67 -19 -98.5t-69 -52.5q58 -13 81.5 -47
t23.5 -108v-22q0 -103 -51.5 -145t-160.5 -42q-89 0 -168 25z" />
    <glyph glyph-name="four.fitted" unicode="&#xf63c;" 
d="M506 210h-90v-210h-51v210h-313v48l311 426h53v-428h90v-46zM107 256h258v352z" />
    <glyph glyph-name="five.fitted" unicode="&#xf63d;" horiz-adv-x="465" 
d="M103 330h-33l12 354h322v-46h-276l-8 -260q74 9 119 9q96 0 139.5 -42.5t43.5 -140.5v-23q0 -101 -45 -146.5t-161 -45.5q-95 0 -163 25l4 49q77 -28 158 -28q88 0 122 32.5t34 109.5v26q0 77 -32 107t-108 30q-63 0 -128 -10z" />
    <glyph glyph-name="six.fitted" unicode="&#xf63e;" 
d="M129 386v-36q101 42 172 42q99 0 139 -43.5t40 -147.5q0 -118 -44 -165t-150 -47q-55 0 -93 13.5t-60.5 36t-34.5 62t-16 81t-4 104.5v73q0 88 8.5 144.5t33.5 102.5t73 67t123 21q77 0 135 -20l-6 -47q-60 20 -127 20q-60 0 -97.5 -15.5t-57.5 -51.5t-27 -80t-7 -114z
M299 345q-59 0 -170 -41v-32q0 -65 4.5 -102.5t19.5 -71.5t47.5 -48.5t85.5 -14.5q85 0 115.5 36.5t30.5 129.5q0 79 -27.5 111.5t-105.5 32.5z" />
    <glyph glyph-name="seven.fitted" unicode="&#xf63f;" horiz-adv-x="431" 
d="M33 638v46h369v-38l-278 -646h-53l275 638h-313z" />
    <glyph glyph-name="eight.fitted" unicode="&#xf640;" 
d="M475 527q0 -65 -27 -104.5t-91 -64.5q71 -24 103.5 -66.5t32.5 -113.5q0 -98 -51 -143.5t-162 -45.5q-114 0 -164.5 44.5t-50.5 144.5q0 71 32 113.5t104 66.5q-62 25 -90 65t-28 104q0 79 48.5 123t148.5 44q99 0 147 -44t48 -123zM441 178q0 73 -40.5 107.5
t-121.5 51.5q-80 -18 -121.5 -51t-41.5 -108q0 -78 38 -110.5t126 -32.5q86 0 123.5 33t37.5 110zM134 524q0 -67 36 -99.5t109 -50.5q76 19 110.5 51.5t34.5 100.5q0 122 -144 122q-146 0 -146 -124z" />
    <glyph glyph-name="nine.fitted" unicode="&#xf641;" 
d="M429 297v36q-101 -42 -172 -42q-99 0 -139 43.5t-40 147.5q0 118 44 165t150 47q55 0 93 -13.5t60.5 -36t34.5 -62t16 -81t4 -104.5v-73q0 -88 -8.5 -144.5t-33.5 -102.5t-73 -67t-123 -21q-77 0 -135 20l6 47q60 -20 127 -20q60 0 97.5 15.5t57.5 51.5t27 80t7 114z
M259 338q59 0 170 41v32q0 65 -4.5 102.5t-19.5 71.5t-47.5 48.5t-85.5 14.5q-85 0 -115.5 -36.5t-30.5 -129.5q0 -79 27.5 -111.5t105.5 -32.5z" />
    <glyph glyph-name="unif6c1" unicode="&#xf6c1;" horiz-adv-x="531" 
d="M304 -147v40q0 21 -52 21q-4 0 -9.5 -0.5t-7.5 -0.5l-21 8l14 67q-80 3 -161 25l6 52q86 -30 178 -30q93 0 127 32.5t34 98.5q0 40 -7 65t-28.5 43t-49 28.5t-80.5 24.5q-50 14 -78.5 25t-54 31t-36 49t-10.5 73q0 45 8.5 77t30.5 59t66 40.5t109 13.5q84 0 166 -20
l-4 -51q-77 23 -162 23q-95 0 -128.5 -33t-33.5 -101q0 -67 32.5 -92.5t126.5 -51.5q111 -30 148.5 -67.5t37.5 -131.5q0 -87 -43 -133.5t-160 -49.5l-9 -40q94 1 94 -53v-43q0 -23 -23.5 -37t-68.5 -14q-38 0 -70 7l6 33q43 -5 60 -5q53 0 53 18z" />
    <glyph glyph-name="unif6c2" unicode="&#xf6c2;" horiz-adv-x="428" 
d="M252 -147v40q0 21 -52 21q-4 0 -9.5 -0.5t-7.5 -0.5l-21 8l14 69q-56 3 -111 18l6 45q66 -18 130 -18q65 0 94.5 16.5t29.5 69.5q0 50 -18 67t-97 36q-53 13 -82 24.5t-44 29.5t-18.5 36.5t-3.5 55.5q0 63 39 94t123 31q70 0 137 -13l-7 -46q-74 14 -134 14
q-58 0 -83 -19t-25 -59q0 -48 16.5 -64t87.5 -34q59 -15 90 -27t47 -31t19 -37t3 -57q0 -73 -39 -102t-125 -31l-10 -42q94 1 94 -53v-43q0 -23 -23.5 -37t-68.5 -14q-38 0 -70 7l6 33q42 -5 60 -5q53 0 53 18z" />
    <glyph glyph-name="commaaccent" unicode="&#xf6c3;" horiz-adv-x="333" 
d="M149 -198l12 47q1 3 1 6q0 4 -6 7q-7 4 -7 39q0 19 1 26t7.5 11.5t20.5 4.5q19 0 23.5 -8t4.5 -34v-13q0 -22 -10 -52l-16 -42q-3 -9 -19 -3q-9 3 -11 5t-1 6z" />
    <glyph glyph-name="one.fitted" unicode="&#xf6dc;" horiz-adv-x="377" 
d="M72 0v46h110v582l-121 -65l-11 46l139 75h43v-638h104v-46h-264z" />
    <glyph glyph-name="threequartersemdash" unicode="&#xf6de;" horiz-adv-x="666" 
d="M78 247v44h510v-44h-510z" />
    <glyph glyph-name="unifb01" unicode="&#xfb01;" horiz-adv-x="568" 
d="M332 657q-42 10 -80 10q-42 0 -65 -18t-23 -65v-110h143l-12 -45h-131v-429h-50v429h-80v45h80v111q0 64 32.5 95t106.5 31q41 0 81 -9zM486 0h-50v483h50v-483zM433 624q0 19 1 26t7.5 11.5t20.5 4.5q19 0 23.5 -8t4.5 -34t-4.5 -34t-23.5 -8q-20 0 -24.5 8t-4.5 34z
" />
    <glyph glyph-name="unifb02" unicode="&#xfb02;" horiz-adv-x="614" 
d="M332 657q-42 10 -80 10q-42 0 -65 -18t-23 -65v-110h143l-12 -45h-131v-429h-50v429h-80v45h80v111q0 64 32.5 95t106.5 31q41 0 81 -9zM578 42l13 -43q-36 -10 -79 -10q-53 0 -67 25.5t-14 88.5v594l50 12v-611q0 -35 8.5 -49.5t33.5 -14.5q29 0 55 8z" />
    </font>
</defs>
</svg>
