<?xml version="1.0" standalone="no"?>
<!DOCTYPE svg PUBLIC "-//W3C//DTD SVG 1.1//EN" "http://www.w3.org/Graphics/SVG/1.1/DTD/svg11.dtd" >
<svg xmlns="http://www.w3.org/2000/svg" xmlns:xlink="http://www.w3.org/1999/xlink" version="1.1">
<metadata>
Created by FontForge 20170910 at Tue Jul  3 12:10:59 2012
 By Jimmy Wärting
Copyright (c) 2007-2008 DTP Types Limited. All rights reserved. SenticoSans DT is a trademark of DTP Types Limited.
</metadata>
<defs>
<font id="SenticoSansDT-Italic" horiz-adv-x="518" >
  <font-face 
    font-family="SenticoSansDT-Italic"
    font-weight="400"
    font-style="italic"
    font-stretch="normal"
    units-per-em="1000"
    panose-1="2 11 5 4 3 3 2 9 2 4"
    ascent="776"
    descent="-224"
    x-height="487"
    cap-height="684"
    bbox="-101 -212 1246 886"
    underline-thickness="50"
    underline-position="-100"
    slope="-10"
    unicode-range="U+0020-FB04"
  />
<missing-glyph horiz-adv-x="500" 
d="M30 70v580h440v-580h-440zM80 120h340v480h-340v-480z" />
    <glyph glyph-name="fi" unicode="fi" horiz-adv-x="583" 
d="M453 634q-43 10 -87 10q-37 0 -54 -16t-25 -55l-16 -86h137l-25 -68h-124l-106 -610l-85 -14l110 624h-76l12 68h76l16 88q12 68 53.5 101.5t121.5 33.5q47 0 88 -9zM507 0h-81l85 487h81zM567 569q-22 0 -30 5t-8 19q0 23 9 55q5 18 15 24.5t34 6.5q22 0 30 -5t8 -19
q0 -41 -12 -65q-9 -21 -46 -21z" />
    <glyph glyph-name="fl" unicode="fl" horiz-adv-x="622" 
d="M453 634q-43 10 -87 10q-37 0 -54 -16t-25 -55l-16 -86h137l-25 -68h-124l-106 -610l-85 -14l110 624h-76l12 68h76l16 88q12 68 53.5 101.5t121.5 33.5q47 0 88 -9zM599 64l9 -61q-46 -14 -99 -14q-42 0 -59 15.5t-17 47.5q0 24 8 66l102 578l85 14l-108 -607
q-3 -21 -3 -25q0 -24 29 -24q25 0 53 10z" />
    <glyph glyph-name="f_f" unicode="ff" horiz-adv-x="681" 
d="M774 634q-43 10 -87 10q-37 0 -54 -16t-25 -55l-16 -86h137l-25 -68h-124l-106 -610l-85 -14l110 624h-240l-106 -610l-85 -14l110 624h-76l12 68h76l16 88q12 68 53.5 101.5t121.5 33.5q47 0 88 -9l-16 -67q-43 10 -87 10q-37 0 -54 -16t-25 -55l-16 -86h240l16 88
q12 68 53.5 101.5t121.5 33.5q47 0 88 -9z" />
    <glyph glyph-name="f_f_i" unicode="ffi" horiz-adv-x="904" 
d="M774 634q-43 10 -87 10q-37 0 -54 -16t-25 -55l-16 -86h137l-25 -68h-124l-106 -610l-85 -14l110 624h-240l-106 -610l-85 -14l110 624h-76l12 68h76l16 88q12 68 53.5 101.5t121.5 33.5q47 0 88 -9l-16 -67q-43 10 -87 10q-37 0 -54 -16t-25 -55l-16 -86h240l16 88
q12 68 53.5 101.5t121.5 33.5q47 0 88 -9zM828 0h-81l85 487h81zM888 569q-22 0 -30 5t-8 19q0 23 9 55q5 18 15 24.5t34 6.5q22 0 30 -5t8 -19q0 -41 -12 -65q-9 -21 -46 -21z" />
    <glyph glyph-name="f_f_l" unicode="ffl" horiz-adv-x="943" 
d="M774 634q-43 10 -87 10q-37 0 -54 -16t-25 -55l-16 -86h137l-25 -68h-124l-106 -610l-85 -14l110 624h-240l-106 -610l-85 -14l110 624h-76l12 68h76l16 88q12 68 53.5 101.5t121.5 33.5q47 0 88 -9l-16 -67q-43 10 -87 10q-37 0 -54 -16t-25 -55l-16 -86h240l16 88
q12 68 53.5 101.5t121.5 33.5q47 0 88 -9zM920 64l9 -61q-45 -14 -99 -14q-42 0 -59 15.5t-17 47.5q0 24 8 66l102 578l85 14l-108 -607q-3 -21 -3 -25q0 -24 29 -24q25 0 53 10z" />
    <glyph glyph-name=".notdef" horiz-adv-x="500" 
d="M30 70v580h440v-580h-440zM80 120h340v480h-340v-480z" />
    <glyph glyph-name=".null" horiz-adv-x="0" 
 />
    <glyph glyph-name="nonmarkingreturn" horiz-adv-x="333" 
 />
    <glyph glyph-name="space" unicode=" " horiz-adv-x="240" 
 />
    <glyph glyph-name="exclam" unicode="!" horiz-adv-x="250" 
d="M184 167h-60l23 174l59 353h82l-66 -353zM123 -7q-22 0 -30 5t-8 19q0 23 9 55q5 18 15 24.5t34 6.5q22 0 30 -5t8 -19q0 -41 -12 -65q-9 -21 -46 -21z" />
    <glyph glyph-name="quotedbl" unicode="&#x22;" horiz-adv-x="371" 
d="M369 694h27q11 0 15 -2t4 -10q0 -7 -3 -22l-37 -168q-4 -18 -8 -22.5t-14 -4.5h-23q-8 0 -10.5 2t-2.5 10t1 15l23 168q3 23 7.5 28.5t20.5 5.5zM219 694h27q11 0 15 -2t4 -10q0 -7 -3 -22l-37 -168q-4 -18 -8 -22.5t-14 -4.5h-23q-8 0 -10.5 2t-2.5 10t1 15l23 168
q3 23 7.5 28.5t20.5 5.5z" />
    <glyph glyph-name="numbersign" unicode="#" horiz-adv-x="634" 
d="M589 223h-101l-55 -177h-61l55 177h-181l-55 -177h-61l55 177h-104l20 56h102l56 180h-106l20 56h104l53 169h61l-53 -169h181l53 169h61l-53 -169h101l-20 -56h-99l-56 -180h103zM320 459l-56 -180h181l56 180h-181z" />
    <glyph glyph-name="dollar" unicode="$" horiz-adv-x="568" 
d="M82 28l22 74q74 -33 157 -39l44 250q-82 27 -114 54t-32 81q0 94 42 154q48 70 169 78l18 97h68l-18 -97q90 -7 144 -26l-20 -75q-71 25 -136 30l-43 -241q81 -28 112.5 -55.5t31.5 -79.5q0 -96 -44 -161q-47 -70 -166 -78l-17 -98h-68l17 97q-103 7 -167 35zM237 467
q0 -29 17.5 -45t64.5 -33l39 221q-69 -5 -94 -43q-27 -43 -27 -100zM448 210q0 29 -17 46.5t-61 34.5l-41 -228q72 7 96 51q23 41 23 96z" />
    <glyph glyph-name="percent" unicode="%" horiz-adv-x="870" 
d="M736 686l-418 -697l-58 20l418 697zM352 431q23 86 23 145q0 36 -15 49.5t-53 13.5q-41 0 -62 -16t-33 -60q-23 -86 -23 -145q0 -36 15 -49.5t53 -13.5q41 0 61.5 16.5t33.5 59.5zM441 580q0 -84 -30 -168q-20 -56 -58 -84.5t-106 -28.5t-96 29t-28 86q0 83 30 167
q20 56 58.5 85t105.5 29q68 0 96 -29t28 -86zM777 121q23 86 23 145q0 36 -15 49.5t-53 13.5q-41 0 -62 -16t-33 -60q-23 -86 -23 -145q0 -36 15 -49.5t53 -13.5q41 0 61.5 16.5t33.5 59.5zM866 270q0 -84 -30 -168q-20 -56 -58 -84.5t-106 -28.5t-96 29t-28 86q0 83 30 167
q20 56 58.5 85t105.5 29q68 0 96 -29t28 -86z" />
    <glyph glyph-name="ampersand" unicode="&#x26;" horiz-adv-x="633" 
d="M603 44l-63 -47l-68 87q-64 -49 -114 -71.5t-118 -22.5q-86 0 -127 35.5t-41 98.5q0 87 49 144t133 105q-59 86 -59 142q0 86 56.5 132t143.5 46q68 0 107 -28t39 -82q0 -73 -43.5 -119.5t-143.5 -104.5l138 -175q50 53 89 121l56 -28q-63 -100 -107 -142zM320 407
q30 15 51 28t45.5 33t37 46t12.5 56q0 60 -82 60q-54 0 -85 -28.5t-31 -78.5q0 -45 52 -116zM435 131l-148 192q-32 -20 -50 -33t-41 -35.5t-34 -50.5t-11 -62q0 -39 25 -61.5t71 -22.5q102 0 188 73z" />
    <glyph glyph-name="quotesingle" unicode="'" horiz-adv-x="221" 
d="M219 694h27q11 0 15 -2t4 -10q0 -7 -3 -22l-37 -168q-4 -18 -8 -22.5t-14 -4.5h-23q-8 0 -10.5 2t-2.5 10t1 15l23 168q3 23 7.5 28.5t20.5 5.5z" />
    <glyph glyph-name="parenleft" unicode="(" horiz-adv-x="295" 
d="M254 -137l-67 -40q-80 154 -80 328q0 178 67 337.5t182 289.5l54 -34q-226 -271 -226 -603q0 -134 70 -278z" />
    <glyph glyph-name="parenright" unicode=")" horiz-adv-x="295" 
d="M44 -177l-52 40q224 272 224 602q0 135 -69 279l66 34q79 -155 79 -326q0 -179 -66.5 -339t-181.5 -290z" />
    <glyph glyph-name="asterisk" unicode="*" horiz-adv-x="500" 
d="M299 498l-110 31q-6 1 -13 3.5t-10 2.5q-8 3 -10 6t0 8.5t10 21.5q11 22 14.5 25t14.5 -1q20 -7 23 -8l104 -44l14 120q0 2 4 25q2 13 6.5 15t27.5 2q24 0 27.5 -2t1.5 -15l-6 -25l-28 -120l120 44l25 8q13 4 15.5 1t5.5 -25q4 -22 2.5 -27t-14.5 -9q-3 0 -11 -2.5
t-14 -3.5l-122 -31l60 -93q4 -5 7 -12t4 -8q7 -10 4 -14t-24 -17q-20 -14 -25 -15t-12 9q-1 2 -4 8.5t-5 12.5l-49 101l-82 -101q-4 -5 -9.5 -11.5t-7.5 -9.5q-10 -10 -14.5 -9t-20.5 15q-17 13 -18.5 17t8.5 14l19 20z" />
    <glyph glyph-name="plus" unicode="+" horiz-adv-x="500" 
d="M103 250l11 64h157l28 159h67l-28 -159h157l-11 -64h-157l-28 -159h-67l28 159h-157z" />
    <glyph glyph-name="comma" unicode="," horiz-adv-x="233" 
d="M51 -100l36 71q6 14 6 16q0 5 -8 11t-8 17q0 25 9 57q5 17 15.5 24t33.5 7q21 0 29.5 -5.5t8.5 -19.5q0 -10 -3 -30l-5 -26q-5 -24 -18 -45l-55 -95q-4 -6 -7 -6q-4 0 -18 6q-18 8 -18 11t2 7z" />
    <glyph glyph-name="hyphen" unicode="-" horiz-adv-x="371" 
d="M96 234l12 71h261l-12 -71h-261z" />
    <glyph glyph-name="period" unicode="." horiz-adv-x="233" 
d="M115 -7q-22 0 -30 5t-8 19q0 23 9 55q5 18 15 24.5t34 6.5q22 0 30 -5t8 -19q0 -41 -12 -65q-9 -21 -46 -21z" />
    <glyph glyph-name="slash" unicode="/" horiz-adv-x="447" 
d="M71 -113l-62 28l450 786l63 -29z" />
    <glyph glyph-name="zero" unicode="0" horiz-adv-x="568" 
d="M465 237q43 189 43 280q0 56 -25.5 81t-89.5 25q-80 0 -114.5 -39.5t-55.5 -136.5q-3 -13 -14 -65.5t-15.5 -76.5t-9.5 -65t-5 -74q0 -55 25.5 -80t89.5 -25q80 0 115 39t56 137zM590 521q0 -94 -42 -288q-12 -55 -31 -97t-49.5 -76t-77.5 -51.5t-108 -17.5
q-102 0 -143 44.5t-41 127.5q0 103 42 288q13 57 31 97.5t48 75t76.5 52t110.5 17.5q102 0 143 -44.5t41 -127.5z" />
    <glyph glyph-name="one" unicode="1" horiz-adv-x="568" 
d="M156 0l12 69h112l93 528l-130 -63l-6 70l164 80h69l-108 -615h107l-12 -69h-301z" />
    <glyph glyph-name="two" unicode="2" horiz-adv-x="568" 
d="M89 0l11 65q181 172 248 244q140 153 140 243q0 38 -24.5 55t-81.5 17q-85 0 -175 -40l4 72q89 39 190 39q92 0 132.5 -31.5t40.5 -92.5q0 -74 -37 -137t-131 -163q-68 -72 -205 -201h289l-12 -70h-389z" />
    <glyph glyph-name="three" unicode="3" horiz-adv-x="568" 
d="M87 18l21 73q85 -32 162 -32q62 0 97.5 15t51.5 54q21 54 21 107q0 75 -100 75h-127l13 70h76q69 0 105 15t51 55q19 49 19 104q0 37 -24.5 53.5t-78.5 16.5q-73 0 -164 -31l5 72q94 29 171 29q175 0 175 -122q0 -83 -31 -145q-24 -47 -82 -71q40 -11 58 -35.5t18 -67.5
q0 -93 -39 -161q-57 -103 -226 -103q-94 0 -172 29z" />
    <glyph glyph-name="four" unicode="4" horiz-adv-x="568" 
d="M558 190h-89l-33 -190h-82l33 190h-312l12 69l382 425h87l-75 -426h89zM175 258h224l70 312z" />
    <glyph glyph-name="five" unicode="5" horiz-adv-x="568" 
d="M163 319l77 365h339l-12 -70h-266l-45 -219q74 4 99 4q87 0 127 -32t40 -98q0 -91 -37 -168q-28 -57 -82 -84.5t-144 -27.5q-99 0 -169 28l21 73q78 -30 158 -30q63 0 96.5 16.5t50.5 59.5q22 61 22 118q0 41 -26 57t-91 16q-52 0 -116 -8h-42z" />
    <glyph glyph-name="six" unicode="6" horiz-adv-x="568" 
d="M220 371q95 33 161 33q83 0 120 -31.5t37 -100.5q0 -97 -39 -172q-57 -111 -213 -111q-99 0 -139 40t-40 123q0 72 26 208.5t60 199.5q36 67 95.5 100.5t153.5 33.5q73 0 141 -21l-20 -72q-65 20 -128 20q-69 0 -109 -21t-63 -64q-20 -37 -43 -165zM364 332
q-73 0 -156 -29q-21 -126 -21 -151q0 -48 24.5 -70.5t87.5 -22.5q60 0 91 18t48 61q22 55 22 118q0 41 -22 58.5t-74 17.5z" />
    <glyph glyph-name="seven" unicode="7" horiz-adv-x="568" 
d="M205 614l12 70h394l-9 -54l-385 -630h-84l376 614h-304z" />
    <glyph glyph-name="eight" unicode="8" horiz-adv-x="568" 
d="M282 -11q-105 0 -150.5 34t-45.5 112q0 94 46 150q37 46 110 73q-77 39 -77 122q0 85 44 138q62 76 197 76q92 0 135 -34.5t43 -105.5q0 -34 -14 -72.5t-39 -66.5q-32 -35 -80 -57q48 -21 70 -52.5t22 -83.5q0 -82 -38 -137q-65 -96 -223 -96zM341 326q-100 -21 -137 -68
q-32 -41 -32 -119q0 -46 27.5 -63t94.5 -17q109 0 146 66q20 37 20 95q0 44 -27.5 67t-91.5 39zM394 624q-82 0 -119 -47q-29 -37 -29 -100q0 -38 24.5 -61t80.5 -36q97 22 130 75q21 34 21 93q0 39 -25 57.5t-83 18.5z" />
    <glyph glyph-name="nine" unicode="9" horiz-adv-x="568" 
d="M466 312q-95 -33 -161 -33q-83 0 -120 31.5t-37 100.5q0 97 39 172q57 111 213 111q99 0 139 -40t40 -123q0 -72 -26 -208.5t-60 -199.5q-36 -67 -95.5 -100.5t-153.5 -33.5q-73 0 -141 21l20 72q65 -20 128 -20q69 0 109 21t63 64q20 37 43 165zM322 351q73 0 156 29
q21 126 21 151q0 48 -24.5 70.5t-87.5 22.5q-60 0 -91 -18t-48 -61q-22 -55 -22 -118q0 -41 22 -58.5t74 -17.5z" />
    <glyph glyph-name="colon" unicode=":" horiz-adv-x="233" 
d="M170 310q-22 0 -30 5t-8 19q0 23 9 55q5 18 15 24.5t34 6.5q22 0 30 -5t8 -19q0 -41 -12 -65q-9 -21 -46 -21zM115 -7q-22 0 -30 5t-8 19q0 23 9 55q5 18 15 24.5t34 6.5q22 0 30 -5t8 -19q0 -41 -12 -65q-9 -21 -46 -21z" />
    <glyph glyph-name="semicolon" unicode=";" horiz-adv-x="233" 
d="M170 310q-22 0 -30 5t-8 19q0 23 9 55q5 18 15 24.5t34 6.5q22 0 30 -5t8 -19q0 -41 -12 -65q-9 -21 -46 -21zM51 -100l36 71q6 14 6 16q0 5 -8 11t-8 17q0 25 9 57q5 17 15.5 24t33.5 7q21 0 29.5 -5.5t8.5 -19.5q0 -10 -3 -30l-5 -26q-5 -24 -18 -45l-55 -95
q-4 -6 -7 -6q-4 0 -18 6q-18 8 -18 11t2 7z" />
    <glyph glyph-name="less" unicode="&#x3c;" horiz-adv-x="500" 
d="M102 247l13 72l391 184l18 -60l-347 -163l290 -162l-38 -54z" />
    <glyph glyph-name="equal" unicode="=" horiz-adv-x="500" 
d="M117 334l12 64h381l-12 -64h-381zM88 166l11 64h381l-11 -64h-381z" />
    <glyph glyph-name="greater" unicode="&#x3e;" horiz-adv-x="500" 
d="M496 319l-13 -72l-391 -183l-18 60l346 162l-289 163l38 54z" />
    <glyph glyph-name="question" unicode="?" horiz-adv-x="450" 
d="M242 197l-62 22q21 57 41 88t62 62q6 4 27.5 19t29.5 21.5t21.5 19.5t21.5 26q27 41 27 113q0 35 -22 50t-77 15q-64 0 -147 -25l5 73q94 24 159 24q88 0 127 -28.5t39 -90.5q0 -99 -46 -165q-15 -21 -34 -37.5t-48 -37t-45 -33.5q-27 -22 -42.5 -46t-36.5 -70zM180 -7
q-22 0 -30 5t-8 19q0 23 9 55q5 18 15 24.5t34 6.5q22 0 30 -5t8 -19q0 -41 -12 -65q-9 -21 -46 -21z" />
    <glyph glyph-name="at" unicode="@" horiz-adv-x="877" 
d="M567 143q-51 -49 -130 -49q-58 0 -90.5 33t-32.5 91q0 115 41 188q50 89 150 89q49 0 167 -25l-33 -256q-2 -16 -0.5 -28t12.5 -18.5t33 -6.5q112 0 112 223q0 117 -59 179.5t-197 62.5q-197 0 -279 -129q-65 -103 -65 -268q0 -140 77 -203t235 -63q82 0 177 19l5 -64
q-81 -23 -194 -23q-184 0 -282.5 83t-98.5 254q0 191 87 314q108 149 344 149q331 0 331 -301q0 -303 -207 -303q-46 0 -68 12.5t-35 39.5zM554 205l30 207q-42 15 -83 15q-49 0 -75 -47q-28 -49 -28 -146q0 -36 12.5 -52.5t45.5 -16.5q51 0 98 40z" />
    <glyph glyph-name="A" unicode="A" horiz-adv-x="612" 
d="M591 0h-89l-31 191h-270l-95 -191h-85l355 684h98zM461 259l-53 346l-173 -346h226z" />
    <glyph glyph-name="B" unicode="B" horiz-adv-x="566" 
d="M357 0h-277l120 684h261q131 0 131 -117q0 -73 -24 -124q-29 -63 -90 -84q80 -15 80 -111q0 -72 -32 -144q-46 -104 -169 -104zM455 147q16 52 16 88q0 78 -100 78h-152l-43 -242h175q40 0 65 17t39 59zM490 458q16 40 16 86q0 34 -19 51t-64 17h-152l-40 -229h137
q50 0 78 15t44 60z" />
    <glyph glyph-name="C" unicode="C" horiz-adv-x="529" 
d="M429 621q-80 0 -120 -26t-62 -91q-16 -46 -37 -171t-21 -160q0 -62 32 -86t114 -24q79 0 157 20l-7 -75q-76 -19 -165 -19q-122 0 -169.5 43t-47.5 131q0 57 19.5 171.5t42.5 181.5q32 91 94.5 135t177.5 44q92 0 166 -19l-20 -76q-75 21 -154 21z" />
    <glyph glyph-name="D" unicode="D" horiz-adv-x="607" 
d="M200 684h217q116 0 161.5 -41.5t45.5 -126.5q0 -57 -17.5 -160t-37.5 -173q-26 -92 -88.5 -137.5t-183.5 -45.5h-217zM271 610l-94 -536h134q79 0 118 30t59 97q15 49 32.5 157.5t17.5 145.5q0 56 -29 81t-104 25h-134z" />
    <glyph glyph-name="E" unicode="E" horiz-adv-x="528" 
d="M80 0l120 684h390l-13 -74h-306l-39 -222h274l-13 -74h-274l-42 -240h307l-13 -74h-391z" />
    <glyph glyph-name="F" unicode="F" horiz-adv-x="495" 
d="M164 0h-84l120 684h381l-13 -74h-297l-40 -227h270l-13 -74h-270z" />
    <glyph glyph-name="G" unicode="G" horiz-adv-x="584" 
d="M431 621q-98 0 -138 -36.5t-62 -134.5q-43 -186 -43 -277q0 -59 30 -84.5t108 -25.5q61 0 125 11l32 186h-79l13 74h160l-57 -324q-108 -21 -209 -21q-116 0 -162 45t-46 132q0 43 15 139t33 164q30 116 94 171t195 55q95 0 183 -22l-19 -76q-94 24 -173 24z" />
    <glyph glyph-name="H" unicode="H" horiz-adv-x="627" 
d="M547 0h-84l55 315h-299l-55 -315h-84l120 684h84l-52 -295h299l52 295h84z" />
    <glyph glyph-name="I" unicode="I" horiz-adv-x="252" 
d="M288 684l-120 -684h-84l120 684h84z" />
    <glyph glyph-name="J" unicode="J" horiz-adv-x="279" 
d="M239 684h84l-92 -524q-8 -45 -22.5 -74t-40.5 -46.5t-53 -27.5t-72 -23l-12 -3l-9 68q74 21 95 38.5t29 65.5z" />
    <glyph glyph-name="K" unicode="K" horiz-adv-x="587" 
d="M661 684l-338 -343l234 -341h-99l-234 344l-60 -344h-84l120 684h84l-59 -338l325 338h111z" />
    <glyph glyph-name="L" unicode="L" horiz-adv-x="483" 
d="M284 684l-107 -610h286l-13 -74h-370l120 684h84z" />
    <glyph glyph-name="M" unicode="M" horiz-adv-x="756" 
d="M678 0h-84l73 525l-229 -418h-85l-81 418l-111 -525h-83l147 684h91l98 -478l266 478h91z" />
    <glyph glyph-name="N" unicode="N" horiz-adv-x="647" 
d="M469 0l-211 549l-96 -549h-82l120 684h97l209 -555l98 555h82l-120 -684h-97z" />
    <glyph glyph-name="O" unicode="O" horiz-adv-x="634" 
d="M516 212q17 64 32 155.5t15 136.5q0 61 -30 89t-107 28q-85 0 -125.5 -34.5t-61.5 -112.5q-17 -60 -32.5 -155.5t-15.5 -138.5q0 -61 30 -89t107 -28q86 0 126.5 35t61.5 114zM647 509q0 -57 -15 -153.5t-38 -166.5q-32 -100 -96.5 -150t-182.5 -50q-115 0 -162 46
t-47 139q0 50 15 147t36 167q32 104 96.5 155.5t185.5 51.5q115 0 161.5 -46t46.5 -140z" />
    <glyph glyph-name="P" unicode="P" horiz-adv-x="557" 
d="M80 0l120 684h245q89 0 124.5 -29.5t35.5 -93.5q0 -39 -11 -102t-31 -106q-24 -52 -69 -76.5t-123 -24.5h-163l-44 -252h-84zM493 396q25 70 25 141q0 43 -21.5 58t-75.5 15h-150l-50 -284h150q54 0 81.5 16.5t40.5 53.5z" />
    <glyph glyph-name="Q" unicode="Q" horiz-adv-x="634" 
d="M647 509q0 -57 -15 -153.5t-38 -166.5q-27 -85 -76.5 -133.5t-134.5 -61.5q0 -29 9.5 -42t42.5 -13q24 0 54 7l2 -69q-47 -10 -79 -10q-57 0 -82 18.5t-25 67.5q0 17 3 36q-111 1 -156.5 47t-45.5 138q0 50 15 147t36 167q32 104 96.5 155.5t185.5 51.5q115 0 161.5 -46
t46.5 -140zM516 212q17 64 32 155.5t15 136.5q0 61 -30 89t-107 28q-85 0 -125.5 -34.5t-61.5 -112.5q-17 -60 -32.5 -155.5t-15.5 -138.5q0 -61 30 -89t107 -28q86 0 126.5 35t61.5 114z" />
    <glyph glyph-name="R" unicode="R" horiz-adv-x="598" 
d="M474 0l-117 266h-147l-46 -266h-84l120 684h255q82 0 115.5 -32t33.5 -94q0 -116 -46 -204q-35 -64 -108 -81l119 -273h-95zM491 402q26 63 26 139q0 41 -19.5 55t-64.5 14h-162l-48 -270h160q44 0 69 14t39 48z" />
    <glyph glyph-name="S" unicode="S" horiz-adv-x="533" 
d="M516 242q0 -92 -43 -160q-59 -94 -226 -94q-98 0 -186 27l23 79q84 -31 178 -31q114 0 146 64q18 33 18 88q0 44 -28 62t-110 40q-78 21 -112.5 48t-34.5 84q0 91 48 161q60 85 214 85q88 0 175 -20l-21 -79q-82 25 -166 25q-112 0 -141 -60q-18 -36 -18 -84
q0 -41 27 -58t108 -40q83 -24 116 -51.5t33 -85.5z" />
    <glyph glyph-name="T" unicode="T" horiz-adv-x="524" 
d="M220 0l107 610h-197l13 74h478l-13 -74h-198l-107 -610h-83z" />
    <glyph glyph-name="U" unicode="U" horiz-adv-x="630" 
d="M676 684l-80 -457q-42 -238 -283 -238q-205 0 -205 174q0 31 6 64l80 457h84l-82 -465q-5 -28 -5 -46q0 -110 135 -110q82 0 126 39t58 117l82 465h84z" />
    <glyph glyph-name="V" unicode="V" horiz-adv-x="595" 
d="M218 684l92 -597l305 597h88l-358 -684h-98l-116 684h87z" />
    <glyph glyph-name="W" unicode="W" horiz-adv-x="856" 
d="M558 0l-33 552l-230 -552h-107l-43 684h84l31 -585l243 585h90l35 -587l235 587h88l-285 -684h-108z" />
    <glyph glyph-name="X" unicode="X" horiz-adv-x="575" 
d="M24 0l276 344l-150 340h93l118 -267l210 267h93l-267 -338l153 -346h-95l-122 272l-214 -272h-95z" />
    <glyph glyph-name="Y" unicode="Y" horiz-adv-x="547" 
d="M219 684l112 -355l237 355h92l-303 -445l-42 -239h-83l42 239l-147 445h92z" />
    <glyph glyph-name="Z" unicode="Z" horiz-adv-x="565" 
d="M611 614l-446 -540h355l-13 -74h-453l11 68l447 542h-344l13 74h442z" />
    <glyph glyph-name="bracketleft" unicode="[" horiz-adv-x="290" 
d="M249 -163h-193l168 955h193l-12 -67h-115l-144 -821h115z" />
    <glyph glyph-name="backslash" unicode="\" horiz-adv-x="447" 
d="M408 -89l-72 -24l-175 790l73 24z" />
    <glyph glyph-name="bracketright" unicode="]" horiz-adv-x="290" 
d="M176 -163h-192l12 67h114l144 821h-115l12 67h193z" />
    <glyph glyph-name="asciicircum" unicode="^" horiz-adv-x="500" 
d="M359 627l-161 -212l-61 30l200 255h70l111 -255l-72 -30z" />
    <glyph glyph-name="underscore" unicode="_" horiz-adv-x="500" 
d="M480 -132h-507l10 54h507z" />
    <glyph glyph-name="grave" unicode="`" horiz-adv-x="333" 
d="M349 603l-24 -58l-165 81l17 77z" />
    <glyph glyph-name="a" unicode="a" 
d="M216 -11q-72 0 -102 30.5t-30 96.5q0 105 33 215q26 88 78 127.5t158 39.5q85 0 176 -15l-86 -483h-73l-1 38q-76 -49 -153 -49zM380 108l56 314q-50 10 -100 10q-62 0 -92.5 -27.5t-45.5 -84.5q-29 -112 -29 -186q0 -41 16 -59t57 -18q61 0 138 51z" />
    <glyph glyph-name="b" unicode="b" horiz-adv-x="515" 
d="M518 373q0 -103 -34 -216q-26 -86 -77 -127t-152 -41q-91 0 -181 15l122 692l85 14l-43 -243q79 31 154 31q68 0 97 -29.5t29 -95.5zM225 396l-58 -331q60 -10 99 -10q62 0 93 32t47 93q27 106 27 176q0 38 -15.5 55.5t-52.5 17.5q-60 0 -140 -33z" />
    <glyph glyph-name="c" unicode="c" horiz-adv-x="428" 
d="M196 321q-30 -105 -30 -181q0 -45 22.5 -62.5t79.5 -17.5q47 0 119 14l-5 -72q-65 -13 -129 -13q-95 0 -133 35t-38 108q0 91 32 200q26 86 77.5 126t150.5 40q72 0 126 -11l-20 -74q-61 14 -118 14q-56 0 -85.5 -20.5t-48.5 -85.5z" />
    <glyph glyph-name="d" unicode="d" horiz-adv-x="521" 
d="M376 47q-76 -58 -161 -58q-75 0 -105 26t-30 92q0 92 35 225q24 91 69.5 128t141.5 37q65 0 123 -14l37 213l85 14l-125 -710h-70v47zM384 117l52 295q-70 19 -131 19q-48 0 -71.5 -25.5t-37.5 -84.5q-30 -129 -30 -191q0 -39 16 -57t55 -18q36 0 77 18.5t70 43.5z" />
    <glyph glyph-name="e" unicode="e" horiz-adv-x="470" 
d="M291 197q-58 0 -118 10q-9 -50 -9 -70q0 -46 24.5 -63t81.5 -17q82 0 165 25l-7 -69q-85 -24 -180 -24q-92 0 -129 34t-37 106q0 98 32 202q25 82 77 124.5t147 42.5q86 0 121 -33.5t35 -99.5q0 -168 -203 -168zM184 275q52 -10 107 -10q124 0 124 92q0 37 -21 55t-68 18
q-55 0 -85.5 -25t-46.5 -84q-4 -15 -10 -46z" />
    <glyph glyph-name="f" unicode="f" horiz-adv-x="360" 
d="M453 634q-43 10 -87 10q-37 0 -54 -16t-25 -55l-16 -86h137l-25 -68h-124l-106 -610l-85 -14l110 624h-76l12 68h76l16 88q12 68 53.5 101.5t121.5 33.5q47 0 88 -9z" />
    <glyph glyph-name="g" unicode="g" 
d="M529 483l-96 -544q-13 -74 -65.5 -109t-160.5 -35q-104 0 -174 22l17 69q78 -24 168 -24q65 0 95 19t37 56l16 87q-75 -29 -152 -29q-72 0 -101.5 29.5t-29.5 91.5q0 104 35 215q27 89 80.5 128t154.5 39q85 0 176 -15zM378 95l58 327q-60 10 -100 10q-59 0 -89 -25.5
t-48 -85.5q-29 -108 -29 -179q0 -42 16 -60t55 -18q64 0 137 31z" />
    <glyph glyph-name="h" unicode="h" horiz-adv-x="521" 
d="M450 0h-82l65 374q1 5 1 15q0 37 -43 37q-29 0 -78.5 -16.5t-91.5 -38.5l-65 -371h-82l122 696l85 14l-48 -268q108 56 188 56q99 0 99 -83q0 -17 -3 -33z" />
    <glyph glyph-name="i" unicode="i" horiz-adv-x="233" 
d="M157 0h-81l85 487h81zM217 569q-22 0 -30 5t-8 19q0 23 9 55q5 18 15 24.5t34 6.5q22 0 30 -5t8 -19q0 -41 -12 -65q-9 -21 -46 -21z" />
    <glyph glyph-name="j" unicode="j" horiz-adv-x="233" 
d="M161 487h81l-92 -523q-6 -35 -18 -60t-23.5 -39.5t-38 -28t-43.5 -19t-57 -17.5q-7 -2 -10 -3l-10 65q70 20 90.5 37t28.5 63zM217 569q-22 0 -30 5t-8 19q0 23 9 55q5 18 15 24.5t34 6.5q22 0 30 -5t8 -19q0 -41 -12 -65q-9 -21 -46 -21z" />
    <glyph glyph-name="k" unicode="k" horiz-adv-x="483" 
d="M156 0h-82l122 696l85 14l-79 -444l235 221h107l-248 -227l172 -260h-101l-165 263z" />
    <glyph glyph-name="l" unicode="l" horiz-adv-x="272" 
d="M249 64l9 -61q-46 -14 -99 -14q-42 0 -59 15.5t-17 47.5q0 24 8 66l102 578l85 14l-108 -607q-3 -21 -3 -25q0 -24 29 -24q25 0 53 10z" />
    <glyph glyph-name="m" unicode="m" horiz-adv-x="783" 
d="M712 0h-82l66 375q1 6 1 17q0 35 -37 35q-61 0 -161 -58l-65 -369h-82l66 375q1 6 1 17q0 35 -37 35q-25 0 -72.5 -17t-88.5 -41l-65 -369h-82l85 487h72l2 -48q106 59 186 59q76 0 84 -62q118 62 194 62q85 0 85 -81q0 -21 -4 -41z" />
    <glyph glyph-name="n" unicode="n" horiz-adv-x="521" 
d="M450 0h-82l65 374q1 5 1 15q0 37 -43 37q-29 0 -78.5 -16.5t-91.5 -38.5l-65 -371h-82l85 487h73v-45q108 56 189 56q99 0 99 -83q0 -17 -3 -33z" />
    <glyph glyph-name="o" unicode="o" 
d="M334 427q-61 0 -90.5 -22.5t-46.5 -80.5q-29 -108 -29 -181q0 -47 22.5 -65.5t78.5 -18.5q66 0 95.5 26t45.5 97q24 102 24 162q0 46 -22 64.5t-78 18.5zM256 -12q-94 0 -132.5 37.5t-38.5 113.5q0 96 33 197q26 81 78.5 121.5t149.5 40.5q94 0 132.5 -37.5t38.5 -113.5
q0 -87 -31 -190q-26 -85 -78.5 -127t-151.5 -42z" />
    <glyph glyph-name="p" unicode="p" horiz-adv-x="524" 
d="M390 498q74 0 103.5 -32.5t29.5 -94.5q0 -97 -34 -214q-23 -80 -68.5 -124t-132.5 -44q-62 0 -132 15l-34 -195l-85 -14l122 692h71l-1 -47q76 58 161 58zM221 370l-52 -295q70 -19 126 -19q49 0 75 29t42 97q25 113 25 171q0 39 -16 59t-53 20q-36 0 -77 -18.5
t-70 -43.5z" />
    <glyph glyph-name="q" unicode="q" 
d="M216 -11q-72 0 -102 30.5t-30 96.5q0 103 34 216q26 88 77.5 127t157.5 39q85 0 176 -15l-119 -674l-85 -14l39 222q-71 -28 -148 -28zM377 88l59 334q-50 10 -100 10q-62 0 -92.5 -27.5t-45.5 -85.5q-29 -112 -29 -185q0 -40 17 -57.5t59 -17.5q56 0 132 29z" />
    <glyph glyph-name="r" unicode="r" horiz-adv-x="332" 
d="M403 499l-14 -81q-87 -13 -170 -65l-62 -353h-82l85 487h74l-3 -59q77 53 172 71z" />
    <glyph glyph-name="s" unicode="s" horiz-adv-x="435" 
d="M417 188q0 -27 -8.5 -67t-25.5 -65q-46 -67 -177 -67q-89 0 -150 21l23 69q70 -21 143 -21q42 0 64 7t33 29q15 27 15 66q0 19 -16.5 28.5t-69.5 22.5q-78 20 -106 41.5t-28 60.5q0 60 23 106q40 79 178 79q82 0 143 -14l-22 -70q-80 16 -142 16q-39 0 -58.5 -8
t-27.5 -26q-11 -25 -11 -56q0 -18 13.5 -27.5t54.5 -20.5q91 -24 121.5 -45t30.5 -59z" />
    <glyph glyph-name="t" unicode="t" horiz-adv-x="362" 
d="M326 6q-61 -16 -116 -16q-53 0 -74.5 18t-21.5 58q0 23 6 53l53 300h-77l12 68h77l22 123l85 14l-25 -137h136l-25 -68h-123l-52 -298q-4 -26 -4 -32q0 -17 9 -23.5t33 -6.5q40 0 91 16z" />
    <glyph glyph-name="u" unicode="u" horiz-adv-x="521" 
d="M155 487h82l-66 -374q-1 -5 -1 -14q0 -38 43 -38q65 0 171 55l65 371h82l-85 -487h-73v45q-106 -56 -189 -56q-99 0 -99 84q0 15 3 32z" />
    <glyph glyph-name="v" unicode="v" horiz-adv-x="454" 
d="M528 487l-258 -487h-95l-80 487h90l54 -398l201 398h88z" />
    <glyph glyph-name="w" unicode="w" horiz-adv-x="693" 
d="M235 0h-93l-38 487h80l25 -396l162 309h91l54 -309l157 396h86l-208 -487h-93l-54 325z" />
    <glyph glyph-name="x" unicode="x" horiz-adv-x="462" 
d="M109 0h-94l212 245l-120 242h94l83 -180l146 180h94l-206 -240l128 -247h-94l-90 185z" />
    <glyph glyph-name="y" unicode="y" horiz-adv-x="455" 
d="M444 487h88l-370 -685h-82l110 195l-95 490h90l66 -374z" />
    <glyph glyph-name="z" unicode="z" horiz-adv-x="452" 
d="M135 420l11 67h334l-11 -64l-314 -356h259l-11 -67h-354l10 60l317 360h-241z" />
    <glyph glyph-name="braceleft" unicode="{" horiz-adv-x="309" 
d="M70 250l12 68q21 2 31.5 4.5t23.5 11t20.5 26.5t12.5 47l37 208q15 86 67 119t144 36l-12 -70q-24 -1 -39 -3.5t-34.5 -10.5t-31.5 -26t-17 -46l-32 -179q-6 -32 -10.5 -50t-14 -43t-24.5 -39t-36 -19q41 -10 41 -72q0 -32 -9 -79l-32 -179q-2 -16 -2 -21q0 -21 8 -34.5
t23.5 -19.5t28.5 -8t34 -3l-12 -70q-80 2 -120.5 26.5t-40.5 87.5q0 21 4 41l37 208q4 28 4 36q0 22 -8.5 33.5t-19.5 14.5t-33 5z" />
    <glyph glyph-name="bar" unicode="|" horiz-adv-x="247" 
d="M284 722l-164 -928h-67l164 928h67z" />
    <glyph glyph-name="braceright" unicode="}" horiz-adv-x="309" 
d="M339 318l-12 -68q-21 -2 -32 -4.5t-24 -11t-20.5 -26.5t-12.5 -47l-37 -208q-15 -86 -66 -119t-144 -36l11 70q24 1 39.5 3.5t34.5 10.5t31 26t17 46l32 179q5 31 10 50t14.5 43.5t25 38.5t36.5 19q-42 10 -42 72q0 32 9 79l32 179q2 16 2 22q0 27 -15.5 41.5t-32.5 18
t-46 4.5l12 70q80 -3 120.5 -27t40.5 -86q0 -22 -4 -42l-37 -208q-4 -20 -4 -36q0 -22 8.5 -33.5t20 -14.5t33.5 -5z" />
    <glyph glyph-name="asciitilde" unicode="~" horiz-adv-x="500" 
d="M507 366l9 -60q-63 -76 -138 -76q-39 0 -87 31.5t-74 31.5q-59 0 -121 -69l-10 60q66 80 145 80q42 0 89.5 -31.5t74.5 -31.5q58 0 112 65z" />
    <glyph glyph-name="uni00A0" unicode="&#xa0;" horiz-adv-x="240" 
 />
    <glyph glyph-name="exclamdown" unicode="&#xa1;" horiz-adv-x="250" 
d="M152 326h60l-23 -174l-59 -353h-82l66 353zM213 500q22 0 30 -5t8 -19q0 -23 -9 -55q-5 -18 -15 -24.5t-34 -6.5q-22 0 -30 5t-8 19q0 41 12 65q9 21 46 21z" />
    <glyph glyph-name="cent" unicode="&#xa2;" horiz-adv-x="437" 
d="M223 -12l18 100q-78 5 -110 39.5t-32 102.5q0 91 32 200q23 79 69 119t131 46l17 101h66l-17 -101q39 -1 88 -10l-20 -74q-45 9 -81 12l-65 -364q30 2 85 13l-5 -72q-43 -9 -92 -12l-18 -100h-66zM213 419q-30 -105 -30 -181q0 -39 15.5 -57t54.5 -22l65 365
q-40 -4 -64.5 -26.5t-40.5 -78.5z" />
    <glyph glyph-name="sterling" unicode="&#xa3;" horiz-adv-x="568" 
d="M123 311l12 66h74q-14 44 -14 88q0 102 58.5 161t181.5 59q88 0 160 -28l-21 -73q-68 29 -150 29q-77 0 -111 -33.5t-34 -109.5q0 -37 15 -93h194l-24 -66h-164q1 -5 1 -17q0 -100 -93 -226h298l-8 -68h-338q-28 0 -81 -5l8 65l60 22q75 98 75 200q0 11 -2 29h-97z" />
    <glyph glyph-name="currency" unicode="&#xa4;" horiz-adv-x="568" 
d="M563 121l-39 -41l-62 66q-59 -44 -123 -44q-69 0 -124 44l-61 -66l-39 41l60 66q-42 59 -42 133q0 73 42 134l-60 66l38 42l61 -67q55 44 125 44t123 -44l62 67l39 -41l-60 -67q41 -60 41 -134q0 -75 -43 -132zM480 320q0 65 -41.5 110t-99.5 45t-99.5 -45t-41.5 -110
t41.5 -110t99.5 -45q59 0 100 45t41 110z" />
    <glyph glyph-name="yen" unicode="&#xa5;" horiz-adv-x="568" 
d="M131 316l11 63h101l-101 305h87l112 -352l237 352h87l-209 -305h101l-11 -63h-133l-46 -70l-5 -28h167l-11 -62h-167l-27 -156h-81l27 156h-167l11 62h167l5 28l-22 70h-133z" />
    <glyph glyph-name="brokenbar" unicode="&#xa6;" horiz-adv-x="247" 
d="M284 723l-68 -383h-67l68 383h67zM121 -201h-67l68 383h67z" />
    <glyph glyph-name="section" unicode="&#xa7;" horiz-adv-x="537" 
d="M518 266q0 -85 -115 -157q62 -40 62 -102q0 -38 -13.5 -73t-41.5 -66t-77.5 -50t-113.5 -19q-95 0 -172 32l21 74q72 -34 162 -34q151 0 151 115q0 18 -8.5 33t-28.5 28.5t-35 21.5t-45 22q-40 18 -58 27.5t-46.5 29t-40.5 42t-12 51.5q0 96 113 158q-54 38 -54 97
q0 85 61 141.5t180 56.5q89 0 159 -28l-21 -73q-63 29 -151 29q-65 0 -104.5 -27.5t-39.5 -80.5q0 -18 8.5 -33t29 -28t36 -21t45.5 -22q28 -13 44 -20.5t39 -21.5t35 -27.5t21.5 -33t9.5 -41.5zM437 245q0 16 -8 30.5t-18 24.5t-30.5 21.5t-33 17.5t-39 17t-35.5 15
q-86 -50 -86 -109q0 -35 27.5 -57t82.5 -45q10 -5 52 -22q88 52 88 107z" />
    <glyph glyph-name="dieresis" unicode="&#xa8;" horiz-adv-x="333" 
d="M318 593q0 26 8 53q5 15 15 21t33 6q22 0 30 -5t8 -19q0 -29 -11 -60q-8 -20 -45 -20q-22 0 -30 5t-8 19zM139 593q0 26 8 53q5 15 15 21t33 6q22 0 30 -5t8 -19q0 -29 -11 -60q-8 -20 -45 -20q-22 0 -30 5t-8 19z" />
    <glyph glyph-name="copyright" unicode="&#xa9;" horiz-adv-x="814" 
d="M438 146q-71 0 -101 24t-30 84q0 71 26 162q19 64 56 92t113 28q57 0 111 -13l-16 -58q-51 14 -101 14q-51 0 -71 -15t-31 -63q-23 -96 -23 -147q0 -31 16.5 -41.5t61.5 -10.5q47 0 105 14l-5 -57q-50 -13 -111 -13zM107 264q0 115 47 212t142 158t222 61
q154 0 231 -73.5t77 -205.5q0 -183 -114.5 -305t-295.5 -122q-154 0 -231.5 73t-77.5 202zM518 635q-161 0 -253.5 -103.5t-92.5 -266.5q0 -101 59 -158.5t184 -57.5q165 0 255.5 104.5t90.5 263.5q0 101 -59 159.5t-184 58.5z" />
    <glyph glyph-name="ordfeminine" unicode="&#xaa;" horiz-adv-x="364" 
d="M219 384q-48 0 -68 20t-20 62q0 73 24 142q18 51 52 73.5t101 22.5q56 0 118 -9l-54 -304h-56l-1 18q-43 -25 -96 -25zM321 458l34 191q-22 5 -58 5q-37 0 -55 -15t-28 -47q-18 -63 -18 -112q0 -24 10.5 -34t35.5 -10q30 0 79 22z" />
    <glyph glyph-name="guillemotleft" unicode="&#xab;" horiz-adv-x="493" 
d="M76 210l12 68l187 180l45 -52l-173 -168l109 -161l-56 -47zM285 210l12 68l187 180l45 -52l-173 -168l109 -161l-56 -47z" />
    <glyph glyph-name="logicalnot" unicode="&#xac;" horiz-adv-x="516" 
d="M110 293l11 64h381l-41 -235h-67l30 171h-314z" />
    <glyph glyph-name="uni00AD" unicode="&#xad;" horiz-adv-x="371" 
d="M96 234l12 71h261l-12 -71h-261z" />
    <glyph glyph-name="registered" unicode="&#xae;" horiz-adv-x="651" 
d="M124 371q0 140 84.5 237t231.5 97q238 0 238 -211q0 -146 -86 -239.5t-228 -93.5q-240 0 -240 210zM440 650q-125 0 -191 -76.5t-66 -202.5q0 -155 181 -155q129 0 192.5 77.5t63.5 201.5q0 155 -180 155zM446 290l-51 107h-50l-19 -107h-51l51 290h122q38 0 53.5 -15
t15.5 -45q0 -44 -15 -73q-16 -34 -50 -45l53 -112h-59zM456 467q7 21 7 42q0 15 -9 21.5t-31 6.5h-54l-17 -97h64q31 0 40 27z" />
    <glyph glyph-name="macron" unicode="&#xaf;" horiz-adv-x="333" 
d="M143 581l11 60h251l-11 -60h-251z" />
    <glyph glyph-name="degree" unicode="&#xb0;" horiz-adv-x="341" 
d="M257 448q-50 0 -79 29t-29 78q0 50 42 90.5t93 40.5q48 0 76.5 -29t28.5 -76q0 -51 -41.5 -92t-90.5 -41zM283 641q-34 0 -61 -26t-27 -61q0 -26 17 -43.5t44 -17.5q34 0 60.5 26.5t26.5 61.5q0 26 -17 43t-43 17z" />
    <glyph glyph-name="plusminus" unicode="&#xb1;" horiz-adv-x="500" 
d="M59 0l11 64h381l-11 -64h-381zM109 289l11 64h157l28 159h67l-28 -159h157l-11 -64h-157l-28 -159h-67l28 159h-157z" />
    <glyph glyph-name="two.superior" unicode="&#xb2;" horiz-adv-x="387" 
d="M101 239l9 52q132 120 165 154q87 89 87 145q0 23 -15.5 33.5t-50.5 10.5q-58 0 -120 -26l3 56q61 27 132 27q121 0 121 -83q0 -46 -26 -89.5t-84 -102.5q-47 -47 -130 -122h187l-9 -55h-269z" />
    <glyph glyph-name="three.superior" unicode="&#xb3;" horiz-adv-x="387" 
d="M98 252l17 57q56 -22 111 -22q68 0 88 32q18 27 18 71q0 45 -65 45h-87l10 56h56q42 0 64.5 8.5t32.5 30.5q12 27 12 64q0 41 -66 41q-47 0 -112 -21l4 56q62 20 119 20q124 0 124 -82q0 -47 -22 -93q-16 -29 -51 -44q49 -16 49 -68q0 -69 -33 -114q-42 -57 -150 -57
q-64 0 -119 20z" />
    <glyph glyph-name="acute" unicode="&#xb4;" horiz-adv-x="333" 
d="M200 545l-4 58l206 100l-9 -77z" />
    <glyph glyph-name="micro" unicode="&#xb5;" horiz-adv-x="521" 
d="M33 -205l122 692h82l-66 -374q-1 -5 -1 -14q0 -38 43 -38q30 0 79.5 16.5t92.5 38.5l65 371h81l-85 -487h-73v45q-106 -56 -189 -56q-16 0 -34 4l-32 -184z" />
    <glyph glyph-name="paragraph" unicode="&#xb6;" horiz-adv-x="574" 
d="M586 624l-144 -813l-70 -13l146 826h-106l-144 -813l-70 -13l87 495q-80 0 -129 45.5t-49 114.5q0 109 75 170t188 61h297l-19 -60h-62z" />
    <glyph glyph-name="periodcentered" unicode="&#xb7;" horiz-adv-x="233" 
d="M156 229q-22 0 -30 5t-8 19q0 23 9 55q5 18 15 24.5t34 6.5q22 0 30 -5t8 -19q0 -41 -12 -65q-9 -21 -46 -21z" />
    <glyph glyph-name="cedilla" unicode="&#xb8;" horiz-adv-x="333" 
d="M183 -140l6 35q1 10 -8 13t-28 3q-7 0 -19 -2l-26 13l33 80h48l-21 -49q87 0 87 -46q0 -7 -1 -11l-7 -41q-10 -57 -110 -57q-43 0 -80 8l17 45q31 -7 60 -7q46 0 49 16z" />
    <glyph glyph-name="one.superior" unicode="&#xb9;" horiz-adv-x="387" 
d="M143 239l9 55h77l57 319l-87 -40l-5 57l115 54h54l-69 -390h74l-9 -55h-216z" />
    <glyph glyph-name="ordmasculine" unicode="&#xba;" horiz-adv-x="405" 
d="M361 504q15 58 15 98q0 28 -13 39t-47 11q-37 0 -54 -13.5t-27 -48.5q-16 -73 -16 -103q0 -27 13 -38t47 -11q38 0 55 14.5t27 51.5zM440 604q0 -66 -24 -124q-37 -95 -147 -95q-61 0 -87 25.5t-26 74.5q0 64 20 118q35 102 150 102q62 0 88 -25.5t26 -75.5z" />
    <glyph glyph-name="guillemotright" unicode="&#xbb;" horiz-adv-x="493" 
d="M294 278l-12 -68l-187 -180l-45 52l173 168l-109 161l56 47zM503 278l-12 -68l-187 -180l-45 52l173 168l-109 161l56 47z" />
    <glyph glyph-name="onequarter" unicode="&#xbc;" horiz-adv-x="925" 
d="M143 239l9 55h77l57 319l-87 -40l-5 57l115 54h54l-69 -390h74l-9 -55h-216zM771 686l-418 -697l-57 20l417 697zM918 115h-60l-20 -115h-66l20 115h-211l10 55l254 275h71l-48 -275h60zM662 170h140l32 186z" />
    <glyph glyph-name="onehalf" unicode="&#xbd;" horiz-adv-x="924" 
d="M143 239l9 55h77l57 319l-87 -40l-5 57l115 54h54l-69 -390h74l-9 -55h-216zM761 686l-418 -697l-57 20l417 697zM595 0l9 52q132 120 165 154q87 89 87 145q0 23 -15.5 33.5t-50.5 10.5q-58 0 -120 -26l3 56q61 27 132 27q121 0 121 -83q0 -46 -26 -89.5t-84 -102.5
q-47 -47 -130 -122h187l-9 -55h-269z" />
    <glyph glyph-name="threequarters" unicode="&#xbe;" horiz-adv-x="925" 
d="M98 252l17 57q56 -22 111 -22q68 0 88 32q18 27 18 71q0 45 -65 45h-87l10 56h56q42 0 64.5 8.5t32.5 30.5q12 27 12 64q0 41 -66 41q-47 0 -112 -21l4 56q62 20 119 20q124 0 124 -82q0 -47 -22 -93q-16 -29 -51 -44q49 -16 49 -68q0 -69 -33 -114q-42 -57 -150 -57
q-64 0 -119 20zM771 686l-418 -697l-57 20l417 697zM918 115h-60l-20 -115h-66l20 115h-211l10 55l254 275h71l-48 -275h60zM662 170h140l32 186z" />
    <glyph glyph-name="questiondown" unicode="&#xbf;" horiz-adv-x="450" 
d="M294 296l62 -22q-21 -57 -41 -88t-62 -62q-6 -4 -27.5 -19t-29.5 -21.5t-21.5 -19.5t-21.5 -26q-27 -41 -27 -113q0 -35 22 -50t77 -15q64 0 147 25l-5 -73q-94 -24 -159 -24q-88 0 -127 28.5t-39 90.5q0 99 46 165q15 21 34 37.5t48 37t45 33.5q27 22 42.5 46t36.5 70z
M356 500q22 0 30 -5t8 -19q0 -23 -9 -55q-5 -18 -15 -24.5t-34 -6.5q-22 0 -30 5t-8 19q0 41 12 65q9 21 46 21z" />
    <glyph glyph-name="Agrave" unicode="&#xc0;" horiz-adv-x="612" 
d="M591 0h-89l-31 191h-270l-95 -191h-85l355 684h98zM461 259l-53 346l-173 -346h226zM520 786l-24 -58l-165 81l17 77z" />
    <glyph glyph-name="Aacute" unicode="&#xc1;" horiz-adv-x="612" 
d="M591 0h-89l-31 191h-270l-95 -191h-85l355 684h98zM461 259l-53 346l-173 -346h226zM371 728l-4 58l206 100l-9 -77z" />
    <glyph glyph-name="Acircumflex" unicode="&#xc2;" horiz-adv-x="612" 
d="M591 0h-89l-31 191h-270l-95 -191h-85l355 684h98zM461 259l-53 346l-173 -346h226zM443 800l-141 -71l-11 57l166 91l139 -92l-37 -55z" />
    <glyph glyph-name="Atilde" unicode="&#xc3;" horiz-adv-x="612" 
d="M591 0h-89l-31 191h-270l-95 -191h-85l355 684h98zM461 259l-53 346l-173 -346h226zM495 750q-23 1 -59.5 16t-54.5 15q-39 0 -72 -28l-2 59q39 34 89 34q29 0 64.5 -15.5t50.5 -15.5q38 0 72 28l1 -59q-37 -34 -89 -34z" />
    <glyph glyph-name="Adieresis" unicode="&#xc4;" horiz-adv-x="612" 
d="M591 0h-89l-31 191h-270l-95 -191h-85l355 684h98zM461 259l-53 346l-173 -346h226zM489 776q0 26 8 53q5 15 15 21t33 6q22 0 30 -5t8 -19q0 -29 -11 -60q-8 -20 -45 -20q-22 0 -30 5t-8 19zM310 776q0 26 8 53q5 15 15 21t33 6q22 0 30 -5t8 -19q0 -29 -11 -60
q-8 -20 -45 -20q-22 0 -30 5t-8 19z" />
    <glyph glyph-name="Aring" unicode="&#xc5;" horiz-adv-x="612" 
d="M591 0h-89l-31 191h-270l-95 -191h-85l355 684h98zM461 259l-53 346l-173 -346h226zM435 726q-31 0 -50.5 17.5t-19.5 45.5q0 40 26.5 65.5t66.5 25.5q31 0 50 -17.5t19 -45.5q0 -41 -26 -66t-66 -25zM454 843q-22 0 -35 -14t-13 -37q0 -29 34 -29q20 0 33.5 13.5
t13.5 35.5q0 31 -33 31z" />
    <glyph glyph-name="AE" unicode="&#xc6;" horiz-adv-x="860" 
d="M485 0l-2 191h-259l-117 -191h-86l422 684h480l-13 -74h-347l2 -217h274l-13 -74h-260l1 -245h249l-13 -74h-318zM480 619l-213 -360h216z" />
    <glyph glyph-name="Ccedilla" unicode="&#xc7;" horiz-adv-x="529" 
d="M315 -140l6 35q1 10 -8 13t-28 3q-7 0 -19 -2l-26 13l28 70q-92 9 -128.5 51t-36.5 120q0 57 19.5 171.5t42.5 181.5q32 91 94.5 135t177.5 44q92 0 166 -19l-20 -76q-75 21 -154 21q-80 0 -120 -26t-62 -91q-16 -46 -37 -171t-21 -160q0 -62 32 -86t114 -24q79 0 157 20
l-7 -75q-76 -19 -165 -19h-5l-15 -36q87 0 87 -46q0 -7 -1 -11l-7 -41q-10 -57 -110 -57q-43 0 -80 8l17 45q31 -7 60 -7q46 0 49 16z" />
    <glyph glyph-name="Egrave" unicode="&#xc8;" horiz-adv-x="528" 
d="M80 0l120 684h390l-13 -74h-306l-39 -222h274l-13 -74h-274l-42 -240h307l-13 -74h-391zM508 786l-24 -58l-165 81l17 77z" />
    <glyph glyph-name="Eacute" unicode="&#xc9;" horiz-adv-x="528" 
d="M80 0l120 684h390l-13 -74h-306l-39 -222h274l-13 -74h-274l-42 -240h307l-13 -74h-391zM339 728l-4 58l206 100l-9 -77z" />
    <glyph glyph-name="Ecircumflex" unicode="&#xca;" horiz-adv-x="528" 
d="M80 0l120 684h390l-13 -74h-306l-39 -222h274l-13 -74h-274l-42 -240h307l-13 -74h-391zM401 800l-141 -71l-11 57l166 91l139 -92l-37 -55z" />
    <glyph glyph-name="Edieresis" unicode="&#xcb;" horiz-adv-x="528" 
d="M80 0l120 684h390l-13 -74h-306l-39 -222h274l-13 -74h-274l-42 -240h307l-13 -74h-391zM457 776q0 26 8 53q5 15 15 21t33 6q22 0 30 -5t8 -19q0 -29 -11 -60q-8 -20 -45 -20q-22 0 -30 5t-8 19zM278 776q0 26 8 53q5 15 15 21t33 6q22 0 30 -5t8 -19q0 -29 -11 -60
q-8 -20 -45 -20q-22 0 -30 5t-8 19z" />
    <glyph glyph-name="Igrave" unicode="&#xcc;" horiz-adv-x="252" 
d="M288 684l-120 -684h-84l120 684h84zM342 786l-24 -58l-165 81l17 77z" />
    <glyph glyph-name="Iacute" unicode="&#xcd;" horiz-adv-x="252" 
d="M288 684l-120 -684h-84l120 684h84zM193 728l-4 58l206 100l-9 -77z" />
    <glyph glyph-name="Icircumflex" unicode="&#xce;" horiz-adv-x="252" 
d="M288 684l-120 -684h-84l120 684h84zM265 800l-141 -71l-11 57l166 91l139 -92l-37 -55z" />
    <glyph glyph-name="Idieresis" unicode="&#xcf;" horiz-adv-x="252" 
d="M288 684l-120 -684h-84l120 684h84zM311 776q0 26 8 53q5 15 15 21t33 6q22 0 30 -5t8 -19q0 -29 -11 -60q-8 -20 -45 -20q-22 0 -30 5t-8 19zM132 776q0 26 8 53q5 15 15 21t33 6q22 0 30 -5t8 -19q0 -29 -11 -60q-8 -20 -45 -20q-22 0 -30 5t-8 19z" />
    <glyph glyph-name="Eth" unicode="&#xd0;" horiz-adv-x="607" 
d="M200 684h217q116 0 161.5 -41.5t45.5 -126.5q0 -57 -17.5 -160t-37.5 -173q-26 -92 -88.5 -137.5t-183.5 -45.5h-217l54 309h-72l13 73h72zM271 610l-40 -228h150l-13 -73h-150l-41 -235h134q79 0 118 30t59 97q15 49 32.5 157.5t17.5 145.5q0 56 -29 81t-104 25h-134z
" />
    <glyph glyph-name="Ntilde" unicode="&#xd1;" horiz-adv-x="647" 
d="M469 0l-211 549l-96 -549h-82l120 684h97l209 -555l98 555h82l-120 -684h-97zM512 750q-23 1 -59.5 16t-54.5 15q-39 0 -72 -28l-2 59q39 34 89 34q29 0 64.5 -15.5t50.5 -15.5q38 0 72 28l1 -59q-37 -34 -89 -34z" />
    <glyph glyph-name="Ograve" unicode="&#xd2;" horiz-adv-x="634" 
d="M516 212q17 64 32 155.5t15 136.5q0 61 -30 89t-107 28q-85 0 -125.5 -34.5t-61.5 -112.5q-17 -60 -32.5 -155.5t-15.5 -138.5q0 -61 30 -89t107 -28q86 0 126.5 35t61.5 114zM647 509q0 -57 -15 -153.5t-38 -166.5q-32 -100 -96.5 -150t-182.5 -50q-115 0 -162 46
t-47 139q0 50 15 147t36 167q32 104 96.5 155.5t185.5 51.5q115 0 161.5 -46t46.5 -140zM531 786l-24 -58l-165 81l17 77z" />
    <glyph glyph-name="Oacute" unicode="&#xd3;" horiz-adv-x="634" 
d="M516 212q17 64 32 155.5t15 136.5q0 61 -30 89t-107 28q-85 0 -125.5 -34.5t-61.5 -112.5q-17 -60 -32.5 -155.5t-15.5 -138.5q0 -61 30 -89t107 -28q86 0 126.5 35t61.5 114zM647 509q0 -57 -15 -153.5t-38 -166.5q-32 -100 -96.5 -150t-182.5 -50q-115 0 -162 46
t-47 139q0 50 15 147t36 167q32 104 96.5 155.5t185.5 51.5q115 0 161.5 -46t46.5 -140zM382 728l-4 58l206 100l-9 -77z" />
    <glyph glyph-name="Ocircumflex" unicode="&#xd4;" horiz-adv-x="634" 
d="M516 212q17 64 32 155.5t15 136.5q0 61 -30 89t-107 28q-85 0 -125.5 -34.5t-61.5 -112.5q-17 -60 -32.5 -155.5t-15.5 -138.5q0 -61 30 -89t107 -28q86 0 126.5 35t61.5 114zM647 509q0 -57 -15 -153.5t-38 -166.5q-32 -100 -96.5 -150t-182.5 -50q-115 0 -162 46
t-47 139q0 50 15 147t36 167q32 104 96.5 155.5t185.5 51.5q115 0 161.5 -46t46.5 -140zM454 800l-141 -71l-11 57l166 91l139 -92l-37 -55z" />
    <glyph glyph-name="Otilde" unicode="&#xd5;" horiz-adv-x="634" 
d="M516 212q17 64 32 155.5t15 136.5q0 61 -30 89t-107 28q-85 0 -125.5 -34.5t-61.5 -112.5q-17 -60 -32.5 -155.5t-15.5 -138.5q0 -61 30 -89t107 -28q86 0 126.5 35t61.5 114zM647 509q0 -57 -15 -153.5t-38 -166.5q-32 -100 -96.5 -150t-182.5 -50q-115 0 -162 46
t-47 139q0 50 15 147t36 167q32 104 96.5 155.5t185.5 51.5q115 0 161.5 -46t46.5 -140zM506 750q-23 1 -59.5 16t-54.5 15q-39 0 -72 -28l-2 59q39 34 89 34q29 0 64.5 -15.5t50.5 -15.5q38 0 72 28l1 -59q-37 -34 -89 -34z" />
    <glyph glyph-name="Odieresis" unicode="&#xd6;" horiz-adv-x="634" 
d="M516 212q17 64 32 155.5t15 136.5q0 61 -30 89t-107 28q-85 0 -125.5 -34.5t-61.5 -112.5q-17 -60 -32.5 -155.5t-15.5 -138.5q0 -61 30 -89t107 -28q86 0 126.5 35t61.5 114zM647 509q0 -57 -15 -153.5t-38 -166.5q-32 -100 -96.5 -150t-182.5 -50q-115 0 -162 46
t-47 139q0 50 15 147t36 167q32 104 96.5 155.5t185.5 51.5q115 0 161.5 -46t46.5 -140zM500 776q0 26 8 53q5 15 15 21t33 6q22 0 30 -5t8 -19q0 -29 -11 -60q-8 -20 -45 -20q-22 0 -30 5t-8 19zM321 776q0 26 8 53q5 15 15 21t33 6q22 0 30 -5t8 -19q0 -29 -11 -60
q-8 -20 -45 -20q-22 0 -30 5t-8 19z" />
    <glyph glyph-name="multiply" unicode="&#xd7;" horiz-adv-x="500" 
d="M152 412l46 39l103 -124l146 124l42 -51l-146 -124l102 -124l-46 -39l-102 124l-146 -124l-42 51l146 124z" />
    <glyph glyph-name="Oslash" unicode="&#xd8;" horiz-adv-x="634" 
d="M647 509q0 -57 -15 -153.5t-38 -166.5q-32 -100 -96.5 -150t-182.5 -50q-83 0 -130 24l-50 -72l-50 29l55 79q-34 42 -34 125q0 50 15 147t36 167q32 104 96.5 155.5t185.5 51.5q83 0 131 -25l47 67l50 -29l-52 -76q32 -43 32 -123zM191 180q0 -32 5 -49l326 470
q-32 20 -96 20q-85 0 -125.5 -34.5t-61.5 -112.5q-17 -60 -32.5 -155.5t-15.5 -138.5zM516 212q17 64 32 155.5t15 136.5q0 24 -5 46l-325 -468q31 -19 95 -19q86 0 126.5 35t61.5 114z" />
    <glyph glyph-name="Ugrave" unicode="&#xd9;" horiz-adv-x="630" 
d="M676 684l-80 -457q-42 -238 -283 -238q-205 0 -205 174q0 31 6 64l80 457h84l-82 -465q-5 -28 -5 -46q0 -110 135 -110q82 0 126 39t58 117l82 465h84zM529 786l-24 -58l-165 81l17 77z" />
    <glyph glyph-name="Uacute" unicode="&#xda;" horiz-adv-x="630" 
d="M676 684l-80 -457q-42 -238 -283 -238q-205 0 -205 174q0 31 6 64l80 457h84l-82 -465q-5 -28 -5 -46q0 -110 135 -110q82 0 126 39t58 117l82 465h84zM380 728l-4 58l206 100l-9 -77z" />
    <glyph glyph-name="Ucircumflex" unicode="&#xdb;" horiz-adv-x="630" 
d="M676 684l-80 -457q-42 -238 -283 -238q-205 0 -205 174q0 31 6 64l80 457h84l-82 -465q-5 -28 -5 -46q0 -110 135 -110q82 0 126 39t58 117l82 465h84zM452 800l-141 -71l-11 57l166 91l139 -92l-37 -55z" />
    <glyph glyph-name="Udieresis" unicode="&#xdc;" horiz-adv-x="630" 
d="M676 684l-80 -457q-42 -238 -283 -238q-205 0 -205 174q0 31 6 64l80 457h84l-82 -465q-5 -28 -5 -46q0 -110 135 -110q82 0 126 39t58 117l82 465h84zM498 776q0 26 8 53q5 15 15 21t33 6q22 0 30 -5t8 -19q0 -29 -11 -60q-8 -20 -45 -20q-22 0 -30 5t-8 19zM319 776
q0 26 8 53q5 15 15 21t33 6q22 0 30 -5t8 -19q0 -29 -11 -60q-8 -20 -45 -20q-22 0 -30 5t-8 19z" />
    <glyph glyph-name="Yacute" unicode="&#xdd;" horiz-adv-x="547" 
d="M219 684l112 -355l237 355h92l-303 -445l-42 -239h-83l42 239l-147 445h92zM339 728l-4 58l206 100l-9 -77z" />
    <glyph glyph-name="Thorn" unicode="&#xde;" horiz-adv-x="557" 
d="M80 0l120 684h84l-21 -120h161q89 0 124.5 -29.5t35.5 -93.5q0 -39 -11 -102t-31 -106q-24 -52 -69 -76.5t-123 -24.5h-163l-23 -132h-84zM472 276q25 70 25 141q0 43 -21.5 58t-75.5 15h-150l-50 -284h150q54 0 81.5 16.5t40.5 53.5z" />
    <glyph glyph-name="germandbls" unicode="&#xdf;" horiz-adv-x="588" 
d="M325 321q0 25 9 47t17 33t30.5 34.5t29.5 31.5q50 58 50 110q0 67 -89 67q-56 0 -83.5 -29t-38.5 -93l-92 -522h-81l92 523q32 187 214 187q75 0 115 -32.5t40 -91.5q0 -46 -17 -77.5t-54 -71.5q-5 -5 -13.5 -14.5t-13 -14.5t-11.5 -12.5t-10.5 -13t-7.5 -11.5
t-5.5 -11.5t-1.5 -10.5q0 -17 12.5 -28t51.5 -33q3 -2 5 -3t5 -3t5 -3q41 -24 59 -47t18 -62q0 -94 -44.5 -137.5t-146.5 -43.5q-61 0 -118 19l23 70q47 -20 108 -20q53 0 74 19t21 70q0 20 -11.5 33t-42.5 32q-4 2 -21.5 12t-22 13t-17 11.5t-16.5 14t-10.5 15t-8.5 20
t-2 23.5z" />
    <glyph glyph-name="agrave" unicode="&#xe0;" 
d="M216 -11q-72 0 -102 30.5t-30 96.5q0 105 33 215q26 88 78 127.5t158 39.5q85 0 176 -15l-86 -483h-73l-1 38q-76 -49 -153 -49zM380 108l56 314q-50 10 -100 10q-62 0 -92.5 -27.5t-45.5 -84.5q-29 -112 -29 -186q0 -41 16 -59t57 -18q61 0 138 51zM427 603l-24 -58
l-165 81l17 77z" />
    <glyph glyph-name="aacute" unicode="&#xe1;" 
d="M216 -11q-72 0 -102 30.5t-30 96.5q0 105 33 215q26 88 78 127.5t158 39.5q85 0 176 -15l-86 -483h-73l-1 38q-76 -49 -153 -49zM380 108l56 314q-50 10 -100 10q-62 0 -92.5 -27.5t-45.5 -84.5q-29 -112 -29 -186q0 -41 16 -59t57 -18q61 0 138 51zM278 545l-4 58
l206 100l-9 -77z" />
    <glyph glyph-name="acircumflex" unicode="&#xe2;" 
d="M216 -11q-72 0 -102 30.5t-30 96.5q0 105 33 215q26 88 78 127.5t158 39.5q85 0 176 -15l-86 -483h-73l-1 38q-76 -49 -153 -49zM380 108l56 314q-50 10 -100 10q-62 0 -92.5 -27.5t-45.5 -84.5q-29 -112 -29 -186q0 -41 16 -59t57 -18q61 0 138 51zM350 617l-141 -71
l-11 57l166 91l139 -92l-37 -55z" />
    <glyph glyph-name="atilde" unicode="&#xe3;" 
d="M216 -11q-72 0 -102 30.5t-30 96.5q0 105 33 215q26 88 78 127.5t158 39.5q85 0 176 -15l-86 -483h-73l-1 38q-76 -49 -153 -49zM380 108l56 314q-50 10 -100 10q-62 0 -92.5 -27.5t-45.5 -84.5q-29 -112 -29 -186q0 -41 16 -59t57 -18q61 0 138 51zM402 567
q-23 1 -59.5 16t-54.5 15q-39 0 -72 -28l-2 59q39 34 89 34q29 0 64.5 -15.5t50.5 -15.5q38 0 72 28l1 -59q-37 -34 -89 -34z" />
    <glyph glyph-name="adieresis" unicode="&#xe4;" 
d="M216 -11q-72 0 -102 30.5t-30 96.5q0 105 33 215q26 88 78 127.5t158 39.5q85 0 176 -15l-86 -483h-73l-1 38q-76 -49 -153 -49zM380 108l56 314q-50 10 -100 10q-62 0 -92.5 -27.5t-45.5 -84.5q-29 -112 -29 -186q0 -41 16 -59t57 -18q61 0 138 51zM396 593q0 26 8 53
q5 15 15 21t33 6q22 0 30 -5t8 -19q0 -29 -11 -60q-8 -20 -45 -20q-22 0 -30 5t-8 19zM217 593q0 26 8 53q5 15 15 21t33 6q22 0 30 -5t8 -19q0 -29 -11 -60q-8 -20 -45 -20q-22 0 -30 5t-8 19z" />
    <glyph glyph-name="aring" unicode="&#xe5;" 
d="M216 -11q-72 0 -102 30.5t-30 96.5q0 105 33 215q26 88 78 127.5t158 39.5q85 0 176 -15l-86 -483h-73l-1 38q-76 -49 -153 -49zM380 108l56 314q-50 10 -100 10q-62 0 -92.5 -27.5t-45.5 -84.5q-29 -112 -29 -186q0 -41 16 -59t57 -18q61 0 138 51zM342 543
q-31 0 -50.5 17.5t-19.5 45.5q0 40 26.5 65.5t66.5 25.5q31 0 50 -17.5t19 -45.5q0 -41 -26 -66t-66 -25zM361 660q-22 0 -35 -14t-13 -37q0 -29 34 -29q20 0 33.5 13.5t13.5 35.5q0 31 -33 31z" />
    <glyph glyph-name="ae" unicode="&#xe6;" horiz-adv-x="754" 
d="M336 498q99 0 130 -58q62 58 158 58q85 0 119.5 -33.5t34.5 -101.5q0 -166 -203 -166q-58 0 -118 10q-8 -34 -8 -69q0 -46 23.5 -63.5t81.5 -17.5q90 0 167 24l-8 -70q-90 -22 -179 -22q-119 0 -152 66q-91 -66 -189 -66q-123 0 -123 99q0 100 57 150q31 26 79.5 34.5
t134.5 8.5q22 0 49 -1l10 60q2 16 2 25q0 65 -82 65q-70 0 -162 -26l8 70q86 24 170 24zM218 57q72 0 151 55q-1 5 -1 16q0 33 11 88q-21 1 -59 1q-108 0 -139 -29q-27 -25 -27 -80q0 -51 64 -51zM468 275q52 -10 107 -10q124 0 124 92q0 37 -21 55t-68 18q-55 0 -85.5 -25
t-46.5 -84q-4 -15 -10 -46z" />
    <glyph glyph-name="ccedilla" unicode="&#xe7;" horiz-adv-x="428" 
d="M254 -140l6 35q1 10 -8 13t-28 3q-7 0 -19 -2l-26 13l28 70q-68 7 -96.5 41.5t-28.5 98.5q0 91 32 200q26 86 77.5 126t150.5 40q72 0 126 -11l-20 -74q-61 14 -118 14q-56 0 -85.5 -20.5t-48.5 -85.5q-30 -105 -30 -181q0 -45 22.5 -62.5t79.5 -17.5q47 0 119 14l-5 -72
q-65 -13 -128 -13l-15 -36q87 0 87 -46q0 -7 -1 -11l-7 -41q-10 -57 -110 -57q-43 0 -80 8l17 45q31 -7 60 -7q46 0 49 16z" />
    <glyph glyph-name="egrave" unicode="&#xe8;" horiz-adv-x="470" 
d="M291 197q-58 0 -118 10q-9 -50 -9 -70q0 -46 24.5 -63t81.5 -17q82 0 165 25l-7 -69q-85 -24 -180 -24q-92 0 -129 34t-37 106q0 98 32 202q25 82 77 124.5t147 42.5q86 0 121 -33.5t35 -99.5q0 -168 -203 -168zM184 275q52 -10 107 -10q124 0 124 92q0 37 -21 55t-68 18
q-55 0 -85.5 -25t-46.5 -84q-4 -15 -10 -46zM426 603l-24 -58l-165 81l17 77z" />
    <glyph glyph-name="eacute" unicode="&#xe9;" horiz-adv-x="470" 
d="M291 197q-58 0 -118 10q-9 -50 -9 -70q0 -46 24.5 -63t81.5 -17q82 0 165 25l-7 -69q-85 -24 -180 -24q-92 0 -129 34t-37 106q0 98 32 202q25 82 77 124.5t147 42.5q86 0 121 -33.5t35 -99.5q0 -168 -203 -168zM184 275q52 -10 107 -10q124 0 124 92q0 37 -21 55t-68 18
q-55 0 -85.5 -25t-46.5 -84q-4 -15 -10 -46zM277 545l-4 58l206 100l-9 -77z" />
    <glyph glyph-name="ecircumflex" unicode="&#xea;" horiz-adv-x="470" 
d="M291 197q-58 0 -118 10q-9 -50 -9 -70q0 -46 24.5 -63t81.5 -17q82 0 165 25l-7 -69q-85 -24 -180 -24q-92 0 -129 34t-37 106q0 98 32 202q25 82 77 124.5t147 42.5q86 0 121 -33.5t35 -99.5q0 -168 -203 -168zM184 275q52 -10 107 -10q124 0 124 92q0 37 -21 55t-68 18
q-55 0 -85.5 -25t-46.5 -84q-4 -15 -10 -46zM349 617l-141 -71l-11 57l166 91l139 -92l-37 -55z" />
    <glyph glyph-name="edieresis" unicode="&#xeb;" horiz-adv-x="470" 
d="M291 197q-58 0 -118 10q-9 -50 -9 -70q0 -46 24.5 -63t81.5 -17q82 0 165 25l-7 -69q-85 -24 -180 -24q-92 0 -129 34t-37 106q0 98 32 202q25 82 77 124.5t147 42.5q86 0 121 -33.5t35 -99.5q0 -168 -203 -168zM184 275q52 -10 107 -10q124 0 124 92q0 37 -21 55t-68 18
q-55 0 -85.5 -25t-46.5 -84q-4 -15 -10 -46zM395 593q0 26 8 53q5 15 15 21t33 6q22 0 30 -5t8 -19q0 -29 -11 -60q-8 -20 -45 -20q-22 0 -30 5t-8 19zM216 593q0 26 8 53q5 15 15 21t33 6q22 0 30 -5t8 -19q0 -29 -11 -60q-8 -20 -45 -20q-22 0 -30 5t-8 19z" />
    <glyph glyph-name="igrave" unicode="&#xec;" horiz-adv-x="233" 
d="M157 0h-81l85 487h81zM299 603l-24 -58l-165 81l17 77z" />
    <glyph glyph-name="iacute" unicode="&#xed;" horiz-adv-x="233" 
d="M157 0h-81l85 487h81zM150 545l-4 58l206 100l-9 -77z" />
    <glyph glyph-name="icircumflex" unicode="&#xee;" horiz-adv-x="233" 
d="M157 0h-81l85 487h81zM222 617l-141 -71l-11 57l166 91l139 -92l-37 -55z" />
    <glyph glyph-name="idieresis" unicode="&#xef;" horiz-adv-x="233" 
d="M157 0h-81l85 487h81zM268 593q0 26 8 53q5 15 15 21t33 6q22 0 30 -5t8 -19q0 -29 -11 -60q-8 -20 -45 -20q-22 0 -30 5t-8 19zM89 593q0 26 8 53q5 15 15 21t33 6q22 0 30 -5t8 -19q0 -29 -11 -60q-8 -20 -45 -20q-22 0 -30 5t-8 19z" />
    <glyph glyph-name="eth" unicode="&#xf0;" horiz-adv-x="521" 
d="M296 522l-23 44l85 52q-33 32 -90 65l77 27q47 -23 80 -50l80 50l22 -44l-66 -41q62 -74 62 -207q0 -46 -9 -121t-25 -133q-25 -89 -78 -132.5t-155 -43.5q-94 0 -133 37t-39 112q0 44 13 113t35 117q27 60 77 90t135 30q55 0 89 -23q-3 67 -42 117zM269 59
q67 0 95.5 26.5t46.5 98.5q21 88 21 149q0 46 -22 64.5t-78 18.5q-57 0 -85.5 -19t-45.5 -66q-14 -39 -23.5 -98.5t-9.5 -90.5q0 -46 22 -64.5t79 -18.5z" />
    <glyph glyph-name="ntilde" unicode="&#xf1;" horiz-adv-x="521" 
d="M450 0h-82l65 374q1 5 1 15q0 37 -43 37q-29 0 -78.5 -16.5t-91.5 -38.5l-65 -371h-82l85 487h73v-45q108 56 189 56q99 0 99 -83q0 -17 -3 -33zM417 567q-23 1 -59.5 16t-54.5 15q-39 0 -72 -28l-2 59q39 34 89 34q29 0 64.5 -15.5t50.5 -15.5q38 0 72 28l1 -59
q-37 -34 -89 -34z" />
    <glyph glyph-name="ograve" unicode="&#xf2;" 
d="M334 427q-61 0 -90.5 -22.5t-46.5 -80.5q-29 -108 -29 -181q0 -47 22.5 -65.5t78.5 -18.5q66 0 95.5 26t45.5 97q24 102 24 162q0 46 -22 64.5t-78 18.5zM256 -12q-94 0 -132.5 37.5t-38.5 113.5q0 96 33 197q26 81 78.5 121.5t149.5 40.5q94 0 132.5 -37.5t38.5 -113.5
q0 -87 -31 -190q-26 -85 -78.5 -127t-151.5 -42zM441 603l-24 -58l-165 81l17 77z" />
    <glyph glyph-name="oacute" unicode="&#xf3;" 
d="M334 427q-61 0 -90.5 -22.5t-46.5 -80.5q-29 -108 -29 -181q0 -47 22.5 -65.5t78.5 -18.5q66 0 95.5 26t45.5 97q24 102 24 162q0 46 -22 64.5t-78 18.5zM256 -12q-94 0 -132.5 37.5t-38.5 113.5q0 96 33 197q26 81 78.5 121.5t149.5 40.5q94 0 132.5 -37.5t38.5 -113.5
q0 -87 -31 -190q-26 -85 -78.5 -127t-151.5 -42zM292 545l-4 58l206 100l-9 -77z" />
    <glyph glyph-name="ocircumflex" unicode="&#xf4;" 
d="M334 427q-61 0 -90.5 -22.5t-46.5 -80.5q-29 -108 -29 -181q0 -47 22.5 -65.5t78.5 -18.5q66 0 95.5 26t45.5 97q24 102 24 162q0 46 -22 64.5t-78 18.5zM256 -12q-94 0 -132.5 37.5t-38.5 113.5q0 96 33 197q26 81 78.5 121.5t149.5 40.5q94 0 132.5 -37.5t38.5 -113.5
q0 -87 -31 -190q-26 -85 -78.5 -127t-151.5 -42zM364 617l-141 -71l-11 57l166 91l139 -92l-37 -55z" />
    <glyph glyph-name="otilde" unicode="&#xf5;" 
d="M334 427q-61 0 -90.5 -22.5t-46.5 -80.5q-29 -108 -29 -181q0 -47 22.5 -65.5t78.5 -18.5q66 0 95.5 26t45.5 97q24 102 24 162q0 46 -22 64.5t-78 18.5zM256 -12q-94 0 -132.5 37.5t-38.5 113.5q0 96 33 197q26 81 78.5 121.5t149.5 40.5q94 0 132.5 -37.5t38.5 -113.5
q0 -87 -31 -190q-26 -85 -78.5 -127t-151.5 -42zM416 567q-23 1 -59.5 16t-54.5 15q-39 0 -72 -28l-2 59q39 34 89 34q29 0 64.5 -15.5t50.5 -15.5q38 0 72 28l1 -59q-37 -34 -89 -34z" />
    <glyph glyph-name="odieresis" unicode="&#xf6;" 
d="M334 427q-61 0 -90.5 -22.5t-46.5 -80.5q-29 -108 -29 -181q0 -47 22.5 -65.5t78.5 -18.5q66 0 95.5 26t45.5 97q24 102 24 162q0 46 -22 64.5t-78 18.5zM256 -12q-94 0 -132.5 37.5t-38.5 113.5q0 96 33 197q26 81 78.5 121.5t149.5 40.5q94 0 132.5 -37.5t38.5 -113.5
q0 -87 -31 -190q-26 -85 -78.5 -127t-151.5 -42zM410 593q0 26 8 53q5 15 15 21t33 6q22 0 30 -5t8 -19q0 -29 -11 -60q-8 -20 -45 -20q-22 0 -30 5t-8 19zM231 593q0 26 8 53q5 15 15 21t33 6q22 0 30 -5t8 -19q0 -29 -11 -60q-8 -20 -45 -20q-22 0 -30 5t-8 19z" />
    <glyph glyph-name="divide" unicode="&#xf7;" horiz-adv-x="500" 
d="M318 392q-22 0 -30 5t-8 19q0 23 9 55q5 18 15 24.5t34 6.5q22 0 30 -5t8 -19q0 -41 -12 -65q-9 -21 -46 -21zM260 62q-22 0 -30 5t-8 19q0 23 9 55q5 18 15 24.5t34 6.5q22 0 30 -5t8 -19q0 -41 -12 -65q-9 -21 -46 -21zM103 250l11 64h381l-11 -64h-381z" />
    <glyph glyph-name="oslash" unicode="&#xf8;" 
d="M256 -12q-56 0 -95 14l-48 -66l-47 29l50 68q-31 37 -31 106q0 96 33 197q26 81 78.5 121.5t149.5 40.5q57 0 97 -16l49 68l47 -29l-52 -71q30 -36 30 -103q0 -87 -31 -190q-26 -85 -78.5 -127t-151.5 -42zM334 427q-61 0 -90.5 -22.5t-46.5 -80.5q-29 -108 -29 -181
q0 -19 3 -34l225 309q-23 9 -62 9zM434 344q0 17 -3 29l-223 -306q20 -8 61 -8q66 0 95.5 26t45.5 97q24 102 24 162z" />
    <glyph glyph-name="ugrave" unicode="&#xf9;" horiz-adv-x="521" 
d="M155 487h82l-66 -374q-1 -5 -1 -14q0 -38 43 -38q65 0 171 55l65 371h82l-85 -487h-73v45q-106 -56 -189 -56q-99 0 -99 84q0 15 3 32zM443 603l-24 -58l-165 81l17 77z" />
    <glyph glyph-name="uacute" unicode="&#xfa;" horiz-adv-x="521" 
d="M155 487h82l-66 -374q-1 -5 -1 -14q0 -38 43 -38q65 0 171 55l65 371h82l-85 -487h-73v45q-106 -56 -189 -56q-99 0 -99 84q0 15 3 32zM294 545l-4 58l206 100l-9 -77z" />
    <glyph glyph-name="ucircumflex" unicode="&#xfb;" horiz-adv-x="521" 
d="M155 487h82l-66 -374q-1 -5 -1 -14q0 -38 43 -38q65 0 171 55l65 371h82l-85 -487h-73v45q-106 -56 -189 -56q-99 0 -99 84q0 15 3 32zM366 617l-141 -71l-11 57l166 91l139 -92l-37 -55z" />
    <glyph glyph-name="udieresis" unicode="&#xfc;" horiz-adv-x="521" 
d="M155 487h82l-66 -374q-1 -5 -1 -14q0 -38 43 -38q65 0 171 55l65 371h82l-85 -487h-73v45q-106 -56 -189 -56q-99 0 -99 84q0 15 3 32zM412 593q0 26 8 53q5 15 15 21t33 6q22 0 30 -5t8 -19q0 -29 -11 -60q-8 -20 -45 -20q-22 0 -30 5t-8 19zM233 593q0 26 8 53
q5 15 15 21t33 6q22 0 30 -5t8 -19q0 -29 -11 -60q-8 -20 -45 -20q-22 0 -30 5t-8 19z" />
    <glyph glyph-name="yacute" unicode="&#xfd;" horiz-adv-x="455" 
d="M444 487h88l-370 -685h-82l110 195l-95 490h90l66 -374zM261 545l-4 58l206 100l-9 -77z" />
    <glyph glyph-name="thorn" unicode="&#xfe;" horiz-adv-x="524" 
d="M390 498q74 0 103.5 -32.5t29.5 -94.5q0 -97 -34 -214q-23 -80 -68.5 -124t-132.5 -44q-62 0 -132 15l-34 -195l-85 -14l159 901l85 14l-47 -267q76 55 156 55zM221 370l-52 -295q70 -19 126 -19q49 0 75 29t42 97q25 113 25 171q0 39 -16 59t-53 20q-36 0 -77 -18.5
t-70 -43.5z" />
    <glyph glyph-name="ydieresis" unicode="&#xff;" horiz-adv-x="455" 
d="M444 487h88l-370 -685h-82l110 195l-95 490h90l66 -374zM379 593q0 26 8 53q5 15 15 21t33 6q22 0 30 -5t8 -19q0 -29 -11 -60q-8 -20 -45 -20q-22 0 -30 5t-8 19zM200 593q0 26 8 53q5 15 15 21t33 6q22 0 30 -5t8 -19q0 -29 -11 -60q-8 -20 -45 -20q-22 0 -30 5t-8 19z
" />
    <glyph glyph-name="Amacron" unicode="&#x100;" horiz-adv-x="612" 
d="M591 0h-89l-31 191h-270l-95 -191h-85l355 684h98zM461 259l-53 346l-173 -346h226zM314 764l11 60h251l-11 -60h-251z" />
    <glyph glyph-name="amacron" unicode="&#x101;" 
d="M216 -11q-72 0 -102 30.5t-30 96.5q0 105 33 215q26 88 78 127.5t158 39.5q85 0 176 -15l-86 -483h-73l-1 38q-76 -49 -153 -49zM380 108l56 314q-50 10 -100 10q-62 0 -92.5 -27.5t-45.5 -84.5q-29 -112 -29 -186q0 -41 16 -59t57 -18q61 0 138 51zM221 581l11 60h251
l-11 -60h-251z" />
    <glyph glyph-name="Abreve" unicode="&#x102;" horiz-adv-x="612" 
d="M591 0h-89l-31 191h-270l-95 -191h-85l355 684h98zM461 259l-53 346l-173 -346h226zM532 850l49 -15q-31 -108 -149 -108q-53 0 -83 25t-27 83l54 15q0 -1 1 -8.5t1.5 -10t2 -9.5t3.5 -10.5t5 -9t8 -8.5t11 -6t15 -4.5t19 -1.5q22 0 39 6.5t27.5 20.5t14 20.5t9.5 20.5z
" />
    <glyph glyph-name="abreve" unicode="&#x103;" 
d="M216 -11q-72 0 -102 30.5t-30 96.5q0 105 33 215q26 88 78 127.5t158 39.5q85 0 176 -15l-86 -483h-73l-1 38q-76 -49 -153 -49zM380 108l56 314q-50 10 -100 10q-62 0 -92.5 -27.5t-45.5 -84.5q-29 -112 -29 -186q0 -41 16 -59t57 -18q61 0 138 51zM439 667l49 -15
q-31 -108 -149 -108q-53 0 -83 25t-27 83l54 15q0 -1 1 -8.5t1.5 -10t2 -9.5t3.5 -10.5t5 -9t8 -8.5t11 -6t15 -4.5t19 -1.5q22 0 39 6.5t27.5 20.5t14 20.5t9.5 20.5z" />
    <glyph glyph-name="Aogonek" unicode="&#x104;" horiz-adv-x="612" 
d="M575 -192q-24 -10 -63 -10q-44 0 -68 18t-24 47q0 78 85 137h-3l-31 191h-270l-95 -191h-85l355 684h98l117 -684h-6q-44 -23 -72 -55.5t-28 -65.5q0 -14 12 -23.5t32 -9.5q23 0 46 6v-44zM461 259l-53 346l-173 -346h226z" />
    <glyph glyph-name="aogonek" unicode="&#x105;" 
d="M417 -192q-24 -10 -63 -10q-44 0 -68 18t-24 47q0 80 88 139h20l-1 36q-76 -49 -153 -49q-72 0 -102 30.5t-30 96.5q0 105 33 215q26 88 78 127.5t158 39.5q85 0 176 -15l-86 -483h-16q-44 -23 -72 -55.5t-28 -65.5q0 -14 12 -23.5t32 -9.5q23 0 46 6v-44zM380 108
l56 314q-50 10 -100 10q-62 0 -92.5 -27.5t-45.5 -84.5q-29 -112 -29 -186q0 -41 16 -59t57 -18q61 0 138 51z" />
    <glyph glyph-name="Cacute" unicode="&#x106;" horiz-adv-x="529" 
d="M429 621q-80 0 -120 -26t-62 -91q-16 -46 -37 -171t-21 -160q0 -62 32 -86t114 -24q79 0 157 20l-7 -75q-76 -19 -165 -19q-122 0 -169.5 43t-47.5 131q0 57 19.5 171.5t42.5 181.5q32 91 94.5 135t177.5 44q92 0 166 -19l-20 -76q-75 21 -154 21zM354 728l-4 58l206 100
l-9 -77z" />
    <glyph glyph-name="cacute" unicode="&#x107;" horiz-adv-x="428" 
d="M196 321q-30 -105 -30 -181q0 -45 22.5 -62.5t79.5 -17.5q47 0 119 14l-5 -72q-65 -13 -129 -13q-95 0 -133 35t-38 108q0 91 32 200q26 86 77.5 126t150.5 40q72 0 126 -11l-20 -74q-61 14 -118 14q-56 0 -85.5 -20.5t-48.5 -85.5zM259 545l-4 58l206 100l-9 -77z" />
    <glyph glyph-name="Ccircumflex" unicode="&#x108;" horiz-adv-x="529" 
d="M429 621q-80 0 -120 -26t-62 -91q-16 -46 -37 -171t-21 -160q0 -62 32 -86t114 -24q79 0 157 20l-7 -75q-76 -19 -165 -19q-122 0 -169.5 43t-47.5 131q0 57 19.5 171.5t42.5 181.5q32 91 94.5 135t177.5 44q92 0 166 -19l-20 -76q-75 21 -154 21zM442 800l-141 -71
l-11 57l166 91l139 -92l-37 -55z" />
    <glyph glyph-name="ccircumflex" unicode="&#x109;" horiz-adv-x="428" 
d="M196 321q-30 -105 -30 -181q0 -45 22.5 -62.5t79.5 -17.5q47 0 119 14l-5 -72q-65 -13 -129 -13q-95 0 -133 35t-38 108q0 91 32 200q26 86 77.5 126t150.5 40q72 0 126 -11l-20 -74q-61 14 -118 14q-56 0 -85.5 -20.5t-48.5 -85.5zM344 617l-141 -71l-11 57l166 91
l139 -92l-37 -55z" />
    <glyph glyph-name="Cdotaccent" unicode="&#x10a;" horiz-adv-x="529" 
d="M429 621q-80 0 -120 -26t-62 -91q-16 -46 -37 -171t-21 -160q0 -62 32 -86t114 -24q79 0 157 20l-7 -75q-76 -19 -165 -19q-122 0 -169.5 43t-47.5 131q0 57 19.5 171.5t42.5 181.5q32 91 94.5 135t177.5 44q92 0 166 -19l-20 -76q-75 21 -154 21zM398 776q0 26 8 53
q5 15 15 21t33 6q22 0 30 -5t8 -19q0 -29 -11 -60q-8 -20 -45 -20q-22 0 -30 5t-8 19z" />
    <glyph glyph-name="cdotaccent" unicode="&#x10b;" horiz-adv-x="428" 
d="M196 321q-30 -105 -30 -181q0 -45 22.5 -62.5t79.5 -17.5q47 0 119 14l-5 -72q-65 -13 -129 -13q-95 0 -133 35t-38 108q0 91 32 200q26 86 77.5 126t150.5 40q72 0 126 -11l-20 -74q-61 14 -118 14q-56 0 -85.5 -20.5t-48.5 -85.5zM307 593q0 26 8 53q5 15 15 21t33 6
q22 0 30 -5t8 -19q0 -29 -11 -60q-8 -20 -45 -20q-22 0 -30 5t-8 19z" />
    <glyph glyph-name="Ccaron" unicode="&#x10c;" horiz-adv-x="529" 
d="M429 621q-80 0 -120 -26t-62 -91q-16 -46 -37 -171t-21 -160q0 -62 32 -86t114 -24q79 0 157 20l-7 -75q-76 -19 -165 -19q-122 0 -169.5 43t-47.5 131q0 57 19.5 171.5t42.5 181.5q32 91 94.5 135t177.5 44q92 0 166 -19l-20 -76q-75 21 -154 21zM437 801l142 71l11 -57
l-166 -91l-139 92l37 55z" />
    <glyph glyph-name="ccaron" unicode="&#x10d;" horiz-adv-x="428" 
d="M196 321q-30 -105 -30 -181q0 -45 22.5 -62.5t79.5 -17.5q47 0 119 14l-5 -72q-65 -13 -129 -13q-95 0 -133 35t-38 108q0 91 32 200q26 86 77.5 126t150.5 40q72 0 126 -11l-20 -74q-61 14 -118 14q-56 0 -85.5 -20.5t-48.5 -85.5zM354 618l142 71l11 -57l-166 -91
l-139 92l37 55z" />
    <glyph glyph-name="Dcaron" unicode="&#x10e;" horiz-adv-x="607" 
d="M200 684h217q116 0 161.5 -41.5t45.5 -126.5q0 -57 -17.5 -160t-37.5 -173q-26 -92 -88.5 -137.5t-183.5 -45.5h-217zM271 610l-94 -536h134q79 0 118 30t59 97q15 49 32.5 157.5t17.5 145.5q0 56 -29 81t-104 25h-134zM426 801l142 71l11 -57l-166 -91l-139 92l37 55z
" />
    <glyph glyph-name="dcaron" unicode="&#x10f;" horiz-adv-x="521" 
d="M376 47q-76 -58 -161 -58q-75 0 -105 26t-30 92q0 92 35 225q24 91 69.5 128t141.5 37q65 0 123 -14l37 213l85 14l-125 -710h-70v47zM384 117l52 295q-70 19 -131 19q-48 0 -71.5 -25.5t-37.5 -84.5q-30 -129 -30 -191q0 -39 16 -57t55 -18q36 0 77 18.5t70 43.5z
M579 495l36 71q6 14 6 16q0 5 -8 11t-8 17q0 26 9 57q5 17 15.5 24t33.5 7q21 0 29.5 -5.5t8.5 -19.5q0 -11 -3 -30l-5 -26q-5 -24 -18 -45l-55 -95q-4 -6 -7 -6q-4 0 -18 6q-18 8 -18 11t2 7z" />
    <glyph glyph-name="Dcroat" unicode="&#x110;" horiz-adv-x="607" 
d="M200 684h217q116 0 161.5 -41.5t45.5 -126.5q0 -57 -17.5 -160t-37.5 -173q-26 -92 -88.5 -137.5t-183.5 -45.5h-217l54 309h-72l13 73h72zM271 610l-40 -228h150l-13 -73h-150l-41 -235h134q79 0 118 30t59 97q15 49 32.5 157.5t17.5 145.5q0 56 -29 81t-104 25h-134z
" />
    <glyph glyph-name="dcroat" unicode="&#x111;" horiz-adv-x="521" 
d="M376 47q-76 -58 -161 -58q-75 0 -105 26t-30 92q0 92 35 225q24 91 69.5 128t141.5 37q65 0 123 -14l13 74h-144l11 65h144l13 74l85 14l-16 -88h80l-11 -65h-80l-98 -557h-70v47zM384 117l52 295q-70 19 -131 19q-48 0 -71.5 -25.5t-37.5 -84.5q-30 -129 -30 -191
q0 -39 16 -57t55 -18q36 0 77 18.5t70 43.5z" />
    <glyph glyph-name="Emacron" unicode="&#x112;" horiz-adv-x="528" 
d="M80 0l120 684h390l-13 -74h-306l-39 -222h274l-13 -74h-274l-42 -240h307l-13 -74h-391zM282 764l11 60h251l-11 -60h-251z" />
    <glyph glyph-name="emacron" unicode="&#x113;" horiz-adv-x="470" 
d="M291 197q-58 0 -118 10q-9 -50 -9 -70q0 -46 24.5 -63t81.5 -17q82 0 165 25l-7 -69q-85 -24 -180 -24q-92 0 -129 34t-37 106q0 98 32 202q25 82 77 124.5t147 42.5q86 0 121 -33.5t35 -99.5q0 -168 -203 -168zM184 275q52 -10 107 -10q124 0 124 92q0 37 -21 55t-68 18
q-55 0 -85.5 -25t-46.5 -84q-4 -15 -10 -46zM220 581l11 60h251l-11 -60h-251z" />
    <glyph glyph-name="Edotaccent" unicode="&#x116;" horiz-adv-x="528" 
d="M80 0l120 684h390l-13 -74h-306l-39 -222h274l-13 -74h-274l-42 -240h307l-13 -74h-391zM368 776q0 26 8 53q5 15 15 21t33 6q22 0 30 -5t8 -19q0 -29 -11 -60q-8 -20 -45 -20q-22 0 -30 5t-8 19z" />
    <glyph glyph-name="edotaccent" unicode="&#x117;" horiz-adv-x="470" 
d="M291 197q-58 0 -118 10q-9 -50 -9 -70q0 -46 24.5 -63t81.5 -17q82 0 165 25l-7 -69q-85 -24 -180 -24q-92 0 -129 34t-37 106q0 98 32 202q25 82 77 124.5t147 42.5q86 0 121 -33.5t35 -99.5q0 -168 -203 -168zM184 275q52 -10 107 -10q124 0 124 92q0 37 -21 55t-68 18
q-55 0 -85.5 -25t-46.5 -84q-4 -15 -10 -46zM306 593q0 26 8 53q5 15 15 21t33 6q22 0 30 -5t8 -19q0 -29 -11 -60q-8 -20 -45 -20q-22 0 -30 5t-8 19z" />
    <glyph glyph-name="Eogonek" unicode="&#x118;" horiz-adv-x="528" 
d="M80 0l120 684h390l-13 -74h-306l-39 -222h274l-13 -74h-274l-42 -240h307l-13 -74h-8q-44 -23 -72 -55.5t-28 -65.5q0 -14 12 -23.5t32 -9.5q23 0 46 6v-44q-24 -10 -63 -10q-44 0 -68 18t-24 47q0 78 85 137h-303z" />
    <glyph glyph-name="eogonek" unicode="&#x119;" horiz-adv-x="470" 
d="M291 197q-58 0 -118 10q-9 -50 -9 -70q0 -46 24.5 -63t81.5 -17q82 0 165 25l-7 -69q-115 -65 -115 -134q0 -14 12 -23.5t32 -9.5q23 0 47 6l-1 -44q-24 -10 -63 -10q-44 0 -68 18t-24 47q0 70 82 131q-48 -5 -82 -5q-92 0 -129 34t-37 106q0 98 32 202q25 82 77 124.5
t147 42.5q86 0 121 -33.5t35 -99.5q0 -168 -203 -168zM184 275q52 -10 107 -10q124 0 124 92q0 37 -21 55t-68 18q-55 0 -85.5 -25t-46.5 -84q-4 -15 -10 -46z" />
    <glyph glyph-name="Ecaron" unicode="&#x11a;" horiz-adv-x="528" 
d="M80 0l120 684h390l-13 -74h-306l-39 -222h274l-13 -74h-274l-42 -240h307l-13 -74h-391zM416 801l142 71l11 -57l-166 -91l-139 92l37 55z" />
    <glyph glyph-name="ecaron" unicode="&#x11b;" horiz-adv-x="470" 
d="M291 197q-58 0 -118 10q-9 -50 -9 -70q0 -46 24.5 -63t81.5 -17q82 0 165 25l-7 -69q-85 -24 -180 -24q-92 0 -129 34t-37 106q0 98 32 202q25 82 77 124.5t147 42.5q86 0 121 -33.5t35 -99.5q0 -168 -203 -168zM184 275q52 -10 107 -10q124 0 124 92q0 37 -21 55t-68 18
q-55 0 -85.5 -25t-46.5 -84q-4 -15 -10 -46zM354 618l142 71l11 -57l-166 -91l-139 92l37 55z" />
    <glyph glyph-name="Gcircumflex" unicode="&#x11c;" horiz-adv-x="584" 
d="M431 621q-98 0 -138 -36.5t-62 -134.5q-43 -186 -43 -277q0 -59 30 -84.5t108 -25.5q61 0 125 11l32 186h-79l13 74h160l-57 -324q-108 -21 -209 -21q-116 0 -162 45t-46 132q0 43 15 139t33 164q30 116 94 171t195 55q95 0 183 -22l-19 -76q-94 24 -173 24zM459 800
l-141 -71l-11 57l166 91l139 -92l-37 -55z" />
    <glyph glyph-name="gcircumflex" unicode="&#x11d;" 
d="M529 483l-96 -544q-13 -74 -65.5 -109t-160.5 -35q-104 0 -174 22l17 69q78 -24 168 -24q65 0 95 19t37 56l16 87q-75 -29 -152 -29q-72 0 -101.5 29.5t-29.5 91.5q0 104 35 215q27 89 80.5 128t154.5 39q85 0 176 -15zM378 95l58 327q-60 10 -100 10q-59 0 -89 -25.5
t-48 -85.5q-29 -108 -29 -179q0 -42 16 -60t55 -18q64 0 137 31zM364 617l-141 -71l-11 57l166 91l139 -92l-37 -55z" />
    <glyph glyph-name="Gbreve" unicode="&#x11e;" horiz-adv-x="584" 
d="M431 621q-98 0 -138 -36.5t-62 -134.5q-43 -186 -43 -277q0 -59 30 -84.5t108 -25.5q61 0 125 11l32 186h-79l13 74h160l-57 -324q-108 -21 -209 -21q-116 0 -162 45t-46 132q0 43 15 139t33 164q30 116 94 171t195 55q95 0 183 -22l-19 -76q-94 24 -173 24zM538 850
l49 -15q-31 -108 -149 -108q-53 0 -83 25t-27 83l54 15q0 -1 1 -8.5t1.5 -10t2 -9.5t3.5 -10.5t5 -9t8 -8.5t11 -6t15 -4.5t19 -1.5q22 0 39 6.5t27.5 20.5t14 20.5t9.5 20.5z" />
    <glyph glyph-name="gbreve" unicode="&#x11f;" 
d="M529 483l-96 -544q-13 -74 -65.5 -109t-160.5 -35q-104 0 -174 22l17 69q78 -24 168 -24q65 0 95 19t37 56l16 87q-75 -29 -152 -29q-72 0 -101.5 29.5t-29.5 91.5q0 104 35 215q27 89 80.5 128t154.5 39q85 0 176 -15zM378 95l58 327q-60 10 -100 10q-59 0 -89 -25.5
t-48 -85.5q-29 -108 -29 -179q0 -42 16 -60t55 -18q64 0 137 31zM453 667l49 -15q-31 -108 -149 -108q-53 0 -83 25t-27 83l54 15q0 -1 1 -8.5t1.5 -10t2 -9.5t3.5 -10.5t5 -9t8 -8.5t11 -6t15 -4.5t19 -1.5q22 0 39 6.5t27.5 20.5t14 20.5t9.5 20.5z" />
    <glyph glyph-name="Gdotaccent" unicode="&#x120;" horiz-adv-x="584" 
d="M431 621q-98 0 -138 -36.5t-62 -134.5q-43 -186 -43 -277q0 -59 30 -84.5t108 -25.5q61 0 125 11l32 186h-79l13 74h160l-57 -324q-108 -21 -209 -21q-116 0 -162 45t-46 132q0 43 15 139t33 164q30 116 94 171t195 55q95 0 183 -22l-19 -76q-94 24 -173 24zM416 776
q0 26 8 53q5 15 15 21t33 6q22 0 30 -5t8 -19q0 -29 -11 -60q-8 -20 -45 -20q-22 0 -30 5t-8 19z" />
    <glyph glyph-name="gdotaccent" unicode="&#x121;" 
d="M529 483l-96 -544q-13 -74 -65.5 -109t-160.5 -35q-104 0 -174 22l17 69q78 -24 168 -24q65 0 95 19t37 56l16 87q-75 -29 -152 -29q-72 0 -101.5 29.5t-29.5 91.5q0 104 35 215q27 89 80.5 128t154.5 39q85 0 176 -15zM378 95l58 327q-60 10 -100 10q-59 0 -89 -25.5
t-48 -85.5q-29 -108 -29 -179q0 -42 16 -60t55 -18q64 0 137 31zM321 593q0 26 8 53q5 15 15 21t33 6q22 0 30 -5t8 -19q0 -29 -11 -60q-8 -20 -45 -20q-22 0 -30 5t-8 19z" />
    <glyph glyph-name="Gcommaaccent" unicode="&#x122;" horiz-adv-x="584" 
d="M431 621q-98 0 -138 -36.5t-62 -134.5q-43 -186 -43 -277q0 -59 30 -84.5t108 -25.5q61 0 125 11l32 186h-79l13 74h160l-57 -324q-108 -21 -209 -21q-116 0 -162 45t-46 132q0 43 15 139t33 164q30 116 94 171t195 55q95 0 183 -22l-19 -76q-94 24 -173 24zM261 -191
l21 38q3 6 3 13q0 2 -7 6q-9 4 -9 15q0 28 3 37q4 15 15.5 21t34.5 6q22 0 29.5 -4.5t7.5 -16.5q0 -4 -2 -20l-4 -19q-4 -18 -14 -34l-38 -57q-4 -6 -7 -6q-6 0 -20 6q-15 6 -15 9q0 2 2 6z" />
    <glyph glyph-name="gcommaaccent" unicode="&#x123;" 
d="M529 483l-96 -544q-13 -74 -65.5 -109t-160.5 -35q-104 0 -174 22l17 69q78 -24 168 -24q65 0 95 19t37 56l16 87q-75 -29 -152 -29q-72 0 -101.5 29.5t-29.5 91.5q0 104 35 215q27 89 80.5 128t154.5 39q85 0 176 -15zM378 95l58 327q-60 10 -100 10q-59 0 -89 -25.5
t-48 -85.5q-29 -108 -29 -179q0 -42 16 -60t55 -18q64 0 137 31zM292 545l-4 58l206 100l-9 -77z" />
    <glyph glyph-name="Hcircumflex" unicode="&#x124;" horiz-adv-x="627" 
d="M547 0h-84l55 315h-299l-55 -315h-84l120 684h84l-52 -295h299l52 295h84zM451 800l-141 -71l-11 57l166 91l139 -92l-37 -55z" />
    <glyph glyph-name="hcircumflex" unicode="&#x125;" horiz-adv-x="521" 
d="M450 0h-82l65 374q1 5 1 15q0 37 -43 37q-29 0 -78.5 -16.5t-91.5 -38.5l-65 -371h-82l122 696l85 14l-48 -268q108 56 188 56q99 0 99 -83q0 -17 -3 -33zM318 800l-141 -71l-11 57l166 91l139 -92l-37 -55z" />
    <glyph glyph-name="Hbar" unicode="&#x126;" horiz-adv-x="627" 
d="M547 0h-84l55 315h-299l-55 -315h-84l87 500h-71l13 73h71l20 111h84l-20 -111h299l20 111h84l-20 -111h81l-13 -73h-81zM232 389h299l19 111h-299z" />
    <glyph glyph-name="hbar" unicode="&#x127;" horiz-adv-x="521" 
d="M450 0h-82l65 374q1 5 1 15q0 37 -43 37q-29 0 -78.5 -16.5t-91.5 -38.5l-65 -371h-82l97 557h-79l11 65h80l13 74l85 14l-16 -88h144l-11 -65h-145l-20 -115q108 56 188 56q99 0 99 -83q0 -17 -3 -33z" />
    <glyph glyph-name="Imacron" unicode="&#x12a;" horiz-adv-x="252" 
d="M288 684l-120 -684h-84l120 684h84zM136 764l11 60h251l-11 -60h-251z" />
    <glyph glyph-name="imacron" unicode="&#x12b;" horiz-adv-x="233" 
d="M157 0h-81l85 487h81zM93 581l11 60h251l-11 -60h-251z" />
    <glyph glyph-name="Iogonek" unicode="&#x12e;" horiz-adv-x="252" 
d="M288 684l-120 -684h-12q-38 -22 -59.5 -55t-21.5 -66q0 -15 10 -24t28 -9q19 0 42 6l-1 -44q-23 -10 -58 -10q-41 0 -62 17.5t-21 46.5q0 78 83 138h-12l120 684h84z" />
    <glyph glyph-name="iogonek" unicode="&#x12f;" horiz-adv-x="233" 
d="M157 0h-10q-38 -22 -59.5 -55t-21.5 -66q0 -15 10 -24t28 -9q19 0 42 6l-1 -44q-23 -10 -58 -10q-41 0 -62 17.5t-21 47.5q0 76 83 137h-11l85 487h81zM217 569q-22 0 -30 5t-8 19q0 23 9 55q5 18 15 24.5t34 6.5q22 0 30 -5t8 -19q0 -41 -12 -65q-9 -21 -46 -21z" />
    <glyph glyph-name="Idotaccent" unicode="&#x130;" horiz-adv-x="252" 
d="M288 684l-120 -684h-84l120 684h84zM221 776q0 26 8 53q5 15 15 21t33 6q22 0 30 -5t8 -19q0 -29 -11 -60q-8 -20 -45 -20q-22 0 -30 5t-8 19z" />
    <glyph glyph-name="dotlessi" unicode="&#x131;" horiz-adv-x="233" 
d="M157 0h-81l85 487h81z" />
    <glyph glyph-name="Jcircumflex" unicode="&#x134;" horiz-adv-x="279" 
d="M239 684h84l-92 -524q-8 -45 -22.5 -74t-40.5 -46.5t-53 -27.5t-72 -23l-12 -3l-9 68q74 21 95 38.5t29 65.5zM297 800l-141 -71l-11 57l166 91l139 -92l-37 -55z" />
    <glyph glyph-name="jcircumflex" unicode="&#x135;" horiz-adv-x="233" 
d="M161 487h81l-92 -523q-6 -35 -18 -60t-23.5 -39.5t-38 -28t-43.5 -19t-57 -17.5q-7 -2 -10 -3l-10 65q70 20 90.5 37t28.5 63zM222 617l-141 -71l-11 57l166 91l139 -92l-37 -55z" />
    <glyph glyph-name="Kcommaaccent" unicode="&#x136;" horiz-adv-x="587" 
d="M661 684l-338 -343l234 -341h-99l-234 344l-60 -344h-84l120 684h84l-59 -338l325 338h111zM233 -191l21 38q3 6 3 13q0 2 -7 6q-9 4 -9 15q0 28 3 37q4 15 15.5 21t34.5 6q22 0 29.5 -4.5t7.5 -16.5q0 -4 -2 -20l-4 -19q-4 -18 -14 -34l-38 -57q-4 -6 -7 -6q-6 0 -20 6
q-15 6 -15 9q0 2 2 6z" />
    <glyph glyph-name="kcommaaccent" unicode="&#x137;" horiz-adv-x="483" 
d="M156 0h-82l122 696l85 14l-79 -444l235 221h107l-248 -227l172 -260h-101l-165 263zM181 -191l21 38q3 6 3 13q0 2 -7 6q-9 4 -9 15q0 28 3 37q4 15 15.5 21t34.5 6q22 0 29.5 -4.5t7.5 -16.5q0 -4 -2 -20l-4 -19q-4 -18 -14 -34l-38 -57q-4 -6 -7 -6q-6 0 -20 6
q-15 6 -15 9q0 2 2 6z" />
    <glyph glyph-name="Lacute" unicode="&#x139;" horiz-adv-x="483" 
d="M284 684l-107 -610h286l-13 -74h-370l120 684h84zM198 728l-4 58l206 100l-9 -77z" />
    <glyph glyph-name="lacute" unicode="&#x13a;" horiz-adv-x="272" 
d="M249 64l9 -61q-46 -14 -99 -14q-42 0 -59 15.5t-17 47.5q0 24 8 66l102 578l85 14l-108 -607q-3 -21 -3 -25q0 -24 29 -24q25 0 53 10zM183 728l-4 58l206 100l-9 -77z" />
    <glyph glyph-name="Lcommaaccent" unicode="&#x13b;" horiz-adv-x="483" 
d="M284 684l-107 -610h286l-13 -74h-370l120 684h84zM181 -191l21 38q3 6 3 13q0 2 -7 6q-9 4 -9 15q0 28 3 37q4 15 15.5 21t34.5 6q22 0 29.5 -4.5t7.5 -16.5q0 -4 -2 -20l-4 -19q-4 -18 -14 -34l-38 -57q-4 -6 -7 -6q-6 0 -20 6q-15 6 -15 9q0 2 2 6z" />
    <glyph glyph-name="lcommaaccent" unicode="&#x13c;" horiz-adv-x="272" 
d="M249 64l9 -61q-46 -14 -99 -14q-42 0 -59 15.5t-17 47.5q0 24 8 66l102 578l85 14l-108 -607q-3 -21 -3 -25q0 -24 29 -24q25 0 53 10zM89 -191l21 38q3 6 3 13q0 2 -7 6q-9 4 -9 15q0 28 3 37q4 15 15.5 21t34.5 6q22 0 29.5 -4.5t7.5 -16.5q0 -4 -2 -20l-4 -19
q-4 -18 -14 -34l-38 -57q-4 -6 -7 -6q-6 0 -20 6q-15 6 -15 9q0 2 2 6z" />
    <glyph glyph-name="Lcaron" unicode="&#x13d;" horiz-adv-x="483" 
d="M284 684l-107 -610h286l-13 -74h-370l120 684h84zM415 495l36 71q6 14 6 16q0 5 -8 11t-8 17q0 26 9 57q5 17 15.5 24t33.5 7q21 0 29.5 -5.5t8.5 -19.5q0 -11 -3 -30l-5 -26q-5 -24 -18 -45l-55 -95q-4 -6 -7 -6q-4 0 -18 6q-18 8 -18 11t2 7z" />
    <glyph glyph-name="lcaron" unicode="&#x13e;" horiz-adv-x="272" 
d="M249 64l9 -61q-46 -14 -99 -14q-42 0 -59 15.5t-17 47.5q0 24 8 66l102 578l85 14l-108 -607q-3 -21 -3 -25q0 -24 29 -24q25 0 53 10zM305 495l36 71q6 14 6 16q0 5 -8 11t-8 17q0 26 9 57q5 17 15.5 24t33.5 7q21 0 29.5 -5.5t8.5 -19.5q0 -11 -3 -30l-5 -26
q-5 -24 -18 -45l-55 -95q-4 -6 -7 -6q-4 0 -18 6q-18 8 -18 11t2 7z" />
    <glyph glyph-name="Lslash" unicode="&#x141;" horiz-adv-x="483" 
d="M284 684l-46 -263l191 113l-16 -90l-191 -113l-45 -257h286l-13 -74h-370l48 276l-89 -52l16 90l89 52l56 318h84z" />
    <glyph glyph-name="lslash" unicode="&#x142;" horiz-adv-x="272" 
d="M249 64l9 -61q-46 -14 -99 -14q-42 0 -59 15.5t-17 47.5q0 24 8 66l28 157l-79 -46l15 84l79 46l59 337l85 14l-53 -296l90 53l-15 -84l-90 -53l-40 -227q-3 -21 -3 -25q0 -24 29 -24q25 0 53 10z" />
    <glyph glyph-name="Nacute" unicode="&#x143;" horiz-adv-x="647" 
d="M469 0l-211 549l-96 -549h-82l120 684h97l209 -555l98 555h82l-120 -684h-97zM389 728l-4 58l206 100l-9 -77z" />
    <glyph glyph-name="nacute" unicode="&#x144;" horiz-adv-x="521" 
d="M450 0h-82l65 374q1 5 1 15q0 37 -43 37q-29 0 -78.5 -16.5t-91.5 -38.5l-65 -371h-82l85 487h73v-45q108 56 189 56q99 0 99 -83q0 -17 -3 -33zM294 545l-4 58l206 100l-9 -77z" />
    <glyph glyph-name="Ncommaaccent" unicode="&#x145;" horiz-adv-x="647" 
d="M469 0l-211 549l-96 -549h-82l120 684h97l209 -555l98 555h82l-120 -684h-97zM253 -191l21 38q3 6 3 13q0 2 -7 6q-9 4 -9 15q0 28 3 37q4 15 15.5 21t34.5 6q22 0 29.5 -4.5t7.5 -16.5q0 -4 -2 -20l-4 -19q-4 -18 -14 -34l-38 -57q-4 -6 -7 -6q-6 0 -20 6q-15 6 -15 9
q0 2 2 6z" />
    <glyph glyph-name="ncommaaccent" unicode="&#x146;" horiz-adv-x="521" 
d="M450 0h-82l65 374q1 5 1 15q0 37 -43 37q-29 0 -78.5 -16.5t-91.5 -38.5l-65 -371h-82l85 487h73v-45q108 56 189 56q99 0 99 -83q0 -17 -3 -33zM190 -191l21 38q3 6 3 13q0 2 -7 6q-9 4 -9 15q0 28 3 37q4 15 15.5 21t34.5 6q22 0 29.5 -4.5t7.5 -16.5q0 -4 -2 -20
l-4 -19q-4 -18 -14 -34l-38 -57q-4 -6 -7 -6q-6 0 -20 6q-15 6 -15 9q0 2 2 6z" />
    <glyph glyph-name="Ncaron" unicode="&#x147;" horiz-adv-x="647" 
d="M469 0l-211 549l-96 -549h-82l120 684h97l209 -555l98 555h82l-120 -684h-97zM466 801l142 71l11 -57l-166 -91l-139 92l37 55z" />
    <glyph glyph-name="ncaron" unicode="&#x148;" horiz-adv-x="521" 
d="M450 0h-82l65 374q1 5 1 15q0 37 -43 37q-29 0 -78.5 -16.5t-91.5 -38.5l-65 -371h-82l85 487h73v-45q108 56 189 56q99 0 99 -83q0 -17 -3 -33zM371 618l142 71l11 -57l-166 -91l-139 92l37 55z" />
    <glyph glyph-name="Omacron" unicode="&#x14c;" horiz-adv-x="634" 
d="M516 212q17 64 32 155.5t15 136.5q0 61 -30 89t-107 28q-85 0 -125.5 -34.5t-61.5 -112.5q-17 -60 -32.5 -155.5t-15.5 -138.5q0 -61 30 -89t107 -28q86 0 126.5 35t61.5 114zM647 509q0 -57 -15 -153.5t-38 -166.5q-32 -100 -96.5 -150t-182.5 -50q-115 0 -162 46
t-47 139q0 50 15 147t36 167q32 104 96.5 155.5t185.5 51.5q115 0 161.5 -46t46.5 -140zM325 764l11 60h251l-11 -60h-251z" />
    <glyph glyph-name="omacron" unicode="&#x14d;" 
d="M334 427q-61 0 -90.5 -22.5t-46.5 -80.5q-29 -108 -29 -181q0 -47 22.5 -65.5t78.5 -18.5q66 0 95.5 26t45.5 97q24 102 24 162q0 46 -22 64.5t-78 18.5zM256 -12q-94 0 -132.5 37.5t-38.5 113.5q0 96 33 197q26 81 78.5 121.5t149.5 40.5q94 0 132.5 -37.5t38.5 -113.5
q0 -87 -31 -190q-26 -85 -78.5 -127t-151.5 -42zM235 581l11 60h251l-11 -60h-251z" />
    <glyph glyph-name="Ohungarumlaut" unicode="&#x150;" horiz-adv-x="634" 
d="M516 212q17 64 32 155.5t15 136.5q0 61 -30 89t-107 28q-85 0 -125.5 -34.5t-61.5 -112.5q-17 -60 -32.5 -155.5t-15.5 -138.5q0 -61 30 -89t107 -28q86 0 126.5 35t61.5 114zM647 509q0 -57 -15 -153.5t-38 -166.5q-32 -100 -96.5 -150t-182.5 -50q-115 0 -162 46
t-47 139q0 50 15 147t36 167q32 104 96.5 155.5t185.5 51.5q115 0 161.5 -46t46.5 -140zM336 720l-42 26l130 129l63 -20zM509 720l-43 26l130 129l64 -20z" />
    <glyph glyph-name="ohungarumlaut" unicode="&#x151;" 
d="M334 427q-61 0 -90.5 -22.5t-46.5 -80.5q-29 -108 -29 -181q0 -47 22.5 -65.5t78.5 -18.5q66 0 95.5 26t45.5 97q24 102 24 162q0 46 -22 64.5t-78 18.5zM256 -12q-94 0 -132.5 37.5t-38.5 113.5q0 96 33 197q26 81 78.5 121.5t149.5 40.5q94 0 132.5 -37.5t38.5 -113.5
q0 -87 -31 -190q-26 -85 -78.5 -127t-151.5 -42zM246 537l-42 26l130 129l63 -20zM419 537l-43 26l130 129l64 -20z" />
    <glyph glyph-name="OE" unicode="&#x152;" horiz-adv-x="888" 
d="M831 0h-410q-78 -6 -102 -6q-118 0 -165 49.5t-47 141.5q0 53 14.5 143.5t36.5 159.5q33 99 98 150.5t186 51.5q37 0 99 -6h409l-13 -74h-306l-38 -217h274l-13 -74h-274l-43 -245h307zM333 69q62 0 120 10l94 528q-57 10 -118 10q-88 0 -130 -35.5t-63 -115.5
q-17 -60 -30.5 -145t-13.5 -128q0 -62 31.5 -93t109.5 -31z" />
    <glyph glyph-name="oe" unicode="&#x153;" horiz-adv-x="794" 
d="M498 207q-8 -47 -8 -70q0 -46 24.5 -63t81.5 -17q82 0 165 25l-7 -69q-88 -25 -181 -25q-112 0 -147 67q-65 -67 -170 -67q-94 0 -132.5 37.5t-38.5 113.5q0 96 33 197q26 82 78.5 122t149.5 40q112 0 148 -68q63 68 170 68q86 0 120.5 -34t34.5 -101q0 -167 -203 -167
q-49 0 -118 11zM422 243q12 72 12 101q0 46 -22 64.5t-78 18.5q-61 0 -90.5 -22.5t-46.5 -80.5q-29 -108 -29 -181q0 -47 22.5 -65.5t78.5 -18.5q77 0 105 37t48 147zM509 275q53 -10 107 -10q124 0 124 92q0 37 -21 55t-68 18q-55 0 -85.5 -25t-46.5 -84q-4 -15 -10 -46z
" />
    <glyph glyph-name="Racute" unicode="&#x154;" horiz-adv-x="598" 
d="M474 0l-117 266h-147l-46 -266h-84l120 684h255q82 0 115.5 -32t33.5 -94q0 -116 -46 -204q-35 -64 -108 -81l119 -273h-95zM491 402q26 63 26 139q0 41 -19.5 55t-64.5 14h-162l-48 -270h160q44 0 69 14t39 48zM334 728l-4 58l206 100l-9 -77z" />
    <glyph glyph-name="racute" unicode="&#x155;" horiz-adv-x="332" 
d="M403 499l-14 -81q-87 -13 -170 -65l-62 -353h-82l85 487h74l-3 -59q77 53 172 71zM210 545l-4 58l206 100l-9 -77z" />
    <glyph glyph-name="Rcommaaccent" unicode="&#x156;" horiz-adv-x="598" 
d="M474 0l-117 266h-147l-46 -266h-84l120 684h255q82 0 115.5 -32t33.5 -94q0 -116 -46 -204q-35 -64 -108 -81l119 -273h-95zM491 402q26 63 26 139q0 41 -19.5 55t-64.5 14h-162l-48 -270h160q44 0 69 14t39 48zM228 -191l21 38q3 6 3 13q0 2 -7 6q-9 4 -9 15q0 28 3 37
q4 15 15.5 21t34.5 6q22 0 29.5 -4.5t7.5 -16.5q0 -4 -2 -20l-4 -19q-4 -18 -14 -34l-38 -57q-4 -6 -7 -6q-6 0 -20 6q-15 6 -15 9q0 2 2 6z" />
    <glyph glyph-name="rcommaaccent" unicode="&#x157;" horiz-adv-x="332" 
d="M403 499l-14 -81q-87 -13 -170 -65l-62 -353h-82l85 487h74l-3 -59q77 53 172 71zM48 -191l21 38q3 6 3 13q0 2 -7 6q-9 4 -9 15q0 28 3 37q4 15 15.5 21t34.5 6q22 0 29.5 -4.5t7.5 -16.5q0 -4 -2 -20l-4 -19q-4 -18 -14 -34l-38 -57q-4 -6 -7 -6q-6 0 -20 6
q-15 6 -15 9q0 2 2 6z" />
    <glyph glyph-name="Rcaron" unicode="&#x158;" horiz-adv-x="598" 
d="M474 0l-117 266h-147l-46 -266h-84l120 684h255q82 0 115.5 -32t33.5 -94q0 -116 -46 -204q-35 -64 -108 -81l119 -273h-95zM491 402q26 63 26 139q0 41 -19.5 55t-64.5 14h-162l-48 -270h160q44 0 69 14t39 48zM421 801l142 71l11 -57l-166 -91l-139 92l37 55z" />
    <glyph glyph-name="rcaron" unicode="&#x159;" horiz-adv-x="332" 
d="M403 499l-14 -81q-87 -13 -170 -65l-62 -353h-82l85 487h74l-3 -59q77 53 172 71zM297 618l142 71l11 -57l-166 -91l-139 92l37 55z" />
    <glyph glyph-name="Sacute" unicode="&#x15a;" horiz-adv-x="533" 
d="M516 242q0 -92 -43 -160q-59 -94 -226 -94q-98 0 -186 27l23 79q84 -31 178 -31q114 0 146 64q18 33 18 88q0 44 -28 62t-110 40q-78 21 -112.5 48t-34.5 84q0 91 48 161q60 85 214 85q88 0 175 -20l-21 -79q-82 25 -166 25q-112 0 -141 -60q-18 -36 -18 -84
q0 -41 27 -58t108 -40q83 -24 116 -51.5t33 -85.5zM332 728l-4 58l206 100l-9 -77z" />
    <glyph glyph-name="sacute" unicode="&#x15b;" horiz-adv-x="435" 
d="M417 188q0 -27 -8.5 -67t-25.5 -65q-46 -67 -177 -67q-89 0 -150 21l23 69q70 -21 143 -21q42 0 64 7t33 29q15 27 15 66q0 19 -16.5 28.5t-69.5 22.5q-78 20 -106 41.5t-28 60.5q0 60 23 106q40 79 178 79q82 0 143 -14l-22 -70q-80 16 -142 16q-39 0 -58.5 -8
t-27.5 -26q-11 -25 -11 -56q0 -18 13.5 -27.5t54.5 -20.5q91 -24 121.5 -45t30.5 -59zM251 545l-4 58l206 100l-9 -77z" />
    <glyph glyph-name="Scircumflex" unicode="&#x15c;" horiz-adv-x="533" 
d="M516 242q0 -92 -43 -160q-59 -94 -226 -94q-98 0 -186 27l23 79q84 -31 178 -31q114 0 146 64q18 33 18 88q0 44 -28 62t-110 40q-78 21 -112.5 48t-34.5 84q0 91 48 161q60 85 214 85q88 0 175 -20l-21 -79q-82 25 -166 25q-112 0 -141 -60q-18 -36 -18 -84
q0 -41 27 -58t108 -40q83 -24 116 -51.5t33 -85.5zM414 800l-141 -71l-11 57l166 91l139 -92l-37 -55z" />
    <glyph glyph-name="scircumflex" unicode="&#x15d;" horiz-adv-x="435" 
d="M417 188q0 -27 -8.5 -67t-25.5 -65q-46 -67 -177 -67q-89 0 -150 21l23 69q70 -21 143 -21q42 0 64 7t33 29q15 27 15 66q0 19 -16.5 28.5t-69.5 22.5q-78 20 -106 41.5t-28 60.5q0 60 23 106q40 79 178 79q82 0 143 -14l-22 -70q-80 16 -142 16q-39 0 -58.5 -8
t-27.5 -26q-11 -25 -11 -56q0 -18 13.5 -27.5t54.5 -20.5q91 -24 121.5 -45t30.5 -59zM333 617l-141 -71l-11 57l166 91l139 -92l-37 -55z" />
    <glyph glyph-name="Scedilla" unicode="&#x15e;" horiz-adv-x="533" 
d="M267 -140l6 35q1 10 -8 13t-28 3q-7 0 -19 -2l-26 13l27 67q-86 3 -158 26l23 79q84 -31 178 -31q114 0 146 64q18 33 18 88q0 44 -28 62t-110 40q-78 21 -112.5 48t-34.5 84q0 91 48 161q60 85 214 85q88 0 175 -20l-21 -79q-82 25 -166 25q-112 0 -141 -60
q-18 -36 -18 -84q0 -41 27 -58t108 -40q83 -24 116 -51.5t33 -85.5q0 -92 -43 -160q-55 -87 -206 -93l-15 -36q87 0 87 -46q0 -7 -1 -11l-7 -41q-10 -57 -110 -57q-43 0 -80 8l17 45q31 -7 60 -7q46 0 49 16z" />
    <glyph glyph-name="scedilla" unicode="&#x15f;" horiz-adv-x="435" 
d="M218 -140l6 35q1 10 -8 13t-28 3q-7 0 -19 -2l-26 13l28 68q-75 5 -115 20l23 69q70 -21 143 -21q42 0 64 7t33 29q15 27 15 66q0 19 -16.5 28.5t-69.5 22.5q-78 20 -106 41.5t-28 60.5q0 60 23 106q40 79 178 79q82 0 143 -14l-22 -70q-80 16 -142 16q-39 0 -58.5 -8
t-27.5 -26q-11 -25 -11 -56q0 -18 13.5 -27.5t54.5 -20.5q91 -24 121.5 -45t30.5 -59q0 -27 -8.5 -67t-25.5 -65q-44 -64 -165 -67l-15 -36q87 0 87 -46q0 -7 -1 -11l-7 -41q-10 -57 -110 -57q-43 0 -80 8l17 45q31 -7 60 -7q46 0 49 16z" />
    <glyph glyph-name="Scaron" unicode="&#x160;" horiz-adv-x="533" 
d="M516 242q0 -92 -43 -160q-59 -94 -226 -94q-98 0 -186 27l23 79q84 -31 178 -31q114 0 146 64q18 33 18 88q0 44 -28 62t-110 40q-78 21 -112.5 48t-34.5 84q0 91 48 161q60 85 214 85q88 0 175 -20l-21 -79q-82 25 -166 25q-112 0 -141 -60q-18 -36 -18 -84
q0 -41 27 -58t108 -40q83 -24 116 -51.5t33 -85.5zM409 801l142 71l11 -57l-166 -91l-139 92l37 55z" />
    <glyph glyph-name="scaron" unicode="&#x161;" horiz-adv-x="435" 
d="M417 188q0 -27 -8.5 -67t-25.5 -65q-46 -67 -177 -67q-89 0 -150 21l23 69q70 -21 143 -21q42 0 64 7t33 29q15 27 15 66q0 19 -16.5 28.5t-69.5 22.5q-78 20 -106 41.5t-28 60.5q0 60 23 106q40 79 178 79q82 0 143 -14l-22 -70q-80 16 -142 16q-39 0 -58.5 -8
t-27.5 -26q-11 -25 -11 -56q0 -18 13.5 -27.5t54.5 -20.5q91 -24 121.5 -45t30.5 -59zM328 618l142 71l11 -57l-166 -91l-139 92l37 55z" />
    <glyph glyph-name="Tcommaaccent" unicode="&#x162;" horiz-adv-x="524" 
d="M220 0l107 610h-197l13 74h478l-13 -74h-198l-107 -610h-83zM191 -191l21 38q3 6 3 13q0 2 -7 6q-9 4 -9 15q0 28 3 37q4 15 15.5 21t34.5 6q22 0 29.5 -4.5t7.5 -16.5q0 -4 -2 -20l-4 -19q-4 -18 -14 -34l-38 -57q-4 -6 -7 -6q-6 0 -20 6q-15 6 -15 9q0 2 2 6z" />
    <glyph glyph-name="tcommaaccent" unicode="&#x163;" horiz-adv-x="362" 
d="M326 6q-61 -16 -116 -16q-53 0 -74.5 18t-21.5 58q0 23 6 53l53 300h-77l12 68h77l22 123l85 14l-25 -137h136l-25 -68h-123l-52 -298q-4 -26 -4 -32q0 -17 9 -23.5t33 -6.5q40 0 91 16zM140 -191l21 38q3 6 3 13q0 2 -7 6q-9 4 -9 15q0 28 3 37q4 15 15.5 21t34.5 6
q22 0 29.5 -4.5t7.5 -16.5q0 -4 -2 -20l-4 -19q-4 -18 -14 -34l-38 -57q-4 -6 -7 -6q-6 0 -20 6q-15 6 -15 9q0 2 2 6z" />
    <glyph glyph-name="Tcaron" unicode="&#x164;" horiz-adv-x="524" 
d="M220 0l107 610h-197l13 74h478l-13 -74h-198l-107 -610h-83zM404 801l142 71l11 -57l-166 -91l-139 92l37 55z" />
    <glyph glyph-name="tcaron" unicode="&#x165;" horiz-adv-x="362" 
d="M326 6q-61 -16 -116 -16q-53 0 -74.5 18t-21.5 58q0 23 6 53l53 300h-77l12 68h77l22 123l85 14l-25 -137h136l-25 -68h-123l-52 -298q-4 -26 -4 -32q0 -17 9 -23.5t33 -6.5q40 0 91 16zM350 562l21 38q3 6 3 13q0 3 -7 6q-9 5 -9 15q0 28 3 37q4 15 15.5 21t34.5 6
q22 0 29.5 -4.5t7.5 -16.5q0 -4 -2 -20l-4 -19q-4 -18 -14 -34l-38 -57q-4 -6 -7 -6q-6 0 -20 6q-15 6 -15 9q0 2 2 6z" />
    <glyph glyph-name="Umacron" unicode="&#x16a;" horiz-adv-x="630" 
d="M676 684l-80 -457q-42 -238 -283 -238q-205 0 -205 174q0 31 6 64l80 457h84l-82 -465q-5 -28 -5 -46q0 -110 135 -110q82 0 126 39t58 117l82 465h84zM323 764l11 60h251l-11 -60h-251z" />
    <glyph glyph-name="umacron" unicode="&#x16b;" horiz-adv-x="521" 
d="M155 487h82l-66 -374q-1 -5 -1 -14q0 -38 43 -38q65 0 171 55l65 371h82l-85 -487h-73v45q-106 -56 -189 -56q-99 0 -99 84q0 15 3 32zM237 581l11 60h251l-11 -60h-251z" />
    <glyph glyph-name="Ubreve" unicode="&#x16c;" horiz-adv-x="630" 
d="M676 684l-80 -457q-42 -238 -283 -238q-205 0 -205 174q0 31 6 64l80 457h84l-82 -465q-5 -28 -5 -46q0 -110 135 -110q82 0 126 39t58 117l82 465h84zM541 850l49 -15q-31 -108 -149 -108q-53 0 -83 25t-27 83l54 15q0 -1 1 -8.5t1.5 -10t2 -9.5t3.5 -10.5t5 -9t8 -8.5
t11 -6t15 -4.5t19 -1.5q22 0 39 6.5t27.5 20.5t14 20.5t9.5 20.5z" />
    <glyph glyph-name="ubreve" unicode="&#x16d;" horiz-adv-x="521" 
d="M155 487h82l-66 -374q-1 -5 -1 -14q0 -38 43 -38q65 0 171 55l65 371h82l-85 -487h-73v45q-106 -56 -189 -56q-99 0 -99 84q0 15 3 32zM455 667l49 -15q-31 -108 -149 -108q-53 0 -83 25t-27 83l54 15q0 -1 1 -8.5t1.5 -10t2 -9.5t3.5 -10.5t5 -9t8 -8.5t11 -6t15 -4.5
t19 -1.5q22 0 39 6.5t27.5 20.5t14 20.5t9.5 20.5z" />
    <glyph glyph-name="Uring" unicode="&#x16e;" horiz-adv-x="630" 
d="M676 684l-80 -457q-42 -238 -283 -238q-205 0 -205 174q0 31 6 64l80 457h84l-82 -465q-5 -28 -5 -46q0 -110 135 -110q82 0 126 39t58 117l82 465h84zM444 726q-31 0 -50.5 17.5t-19.5 45.5q0 40 26.5 65.5t66.5 25.5q31 0 50 -17.5t19 -45.5q0 -41 -26 -66t-66 -25z
M463 843q-22 0 -35 -14t-13 -37q0 -29 34 -29q20 0 33.5 13.5t13.5 35.5q0 31 -33 31z" />
    <glyph glyph-name="uring" unicode="&#x16f;" horiz-adv-x="521" 
d="M155 487h82l-66 -374q-1 -5 -1 -14q0 -38 43 -38q65 0 171 55l65 371h82l-85 -487h-73v45q-106 -56 -189 -56q-99 0 -99 84q0 15 3 32zM358 543q-31 0 -50.5 17.5t-19.5 45.5q0 40 26.5 65.5t66.5 25.5q31 0 50 -17.5t19 -45.5q0 -41 -26 -66t-66 -25zM377 660
q-22 0 -35 -14t-13 -37q0 -29 34 -29q20 0 33.5 13.5t13.5 35.5q0 31 -33 31z" />
    <glyph glyph-name="Uhungarumlaut" unicode="&#x170;" horiz-adv-x="630" 
d="M676 684l-80 -457q-42 -238 -283 -238q-205 0 -205 174q0 31 6 64l80 457h84l-82 -465q-5 -28 -5 -46q0 -110 135 -110q82 0 126 39t58 117l82 465h84zM334 720l-42 26l130 129l63 -20zM507 720l-43 26l130 129l64 -20z" />
    <glyph glyph-name="uhungarumlaut" unicode="&#x171;" horiz-adv-x="521" 
d="M155 487h82l-66 -374q-1 -5 -1 -14q0 -38 43 -38q65 0 171 55l65 371h82l-85 -487h-73v45q-106 -56 -189 -56q-99 0 -99 84q0 15 3 32zM248 537l-42 26l130 129l63 -20zM421 537l-43 26l130 129l64 -20z" />
    <glyph glyph-name="Uogonek" unicode="&#x172;" horiz-adv-x="630" 
d="M364 -192q-24 -10 -63 -10q-44 0 -68 18t-24 47q0 71 71 127q-172 13 -172 173q0 31 6 64l80 457h84l-82 -465q-5 -28 -5 -46q0 -110 135 -110q82 0 126 39t58 117l82 465h84l-80 -457q-38 -214 -237 -235q-85 -53 -85 -113q0 -14 12 -23.5t32 -9.5q24 0 46 6v-44z" />
    <glyph glyph-name="uogonek" unicode="&#x173;" horiz-adv-x="521" 
d="M439 -192q-24 -10 -63 -10q-44 0 -68 18t-24 47q0 80 88 139h1v43q-106 -56 -189 -56q-99 0 -99 84q0 15 3 32l67 382h82l-66 -374q-1 -5 -1 -14q0 -38 43 -38q65 0 171 55l65 371h82l-85 -485h8q-45 -23 -75 -56.5t-30 -66.5q0 -14 12 -23.5t32 -9.5q23 0 46 6v-44z" />
    <glyph glyph-name="Wcircumflex" unicode="&#x174;" horiz-adv-x="856" 
d="M558 0l-33 552l-230 -552h-107l-43 684h84l31 -585l243 585h90l35 -587l235 587h88l-285 -684h-108zM565 800l-141 -71l-11 57l166 91l139 -92l-37 -55z" />
    <glyph glyph-name="wcircumflex" unicode="&#x175;" horiz-adv-x="693" 
d="M235 0h-93l-38 487h80l25 -396l162 309h91l54 -309l157 396h86l-208 -487h-93l-54 325zM452 617l-141 -71l-11 57l166 91l139 -92l-37 -55z" />
    <glyph glyph-name="Ycircumflex" unicode="&#x176;" horiz-adv-x="547" 
d="M219 684l112 -355l237 355h92l-303 -445l-42 -239h-83l42 239l-147 445h92zM411 800l-141 -71l-11 57l166 91l139 -92l-37 -55z" />
    <glyph glyph-name="ycircumflex" unicode="&#x177;" horiz-adv-x="455" 
d="M444 487h88l-370 -685h-82l110 195l-95 490h90l66 -374zM333 617l-141 -71l-11 57l166 91l139 -92l-37 -55z" />
    <glyph glyph-name="Ydieresis" unicode="&#x178;" horiz-adv-x="547" 
d="M219 684l112 -355l237 355h92l-303 -445l-42 -239h-83l42 239l-147 445h92zM457 776q0 26 8 53q5 15 15 21t33 6q22 0 30 -5t8 -19q0 -29 -11 -60q-8 -20 -45 -20q-22 0 -30 5t-8 19zM278 776q0 26 8 53q5 15 15 21t33 6q22 0 30 -5t8 -19q0 -29 -11 -60q-8 -20 -45 -20
q-22 0 -30 5t-8 19z" />
    <glyph glyph-name="Zacute" unicode="&#x179;" horiz-adv-x="565" 
d="M611 614l-446 -540h355l-13 -74h-453l11 68l447 542h-344l13 74h442zM348 728l-4 58l206 100l-9 -77z" />
    <glyph glyph-name="zacute" unicode="&#x17a;" horiz-adv-x="452" 
d="M135 420l11 67h334l-11 -64l-314 -356h259l-11 -67h-354l10 60l317 360h-241zM259 545l-4 58l206 100l-9 -77z" />
    <glyph glyph-name="Zdotaccent" unicode="&#x17b;" horiz-adv-x="565" 
d="M611 614l-446 -540h355l-13 -74h-453l11 68l447 542h-344l13 74h442zM376 776q0 26 8 53q5 15 15 21t33 6q22 0 30 -5t8 -19q0 -29 -11 -60q-8 -20 -45 -20q-22 0 -30 5t-8 19z" />
    <glyph glyph-name="zdotaccent" unicode="&#x17c;" horiz-adv-x="452" 
d="M135 420l11 67h334l-11 -64l-314 -356h259l-11 -67h-354l10 60l317 360h-241zM288 593q0 26 8 53q5 15 15 21t33 6q22 0 30 -5t8 -19q0 -29 -11 -60q-8 -20 -45 -20q-22 0 -30 5t-8 19z" />
    <glyph glyph-name="Zcaron" unicode="&#x17d;" horiz-adv-x="565" 
d="M611 614l-446 -540h355l-13 -74h-453l11 68l447 542h-344l13 74h442zM425 801l142 71l11 -57l-166 -91l-139 92l37 55z" />
    <glyph glyph-name="zcaron" unicode="&#x17e;" horiz-adv-x="452" 
d="M135 420l11 67h334l-11 -64l-314 -356h259l-11 -67h-354l10 60l317 360h-241zM336 618l142 71l11 -57l-166 -91l-139 92l37 55z" />
    <glyph glyph-name="florin" unicode="&#x192;" horiz-adv-x="457" 
d="M234 349h-98l18 67h97l22 89q26 105 74.5 156t153.5 51q39 0 66 -8l-20 -67q-29 9 -46 9q-73 0 -101 -28.5t-48 -110.5l-22 -91h133l-19 -67h-131l-82 -329q-28 -112 -77.5 -169.5t-145.5 -57.5q-34 0 -63 6l21 66q25 -5 43 -5q63 0 90 32t47 110z" />
    <glyph glyph-name="Scommaaccent" unicode="&#x218;" horiz-adv-x="533" 
d="M516 242q0 -92 -43 -160q-59 -94 -226 -94q-98 0 -186 27l23 79q84 -31 178 -31q114 0 146 64q18 33 18 88q0 44 -28 62t-110 40q-78 21 -112.5 48t-34.5 84q0 91 48 161q60 85 214 85q88 0 175 -20l-21 -79q-82 25 -166 25q-112 0 -141 -60q-18 -36 -18 -84
q0 -41 27 -58t108 -40q83 -24 116 -51.5t33 -85.5zM196 -191l21 38q3 6 3 13q0 2 -7 6q-9 4 -9 15q0 28 3 37q4 15 15.5 21t34.5 6q22 0 29.5 -4.5t7.5 -16.5q0 -4 -2 -20l-4 -19q-4 -18 -14 -34l-38 -57q-4 -6 -7 -6q-6 0 -20 6q-15 6 -15 9q0 2 2 6z" />
    <glyph glyph-name="scommaaccent" unicode="&#x219;" horiz-adv-x="435" 
d="M417 188q0 -27 -8.5 -67t-25.5 -65q-46 -67 -177 -67q-89 0 -150 21l23 69q70 -21 143 -21q42 0 64 7t33 29q15 27 15 66q0 19 -16.5 28.5t-69.5 22.5q-78 20 -106 41.5t-28 60.5q0 60 23 106q40 79 178 79q82 0 143 -14l-22 -70q-80 16 -142 16q-39 0 -58.5 -8
t-27.5 -26q-11 -25 -11 -56q0 -18 13.5 -27.5t54.5 -20.5q91 -24 121.5 -45t30.5 -59zM147 -191l21 38q3 6 3 13q0 2 -7 6q-9 4 -9 15q0 28 3 37q4 15 15.5 21t34.5 6q22 0 29.5 -4.5t7.5 -16.5q0 -4 -2 -20l-4 -19q-4 -18 -14 -34l-38 -57q-4 -6 -7 -6q-6 0 -20 6
q-15 6 -15 9q0 2 2 6z" />
    <glyph glyph-name="uni021a" unicode="&#x21a;" horiz-adv-x="524" 
d="M220 0l107 610h-197l13 74h478l-13 -74h-198l-107 -610h-83zM191 -191l21 38q3 6 3 13q0 2 -7 6q-9 4 -9 15q0 28 3 37q4 15 15.5 21t34.5 6q22 0 29.5 -4.5t7.5 -16.5q0 -4 -2 -20l-4 -19q-4 -18 -14 -34l-38 -57q-4 -6 -7 -6q-6 0 -20 6q-15 6 -15 9q0 2 2 6z" />
    <glyph glyph-name="uni021b" unicode="&#x21b;" horiz-adv-x="362" 
d="M326 6q-61 -16 -116 -16q-53 0 -74.5 18t-21.5 58q0 23 6 53l53 300h-77l12 68h77l22 123l85 14l-25 -137h136l-25 -68h-123l-52 -298q-4 -26 -4 -32q0 -17 9 -23.5t33 -6.5q40 0 91 16zM140 -191l21 38q3 6 3 13q0 2 -7 6q-9 4 -9 15q0 28 3 37q4 15 15.5 21t34.5 6
q22 0 29.5 -4.5t7.5 -16.5q0 -4 -2 -20l-4 -19q-4 -18 -14 -34l-38 -57q-4 -6 -7 -6q-6 0 -20 6q-15 6 -15 9q0 2 2 6z" />
    <glyph glyph-name="circumflex" unicode="&#x2c6;" horiz-adv-x="333" 
d="M272 617l-141 -71l-11 57l166 91l139 -92l-37 -55z" />
    <glyph glyph-name="caron" unicode="&#x2c7;" horiz-adv-x="333" 
d="M277 618l142 71l11 -57l-166 -91l-139 92l37 55z" />
    <glyph glyph-name="breve" unicode="&#x2d8;" horiz-adv-x="333" 
d="M364 667l49 -15q-31 -108 -149 -108q-53 0 -83 25t-27 83l54 15q0 -1 1 -8.5t1.5 -10t2 -9.5t3.5 -10.5t5 -9t8 -8.5t11 -6t15 -4.5t19 -1.5q22 0 39 6.5t27.5 20.5t14 20.5t9.5 20.5z" />
    <glyph glyph-name="dotaccent" unicode="&#x2d9;" horiz-adv-x="333" 
d="M228 593q0 26 8 53q5 15 15 21t33 6q22 0 30 -5t8 -19q0 -29 -11 -60q-8 -20 -45 -20q-22 0 -30 5t-8 19z" />
    <glyph glyph-name="ring" unicode="&#x2da;" horiz-adv-x="333" 
d="M263 543q-31 0 -50.5 17.5t-19.5 45.5q0 40 26.5 65.5t66.5 25.5q31 0 50 -17.5t19 -45.5q0 -41 -26 -66t-66 -25zM282 660q-22 0 -35 -14t-13 -37q0 -29 34 -29q20 0 33.5 13.5t13.5 35.5q0 31 -33 31z" />
    <glyph glyph-name="ogonek" unicode="&#x2db;" horiz-adv-x="333" 
d="M218 -192q-24 -10 -63 -10q-44 0 -68 18t-24 47q0 80 88 139h82q-45 -23 -75 -56.5t-30 -66.5q0 -14 12 -23.5t32 -9.5q24 0 46 6v-44z" />
    <glyph glyph-name="tilde" unicode="&#x2dc;" horiz-adv-x="333" 
d="M324 567q-23 1 -59.5 16t-54.5 15q-39 0 -72 -28l-2 59q39 34 89 34q29 0 64.5 -15.5t50.5 -15.5q38 0 72 28l1 -59q-37 -34 -89 -34z" />
    <glyph glyph-name="hungarumlaut" unicode="&#x2dd;" horiz-adv-x="333" 
d="M165 537l-42 26l130 129l63 -20zM338 537l-43 26l130 129l64 -20z" />
    <glyph glyph-name="uni0308" unicode="&#x308;" horiz-adv-x="333" 
d="M318 593q0 26 8 53q5 15 15 21t33 6q22 0 30 -5t8 -19q0 -29 -11 -60q-8 -20 -45 -20q-22 0 -30 5t-8 19zM139 593q0 26 8 53q5 15 15 21t33 6q22 0 30 -5t8 -19q0 -29 -11 -60q-8 -20 -45 -20q-22 0 -30 5t-8 19z" />
    <glyph glyph-name="uni037E" unicode="&#x37e;" horiz-adv-x="233" 
d="M170 310q-22 0 -30 5t-8 19q0 23 9 55q5 18 15 24.5t34 6.5q22 0 30 -5t8 -19q0 -41 -12 -65q-9 -21 -46 -21zM51 -100l36 71q6 14 6 16q0 5 -8 11t-8 17q0 25 9 57q5 17 15.5 24t33.5 7q21 0 29.5 -5.5t8.5 -19.5q0 -10 -3 -30l-5 -26q-5 -24 -18 -45l-55 -95
q-4 -6 -7 -6q-4 0 -18 6q-18 8 -18 11t2 7z" />
    <glyph glyph-name="anoteleia" unicode="&#x387;" horiz-adv-x="233" 
d="M156 229q-22 0 -30 5t-8 19q0 23 9 55q5 18 15 24.5t34 6.5q22 0 30 -5t8 -19q0 -41 -12 -65q-9 -21 -46 -21z" />
    <glyph glyph-name="Delta" unicode="&#x394;" horiz-adv-x="575" 
d="M22 0l8 49l331 635h96l104 -635l-8 -49h-531zM123 71h348l-62 394q-13 82 -16 140h-4q-28 -64 -66 -138z" />
    <glyph glyph-name="Omega" unicode="&#x3a9;" horiz-adv-x="627" 
d="M471 77v-3h117l-13 -74h-203l10 61q84 69 130 193q21 55 34 129t13 122q0 61 -30.5 88.5t-106.5 27.5q-81 0 -121.5 -31.5t-61.5 -101.5q-38 -128 -38 -228q0 -136 56 -199l-10 -61h-195l13 74h111v3q-58 84 -58 200q0 117 47 242q33 88 95.5 132t174.5 44
q115 0 162 -46.5t47 -138.5q0 -172 -75 -308q-40 -70 -98 -125z" />
    <glyph glyph-name="mu" unicode="&#x3bc;" horiz-adv-x="521" 
d="M33 -205l122 692h82l-66 -374q-1 -5 -1 -14q0 -38 43 -38q30 0 79.5 16.5t92.5 38.5l65 371h81l-85 -487h-73v45q-106 -56 -189 -56q-16 0 -34 4l-32 -184z" />
    <glyph glyph-name="pi" unicode="&#x3c0;" horiz-adv-x="572" 
d="M609 419h-73l-48 -275q-14 -80 -14 -119q0 -11 2 -25h-78q-5 10 -5 35q0 39 11 100l50 284h-170q-22 -103 -66 -232.5t-80 -186.5h-80q39 70 81 193.5t63 225.5q-69 0 -105 -9l-2 53q45 24 145 24h390z" />
    <glyph glyph-name="figuredash" unicode="&#x2012;" horiz-adv-x="568" 
d="M102 237l12 66h445l-12 -66h-445z" />
    <glyph glyph-name="endash" unicode="&#x2013;" horiz-adv-x="500" 
d="M37 237l12 66h508l-12 -66h-508z" />
    <glyph glyph-name="emdash" unicode="&#x2014;" horiz-adv-x="833" 
d="M37 237l12 66h841l-12 -66h-841z" />
    <glyph glyph-name="quoteleft" unicode="&#x2018;" horiz-adv-x="233" 
d="M280 686l-36 -71q-6 -14 -6 -16q0 -4 10 -14q5 -5 6 -15q3 -33 -7 -58q-11 -29 -50 -29q-22 0 -30.5 5.5t-8.5 19.5q0 6 4 30l5 26q4 23 17 45l56 95q3 6 8 6l2 -1q2 -1 6.5 -2.5t8.5 -3.5q18 -8 18 -11l-1 -2q-1 -3 -2 -4z" />
    <glyph glyph-name="quoteright" unicode="&#x2019;" horiz-adv-x="233" 
d="M155 495l36 71q6 14 6 16q0 5 -8 11t-8 17q0 26 9 57q5 17 15.5 24t33.5 7q21 0 29.5 -5.5t8.5 -19.5q0 -11 -3 -30l-5 -26q-5 -24 -18 -45l-55 -95q-4 -6 -7 -6q-4 0 -18 6q-18 8 -18 11t2 7z" />
    <glyph glyph-name="quotesinglbase" unicode="&#x201a;" horiz-adv-x="233" 
d="M51 -100l36 71q6 14 6 16q0 5 -8 11t-8 17q0 25 9 57q5 17 15.5 24t33.5 7q21 0 29.5 -5.5t8.5 -19.5q0 -10 -3 -30l-5 -26q-5 -24 -18 -45l-55 -95q-4 -6 -7 -6q-4 0 -18 6q-18 8 -18 11t2 7z" />
    <glyph glyph-name="quotedblleft" unicode="&#x201c;" horiz-adv-x="404" 
d="M280 686l-36 -71q-6 -14 -6 -16q0 -4 10 -14q5 -5 6 -15q3 -33 -7 -58q-11 -29 -50 -29q-22 0 -30.5 5.5t-8.5 19.5q0 6 4 30l5 26q4 23 17 45l56 95q3 6 8 6l2 -1q2 -1 6.5 -2.5t8.5 -3.5q18 -8 18 -11l-1 -2q-1 -3 -2 -4zM451 686l-36 -71q-6 -14 -6 -16q0 -4 10 -14
q5 -5 6 -15q3 -33 -7 -58q-11 -29 -50 -29q-22 0 -30.5 5.5t-8.5 19.5q0 6 4 30l5 26q4 23 17 45l56 95q3 6 8 6l2 -1q2 -1 6.5 -2.5t8.5 -3.5q18 -8 18 -11l-1 -2q-1 -3 -2 -4z" />
    <glyph glyph-name="quotedblright" unicode="&#x201d;" horiz-adv-x="404" 
d="M326 495l36 71q6 14 6 16q0 5 -8 11t-8 17q0 26 9 57q5 17 15.5 24t33.5 7q21 0 29.5 -5.5t8.5 -19.5q0 -11 -3 -30l-5 -26q-5 -24 -18 -45l-55 -95q-5 -6 -7 -6q-4 0 -18 6q-18 8 -18 11t2 7zM155 495l36 71q6 14 6 16q0 5 -8 11t-8 17q0 26 9 57q5 17 15.5 24t33.5 7
q21 0 29.5 -5.5t8.5 -19.5q0 -11 -3 -30l-5 -26q-5 -24 -18 -45l-55 -95q-4 -6 -7 -6q-4 0 -18 6q-18 8 -18 11t2 7z" />
    <glyph glyph-name="quotedblbase" unicode="&#x201e;" horiz-adv-x="404" 
d="M51 -100l36 71q6 14 6 16q0 5 -8 11t-8 17q0 25 9 57q5 17 15.5 24t33.5 7q21 0 29.5 -5.5t8.5 -19.5q0 -10 -3 -30l-5 -26q-5 -24 -18 -45l-55 -95q-4 -6 -7 -6q-4 0 -18 6q-18 8 -18 11t2 7zM222 -100l36 71q6 14 6 16q0 5 -8 11t-8 17q0 25 9 57q5 17 15.5 24t33.5 7
q21 0 29.5 -5.5t8.5 -19.5q0 -10 -3 -30l-5 -26q-5 -24 -18 -45l-55 -95q-5 -6 -7 -6q-4 0 -18 6q-18 8 -18 11t2 7z" />
    <glyph glyph-name="dagger" unicode="&#x2020;" horiz-adv-x="500" 
d="M127 417l21 71q49 -1 145 -1q19 104 33 191l83 10l-38 -201q108 0 160 1l-21 -71q-53 2 -151 2l-88 -504l-80 -10l90 514q-103 0 -154 -2z" />
    <glyph glyph-name="daggerdbl" unicode="&#x2021;" horiz-adv-x="500" 
d="M83 169l20 71q22 0 71.5 -0.5t75.5 -0.5l33 190q-62 0 -154 -2l19 71q22 0 71.5 -0.5t75.5 -0.5l31 181q52 6 83 10q-8 -39 -36 -191q27 0 82 0.5t77 0.5l-20 -71q-86 2 -151 2l-33 -190q112 0 159 1l-21 -71q-92 2 -150 2l-45 -256l-80 -10l47 266q-63 0 -155 -2z" />
    <glyph glyph-name="bullet" unicode="&#x2022;" horiz-adv-x="500" 
d="M162 347q0 62 43 105t104 43t104.5 -43.5t43.5 -104.5t-43 -104t-105 -43q-61 0 -104 43t-43 104z" />
    <glyph glyph-name="twodotenleader" unicode="&#x2025;" horiz-adv-x="555" 
d="M414 -7q-22 0 -30 5t-8 19q0 23 9 55q5 18 15 24.5t34 6.5q22 0 30 -5t8 -19q0 -41 -12 -65q-9 -21 -46 -21zM137 -7q-22 0 -30 5t-8 19q0 23 9 55q5 18 15 24.5t34 6.5q22 0 30 -5t8 -19q0 -41 -12 -65q-9 -21 -46 -21z" />
    <glyph glyph-name="ellipsis" unicode="&#x2026;" horiz-adv-x="833" 
d="M692 -7q-22 0 -30 5t-8 19q0 23 9 55q5 18 15 24.5t34 6.5q22 0 30 -5t8 -19q0 -41 -12 -65q-9 -21 -46 -21zM414 -7q-22 0 -30 5t-8 19q0 23 9 55q5 18 15 24.5t34 6.5q22 0 30 -5t8 -19q0 -41 -12 -65q-9 -21 -46 -21zM137 -7q-22 0 -30 5t-8 19q0 23 9 55
q5 18 15 24.5t34 6.5q22 0 30 -5t8 -19q0 -41 -12 -65q-9 -21 -46 -21z" />
    <glyph glyph-name="perthousand" unicode="&#x2030;" horiz-adv-x="1250" 
d="M1157 121q23 86 23 145q0 36 -15 49.5t-53 13.5q-41 0 -62 -16t-33 -60q-23 -86 -23 -145q0 -36 15 -49.5t53 -13.5q41 0 61.5 16.5t33.5 59.5zM1246 270q0 -84 -30 -168q-20 -56 -58 -84.5t-106 -28.5t-96 29t-28 86q0 83 30 167q20 56 58.5 85t105.5 29q68 0 96 -29
t28 -86zM736 686l-418 -697l-58 20l418 697zM352 431q23 86 23 145q0 36 -15 49.5t-53 13.5q-41 0 -62 -16t-33 -60q-23 -86 -23 -145q0 -36 15 -49.5t53 -13.5q41 0 61.5 16.5t33.5 59.5zM441 580q0 -84 -30 -168q-20 -56 -58 -84.5t-106 -28.5t-96 29t-28 86q0 83 30 167
q20 56 58.5 85t105.5 29q68 0 96 -29t28 -86zM777 121q23 86 23 145q0 36 -15 49.5t-53 13.5q-41 0 -62 -16t-33 -60q-23 -86 -23 -145q0 -36 15 -49.5t53 -13.5q41 0 61.5 16.5t33.5 59.5zM866 270q0 -84 -30 -168q-20 -56 -58 -84.5t-106 -28.5t-96 29t-28 86q0 83 30 167
q20 56 58.5 85t105.5 29q68 0 96 -29t28 -86z" />
    <glyph glyph-name="guilsinglleft" unicode="&#x2039;" horiz-adv-x="284" 
d="M76 210l12 68l187 180l45 -52l-173 -168l109 -161l-56 -47z" />
    <glyph glyph-name="guilsinglright" unicode="&#x203a;" horiz-adv-x="284" 
d="M294 278l-12 -68l-187 -180l-45 52l173 168l-109 161l56 47z" />
    <glyph glyph-name="fraction" unicode="&#x2044;" horiz-adv-x="150" 
d="M374 686l-418 -697l-57 20l417 697z" />
    <glyph glyph-name="zero.superior" unicode="&#x2070;" horiz-adv-x="387" 
d="M340 356q14 39 25.5 107.5t11.5 105.5q0 34 -16 49t-56 15q-39 0 -60 -14t-33 -44q-14 -34 -27.5 -110.5t-13.5 -112.5q0 -33 16 -48t57 -15t62 16t34 51zM444 574q0 -43 -13.5 -121t-31.5 -120q-44 -101 -165 -101q-72 0 -100.5 29.5t-28.5 85.5q0 44 14.5 125t34.5 124
q43 93 161 93q72 0 100.5 -30t28.5 -85z" />
    <glyph glyph-name="four.superior" unicode="&#x2074;" horiz-adv-x="388" 
d="M424 354h-60l-20 -115h-66l20 115h-211l10 55l254 275h71l-48 -275h60zM168 409h140l32 186z" />
    <glyph glyph-name="five.superior" unicode="&#x2075;" horiz-adv-x="387" 
d="M148 441l51 243h235l-10 -56h-176l-25 -127q44 2 58 2q63 0 91 -21t28 -66q0 -28 -9.5 -67.5t-28.5 -62.5q-43 -54 -145 -54q-70 0 -117 19l17 57q58 -20 109 -20q66 0 87 33q18 27 18 80q0 26 -16.5 36t-59.5 10q-33 0 -79 -6h-28z" />
    <glyph glyph-name="six.superior" unicode="&#x2076;" horiz-adv-x="387" 
d="M199 488q57 19 102 19q57 0 83 -21t26 -67q0 -63 -24 -109q-40 -78 -150 -78q-69 0 -96.5 27t-27.5 82q0 50 18 140t46 134q49 75 163 75q47 0 99 -13l-15 -57q-50 13 -88 13q-81 0 -109 -46q-14 -22 -27 -99zM288 450q-50 0 -99 -17q-12 -69 -12 -90q0 -29 15 -42.5
t55 -13.5q66 0 85 47q14 32 14 71q0 25 -13 35t-45 10z" />
    <glyph glyph-name="seven.superior" unicode="&#x2077;" horiz-adv-x="387" 
d="M173 628l10 56h275l-8 -46l-252 -399h-69l247 389h-203z" />
    <glyph glyph-name="eight.superior" unicode="&#x2078;" horiz-adv-x="387" 
d="M440 602q0 -46 -22 -81q-20 -31 -62 -49q58 -26 58 -81q0 -46 -19 -83q-19 -39 -57.5 -57.5t-104.5 -18.5q-72 0 -103.5 21t-31.5 69q0 62 25 97q23 33 73 53q-47 25 -47 73t20 82q38 63 145 63q126 0 126 -88zM333 325q14 30 14 58q0 26 -17.5 39.5t-58.5 21.5
q-75 -15 -93 -51q-11 -24 -11 -57q0 -28 17 -38.5t59 -10.5q72 0 90 38zM227 603q-13 -22 -13 -55q0 -23 15 -37t51 -21q64 15 81 47q12 24 12 53q0 23 -16 34t-53 11q-59 0 -77 -32z" />
    <glyph glyph-name="nine.superior" unicode="&#x2079;" horiz-adv-x="387" 
d="M349 434q-57 -19 -102 -19q-57 0 -83 21t-26 67q0 63 24 109q40 78 150 78q69 0 96.5 -27t27.5 -82q0 -50 -18 -140t-46 -134q-49 -75 -163 -75q-47 0 -99 13l15 57q50 -13 88 -13q81 0 109 46q14 22 27 99zM260 472q50 0 99 17q12 69 12 90q0 29 -15 42.5t-55 13.5
q-66 0 -85 -47q-14 -32 -14 -71q0 -25 13 -35t45 -10z" />
    <glyph glyph-name="zero.inferior" unicode="&#x2080;" horiz-adv-x="387" 
d="M298 117q14 39 25.5 107.5t11.5 105.5q0 34 -16 49t-56 15q-39 0 -60 -14t-33 -44q-14 -34 -27.5 -110.5t-13.5 -112.5q0 -33 16 -48t57 -15t62 16t34 51zM402 335q0 -43 -13.5 -121t-31.5 -120q-44 -101 -165 -101q-72 0 -100.5 29.5t-28.5 85.5q0 44 14.5 125t34.5 124
q43 93 161 93q72 0 100.5 -30t28.5 -85z" />
    <glyph glyph-name="one.inferior" unicode="&#x2081;" horiz-adv-x="387" 
d="M101 0l9 55h77l57 319l-87 -40l-5 57l115 54h54l-69 -390h74l-9 -55h-216z" />
    <glyph glyph-name="two.inferior" unicode="&#x2082;" horiz-adv-x="387" 
d="M59 0l9 52q132 120 165 154q87 89 87 145q0 23 -15.5 33.5t-50.5 10.5q-58 0 -120 -26l3 56q61 27 132 27q121 0 121 -83q0 -46 -26 -89.5t-84 -102.5q-47 -47 -130 -122h187l-9 -55h-269z" />
    <glyph glyph-name="three.inferior" unicode="&#x2083;" horiz-adv-x="387" 
d="M56 13l17 57q56 -22 111 -22q68 0 88 32q18 27 18 71q0 45 -65 45h-87l10 56h56q42 0 64.5 8.5t32.5 30.5q12 27 12 64q0 41 -66 41q-47 0 -112 -21l4 56q62 20 119 20q124 0 124 -82q0 -47 -22 -93q-16 -29 -51 -44q49 -16 49 -68q0 -69 -33 -114q-42 -57 -150 -57
q-64 0 -119 20z" />
    <glyph glyph-name="four.inferior" unicode="&#x2084;" horiz-adv-x="388" 
d="M382 115h-60l-20 -115h-66l20 115h-211l10 55l254 275h71l-48 -275h60zM126 170h140l32 186z" />
    <glyph glyph-name="five.inferior" unicode="&#x2085;" horiz-adv-x="387" 
d="M106 202l51 243h235l-10 -56h-176l-25 -127q44 2 58 2q63 0 91 -21t28 -66q0 -28 -9.5 -67.5t-28.5 -62.5q-43 -54 -145 -54q-70 0 -117 19l17 57q58 -20 109 -20q66 0 87 33q18 27 18 80q0 26 -16.5 36t-59.5 10q-33 0 -79 -6h-28z" />
    <glyph glyph-name="six.inferior" unicode="&#x2086;" horiz-adv-x="387" 
d="M157 249q57 19 102 19q57 0 83 -21t26 -67q0 -63 -24 -109q-40 -78 -150 -78q-69 0 -96.5 27t-27.5 82q0 50 18 140t46 134q49 75 163 75q47 0 99 -13l-15 -57q-50 13 -88 13q-81 0 -109 -46q-14 -22 -27 -99zM246 211q-50 0 -99 -17q-12 -69 -12 -90q0 -29 15 -42.5
t55 -13.5q66 0 85 47q14 32 14 71q0 25 -13 35t-45 10z" />
    <glyph glyph-name="seven.inferior" unicode="&#x2087;" horiz-adv-x="387" 
d="M131 389l10 56h275l-8 -46l-252 -399h-69l247 389h-203z" />
    <glyph glyph-name="eight.inferior" unicode="&#x2088;" horiz-adv-x="387" 
d="M398 363q0 -46 -22 -81q-20 -31 -62 -49q58 -26 58 -81q0 -46 -19 -83q-19 -39 -57.5 -57.5t-104.5 -18.5q-72 0 -103.5 21t-31.5 69q0 62 25 97q23 33 73 53q-47 25 -47 73t20 82q38 63 145 63q126 0 126 -88zM291 86q14 30 14 58q0 26 -17.5 39.5t-58.5 21.5
q-75 -15 -93 -51q-11 -24 -11 -57q0 -28 17 -38.5t59 -10.5q72 0 90 38zM185 364q-13 -22 -13 -55q0 -23 15 -37t51 -21q64 15 81 47q12 24 12 53q0 23 -16 34t-53 11q-59 0 -77 -32z" />
    <glyph glyph-name="nine.inferior" unicode="&#x2089;" horiz-adv-x="387" 
d="M307 195q-57 -19 -102 -19q-57 0 -83 21t-26 67q0 63 24 109q40 78 150 78q69 0 96.5 -27t27.5 -82q0 -50 -18 -140t-46 -134q-49 -75 -163 -75q-47 0 -99 13l15 57q50 -13 88 -13q81 0 109 46q14 22 27 99zM218 233q50 0 99 17q12 69 12 90q0 29 -15 42.5t-55 13.5
q-66 0 -85 -47q-14 -31 -14 -71q0 -25 13 -35t45 -10z" />
    <glyph glyph-name="Euro" unicode="&#x20ac;" horiz-adv-x="568" 
d="M107 379l21 66h77q27 122 88.5 181t184.5 59q84 0 157 -19l-21 -73q-64 20 -123 20q-98 0 -138.5 -33t-64.5 -135h243l-22 -66h-235l-15 -88h227l-22 -66h-215q-4 -40 -4 -54q0 -61 30.5 -86t107.5 -25q70 0 150 20l-6 -72q-78 -19 -159 -19q-116 0 -161 42t-45 129
q0 34 4 65h-86l21 66h75l15 88h-84z" />
    <glyph glyph-name="trademark" unicode="&#x2122;" horiz-adv-x="593" 
d="M614 423h-47l29 162l-75 -122h-42l-32 123l-29 -163h-46l46 261h51l41 -165l99 165h51zM191 423l39 220h-77l7 41h201l-7 -41h-77l-39 -220h-47z" />
    <glyph glyph-name="uni2126" unicode="&#x2126;" horiz-adv-x="627" 
d="M471 77v-3h117l-13 -74h-203l10 61q84 69 130 193q21 55 34 129t13 122q0 61 -30.5 88.5t-106.5 27.5q-81 0 -121.5 -31.5t-61.5 -101.5q-38 -128 -38 -228q0 -136 56 -199l-10 -61h-195l13 74h111v3q-58 84 -58 200q0 117 47 242q33 88 95.5 132t174.5 44
q115 0 162 -46.5t47 -138.5q0 -172 -75 -308q-40 -70 -98 -125z" />
    <glyph glyph-name="onethird" unicode="&#x2153;" horiz-adv-x="924" 
d="M143 239l9 55h77l57 319l-87 -40l-5 57l115 54h54l-69 -390h74l-9 -55h-216zM761 686l-418 -697l-57 20l417 697zM592 13l17 57q56 -22 111 -22q68 0 88 32q18 27 18 71q0 45 -65 45h-87l10 56h56q42 0 64.5 8.5t32.5 30.5q12 27 12 64q0 41 -66 41q-47 0 -112 -21l4 56
q62 20 119 20q124 0 124 -82q0 -47 -22 -93q-16 -29 -51 -44q49 -16 49 -68q0 -69 -33 -114q-42 -57 -150 -57q-64 0 -119 20z" />
    <glyph glyph-name="twothirds" unicode="&#x2154;" horiz-adv-x="924" 
d="M101 239l9 52q132 120 165 154q87 89 87 145q0 23 -15.5 33.5t-50.5 10.5q-58 0 -120 -26l3 56q61 27 132 27q121 0 121 -83q0 -46 -26 -89.5t-84 -102.5q-47 -47 -130 -122h187l-9 -55h-269zM761 686l-418 -697l-57 20l417 697zM592 13l17 57q56 -22 111 -22q68 0 88 32
q18 27 18 71q0 45 -65 45h-87l10 56h56q42 0 64.5 8.5t32.5 30.5q12 27 12 64q0 41 -66 41q-47 0 -112 -21l4 56q62 20 119 20q124 0 124 -82q0 -47 -22 -93q-16 -29 -51 -44q49 -16 49 -68q0 -69 -33 -114q-42 -57 -150 -57q-64 0 -119 20z" />
    <glyph glyph-name="oneeighth" unicode="&#x215b;" horiz-adv-x="924" 
d="M143 239l9 55h77l57 319l-87 -40l-5 57l115 54h54l-69 -390h74l-9 -55h-216zM761 686l-418 -697l-57 20l417 697zM934 363q0 -46 -22 -81q-20 -31 -62 -49q58 -26 58 -81q0 -46 -19 -83q-19 -39 -57.5 -57.5t-104.5 -18.5q-72 0 -103.5 21t-31.5 69q0 62 25 97
q23 33 73 53q-47 25 -47 73t20 82q38 63 145 63q126 0 126 -88zM827 86q14 30 14 58q0 26 -17.5 39.5t-58.5 21.5q-75 -15 -93 -51q-11 -24 -11 -57q0 -28 17 -38.5t59 -10.5q72 0 90 38zM721 364q-13 -22 -13 -55q0 -23 15 -37t51 -21q64 15 81 47q12 24 12 53q0 23 -16 34
t-53 11q-59 0 -77 -32z" />
    <glyph glyph-name="threeeighths" unicode="&#x215c;" horiz-adv-x="924" 
d="M98 252l17 57q56 -22 111 -22q68 0 88 32q18 27 18 71q0 45 -65 45h-87l10 56h56q42 0 64.5 8.5t32.5 30.5q12 27 12 64q0 41 -66 41q-47 0 -112 -21l4 56q62 20 119 20q124 0 124 -82q0 -47 -22 -93q-16 -29 -51 -44q49 -16 49 -68q0 -69 -33 -114q-42 -57 -150 -57
q-64 0 -119 20zM761 686l-418 -697l-57 20l417 697zM934 363q0 -46 -22 -81q-20 -31 -62 -49q58 -26 58 -81q0 -46 -19 -83q-19 -39 -57.5 -57.5t-104.5 -18.5q-72 0 -103.5 21t-31.5 69q0 62 25 97q23 33 73 53q-47 25 -47 73t20 82q38 63 145 63q126 0 126 -88zM827 86
q14 30 14 58q0 26 -17.5 39.5t-58.5 21.5q-75 -15 -93 -51q-11 -24 -11 -57q0 -28 17 -38.5t59 -10.5q72 0 90 38zM721 364q-13 -22 -13 -55q0 -23 15 -37t51 -21q64 15 81 47q12 24 12 53q0 23 -16 34t-53 11q-59 0 -77 -32z" />
    <glyph glyph-name="fiveeighths" unicode="&#x215d;" horiz-adv-x="924" 
d="M148 441l51 243h235l-10 -56h-176l-25 -127q44 2 58 2q63 0 91 -21t28 -66q0 -28 -9.5 -67.5t-28.5 -62.5q-43 -54 -145 -54q-70 0 -117 19l17 57q58 -20 109 -20q66 0 87 33q18 27 18 80q0 26 -16.5 36t-59.5 10q-33 0 -79 -6h-28zM761 686l-418 -697l-57 20l417 697z
M934 363q0 -46 -22 -81q-20 -31 -62 -49q58 -26 58 -81q0 -46 -19 -83q-19 -39 -57.5 -57.5t-104.5 -18.5q-72 0 -103.5 21t-31.5 69q0 62 25 97q23 33 73 53q-47 25 -47 73t20 82q38 63 145 63q126 0 126 -88zM827 86q14 30 14 58q0 26 -17.5 39.5t-58.5 21.5
q-75 -15 -93 -51q-11 -24 -11 -57q0 -28 17 -38.5t59 -10.5q72 0 90 38zM721 364q-13 -22 -13 -55q0 -23 15 -37t51 -21q64 15 81 47q12 24 12 53q0 23 -16 34t-53 11q-59 0 -77 -32z" />
    <glyph glyph-name="seveneighths" unicode="&#x215e;" horiz-adv-x="924" 
d="M173 628l10 56h275l-8 -46l-252 -399h-69l247 389h-203zM747 686l-418 -697l-57 20l417 697zM934 363q0 -46 -22 -81q-20 -31 -62 -49q58 -26 58 -81q0 -46 -19 -83q-19 -39 -57.5 -57.5t-104.5 -18.5q-72 0 -103.5 21t-31.5 69q0 62 25 97q23 33 73 53q-47 25 -47 73
t20 82q38 63 145 63q126 0 126 -88zM827 86q14 30 14 58q0 26 -17.5 39.5t-58.5 21.5q-75 -15 -93 -51q-11 -24 -11 -57q0 -28 17 -38.5t59 -10.5q72 0 90 38zM721 364q-13 -22 -13 -55q0 -23 15 -37t51 -21q64 15 81 47q12 24 12 53q0 23 -16 34t-53 11q-59 0 -77 -32z" />
    <glyph glyph-name="partialdiff" unicode="&#x2202;" horiz-adv-x="488" 
d="M185 602l-17 56q74 52 170 52q84 0 137.5 -65t53.5 -182q0 -153 -69 -285q-47 -92 -115.5 -140.5t-140.5 -48.5q-75 0 -113 44.5t-38 113.5q0 114 76.5 199.5t171.5 85.5q52 0 87.5 -26t47.5 -60h1q10 56 10 104q0 95 -36.5 143.5t-92.5 48.5q-79 0 -133 -40zM225 57
q59 0 111 62.5t77 152.5q-6 39 -35.5 66.5t-75.5 27.5q-61 0 -113 -62.5t-52 -146.5q0 -47 23.5 -73.5t64.5 -26.5z" />
    <glyph glyph-name="uni2206" unicode="&#x2206;" horiz-adv-x="575" 
d="M22 0l8 49l331 635h96l104 -635l-8 -49h-531zM123 71h348l-62 394q-13 82 -16 140h-4q-28 -64 -66 -138z" />
    <glyph glyph-name="product" unicode="&#x220f;" horiz-adv-x="620" 
d="M719 635h-93l-127 -724h-85l127 724h-241l-127 -724h-85l127 724h-92l14 75h596z" />
    <glyph glyph-name="summation" unicode="&#x2211;" horiz-adv-x="528" 
d="M500 -90h-503l8 54l310 344l-177 342l11 60h460l-14 -75h-344v-4l162 -320l-287 -322l-1 -3h388z" />
    <glyph glyph-name="minus" unicode="&#x2212;" horiz-adv-x="500" 
d="M103 250l11 64h381l-11 -64h-381z" />
    <glyph glyph-name="uni2215" unicode="&#x2215;" horiz-adv-x="150" 
d="M374 686l-418 -697l-57 20l417 697z" />
    <glyph glyph-name="bulletoperator" unicode="&#x2219;" horiz-adv-x="233" 
d="M156 229q-22 0 -30 5t-8 19q0 23 9 55q5 18 15 24.5t34 6.5q22 0 30 -5t8 -19q0 -41 -12 -65q-9 -21 -46 -21z" />
    <glyph glyph-name="radical" unicode="&#x221a;" horiz-adv-x="524" 
d="M687 829l-374 -921h-69l-72 425l-74 -32l-11 50l148 61l50 -338q2 -14 4.5 -38t2.5 -28h1q4 14 26 67l297 754h71z" />
    <glyph glyph-name="infinity" unicode="&#x221e;" horiz-adv-x="500" 
d="M377 143q-12 0 -22.5 4.5t-17 9.5t-14.5 17.5t-11 18.5t-11 22.5t-10 20.5q-24 -30 -37.5 -45t-38 -31.5t-47.5 -16.5q-35 0 -55.5 27.5t-20.5 73.5q0 69 38 123t92 54q19 0 37 -16.5t27 -33t22 -44.5q4 5 15.5 19t16.5 19.5t15.5 16.5t17.5 16t17 11.5t20 9t21 2.5
q35 0 54.5 -27.5t19.5 -72.5q0 -70 -37.5 -124t-90.5 -54zM385 208q18 0 35 32t17 69q0 21 -6.5 34t-17.5 13q-6 0 -13 -4t-15 -13t-13.5 -16t-15.5 -21t-14 -19q1 -4 4 -13.5t5 -14.5t5 -13.5t6 -13.5t6.5 -10t7.5 -7.5t9 -2.5zM184 208q7 0 14 4t15 13t14 16t15.5 21
t14.5 20q-1 4 -4 13t-5 14.5t-5 13.5t-6 13t-7 10t-8 7.5t-9 2.5q-19 0 -35 -32t-16 -69q0 -47 22 -47z" />
    <glyph glyph-name="integral" unicode="&#x222b;" horiz-adv-x="302" 
d="M428 770l-22 -63q-16 4 -28 4q-22 0 -38 -12t-27.5 -39t-17.5 -51.5t-15 -69.5q-15 -76 -39 -246.5t-33 -224.5q-23 -137 -68.5 -189t-107.5 -52q-33 0 -51 10l22 64q16 -6 32 -6q11 0 19 2t19.5 11.5t20.5 26.5t19.5 50.5t18.5 80.5q13 73 36 234t37 239q42 238 180 238
q27 0 43 -7z" />
    <glyph glyph-name="approxequal" unicode="&#x2248;" horiz-adv-x="500" 
d="M490 266l9 -60q-63 -76 -138 -76q-39 0 -87 31.5t-74 31.5q-59 0 -121 -69l-10 60q66 80 145 80q42 0 89.5 -31.5t74.5 -31.5q58 0 112 65zM524 466l9 -60q-63 -76 -138 -76q-39 0 -87 31.5t-74 31.5q-59 0 -121 -69l-10 60q66 80 145 80q42 0 89.5 -31.5t74.5 -31.5
q58 0 112 65z" />
    <glyph glyph-name="notequal" unicode="&#x2260;" horiz-adv-x="500" 
d="M117 334l12 64h220l99 141l45 -26l-81 -115h98l-12 -64h-130l-73 -104h185l-11 -64h-219l-100 -144l-45 26l82 118h-99l11 64h133l72 104h-187z" />
    <glyph glyph-name="lessequal" unicode="&#x2264;" horiz-adv-x="500" 
d="M59 0l11 64h381l-11 -64h-381zM108 286l13 72l391 184l18 -60l-347 -163l290 -162l-38 -54z" />
    <glyph glyph-name="greaterequal" unicode="&#x2265;" horiz-adv-x="500" 
d="M59 0l11 64h381l-11 -64h-381zM502 358l-13 -72l-391 -183l-18 60l346 162l-289 163l38 54z" />
    <glyph glyph-name="dotmath" unicode="&#x22c5;" horiz-adv-x="233" 
d="M156 229q-22 0 -30 5t-8 19q0 23 9 55q5 18 15 24.5t34 6.5q22 0 30 -5t8 -19q0 -41 -12 -65q-9 -21 -46 -21z" />
    <glyph glyph-name="lozenge" unicode="&#x25ca;" horiz-adv-x="493" 
d="M513 340l-232 -352h-76l-107 352l231 350h76zM430 337l-70 255l-7 24h-2q-2 -5 -13 -24l-157 -251l70 -254q4 -15 5 -25h3q5 10 15 26z" />
    <glyph glyph-name="Ccommaaccent" unicode="&#xee00;" horiz-adv-x="529" 
d="M429 621q-80 0 -120 -26t-62 -91q-16 -46 -37 -171t-21 -160q0 -62 32 -86t114 -24q79 0 157 20l-7 -75q-76 -19 -165 -19q-122 0 -169.5 43t-47.5 131q0 57 19.5 171.5t42.5 181.5q32 91 94.5 135t177.5 44q92 0 166 -19l-20 -76q-75 21 -154 21zM234 -191l21 38
q3 6 3 13q0 2 -7 6q-9 4 -9 15q0 28 3 37q4 15 15.5 21t34.5 6q22 0 29.5 -4.5t7.5 -16.5q0 -4 -2 -20l-4 -19q-4 -18 -14 -34l-38 -57q-4 -6 -7 -6q-6 0 -20 6q-15 6 -15 9q0 2 2 6z" />
    <glyph glyph-name="ccommaaccent" unicode="&#xee01;" horiz-adv-x="428" 
d="M196 321q-30 -105 -30 -181q0 -45 22.5 -62.5t79.5 -17.5q47 0 119 14l-5 -72q-65 -13 -129 -13q-95 0 -133 35t-38 108q0 91 32 200q26 86 77.5 126t150.5 40q72 0 126 -11l-20 -74q-61 14 -118 14q-56 0 -85.5 -20.5t-48.5 -85.5zM183 -191l21 38q3 6 3 13q0 2 -7 6
q-9 4 -9 15q0 28 3 37q4 15 15.5 21t34.5 6q22 0 29.5 -4.5t7.5 -16.5q0 -4 -2 -20l-4 -19q-4 -18 -14 -34l-38 -57q-4 -6 -7 -6q-6 0 -20 6q-15 6 -15 9q0 2 2 6z" />
    <glyph glyph-name="zero.fitted" unicode="&#xf639;" horiz-adv-x="568" 
d="M465 237q43 189 43 280q0 56 -25.5 81t-89.5 25q-80 0 -114.5 -39.5t-55.5 -136.5q-3 -13 -14 -65.5t-15.5 -76.5t-9.5 -65t-5 -74q0 -55 25.5 -80t89.5 -25q80 0 115 39t56 137zM590 521q0 -94 -42 -288q-12 -55 -31 -97t-49.5 -76t-77.5 -51.5t-108 -17.5
q-102 0 -143 44.5t-41 127.5q0 103 42 288q13 57 31 97.5t48 75t76.5 52t110.5 17.5q102 0 143 -44.5t41 -127.5z" />
    <glyph glyph-name="two.fitted" unicode="&#xf63a;" horiz-adv-x="502" 
d="M60 0l11 65q181 172 248 244q140 153 140 243q0 38 -24.5 55t-81.5 17q-85 0 -175 -40l4 72q89 39 190 39q92 0 132.5 -31.5t40.5 -92.5q0 -74 -37 -137t-131 -163q-68 -72 -205 -201h289l-12 -70h-389z" />
    <glyph glyph-name="three.fitted" unicode="&#xf63b;" horiz-adv-x="510" 
d="M56 18l21 73q85 -32 162 -32q62 0 97.5 15t51.5 54q21 54 21 107q0 75 -100 75h-127l13 70h76q69 0 105 15t51 55q19 49 19 104q0 37 -24.5 53.5t-78.5 16.5q-73 0 -164 -31l5 72q94 29 171 29q175 0 175 -122q0 -83 -31 -145q-24 -47 -82 -71q40 -11 58 -35.5t18 -67.5
q0 -93 -39 -161q-57 -103 -226 -103q-94 0 -172 29z" />
    <glyph glyph-name="four.fitted" unicode="&#xf63c;" horiz-adv-x="568" 
d="M558 190h-89l-33 -190h-82l33 190h-312l12 69l382 425h87l-75 -426h89zM175 258h224l70 312z" />
    <glyph glyph-name="five.fitted" unicode="&#xf63d;" horiz-adv-x="500" 
d="M132 319l77 365h339l-12 -70h-266l-45 -219q74 4 99 4q87 0 127 -32t40 -98q0 -91 -37 -168q-28 -57 -82 -84.5t-144 -27.5q-99 0 -169 28l21 73q78 -30 158 -30q63 0 96.5 16.5t50.5 59.5q22 61 22 118q0 41 -26 57t-91 16q-52 0 -116 -8h-42z" />
    <glyph glyph-name="six.fitted" unicode="&#xf63e;" horiz-adv-x="568" 
d="M220 371q95 33 161 33q83 0 120 -31.5t37 -100.5q0 -97 -39 -172q-57 -111 -213 -111q-99 0 -139 40t-40 123q0 72 26 208.5t60 199.5q36 67 95.5 100.5t153.5 33.5q73 0 141 -21l-20 -72q-65 20 -128 20q-69 0 -109 -21t-63 -64q-20 -37 -43 -165zM364 332
q-73 0 -156 -29q-21 -126 -21 -151q0 -48 24.5 -70.5t87.5 -22.5q60 0 91 18t48 61q22 55 22 118q0 41 -22 58.5t-74 17.5z" />
    <glyph glyph-name="seven.fitted" unicode="&#xf63f;" horiz-adv-x="475" 
d="M153 614l12 70h394l-9 -54l-385 -630h-84l376 614h-304z" />
    <glyph glyph-name="eight.fitted" unicode="&#xf640;" horiz-adv-x="568" 
d="M282 -11q-105 0 -150.5 34t-45.5 112q0 94 46 150q37 46 110 73q-77 39 -77 122q0 85 44 138q62 76 197 76q92 0 135 -34.5t43 -105.5q0 -34 -14 -72.5t-39 -66.5q-32 -35 -80 -57q48 -21 70 -52.5t22 -83.5q0 -82 -38 -137q-65 -96 -223 -96zM341 326q-100 -21 -137 -68
q-32 -41 -32 -119q0 -46 27.5 -63t94.5 -17q109 0 146 66q20 37 20 95q0 44 -27.5 67t-91.5 39zM394 624q-82 0 -119 -47q-29 -37 -29 -100q0 -38 24.5 -61t80.5 -36q97 22 130 75q21 34 21 93q0 39 -25 57.5t-83 18.5z" />
    <glyph glyph-name="nine.fitted" unicode="&#xf641;" horiz-adv-x="568" 
d="M466 312q-95 -33 -161 -33q-83 0 -120 31.5t-37 100.5q0 97 39 172q57 111 213 111q99 0 139 -40t40 -123q0 -72 -26 -208.5t-60 -199.5q-36 -67 -95.5 -100.5t-153.5 -33.5q-73 0 -141 21l20 72q65 -20 128 -20q69 0 109 21t63 64q20 37 43 165zM322 351q73 0 156 29
q21 126 21 151q0 48 -24.5 70.5t-87.5 22.5q-60 0 -91 -18t-48 -61q-22 -55 -22 -118q0 -41 22 -58.5t74 -17.5z" />
    <glyph glyph-name="unif6c1" unicode="&#xf6c1;" horiz-adv-x="533" 
d="M267 -140l6 35q1 10 -8 13t-28 3q-7 0 -19 -2l-26 13l27 67q-86 3 -158 26l23 79q84 -31 178 -31q114 0 146 64q18 33 18 88q0 44 -28 62t-110 40q-78 21 -112.5 48t-34.5 84q0 91 48 161q60 85 214 85q88 0 175 -20l-21 -79q-82 25 -166 25q-112 0 -141 -60
q-18 -36 -18 -84q0 -41 27 -58t108 -40q83 -24 116 -51.5t33 -85.5q0 -92 -43 -160q-55 -87 -206 -93l-15 -36q87 0 87 -46q0 -7 -1 -11l-7 -41q-10 -57 -110 -57q-43 0 -80 8l17 45q31 -7 60 -7q46 0 49 16z" />
    <glyph glyph-name="unif6c2" unicode="&#xf6c2;" horiz-adv-x="435" 
d="M218 -140l6 35q1 10 -8 13t-28 3q-7 0 -19 -2l-26 13l28 68q-75 5 -115 20l23 69q70 -21 143 -21q42 0 64 7t33 29q15 27 15 66q0 19 -16.5 28.5t-69.5 22.5q-78 20 -106 41.5t-28 60.5q0 60 23 106q40 79 178 79q82 0 143 -14l-22 -70q-80 16 -142 16q-39 0 -58.5 -8
t-27.5 -26q-11 -25 -11 -56q0 -18 13.5 -27.5t54.5 -20.5q91 -24 121.5 -45t30.5 -59q0 -27 -8.5 -67t-25.5 -65q-44 -64 -165 -67l-15 -36q87 0 87 -46q0 -7 -1 -11l-7 -41q-10 -57 -110 -57q-43 0 -80 8l17 45q31 -7 60 -7q46 0 49 16z" />
    <glyph glyph-name="commaaccent" unicode="&#xf6c3;" horiz-adv-x="333" 
d="M103 -191l21 38q3 6 3 13q0 2 -7 6q-9 4 -9 15q0 28 3 37q4 15 15.5 21t34.5 6q22 0 29.5 -4.5t7.5 -16.5q0 -4 -2 -20l-4 -19q-4 -18 -14 -34l-38 -57q-4 -6 -7 -6q-6 0 -20 6q-15 6 -15 9q0 2 2 6z" />
    <glyph glyph-name="one.fitted" unicode="&#xf6dc;" horiz-adv-x="418" 
d="M73 0l12 69h112l93 528l-130 -63l-6 70l164 80h69l-108 -615h107l-12 -69h-301z" />
    <glyph glyph-name="threequartersemdash" unicode="&#xf6de;" horiz-adv-x="666" 
d="M120 237l12 66h508l-12 -66h-508z" />
    <glyph glyph-name="unifb01" unicode="&#xfb01;" horiz-adv-x="583" 
d="M453 634q-43 10 -87 10q-37 0 -54 -16t-25 -55l-16 -86h137l-25 -68h-124l-106 -610l-85 -14l110 624h-76l12 68h76l16 88q12 68 53.5 101.5t121.5 33.5q47 0 88 -9zM507 0h-81l85 487h81zM567 569q-22 0 -30 5t-8 19q0 23 9 55q5 18 15 24.5t34 6.5q22 0 30 -5t8 -19
q0 -41 -12 -65q-9 -21 -46 -21z" />
    <glyph glyph-name="unifb02" unicode="&#xfb02;" horiz-adv-x="622" 
d="M453 634q-43 10 -87 10q-37 0 -54 -16t-25 -55l-16 -86h137l-25 -68h-124l-106 -610l-85 -14l110 624h-76l12 68h76l16 88q12 68 53.5 101.5t121.5 33.5q47 0 88 -9zM599 64l9 -61q-46 -14 -99 -14q-42 0 -59 15.5t-17 47.5q0 24 8 66l102 578l85 14l-108 -607
q-3 -21 -3 -25q0 -24 29 -24q25 0 53 10z" />
    </font>
</defs>
</svg>
