<?xml version="1.0" standalone="no"?>
<!DOCTYPE svg PUBLIC "-//W3C//DTD SVG 1.1//EN" "http://www.w3.org/Graphics/SVG/1.1/DTD/svg11.dtd" >
<svg xmlns="http://www.w3.org/2000/svg" xmlns:xlink="http://www.w3.org/1999/xlink" version="1.1">
<metadata>
Created by FontForge 20170910 at Fri Apr 15 06:37:23 2011
 By Jimmy Wärting
Copyright (c) 2007-2008 DTP Types Limited. All rights reserved. SenticoSans DT is a trademark of DTP Types Limited.
</metadata>
<defs>
<font id="SenticoSansDT-Medium" horiz-adv-x="500" >
  <font-face 
    font-family="SenticoSansDT-Medium"
    font-weight="400"
    font-stretch="normal"
    units-per-em="1000"
    panose-1="2 11 6 4 3 3 2 2 2 4"
    ascent="775"
    descent="-225"
    x-height="491"
    cap-height="684"
    bbox="-108 -212 1253 900"
    underline-thickness="50"
    underline-position="-100"
    unicode-range="U+0020-FB04"
  />
<missing-glyph 
d="M30 70v580h440v-580h-440zM80 120h340v480h-340v-480z" />
    <glyph glyph-name="fi" unicode="fi" horiz-adv-x="625" 
d="M352 608q-43 10 -81 10q-35 0 -48.5 -15t-13.5 -50v-64h126l-9 -93h-117v-396h-113v396h-73v93h73v76q0 73 38.5 108.5t124.5 35.5q52 0 99 -9zM555 0h-113v491h113v-491zM439 624q0 42 9.5 55t50.5 13t50.5 -13t9.5 -55t-10 -55.5t-50 -13.5t-50 13.5t-10 55.5z" />
    <glyph glyph-name="fl" unicode="fl" horiz-adv-x="657" 
d="M352 608q-43 10 -81 10q-35 0 -48.5 -15t-13.5 -50v-64h126l-9 -93h-117v-396h-113v396h-73v93h73v76q0 73 38.5 108.5t124.5 35.5q52 0 99 -9zM628 93l22 -86q-54 -18 -114 -18q-63 0 -80.5 28.5t-17.5 107.5v570l113 15v-589q0 -37 29 -37q20 0 48 9z" />
    <glyph glyph-name="f_f" unicode="ff" horiz-adv-x="709" 
d="M698 608q-43 10 -81 10q-35 0 -48.5 -15t-13.5 -50v-64h126l-9 -93h-117v-396h-113v396h-233v-396h-113v396h-73v93h73v76q0 73 38.5 108.5t124.5 35.5q52 0 99 -9l-6 -92q-43 10 -81 10q-35 0 -48.5 -15t-13.5 -50v-64h233v76q0 73 38.5 108.5t124.5 35.5q52 0 99 -9z
" />
    <glyph glyph-name="f_f_i" unicode="ffi" horiz-adv-x="971" 
d="M698 608q-43 10 -81 10q-35 0 -48.5 -15t-13.5 -50v-64h126l-9 -93h-117v-396h-113v396h-233v-396h-113v396h-73v93h73v76q0 73 38.5 108.5t124.5 35.5q52 0 99 -9l-6 -92q-43 10 -81 10q-35 0 -48.5 -15t-13.5 -50v-64h233v76q0 73 38.5 108.5t124.5 35.5q52 0 99 -9z
M901 0h-113v491h113v-491zM785 624q0 42 9.5 55t50.5 13q40 0 50 -13t10 -55t-10 -55.5t-50 -13.5t-50 13.5t-10 55.5z" />
    <glyph glyph-name="f_f_l" unicode="ffl" horiz-adv-x="1003" 
d="M698 608q-43 10 -81 10q-35 0 -48.5 -15t-13.5 -50v-64h126l-9 -93h-117v-396h-113v396h-233v-396h-113v396h-73v93h73v76q0 73 38.5 108.5t124.5 35.5q52 0 99 -9l-6 -92q-43 10 -81 10q-35 0 -48.5 -15t-13.5 -50v-64h233v76q0 73 38.5 108.5t124.5 35.5q52 0 99 -9z
M974 93l22 -86q-54 -18 -114 -18q-63 0 -80.5 28.5t-17.5 107.5v570l113 15v-589q0 -37 29 -37q20 0 48 9z" />
    <glyph glyph-name=".notdef" 
d="M30 70v580h440v-580h-440zM80 120h340v480h-340v-480z" />
    <glyph glyph-name=".null" horiz-adv-x="0" 
 />
    <glyph glyph-name="nonmarkingreturn" horiz-adv-x="333" 
 />
    <glyph glyph-name="space" unicode=" " horiz-adv-x="240" 
 />
    <glyph glyph-name="exclam" unicode="!" horiz-adv-x="265" 
d="M176 187h-86l-12 172l-3 330h116l-4 -330zM72 62q0 43 9.5 56t50.5 13t51 -13t10 -56t-10 -56t-51 -13t-50.5 13t-9.5 56z" />
    <glyph glyph-name="quotedbl" unicode="&#x22;" horiz-adv-x="403" 
d="M272 694h33q22 0 26 -6t3 -37l-6 -168q-1 -18 -5 -22t-21 -4h-27q-17 0 -21 4t-5 22l-7 168q-1 31 3.5 37t26.5 6zM99 694h34q21 0 25.5 -6.5t3.5 -36.5l-6 -168q-1 -18 -5 -22t-21 -4h-27q-17 0 -21.5 4t-5.5 22l-6 168q-1 30 3.5 36.5t25.5 6.5z" />
    <glyph glyph-name="numbersign" unicode="#" horiz-adv-x="638" 
d="M62 441l13 78h103l24 165h84l-23 -165h156l24 165h84l-23 -165h99l-12 -78h-98l-21 -152h101l-12 -78h-100l-24 -170h-85l24 170h-156l-24 -170h-85l24 170h-103l13 78h101l21 152h-105zM252 441l-21 -152h156l21 152h-156z" />
    <glyph glyph-name="dollar" unicode="$" horiz-adv-x="578" 
d="M72 30l13 99q80 -34 161 -41v214q-100 28 -138 66t-38 126q0 86 39.5 131.5t136.5 54.5v100h88v-101q84 -7 148 -27l-10 -101q-75 28 -138 34v-204q100 -31 136.5 -68.5t36.5 -122.5q0 -93 -38.5 -139.5t-134.5 -55.5v-102h-88v100q-98 8 -174 37zM178 495q0 -37 13 -54
t55 -33v177q-36 -6 -52 -26t-16 -64zM398 183q0 37 -12.5 56.5t-51.5 34.5v-184q35 8 49.5 29t14.5 64z" />
    <glyph glyph-name="percent" unicode="%" horiz-adv-x="901" 
d="M639 680l-294 -692l-80 27l293 691zM772 187q0 75 -13 99.5t-58 24.5q-44 0 -57 -24.5t-13 -99.5t13 -99.5t57 -24.5q45 0 58 24.5t13 99.5zM862 187q0 -99 -32 -148.5t-129 -49.5q-96 0 -128.5 49.5t-32.5 148.5t32.5 148.5t128.5 49.5q97 0 129 -49.5t32 -148.5z
M271 497q0 75 -13 99.5t-58 24.5t-58 -24.5t-13 -99.5t13 -99.5t58 -24.5t58 24.5t13 99.5zM361 497q0 -99 -32 -148.5t-129 -49.5t-129 49.5t-32 148.5t32 148.5t129 49.5t129 -49.5t32 -148.5z" />
    <glyph glyph-name="ampersand" unicode="&#x26;" horiz-adv-x="650" 
d="M617 56l-77 -66l-82 83q-49 -42 -95.5 -62.5t-113.5 -20.5q-106 0 -156.5 49.5t-50.5 133.5q0 67 35 113.5t97 87.5q-78 93 -78 157q0 162 183 162q84 0 132.5 -38t48.5 -112q0 -60 -32 -100t-106 -88l137 -140q35 49 60 112l90 -41q-44 -96 -80 -142zM355 540
q0 63 -76 63q-79 0 -79 -69q0 -43 60 -110q47 25 71 51t24 65zM392 140l-156 163q-40 -28 -61 -56t-21 -72q0 -41 24 -66t68 -25q85 0 146 56z" />
    <glyph glyph-name="quotesingle" unicode="'" horiz-adv-x="231" 
d="M99 694h34q21 0 25.5 -6.5t3.5 -36.5l-6 -168q-1 -18 -5 -22t-21 -4h-27q-17 0 -21.5 4t-5.5 22l-6 168q-1 30 3.5 36.5t25.5 6.5z" />
    <glyph glyph-name="parenleft" unicode="(" horiz-adv-x="307" 
d="M298 -136l-87 -43q-152 211 -152 479q0 269 152 480l87 -41q-71 -109 -100 -208.5t-29 -230.5q0 -129 29 -227.5t100 -208.5z" />
    <glyph glyph-name="parenright" unicode=")" horiz-adv-x="307" 
d="M96 -179l-88 43q72 110 101 208t29 228q0 131 -29 230.5t-101 208.5l88 41q151 -210 151 -480q0 -269 -151 -479z" />
    <glyph glyph-name="asterisk" unicode="*" horiz-adv-x="499" 
d="M197 488l-115 29q-1 0 -25 7q-13 4 -13.5 10t8.5 32q8 27 11.5 31t17.5 0l24 -9l110 -44l-8 118q-1 12 -1 26t5 16.5t33 2.5t33 -2.5t5 -16.5v-26l-8 -118l110 44l24 9q14 4 17.5 0t11.5 -31q9 -26 8.5 -32t-13.5 -10q-24 -7 -25 -7l-115 -29l76 -91l16 -21
q8 -11 5.5 -15.5t-25.5 -20.5q-22 -17 -28 -18.5t-14 9.5q-1 3 -6 10t-8 12l-64 100l-63 -100q-3 -5 -8 -12t-6 -10q-8 -11 -14 -9.5t-28 18.5q-23 16 -25.5 20.5t5.5 15.5q1 1 6 8.5t10 12.5z" />
    <glyph glyph-name="plus" unicode="+" 
d="M56 240v85h149v151h89v-151h149v-85h-149v-151h-89v151h-149z" />
    <glyph glyph-name="comma" unicode="," horiz-adv-x="246" 
d="M62 -83l22 63q3 5 3 14q0 7 -7 11q-16 8 -16 57q0 43 9.5 56t50.5 13t50.5 -13t9.5 -56v-26q0 -28 -10 -50l-41 -99q-6 -11 -21 -11q-5 0 -25 7q-19 7 -23.5 10.5t-4.5 9.5q0 8 3 14z" />
    <glyph glyph-name="hyphen" unicode="-" horiz-adv-x="368" 
d="M47 221v98h274v-98h-274z" />
    <glyph glyph-name="period" unicode="." horiz-adv-x="246" 
d="M63 62q0 43 9.5 56t50.5 13t50.5 -13t9.5 -56t-9.5 -56t-50.5 -13t-50.5 13t-9.5 56z" />
    <glyph glyph-name="slash" unicode="/" horiz-adv-x="470" 
d="M119 -113l-91 37l309 777l92 -38z" />
    <glyph glyph-name="zero" unicode="0" horiz-adv-x="578" 
d="M409 311v61q0 46 -1 70.5t-4.5 55t-11 45t-20.5 29t-33.5 19.5t-49.5 5q-25 0 -43.5 -5t-31.5 -12t-21.5 -23.5t-13.5 -30.5t-7 -42.5t-2.5 -49.5t-0.5 -61v-61q0 -40 0.5 -61t2.5 -49.5t7 -42.5t13.5 -30.5t21.5 -23.5t31.5 -12t43.5 -5q29 0 49.5 5t33.5 19.5t20.5 29
t11 45t4.5 55t1 70.5zM524 372v-61q0 -51 -2 -84.5t-9.5 -74.5t-23 -67t-40.5 -49.5t-65.5 -34.5t-94.5 -11t-94.5 11t-65.5 34.5t-40.5 49.5t-23 67t-9.5 74.5t-2 84.5v61q0 51 2 84.5t9.5 74.5t23 67t40.5 49.5t65.5 34.5t94.5 11t94.5 -11t65.5 -34.5t40.5 -49.5t23 -67
t9.5 -74.5t2 -84.5z" />
    <glyph glyph-name="one" unicode="1" horiz-adv-x="578" 
d="M144 0v96h114v465l-116 -59l-27 97l162 85h94v-588h111v-96h-338z" />
    <glyph glyph-name="two" unicode="2" horiz-adv-x="578" 
d="M84 0v90q133 143 201 227q92 115 92 195q0 45 -23.5 65t-79.5 20q-84 0 -176 -41l-11 98q90 41 196 41q113 0 162 -44t49 -131q0 -62 -26.5 -116.5t-88.5 -132.5q-43 -56 -151 -175h266v-96h-410z" />
    <glyph glyph-name="three" unicode="3" horiz-adv-x="578" 
d="M76 20l11 98q91 -34 174 -34q67 0 94.5 20.5t27.5 76.5v29q0 48 -26 67.5t-77 19.5h-130v96h89q72 0 98.5 19.5t26.5 75.5v29q0 45 -23.5 64t-79.5 19q-68 0 -162 -34l-11 97q99 31 176 31q214 0 214 -165v-29q0 -110 -71 -143q91 -29 91 -152v-15q0 -103 -56.5 -152
t-178.5 -49q-97 0 -187 31z" />
    <glyph glyph-name="four" unicode="4" horiz-adv-x="578" 
d="M545 167h-88v-167h-114v167h-311v96l302 421h123v-421h88v-96zM154 263h189v271z" />
    <glyph glyph-name="five" unicode="5" horiz-adv-x="578" 
d="M101 306l14 378h356v-97h-255l-5 -179q45 3 76 3q117 0 162.5 -46t45.5 -151v-16q0 -107 -53 -158t-179 -51q-101 0 -184 30l12 99q89 -32 170 -32q66 0 92.5 23t26.5 85v17q0 62 -24 83t-97 21q-45 0 -115 -9h-43z" />
    <glyph glyph-name="six" unicode="6" horiz-adv-x="578" 
d="M179 428v-37q78 26 141 26q102 0 147.5 -49t45.5 -159q0 -109 -51 -164.5t-171 -55.5q-60 0 -102 16t-66 40.5t-37.5 68t-17 85t-3.5 104.5v57q0 173 55 253.5t205 80.5q70 0 155 -20l-9 -97q-69 18 -135 18q-94 0 -125 -38.5t-32 -128.5zM311 319q-68 0 -132 -24v-22
q0 -38 1 -58.5t4 -46t10 -38t19.5 -24.5t32 -16.5t46.5 -4.5q65 0 88 27.5t23 98.5q0 61 -19.5 84.5t-72.5 23.5z" />
    <glyph glyph-name="seven" unicode="7" horiz-adv-x="578" 
d="M89 587v97h419v-79l-263 -605h-119l258 587h-295z" />
    <glyph glyph-name="eight" unicode="8" horiz-adv-x="578" 
d="M504 513q0 -58 -18.5 -93.5t-65.5 -61.5q54 -25 78 -63t24 -99q0 -111 -51.5 -159t-182.5 -48t-182 48t-51 159q0 61 23.5 99t77.5 63q-47 27 -65 63.5t-18 90.5q0 92 50.5 137t164.5 45t165 -44.5t51 -136.5zM407 197q0 51 -25 74t-94 37q-69 -13 -93.5 -36.5
t-24.5 -74.5q0 -68 25 -91t93 -23q71 0 95 23.5t24 90.5zM185 504q0 -50 22 -75.5t82 -37.5q63 14 83 38t20 79q0 48 -21.5 70t-82.5 22q-62 0 -82.5 -23t-20.5 -73z" />
    <glyph glyph-name="nine" unicode="9" horiz-adv-x="578" 
d="M398 255v37q-78 -26 -141 -26q-102 0 -147 49t-45 159q0 109 50.5 164.5t170.5 55.5q60 0 102 -15.5t66.5 -40.5t37.5 -68t17 -85t4 -105v-57q0 -85 -11.5 -143.5t-40 -103.5t-80.5 -66t-129 -21q-68 0 -155 20l9 97q69 -18 135 -18q94 0 125 38.5t32 128.5zM266 364
q68 0 132 24v22q0 46 -1 69t-7 50.5t-18 39.5t-33 20.5t-54 8.5q-65 0 -88 -27.5t-23 -98.5q0 -61 20 -84.5t72 -23.5z" />
    <glyph glyph-name="colon" unicode=":" horiz-adv-x="246" 
d="M63 62q0 43 9.5 56t50.5 13t50.5 -13t9.5 -56t-9.5 -56t-50.5 -13t-50.5 13t-9.5 56zM63 373q0 43 9.5 56t50.5 13t50.5 -13t9.5 -56t-9.5 -56t-50.5 -13t-50.5 13t-9.5 56z" />
    <glyph glyph-name="semicolon" unicode=";" horiz-adv-x="246" 
d="M63 373q0 43 9.5 56t50.5 13t50.5 -13t9.5 -56t-9.5 -56t-50.5 -13t-50.5 13t-9.5 56zM62 -83l22 63q3 5 3 14q0 7 -7 11q-16 8 -16 57q0 43 9.5 56t50.5 13t50.5 -13t9.5 -56v-26q0 -28 -10 -50l-41 -99q-6 -11 -21 -11q-5 0 -25 7q-19 7 -23.5 10.5t-4.5 9.5q0 8 3 14z
" />
    <glyph glyph-name="less" unicode="&#x3c;" 
d="M56 242v81l350 188l41 -75l-290 -153l290 -153l-41 -75z" />
    <glyph glyph-name="equal" unicode="=" 
d="M56 331v83h387v-83h-387zM56 151v83h387v-83h-387z" />
    <glyph glyph-name="greater" unicode="&#x3e;" 
d="M443 323v-81l-350 -187l-41 75l290 153l-290 153l41 75z" />
    <glyph glyph-name="question" unicode="?" horiz-adv-x="468" 
d="M233 202l-91 30q20 94 79 146q5 5 25.5 22.5t25.5 23.5t16 21.5t14 31.5t3 38q0 48 -20.5 68t-78.5 20q-66 0 -152 -27l-11 99q92 25 170 25q112 0 160 -41t48 -132q0 -35 -5 -61t-19 -48t-22 -32t-32.5 -31.5t-31.5 -28.5q-52 -50 -78 -124zM134 62q0 42 10 55.5
t51 13.5t50.5 -13t9.5 -56t-9.5 -56t-50.5 -13t-51 13.5t-10 55.5z" />
    <glyph glyph-name="at" unicode="@" horiz-adv-x="880" 
d="M487 204l28 203q-34 9 -63 9q-53 0 -74 -45q-24 -53 -24 -137q0 -31 11 -44.5t41 -13.5q38 0 81 28zM628 87q-89 0 -122 56q-53 -50 -126 -50q-64 0 -95.5 32t-31.5 90q0 116 41 193q49 88 166 88q61 0 163 -19l-36 -249q-3 -30 8.5 -44.5t52.5 -14.5q43 0 61 39t18 126
q0 133 -61 205t-209 72q-159 0 -231.5 -79.5t-72.5 -250.5q0 -159 81.5 -230.5t248.5 -71.5q79 0 172 16l12 -80q-84 -20 -189 -20q-204 0 -314 97t-110 297q0 406 403 406q367 0 367 -357q0 -251 -196 -251z" />
    <glyph glyph-name="A" unicode="A" horiz-adv-x="621" 
d="M608 0h-123l-54 171h-246l-54 -171h-119l230 684h137zM402 265l-94 304l-95 -304h189z" />
    <glyph glyph-name="B" unicode="B" horiz-adv-x="572" 
d="M360 0h-288v684h258q106 0 143.5 -46.5t37.5 -128.5q0 -59 -18 -95t-60 -55q100 -25 100 -171q0 -188 -173 -188zM416 203q0 47 -19.5 72t-77.5 25h-131v-205h142q47 0 66.5 22t19.5 86zM397 496q0 47 -17 69.5t-67 22.5h-125v-195h116q51 0 72 21t21 82z" />
    <glyph glyph-name="C" unicode="C" horiz-adv-x="536" 
d="M320 593q-92 0 -118 -44t-26 -179v-55q0 -58 2 -90t10 -62.5t24 -43.5t43 -21t69 -8q77 0 163 22l11 -102q-82 -21 -175 -21q-52 0 -92.5 8t-68.5 21t-47.5 36.5t-30.5 47t-17.5 60.5t-8 69.5t-1.5 80.5v60q0 66 5.5 112t21.5 88.5t44 68t75 40t113 14.5q101 0 180 -21
l-10 -103q-85 22 -166 22z" />
    <glyph glyph-name="D" unicode="D" horiz-adv-x="610" 
d="M72 684h230q49 0 87.5 -8t65 -21t45 -36.5t29 -46.5t16 -58.5t7.5 -65.5t2 -75v-61q0 -68 -4 -111t-18.5 -85t-42 -65t-74.5 -37t-115 -14h-228v684zM188 583v-482h110q39 0 64 8t40 21.5t22 43t9 58.5t2 82v58q0 54 -2 83t-9 58t-21.5 41.5t-39.5 20.5t-64 8h-111z" />
    <glyph glyph-name="E" unicode="E" horiz-adv-x="532" 
d="M72 0v684h409v-101h-293v-181h261v-101h-261v-200h293v-101h-409z" />
    <glyph glyph-name="F" unicode="F" horiz-adv-x="501" 
d="M188 0h-116v684h399v-101h-283v-188h257v-101h-257v-294z" />
    <glyph glyph-name="G" unicode="G" horiz-adv-x="590" 
d="M325 593q-31 0 -53 -4.5t-38.5 -11t-27 -21.5t-16.5 -29.5t-9 -41.5t-4 -51t-1 -64v-56q0 -39 0.5 -61t3.5 -50t8.5 -42.5t15 -30.5t24.5 -23t36.5 -12t50.5 -5q53 0 103 8v148h-67v101h179v-336q-108 -22 -217 -22q-68 0 -116 17t-75 43.5t-42 71.5t-19 87t-4 104v61
q0 65 5 109.5t20.5 88t43.5 68.5t75.5 40.5t115.5 15.5q101 0 200 -22l-9 -103q-95 23 -183 23z" />
    <glyph glyph-name="H" unicode="H" horiz-adv-x="636" 
d="M565 0h-117v299h-260v-299h-116v684h116v-284h260v284h117v-684z" />
    <glyph glyph-name="I" unicode="I" horiz-adv-x="268" 
d="M192 684v-684h-116v684h116z" />
    <glyph glyph-name="J" unicode="J" horiz-adv-x="297" 
d="M113 684h117v-492q0 -105 -47 -145q-29 -25 -120 -53q-3 -1 -13 -4q-8 -2 -13 -4l-32 95q73 21 90.5 39.5t17.5 70.5v493z" />
    <glyph glyph-name="K" unicode="K" horiz-adv-x="612" 
d="M566 684l-250 -334l278 -350h-143l-263 336v-336h-116v684h116v-333l240 333h138z" />
    <glyph glyph-name="L" unicode="L" horiz-adv-x="487" 
d="M188 684v-582h271v-102h-387v684h116z" />
    <glyph glyph-name="M" unicode="M" horiz-adv-x="764" 
d="M699 0h-117l-16 452l-134 -348h-101l-135 348l-15 -452h-116l25 684h120l172 -441l171 441h120z" />
    <glyph glyph-name="N" unicode="N" horiz-adv-x="659" 
d="M455 0l-270 488v-488h-113v684h131l270 -498v498h114v-684h-132z" />
    <glyph glyph-name="O" unicode="O" horiz-adv-x="638" 
d="M462 313v58q0 52 -2 81t-9.5 60.5t-22.5 46.5t-42 25t-67 10t-67 -10t-42 -25t-22.5 -46.5t-9.5 -60.5t-2 -81v-58q0 -53 2 -82t9.5 -60.5t22.5 -46.5t42 -24.5t67 -9.5t67 9.5t42 24.5t22.5 46.5t9.5 60.5t2 82zM581 372v-60q0 -62 -5 -106t-21 -87.5t-44 -70t-76 -43
t-116 -16.5q-67 0 -115.5 16.5t-76.5 43t-44 70t-21 87.5t-5 106v60q0 62 5 106t21 87.5t44 70t76.5 43t115.5 16.5q68 0 116 -16.5t76 -43t44 -70t21 -87.5t5 -106z" />
    <glyph glyph-name="P" unicode="P" horiz-adv-x="568" 
d="M72 0v684h264q64 0 104.5 -14.5t60 -47t25.5 -68t6 -92.5q0 -119 -41 -172t-155 -53h-148v-237h-116zM415 461q0 75 -19 98.5t-82 23.5h-126v-246h130q62 0 79.5 26.5t17.5 97.5z" />
    <glyph glyph-name="Q" unicode="Q" horiz-adv-x="638" 
d="M581 372v-60q0 -54 -3.5 -94t-15.5 -80.5t-32 -67.5t-54.5 -47t-82.5 -28q4 -27 14.5 -37.5t37.5 -10.5q28 0 62 8l17 -89q-55 -13 -97 -13q-68 0 -96 28t-32 109q-62 2 -106.5 19.5t-70.5 44.5t-41 69.5t-19.5 85.5t-4.5 103v60q0 62 5 106t21 87.5t44 70t76.5 43
t115.5 16.5q68 0 116 -16.5t76 -43t44 -70t21 -87.5t5 -106zM462 313v58q0 52 -2 81t-9.5 60.5t-22.5 46.5t-42 25t-67 10t-67 -10t-42 -25t-22.5 -46.5t-9.5 -60.5t-2 -81v-58q0 -53 2 -82t9.5 -60.5t22.5 -46.5t42 -24.5t67 -9.5t67 9.5t42 24.5t22.5 46.5t9.5 60.5t2 82z
" />
    <glyph glyph-name="R" unicode="R" horiz-adv-x="606" 
d="M451 0l-155 251h-108v-251h-116v684h255q63 0 104 -13.5t62.5 -43t29 -66.5t7.5 -94q0 -89 -23.5 -139t-83.5 -67l161 -261h-133zM413 467q0 70 -18 93t-70 23h-137v-231h135q54 0 72 23.5t18 91.5z" />
    <glyph glyph-name="S" unicode="S" horiz-adv-x="535" 
d="M491 191q0 -106 -55.5 -154.5t-186.5 -48.5q-105 0 -199 29l13 104q95 -31 188 -31q70 0 96 21t26 73q0 57 -27.5 77t-114.5 42q-50 13 -79.5 25t-55 33t-36 53.5t-10.5 80.5q0 100 51.5 150t179.5 50q94 0 189 -20l-9 -107q-99 26 -180 26q-65 0 -89 -19.5t-24 -66.5
q0 -54 26.5 -72t113.5 -41q54 -15 85.5 -28.5t55.5 -36.5t33 -55.5t9 -83.5z" />
    <glyph glyph-name="T" unicode="T" horiz-adv-x="526" 
d="M204 0v583h-185v101h487v-101h-186v-583h-116z" />
    <glyph glyph-name="U" unicode="U" horiz-adv-x="634" 
d="M567 684v-453q0 -110 -58 -176t-192 -66t-192.5 66t-58.5 176v453h117v-454q0 -71 31 -104.5t103 -33.5t103 33.5t31 104.5v454h116z" />
    <glyph glyph-name="V" unicode="V" horiz-adv-x="608" 
d="M128 684l175 -565l179 565h121l-230 -684h-144l-225 684h124z" />
    <glyph glyph-name="W" unicode="W" horiz-adv-x="876" 
d="M560 0l-122 516l-123 -516h-138l-161 684h120l113 -529l125 529h128l124 -529l114 529h120l-162 -684h-138z" />
    <glyph glyph-name="X" unicode="X" horiz-adv-x="589" 
d="M16 0l211 348l-202 336h129l140 -234l140 234h127l-199 -333l210 -351h-129l-150 248l-148 -248h-129z" />
    <glyph glyph-name="Y" unicode="Y" horiz-adv-x="558" 
d="M128 684l151 -320l153 320h124l-219 -446v-238h-116v238l-220 446h127z" />
    <glyph glyph-name="Z" unicode="Z" horiz-adv-x="567" 
d="M512 591l-326 -492h328v-99h-465v92l325 493h-317v99h455v-93z" />
    <glyph glyph-name="bracketleft" unicode="[" horiz-adv-x="303" 
d="M296 -170h-219v969h219v-88h-111v-794h111v-87z" />
    <glyph glyph-name="backslash" unicode="\" horiz-adv-x="470" 
d="M439 -76l-92 -37l-309 776l93 38z" />
    <glyph glyph-name="bracketright" unicode="]" horiz-adv-x="303" 
d="M226 -170h-219v87h111v794h-111v88h219v-969z" />
    <glyph glyph-name="asciicircum" unicode="^" 
d="M249 604l-120 -200l-84 28l166 268h77l167 -268l-86 -28z" />
    <glyph glyph-name="underscore" unicode="_" 
d="M503 -141h-506v73h506v-73z" />
    <glyph glyph-name="grave" unicode="`" horiz-adv-x="333" 
d="M247 618l-19 -72l-185 84l5 92z" />
    <glyph glyph-name="a" unicode="a" 
d="M439 333v-333h-98l-10 40q-79 -50 -154 -50q-60 0 -95.5 34.5t-35.5 106.5q0 96 50.5 125.5t176.5 29.5q27 0 53 -1v52q0 37 -18 55t-70 18q-71 0 -156 -24l-6 91q83 24 178 24q102 0 143.5 -39t41.5 -129zM326 118v88q-23 1 -45 1q-70 0 -97 -12t-27 -56q0 -33 13 -47
t43 -14q57 0 113 40z" />
    <glyph glyph-name="b" unicode="b" horiz-adv-x="527" 
d="M480 245q0 -137 -46 -196.5t-171 -59.5q-97 0 -196 15v691l114 15v-235q72 26 139 26q96 0 128 -59.5t32 -196.5zM181 382v-295q42 -7 77 -7q69 0 88.5 38.5t19.5 126.5q0 96 -13.5 129.5t-65.5 33.5q-49 0 -106 -26z" />
    <glyph glyph-name="c" unicode="c" horiz-adv-x="426" 
d="M160 246q0 -97 18.5 -130t85.5 -33q48 0 115 16l12 -96q-72 -14 -135 -14q-126 0 -168.5 60.5t-42.5 195.5q0 68 8.5 112.5t31.5 79t65 50t107 15.5q66 0 133 -12l-10 -97q-58 15 -118 15t-81 -31t-21 -131z" />
    <glyph glyph-name="d" unicode="d" horiz-adv-x="534" 
d="M361 39q-62 -49 -144 -49q-101 0 -135.5 56t-34.5 199q0 137 37 196.5t151 59.5q62 0 117 -13v207l114 15v-710h-97zM352 129v264q-54 15 -107 15q-55 0 -69.5 -36t-14.5 -127q0 -92 14 -128.5t64 -36.5q64 0 113 49z" />
    <glyph glyph-name="e" unicode="e" horiz-adv-x="495" 
d="M161 207v-13q0 -68 23.5 -91.5t83.5 -23.5q78 0 165 26l7 -91q-91 -25 -187 -25q-122 0 -164.5 61.5t-42.5 200.5q0 59 8.5 100.5t30 77.5t64 54t106.5 18q112 0 153 -58t41 -180v-56h-288zM161 300v-13h178v27q0 51 -19.5 74.5t-65.5 23.5q-50 0 -71.5 -27t-21.5 -85z
" />
    <glyph glyph-name="f" unicode="f" horiz-adv-x="363" 
d="M352 608q-43 10 -81 10q-35 0 -48.5 -15t-13.5 -50v-64h126l-9 -93h-117v-396h-113v396h-73v93h73v76q0 73 38.5 108.5t124.5 35.5q52 0 99 -9z" />
    <glyph glyph-name="g" unicode="g" horiz-adv-x="529" 
d="M462 487v-539q0 -79 -49.5 -116t-164.5 -37q-106 0 -189 23l7 92q92 -25 177 -25q60 0 82.5 15t22.5 50v67q-67 -25 -135 -25q-54 0 -88 16t-50.5 52t-21.5 77t-5 108q0 140 47.5 198t176.5 58q90 0 190 -14zM348 110v294q-48 6 -78 6q-68 0 -87.5 -35t-19.5 -130
q0 -93 14.5 -126t65.5 -33q52 0 105 24z" />
    <glyph glyph-name="h" unicode="h" horiz-adv-x="533" 
d="M470 0h-114v348q0 50 -45 50q-54 0 -130 -45v-353h-114v695l113 15v-263q94 54 173 54q117 0 117 -129v-372z" />
    <glyph glyph-name="i" unicode="i" horiz-adv-x="252" 
d="M182 0h-113v491h113v-491zM66 624q0 42 10 55t50 13t50 -13t10 -55t-10 -55.5t-50 -13.5t-50 13.5t-10 55.5z" />
    <glyph glyph-name="j" unicode="j" horiz-adv-x="252" 
d="M69 491h113v-520q0 -26 -3.5 -45.5t-8 -34t-17.5 -26.5t-23 -20t-34 -17t-41 -14.5t-52 -16.5l-32 87q65 21 81.5 37.5t16.5 59.5v510zM66 624q0 42 10 55t50 13t50 -13t10 -55t-10 -55.5t-50 -13.5t-50 13.5t-10 55.5z" />
    <glyph glyph-name="k" unicode="k" horiz-adv-x="518" 
d="M181 0h-114v695l114 15v-441l177 222h135l-187 -226l201 -265h-136l-190 260v-260z" />
    <glyph glyph-name="l" unicode="l" horiz-adv-x="284" 
d="M255 93l22 -86q-54 -18 -114 -18q-63 0 -80.5 28.5t-17.5 107.5v570l113 15v-589q0 -37 29 -37q19 0 48 9z" />
    <glyph glyph-name="m" unicode="m" horiz-adv-x="798" 
d="M735 0h-114v349q0 49 -41 49q-48 0 -122 -47v-351h-114v349q0 49 -41 49q-48 0 -122 -47v-351h-114v491h95l14 -48q93 57 174 57q72 0 96 -61q100 61 182 61q107 0 107 -135v-365z" />
    <glyph glyph-name="n" unicode="n" horiz-adv-x="533" 
d="M470 0h-114v347q0 50 -45 50q-54 0 -130 -45v-352h-114v491h96l12 -45q94 55 178 55q117 0 117 -130v-371z" />
    <glyph glyph-name="o" unicode="o" horiz-adv-x="526" 
d="M364 245q0 93 -18 128t-83 35t-83.5 -35.5t-18.5 -127.5t18.5 -127t83.5 -35t83 34.5t18 127.5zM479 245q0 -49 -5 -85.5t-19.5 -70t-38 -54.5t-62 -33.5t-91.5 -12.5t-91.5 12.5t-62 33.5t-38 54.5t-19.5 70t-5 85.5q0 128 45.5 192.5t170.5 64.5t170.5 -64.5
t45.5 -192.5z" />
    <glyph glyph-name="p" unicode="p" horiz-adv-x="534" 
d="M313 500q38 0 66.5 -8.5t47 -26t30.5 -38t17.5 -52t7.5 -60.5t2 -70q0 -47 -3.5 -81t-14.5 -69t-30 -56.5t-53 -35.5t-81 -14q-54 0 -121 13v-193l-114 -15v697h95l9 -40q60 49 142 49zM181 362v-266q58 -15 104 -15q54 0 69.5 36.5t15.5 127.5t-14.5 127.5t-65.5 36.5
q-60 0 -109 -47z" />
    <glyph glyph-name="q" unicode="q" horiz-adv-x="529" 
d="M215 -11q-54 0 -87.5 16t-51 51.5t-23 78t-5.5 110.5q0 139 47 197.5t177 58.5q90 0 190 -14v-678l-114 -15v219q-65 -24 -133 -24zM348 106v298q-36 6 -78 6q-37 0 -59.5 -9.5t-32.5 -34t-12.5 -49t-2.5 -72.5q0 -96 14.5 -129t68.5 -33q46 0 102 23z" />
    <glyph glyph-name="r" unicode="r" horiz-adv-x="347" 
d="M330 502v-107q-88 -15 -149 -60v-335h-113v491h98l11 -56q60 50 153 67z" />
    <glyph glyph-name="s" unicode="s" horiz-adv-x="442" 
d="M402 138q0 -75 -43.5 -112t-141.5 -37q-94 0 -172 23l16 89q78 -21 154 -21q44 0 61.5 11t17.5 43q0 33 -12 43t-75 25q-54 13 -84.5 26t-47 32.5t-21 40.5t-4.5 59q0 74 42.5 107.5t140.5 33.5q85 0 153 -15l-11 -90q-79 17 -142 17q-45 0 -60.5 -10.5t-15.5 -36.5
q0 -29 11.5 -39t59.5 -22q63 -15 97 -28.5t51.5 -34.5t21.5 -41.5t4 -62.5z" />
    <glyph glyph-name="t" unicode="t" horiz-adv-x="370" 
d="M336 6q-59 -16 -120 -16q-70 0 -97.5 31.5t-27.5 101.5v275h-72v93h72v124l113 15v-139h129l-9 -93h-120v-260q0 -32 8.5 -43.5t35.5 -11.5q35 0 81 16z" />
    <glyph glyph-name="u" unicode="u" horiz-adv-x="533" 
d="M63 491h114v-349q0 -49 44 -49q54 0 131 45v353h114v-491h-96l-11 43q-93 -54 -177 -54q-119 0 -119 130v372z" />
    <glyph glyph-name="v" unicode="v" horiz-adv-x="485" 
d="M479 491l-176 -491h-129l-168 491h119l115 -370l121 370h118z" />
    <glyph glyph-name="w" unicode="w" horiz-adv-x="703" 
d="M252 0h-119l-118 491h113l74 -352l94 270h112l93 -270l74 352h113l-119 -491h-118l-100 297z" />
    <glyph glyph-name="x" unicode="x" horiz-adv-x="485" 
d="M137 0h-124l167 247l-162 244h125l99 -157l101 157h123l-164 -241l170 -250h-124l-106 162z" />
    <glyph glyph-name="y" unicode="y" horiz-adv-x="482" 
d="M359 491h120l-251 -689h-111l74 195l-186 494h120l120 -350z" />
    <glyph glyph-name="z" unicode="z" horiz-adv-x="455" 
d="M52 400v91h354v-88l-229 -312h237v-91h-370v86l229 314h-221z" />
    <glyph glyph-name="braceleft" unicode="{" horiz-adv-x="325" 
d="M26 241v86q42 3 56 18t14 70v186q0 51 14 85t43 51.5t63 24.5t83 8v-88q-48 -2 -73 -20t-25 -66v-172q0 -121 -68 -140q68 -19 68 -141v-171q0 -49 24.5 -66.5t73.5 -20.5v-87q-50 1 -83.5 8t-62.5 24.5t-43 51t-14 84.5v186q0 55 -14 70.5t-56 18.5z" />
    <glyph glyph-name="bar" unicode="|" horiz-adv-x="247" 
d="M166 722v-928h-85v928h85z" />
    <glyph glyph-name="braceright" unicode="}" horiz-adv-x="325" 
d="M299 327v-86q-42 -3 -56 -18.5t-14 -70.5v-186q0 -51 -14 -84.5t-43 -51t-62.5 -24.5t-83.5 -8v87q49 3 73.5 20.5t24.5 66.5v171q0 122 68 141q-68 19 -68 140v172q0 48 -24.5 66t-73.5 20v88q49 -1 83 -8t63 -24.5t43 -51.5t14 -85v-186q0 -55 14 -70t56 -18z" />
    <glyph glyph-name="asciitilde" unicode="~" 
d="M436 371l29 -77q-50 -79 -130 -79q-39 0 -91 30t-76 30q-32 0 -56 -16.5t-49 -48.5l-29 77q52 83 135 83q39 0 91.5 -29.5t77.5 -29.5q57 0 98 60z" />
    <glyph glyph-name="uni00A0" unicode="&#xa0;" horiz-adv-x="240" 
 />
    <glyph glyph-name="exclamdown" unicode="&#xa1;" horiz-adv-x="265" 
d="M100 308h86l12 -172l3 -330h-116l4 330zM204 433q0 -43 -9.5 -56t-50.5 -13t-51 13t-10 56t10 56t51 13t50.5 -13t9.5 -56z" />
    <glyph glyph-name="cent" unicode="&#xa2;" horiz-adv-x="438" 
d="M223 -10v98q-105 8 -141.5 68.5t-36.5 186.5q0 127 37 187.5t141 68.5v95h78v-95q39 -3 89 -11l-10 -97q-28 7 -79 13v-321q33 3 78 14l12 -96q-37 -8 -90 -13v-98h-78zM160 344q0 -82 11.5 -116t51.5 -43v317q-35 -8 -49 -42t-14 -116z" />
    <glyph glyph-name="sterling" unicode="&#xa3;" horiz-adv-x="578" 
d="M69 301v87h67q-24 66 -24 114q0 183 215 183q90 0 178 -30l-12 -95q-81 30 -165 30q-58 0 -80.5 -22t-22.5 -72q0 -43 25 -108h190l-14 -87h-158q4 -16 4 -41q0 -81 -48 -173h292l3 -87h-335q-40 0 -106 -6l-5 88l52 19q42 62 42 132q0 38 -9 68h-89z" />
    <glyph glyph-name="currency" unicode="&#xa4;" horiz-adv-x="578" 
d="M521 122l-52 -56l-62 66q-58 -39 -118 -39q-68 0 -119 39l-61 -66l-53 56l59 65q-37 57 -37 128q0 70 38 130l-60 65l51 57l62 -67q53 39 120 39t118 -39l62 66l52 -54l-59 -67q37 -59 37 -130t-39 -127zM412 315q0 58 -36.5 97.5t-87.5 39.5t-87 -39.5t-36 -97.5
q0 -57 36 -96.5t87 -39.5q52 0 88 39.5t36 96.5z" />
    <glyph glyph-name="yen" unicode="&#xa5;" horiz-adv-x="578" 
d="M69 317v80h88l-141 287h122l151 -318l152 318h120l-142 -287h89v-80h-128l-30 -63l-1 -17h159v-79h-163v-158h-113v158h-163v79h158v17l-30 63h-128z" />
    <glyph glyph-name="brokenbar" unicode="&#xa6;" horiz-adv-x="247" 
d="M166 723v-383h-85v383h85zM166 -201h-85v383h85v-383z" />
    <glyph glyph-name="section" unicode="&#xa7;" horiz-adv-x="543" 
d="M484 246q0 -70 -76 -130q70 -48 70 -135q0 -77 -52.5 -129.5t-166.5 -52.5q-97 0 -188 36l10 99q92 -40 176 -40q63 0 89 20.5t26 64.5q0 26 -21 47t-43.5 32t-72.5 31q-11 5 -17 7q-74 31 -117 69t-43 97q0 77 76 133q-62 45 -62 123q0 80 50.5 128t164.5 48
q87 0 175 -32l-11 -98q-83 35 -164 35q-108 0 -108 -80q0 -34 31.5 -55.5t99.5 -49.5q11 -4 16 -6q73 -29 115.5 -66t42.5 -96zM382 231q-1 39 -36.5 62.5t-106.5 50.5q-5 1 -7.5 2t-7 3t-7.5 3q-56 -40 -56 -78q0 -45 76 -81q21 -10 70 -29q13 -5 19 -8q56 40 56 75z" />
    <glyph glyph-name="dieresis" unicode="&#xa8;" horiz-adv-x="333" 
d="M208 627q0 39 9 51t47 12t47 -12t9 -51q0 -38 -9 -50t-47 -12t-47 12t-9 50zM13 627q0 39 9 51t47 12t47 -12t9 -51q0 -38 -9 -50t-47 -12t-47 12t-9 50z" />
    <glyph glyph-name="copyright" unicode="&#xa9;" horiz-adv-x="800" 
d="M410 150q-101 0 -132.5 43.5t-31.5 152.5q0 103 31.5 145.5t127.5 42.5q55 0 111 -13l-8 -73q-52 15 -100 15q-49 0 -63 -21t-14 -92q0 -85 12 -107.5t68 -22.5q44 0 98 14l7 -71q-46 -13 -106 -13zM48 342q0 160 91 256.5t261 96.5q169 0 260.5 -96.5t91.5 -256.5
t-91.5 -256.5t-260.5 -96.5q-170 0 -261 96.5t-91 256.5zM131 342q0 -127 65 -201t204 -74t204.5 74t65.5 201q0 126 -65.5 200.5t-204.5 74.5t-204 -74.5t-65 -200.5z" />
    <glyph glyph-name="ordfeminine" unicode="&#xaa;" horiz-adv-x="375" 
d="M315 603v-217h-69l-7 24q-51 -30 -93 -30q-93 0 -93 92q0 62 35 81.5t124 19.5h23v27q0 24 -11.5 32t-46.5 8q-39 0 -100 -18l-4 66q58 17 117 17q67 0 96 -24t29 -78zM235 464v51h-24q-45 0 -62.5 -7t-17.5 -32q0 -35 36 -35q30 0 68 23z" />
    <glyph glyph-name="guillemotleft" unicode="&#xab;" horiz-adv-x="533" 
d="M277 211v66l154 181l68 -65l-126 -149l126 -149l-68 -65zM41 211v66l154 181l68 -65l-126 -149l126 -149l-68 -65z" />
    <glyph glyph-name="logicalnot" unicode="&#xac;" horiz-adv-x="509" 
d="M56 299v86h387v-256h-90v170h-297z" />
    <glyph glyph-name="uni00AD" unicode="&#xad;" horiz-adv-x="368" 
d="M47 221v98h274v-98h-274z" />
    <glyph glyph-name="registered" unicode="&#xae;" horiz-adv-x="640" 
d="M49 433q0 126 68.5 199t202.5 73q135 0 203 -73t68 -199t-68 -199t-203 -73q-134 0 -202.5 73t-68.5 199zM120 433q0 -98 45.5 -152t154.5 -54t154.5 54t45.5 152q0 97 -45.5 151t-154.5 54t-154.5 -54t-45.5 -151zM378 292l-66 103h-35v-103h-61v286h125q47 0 65 -23.5
t18 -67.5q0 -70 -45 -86l69 -109h-70zM361 486q0 24 -7 32t-30 8h-47v-80h52q19 0 25.5 9t6.5 31z" />
    <glyph glyph-name="macron" unicode="&#xaf;" horiz-adv-x="333" 
d="M36 578v75h261v-75h-261z" />
    <glyph glyph-name="degree" unicode="&#xb0;" horiz-adv-x="344" 
d="M46 560q0 52 36.5 89t89.5 37t89 -37t36 -89t-36 -88.5t-89 -36.5q-54 0 -90 36.5t-36 88.5zM104 560q0 -29 19.5 -49t48.5 -20q28 0 47.5 20t19.5 49t-19.5 49.5t-47.5 20.5q-30 0 -49 -20t-19 -50z" />
    <glyph glyph-name="plusminus" unicode="&#xb1;" 
d="M56 130v114h149v122h89v-122h149v-114h-149v-151h-89v151h-149z" />
    <glyph glyph-name="two.superior" unicode="&#xb2;" horiz-adv-x="399" 
d="M56 239v70q99 97 135 139q61 68 61 120q0 24 -14.5 35.5t-48.5 11.5q-55 0 -124 -27l-9 75q65 28 140 28q79 0 113.5 -29.5t34.5 -87.5q0 -41 -18 -76t-59 -83q-26 -31 -96 -102h174v-74h-289z" />
    <glyph glyph-name="three.superior" unicode="&#xb3;" horiz-adv-x="399" 
d="M49 253l8 74q71 -23 122 -23q42 0 59 12.5t17 43.5v16q0 28 -16 38.5t-50 10.5h-90v75h54q55 0 72 10.5t17 44.5v16q0 25 -14.5 35.5t-49.5 10.5q-43 0 -114 -23l-7 74q66 22 124 22q151 0 151 -110v-17q0 -71 -45 -92q59 -22 59 -98v-8q0 -68 -39.5 -100.5t-125.5 -32.5
q-69 0 -132 21z" />
    <glyph glyph-name="acute" unicode="&#xb4;" horiz-adv-x="333" 
d="M105 546l-19 72l199 104l6 -92z" />
    <glyph glyph-name="micro" unicode="&#xb5;" horiz-adv-x="533" 
d="M63 -206v697h114v-349q0 -49 44 -49q53 0 132 45v353h113v-491h-96l-11 43q-86 -49 -161 -53q-14 0 -21 3v-184z" />
    <glyph glyph-name="paragraph" unicode="&#xb6;" horiz-adv-x="587" 
d="M487 615v-804l-79 -13v817h-95v-804l-79 -13v495q-90 0 -149.5 56t-59.5 136q0 97 59 148t166 51h308l-9 -69h-62z" />
    <glyph glyph-name="periodcentered" unicode="&#xb7;" horiz-adv-x="246" 
d="M63 283q0 43 9.5 56t50.5 13t50.5 -13t9.5 -56t-9.5 -56t-50.5 -13t-50.5 13t-9.5 56z" />
    <glyph glyph-name="cedilla" unicode="&#xb8;" horiz-adv-x="333" 
d="M199 -132v26q0 14 -30 14q-11 0 -20 -3l-37 18l20 79h62l-11 -43q50 -1 74.5 -14.5t24.5 -45.5v-40q0 -36 -25.5 -49.5t-83.5 -13.5q-47 0 -92 9l12 58q33 -9 73 -9q33 0 33 14z" />
    <glyph glyph-name="one.superior" unicode="&#xb9;" horiz-adv-x="399" 
d="M93 239v74h80v274l-79 -37l-21 76l116 58h73v-371h77v-74h-246z" />
    <glyph glyph-name="ordmasculine" unicode="&#xba;" horiz-adv-x="405" 
d="M266 543q0 57 -11.5 76t-52.5 19q-40 0 -51.5 -19t-11.5 -76t11.5 -76.5t51.5 -19.5q41 0 52.5 19.5t11.5 76.5zM347 543q0 -80 -31 -121.5t-114 -41.5t-114 41.5t-31 121.5q0 79 31 120.5t114 41.5t114 -41.5t31 -120.5z" />
    <glyph glyph-name="guillemotright" unicode="&#xbb;" horiz-adv-x="533" 
d="M501 277v-66l-154 -181l-68 65l126 149l-126 149l68 65zM265 277v-66l-154 -181l-68 65l126 149l-126 149l68 65z" />
    <glyph glyph-name="onequarter" unicode="&#xbc;" horiz-adv-x="955" 
d="M674 679l-293 -691l-80 26l292 692zM93 239v74h80v274l-79 -37l-21 76l116 58h73v-371h77v-74h-246zM935 97h-60v-97h-89v97h-213v75l205 273h97v-272h60v-76zM667 173h119v158z" />
    <glyph glyph-name="onehalf" unicode="&#xbd;" horiz-adv-x="955" 
d="M664 679l-293 -691l-80 26l292 692zM93 239v74h80v274l-79 -37l-21 76l116 58h73v-371h77v-74h-246zM611 0v70q99 97 135 139q61 68 61 120q0 24 -14.5 35.5t-48.5 11.5q-55 0 -124 -27l-9 75q65 28 140 28q79 0 113.5 -29.5t34.5 -87.5q0 -41 -18 -76t-59 -83
q-26 -31 -96 -102h174v-74h-289z" />
    <glyph glyph-name="threequarters" unicode="&#xbe;" horiz-adv-x="955" 
d="M674 679l-293 -691l-80 26l292 692zM935 97h-60v-97h-89v97h-213v75l205 273h97v-272h60v-76zM667 173h119v158zM49 253l8 74q71 -23 122 -23q42 0 59 12.5t17 43.5v16q0 28 -16 38.5t-50 10.5h-90v75h54q55 0 72 10.5t17 44.5v16q0 25 -14.5 35.5t-49.5 10.5
q-43 0 -114 -23l-7 74q66 22 124 22q151 0 151 -110v-17q0 -71 -45 -92q59 -22 59 -98v-8q0 -68 -39.5 -100.5t-125.5 -32.5q-69 0 -132 21z" />
    <glyph glyph-name="questiondown" unicode="&#xbf;" horiz-adv-x="468" 
d="M255 293l91 -30q-20 -94 -79 -146q-5 -5 -25.5 -22.5t-25.5 -23.5t-16 -21.5t-14 -31.5t-3 -38q0 -48 20.5 -68t78.5 -20q66 0 152 27l11 -99q-92 -25 -170 -25q-112 0 -160 41t-48 132q0 35 5 61t19 48t22 32t32.5 31.5t31.5 28.5q52 50 78 124zM354 433
q0 -42 -10 -55.5t-51 -13.5t-50.5 13t-9.5 56t9.5 56t50.5 13t51 -13.5t10 -55.5z" />
    <glyph glyph-name="Agrave" unicode="&#xc0;" horiz-adv-x="621" 
d="M608 0h-123l-54 171h-246l-54 -171h-119l230 684h137zM402 265l-94 304l-95 -304h189zM392 796l-19 -72l-185 84l5 92z" />
    <glyph glyph-name="Aacute" unicode="&#xc1;" horiz-adv-x="621" 
d="M608 0h-123l-54 171h-246l-54 -171h-119l230 684h137zM402 265l-94 304l-95 -304h189zM246 724l-19 72l199 104l6 -92z" />
    <glyph glyph-name="Acircumflex" unicode="&#xc2;" horiz-adv-x="621" 
d="M608 0h-123l-54 171h-246l-54 -171h-119l230 684h137zM402 265l-94 304l-95 -304h189zM307 797l-133 -73l-21 68l154 100l159 -101l-28 -66z" />
    <glyph glyph-name="Atilde" unicode="&#xc3;" horiz-adv-x="621" 
d="M608 0h-123l-54 171h-246l-54 -171h-119l230 684h137zM402 265l-94 304l-95 -304h189zM369 745q-26 1 -64 17t-57 16q-36 0 -70 -32l-20 68q40 44 92 44q30 0 69.5 -17t53.5 -17q41 0 67 32l21 -66q-31 -45 -92 -45z" />
    <glyph glyph-name="Adieresis" unicode="&#xc4;" horiz-adv-x="621" 
d="M608 0h-123l-54 171h-246l-54 -171h-119l230 684h137zM402 265l-94 304l-95 -304h189zM351 805q0 39 9 51t47 12t47 -12t9 -51q0 -38 -9 -50t-47 -12t-47 12t-9 50zM156 805q0 39 9 51t47 12t47 -12t9 -51q0 -38 -9 -50t-47 -12t-47 12t-9 50z" />
    <glyph glyph-name="Aring" unicode="&#xc5;" horiz-adv-x="621" 
d="M608 0h-123l-54 171h-246l-54 -171h-119l230 684h137zM402 265l-94 304l-95 -304h189zM400 806q0 -39 -24.5 -63t-65.5 -24t-65.5 23.5t-24.5 63.5q0 38 25 62.5t65 24.5q41 0 65.5 -24t24.5 -63zM349 806q0 40 -39 40t-39 -40t39 -40t39 40z" />
    <glyph glyph-name="AE" unicode="&#xc6;" horiz-adv-x="872" 
d="M468 0l-28 171h-235l-71 -171h-122l292 684h516v-101h-332l31 -178h269v-101h-253l33 -203h252v-101h-352zM371 588l-128 -323h182z" />
    <glyph glyph-name="Ccedilla" unicode="&#xc7;" horiz-adv-x="536" 
d="M335 -132v26q0 14 -30 14q-11 0 -20 -3l-37 18l17 69q-56 5 -95 23.5t-61 43.5t-34 68t-15 82.5t-3 102.5v60q0 66 5.5 112t21.5 88.5t44 68t75 40t113 14.5q101 0 180 -21l-10 -103q-85 22 -166 22q-92 0 -118 -44t-26 -179v-55q0 -58 2 -90t10 -62.5t24 -43.5t43 -21
t69 -8q77 0 163 22l11 -102q-75 -20 -172 -21l-7 -30q50 -1 74.5 -14.5t24.5 -45.5v-40q0 -36 -25.5 -49.5t-83.5 -13.5q-47 0 -92 9l12 58q33 -9 73 -9q33 0 33 14z" />
    <glyph glyph-name="Egrave" unicode="&#xc8;" horiz-adv-x="532" 
d="M72 0v684h409v-101h-293v-181h261v-101h-261v-200h293v-101h-409zM369 796l-19 -72l-185 84l5 92z" />
    <glyph glyph-name="Eacute" unicode="&#xc9;" horiz-adv-x="532" 
d="M72 0v684h409v-101h-293v-181h261v-101h-261v-200h293v-101h-409zM207 724l-19 72l199 104l6 -92z" />
    <glyph glyph-name="Ecircumflex" unicode="&#xca;" horiz-adv-x="532" 
d="M72 0v684h409v-101h-293v-181h261v-101h-261v-200h293v-101h-409zM268 797l-133 -73l-21 68l154 100l159 -101l-28 -66z" />
    <glyph glyph-name="Edieresis" unicode="&#xcb;" horiz-adv-x="532" 
d="M72 0v684h409v-101h-293v-181h261v-101h-261v-200h293v-101h-409zM317 805q0 39 9 51t47 12t47 -12t9 -51q0 -38 -9 -50t-47 -12t-47 12t-9 50zM122 805q0 39 9 51t47 12t47 -12t9 -51q0 -38 -9 -50t-47 -12t-47 12t-9 50z" />
    <glyph glyph-name="Igrave" unicode="&#xcc;" horiz-adv-x="268" 
d="M192 684v-684h-116v684h116zM217 796l-19 -72l-185 84l5 92z" />
    <glyph glyph-name="Iacute" unicode="&#xcd;" horiz-adv-x="268" 
d="M192 684v-684h-116v684h116zM71 724l-19 72l199 104l6 -92z" />
    <glyph glyph-name="Icircumflex" unicode="&#xce;" horiz-adv-x="268" 
d="M192 684v-684h-116v684h116zM133 797l-133 -73l-21 68l154 100l159 -101l-28 -66z" />
    <glyph glyph-name="Idieresis" unicode="&#xcf;" horiz-adv-x="268" 
d="M192 684v-684h-116v684h116zM176 805q0 39 9 51t47 12t47 -12t9 -51q0 -38 -9 -50t-47 -12t-47 12t-9 50zM-19 805q0 39 9 51t47 12t47 -12t9 -51q0 -38 -9 -50t-47 -12t-47 12t-9 50z" />
    <glyph glyph-name="Eth" unicode="&#xd0;" horiz-adv-x="610" 
d="M72 684h230q49 0 87.5 -8t65 -21t45 -36.5t29 -46.5t16 -58.5t7.5 -65.5t2 -75v-61q0 -68 -4 -111t-18.5 -85t-42 -65t-74.5 -37t-115 -14h-228v296h-68v97h68v291zM188 583v-190h131v-97h-131v-195h110q39 0 64 8t40 21.5t22 43t9 58.5t2 82v58q0 54 -2 83t-9 58
t-21.5 41.5t-39.5 20.5t-64 8h-111z" />
    <glyph glyph-name="Ntilde" unicode="&#xd1;" horiz-adv-x="659" 
d="M455 0l-270 488v-488h-113v684h131l270 -498v498h114v-684h-132zM388 745q-26 1 -64 17t-57 16q-36 0 -70 -32l-20 68q40 44 92 44q30 0 69.5 -17t53.5 -17q41 0 67 32l21 -66q-31 -45 -92 -45z" />
    <glyph glyph-name="Ograve" unicode="&#xd2;" horiz-adv-x="638" 
d="M462 313v58q0 52 -2 81t-9.5 60.5t-22.5 46.5t-42 25t-67 10t-67 -10t-42 -25t-22.5 -46.5t-9.5 -60.5t-2 -81v-58q0 -53 2 -82t9.5 -60.5t22.5 -46.5t42 -24.5t67 -9.5t67 9.5t42 24.5t22.5 46.5t9.5 60.5t2 82zM581 372v-60q0 -62 -5 -106t-21 -87.5t-44 -70t-76 -43
t-116 -16.5q-67 0 -115.5 16.5t-76.5 43t-44 70t-21 87.5t-5 106v60q0 62 5 106t21 87.5t44 70t76.5 43t115.5 16.5q68 0 116 -16.5t76 -43t44 -70t21 -87.5t5 -106zM401 796l-19 -72l-185 84l5 92z" />
    <glyph glyph-name="Oacute" unicode="&#xd3;" horiz-adv-x="638" 
d="M462 313v58q0 52 -2 81t-9.5 60.5t-22.5 46.5t-42 25t-67 10t-67 -10t-42 -25t-22.5 -46.5t-9.5 -60.5t-2 -81v-58q0 -53 2 -82t9.5 -60.5t22.5 -46.5t42 -24.5t67 -9.5t67 9.5t42 24.5t22.5 46.5t9.5 60.5t2 82zM581 372v-60q0 -62 -5 -106t-21 -87.5t-44 -70t-76 -43
t-116 -16.5q-67 0 -115.5 16.5t-76.5 43t-44 70t-21 87.5t-5 106v60q0 62 5 106t21 87.5t44 70t76.5 43t115.5 16.5q68 0 116 -16.5t76 -43t44 -70t21 -87.5t5 -106zM255 724l-19 72l199 104l6 -92z" />
    <glyph glyph-name="Ocircumflex" unicode="&#xd4;" horiz-adv-x="638" 
d="M462 313v58q0 52 -2 81t-9.5 60.5t-22.5 46.5t-42 25t-67 10t-67 -10t-42 -25t-22.5 -46.5t-9.5 -60.5t-2 -81v-58q0 -53 2 -82t9.5 -60.5t22.5 -46.5t42 -24.5t67 -9.5t67 9.5t42 24.5t22.5 46.5t9.5 60.5t2 82zM581 372v-60q0 -62 -5 -106t-21 -87.5t-44 -70t-76 -43
t-116 -16.5q-67 0 -115.5 16.5t-76.5 43t-44 70t-21 87.5t-5 106v60q0 62 5 106t21 87.5t44 70t76.5 43t115.5 16.5q68 0 116 -16.5t76 -43t44 -70t21 -87.5t5 -106zM316 797l-133 -73l-21 68l154 100l159 -101l-28 -66z" />
    <glyph glyph-name="Otilde" unicode="&#xd5;" horiz-adv-x="638" 
d="M462 313v58q0 52 -2 81t-9.5 60.5t-22.5 46.5t-42 25t-67 10t-67 -10t-42 -25t-22.5 -46.5t-9.5 -60.5t-2 -81v-58q0 -53 2 -82t9.5 -60.5t22.5 -46.5t42 -24.5t67 -9.5t67 9.5t42 24.5t22.5 46.5t9.5 60.5t2 82zM581 372v-60q0 -62 -5 -106t-21 -87.5t-44 -70t-76 -43
t-116 -16.5q-67 0 -115.5 16.5t-76.5 43t-44 70t-21 87.5t-5 106v60q0 62 5 106t21 87.5t44 70t76.5 43t115.5 16.5q68 0 116 -16.5t76 -43t44 -70t21 -87.5t5 -106zM378 745q-26 1 -64 17t-57 16q-36 0 -70 -32l-20 68q40 44 92 44q30 0 69.5 -17t53.5 -17q41 0 67 32
l21 -66q-31 -45 -92 -45z" />
    <glyph glyph-name="Odieresis" unicode="&#xd6;" horiz-adv-x="638" 
d="M462 313v58q0 52 -2 81t-9.5 60.5t-22.5 46.5t-42 25t-67 10t-67 -10t-42 -25t-22.5 -46.5t-9.5 -60.5t-2 -81v-58q0 -53 2 -82t9.5 -60.5t22.5 -46.5t42 -24.5t67 -9.5t67 9.5t42 24.5t22.5 46.5t9.5 60.5t2 82zM581 372v-60q0 -62 -5 -106t-21 -87.5t-44 -70t-76 -43
t-116 -16.5q-67 0 -115.5 16.5t-76.5 43t-44 70t-21 87.5t-5 106v60q0 62 5 106t21 87.5t44 70t76.5 43t115.5 16.5q68 0 116 -16.5t76 -43t44 -70t21 -87.5t5 -106zM360 805q0 39 9 51t47 12t47 -12t9 -51q0 -38 -9 -50t-47 -12t-47 12t-9 50zM165 805q0 39 9 51t47 12
t47 -12t9 -51q0 -38 -9 -50t-47 -12t-47 12t-9 50z" />
    <glyph glyph-name="multiply" unicode="&#xd7;" 
d="M71 401l60 60l118 -118l118 118l61 -61l-118 -118l118 -118l-60 -60l-118 118l-118 -118l-61 61l117 118z" />
    <glyph glyph-name="Oslash" unicode="&#xd8;" horiz-adv-x="638" 
d="M581 372v-60q0 -62 -5 -106t-21 -87.5t-44 -70t-76 -43t-116 -16.5q-78 0 -133 22l-38 -72l-65 35l41 78q-39 40 -53 103.5t-14 156.5v60q0 62 5 106t21 87.5t44 70t76.5 43t115.5 16.5q80 0 134 -23l37 70l65 -34l-41 -77q39 -40 53 -103t14 -156zM176 313
q0 -105 11 -143l216 408q-34 16 -84 16q-40 0 -67 -10t-42 -25t-22.5 -46.5t-9.5 -60.5t-2 -81v-58zM462 313v58q0 103 -11 141l-215 -407q30 -15 83 -15q40 0 67 9.5t42 24.5t22.5 46.5t9.5 60.5t2 82z" />
    <glyph glyph-name="Ugrave" unicode="&#xd9;" horiz-adv-x="634" 
d="M567 684v-453q0 -110 -58 -176t-192 -66t-192.5 66t-58.5 176v453h117v-454q0 -71 31 -104.5t103 -33.5t103 33.5t31 104.5v454h116zM399 796l-19 -72l-185 84l5 92z" />
    <glyph glyph-name="Uacute" unicode="&#xda;" horiz-adv-x="634" 
d="M567 684v-453q0 -110 -58 -176t-192 -66t-192.5 66t-58.5 176v453h117v-454q0 -71 31 -104.5t103 -33.5t103 33.5t31 104.5v454h116zM253 724l-19 72l199 104l6 -92z" />
    <glyph glyph-name="Ucircumflex" unicode="&#xdb;" horiz-adv-x="634" 
d="M567 684v-453q0 -110 -58 -176t-192 -66t-192.5 66t-58.5 176v453h117v-454q0 -71 31 -104.5t103 -33.5t103 33.5t31 104.5v454h116zM314 797l-133 -73l-21 68l154 100l159 -101l-28 -66z" />
    <glyph glyph-name="Udieresis" unicode="&#xdc;" horiz-adv-x="634" 
d="M567 684v-453q0 -110 -58 -176t-192 -66t-192.5 66t-58.5 176v453h117v-454q0 -71 31 -104.5t103 -33.5t103 33.5t31 104.5v454h116zM357 805q0 39 9 51t47 12t47 -12t9 -51q0 -38 -9 -50t-47 -12t-47 12t-9 50zM162 805q0 39 9 51t47 12t47 -12t9 -51q0 -38 -9 -50
t-47 -12t-47 12t-9 50z" />
    <glyph glyph-name="Yacute" unicode="&#xdd;" horiz-adv-x="558" 
d="M128 684l151 -320l153 320h124l-219 -446v-238h-116v238l-220 446h127zM215 724l-19 72l199 104l6 -92z" />
    <glyph glyph-name="Thorn" unicode="&#xde;" horiz-adv-x="568" 
d="M72 0v684h116v-115h148q64 0 104.5 -14.5t60 -47t25.5 -68t6 -92.5q0 -119 -41 -172t-155 -53h-148v-122h-116zM415 346q0 75 -19 98.5t-82 23.5h-126v-246h130q62 0 79.5 26.5t17.5 97.5z" />
    <glyph glyph-name="germandbls" unicode="&#xdf;" horiz-adv-x="592" 
d="M259 348q0 10 1.5 19t5.5 18t6.5 15t10 16t10 13t12 15t11.5 14q40 53 40 87q0 75 -88 75q-47 0 -67 -24.5t-20 -77.5v-518h-113v515q0 94 49 144.5t148 50.5q95 0 146 -43t51 -122q0 -49 -42 -103q-6 -8 -18.5 -23.5t-17.5 -22t-10 -16.5t-5 -17q0 -6 1.5 -10.5
t5.5 -9.5t7.5 -8t12.5 -9t14.5 -9.5t19 -12t22.5 -13.5q55 -36 76.5 -67t21.5 -92q0 -75 -38 -109t-131 -34q-61 0 -129 19l14 91q55 -19 109 -19q39 0 53 11.5t14 40.5q0 13 -2.5 22t-16 20t-21 15.5t-36.5 22.5q-34 20 -45.5 27.5t-30.5 25t-25 37t-6 46.5z" />
    <glyph glyph-name="agrave" unicode="&#xe0;" 
d="M439 333v-333h-98l-10 40q-79 -50 -154 -50q-60 0 -95.5 34.5t-35.5 106.5q0 96 50.5 125.5t176.5 29.5q27 0 53 -1v52q0 37 -18 55t-70 18q-71 0 -156 -24l-6 91q83 24 178 24q102 0 143.5 -39t41.5 -129zM326 118v88q-23 1 -45 1q-70 0 -97 -12t-27 -56q0 -33 13 -47
t43 -14q57 0 113 40zM336 618l-19 -72l-185 84l5 92z" />
    <glyph glyph-name="aacute" unicode="&#xe1;" 
d="M439 333v-333h-98l-10 40q-79 -50 -154 -50q-60 0 -95.5 34.5t-35.5 106.5q0 96 50.5 125.5t176.5 29.5q27 0 53 -1v52q0 37 -18 55t-70 18q-71 0 -156 -24l-6 91q83 24 178 24q102 0 143.5 -39t41.5 -129zM326 118v88q-23 1 -45 1q-70 0 -97 -12t-27 -56q0 -33 13 -47
t43 -14q57 0 113 40zM181 546l-19 72l199 104l6 -92z" />
    <glyph glyph-name="acircumflex" unicode="&#xe2;" 
d="M439 333v-333h-98l-10 40q-79 -50 -154 -50q-60 0 -95.5 34.5t-35.5 106.5q0 96 50.5 125.5t176.5 29.5q27 0 53 -1v52q0 37 -18 55t-70 18q-71 0 -156 -24l-6 91q83 24 178 24q102 0 143.5 -39t41.5 -129zM326 118v88q-23 1 -45 1q-70 0 -97 -12t-27 -56q0 -33 13 -47
t43 -14q57 0 113 40zM247 619l-133 -73l-21 68l154 100l159 -101l-28 -66z" />
    <glyph glyph-name="atilde" unicode="&#xe3;" 
d="M439 333v-333h-98l-10 40q-79 -50 -154 -50q-60 0 -95.5 34.5t-35.5 106.5q0 96 50.5 125.5t176.5 29.5q27 0 53 -1v52q0 37 -18 55t-70 18q-71 0 -156 -24l-6 91q83 24 178 24q102 0 143.5 -39t41.5 -129zM326 118v88q-23 1 -45 1q-70 0 -97 -12t-27 -56q0 -33 13 -47
t43 -14q57 0 113 40zM309 567q-26 1 -64 17t-57 16q-36 0 -70 -32l-20 68q40 44 92 44q30 0 69.5 -17t53.5 -17q41 0 67 32l21 -66q-31 -45 -92 -45z" />
    <glyph glyph-name="adieresis" unicode="&#xe4;" 
d="M439 333v-333h-98l-10 40q-79 -50 -154 -50q-60 0 -95.5 34.5t-35.5 106.5q0 96 50.5 125.5t176.5 29.5q27 0 53 -1v52q0 37 -18 55t-70 18q-71 0 -156 -24l-6 91q83 24 178 24q102 0 143.5 -39t41.5 -129zM326 118v88q-23 1 -45 1q-70 0 -97 -12t-27 -56q0 -33 13 -47
t43 -14q57 0 113 40zM290 627q0 39 9 51t47 12t47 -12t9 -51q0 -38 -9 -50t-47 -12t-47 12t-9 50zM95 627q0 39 9 51t47 12t47 -12t9 -51q0 -38 -9 -50t-47 -12t-47 12t-9 50z" />
    <glyph glyph-name="aring" unicode="&#xe5;" 
d="M439 333v-333h-98l-10 40q-79 -50 -154 -50q-60 0 -95.5 34.5t-35.5 106.5q0 96 50.5 125.5t176.5 29.5q27 0 53 -1v52q0 37 -18 55t-70 18q-71 0 -156 -24l-6 91q83 24 178 24q102 0 143.5 -39t41.5 -129zM326 118v88q-23 1 -45 1q-70 0 -97 -12t-27 -56q0 -33 13 -47
t43 -14q57 0 113 40zM339 628q0 -39 -24.5 -63t-65.5 -24t-65.5 23.5t-24.5 63.5q0 38 25 62.5t65 24.5q41 0 65.5 -24t24.5 -63zM288 628q0 40 -39 40t-39 -40t39 -40t39 40z" />
    <glyph glyph-name="ae" unicode="&#xe6;" horiz-adv-x="774" 
d="M726 209h-288q0 -78 21 -104t86 -26q84 0 166 25l8 -91q-96 -24 -188 -24q-113 0 -162 60q-44 -33 -84.5 -46.5t-95.5 -13.5q-64 0 -103.5 34.5t-39.5 107.5q0 97 51.5 126t183.5 29q19 0 45 -1v45q0 39 -18.5 60t-69.5 21q-72 0 -156 -25l-6 91q85 24 178 24t140 -47
q52 47 139 47q61 0 100.5 -16.5t59 -51.5t26.5 -76.5t7 -104.5v-43zM619 289v25q0 51 -20 74.5t-67 23.5q-52 0 -73 -27.5t-21 -84.5v-11h181zM217 77q58 0 117 41q-6 25 -8 87q-42 2 -52 2q-66 0 -91.5 -12.5t-25.5 -56.5q0 -33 14.5 -47t45.5 -14z" />
    <glyph glyph-name="ccedilla" unicode="&#xe7;" horiz-adv-x="426" 
d="M270 -132v26q0 14 -30 14q-11 0 -20 -3l-37 18l17 70q-91 13 -123 73t-32 179q0 68 8.5 112.5t31.5 79t65 50t107 15.5q66 0 133 -12l-10 -97q-58 15 -118 15t-81 -31t-21 -131q0 -97 18.5 -130t85.5 -33q48 0 115 16l12 -96q-73 -13 -130 -14l-7 -30q50 -1 74.5 -14.5
t24.5 -45.5v-40q0 -36 -25.5 -49.5t-83.5 -13.5q-47 0 -92 9l12 58q33 -9 73 -9q33 0 33 14z" />
    <glyph glyph-name="egrave" unicode="&#xe8;" horiz-adv-x="495" 
d="M161 207v-13q0 -68 23.5 -91.5t83.5 -23.5q78 0 165 26l7 -91q-91 -25 -187 -25q-122 0 -164.5 61.5t-42.5 200.5q0 59 8.5 100.5t30 77.5t64 54t106.5 18q112 0 153 -58t41 -180v-56h-288zM161 300v-13h178v27q0 51 -19.5 74.5t-65.5 23.5q-50 0 -71.5 -27t-21.5 -85z
M329 618l-19 -72l-185 84l5 92z" />
    <glyph glyph-name="eacute" unicode="&#xe9;" horiz-adv-x="495" 
d="M161 207v-13q0 -68 23.5 -91.5t83.5 -23.5q78 0 165 26l7 -91q-91 -25 -187 -25q-122 0 -164.5 61.5t-42.5 200.5q0 59 8.5 100.5t30 77.5t64 54t106.5 18q112 0 153 -58t41 -180v-56h-288zM161 300v-13h178v27q0 51 -19.5 74.5t-65.5 23.5q-50 0 -71.5 -27t-21.5 -85z
M183 546l-19 72l199 104l6 -92z" />
    <glyph glyph-name="ecircumflex" unicode="&#xea;" horiz-adv-x="495" 
d="M161 207v-13q0 -68 23.5 -91.5t83.5 -23.5q78 0 165 26l7 -91q-91 -25 -187 -25q-122 0 -164.5 61.5t-42.5 200.5q0 59 8.5 100.5t30 77.5t64 54t106.5 18q112 0 153 -58t41 -180v-56h-288zM161 300v-13h178v27q0 51 -19.5 74.5t-65.5 23.5q-50 0 -71.5 -27t-21.5 -85z
M245 619l-133 -73l-21 68l154 100l159 -101l-28 -66z" />
    <glyph glyph-name="edieresis" unicode="&#xeb;" horiz-adv-x="495" 
d="M161 207v-13q0 -68 23.5 -91.5t83.5 -23.5q78 0 165 26l7 -91q-91 -25 -187 -25q-122 0 -164.5 61.5t-42.5 200.5q0 59 8.5 100.5t30 77.5t64 54t106.5 18q112 0 153 -58t41 -180v-56h-288zM161 300v-13h178v27q0 51 -19.5 74.5t-65.5 23.5q-50 0 -71.5 -27t-21.5 -85z
M289 627q0 39 9 51t47 12t47 -12t9 -51q0 -38 -9 -50t-47 -12t-47 12t-9 50zM94 627q0 39 9 51t47 12t47 -12t9 -51q0 -38 -9 -50t-47 -12t-47 12t-9 50z" />
    <glyph glyph-name="igrave" unicode="&#xec;" horiz-adv-x="252" 
d="M209 618l-19 -72l-185 84l5 92zM182 0h-113v491h113v-491z" />
    <glyph glyph-name="iacute" unicode="&#xed;" horiz-adv-x="252" 
d="M63 546l-19 72l199 104l6 -92zM182 0h-113v491h113v-491z" />
    <glyph glyph-name="icircumflex" unicode="&#xee;" horiz-adv-x="252" 
d="M182 0h-113v491h113v-491zM124 619l-133 -73l-21 68l154 100l159 -101l-28 -66z" />
    <glyph glyph-name="idieresis" unicode="&#xef;" horiz-adv-x="252" 
d="M168 627q0 39 9 51t47 12t47 -12t9 -51q0 -38 -9 -50t-47 -12t-47 12t-9 50zM-27 627q0 39 9 51t47 12t47 -12t9 -51q0 -38 -9 -50t-47 -12t-47 12t-9 50zM182 0h-113v491h113v-491z" />
    <glyph glyph-name="eth" unicode="&#xf0;" horiz-adv-x="534" 
d="M195 505l-33 48l70 48q-39 29 -104 62l90 40q54 -18 97 -45l65 45l35 -47l-51 -35q62 -60 88.5 -153.5t26.5 -231.5q0 -125 -46 -186.5t-170 -61.5q-65 0 -108.5 17t-66.5 51t-32 76.5t-9 102.5q0 122 47.5 178t167.5 56q40 0 71 -16q-10 58 -57 108zM364 228
q0 84 -18.5 115.5t-82.5 31.5q-65 0 -83.5 -31.5t-18.5 -115.5q0 -83 18.5 -114.5t83.5 -31.5q64 0 82.5 31t18.5 115z" />
    <glyph glyph-name="ntilde" unicode="&#xf1;" horiz-adv-x="533" 
d="M470 0h-114v347q0 50 -45 50q-54 0 -130 -45v-352h-114v491h96l12 -45q94 55 178 55q117 0 117 -130v-371zM325 567q-26 1 -64 17t-57 16q-36 0 -70 -32l-20 68q40 44 92 44q30 0 69.5 -17t53.5 -17q41 0 67 32l21 -66q-31 -45 -92 -45z" />
    <glyph glyph-name="ograve" unicode="&#xf2;" horiz-adv-x="526" 
d="M364 245q0 93 -18 128t-83 35t-83.5 -35.5t-18.5 -127.5t18.5 -127t83.5 -35t83 34.5t18 127.5zM479 245q0 -49 -5 -85.5t-19.5 -70t-38 -54.5t-62 -33.5t-91.5 -12.5t-91.5 12.5t-62 33.5t-38 54.5t-19.5 70t-5 85.5q0 128 45.5 192.5t170.5 64.5t170.5 -64.5
t45.5 -192.5zM345 618l-19 -72l-185 84l5 92z" />
    <glyph glyph-name="oacute" unicode="&#xf3;" horiz-adv-x="526" 
d="M364 245q0 93 -18 128t-83 35t-83.5 -35.5t-18.5 -127.5t18.5 -127t83.5 -35t83 34.5t18 127.5zM479 245q0 -49 -5 -85.5t-19.5 -70t-38 -54.5t-62 -33.5t-91.5 -12.5t-91.5 12.5t-62 33.5t-38 54.5t-19.5 70t-5 85.5q0 128 45.5 192.5t170.5 64.5t170.5 -64.5
t45.5 -192.5zM199 546l-19 72l199 104l6 -92z" />
    <glyph glyph-name="ocircumflex" unicode="&#xf4;" horiz-adv-x="526" 
d="M364 245q0 93 -18 128t-83 35t-83.5 -35.5t-18.5 -127.5t18.5 -127t83.5 -35t83 34.5t18 127.5zM479 245q0 -49 -5 -85.5t-19.5 -70t-38 -54.5t-62 -33.5t-91.5 -12.5t-91.5 12.5t-62 33.5t-38 54.5t-19.5 70t-5 85.5q0 128 45.5 192.5t170.5 64.5t170.5 -64.5
t45.5 -192.5zM260 619l-133 -73l-21 68l154 100l159 -101l-28 -66z" />
    <glyph glyph-name="otilde" unicode="&#xf5;" horiz-adv-x="526" 
d="M364 245q0 93 -18 128t-83 35t-83.5 -35.5t-18.5 -127.5t18.5 -127t83.5 -35t83 34.5t18 127.5zM479 245q0 -49 -5 -85.5t-19.5 -70t-38 -54.5t-62 -33.5t-91.5 -12.5t-91.5 12.5t-62 33.5t-38 54.5t-19.5 70t-5 85.5q0 128 45.5 192.5t170.5 64.5t170.5 -64.5
t45.5 -192.5zM322 567q-26 1 -64 17t-57 16q-36 0 -70 -32l-20 68q40 44 92 44q30 0 69.5 -17t53.5 -17q41 0 67 32l21 -66q-31 -45 -92 -45z" />
    <glyph glyph-name="odieresis" unicode="&#xf6;" horiz-adv-x="526" 
d="M364 245q0 93 -18 128t-83 35t-83.5 -35.5t-18.5 -127.5t18.5 -127t83.5 -35t83 34.5t18 127.5zM479 245q0 -49 -5 -85.5t-19.5 -70t-38 -54.5t-62 -33.5t-91.5 -12.5t-91.5 12.5t-62 33.5t-38 54.5t-19.5 70t-5 85.5q0 128 45.5 192.5t170.5 64.5t170.5 -64.5
t45.5 -192.5zM304 627q0 39 9 51t47 12t47 -12t9 -51q0 -38 -9 -50t-47 -12t-47 12t-9 50zM109 627q0 39 9 51t47 12t47 -12t9 -51q0 -38 -9 -50t-47 -12t-47 12t-9 50z" />
    <glyph glyph-name="divide" unicode="&#xf7;" 
d="M196 456q0 39 9 51t45 12t45 -12t9 -51t-9 -51t-45 -12t-45 12t-9 51zM196 109q0 39 9 51t45 12t45 -12t9 -51t-9 -51t-45 -12t-45 12t-9 51zM56 240v85h387v-85h-387z" />
    <glyph glyph-name="oslash" unicode="&#xf8;" horiz-adv-x="526" 
d="M479 245q0 -49 -5 -85.5t-19.5 -70t-38 -54.5t-62 -33.5t-91.5 -12.5q-55 0 -100 15l-37 -65l-55 31l37 66q-61 56 -61 209q0 128 45.5 192.5t170.5 64.5q61 0 102 -16l36 64l55 -31l-37 -66q60 -57 60 -208zM161 245q0 -73 8 -102l146 256q-20 9 -52 9
q-65 0 -83.5 -35.5t-18.5 -127.5zM364 245q0 70 -7 99l-145 -254q18 -7 51 -7q65 0 83 34.5t18 127.5z" />
    <glyph glyph-name="ugrave" unicode="&#xf9;" horiz-adv-x="533" 
d="M63 491h114v-349q0 -49 44 -49q54 0 131 45v353h114v-491h-96l-11 43q-93 -54 -177 -54q-119 0 -119 130v372zM349 618l-19 -72l-185 84l5 92z" />
    <glyph glyph-name="uacute" unicode="&#xfa;" horiz-adv-x="533" 
d="M63 491h114v-349q0 -49 44 -49q54 0 131 45v353h114v-491h-96l-11 43q-93 -54 -177 -54q-119 0 -119 130v372zM203 546l-19 72l199 104l6 -92z" />
    <glyph glyph-name="ucircumflex" unicode="&#xfb;" horiz-adv-x="533" 
d="M63 491h114v-349q0 -49 44 -49q54 0 131 45v353h114v-491h-96l-11 43q-93 -54 -177 -54q-119 0 -119 130v372zM264 619l-133 -73l-21 68l154 100l159 -101l-28 -66z" />
    <glyph glyph-name="udieresis" unicode="&#xfc;" horiz-adv-x="533" 
d="M63 491h114v-349q0 -49 44 -49q54 0 131 45v353h114v-491h-96l-11 43q-93 -54 -177 -54q-119 0 -119 130v372zM307 627q0 39 9 51t47 12t47 -12t9 -51q0 -38 -9 -50t-47 -12t-47 12t-9 50zM112 627q0 39 9 51t47 12t47 -12t9 -51q0 -38 -9 -50t-47 -12t-47 12t-9 50z" />
    <glyph glyph-name="yacute" unicode="&#xfd;" horiz-adv-x="482" 
d="M359 491h120l-251 -689h-111l74 195l-186 494h120l120 -350zM177 546l-19 72l199 104l6 -92z" />
    <glyph glyph-name="thorn" unicode="&#xfe;" horiz-adv-x="534" 
d="M180 710l1 -253q57 43 132 43q38 0 66.5 -8.5t47 -26t30.5 -38t17.5 -52t7.5 -60.5t2 -70q0 -47 -3.5 -81t-14.5 -69t-30 -56.5t-53 -35.5t-81 -14q-54 0 -121 13v-193l-114 -15v901zM181 362v-266q58 -15 104 -15q54 0 69.5 36.5t15.5 127.5t-14.5 127.5t-65.5 36.5
q-60 0 -109 -47z" />
    <glyph glyph-name="ydieresis" unicode="&#xff;" horiz-adv-x="482" 
d="M359 491h120l-251 -689h-111l74 195l-186 494h120l120 -350zM282 627q0 39 9 51t47 12t47 -12t9 -51q0 -38 -9 -50t-47 -12t-47 12t-9 50zM87 627q0 39 9 51t47 12t47 -12t9 -51q0 -38 -9 -50t-47 -12t-47 12t-9 50z" />
    <glyph glyph-name="Amacron" unicode="&#x100;" horiz-adv-x="621" 
d="M608 0h-123l-54 171h-246l-54 -171h-119l230 684h137zM402 265l-94 304l-95 -304h189zM179 756v75h261v-75h-261z" />
    <glyph glyph-name="amacron" unicode="&#x101;" 
d="M439 333v-333h-98l-10 40q-79 -50 -154 -50q-60 0 -95.5 34.5t-35.5 106.5q0 96 50.5 125.5t176.5 29.5q27 0 53 -1v52q0 37 -18 55t-70 18q-71 0 -156 -24l-6 91q83 24 178 24q102 0 143.5 -39t41.5 -129zM326 118v88q-23 1 -45 1q-70 0 -97 -12t-27 -56q0 -33 13 -47
t43 -14q57 0 113 40zM118 578v75h261v-75h-261z" />
    <glyph glyph-name="Abreve" unicode="&#x102;" horiz-adv-x="621" 
d="M608 0h-123l-54 171h-246l-54 -171h-119l230 684h137zM402 265l-94 304l-95 -304h189zM382 855l66 -13q-3 -55 -37.5 -87.5t-101.5 -32.5q-66 0 -100.5 32.5t-37.5 87.5l65 13q9 -64 73 -64q68 0 73 64z" />
    <glyph glyph-name="abreve" unicode="&#x103;" 
d="M439 333v-333h-98l-10 40q-79 -50 -154 -50q-60 0 -95.5 34.5t-35.5 106.5q0 96 50.5 125.5t176.5 29.5q27 0 53 -1v52q0 37 -18 55t-70 18q-71 0 -156 -24l-6 91q83 24 178 24q102 0 143.5 -39t41.5 -129zM326 118v88q-23 1 -45 1q-70 0 -97 -12t-27 -56q0 -33 13 -47
t43 -14q57 0 113 40zM321 677l66 -13q-3 -55 -37.5 -87.5t-101.5 -32.5q-66 0 -100.5 32.5t-37.5 87.5l65 13q9 -64 73 -64q68 0 73 64z" />
    <glyph glyph-name="Aogonek" unicode="&#x104;" horiz-adv-x="621" 
d="M611 -195q-26 -9 -64 -9q-55 0 -83.5 22t-28.5 59q0 74 64 123h-14l-54 171h-246l-54 -171h-119l230 684h137l229 -684h-15q-38 -21 -58.5 -50t-20.5 -59q0 -15 12 -25t33 -10q17 0 45 5zM402 265l-94 304l-95 -304h189z" />
    <glyph glyph-name="aogonek" unicode="&#x105;" 
d="M455 -195q-25 -9 -64 -9q-55 0 -83.5 22t-28.5 59q0 74 64 123h-2l-10 40q-79 -50 -154 -50q-60 0 -95.5 34.5t-35.5 106.5q0 96 50.5 125.5t176.5 29.5q27 0 53 -1v52q0 37 -18 55t-70 18q-71 0 -156 -24l-6 91q83 24 178 24q102 0 143.5 -39t41.5 -129v-331h2l-2 -1v-1
h-2q-38 -21 -58.5 -50t-20.5 -59q0 -15 12 -25t33 -10q17 0 45 5zM326 118v88q-23 1 -45 1q-70 0 -97 -12t-27 -56q0 -33 13 -47t43 -14q57 0 113 40z" />
    <glyph glyph-name="Cacute" unicode="&#x106;" horiz-adv-x="536" 
d="M320 593q-92 0 -118 -44t-26 -179v-55q0 -58 2 -90t10 -62.5t24 -43.5t43 -21t69 -8q77 0 163 22l11 -102q-82 -21 -175 -21q-52 0 -92.5 8t-68.5 21t-47.5 36.5t-30.5 47t-17.5 60.5t-8 69.5t-1.5 80.5v60q0 66 5.5 112t21.5 88.5t44 68t75 40t113 14.5q101 0 180 -21
l-10 -103q-85 22 -166 22zM226 724l-19 72l199 104l6 -92z" />
    <glyph glyph-name="cacute" unicode="&#x107;" horiz-adv-x="426" 
d="M160 246q0 -97 18.5 -130t85.5 -33q48 0 115 16l12 -96q-72 -14 -135 -14q-126 0 -168.5 60.5t-42.5 195.5q0 68 8.5 112.5t31.5 79t65 50t107 15.5q66 0 133 -12l-10 -97q-58 15 -118 15t-81 -31t-21 -131zM160 546l-19 72l199 104l6 -92z" />
    <glyph glyph-name="Ccircumflex" unicode="&#x108;" horiz-adv-x="536" 
d="M320 593q-92 0 -118 -44t-26 -179v-55q0 -58 2 -90t10 -62.5t24 -43.5t43 -21t69 -8q77 0 163 22l11 -102q-82 -21 -175 -21q-52 0 -92.5 8t-68.5 21t-47.5 36.5t-30.5 47t-17.5 60.5t-8 69.5t-1.5 80.5v60q0 66 5.5 112t21.5 88.5t44 68t75 40t113 14.5q101 0 180 -21
l-10 -103q-85 22 -166 22zM305 797l-133 -73l-21 68l154 100l159 -101l-28 -66z" />
    <glyph glyph-name="ccircumflex" unicode="&#x109;" horiz-adv-x="426" 
d="M160 246q0 -97 18.5 -130t85.5 -33q48 0 115 16l12 -96q-72 -14 -135 -14q-126 0 -168.5 60.5t-42.5 195.5q0 68 8.5 112.5t31.5 79t65 50t107 15.5q66 0 133 -12l-10 -97q-58 15 -118 15t-81 -31t-21 -131zM240 619l-133 -73l-21 68l154 100l159 -101l-28 -66z" />
    <glyph glyph-name="Cdotaccent" unicode="&#x10a;" horiz-adv-x="536" 
d="M320 593q-92 0 -118 -44t-26 -179v-55q0 -58 2 -90t10 -62.5t24 -43.5t43 -21t69 -8q77 0 163 22l11 -102q-82 -21 -175 -21q-52 0 -92.5 8t-68.5 21t-47.5 36.5t-30.5 47t-17.5 60.5t-8 69.5t-1.5 80.5v60q0 66 5.5 112t21.5 88.5t44 68t75 40t113 14.5q101 0 180 -21
l-10 -103q-85 22 -166 22zM248 805q0 39 9 51t47 12t47 -12t9 -51q0 -38 -9 -50t-47 -12t-47 12t-9 50z" />
    <glyph glyph-name="cdotaccent" unicode="&#x10b;" horiz-adv-x="426" 
d="M160 246q0 -97 18.5 -130t85.5 -33q48 0 115 16l12 -96q-72 -14 -135 -14q-126 0 -168.5 60.5t-42.5 195.5q0 68 8.5 112.5t31.5 79t65 50t107 15.5q66 0 133 -12l-10 -97q-58 15 -118 15t-81 -31t-21 -131zM188 627q0 39 9 51t47 12t47 -12t9 -51q0 -38 -9 -50t-47 -12
t-47 12t-9 50z" />
    <glyph glyph-name="Ccaron" unicode="&#x10c;" horiz-adv-x="536" 
d="M320 593q-92 0 -118 -44t-26 -179v-55q0 -58 2 -90t10 -62.5t24 -43.5t43 -21t69 -8q77 0 163 22l11 -102q-82 -21 -175 -21q-52 0 -92.5 8t-68.5 21t-47.5 36.5t-30.5 47t-17.5 60.5t-8 69.5t-1.5 80.5v60q0 66 5.5 112t21.5 88.5t44 68t75 40t113 14.5q101 0 180 -21
l-10 -103q-85 22 -166 22zM300 815l132 73l22 -68l-154 -100l-159 101l28 66z" />
    <glyph glyph-name="ccaron" unicode="&#x10d;" horiz-adv-x="426" 
d="M160 246q0 -97 18.5 -130t85.5 -33q48 0 115 16l12 -96q-72 -14 -135 -14q-126 0 -168.5 60.5t-42.5 195.5q0 68 8.5 112.5t31.5 79t65 50t107 15.5q66 0 133 -12l-10 -97q-58 15 -118 15t-81 -31t-21 -131zM245 637l132 73l22 -68l-154 -100l-159 101l28 66z" />
    <glyph glyph-name="Dcaron" unicode="&#x10e;" horiz-adv-x="610" 
d="M72 684h230q49 0 87.5 -8t65 -21t45 -36.5t29 -46.5t16 -58.5t7.5 -65.5t2 -75v-61q0 -68 -4 -111t-18.5 -85t-42 -65t-74.5 -37t-115 -14h-228v684zM188 583v-482h110q39 0 64 8t40 21.5t22 43t9 58.5t2 82v58q0 54 -2 83t-9 58t-21.5 41.5t-39.5 20.5t-64 8h-111z
M287 815l132 73l22 -68l-154 -100l-159 101l28 66z" />
    <glyph glyph-name="dcaron" unicode="&#x10f;" horiz-adv-x="534" 
d="M361 39q-62 -49 -144 -49q-101 0 -135.5 56t-34.5 199q0 137 37 196.5t151 59.5q62 0 117 -13v207l114 15v-710h-97zM352 129v264q-54 15 -107 15q-55 0 -69.5 -36t-14.5 -127q0 -92 14 -128.5t64 -36.5q64 0 113 49zM520 482l22 63q3 5 3 14q0 7 -7 11q-16 8 -16 57
q0 43 9.5 56t50.5 13t50.5 -13t9.5 -56v-26q0 -28 -10 -50l-41 -99q-6 -11 -21 -11q-5 0 -25 7q-19 7 -23.5 10.5t-4.5 9.5q0 8 3 14z" />
    <glyph glyph-name="Dcroat" unicode="&#x110;" horiz-adv-x="610" 
d="M72 684h230q49 0 87.5 -8t65 -21t45 -36.5t29 -46.5t16 -58.5t7.5 -65.5t2 -75v-61q0 -68 -4 -111t-18.5 -85t-42 -65t-74.5 -37t-115 -14h-228v296h-68v97h68v291zM188 583v-190h131v-97h-131v-195h110q39 0 64 8t40 21.5t22 43t9 58.5t2 82v58q0 54 -2 83t-9 58
t-21.5 41.5t-39.5 20.5t-64 8h-111z" />
    <glyph glyph-name="dcroat" unicode="&#x111;" horiz-adv-x="534" 
d="M361 39q-62 -49 -144 -49q-101 0 -135.5 56t-34.5 199q0 137 37 196.5t151 59.5q62 0 117 -13v64h-145v85h145v58l114 15v-73h73v-85h-73v-552h-97zM352 129v264q-54 15 -107 15q-55 0 -69.5 -36t-14.5 -127q0 -92 14 -128.5t64 -36.5q64 0 113 49z" />
    <glyph glyph-name="Emacron" unicode="&#x112;" horiz-adv-x="532" 
d="M72 0v684h409v-101h-293v-181h261v-101h-261v-200h293v-101h-409zM145 756v75h261v-75h-261z" />
    <glyph glyph-name="emacron" unicode="&#x113;" horiz-adv-x="495" 
d="M161 207v-13q0 -68 23.5 -91.5t83.5 -23.5q78 0 165 26l7 -91q-91 -25 -187 -25q-122 0 -164.5 61.5t-42.5 200.5q0 59 8.5 100.5t30 77.5t64 54t106.5 18q112 0 153 -58t41 -180v-56h-288zM161 300v-13h178v27q0 51 -19.5 74.5t-65.5 23.5q-50 0 -71.5 -27t-21.5 -85z
M117 578v75h261v-75h-261z" />
    <glyph glyph-name="Edotaccent" unicode="&#x116;" horiz-adv-x="532" 
d="M72 0v684h409v-101h-293v-181h261v-101h-261v-200h293v-101h-409zM220 805q0 39 9 51t47 12t47 -12t9 -51q0 -38 -9 -50t-47 -12t-47 12t-9 50z" />
    <glyph glyph-name="edotaccent" unicode="&#x117;" horiz-adv-x="495" 
d="M161 207v-13q0 -68 23.5 -91.5t83.5 -23.5q78 0 165 26l7 -91q-91 -25 -187 -25q-122 0 -164.5 61.5t-42.5 200.5q0 59 8.5 100.5t30 77.5t64 54t106.5 18q112 0 153 -58t41 -180v-56h-288zM161 300v-13h178v27q0 51 -19.5 74.5t-65.5 23.5q-50 0 -71.5 -27t-21.5 -85z
M191 627q0 39 9 51t47 12t47 -12t9 -51q0 -38 -9 -50t-47 -12t-47 12t-9 50z" />
    <glyph glyph-name="Eogonek" unicode="&#x118;" horiz-adv-x="532" 
d="M72 0v684h409v-101h-293v-181h261v-101h-261v-200h293v-101h-19q-38 -21 -58.5 -50t-20.5 -59q0 -15 12 -25t33 -10q17 0 45 5l7 -56q-25 -9 -64 -9q-55 0 -83.5 22t-28.5 59q0 74 64 123h-296z" />
    <glyph glyph-name="eogonek" unicode="&#x119;" horiz-adv-x="495" 
d="M161 207v-13q0 -68 23.5 -91.5t83.5 -23.5q78 0 165 26l7 -91l-2 -1q-39 -19 -68.5 -50.5t-29.5 -70.5q0 -15 12 -25t33 -10q25 0 45 5l7 -57q-25 -9 -64 -9q-55 0 -83.5 22.5t-28.5 59.5q0 67 57 114q-33 -3 -65 -3q-122 0 -164.5 61.5t-42.5 200.5q0 59 8.5 100.5
t30 77.5t64 54t106.5 18q112 0 153 -58t41 -180v-56h-288zM161 300v-13h178v27q0 51 -19.5 74.5t-65.5 23.5q-50 0 -71.5 -27t-21.5 -85z" />
    <glyph glyph-name="Ecaron" unicode="&#x11a;" horiz-adv-x="532" 
d="M72 0v684h409v-101h-293v-181h261v-101h-261v-200h293v-101h-409zM278 815l132 73l22 -68l-154 -100l-159 101l28 66z" />
    <glyph glyph-name="ecaron" unicode="&#x11b;" horiz-adv-x="495" 
d="M161 207v-13q0 -68 23.5 -91.5t83.5 -23.5q78 0 165 26l7 -91q-91 -25 -187 -25q-122 0 -164.5 61.5t-42.5 200.5q0 59 8.5 100.5t30 77.5t64 54t106.5 18q112 0 153 -58t41 -180v-56h-288zM161 300v-13h178v27q0 51 -19.5 74.5t-65.5 23.5q-50 0 -71.5 -27t-21.5 -85z
M250 637l132 73l22 -68l-154 -100l-159 101l28 66z" />
    <glyph glyph-name="Gcircumflex" unicode="&#x11c;" horiz-adv-x="590" 
d="M325 593q-31 0 -53 -4.5t-38.5 -11t-27 -21.5t-16.5 -29.5t-9 -41.5t-4 -51t-1 -64v-56q0 -39 0.5 -61t3.5 -50t8.5 -42.5t15 -30.5t24.5 -23t36.5 -12t50.5 -5q53 0 103 8v148h-67v101h179v-336q-108 -22 -217 -22q-68 0 -116 17t-75 43.5t-42 71.5t-19 87t-4 104v61
q0 65 5 109.5t20.5 88t43.5 68.5t75.5 40.5t115.5 15.5q101 0 200 -22l-9 -103q-95 23 -183 23zM315 797l-133 -73l-21 68l154 100l159 -101l-28 -66z" />
    <glyph glyph-name="gcircumflex" unicode="&#x11d;" horiz-adv-x="529" 
d="M462 487v-539q0 -79 -49.5 -116t-164.5 -37q-106 0 -189 23l7 92q92 -25 177 -25q60 0 82.5 15t22.5 50v67q-67 -25 -135 -25q-54 0 -88 16t-50.5 52t-21.5 77t-5 108q0 140 47.5 198t176.5 58q90 0 190 -14zM348 110v294q-48 6 -78 6q-68 0 -87.5 -35t-19.5 -130
q0 -93 14.5 -126t65.5 -33q52 0 105 24zM262 619l-133 -73l-21 68l154 100l159 -101l-28 -66z" />
    <glyph glyph-name="Gbreve" unicode="&#x11e;" horiz-adv-x="590" 
d="M325 593q-31 0 -53 -4.5t-38.5 -11t-27 -21.5t-16.5 -29.5t-9 -41.5t-4 -51t-1 -64v-56q0 -39 0.5 -61t3.5 -50t8.5 -42.5t15 -30.5t24.5 -23t36.5 -12t50.5 -5q53 0 103 8v148h-67v101h179v-336q-108 -22 -217 -22q-68 0 -116 17t-75 43.5t-42 71.5t-19 87t-4 104v61
q0 65 5 109.5t20.5 88t43.5 68.5t75.5 40.5t115.5 15.5q101 0 200 -22l-9 -103q-95 23 -183 23zM385 855l66 -13q-3 -55 -37.5 -87.5t-101.5 -32.5q-66 0 -100.5 32.5t-37.5 87.5l65 13q9 -64 73 -64q68 0 73 64z" />
    <glyph glyph-name="gbreve" unicode="&#x11f;" horiz-adv-x="529" 
d="M462 487v-539q0 -79 -49.5 -116t-164.5 -37q-106 0 -189 23l7 92q92 -25 177 -25q60 0 82.5 15t22.5 50v67q-67 -25 -135 -25q-54 0 -88 16t-50.5 52t-21.5 77t-5 108q0 140 47.5 198t176.5 58q90 0 190 -14zM348 110v294q-48 6 -78 6q-68 0 -87.5 -35t-19.5 -130
q0 -93 14.5 -126t65.5 -33q52 0 105 24zM336 677l66 -13q-3 -55 -37.5 -87.5t-101.5 -32.5q-66 0 -100.5 32.5t-37.5 87.5l65 13q9 -64 73 -64q68 0 73 64z" />
    <glyph glyph-name="Gdotaccent" unicode="&#x120;" horiz-adv-x="590" 
d="M325 593q-31 0 -53 -4.5t-38.5 -11t-27 -21.5t-16.5 -29.5t-9 -41.5t-4 -51t-1 -64v-56q0 -39 0.5 -61t3.5 -50t8.5 -42.5t15 -30.5t24.5 -23t36.5 -12t50.5 -5q53 0 103 8v148h-67v101h179v-336q-108 -22 -217 -22q-68 0 -116 17t-75 43.5t-42 71.5t-19 87t-4 104v61
q0 65 5 109.5t20.5 88t43.5 68.5t75.5 40.5t115.5 15.5q101 0 200 -22l-9 -103q-95 23 -183 23zM262 805q0 39 9 51t47 12t47 -12t9 -51q0 -38 -9 -50t-47 -12t-47 12t-9 50z" />
    <glyph glyph-name="gdotaccent" unicode="&#x121;" horiz-adv-x="529" 
d="M462 487v-539q0 -79 -49.5 -116t-164.5 -37q-106 0 -189 23l7 92q92 -25 177 -25q60 0 82.5 15t22.5 50v67q-67 -25 -135 -25q-54 0 -88 16t-50.5 52t-21.5 77t-5 108q0 140 47.5 198t176.5 58q90 0 190 -14zM348 110v294q-48 6 -78 6q-68 0 -87.5 -35t-19.5 -130
q0 -93 14.5 -126t65.5 -33q52 0 105 24zM208 627q0 39 9 51t47 12t47 -12t9 -51q0 -38 -9 -50t-47 -12t-47 12t-9 50z" />
    <glyph glyph-name="Gcommaaccent" unicode="&#x122;" horiz-adv-x="590" 
d="M325 593q-31 0 -53 -4.5t-38.5 -11t-27 -21.5t-16.5 -29.5t-9 -41.5t-4 -51t-1 -64v-56q0 -39 0.5 -61t3.5 -50t8.5 -42.5t15 -30.5t24.5 -23t36.5 -12t50.5 -5q53 0 103 8v148h-67v101h179v-336q-108 -22 -217 -22q-68 0 -116 17t-75 43.5t-42 71.5t-19 87t-4 104v61
q0 65 5 109.5t20.5 88t43.5 68.5t75.5 40.5t115.5 15.5q101 0 200 -22l-9 -103q-95 23 -183 23zM290 -190l15 37q2 6 2 9q0 6 -11 9q-15 2 -19.5 9t-4.5 30q0 27 8 35t44 8q35 0 43 -8t8 -35v-20q0 -20 -8 -36l-31 -54q-4 -6 -9 -6q-2 0 -20 6q-18 5 -18 10t1 6z" />
    <glyph glyph-name="gcommaaccent" unicode="&#x123;" horiz-adv-x="529" 
d="M462 487v-539q0 -79 -49.5 -116t-164.5 -37q-106 0 -189 23l7 92q92 -25 177 -25q60 0 82.5 15t22.5 50v67q-67 -25 -135 -25q-54 0 -88 16t-50.5 52t-21.5 77t-5 108q0 140 47.5 198t176.5 58q90 0 190 -14zM348 110v294q-48 6 -78 6q-68 0 -87.5 -35t-19.5 -130
q0 -93 14.5 -126t65.5 -33q52 0 105 24zM201 546l-19 72l199 104l6 -92z" />
    <glyph glyph-name="Hcircumflex" unicode="&#x124;" horiz-adv-x="636" 
d="M565 0h-117v299h-260v-299h-116v684h116v-284h260v284h117v-684zM315 797l-133 -73l-21 68l154 100l159 -101l-28 -66z" />
    <glyph glyph-name="hcircumflex" unicode="&#x125;" horiz-adv-x="533" 
d="M470 0h-114v348q0 50 -45 50q-54 0 -130 -45v-353h-114v695l113 15v-263q94 54 173 54q117 0 117 -129v-372zM175 797l-133 -73l-21 68l154 100l159 -101l-28 -66z" />
    <glyph glyph-name="Hbar" unicode="&#x126;" horiz-adv-x="636" 
d="M565 0h-117v299h-260v-299h-116v493h-72v98h72v93h116v-93h260v93h117v-93h71v-98h-71v-493zM188 400h260v93h-260v-93z" />
    <glyph glyph-name="hbar" unicode="&#x127;" horiz-adv-x="533" 
d="M470 0h-114v348q0 50 -45 50q-54 0 -130 -45v-353h-114v552h-74v85h74v58l113 15v-73h145v-85h-145v-105q94 54 173 54q117 0 117 -129v-372z" />
    <glyph glyph-name="Imacron" unicode="&#x12a;" horiz-adv-x="268" 
d="M192 684v-684h-116v684h116zM4 756v75h261v-75h-261z" />
    <glyph glyph-name="imacron" unicode="&#x12b;" horiz-adv-x="252" 
d="M-4 578v75h261v-75h-261zM182 0h-113v491h113v-491z" />
    <glyph glyph-name="Iogonek" unicode="&#x12e;" horiz-adv-x="268" 
d="M192 684v-684h-15q-66 -41 -66 -107q0 -17 10.5 -27t29.5 -10q15 0 40 5l7 -56q-23 -9 -59 -9q-51 0 -77 22t-26 59q0 72 61 123h-21v684h116z" />
    <glyph glyph-name="iogonek" unicode="&#x12f;" horiz-adv-x="252" 
d="M182 0h-14q-66 -41 -66 -107q0 -17 10.5 -27t29.5 -10q15 0 40 5l7 -56q-22 -9 -59 -9q-51 0 -77 22t-26 59q0 72 61 123h-19v491h113v-491zM66 624q0 42 10 55t50 13t50 -13t10 -55t-10 -55.5t-50 -13.5t-50 13.5t-10 55.5z" />
    <glyph glyph-name="Idotaccent" unicode="&#x130;" horiz-adv-x="268" 
d="M192 684v-684h-116v684h116zM79 805q0 39 9 51t47 12t47 -12t9 -51q0 -38 -9 -50t-47 -12t-47 12t-9 50z" />
    <glyph glyph-name="dotlessi" unicode="&#x131;" horiz-adv-x="252" 
d="M182 0h-113v491h113v-491z" />
    <glyph glyph-name="Jcircumflex" unicode="&#x134;" horiz-adv-x="297" 
d="M113 684h117v-492q0 -105 -47 -145q-29 -25 -120 -53q-3 -1 -13 -4q-8 -2 -13 -4l-32 95q73 21 90.5 39.5t17.5 70.5v493zM166 797l-133 -73l-21 68l154 100l159 -101l-28 -66z" />
    <glyph glyph-name="jcircumflex" unicode="&#x135;" horiz-adv-x="252" 
d="M69 491h113v-520q0 -26 -3.5 -45.5t-8 -34t-17.5 -26.5t-23 -20t-34 -17t-41 -14.5t-52 -16.5l-32 87q65 21 81.5 37.5t16.5 59.5v510zM123 619l-133 -73l-21 68l154 100l159 -101l-28 -66z" />
    <glyph glyph-name="Kcommaaccent" unicode="&#x136;" horiz-adv-x="612" 
d="M566 684l-250 -334l278 -350h-143l-263 336v-336h-116v684h116v-333l240 333h138zM278 -190l15 37q2 6 2 9q0 6 -11 9q-15 2 -19.5 9t-4.5 30q0 27 8 35t44 8q35 0 43 -8t8 -35v-20q0 -20 -8 -36l-31 -54q-4 -6 -9 -6q-2 0 -20 6q-18 5 -18 10t1 6z" />
    <glyph glyph-name="kcommaaccent" unicode="&#x137;" horiz-adv-x="518" 
d="M181 0h-114v695l114 15v-441l177 222h135l-187 -226l201 -265h-136l-190 260v-260zM231 -190l15 37q2 6 2 9q0 6 -11 9q-15 2 -19.5 9t-4.5 30q0 27 8 35t44 8q35 0 43 -8t8 -35v-20q0 -20 -8 -36l-31 -54q-5 -6 -9 -6q-2 0 -20 6q-18 5 -18 10t1 6z" />
    <glyph glyph-name="Lacute" unicode="&#x139;" horiz-adv-x="487" 
d="M188 684v-582h271v-102h-387v684h116zM70 724l-19 72l199 104l6 -92z" />
    <glyph glyph-name="lacute" unicode="&#x13a;" horiz-adv-x="284" 
d="M255 93l22 -86q-54 -18 -114 -18q-63 0 -80.5 28.5t-17.5 107.5v570l113 15v-589q0 -37 29 -37q19 0 48 9zM59 724l-19 72l199 104l6 -92z" />
    <glyph glyph-name="Lcommaaccent" unicode="&#x13b;" horiz-adv-x="487" 
d="M188 684v-582h271v-102h-387v684h116zM225 -190l15 37q2 6 2 9q0 6 -11 9q-15 2 -19.5 9t-4.5 30q0 27 8 35t44 8q35 0 43 -8t8 -35v-20q0 -20 -8 -36l-31 -54q-5 -6 -9 -6q-2 0 -20 6q-18 5 -18 10t1 6z" />
    <glyph glyph-name="lcommaaccent" unicode="&#x13c;" horiz-adv-x="284" 
d="M255 93l22 -86q-54 -18 -114 -18q-63 0 -80.5 28.5t-17.5 107.5v570l113 15v-589q0 -37 29 -37q19 0 48 9zM133 -190l15 37q2 6 2 9q0 6 -11 9q-15 2 -19.5 9t-4.5 30q0 27 8 35t44 8q35 0 43 -8t8 -35v-20q0 -20 -8 -36l-31 -54q-5 -6 -9 -6q-2 0 -20 6q-18 5 -18 10
t1 6z" />
    <glyph glyph-name="Lcaron" unicode="&#x13d;" horiz-adv-x="487" 
d="M188 684v-582h271v-102h-387v684h116zM322 482l22 63q3 5 3 14q0 7 -7 11q-16 8 -16 57q0 43 9.5 56t50.5 13t50.5 -13t9.5 -56v-26q0 -28 -10 -50l-41 -99q-6 -11 -21 -11q-5 0 -25 7q-19 7 -23.5 10.5t-4.5 9.5q0 8 3 14z" />
    <glyph glyph-name="lcaron" unicode="&#x13e;" horiz-adv-x="284" 
d="M255 93l22 -86q-54 -18 -114 -18q-63 0 -80.5 28.5t-17.5 107.5v570l113 15v-589q0 -37 29 -37q19 0 48 9zM248 482l22 63q3 5 3 14q0 7 -7 11q-16 8 -16 57q0 43 9.5 56t50.5 13t50.5 -13t9.5 -56v-26q0 -28 -10 -50l-41 -99q-6 -11 -21 -11q-5 0 -25 7
q-19 7 -23.5 10.5t-4.5 9.5q0 8 3 14z" />
    <glyph glyph-name="Lslash" unicode="&#x141;" horiz-adv-x="487" 
d="M188 684v-243l154 92v-107l-154 -92v-232h271v-102h-387v265l-72 -42v106l72 43v312h116z" />
    <glyph glyph-name="lslash" unicode="&#x142;" horiz-adv-x="284" 
d="M255 93l22 -86q-54 -18 -114 -18q-63 0 -80.5 28.5t-17.5 107.5v141l-64 -37v100l64 37v329l113 15v-277l75 44v-101l-75 -44v-211q0 -37 29 -37q19 0 48 9z" />
    <glyph glyph-name="Nacute" unicode="&#x143;" horiz-adv-x="659" 
d="M455 0l-270 488v-488h-113v684h131l270 -498v498h114v-684h-132zM266 724l-19 72l199 104l6 -92z" />
    <glyph glyph-name="nacute" unicode="&#x144;" horiz-adv-x="533" 
d="M470 0h-114v347q0 50 -45 50q-54 0 -130 -45v-352h-114v491h96l12 -45q94 55 178 55q117 0 117 -130v-371zM203 546l-19 72l199 104l6 -92z" />
    <glyph glyph-name="Ncommaaccent" unicode="&#x145;" horiz-adv-x="659" 
d="M455 0l-270 488v-488h-113v684h131l270 -498v498h114v-684h-132zM296 -190l15 37q2 6 2 9q0 6 -11 9q-15 2 -19.5 9t-4.5 30q0 27 8 35t44 8q35 0 43 -8t8 -35v-20q0 -20 -8 -36l-31 -54q-4 -6 -9 -6q-2 0 -20 6q-18 5 -18 10t1 6z" />
    <glyph glyph-name="ncommaaccent" unicode="&#x146;" horiz-adv-x="533" 
d="M470 0h-114v347q0 50 -45 50q-54 0 -130 -45v-352h-114v491h96l12 -45q94 55 178 55q117 0 117 -130v-371zM233 -190l15 37q2 6 2 9q0 6 -11 9q-15 2 -19.5 9t-4.5 30q0 27 8 35t44 8q35 0 43 -8t8 -35v-20q0 -20 -8 -36l-31 -54q-5 -6 -9 -6q-2 0 -20 6q-18 5 -18 10
t1 6z" />
    <glyph glyph-name="Ncaron" unicode="&#x147;" horiz-adv-x="659" 
d="M455 0l-270 488v-488h-113v684h131l270 -498v498h114v-684h-132zM332 815l132 73l22 -68l-154 -100l-159 101l28 66z" />
    <glyph glyph-name="ncaron" unicode="&#x148;" horiz-adv-x="533" 
d="M470 0h-114v347q0 50 -45 50q-54 0 -130 -45v-352h-114v491h96l12 -45q94 55 178 55q117 0 117 -130v-371zM269 637l132 73l22 -68l-154 -100l-159 101l28 66z" />
    <glyph glyph-name="Omacron" unicode="&#x14c;" horiz-adv-x="638" 
d="M462 313v58q0 52 -2 81t-9.5 60.5t-22.5 46.5t-42 25t-67 10t-67 -10t-42 -25t-22.5 -46.5t-9.5 -60.5t-2 -81v-58q0 -53 2 -82t9.5 -60.5t22.5 -46.5t42 -24.5t67 -9.5t67 9.5t42 24.5t22.5 46.5t9.5 60.5t2 82zM581 372v-60q0 -62 -5 -106t-21 -87.5t-44 -70t-76 -43
t-116 -16.5q-67 0 -115.5 16.5t-76.5 43t-44 70t-21 87.5t-5 106v60q0 62 5 106t21 87.5t44 70t76.5 43t115.5 16.5q68 0 116 -16.5t76 -43t44 -70t21 -87.5t5 -106zM188 756v75h261v-75h-261z" />
    <glyph glyph-name="omacron" unicode="&#x14d;" horiz-adv-x="526" 
d="M364 245q0 93 -18 128t-83 35t-83.5 -35.5t-18.5 -127.5t18.5 -127t83.5 -35t83 34.5t18 127.5zM479 245q0 -49 -5 -85.5t-19.5 -70t-38 -54.5t-62 -33.5t-91.5 -12.5t-91.5 12.5t-62 33.5t-38 54.5t-19.5 70t-5 85.5q0 128 45.5 192.5t170.5 64.5t170.5 -64.5
t45.5 -192.5zM132 578v75h261v-75h-261z" />
    <glyph glyph-name="Ohungarumlaut" unicode="&#x150;" horiz-adv-x="638" 
d="M462 313v58q0 52 -2 81t-9.5 60.5t-22.5 46.5t-42 25t-67 10t-67 -10t-42 -25t-22.5 -46.5t-9.5 -60.5t-2 -81v-58q0 -53 2 -82t9.5 -60.5t22.5 -46.5t42 -24.5t67 -9.5t67 9.5t42 24.5t22.5 46.5t9.5 60.5t2 82zM581 372v-60q0 -62 -5 -106t-21 -87.5t-44 -70t-76 -43
t-116 -16.5q-67 0 -115.5 16.5t-76.5 43t-44 70t-21 87.5t-5 106v60q0 62 5 106t21 87.5t44 70t76.5 43t115.5 16.5q68 0 116 -16.5t76 -43t44 -70t21 -87.5t5 -106zM210 716l-60 32l111 140l82 -27zM394 716l-61 32l112 140l82 -27z" />
    <glyph glyph-name="ohungarumlaut" unicode="&#x151;" horiz-adv-x="526" 
d="M364 245q0 93 -18 128t-83 35t-83.5 -35.5t-18.5 -127.5t18.5 -127t83.5 -35t83 34.5t18 127.5zM479 245q0 -49 -5 -85.5t-19.5 -70t-38 -54.5t-62 -33.5t-91.5 -12.5t-91.5 12.5t-62 33.5t-38 54.5t-19.5 70t-5 85.5q0 128 45.5 192.5t170.5 64.5t170.5 -64.5
t45.5 -192.5zM154 538l-60 32l111 140l82 -27zM338 538l-61 32l112 140l82 -27z" />
    <glyph glyph-name="OE" unicode="&#x152;" horiz-adv-x="901" 
d="M850 0h-407q-102 -6 -122 -6q-71 0 -121 19t-77.5 47.5t-42.5 77t-19 91.5t-4 108v33q0 76 10.5 129.5t38 99t81.5 68.5t134 23q42 0 122 -6h406v-101h-292v-179h261v-101h-261v-202h293v-101zM321 95q61 0 119 8v478q-59 8 -119 8q-41 0 -68.5 -10.5t-43 -26t-23 -47
t-9.5 -59t-2 -75.5v-17v-54t1.5 -46.5t4 -42.5t7.5 -34t12.5 -30t18.5 -22t25.5 -17t33.5 -9t43 -4z" />
    <glyph glyph-name="oe" unicode="&#x153;" horiz-adv-x="813" 
d="M478 207v-15q0 -67 23.5 -90t83.5 -23q81 0 165 26l7 -91q-88 -26 -187 -26q-105 0 -153 58q-56 -58 -154 -58q-125 0 -170.5 64.5t-45.5 192.5q0 49 5 85.5t19.5 70t38 54.5t62 33.5t91.5 12.5q103 0 156 -58q53 58 153 58q112 0 153 -58.5t41 -179.5v-56h-288zM364 245
q0 92 -18 127t-83 35t-83.5 -35t-18.5 -127t18.5 -127.5t83.5 -35.5t83 35t18 128zM478 300v-13h178v27q0 51 -19.5 74.5t-65.5 23.5q-50 0 -71.5 -27t-21.5 -85z" />
    <glyph glyph-name="Racute" unicode="&#x154;" horiz-adv-x="606" 
d="M451 0l-155 251h-108v-251h-116v684h255q63 0 104 -13.5t62.5 -43t29 -66.5t7.5 -94q0 -89 -23.5 -139t-83.5 -67l161 -261h-133zM413 467q0 70 -18 93t-70 23h-137v-231h135q54 0 72 23.5t18 91.5zM213 724l-19 72l199 104l6 -92z" />
    <glyph glyph-name="racute" unicode="&#x155;" horiz-adv-x="347" 
d="M330 502v-107q-88 -15 -149 -60v-335h-113v491h98l11 -56q60 50 153 67zM120 546l-19 72l199 104l6 -92z" />
    <glyph glyph-name="Rcommaaccent" unicode="&#x156;" horiz-adv-x="606" 
d="M451 0l-155 251h-108v-251h-116v684h255q63 0 104 -13.5t62.5 -43t29 -66.5t7.5 -94q0 -89 -23.5 -139t-83.5 -67l161 -261h-133zM413 467q0 70 -18 93t-70 23h-137v-231h135q54 0 72 23.5t18 91.5zM269 -190l15 37q2 6 2 9q0 6 -11 9q-15 2 -19.5 9t-4.5 30q0 27 8 35
t44 8q35 0 43 -8t8 -35v-20q0 -20 -8 -36l-31 -54q-5 -6 -9 -6q-2 0 -20 6q-18 5 -18 10t1 6z" />
    <glyph glyph-name="rcommaaccent" unicode="&#x157;" horiz-adv-x="347" 
d="M330 502v-107q-88 -15 -149 -60v-335h-113v491h98l11 -56q60 50 153 67zM95 -190l15 37q2 6 2 9q0 6 -11 9q-15 2 -19.5 9t-4.5 30q0 27 8 35t44 8q35 0 43 -8t8 -35v-20q0 -20 -8 -36l-31 -54q-5 -6 -9 -6q-2 0 -20 6q-18 5 -18 10t1 6z" />
    <glyph glyph-name="Rcaron" unicode="&#x158;" horiz-adv-x="606" 
d="M451 0l-155 251h-108v-251h-116v684h255q63 0 104 -13.5t62.5 -43t29 -66.5t7.5 -94q0 -89 -23.5 -139t-83.5 -67l161 -261h-133zM413 467q0 70 -18 93t-70 23h-137v-231h135q54 0 72 23.5t18 91.5zM285 815l132 73l22 -68l-154 -100l-159 101l28 66z" />
    <glyph glyph-name="rcaron" unicode="&#x159;" horiz-adv-x="347" 
d="M330 502v-107q-88 -15 -149 -60v-335h-113v491h98l11 -56q60 50 153 67zM196 637l132 73l22 -68l-154 -100l-159 101l28 66z" />
    <glyph glyph-name="Sacute" unicode="&#x15a;" horiz-adv-x="535" 
d="M491 191q0 -106 -55.5 -154.5t-186.5 -48.5q-105 0 -199 29l13 104q95 -31 188 -31q70 0 96 21t26 73q0 57 -27.5 77t-114.5 42q-50 13 -79.5 25t-55 33t-36 53.5t-10.5 80.5q0 100 51.5 150t179.5 50q94 0 189 -20l-9 -107q-99 26 -180 26q-65 0 -89 -19.5t-24 -66.5
q0 -54 26.5 -72t113.5 -41q54 -15 85.5 -28.5t55.5 -36.5t33 -55.5t9 -83.5zM203 724l-19 72l199 104l6 -92z" />
    <glyph glyph-name="sacute" unicode="&#x15b;" horiz-adv-x="442" 
d="M402 138q0 -75 -43.5 -112t-141.5 -37q-94 0 -172 23l16 89q78 -21 154 -21q44 0 61.5 11t17.5 43q0 33 -12 43t-75 25q-54 13 -84.5 26t-47 32.5t-21 40.5t-4.5 59q0 74 42.5 107.5t140.5 33.5q85 0 153 -15l-11 -90q-79 17 -142 17q-45 0 -60.5 -10.5t-15.5 -36.5
q0 -29 11.5 -39t59.5 -22q63 -15 97 -28.5t51.5 -34.5t21.5 -41.5t4 -62.5zM152 546l-19 72l199 104l6 -92z" />
    <glyph glyph-name="Scircumflex" unicode="&#x15c;" horiz-adv-x="535" 
d="M491 191q0 -106 -55.5 -154.5t-186.5 -48.5q-105 0 -199 29l13 104q95 -31 188 -31q70 0 96 21t26 73q0 57 -27.5 77t-114.5 42q-50 13 -79.5 25t-55 33t-36 53.5t-10.5 80.5q0 100 51.5 150t179.5 50q94 0 189 -20l-9 -107q-99 26 -180 26q-65 0 -89 -19.5t-24 -66.5
q0 -54 26.5 -72t113.5 -41q54 -15 85.5 -28.5t55.5 -36.5t33 -55.5t9 -83.5zM270 797l-133 -73l-21 68l154 100l159 -101l-28 -66z" />
    <glyph glyph-name="scircumflex" unicode="&#x15d;" horiz-adv-x="442" 
d="M402 138q0 -75 -43.5 -112t-141.5 -37q-94 0 -172 23l16 89q78 -21 154 -21q44 0 61.5 11t17.5 43q0 33 -12 43t-75 25q-54 13 -84.5 26t-47 32.5t-21 40.5t-4.5 59q0 74 42.5 107.5t140.5 33.5q85 0 153 -15l-11 -90q-79 17 -142 17q-45 0 -60.5 -10.5t-15.5 -36.5
q0 -29 11.5 -39t59.5 -22q63 -15 97 -28.5t51.5 -34.5t21.5 -41.5t4 -62.5zM224 619l-133 -73l-21 68l154 100l159 -101l-28 -66z" />
    <glyph glyph-name="Scedilla" unicode="&#x15e;" horiz-adv-x="535" 
d="M284 -132v26q0 14 -30 14q-11 0 -20 -3l-37 18l16 66q-85 4 -163 28l13 104q95 -31 188 -31q70 0 96 21t26 73q0 57 -27.5 77t-114.5 42q-50 13 -79.5 25t-55 33t-36 53.5t-10.5 80.5q0 100 51.5 150t179.5 50q94 0 189 -20l-9 -107q-99 26 -180 26q-65 0 -89 -19.5
t-24 -66.5q0 -54 26.5 -72t113.5 -41q54 -15 85.5 -28.5t55.5 -36.5t33 -55.5t9 -83.5q0 -101 -50 -149.5t-166 -52.5l-7 -30q50 -1 74.5 -14.5t24.5 -45.5v-40q0 -36 -25.5 -49.5t-83.5 -13.5q-47 0 -92 9l12 58q33 -9 73 -9q33 0 33 14z" />
    <glyph glyph-name="scedilla" unicode="&#x15f;" horiz-adv-x="442" 
d="M238 -132v26q0 14 -30 14q-11 0 -20 -3l-37 18l17 68q-81 7 -123 21l16 89q78 -21 154 -21q44 0 61.5 11t17.5 43q0 33 -12 43t-75 25q-54 13 -84.5 26t-47 32.5t-21 40.5t-4.5 59q0 74 42.5 107.5t140.5 33.5q85 0 153 -15l-11 -90q-79 17 -142 17q-45 0 -60.5 -10.5
t-15.5 -36.5q0 -29 11.5 -39t59.5 -22q63 -15 97 -28.5t51.5 -34.5t21.5 -41.5t4 -62.5q0 -73 -40.5 -110t-132.5 -39l-7 -30q50 -1 74.5 -14.5t24.5 -45.5v-40q0 -36 -25.5 -49.5t-83.5 -13.5q-47 0 -92 9l12 58q33 -9 73 -9q33 0 33 14z" />
    <glyph glyph-name="Scaron" unicode="&#x160;" horiz-adv-x="534" 
d="M491 191q0 -106 -55.5 -154.5t-186.5 -48.5q-105 0 -199 29l13 104q95 -31 188 -31q70 0 96 21t26 73q0 57 -27.5 77t-114.5 42q-50 13 -79.5 25t-55 33t-36 53.5t-10.5 80.5q0 100 51.5 150t179.5 50q94 0 189 -20l-9 -107q-99 26 -180 26q-65 0 -89 -19.5t-24 -66.5
q0 -54 26.5 -72t113.5 -41q54 -15 85.5 -28.5t55.5 -36.5t33 -55.5t9 -83.5zM269 815l132 73l22 -68l-154 -100l-159 101l28 66z" />
    <glyph glyph-name="scaron" unicode="&#x161;" horiz-adv-x="442" 
d="M402 138q0 -75 -43.5 -112t-141.5 -37q-94 0 -172 23l16 89q78 -21 154 -21q44 0 61.5 11t17.5 43q0 33 -12 43t-75 25q-54 13 -84.5 26t-47 32.5t-21 40.5t-4.5 59q0 74 42.5 107.5t140.5 33.5q85 0 153 -15l-11 -90q-79 17 -142 17q-45 0 -60.5 -10.5t-15.5 -36.5
q0 -29 11.5 -39t59.5 -22q63 -15 97 -28.5t51.5 -34.5t21.5 -41.5t4 -62.5zM223 637l132 73l22 -68l-154 -100l-159 101l28 66z" />
    <glyph glyph-name="Tcommaaccent" unicode="&#x162;" horiz-adv-x="526" 
d="M204 0v583h-185v101h487v-101h-186v-583h-116zM229 -190l15 37q2 6 2 9q0 6 -11 9q-15 2 -19.5 9t-4.5 30q0 27 8 35t44 8q35 0 43 -8t8 -35v-20q0 -20 -8 -36l-31 -54q-5 -6 -9 -6q-2 0 -20 6q-18 5 -18 10t1 6z" />
    <glyph glyph-name="tcommaaccent" unicode="&#x163;" horiz-adv-x="370" 
d="M336 6q-59 -16 -120 -16q-70 0 -97.5 31.5t-27.5 101.5v275h-72v93h72v124l113 15v-139h129l-9 -93h-120v-260q0 -32 8.5 -43.5t35.5 -11.5q35 0 81 16zM183 -190l15 37q2 6 2 9q0 6 -11 9q-15 2 -19.5 9t-4.5 30q0 27 8 35t44 8q35 0 43 -8t8 -35v-20q0 -20 -8 -36
l-31 -54q-5 -6 -9 -6q-2 0 -20 6q-18 5 -18 10t1 6z" />
    <glyph glyph-name="Tcaron" unicode="&#x164;" horiz-adv-x="526" 
d="M204 0v583h-185v101h487v-101h-186v-583h-116zM265 815l132 73l22 -68l-154 -100l-159 101l28 66z" />
    <glyph glyph-name="tcaron" unicode="&#x165;" horiz-adv-x="370" 
d="M336 6q-59 -16 -120 -16q-70 0 -97.5 31.5t-27.5 101.5v275h-72v93h72v124l113 15v-139h129l-9 -93h-120v-260q0 -32 8.5 -43.5t35.5 -11.5q35 0 81 16zM276 560l15 37q2 6 2 9q0 6 -11 9q-15 2 -19.5 9t-4.5 30q0 27 8 35t44 8q35 0 43 -8t8 -35v-20q0 -20 -8 -36
l-31 -54q-4 -6 -9 -6q-2 0 -20 6q-18 5 -18 10t1 6z" />
    <glyph glyph-name="Umacron" unicode="&#x16a;" horiz-adv-x="634" 
d="M567 684v-453q0 -110 -58 -176t-192 -66t-192.5 66t-58.5 176v453h117v-454q0 -71 31 -104.5t103 -33.5t103 33.5t31 104.5v454h116zM185 756v75h261v-75h-261z" />
    <glyph glyph-name="umacron" unicode="&#x16b;" horiz-adv-x="533" 
d="M63 491h114v-349q0 -49 44 -49q54 0 131 45v353h114v-491h-96l-11 43q-93 -54 -177 -54q-119 0 -119 130v372zM135 578v75h261v-75h-261z" />
    <glyph glyph-name="Ubreve" unicode="&#x16c;" horiz-adv-x="634" 
d="M567 684v-453q0 -110 -58 -176t-192 -66t-192.5 66t-58.5 176v453h117v-454q0 -71 31 -104.5t103 -33.5t103 33.5t31 104.5v454h116zM388 855l66 -13q-3 -55 -37.5 -87.5t-101.5 -32.5q-66 0 -100.5 32.5t-37.5 87.5l65 13q9 -64 73 -64q68 0 73 64z" />
    <glyph glyph-name="ubreve" unicode="&#x16d;" horiz-adv-x="533" 
d="M63 491h114v-349q0 -49 44 -49q54 0 131 45v353h114v-491h-96l-11 43q-93 -54 -177 -54q-119 0 -119 130v372zM338 677l66 -13q-3 -55 -37.5 -87.5t-101.5 -32.5q-66 0 -100.5 32.5t-37.5 87.5l65 13q9 -64 73 -64q68 0 73 64z" />
    <glyph glyph-name="Uring" unicode="&#x16e;" horiz-adv-x="634" 
d="M567 684v-453q0 -110 -58 -176t-192 -66t-192.5 66t-58.5 176v453h117v-454q0 -71 31 -104.5t103 -33.5t103 33.5t31 104.5v454h116zM406 806q0 -39 -24.5 -63t-65.5 -24t-65.5 23.5t-24.5 63.5q0 38 25 62.5t65 24.5q41 0 65.5 -24t24.5 -63zM355 806q0 40 -39 40
t-39 -40t39 -40t39 40z" />
    <glyph glyph-name="uring" unicode="&#x16f;" horiz-adv-x="533" 
d="M63 491h114v-349q0 -49 44 -49q54 0 131 45v353h114v-491h-96l-11 43q-93 -54 -177 -54q-119 0 -119 130v372zM356 628q0 -39 -24.5 -63t-65.5 -24t-65.5 23.5t-24.5 63.5q0 38 25 62.5t65 24.5q41 0 65.5 -24t24.5 -63zM305 628q0 40 -39 40t-39 -40t39 -40t39 40z" />
    <glyph glyph-name="Uhungarumlaut" unicode="&#x170;" horiz-adv-x="634" 
d="M567 684v-453q0 -110 -58 -176t-192 -66t-192.5 66t-58.5 176v453h117v-454q0 -71 31 -104.5t103 -33.5t103 33.5t31 104.5v454h116zM208 716l-60 32l111 140l82 -27zM392 716l-61 32l112 140l82 -27z" />
    <glyph glyph-name="uhungarumlaut" unicode="&#x171;" horiz-adv-x="533" 
d="M63 491h114v-349q0 -49 44 -49q54 0 131 45v353h114v-491h-96l-11 43q-93 -54 -177 -54q-119 0 -119 130v372zM158 538l-60 32l111 140l82 -27zM342 538l-61 32l112 140l82 -27z" />
    <glyph glyph-name="Uogonek" unicode="&#x172;" horiz-adv-x="634" 
d="M404 -195q-25 -9 -64 -9q-55 0 -83.5 22t-28.5 59q0 67 52 114q-214 17 -214 240v453h117v-454q0 -71 31 -104.5t103 -33.5t103 33.5t31 104.5v454h116v-453q0 -213 -194 -238q-66 -44 -66 -102q0 -15 12 -25t33 -10q17 0 45 5z" />
    <glyph glyph-name="uogonek" unicode="&#x173;" horiz-adv-x="533" 
d="M482 -195q-26 -9 -64 -9q-55 0 -83.5 22t-28.5 59q0 75 64 123l-11 43q-93 -54 -177 -54q-119 0 -119 130v372h114v-349q0 -49 44 -49q54 0 131 45v353h114v-489h2l-2 -1v-1h-2q-38 -21 -58.5 -50t-20.5 -59q0 -15 12 -25t33 -10q17 0 45 5z" />
    <glyph glyph-name="Wcircumflex" unicode="&#x174;" horiz-adv-x="876" 
d="M560 0l-122 516l-123 -516h-138l-161 684h120l113 -529l125 529h128l124 -529l114 529h120l-162 -684h-138zM435 797l-133 -73l-21 68l154 100l159 -101l-28 -66z" />
    <glyph glyph-name="wcircumflex" unicode="&#x175;" horiz-adv-x="703" 
d="M252 0h-119l-118 491h113l74 -352l94 270h112l93 -270l74 352h113l-119 -491h-118l-100 297zM348 619l-133 -73l-21 68l154 100l159 -101l-28 -66z" />
    <glyph glyph-name="Ycircumflex" unicode="&#x176;" horiz-adv-x="558" 
d="M128 684l151 -320l153 320h124l-219 -446v-238h-116v238l-220 446h127zM276 797l-133 -73l-21 68l154 100l159 -101l-28 -66z" />
    <glyph glyph-name="ycircumflex" unicode="&#x177;" horiz-adv-x="482" 
d="M359 491h120l-251 -689h-111l74 195l-186 494h120l120 -350zM238 619l-133 -73l-21 68l154 100l159 -101l-28 -66z" />
    <glyph glyph-name="Ydieresis" unicode="&#x178;" horiz-adv-x="558" 
d="M128 684l151 -320l153 320h124l-219 -446v-238h-116v238l-220 446h127zM320 805q0 39 9 51t47 12t47 -12t9 -51q0 -38 -9 -50t-47 -12t-47 12t-9 50zM125 805q0 39 9 51t47 12t47 -12t9 -51q0 -38 -9 -50t-47 -12t-47 12t-9 50z" />
    <glyph glyph-name="Zacute" unicode="&#x179;" horiz-adv-x="567" 
d="M512 591l-326 -492h328v-99h-465v92l325 493h-317v99h455v-93zM220 724l-19 72l199 104l6 -92z" />
    <glyph glyph-name="zacute" unicode="&#x17a;" horiz-adv-x="455" 
d="M52 400v91h354v-88l-229 -312h237v-91h-370v86l229 314h-221zM163 546l-19 72l199 104l6 -92z" />
    <glyph glyph-name="Zdotaccent" unicode="&#x17b;" horiz-adv-x="567" 
d="M512 591l-326 -492h328v-99h-465v92l325 493h-317v99h455v-93zM227 805q0 39 9 51t47 12t47 -12t9 -51q0 -38 -9 -50t-47 -12t-47 12t-9 50z" />
    <glyph glyph-name="zdotaccent" unicode="&#x17c;" horiz-adv-x="455" 
d="M52 400v91h354v-88l-229 -312h237v-91h-370v86l229 314h-221zM171 627q0 39 9 51t47 12t47 -12t9 -51q0 -38 -9 -50t-47 -12t-47 12t-9 50z" />
    <glyph glyph-name="Zcaron" unicode="&#x17d;" horiz-adv-x="567" 
d="M512 591l-326 -492h328v-99h-465v92l325 493h-317v99h455v-93zM286 815l132 73l22 -68l-154 -100l-159 101l28 66z" />
    <glyph glyph-name="zcaron" unicode="&#x17e;" horiz-adv-x="455" 
d="M52 400v91h354v-88l-229 -312h237v-91h-370v86l229 314h-221zM229 637l132 73l22 -68l-154 -100l-159 101l28 66z" />
    <glyph glyph-name="florin" unicode="&#x192;" horiz-adv-x="454" 
d="M153 326h-97l9 94h95l6 86q7 105 54.5 155t160.5 50q37 0 72 -9l-12 -97q-31 13 -62 13q-59 0 -78.5 -23.5t-23.5 -85.5l-7 -89h133l-10 -94h-130l-22 -302q-8 -114 -52.5 -172.5t-148.5 -58.5q-35 0 -71 6l13 93q30 -5 45 -5q56 0 76 31.5t25 98.5z" />
    <glyph glyph-name="Scommaaccent" unicode="&#x218;" horiz-adv-x="535" 
d="M491 191q0 -106 -55.5 -154.5t-186.5 -48.5q-105 0 -199 29l13 104q95 -31 188 -31q70 0 96 21t26 73q0 57 -27.5 77t-114.5 42q-50 13 -79.5 25t-55 33t-36 53.5t-10.5 80.5q0 100 51.5 150t179.5 50q94 0 189 -20l-9 -107q-99 26 -180 26q-65 0 -89 -19.5t-24 -66.5
q0 -54 26.5 -72t113.5 -41q54 -15 85.5 -28.5t55.5 -36.5t33 -55.5t9 -83.5zM233 -190l15 37q2 6 2 9q0 6 -11 9q-15 2 -19.5 9t-4.5 30q0 27 8 35t44 8q35 0 43 -8t8 -35v-20q0 -20 -8 -36l-31 -54q-5 -6 -9 -6q-2 0 -20 6q-18 5 -18 10t1 6z" />
    <glyph glyph-name="scommaaccent" unicode="&#x219;" horiz-adv-x="442" 
d="M402 138q0 -75 -43.5 -112t-141.5 -37q-94 0 -172 23l16 89q78 -21 154 -21q44 0 61.5 11t17.5 43q0 33 -12 43t-75 25q-54 13 -84.5 26t-47 32.5t-21 40.5t-4.5 59q0 74 42.5 107.5t140.5 33.5q85 0 153 -15l-11 -90q-79 17 -142 17q-45 0 -60.5 -10.5t-15.5 -36.5
q0 -29 11.5 -39t59.5 -22q63 -15 97 -28.5t51.5 -34.5t21.5 -41.5t4 -62.5zM187 -190l15 37q2 6 2 9q0 6 -11 9q-15 2 -19.5 9t-4.5 30q0 27 8 35t44 8q35 0 43 -8t8 -35v-20q0 -20 -8 -36l-31 -54q-5 -6 -9 -6q-2 0 -20 6q-18 5 -18 10t1 6z" />
    <glyph glyph-name="uni021a" unicode="&#x21a;" horiz-adv-x="526" 
d="M204 0v583h-185v101h487v-101h-186v-583h-116zM229 -190l15 37q2 6 2 9q0 6 -11 9q-15 2 -19.5 9t-4.5 30q0 27 8 35t44 8q35 0 43 -8t8 -35v-20q0 -20 -8 -36l-31 -54q-5 -6 -9 -6q-2 0 -20 6q-18 5 -18 10t1 6z" />
    <glyph glyph-name="uni021b" unicode="&#x21b;" horiz-adv-x="370" 
d="M336 6q-59 -16 -120 -16q-70 0 -97.5 31.5t-27.5 101.5v275h-72v93h72v124l113 15v-139h129l-9 -93h-120v-260q0 -32 8.5 -43.5t35.5 -11.5q35 0 81 16zM183 -190l15 37q2 6 2 9q0 6 -11 9q-15 2 -19.5 9t-4.5 30q0 27 8 35t44 8q35 0 43 -8t8 -35v-20q0 -20 -8 -36
l-31 -54q-5 -6 -9 -6q-2 0 -20 6q-18 5 -18 10t1 6z" />
    <glyph glyph-name="circumflex" unicode="&#x2c6;" horiz-adv-x="333" 
d="M164 619l-133 -73l-21 68l154 100l159 -101l-28 -66z" />
    <glyph glyph-name="caron" unicode="&#x2c7;" horiz-adv-x="333" 
d="M169 637l132 73l22 -68l-154 -100l-159 101l28 66z" />
    <glyph glyph-name="breve" unicode="&#x2d8;" horiz-adv-x="333" 
d="M239 677l66 -13q-3 -55 -37.5 -87.5t-101.5 -32.5q-66 0 -100.5 32.5t-37.5 87.5l65 13q9 -64 73 -64q68 0 73 64z" />
    <glyph glyph-name="dotaccent" unicode="&#x2d9;" horiz-adv-x="333" 
d="M110 627q0 39 9 51t47 12t47 -12t9 -51q0 -38 -9 -50t-47 -12t-47 12t-9 50z" />
    <glyph glyph-name="ring" unicode="&#x2da;" horiz-adv-x="333" 
d="M256 628q0 -39 -24.5 -63t-65.5 -24t-65.5 23.5t-24.5 63.5q0 38 25 62.5t65 24.5q41 0 65.5 -24t24.5 -63zM205 628q0 40 -39 40t-39 -40t39 -40t39 40z" />
    <glyph glyph-name="ogonek" unicode="&#x2db;" horiz-adv-x="333" 
d="M256 -195q-25 -9 -64 -9q-55 0 -83.5 22t-28.5 59q0 76 67 125h95q-39 -21 -61 -50.5t-22 -60.5q0 -15 12 -25t33 -10q17 0 45 5z" />
    <glyph glyph-name="tilde" unicode="&#x2dc;" horiz-adv-x="333" 
d="M226 567q-26 1 -64 17t-57 16q-36 0 -70 -32l-20 68q40 44 92 44q30 0 69.5 -17t53.5 -17q41 0 67 32l21 -66q-31 -45 -92 -45z" />
    <glyph glyph-name="hungarumlaut" unicode="&#x2dd;" horiz-adv-x="333" 
d="M71 538l-60 32l111 140l82 -27zM255 538l-61 32l112 140l82 -27z" />
    <glyph glyph-name="uni0308" unicode="&#x308;" horiz-adv-x="333" 
d="M208 627q0 39 9 51t47 12t47 -12t9 -51q0 -38 -9 -50t-47 -12t-47 12t-9 50zM13 627q0 39 9 51t47 12t47 -12t9 -51q0 -38 -9 -50t-47 -12t-47 12t-9 50z" />
    <glyph glyph-name="uni037E" unicode="&#x37e;" horiz-adv-x="246" 
d="M63 373q0 43 9.5 56t50.5 13t50.5 -13t9.5 -56t-9.5 -56t-50.5 -13t-50.5 13t-9.5 56zM62 -83l22 63q3 5 3 14q0 7 -7 11q-16 8 -16 57q0 43 9.5 56t50.5 13t50.5 -13t9.5 -56v-26q0 -28 -10 -50l-41 -99q-6 -11 -21 -11q-5 0 -25 7q-19 7 -23.5 10.5t-4.5 9.5q0 8 3 14z
" />
    <glyph glyph-name="anoteleia" unicode="&#x387;" horiz-adv-x="246" 
d="M63 283q0 43 9.5 56t50.5 13t50.5 -13t9.5 -56t-9.5 -56t-50.5 -13t-50.5 13t-9.5 56z" />
    <glyph glyph-name="Delta" unicode="&#x394;" horiz-adv-x="600" 
d="M21 0v64l220 620h121l217 -620v-64h-558zM148 97h298l-116 339q-22 62 -31 108h-3q-10 -43 -32 -106z" />
    <glyph glyph-name="Omega" unicode="&#x3a9;" horiz-adv-x="634" 
d="M489 102v-2h100v-100h-232v79q103 96 103 278q0 57 -1.5 87t-9 64t-22.5 49.5t-42 26t-68 10.5q-34 0 -58.5 -6t-40.5 -21t-25 -31.5t-13.5 -48t-5.5 -58.5t-1 -74q0 -96 27 -166.5t69 -109.5v-79h-224v100h95v2q-85 108 -85 260q0 68 5.5 115.5t21.5 91t45 69.5t76 41.5
t114 15.5q83 0 136 -21.5t80 -67.5t36.5 -100t9.5 -136q0 -157 -90 -268z" />
    <glyph glyph-name="mu" unicode="&#x3bc;" horiz-adv-x="533" 
d="M63 -206v697h114v-349q0 -49 44 -49q53 0 132 45v353h113v-491h-96l-11 43q-86 -49 -161 -53q-14 0 -21 3v-184z" />
    <glyph glyph-name="pi" unicode="&#x3c0;" horiz-adv-x="578" 
d="M539 398h-67v-247q0 -89 17 -151h-104q-23 36 -23 143v255h-130q-6 -102 -27 -222t-47 -176h-109q28 71 48.5 186.5t24.5 210.5q-58 -2 -95 -12l-14 76q47 30 150 30h389z" />
    <glyph glyph-name="figuredash" unicode="&#x2012;" horiz-adv-x="578" 
d="M63 229v87h450v-87h-450z" />
    <glyph glyph-name="endash" unicode="&#x2013;" 
d="M-4 230v86h508v-86h-508z" />
    <glyph glyph-name="emdash" unicode="&#x2014;" horiz-adv-x="833" 
d="M-4 230v86h841v-86h-841z" />
    <glyph glyph-name="quoteleft" unicode="&#x2018;" horiz-adv-x="246" 
d="M181 668l-22 -62q-3 -9 -3 -14q0 -7 7 -11q16 -9 16 -57q0 -43 -10 -56.5t-50 -13.5t-50 13.5t-10 56.5v26q0 25 10 50l41 98q6 12 21 12q5 0 25 -7q19 -8 23.5 -11.5t4.5 -9.5q0 -7 -3 -14z" />
    <glyph glyph-name="quoteright" unicode="&#x2019;" horiz-adv-x="246" 
d="M62 483l22 63q3 5 3 14q0 7 -7 11q-16 8 -16 57q0 43 9.5 56t50.5 13t50.5 -13t9.5 -56v-26q0 -28 -10 -50l-41 -99q-6 -11 -21 -11q-5 0 -25 7q-19 7 -23.5 10.5t-4.5 9.5q0 8 3 14z" />
    <glyph glyph-name="quotesinglbase" unicode="&#x201a;" horiz-adv-x="246" 
d="M62 -83l22 63q3 5 3 14q0 7 -7 11q-16 8 -16 57q0 43 9.5 56t50.5 13t50.5 -13t9.5 -56v-26q0 -28 -10 -50l-41 -99q-6 -11 -21 -11q-5 0 -25 7q-19 7 -23.5 10.5t-4.5 9.5q0 8 3 14z" />
    <glyph glyph-name="quotedblleft" unicode="&#x201c;" horiz-adv-x="447" 
d="M382 668l-22 -62q-3 -9 -3 -14q0 -7 7 -11q16 -9 16 -57q0 -43 -10 -56.5t-50 -13.5t-50 13.5t-10 56.5v26q0 25 10 50l41 98q6 12 21 12q5 0 25 -7q19 -8 23.5 -11.5t4.5 -9.5q0 -7 -3 -14zM181 668l-22 -62q-3 -9 -3 -14q0 -7 7 -11q16 -9 16 -57q0 -43 -10 -56.5
t-50 -13.5t-50 13.5t-10 56.5v26q0 25 10 50l41 98q6 12 21 12q5 0 25 -7q19 -8 23.5 -11.5t4.5 -9.5q0 -7 -3 -14z" />
    <glyph glyph-name="quotedblright" unicode="&#x201d;" horiz-adv-x="447" 
d="M62 483l22 63q3 5 3 14q0 7 -7 11q-16 8 -16 57q0 43 9.5 56t50.5 13t50.5 -13t9.5 -56v-26q0 -28 -10 -50l-41 -99q-6 -11 -21 -11q-5 0 -25 7q-19 7 -23.5 10.5t-4.5 9.5q0 8 3 14zM263 483l22 63q3 5 3 14q0 7 -7 11q-16 8 -16 57q0 43 9.5 56t50.5 13t50.5 -13
t9.5 -56v-26q0 -28 -10 -50l-41 -99q-6 -11 -21 -11q-5 0 -25 7q-19 7 -23.5 10.5t-4.5 9.5q0 8 3 14z" />
    <glyph glyph-name="quotedblbase" unicode="&#x201e;" horiz-adv-x="447" 
d="M270 -83l22 63q3 5 3 14q0 7 -7 11q-16 8 -16 57q0 43 9.5 56t50.5 13t50.5 -13t9.5 -56v-26q0 -28 -10 -50l-41 -99q-6 -11 -21 -11q-5 0 -25 7q-19 7 -23.5 10.5t-4.5 9.5q0 8 3 14zM62 -83l22 63q3 5 3 14q0 7 -7 11q-16 8 -16 57q0 43 9.5 56t50.5 13t50.5 -13
t9.5 -56v-26q0 -28 -10 -50l-41 -99q-6 -11 -21 -11q-5 0 -25 7q-19 7 -23.5 10.5t-4.5 9.5q0 8 3 14z" />
    <glyph glyph-name="dagger" unicode="&#x2020;" 
d="M49 402l6 92q49 -1 143 -1q0 30 -0.5 92.5t-0.5 91.5l104 12q-3 -189 -3 -196q103 0 152 1l-6 -92q-50 2 -146 2v-488l-100 -12v500q-100 0 -149 -2z" />
    <glyph glyph-name="daggerdbl" unicode="&#x2021;" 
d="M49 156l6 92q46 -1 143 -1v168q-57 0 -149 -2l6 92q46 -1 143 -1q0 30 -0.5 89t-0.5 84q6 1 44.5 5t59.5 7q-3 -171 -3 -185q106 0 152 1l-6 -92q-90 2 -146 2v-168q105 0 152 1l-6 -92q-46 1 -146 1v-241l-100 -12v253q-103 0 -149 -1z" />
    <glyph glyph-name="bullet" unicode="&#x2022;" 
d="M102 347q0 62 43 105t104 43t104.5 -43.5t43.5 -104.5t-43 -104t-105 -43q-61 0 -104 43t-43 104z" />
    <glyph glyph-name="twodotenleader" unicode="&#x2025;" horiz-adv-x="555" 
d="M78 62q0 43 9.5 56t50.5 13t50.5 -13t9.5 -56t-9.5 -56t-50.5 -13t-50.5 13t-9.5 56zM355 62q0 43 9.5 56t50.5 13t50.5 -13t9.5 -56t-9.5 -56t-50.5 -13t-50.5 13t-9.5 56z" />
    <glyph glyph-name="ellipsis" unicode="&#x2026;" horiz-adv-x="833" 
d="M422 62q0 43 9.5 56t50.5 13q21 0 33 -3q12 3 33 3q41 0 50.5 -13t9.5 -56t-9.5 -56t-50.5 -13q-21 0 -33 3q-12 -3 -33 -3q-41 0 -50.5 13t-9.5 56zM199 62q0 43 9.5 56t50.5 13t50.5 -13t9.5 -56t-9.5 -56t-50.5 -13t-50.5 13t-9.5 56z" />
    <glyph glyph-name="perthousand" unicode="&#x2030;" horiz-adv-x="1291" 
d="M1162 187q0 75 -13 99.5t-58 24.5q-44 0 -57 -24.5t-13 -99.5t13 -99.5t57 -24.5q45 0 58 24.5t13 99.5zM1253 187q0 -99 -32.5 -148.5t-129.5 -49.5q-96 0 -128.5 49.5t-32.5 148.5t32.5 148.5t128.5 49.5q97 0 129.5 -49.5t32.5 -148.5zM639 680l-294 -692l-80 27
l293 691zM772 187q0 75 -13 99.5t-58 24.5q-44 0 -57 -24.5t-13 -99.5t13 -99.5t57 -24.5q45 0 58 24.5t13 99.5zM862 187q0 -99 -32 -148.5t-129 -49.5q-96 0 -128.5 49.5t-32.5 148.5t32.5 148.5t128.5 49.5q97 0 129 -49.5t32 -148.5zM271 497q0 75 -13 99.5t-58 24.5
t-58 -24.5t-13 -99.5t13 -99.5t58 -24.5t58 24.5t13 99.5zM361 497q0 -99 -32 -148.5t-129 -49.5t-129 49.5t-32 148.5t32 148.5t129 49.5t129 -49.5t32 -148.5z" />
    <glyph glyph-name="guilsinglleft" unicode="&#x2039;" horiz-adv-x="306" 
d="M41 211v66l154 181l68 -65l-126 -149l126 -149l-68 -65z" />
    <glyph glyph-name="guilsinglright" unicode="&#x203a;" horiz-adv-x="306" 
d="M265 277v-66l-154 -181l-68 65l126 149l-126 149l68 65z" />
    <glyph glyph-name="fraction" unicode="&#x2044;" horiz-adv-x="156" 
d="M265 679l-293 -691l-80 26l292 692z" />
    <glyph glyph-name="zero.superior" unicode="&#x2070;" horiz-adv-x="400" 
d="M274 437v47q0 32 -0.5 47.5t-4.5 35t-11.5 27.5t-21.5 14t-36 6q-50 0 -62.5 -27.5t-12.5 -102.5v-47q0 -31 1 -47.5t4.5 -35.5t11.5 -27t22 -14t36 -6t36 6t21.5 14t11.5 27.5t4.5 35t0.5 47.5zM365 484v-46q0 -39 -2 -63.5t-11 -54.5t-26 -47t-49 -29t-77 -12
q-46 0 -77.5 12t-48.5 29t-26.5 47t-11.5 54.5t-2 63.5v46q0 39 2 63.5t11.5 54t26.5 46.5t48.5 29t77.5 12q45 0 77 -12t49 -29t26 -46.5t11 -54.5t2 -63z" />
    <glyph glyph-name="four.superior" unicode="&#x2074;" horiz-adv-x="400" 
d="M380 336h-60v-97h-89v97h-213v75l205 273h97v-272h60v-76zM112 412h119v158z" />
    <glyph glyph-name="five.superior" unicode="&#x2075;" horiz-adv-x="399" 
d="M254 378q0 36 -15.5 48t-62.5 12q-36 0 -80 -6h-29l9 252h251v-75h-170l-4 -99q38 2 44 2q85 0 116.5 -30t31.5 -102v-11q0 -70 -38 -103.5t-126 -33.5q-73 0 -130 20l10 77q63 -22 118 -22q42 0 58.5 13t16.5 49v9z" />
    <glyph glyph-name="six.superior" unicode="&#x2076;" horiz-adv-x="399" 
d="M201 232q-52 0 -85.5 14.5t-48.5 45t-20 62t-5 80.5v39q0 112 39.5 164.5t142.5 52.5q47 0 110 -13l-6 -75q-55 12 -94 12q-62 0 -82 -21t-20 -74v-17q45 14 90 14q72 0 103.5 -32.5t31.5 -106.5q0 -71 -35.5 -108t-120.5 -37zM201 305q40 0 54.5 16t14.5 57
q0 36 -11.5 49t-43.5 13q-43 0 -84 -13v-11q0 -64 11.5 -87.5t58.5 -23.5z" />
    <glyph glyph-name="seven.superior" unicode="&#x2077;" horiz-adv-x="399" 
d="M58 608v76h296v-64l-176 -381h-95l174 369h-199z" />
    <glyph glyph-name="eight.superior" unicode="&#x2078;" horiz-adv-x="399" 
d="M36 370q0 71 63 102q-30 17 -40.5 40t-10.5 56q0 64 34.5 93t116.5 29t117 -29t35 -92q0 -36 -11 -58t-40 -39q63 -31 63 -101q0 -76 -35 -107.5t-129 -31.5t-128.5 32t-34.5 106zM126 371q0 -40 15.5 -53.5t57.5 -13.5q45 0 59.5 14t14.5 53q0 28 -15 40.5t-59 19.5
q-44 -7 -58.5 -19.5t-14.5 -40.5zM136 564q0 -32 13 -45.5t51 -20.5q39 7 51 21t12 45q0 29 -12.5 41t-51.5 12t-51 -12.5t-12 -40.5z" />
    <glyph glyph-name="nine.superior" unicode="&#x2079;" horiz-adv-x="399" 
d="M199 690q52 0 85 -14.5t48 -45.5t20 -62.5t5 -80.5v-38q0 -112 -39.5 -164.5t-142.5 -52.5q-53 0 -111 13l8 74q50 -11 93 -11q62 0 82 21t21 73v18q-47 -14 -91 -14q-71 0 -103 33t-32 106q0 70 36 107.5t121 37.5zM198 617q-40 0 -54.5 -16.5t-14.5 -57.5q0 -36 12 -49
t43 -13q40 0 84 14v10q0 64 -11.5 88t-58.5 24z" />
    <glyph glyph-name="zero.inferior" unicode="&#x2080;" horiz-adv-x="400" 
d="M274 198v47q0 32 -0.5 47.5t-4.5 35t-11.5 27.5t-21.5 14t-36 6q-50 0 -62.5 -27.5t-12.5 -102.5v-47q0 -31 1 -47.5t4.5 -35.5t11.5 -27t22 -14t36 -6t36 6t21.5 14t11.5 27.5t4.5 35t0.5 47.5zM365 245v-46q0 -39 -2 -63.5t-11 -54.5t-26 -47t-49 -29t-77 -12
q-46 0 -77.5 12t-48.5 29t-26.5 47t-11.5 54.5t-2 63.5v46q0 39 2 63.5t11.5 54t26.5 46.5t48.5 29t77.5 12q45 0 77 -12t49 -29t26 -46.5t11 -54.5t2 -63z" />
    <glyph glyph-name="one.inferior" unicode="&#x2081;" horiz-adv-x="399" 
d="M93 0v74h80v274l-79 -37l-21 76l116 58h73v-371h77v-74h-246z" />
    <glyph glyph-name="two.inferior" unicode="&#x2082;" horiz-adv-x="399" 
d="M56 0v70q99 97 135 139q61 68 61 120q0 24 -14.5 35.5t-48.5 11.5q-55 0 -124 -27l-9 75q65 28 140 28q79 0 113.5 -29.5t34.5 -87.5q0 -41 -18 -76t-59 -83q-26 -31 -96 -102h174v-74h-289z" />
    <glyph glyph-name="three.inferior" unicode="&#x2083;" horiz-adv-x="399" 
d="M49 14l8 74q71 -23 122 -23q42 0 59 12.5t17 43.5v16q0 28 -16 38.5t-50 10.5h-90v75h54q55 0 72 10.5t17 44.5v16q0 25 -14.5 35.5t-49.5 10.5q-43 0 -114 -23l-7 74q66 22 124 22q151 0 151 -110v-17q0 -71 -45 -92q59 -22 59 -98v-8q0 -68 -39.5 -100.5t-125.5 -32.5
q-69 0 -132 21z" />
    <glyph glyph-name="four.inferior" unicode="&#x2084;" horiz-adv-x="400" 
d="M380 97h-60v-97h-89v97h-213v75l205 273h97v-272h60v-76zM112 173h119v158z" />
    <glyph glyph-name="five.inferior" unicode="&#x2085;" horiz-adv-x="399" 
d="M254 139q0 36 -15.5 48t-62.5 12q-36 0 -80 -6h-29l9 252h251v-75h-170l-4 -99q38 2 44 2q85 0 116.5 -30t31.5 -102v-11q0 -70 -38 -103.5t-126 -33.5q-73 0 -130 20l10 77q63 -22 118 -22q42 0 58.5 13t16.5 49v9z" />
    <glyph glyph-name="six.inferior" unicode="&#x2086;" horiz-adv-x="399" 
d="M201 -7q-52 0 -85.5 14.5t-48.5 45t-20 62t-5 80.5v39q0 112 39.5 164.5t142.5 52.5q47 0 110 -13l-6 -75q-56 12 -94 12q-62 0 -82 -21t-20 -74v-17q45 14 90 14q72 0 103.5 -32.5t31.5 -106.5q0 -71 -35.5 -108t-120.5 -37zM201 66q40 0 54.5 16t14.5 57q0 36 -11.5 49
t-43.5 13q-43 0 -84 -13v-11q0 -64 11.5 -87.5t58.5 -23.5z" />
    <glyph glyph-name="seven.inferior" unicode="&#x2087;" horiz-adv-x="399" 
d="M58 369v76h296v-64l-176 -381h-95l174 369h-199z" />
    <glyph glyph-name="eight.inferior" unicode="&#x2088;" horiz-adv-x="399" 
d="M36 131q0 71 63 102q-30 17 -40.5 40t-10.5 56q0 64 34.5 93t116.5 29t117 -29t35 -92q0 -36 -11 -58t-40 -39q63 -31 63 -101q0 -76 -35 -107.5t-129 -31.5t-128.5 32t-34.5 106zM126 132q0 -40 15.5 -53.5t57.5 -13.5q45 0 59.5 14t14.5 53q0 28 -15 40.5t-59 19.5
q-44 -7 -58.5 -19.5t-14.5 -40.5zM136 325q0 -32 13 -45.5t51 -20.5q39 7 51 21t12 45q0 29 -12.5 41t-51.5 12t-51 -12.5t-12 -40.5z" />
    <glyph glyph-name="nine.inferior" unicode="&#x2089;" horiz-adv-x="399" 
d="M199 451q52 0 85 -14.5t48 -45.5t20 -62.5t5 -80.5v-38q0 -112 -39.5 -164.5t-142.5 -52.5q-53 0 -111 13l8 74q50 -11 93 -11q62 0 82 21t21 73v18q-47 -14 -91 -14q-71 0 -103 33t-32 106q0 70 36 107.5t121 37.5zM198 378q-40 0 -54.5 -16.5t-14.5 -57.5q0 -36 12 -49
t43 -13q40 0 84 14v10q0 64 -11.5 88t-58.5 24z" />
    <glyph glyph-name="Euro" unicode="&#x20ac;" horiz-adv-x="578" 
d="M38 370l12 78h74q7 118 61 177.5t180 59.5q85 0 168 -20l-12 -100q-73 21 -141 21q-77 0 -107 -28.5t-35 -109.5h234l-13 -78h-224v-71h218l-13 -78h-202q5 -75 35 -104.5t105 -29.5q72 0 153 21l10 -98q-75 -21 -164 -21q-137 0 -190.5 57t-62.5 175h-86l12 78h71v71
h-83z" />
    <glyph glyph-name="trademark" unicode="&#x2122;" horiz-adv-x="595" 
d="M549 422h-60v137l-44 -98h-48l-44 98v-137h-59v262h62l65 -149l65 149h63v-262zM108 422v211h-72v51h205v-51h-72v-211h-61z" />
    <glyph glyph-name="uni2126" unicode="&#x2126;" horiz-adv-x="634" 
d="M489 102v-2h100v-100h-232v79q103 96 103 278q0 57 -1.5 87t-9 64t-22.5 49.5t-42 26t-68 10.5q-34 0 -58.5 -6t-40.5 -21t-25 -31.5t-13.5 -48t-5.5 -58.5t-1 -74q0 -96 27 -166.5t69 -109.5v-79h-224v100h95v2q-85 108 -85 260q0 68 5.5 115.5t21.5 91t45 69.5t76 41.5
t114 15.5q83 0 136 -21.5t80 -67.5t36.5 -100t9.5 -136q0 -157 -90 -268z" />
    <glyph glyph-name="onethird" unicode="&#x2153;" horiz-adv-x="955" 
d="M664 679l-293 -691l-80 26l292 692zM93 239v74h80v274l-79 -37l-21 76l116 58h73v-371h77v-74h-246zM604 14l8 74q71 -23 122 -23q42 0 59 12.5t17 43.5v16q0 28 -16 38.5t-50 10.5h-90v75h54q55 0 72 10.5t17 44.5v16q0 25 -14.5 35.5t-49.5 10.5q-43 0 -114 -23l-7 74
q66 22 124 22q151 0 151 -110v-17q0 -71 -45 -92q59 -22 59 -98v-8q0 -68 -39.5 -100.5t-125.5 -32.5q-69 0 -132 21z" />
    <glyph glyph-name="twothirds" unicode="&#x2154;" horiz-adv-x="955" 
d="M664 679l-293 -691l-80 26l292 692zM56 239v70q99 97 135 139q61 68 61 120q0 24 -14.5 35.5t-48.5 11.5q-55 0 -124 -27l-9 75q65 28 140 28q79 0 113.5 -29.5t34.5 -87.5q0 -41 -18 -76t-59 -83q-26 -31 -96 -102h174v-74h-289zM604 14l8 74q71 -23 122 -23
q42 0 59 12.5t17 43.5v16q0 28 -16 38.5t-50 10.5h-90v75h54q55 0 72 10.5t17 44.5v16q0 25 -14.5 35.5t-49.5 10.5q-43 0 -114 -23l-7 74q66 22 124 22q151 0 151 -110v-17q0 -71 -45 -92q59 -22 59 -98v-8q0 -68 -39.5 -100.5t-125.5 -32.5q-69 0 -132 21z" />
    <glyph glyph-name="oneeighth" unicode="&#x215b;" horiz-adv-x="955" 
d="M664 679l-293 -691l-80 26l292 692zM93 239v74h80v274l-79 -37l-21 76l116 58h73v-371h77v-74h-246zM591 131q0 71 63 102q-30 17 -40.5 40t-10.5 56q0 64 34.5 93t116.5 29t117 -29t35 -92q0 -36 -11 -58t-40 -39q63 -31 63 -101q0 -76 -35 -107.5t-129 -31.5t-128.5 32
t-34.5 106zM681 132q0 -40 15.5 -53.5t57.5 -13.5q45 0 59.5 14t14.5 53q0 28 -15 40.5t-59 19.5q-44 -7 -58.5 -19.5t-14.5 -40.5zM691 325q0 -32 13 -45.5t51 -20.5q39 7 51 21t12 45q0 29 -12.5 41t-51.5 12t-51 -12.5t-12 -40.5z" />
    <glyph glyph-name="threeeighths" unicode="&#x215c;" horiz-adv-x="955" 
d="M664 679l-293 -691l-80 26l292 692zM591 131q0 71 63 102q-30 17 -40.5 40t-10.5 56q0 64 34.5 93t116.5 29t117 -29t35 -92q0 -36 -11 -58t-40 -39q63 -31 63 -101q0 -76 -35 -107.5t-129 -31.5t-128.5 32t-34.5 106zM681 132q0 -40 15.5 -53.5t57.5 -13.5q45 0 59.5 14
t14.5 53q0 28 -15 40.5t-59 19.5q-44 -7 -58.5 -19.5t-14.5 -40.5zM691 325q0 -32 13 -45.5t51 -20.5q39 7 51 21t12 45q0 29 -12.5 41t-51.5 12t-51 -12.5t-12 -40.5zM49 253l8 74q71 -23 122 -23q42 0 59 12.5t17 43.5v16q0 28 -16 38.5t-50 10.5h-90v75h54q55 0 72 10.5
t17 44.5v16q0 25 -14.5 35.5t-49.5 10.5q-43 0 -114 -23l-7 74q66 22 124 22q151 0 151 -110v-17q0 -71 -45 -92q59 -22 59 -98v-8q0 -68 -39.5 -100.5t-125.5 -32.5q-69 0 -132 21z" />
    <glyph glyph-name="fiveeighths" unicode="&#x215d;" horiz-adv-x="955" 
d="M664 679l-293 -691l-80 26l292 692zM254 378q0 36 -15.5 48t-62.5 12q-36 0 -80 -6h-29l9 252h251v-75h-170l-4 -99q38 2 44 2q85 0 116.5 -30t31.5 -102v-11q0 -70 -38 -103.5t-126 -33.5q-73 0 -130 20l10 77q63 -22 118 -22q42 0 58.5 13t16.5 49v9zM591 131
q0 71 63 102q-30 17 -40.5 40t-10.5 56q0 64 34.5 93t116.5 29t117 -29t35 -92q0 -36 -11 -58t-40 -39q63 -31 63 -101q0 -76 -35 -107.5t-129 -31.5t-128.5 32t-34.5 106zM681 132q0 -40 15.5 -53.5t57.5 -13.5q45 0 59.5 14t14.5 53q0 28 -15 40.5t-59 19.5
q-44 -7 -58.5 -19.5t-14.5 -40.5zM691 325q0 -32 13 -45.5t51 -20.5q39 7 51 21t12 45q0 29 -12.5 41t-51.5 12t-51 -12.5t-12 -40.5z" />
    <glyph glyph-name="seveneighths" unicode="&#x215e;" horiz-adv-x="955" 
d="M650 679l-293 -691l-80 26l292 692zM591 131q0 71 63 102q-30 17 -40.5 40t-10.5 56q0 64 34.5 93t116.5 29t117 -29t35 -92q0 -36 -11 -58t-40 -39q63 -31 63 -101q0 -76 -35 -107.5t-129 -31.5t-128.5 32t-34.5 106zM681 132q0 -40 15.5 -53.5t57.5 -13.5q45 0 59.5 14
t14.5 53q0 28 -15 40.5t-59 19.5q-44 -7 -58.5 -19.5t-14.5 -40.5zM691 325q0 -32 13 -45.5t51 -20.5q39 7 51 21t12 45q0 29 -12.5 41t-51.5 12t-51 -12.5t-12 -40.5zM58 608v76h296v-64l-176 -381h-95l174 369h-199z" />
    <glyph glyph-name="partialdiff" unicode="&#x2202;" horiz-adv-x="499" 
d="M86 567l-40 82q78 61 175 61q103 0 176 -92t73 -253q0 -179 -74 -277.5t-182 -98.5q-92 0 -142 62t-50 149q0 102 60.5 172.5t149.5 70.5q78 0 126 -58h1q-6 114 -47.5 172t-98.5 58q-64 0 -127 -48zM223 84q50 0 84.5 54.5t43.5 135.5q-11 32 -40 54t-66 22
q-45 0 -77 -43t-32 -106q0 -54 24 -85.5t63 -31.5z" />
    <glyph glyph-name="uni2206" unicode="&#x2206;" horiz-adv-x="600" 
d="M21 0v64l220 620h121l217 -620v-64h-558zM148 97h298l-116 339q-22 62 -31 108h-3q-10 -43 -32 -106z" />
    <glyph glyph-name="product" unicode="&#x220f;" horiz-adv-x="639" 
d="M624 610h-90v-699h-115v699h-200v-699h-115v699h-88v100h608v-100z" />
    <glyph glyph-name="summation" unicode="&#x2211;" horiz-adv-x="548" 
d="M534 -90h-519v70l237 328l-226 326v76h477v-100h-321v-3l203 -296l-212 -298v-2h361v-101z" />
    <glyph glyph-name="minus" unicode="&#x2212;" 
d="M56 240v85h387v-85h-387z" />
    <glyph glyph-name="uni2215" unicode="&#x2215;" horiz-adv-x="156" 
d="M265 679l-293 -691l-80 26l292 692z" />
    <glyph glyph-name="bulletoperator" unicode="&#x2219;" horiz-adv-x="246" 
d="M63 283q0 43 9.5 56t50.5 13t50.5 -13t9.5 -56t-9.5 -56t-50.5 -13t-50.5 13t-9.5 56z" />
    <glyph glyph-name="radical" unicode="&#x221a;" horiz-adv-x="548" 
d="M561 829l-211 -921h-91l-141 407l-67 -31l-28 73l162 72l94 -291q7 -22 18 -66h1q5 32 13 67l150 690h100z" />
    <glyph glyph-name="infinity" unicode="&#x221e;" 
d="M348 138q-17 0 -31 6t-27.5 22t-19.5 24.5t-20 30.5q-17 -26 -28.5 -40.5t-32 -28.5t-42.5 -14q-45 0 -73.5 40t-28.5 103q0 60 29 101.5t77 41.5q44 0 100 -84q1 1 9 13t9.5 14t8.5 12t10.5 13t10.5 10t12 9.5t12 6.5t14.5 5t15.5 1q45 0 73 -40.5t28 -102.5
q0 -60 -29 -101.5t-77 -41.5zM346 217q11 0 18.5 19t7.5 45q0 27 -7 45t-18 18q-5 0 -10.5 -4.5t-12.5 -16t-10.5 -18.5t-12.5 -24q31 -64 45 -64zM151 217q3 0 5.5 1t5.5 3.5t5 5t5.5 7t5.5 8t5.5 9.5t5.5 9.5t5.5 10.5t5.5 10q-2 3 -6 11.5t-6.5 13t-6.5 11.5t-7 11
t-6.5 8t-7 6t-6.5 2q-11 0 -19 -18.5t-8 -44.5q0 -27 7.5 -45.5t16.5 -18.5z" />
    <glyph glyph-name="integral" unicode="&#x222b;" horiz-adv-x="342" 
d="M326 764l-15 -89q-22 8 -38 8q-23 0 -35 -19q-18 -32 -18 -137q0 -71 5.5 -222t5.5 -230q0 -127 -38 -189q-36 -59 -108 -59q-35 0 -71 17l17 91q24 -12 43 -12q21 0 32 17q18 29 18 133q0 75 -5 229t-5 230q0 141 52 202q37 43 98 43q27 0 62 -13z" />
    <glyph glyph-name="approxequal" unicode="&#x2248;" 
d="M436 377l29 -77l-3 -5l3 -7q-50 -79 -130 -79q-39 0 -91 30t-76 30q-32 0 -56 -16.5t-49 -48.5l-29 77l3 4l-3 8q52 83 135 83q39 0 91.5 -29.5t77.5 -29.5q57 0 98 60z" />
    <glyph glyph-name="notequal" unicode="&#x2260;" 
d="M56 331v83h224l66 126l63 -32l-49 -94h83v-83h-127l-50 -97h177v-83h-220l-69 -133l-63 33l52 100h-87v83h130l51 97h-181z" />
    <glyph glyph-name="lessequal" unicode="&#x2264;" 
d="M56 0v85h387v-85h-387zM56 309v81l350 188l41 -75l-290 -153l290 -153l-41 -75z" />
    <glyph glyph-name="greaterequal" unicode="&#x2265;" 
d="M56 0v85h387v-85h-387zM443 390v-81l-350 -187l-41 75l290 153l-290 153l41 75z" />
    <glyph glyph-name="dotmath" unicode="&#x22c5;" horiz-adv-x="246" 
d="M63 283q0 43 9.5 56t50.5 13t50.5 -13t9.5 -56t-9.5 -56t-50.5 -13t-50.5 13t-9.5 56z" />
    <glyph glyph-name="lozenge" unicode="&#x25ca;" horiz-adv-x="514" 
d="M480 340l-175 -352h-97l-174 352l174 350h97zM362 337l-94 202q-1 3 -5.5 13.5t-6.5 15.5h-2q-2 -8 -11 -29l-91 -198l94 -205q5 -8 11 -26h2q3 13 10 27z" />
    <glyph glyph-name="Ccommaaccent" unicode="&#xee00;" horiz-adv-x="536" 
d="M320 593q-92 0 -118 -44t-26 -179v-55q0 -58 2 -90t10 -62.5t24 -43.5t43 -21t69 -8q77 0 163 22l11 -102q-82 -21 -175 -21q-52 0 -92.5 8t-68.5 21t-47.5 36.5t-30.5 47t-17.5 60.5t-8 69.5t-1.5 80.5v60q0 66 5.5 112t21.5 88.5t44 68t75 40t113 14.5q101 0 180 -21
l-10 -103q-85 22 -166 22zM273 -190l15 37q2 6 2 9q0 6 -11 9q-15 2 -19.5 9t-4.5 30q0 27 8 35t44 8q35 0 43 -8t8 -35v-20q0 -20 -8 -36l-31 -54q-5 -6 -9 -6q-2 0 -20 6q-18 5 -18 10t1 6z" />
    <glyph glyph-name="ccommaaccent" unicode="&#xee01;" horiz-adv-x="426" 
d="M160 246q0 -97 18.5 -130t85.5 -33q48 0 115 16l12 -96q-72 -14 -135 -14q-126 0 -168.5 60.5t-42.5 195.5q0 68 8.5 112.5t31.5 79t65 50t107 15.5q66 0 133 -12l-10 -97q-58 15 -118 15t-81 -31t-21 -131zM214 -190l15 37q2 6 2 9q0 6 -11 9q-15 2 -19.5 9t-4.5 30
q0 27 8 35t44 8q35 0 43 -8t8 -35v-20q0 -20 -8 -36l-31 -54q-5 -6 -9 -6q-2 0 -20 6q-18 5 -18 10t1 6z" />
    <glyph glyph-name="zero.fitted" unicode="&#xf639;" horiz-adv-x="578" 
d="M409 311v61q0 46 -1 70.5t-4.5 55t-11 45t-20.5 29t-33.5 19.5t-49.5 5q-25 0 -43.5 -5t-31.5 -12t-21.5 -23.5t-13.5 -30.5t-7 -42.5t-2.5 -49.5t-0.5 -61v-61q0 -40 0.5 -61t2.5 -49.5t7 -42.5t13.5 -30.5t21.5 -23.5t31.5 -12t43.5 -5q29 0 49.5 5t33.5 19.5t20.5 29
t11 45t4.5 55t1 70.5zM524 372v-61q0 -51 -2 -84.5t-9.5 -74.5t-23 -67t-40.5 -49.5t-65.5 -34.5t-94.5 -11t-94.5 11t-65.5 34.5t-40.5 49.5t-23 67t-9.5 74.5t-2 84.5v61q0 51 2 84.5t9.5 74.5t23 67t40.5 49.5t65.5 34.5t94.5 11t94.5 -11t65.5 -34.5t40.5 -49.5t23 -67
t9.5 -74.5t2 -84.5z" />
    <glyph glyph-name="two.fitted" unicode="&#xf63a;" horiz-adv-x="533" 
d="M64 0v90q133 143 201 227q92 115 92 195q0 45 -23.5 65t-79.5 20q-84 0 -176 -41l-11 98q90 41 196 41q113 0 162 -44t49 -131q0 -62 -26.5 -116.5t-88.5 -132.5q-43 -56 -151 -175h266v-96h-410z" />
    <glyph glyph-name="three.fitted" unicode="&#xf63b;" horiz-adv-x="535" 
d="M57 20l11 98q91 -34 174 -34q67 0 94.5 20.5t27.5 76.5v29q0 48 -26 67.5t-77 19.5h-130v96h89q72 0 98.5 19.5t26.5 75.5v29q0 45 -23.5 64t-79.5 19q-68 0 -162 -34l-11 97q99 31 176 31q214 0 214 -165v-29q0 -110 -71 -143q91 -29 91 -152v-15q0 -103 -56.5 -152
t-178.5 -49q-97 0 -187 31z" />
    <glyph glyph-name="four.fitted" unicode="&#xf63c;" horiz-adv-x="578" 
d="M545 167h-88v-167h-114v167h-311v96l302 421h123v-421h88v-96zM154 263h189v271z" />
    <glyph glyph-name="five.fitted" unicode="&#xf63d;" horiz-adv-x="527" 
d="M79 306l14 378h356v-97h-255l-5 -179q45 3 76 3q117 0 162.5 -46t45.5 -151v-16q0 -107 -53 -158t-179 -51q-101 0 -184 30l12 99q89 -32 170 -32q66 0 92.5 23t26.5 85v17q0 62 -24 83t-97 21q-45 0 -115 -9h-43z" />
    <glyph glyph-name="six.fitted" unicode="&#xf63e;" horiz-adv-x="578" 
d="M179 428v-37q78 26 141 26q102 0 147.5 -49t45.5 -159q0 -109 -51 -164.5t-171 -55.5q-60 0 -102 16t-66 40.5t-37.5 68t-17 85t-3.5 104.5v57q0 173 55 253.5t205 80.5q70 0 155 -20l-9 -97q-69 18 -135 18q-94 0 -125 -38.5t-32 -128.5zM311 319q-68 0 -132 -24v-22
q0 -38 1 -58.5t4 -46t10 -38t19.5 -24.5t32 -16.5t46.5 -4.5q65 0 88 27.5t23 98.5q0 61 -19.5 84.5t-72.5 23.5z" />
    <glyph glyph-name="seven.fitted" unicode="&#xf63f;" horiz-adv-x="502" 
d="M51 587v97h419v-79l-263 -605h-119l258 587h-295z" />
    <glyph glyph-name="eight.fitted" unicode="&#xf640;" horiz-adv-x="578" 
d="M504 513q0 -58 -18.5 -93.5t-65.5 -61.5q54 -25 78 -63t24 -99q0 -111 -51.5 -159t-182.5 -48t-182 48t-51 159q0 61 23.5 99t77.5 63q-47 27 -65 63.5t-18 90.5q0 92 50.5 137t164.5 45t165 -44.5t51 -136.5zM407 197q0 51 -25 74t-94 37q-69 -13 -93.5 -36.5
t-24.5 -74.5q0 -68 25 -91t93 -23q71 0 95 23.5t24 90.5zM185 504q0 -50 22 -75.5t82 -37.5q63 14 83 38t20 79q0 48 -21.5 70t-82.5 22q-62 0 -82.5 -23t-20.5 -73z" />
    <glyph glyph-name="nine.fitted" unicode="&#xf641;" horiz-adv-x="578" 
d="M398 255v37q-78 -26 -141 -26q-102 0 -147 49t-45 159q0 109 50.5 164.5t170.5 55.5q60 0 102 -15.5t66.5 -40.5t37.5 -68t17 -85t4 -105v-57q0 -85 -11.5 -143.5t-40 -103.5t-80.5 -66t-129 -21q-68 0 -155 20l9 97q69 -18 135 -18q94 0 125 38.5t32 128.5zM266 364
q68 0 132 24v22q0 46 -1 69t-7 50.5t-18 39.5t-33 20.5t-54 8.5q-65 0 -88 -27.5t-23 -98.5q0 -61 20 -84.5t72 -23.5z" />
    <glyph glyph-name="unif6c1" unicode="&#xf6c1;" horiz-adv-x="535" 
d="M284 -132v26q0 14 -30 14q-11 0 -20 -3l-37 18l16 66q-85 4 -163 28l13 104q95 -31 188 -31q70 0 96 21t26 73q0 57 -27.5 77t-114.5 42q-50 13 -79.5 25t-55 33t-36 53.5t-10.5 80.5q0 100 51.5 150t179.5 50q94 0 189 -20l-9 -107q-99 26 -180 26q-65 0 -89 -19.5
t-24 -66.5q0 -54 26.5 -72t113.5 -41q54 -15 85.5 -28.5t55.5 -36.5t33 -55.5t9 -83.5q0 -101 -50 -149.5t-166 -52.5l-7 -30q50 -1 74.5 -14.5t24.5 -45.5v-40q0 -36 -25.5 -49.5t-83.5 -13.5q-47 0 -92 9l12 58q33 -9 73 -9q33 0 33 14z" />
    <glyph glyph-name="unif6c2" unicode="&#xf6c2;" horiz-adv-x="442" 
d="M238 -132v26q0 14 -30 14q-11 0 -20 -3l-37 18l17 68q-81 7 -123 21l16 89q78 -21 154 -21q44 0 61.5 11t17.5 43q0 33 -12 43t-75 25q-54 13 -84.5 26t-47 32.5t-21 40.5t-4.5 59q0 74 42.5 107.5t140.5 33.5q85 0 153 -15l-11 -90q-79 17 -142 17q-45 0 -60.5 -10.5
t-15.5 -36.5q0 -29 11.5 -39t59.5 -22q63 -15 97 -28.5t51.5 -34.5t21.5 -41.5t4 -62.5q0 -73 -40.5 -110t-132.5 -39l-7 -30q50 -1 74.5 -14.5t24.5 -45.5v-40q0 -36 -25.5 -49.5t-83.5 -13.5q-47 0 -92 9l12 58q33 -9 73 -9q33 0 33 14z" />
    <glyph glyph-name="commaaccent" unicode="&#xf6c3;" horiz-adv-x="333" 
d="M137 -190l15 37q2 6 2 9q0 6 -11 9q-15 2 -19.5 9t-4.5 30q0 27 8 35t44 8q35 0 43 -8t8 -35v-20q0 -20 -8 -36l-31 -54q-5 -6 -9 -6q-2 0 -20 6q-18 5 -18 10t1 6z" />
    <glyph glyph-name="one.fitted" unicode="&#xf6dc;" horiz-adv-x="459" 
d="M78 0v96h114v465l-116 -59l-27 97l162 85h94v-588h111v-96h-338z" />
    <glyph glyph-name="threequartersemdash" unicode="&#xf6de;" horiz-adv-x="666" 
d="M83 229v87h499v-87h-499z" />
    <glyph glyph-name="unifb01" unicode="&#xfb01;" horiz-adv-x="625" 
d="M352 608q-43 10 -81 10q-35 0 -48.5 -15t-13.5 -50v-64h126l-9 -93h-117v-396h-113v396h-73v93h73v76q0 73 38.5 108.5t124.5 35.5q52 0 99 -9zM555 0h-113v491h113v-491zM439 624q0 42 9.5 55t50.5 13t50.5 -13t9.5 -55t-10 -55.5t-50 -13.5t-50 13.5t-10 55.5z" />
    <glyph glyph-name="unifb02" unicode="&#xfb02;" horiz-adv-x="657" 
d="M352 608q-43 10 -81 10q-35 0 -48.5 -15t-13.5 -50v-64h126l-9 -93h-117v-396h-113v396h-73v93h73v76q0 73 38.5 108.5t124.5 35.5q52 0 99 -9zM628 93l22 -86q-54 -18 -114 -18q-63 0 -80.5 28.5t-17.5 107.5v570l113 15v-589q0 -37 29 -37q20 0 48 9z" />
    </font>
</defs>
</svg>
