<?xml version="1.0" encoding="utf-8"?>
<!-- Generator: Adobe Illustrator 23.0.3, SVG Export Plug-In . SVG Version: 6.00 Build 0)  -->
<svg version="1.1" id="Layer_1" xmlns="http://www.w3.org/2000/svg" xmlns:xlink="http://www.w3.org/1999/xlink" x="0px" y="0px"
	 viewBox="0 0 595.28 841.89" style="enable-background:new 0 0 595.28 841.89;" xml:space="preserve">
<style type="text/css">
	.st0{fill:#087EC3;}
	.st1{fill:#087EC3;stroke:#087EC3;stroke-width:0.5;stroke-miterlimit:10;}
	.st2{fill:none;stroke:#087EC3;stroke-linecap:round;stroke-linejoin:round;stroke-miterlimit:10;}
	.st3{fill:#087EC3;stroke:#087EC3;stroke-width:0.2;stroke-miterlimit:10;}
	.st4{fill:#0D7EC3;}
	.st5{fill:#0C7AC0;}
	.st6{fill:#231F20;}
	.st7{fill:#0C7AC0;enable-background:new    ;}
	.st8{fill:none;}
	.st9{fill-rule:evenodd;clip-rule:evenodd;fill:#087EC3;}
	.st10{enable-background:new    ;}
	.st11{fill:#087EC3;stroke:#087EC3;stroke-width:0.2;}
	.st12{fill:#F04E23;}
	.st13{fill:#FFFFFF;}
	.st14{font-family:'SegoeUI-Semibold';}
	.st15{font-size:14px;}
	.st16{fill:#0C7AC0;stroke:#488FCD;stroke-width:1.5;stroke-miterlimit:10;}
	.st17{fill:#087EC3;stroke:#087EC3;stroke-width:0.5;}
	.st18{fill-rule:evenodd;clip-rule:evenodd;fill:#0C7AC0;}
</style>
<path id="Update_Ac" class="st0" d="M185.71,397.26l-0.67-0.67c2.88-2.76,2.92-7.05,2.92-7.23v-4.8c0-0.03,0-0.06-0.01-0.09
	c-0.52-3.14-3.95-5.24-6.82-5.24c-0.02,0-0.03,0-0.05,0c-2.87,0.02-6.26,2.12-6.78,5.24c0,0.03-0.01,0.06-0.01,0.09v4.8
	c0.05,2.63,1.04,5.15,2.79,7.11l-8.3,4.55c-0.17,0.09-0.27,0.27-0.27,0.46v1.64c0,0.74,0.59,1.34,1.33,1.34h12.34
	c0.29,0,0.53-0.24,0.53-0.53c0-0.29-0.24-0.53-0.53-0.53h-12.35c-0.16-0.01-0.28-0.14-0.28-0.29v-1.32l8.67-4.76
	c0.04-0.03,0.08-0.06,0.12-0.1c0.01-0.01,0.03-0.02,0.04-0.03l0,0c0.03-0.04,0.06-0.08,0.07-0.13c0.01-0.02,0.02-0.03,0.03-0.05
	c0.01-0.03,0.01-0.07,0.01-0.1c0.01-0.03,0.01-0.07,0.01-0.1c0-0.01-0.01-0.03-0.01-0.05c-0.01-0.05-0.02-0.1-0.04-0.15l0,0
	c-0.02-0.02-0.04-0.04-0.06-0.06c-0.02-0.03-0.04-0.06-0.07-0.09c-2.93-2.41-2.96-6.77-2.96-6.81v-4.76
	c0.45-2.55,3.4-4.32,5.78-4.32h0.04c2.37,0.02,5.29,1.79,5.74,4.32v4.76c0,0.05-0.04,4.4-2.96,6.81c-0.01,0.01-0.01,0.01-0.01,0.02
	c0,0-0.01,0.01-0.02,0.01c-0.02,0.02-0.03,0.04-0.04,0.07c-0.02,0.03-0.04,0.06-0.06,0.09c-0.01,0.03-0.02,0.07-0.03,0.1
	c-0.01,0.03-0.02,0.07-0.02,0.1c0,0.03,0,0.07,0.01,0.1c0,0.03,0.01,0.07,0.02,0.1c0.01,0.03,0.03,0.06,0.05,0.09
	c0.01,0.02,0.02,0.05,0.04,0.07c0.01,0.01,0.01,0.01,0.02,0.01s0.01,0.02,0.01,0.02l1.05,1.05c0.21,0.21,0.54,0.21,0.75,0
	c0,0,0,0,0,0C185.92,397.81,185.92,397.47,185.71,397.26z M191.46,397.27c0.11,0.1,0.18,0.24,0.18,0.39
	c-0.04,0.28-0.17,0.53-0.39,0.72c-0.01,0.01-0.02,0.02-0.02,0.03c-0.01,0.01-0.02,0.01-0.03,0.02l-4.62,4.53l-1.12,0.28l0.2-1.14
	l4.6-4.51c0.01-0.01,0.01-0.03,0.03-0.04c0.01-0.01,0.02-0.02,0.04-0.02c0.19-0.23,0.47-0.38,0.76-0.42
	C191.24,397.11,191.37,397.17,191.46,397.27z M192.01,399.12c0.42-0.37,0.67-0.9,0.7-1.46c0-0.43-0.18-0.84-0.49-1.13
	c-0.29-0.3-0.69-0.47-1.11-0.48l0,0c-0.58,0.03-1.12,0.3-1.51,0.73c-0.01,0.01-0.01,0.02-0.02,0.03c-0.01,0.01-0.02,0.01-0.03,0.02
	l-4.72,4.63c-0.01,0.01-0.01,0.03-0.03,0.04c-0.03,0.03-0.05,0.07-0.07,0.11c-0.01,0.03-0.02,0.05-0.03,0.08
	c-0.01,0.02-0.02,0.04-0.02,0.06l-0.37,2.1c-0.05,0.29,0.14,0.56,0.43,0.61c0.03,0.01,0.06,0.01,0.09,0.01c0.04,0,0.09,0,0.13-0.01
	l2.03-0.5c0.01,0,0.01-0.01,0.03-0.01c0.04-0.01,0.08-0.03,0.11-0.05c0.02-0.01,0.05-0.03,0.07-0.04c0.01-0.01,0.03-0.01,0.03-0.02
	l4.72-4.63c0.01-0.01,0.01-0.03,0.03-0.04S192,399.13,192.01,399.12L192.01,399.12z"/>
<g id="Add_Nominee" transform="translate(184.628)">
	<g id="_02_Update_Nominee" transform="translate(0 0)">
		<path id="Path_26" class="st0" d="M68.42,397.05l-0.65-0.64c1.77-1.91,2.78-4.4,2.83-7v-4.64c0-0.03,0-0.06-0.01-0.08
			c-0.51-3.03-3.82-5.07-6.6-5.07c-0.02,0-0.03,0-0.05,0c-2.77,0.02-6.05,2.05-6.56,5.07c0,0.03-0.01,0.06-0.01,0.08v4.64
			c0.05,2.54,1.01,4.98,2.7,6.88l-8.03,4.4c-0.16,0.09-0.26,0.26-0.26,0.44v1.59c0,0.71,0.58,1.29,1.29,1.3h11.92
			c0.28,0,0.51-0.23,0.51-0.51c0-0.28-0.23-0.51-0.51-0.51H53.08c-0.15,0-0.27-0.13-0.27-0.28v-1.27l8.39-4.6
			c0.04-0.03,0.08-0.06,0.11-0.1c0.01-0.01,0.02-0.01,0.04-0.02l0,0c0.03-0.04,0.05-0.08,0.07-0.13c0.01-0.02,0.02-0.03,0.02-0.05
			c0.01-0.03,0.01-0.06,0.01-0.1c0.01-0.03,0.01-0.07,0.01-0.1c0-0.02-0.01-0.03-0.01-0.05c-0.01-0.05-0.02-0.1-0.04-0.14l0,0
			c-0.02-0.02-0.03-0.04-0.06-0.06c-0.02-0.03-0.04-0.06-0.07-0.08c-2.83-2.33-2.87-6.55-2.87-6.59v-4.6
			c0.44-2.47,3.3-4.19,5.6-4.19h0.04c2.29,0.02,5.11,1.73,5.55,4.18v4.6c0,0.04-0.04,4.26-2.87,6.59c-0.01,0.01-0.01,0.01-0.01,0.02
			c0,0-0.01,0.01-0.02,0.01c-0.02,0.02-0.03,0.04-0.04,0.07c-0.02,0.03-0.04,0.05-0.06,0.08c-0.01,0.03-0.02,0.06-0.03,0.1
			c-0.01,0.03-0.02,0.06-0.02,0.1c0,0.03,0,0.06,0.01,0.1c0,0.03,0.01,0.06,0.02,0.1c0.01,0.03,0.03,0.06,0.05,0.09
			c0.01,0.02,0.02,0.05,0.04,0.07c0.01,0.01,0.01,0.01,0.02,0.01s0.01,0.02,0.01,0.02l1.02,1.02c0.2,0.2,0.52,0.2,0.72,0
			C68.62,397.57,68.61,397.25,68.42,397.05z"/>
		<path id="Path_27" class="st1" d="M81.34,402.44l-4.18-2.27c0.89-0.96,1.38-2.23,1.35-3.54v-2.37c0-0.01,0-0.03,0-0.04
			c-0.4-1.53-1.79-2.59-3.37-2.59h-0.03c-1.57,0.01-2.94,1.07-3.34,2.59c0,0.01,0,0.03,0,0.04v2.37c0.02,1.3,0.51,2.54,1.37,3.51
			l-4.09,2.25c-0.08,0.04-0.14,0.13-0.13,0.23v0.81c0,0.36,0.29,0.66,0.66,0.66h6.09v-0.52h-6.09c-0.08,0-0.14-0.07-0.14-0.15
			c0,0,0,0,0,0v-0.66l4.28-2.35c0.02-0.01,0.04-0.03,0.06-0.05c0,0,0.01-0.01,0.02-0.02l0,0c0.01-0.02,0.03-0.04,0.04-0.07
			c0.01-0.01,0.01-0.02,0.01-0.02c0-0.02,0-0.03,0-0.05c0-0.02,0-0.03,0-0.05c0-0.01-0.01-0.02-0.01-0.02
			c0-0.03-0.01-0.05-0.02-0.08l0,0c-0.01-0.01-0.02-0.02-0.03-0.03c-0.01-0.02-0.02-0.03-0.04-0.04c-0.91-0.88-1.43-2.09-1.46-3.36
			v-2.35c0.37-1.27,1.53-2.14,2.85-2.14h0.02c1.31,0.01,2.46,0.88,2.83,2.13v2.35c-0.03,1.27-0.55,2.48-1.46,3.36
			c0,0,0,0.01-0.01,0.01s-0.01,0-0.01,0.01c-0.01,0.01-0.02,0.02-0.02,0.03c-0.01,0.01-0.02,0.03-0.03,0.04
			c-0.01,0.02-0.01,0.03-0.01,0.05c0,0.01-0.01,0.03-0.01,0.05c0,0.02,0,0.03,0,0.05c0,0.02,0.01,0.03,0.01,0.05
			c0.01,0.02,0.01,0.03,0.03,0.04c0.01,0.01,0.01,0.03,0.02,0.04c0.01,0.01,0.01,0,0.01,0.01s0,0.01,0.01,0.01l4.41,2.4v0.53
			c0.01,0.07,0,0.14-0.03,0.2c-0.03,0.04-0.08,0.06-0.13,0.07h-5.1v0.52l5.29-0.02c0.33-0.08,0.55-0.4,0.5-0.74
			c0,0-0.01-0.17-0.01-0.37S81.44,402.51,81.34,402.44z"/>
	</g>
</g>
<g id="Cancel_Document" transform="translate(0.827 90.707)">
	<path id="Path_28" class="st2" d="M113.8,384.93v1.31H95.98V362.9h17.81v11.68"/>
	<line id="Line_11" class="st2" x1="99.78" y1="366.73" x2="110.94" y2="366.73"/>
	<line id="Line_12" class="st2" x1="99.78" y1="369.87" x2="110.94" y2="369.87"/>
	<line id="Line_13" class="st2" x1="99.78" y1="373" x2="110.94" y2="373"/>
	<ellipse id="Ellipse_3" class="st2" cx="114.11" cy="379.76" rx="5.22" ry="5.19"/>
	<g id="Group_11" transform="translate(16.574 15.311)">
		<line id="Line_14" class="st2" x1="95.98" y1="362.9" x2="99.08" y2="365.99"/>
		<line id="Line_15" class="st2" x1="99.08" y1="362.9" x2="95.98" y2="365.99"/>
	</g>
</g>
<g id="Claim_Icon" transform="translate(187.935 89.657)">
	<g id="Group_17" transform="translate(0 0)">
		<g id="POlicy_Doc_Icon" transform="translate(1.972)">
			<g id="Group_2">
				<path id="Path_14" class="st3" d="M132.97,306.99c0.1,0.06,0.22,0.07,0.33,0.02l1.86-0.86l1.86,0.86c0.17,0.08,0.37,0,0.45-0.17
					c0.02-0.04,0.03-0.09,0.03-0.14v-1.8h7.08c0.19,0,0.34-0.15,0.34-0.34l0,0v-16.68c0-0.19-0.15-0.34-0.34-0.34h-18.67
					c-0.19,0-0.34,0.15-0.34,0.34l0,0v16.68c0,0.19,0.15,0.34,0.34,0.34h6.91v1.79C132.82,306.82,132.87,306.93,132.97,306.99z
					 M135.24,302.13c-1.79,0-3.24-1.45-3.24-3.24s1.45-3.24,3.24-3.24s3.24,1.45,3.24,3.24l0,0l0,0
					C138.48,300.68,137.03,302.12,135.24,302.13z M133.5,302.4c0.41,0.21,0.86,0.34,1.32,0.39v2.78l-1.32,0.61V302.4z M135.5,305.57
					v-2.77c0.46-0.03,0.9-0.14,1.32-0.32v3.7L135.5,305.57z M126.25,304.23v-16h17.99v16h-6.73v-2.15c1.77-1.25,2.19-3.69,0.95-5.46
					s-3.69-2.19-5.46-0.95s-2.19,3.69-0.95,5.46c0.22,0.31,0.48,0.59,0.78,0.82v2.27H126.25z"/>
				<path id="Path_15" class="st3" d="M128.87,291.89h9.1c0.19,0.01,0.35-0.13,0.36-0.32s-0.13-0.35-0.32-0.36
					c-0.01,0-0.02,0-0.04,0h-9.1c-0.19,0.01-0.33,0.17-0.32,0.36C128.56,291.74,128.69,291.88,128.87,291.89z"/>
			</g>
		</g>
		<path id="Path_36" class="st0" d="M147.31,311.35c0.21,0.53-0.03,1.13-0.55,1.36l-0.05,0.02l-5.7,3.15c-1.5-0.03-3-0.24-4.45-0.61
			c-0.57-0.18-1.25-0.44-1.92-0.68c-1.12-0.49-2.3-0.85-3.51-1.06c-1.26,0.18-2.5,0.45-3.72,0.82l-0.82-3.88
			c2.85-0.86,5.82-1.26,8.8-1.18l5.58,1.77c0.51,0.25,0.73,0.85,0.51,1.37c-0.1,0.25-0.3,0.46-0.55,0.56
			c-0.23,0.09-0.49,0.09-0.72-0.01c-0.01-0.01-0.03-0.01-0.05-0.02l-5.43-1.76c-0.25-0.08-0.52,0.06-0.6,0.3
			c-0.08,0.25,0.06,0.52,0.3,0.6l5.41,1.74c0.46,0.2,0.97,0.2,1.44,0.02c0.49-0.2,0.88-0.58,1.08-1.08c0.02-0.05,0.03-0.1,0.05-0.16
			l3.65-1.86c0.23-0.09,0.48-0.09,0.71,0C147.02,310.89,147.22,311.1,147.31,311.35z M147.16,313.58c0.97-0.44,1.43-1.57,1.04-2.56
			c-0.19-0.5-0.57-0.89-1.06-1.1c-0.47-0.2-0.99-0.2-1.46,0c-0.01,0-0.01,0.01-0.01,0.01c-0.01,0-0.01,0-0.02,0l-3.19,1.63
			c-0.13-0.6-0.54-1.1-1.1-1.36l-0.03-0.01c-0.01,0-0.01-0.01-0.02-0.01l-5.67-1.8c-0.03-0.01-0.06-0.02-0.09-0.02
			c-0.13-0.02-3.37-0.38-9.64,1.32c-0.24,0.06-0.39,0.3-0.34,0.55l1.01,4.81c0.03,0.13,0.11,0.24,0.22,0.31
			c0.11,0.07,0.25,0.09,0.38,0.05c1.29-0.4,2.61-0.7,3.95-0.92c1.09,0.24,2.15,0.57,3.18,1c0.67,0.25,1.37,0.5,1.95,0.69
			c1.59,0.41,3.22,0.63,4.86,0.66h0c0.08,0,0.16-0.02,0.23-0.06L147.16,313.58z"/>
	</g>
</g>
<g id="Video" transform="translate(0 0.073)">
	<path id="Play_Video" class="st0" d="M112.02,537.8l-5.71,3.29c-0.12,0.15-0.34,0.16-0.49,0.04c-0.11-0.09-0.15-0.25-0.1-0.39
		v-6.58c-0.07-0.18,0.02-0.38,0.2-0.45c0.14-0.05,0.29-0.01,0.39,0.1l5.71,3.29c0.19,0.09,0.27,0.31,0.19,0.51
		C112.16,537.7,112.1,537.76,112.02,537.8z M117.49,537.46c0,4.97-4.03,9-9,9c-4.97,0-9-4.03-9-9c0-4.97,4.03-9,9-9
		C113.46,528.46,117.49,532.49,117.49,537.46z M116.1,537.46c0-4.21-3.41-7.61-7.61-7.61c-4.21,0-7.62,3.41-7.62,7.61
		c0,4.21,3.41,7.61,7.62,7.61C112.69,545.07,116.1,541.66,116.1,537.46L116.1,537.46z"/>
</g>
<g id="Download_1_" transform="translate(74 -660.156)">
	<g id="Download" transform="translate(114 660.156)">
		<path id="Path_34" class="st0" d="M-3.61,537.55c-0.16,0-0.31,0.06-0.42,0.18l-2.75,2.71v-7.43c0-0.33-0.27-0.6-0.6-0.6
			c-0.33,0.01-0.59,0.27-0.6,0.6v7.43l-2.73-2.71c-0.25-0.23-0.64-0.21-0.86,0.04c-0.21,0.23-0.21,0.59,0,0.82l3.77,3.76
			c0.25,0.22,0.62,0.22,0.86,0l3.78-3.78c0.24-0.23,0.24-0.62,0.01-0.86c0,0,0,0-0.01-0.01C-3.3,537.61-3.45,537.55-3.61,537.55z"/>
		<path id="Path_35" class="st0" d="M-7.39,528.49c-4.96,0.02-8.99,4.02-9.03,8.98c-0.03,4.99,3.99,9.06,8.98,9.1h0.06
			c4.99,0,9.04-4.05,9.04-9.04C1.65,532.54-2.4,528.49-7.39,528.49L-7.39,528.49z M-7.39,545.34h-0.06
			c-2.08-0.02-4.06-0.85-5.52-2.33c-1.45-1.47-2.25-3.46-2.23-5.52c0.02-4.32,3.53-7.81,7.85-7.79c4.32,0.02,7.81,3.53,7.79,7.85
			C0.43,541.86-3.08,545.35-7.39,545.34L-7.39,545.34z"/>
	</g>
</g>
<g id="Support_1_" transform="translate(-0.835 -620.156)">
	<g id="Support" transform="translate(304.835 689)">
		<g id="Group_19" transform="translate(0 8.613)">
			<g id="Group_18" transform="translate(0)">
				<path id="Path_38" class="st0" d="M-133.13,245.08h-1.34c-0.45,0-0.92,0.03-1.37-0.01c0.12,0.02,0.24,0.03,0.36,0.05
					c-0.07-0.01-0.15-0.03-0.22-0.06c0.11,0.04,0.21,0.09,0.32,0.13c-0.07-0.03-0.13-0.07-0.19-0.11l0.27,0.21
					c-0.06-0.05-0.11-0.1-0.15-0.15l0.21,0.27c-0.04-0.06-0.08-0.12-0.11-0.19c0.04,0.11,0.09,0.21,0.13,0.32
					c-0.03-0.07-0.05-0.14-0.06-0.22c0.02,0.12,0.03,0.24,0.05,0.36c-0.02-0.25-0.01-0.51-0.01-0.77v-5.48
					c0-0.31-0.02-0.63,0.01-0.94c-0.02,0.12-0.03,0.24-0.05,0.36c0.01-0.07,0.03-0.15,0.06-0.22c-0.04,0.11-0.09,0.21-0.13,0.32
					c0.03-0.07,0.07-0.13,0.11-0.19l-0.21,0.27c0.05-0.06,0.1-0.11,0.15-0.15l-0.27,0.21c0.06-0.04,0.12-0.08,0.19-0.11
					c-0.11,0.04-0.21,0.09-0.32,0.13c0.07-0.03,0.14-0.05,0.22-0.06c-0.12,0.02-0.24,0.03-0.36,0.05c0.46-0.04,0.94-0.01,1.4-0.01
					c0.46,0,0.94-0.03,1.4,0.01c-0.12-0.02-0.24-0.03-0.36-0.05c0.07,0.01,0.15,0.03,0.22,0.06c-0.11-0.04-0.21-0.09-0.32-0.13
					c0.07,0.03,0.13,0.07,0.19,0.11l-0.27-0.21c0.06,0.05,0.11,0.1,0.15,0.15l-0.21-0.27c0.04,0.06,0.08,0.12,0.11,0.19
					c-0.04-0.11-0.09-0.21-0.13-0.32c0.03,0.07,0.05,0.14,0.06,0.22c-0.02-0.12-0.03-0.24-0.05-0.36c0.02,0.25,0.01,0.51,0.01,0.77
					v5.48c0,0.31,0.02,0.63-0.01,0.94c0.02-0.12,0.03-0.24,0.05-0.36c-0.01,0.07-0.03,0.15-0.06,0.22c0.04-0.11,0.09-0.21,0.13-0.32
					c-0.03,0.07-0.07,0.13-0.11,0.19l0.21-0.27c-0.05,0.06-0.1,0.11-0.15,0.15l0.27-0.21c-0.06,0.04-0.12,0.08-0.19,0.11
					c0.11-0.04,0.21-0.09,0.32-0.13c-0.07,0.03-0.14,0.05-0.22,0.06c0.12-0.02,0.24-0.03,0.36-0.05
					C-133.07,245.07-133.1,245.07-133.13,245.08c-0.35,0.01-0.69,0.15-0.95,0.39c-0.52,0.52-0.52,1.38,0,1.9
					c0.25,0.25,0.59,0.39,0.95,0.39c1.2-0.02,2.17-1,2.17-2.21v-6.39c0-0.19,0-0.38,0-0.56c-0.01-1.21-0.99-2.18-2.2-2.17
					c-0.84-0.01-1.67,0-2.5,0c-1.2-0.04-2.2,0.91-2.24,2.11c0,0.02,0,0.04,0,0.06c0,0.16,0,0.33,0,0.5v6.44
					c-0.02,1.03,0.67,1.93,1.67,2.17c0.44,0.06,0.88,0.08,1.33,0.06h1.79c0.74,0,1.34-0.6,1.34-1.34S-132.38,245.08-133.13,245.08
					L-133.13,245.08z"/>
			</g>
		</g>
		<g id="Group_21" transform="translate(22.135 8.613)">
			<g id="Group_20">
				<path id="Path_39" class="st0" d="M-133.17,245.08h-1.33c-0.45,0-0.91,0.03-1.35-0.01c0.12,0.02,0.24,0.03,0.36,0.05
					c-0.07-0.01-0.15-0.03-0.22-0.06c0.11,0.04,0.22,0.09,0.32,0.13c-0.07-0.03-0.13-0.07-0.19-0.11l0.27,0.21
					c-0.06-0.05-0.11-0.1-0.15-0.15l0.21,0.27c-0.04-0.06-0.08-0.12-0.11-0.19c0.04,0.11,0.09,0.21,0.13,0.32
					c-0.03-0.07-0.05-0.14-0.06-0.22c0.02,0.12,0.03,0.24,0.05,0.36c-0.02-0.25-0.01-0.51-0.01-0.77v-5.48
					c0-0.31-0.02-0.63,0.01-0.94c-0.02,0.12-0.03,0.24-0.05,0.36c0.01-0.07,0.03-0.15,0.06-0.22c-0.04,0.11-0.09,0.21-0.13,0.32
					c0.03-0.07,0.07-0.13,0.11-0.19l-0.21,0.27c0.05-0.06,0.1-0.11,0.15-0.15l-0.27,0.21c0.06-0.04,0.12-0.08,0.19-0.11
					c-0.11,0.04-0.22,0.09-0.32,0.13c0.07-0.03,0.14-0.05,0.22-0.06c-0.12,0.02-0.24,0.03-0.36,0.05c0.46-0.04,0.93-0.01,1.39-0.01
					s0.93-0.03,1.39,0.01c-0.12-0.02-0.24-0.03-0.36-0.05c0.07,0.01,0.15,0.03,0.22,0.06c-0.11-0.04-0.22-0.09-0.32-0.13
					c0.07,0.03,0.13,0.07,0.19,0.11l-0.27-0.21c0.06,0.05,0.11,0.1,0.15,0.15l-0.21-0.27c0.04,0.06,0.08,0.12,0.11,0.19
					c-0.04-0.11-0.09-0.21-0.13-0.32c0.03,0.07,0.05,0.14,0.06,0.22c-0.02-0.12-0.03-0.24-0.05-0.36c0.02,0.25,0.01,0.51,0.01,0.77
					v5.48c0,0.31,0.02,0.63-0.01,0.94c0.02-0.12,0.03-0.24,0.05-0.36c-0.01,0.07-0.03,0.15-0.06,0.22c0.04-0.11,0.09-0.21,0.13-0.32
					c-0.03,0.07-0.07,0.13-0.11,0.19l0.21-0.27c-0.05,0.06-0.1,0.11-0.15,0.15l0.27-0.21c-0.06,0.04-0.12,0.08-0.19,0.11
					c0.11-0.04,0.22-0.09,0.32-0.13c-0.07,0.03-0.14,0.05-0.22,0.06c0.12-0.02,0.24-0.03,0.36-0.05
					C-133.11,245.07-133.14,245.08-133.17,245.08c-0.35,0.01-0.69,0.15-0.95,0.39c-0.52,0.52-0.52,1.38,0,1.9
					c0.25,0.25,0.59,0.39,0.95,0.39c1.2-0.02,2.17-1,2.16-2.21v-6.39c0-0.19,0-0.38,0-0.56c-0.01-1.2-0.99-2.17-2.19-2.17
					c-0.83-0.01-1.65,0-2.48,0c-1.2-0.04-2.2,0.91-2.24,2.11c0,0.02,0,0.04,0,0.06c0,0.16,0,0.33,0,0.5v6.43
					c-0.02,1.01,0.65,1.91,1.63,2.17c0.44,0.07,0.89,0.1,1.34,0.07h1.78c0.74-0.01,1.33-0.6,1.34-1.34
					C-131.84,245.68-132.43,245.09-133.17,245.08z"/>
			</g>
		</g>
		<g id="Group_23" transform="translate(10.705 20.817)">
			<g id="Group_22" transform="translate(0)">
				<path id="Path_40" class="st0" d="M-133.35,239.9h-0.83c-0.3,0.01-0.6,0.01-0.89-0.02c0.12,0.02,0.24,0.03,0.36,0.05
					c-0.15-0.02-0.29-0.06-0.43-0.12c0.11,0.04,0.21,0.09,0.32,0.13c-0.14-0.06-0.26-0.13-0.38-0.22l0.27,0.21
					c-0.13-0.1-0.24-0.21-0.34-0.34l0.21,0.27c-0.09-0.12-0.16-0.25-0.22-0.38c0.04,0.11,0.09,0.22,0.13,0.32
					c-0.06-0.14-0.09-0.28-0.12-0.43c0.02,0.12,0.03,0.24,0.05,0.36c-0.02-0.15-0.02-0.31,0-0.46c-0.02,0.12-0.03,0.24-0.05,0.36
					c0.02-0.15,0.06-0.29,0.12-0.43c-0.04,0.11-0.09,0.22-0.13,0.32c0.06-0.14,0.13-0.26,0.22-0.38l-0.21,0.27
					c0.1-0.13,0.21-0.24,0.34-0.34l-0.27,0.21c0.12-0.09,0.25-0.16,0.38-0.22c-0.11,0.04-0.21,0.09-0.32,0.13
					c0.14-0.06,0.28-0.09,0.43-0.12c-0.12,0.02-0.24,0.03-0.36,0.05c0.65-0.02,1.3-0.02,1.95,0c-0.12-0.02-0.24-0.03-0.36-0.05
					c0.15,0.02,0.29,0.06,0.43,0.12c-0.11-0.04-0.21-0.09-0.32-0.13c0.14,0.06,0.26,0.13,0.38,0.22l-0.27-0.21
					c0.13,0.1,0.24,0.21,0.34,0.34l-0.21-0.27c0.09,0.12,0.16,0.25,0.22,0.38c-0.04-0.11-0.09-0.22-0.13-0.32
					c0.06,0.14,0.09,0.28,0.12,0.43c-0.02-0.12-0.03-0.24-0.05-0.36c0.02,0.15,0.02,0.31,0,0.46c0.02-0.12,0.03-0.24,0.05-0.36
					c-0.02,0.15-0.06,0.29-0.12,0.43c0.04-0.11,0.09-0.22,0.13-0.32c-0.06,0.14-0.13,0.26-0.22,0.38l0.21-0.27
					c-0.1,0.13-0.21,0.24-0.34,0.34l0.27-0.21c-0.12,0.09-0.25,0.16-0.38,0.22c0.11-0.04,0.21-0.09,0.32-0.13
					c-0.14,0.06-0.28,0.09-0.43,0.12c0.12-0.02,0.24-0.03,0.36-0.05C-133.2,239.9-133.28,239.9-133.35,239.9
					c-0.36,0.01-0.7,0.15-0.95,0.39c-0.52,0.52-0.52,1.38,0,1.9c0.25,0.25,0.59,0.39,0.95,0.39c0.51-0.01,1.01-0.13,1.46-0.37
					c0.43-0.24,0.81-0.58,1.08-0.99c0.51-0.74,0.67-1.67,0.43-2.54c-0.26-0.91-0.92-1.66-1.79-2.02c-0.51-0.19-1.05-0.28-1.59-0.25
					c-0.35,0-0.7,0-1.06,0c-0.84,0-1.65,0.34-2.23,0.94c-0.34,0.36-0.59,0.78-0.74,1.25c-0.14,0.48-0.17,0.99-0.07,1.49
					c0.17,0.88,0.71,1.64,1.48,2.08c0.95,0.4,2,0.55,3.03,0.42c0.74,0,1.34-0.61,1.34-1.35
					C-132.02,240.51-132.62,239.91-133.35,239.9L-133.35,239.9z"/>
			</g>
		</g>
		<g id="Group_25" transform="translate(4.25 0)">
			<g id="Group_24" transform="translate(0 0)">
				<path id="Path_41" class="st0" d="M-125.16,261.66h4.06c0.42,0.01,0.84-0.04,1.24-0.16c0.88-0.27,1.61-0.88,2.05-1.68
					c0.28-0.53,0.43-1.12,0.43-1.72v-9.73c0.06-1.3-0.02-2.6-0.24-3.89c-1.22-5.54-6.7-9.04-12.24-7.82
					c-4.43,0.98-7.7,4.75-8.04,9.27c-0.05,0.56-0.03,1.12-0.03,1.68v5.14c0,0.74,0.6,1.34,1.34,1.34s1.34-0.6,1.34-1.34v-5.7
					c-0.01-0.51,0.02-1.02,0.08-1.53c-0.02,0.12-0.03,0.24-0.05,0.36c0.1-0.78,0.31-1.54,0.61-2.27c-0.04,0.11-0.09,0.21-0.13,0.32
					c0.3-0.71,0.69-1.38,1.16-1.99l-0.21,0.27c0.48-0.62,1.03-1.17,1.65-1.65l-0.27,0.21c0.61-0.47,1.28-0.86,1.99-1.16
					c-0.11,0.04-0.21,0.09-0.32,0.13c0.73-0.3,1.49-0.51,2.27-0.61c-0.12,0.02-0.24,0.03-0.36,0.05c0.77-0.1,1.56-0.1,2.33,0
					c-0.12-0.02-0.24-0.03-0.36-0.05c0.78,0.1,1.54,0.31,2.27,0.61c-0.11-0.04-0.21-0.09-0.32-0.13c0.71,0.3,1.38,0.69,1.99,1.16
					l-0.27-0.21c0.62,0.48,1.17,1.03,1.65,1.65l-0.21-0.27c0.47,0.61,0.86,1.28,1.16,1.99c-0.04-0.11-0.09-0.21-0.13-0.32
					c0.3,0.73,0.51,1.49,0.61,2.27c-0.02-0.12-0.03-0.24-0.05-0.36c0.07,0.64,0.09,1.29,0.08,1.94v9.25c0,0.47,0,0.95,0,1.42
					c0,0.1-0.01,0.19-0.02,0.29c0.02-0.12,0.03-0.24,0.05-0.36c-0.03,0.19-0.08,0.39-0.15,0.57c0.04-0.11,0.09-0.21,0.13-0.32
					c-0.08,0.18-0.17,0.35-0.29,0.5l0.21-0.27c-0.11,0.14-0.24,0.26-0.37,0.37l0.27-0.21c-0.15,0.12-0.32,0.22-0.5,0.29
					c0.11-0.04,0.21-0.09,0.32-0.13c-0.18,0.07-0.37,0.13-0.57,0.15c0.12-0.02,0.24-0.03,0.36-0.05c-0.54,0.04-1.07,0.04-1.61,0.02
					h-2.94c-0.74,0-1.35,0.6-1.35,1.34S-125.91,261.67-125.16,261.66L-125.16,261.66z"/>
			</g>
		</g>
	</g>
</g>
<g id="Read_more_Arrow" transform="translate(990.463 -19.994) rotate(90)">
	<path id="Path_37" class="st0" d="M557.49,663.02c-0.18,0.01-0.36,0.08-0.49,0.21l-3.75,3.6c-0.3,0.29-0.31,0.76-0.02,1.06
		s0.76,0.31,1.06,0.02l0,0l3.23-3.1l3.23,3.1c0.3,0.29,0.77,0.28,1.06-0.02s0.28-0.77-0.02-1.06l0,0l-3.75-3.6
		C557.9,663.09,557.7,663.02,557.49,663.02L557.49,663.02z"/>
</g>
<g id="Hamburger_Menu" transform="translate(-111 -21.993)">
	<g id="Group_1" transform="translate(93 0.593)">
		<path id="Path_6" class="st4" d="M115.67,332.33h21.63c0.9,0,1.63-0.73,1.63-1.63c0-0.9-0.73-1.63-1.63-1.63h-21.63
			c-0.9,0-1.63,0.73-1.63,1.63C114.04,331.59,114.77,332.33,115.67,332.33C115.67,332.33,115.67,332.33,115.67,332.33z"/>
		<path id="Path_7" class="st4" d="M115.67,341.82h15.41c0.9,0,1.63-0.73,1.63-1.63s-0.73-1.63-1.63-1.63h-15.41
			c-0.9,0-1.63,0.73-1.63,1.63S114.77,341.82,115.67,341.82z"/>
		<path id="Path_8" class="st4" d="M137.3,348.04h-21.63c-0.9,0-1.63,0.73-1.64,1.63s0.73,1.63,1.63,1.64c0,0,0,0,0,0h21.63
			c0.9,0,1.63-0.73,1.64-1.63S138.21,348.04,137.3,348.04C137.3,348.04,137.3,348.04,137.3,348.04z"/>
	</g>
</g>
<g id="Share" transform="translate(157.334 241.572)">
	<path id="Path_32" class="st4" d="M93.92,61.71c-8.56,0-15.5,6.94-15.5,15.5s6.94,15.5,15.5,15.5s15.5-6.94,15.5-15.5
		C109.41,68.66,102.47,61.72,93.92,61.71z M93.92,91.18c-7.72,0-13.97-6.26-13.97-13.97s6.26-13.97,13.97-13.97
		c7.72,0,13.97,6.25,13.97,13.97C107.88,84.93,101.63,91.18,93.92,91.18z"/>
	<path id="Path_33" class="st4" d="M98.15,75.2c1.44,0.01,2.62-1.15,2.63-2.59c0.01-1.44-1.15-2.62-2.59-2.63
		c-1.44-0.01-2.62,1.15-2.63,2.59c0,0.15,0.01,0.3,0.03,0.45l-4.38,2.1c-1.15-0.84-2.77-0.59-3.62,0.56
		c-0.84,1.15-0.59,2.77,0.56,3.62c0.91,0.67,2.15,0.67,3.06,0l4.38,2.11c-0.22,1.41,0.74,2.74,2.16,2.96
		c1.41,0.22,2.74-0.74,2.96-2.16c0.22-1.41-0.74-2.74-2.16-2.96c-0.13-0.02-0.27-0.03-0.4-0.03c-0.73,0-1.42,0.31-1.91,0.84
		l-4.11-1.98c0.21-0.56,0.21-1.18,0-1.75l4.11-1.98C96.73,74.9,97.42,75.2,98.15,75.2z"/>
</g>
<g id="Aegon_Life_Logo_x5F_Color" transform="translate(-74.754 -14.262)">
	<path id="Path_9" class="st0" d="M268.41,711.48c-0.05,0.12-0.1,0.24-0.17,0.35c-0.05,0.09-0.1,0.17-0.17,0.24
		c-0.05,0.06-0.12,0.1-0.19,0.14c-0.07,0.03-0.15,0.04-0.22,0.04c-0.05,0-0.11,0-0.16-0.01c-0.05-0.01-0.09-0.01-0.13-0.02v-0.31
		l0.08,0.01c0.03,0,0.06,0,0.08,0c0.11,0.01,0.21-0.04,0.28-0.13c0.04-0.05,0.07-0.1,0.1-0.15c0.03-0.07,0.06-0.14,0.09-0.21
		l0.04-0.1l-0.85-2.04h0.45l0.63,1.59l0.58-1.59h0.44L268.41,711.48z M266.38,711.33v-1.15c0-0.09-0.01-0.17-0.03-0.25
		c-0.01-0.07-0.04-0.14-0.08-0.19c-0.04-0.05-0.09-0.09-0.15-0.12c-0.07-0.03-0.15-0.05-0.23-0.04c-0.08,0-0.16,0.02-0.24,0.05
		c-0.07,0.03-0.13,0.08-0.18,0.14c-0.05,0.06-0.09,0.13-0.12,0.21c-0.03,0.09-0.05,0.18-0.04,0.27v1.1h-0.41v-1.72
		c0-0.05,0-0.1,0-0.14s-0.01-0.1-0.01-0.18h0.39c0.01,0.08,0.01,0.14,0.01,0.18s0.01,0.08,0.01,0.13s0,0.08,0,0.11h0.01
		c0.2-0.4,0.68-0.58,1.1-0.41c0.09,0.04,0.17,0.1,0.23,0.17c0.06,0.08,0.1,0.17,0.13,0.26c0.03,0.11,0.04,0.21,0.04,0.32v1.27
		L266.38,711.33L266.38,711.33z M262.25,710.76c0-0.11,0.02-0.21,0.08-0.31c0.05-0.08,0.12-0.15,0.21-0.2
		c0.09-0.06,0.2-0.09,0.31-0.11c0.12-0.02,0.25-0.04,0.37-0.04l0.51-0.01V710c0.01-0.14-0.03-0.27-0.12-0.37
		c-0.1-0.09-0.22-0.13-0.35-0.12c-0.06,0-0.12,0.01-0.18,0.02c-0.05,0.01-0.1,0.03-0.15,0.06c-0.04,0.03-0.08,0.07-0.1,0.11
		c-0.03,0.05-0.05,0.11-0.05,0.17l-0.43-0.03c0.01-0.08,0.04-0.16,0.08-0.24c0.05-0.07,0.1-0.14,0.17-0.19
		c0.09-0.06,0.18-0.1,0.28-0.13c0.13-0.03,0.26-0.05,0.4-0.04c0.13,0,0.25,0.01,0.37,0.05c0.1,0.03,0.19,0.08,0.27,0.14
		c0.07,0.06,0.13,0.14,0.17,0.23c0.04,0.1,0.06,0.21,0.06,0.31v0.81c0,0.08,0.01,0.15,0.04,0.22c0.03,0.05,0.08,0.08,0.14,0.08
		c0.01,0,0.02,0,0.03,0c0.01,0,0.03,0,0.04-0.01c0.01,0,0.03,0,0.04-0.01c0.01-0.01,0.02,0,0.03-0.01v0.25l-0.16,0.03
		c-0.06,0.01-0.11,0.01-0.17,0.01c-0.06,0-0.12-0.01-0.18-0.03c-0.05-0.02-0.09-0.04-0.12-0.08c-0.03-0.04-0.06-0.08-0.07-0.13
		c-0.02-0.06-0.03-0.12-0.03-0.18h-0.01c-0.07,0.13-0.18,0.24-0.31,0.32c-0.15,0.08-0.32,0.12-0.49,0.12c-0.1,0-0.2-0.01-0.29-0.04
		c-0.08-0.02-0.15-0.07-0.21-0.12c-0.06-0.05-0.1-0.12-0.13-0.19C262.26,710.92,262.25,710.84,262.25,710.76L262.25,710.76z
		 M262.68,710.74c-0.01,0.09,0.03,0.18,0.09,0.24c0.08,0.06,0.18,0.09,0.28,0.08c0.1,0,0.2-0.02,0.29-0.05
		c0.08-0.03,0.15-0.08,0.21-0.14c0.05-0.06,0.1-0.12,0.13-0.19c0.03-0.07,0.04-0.14,0.04-0.21v-0.15l-0.4,0.01
		c-0.08,0-0.17,0.01-0.25,0.02c-0.07,0.01-0.14,0.03-0.2,0.06c-0.06,0.03-0.1,0.07-0.14,0.12
		C262.7,710.6,262.68,710.67,262.68,710.74L262.68,710.74z M261.38,710.29c0.01-0.2-0.04-0.39-0.15-0.56
		c-0.1-0.13-0.27-0.21-0.44-0.2c-0.08,0-0.15,0.01-0.22,0.04c-0.07,0.03-0.14,0.07-0.19,0.13c-0.06,0.07-0.11,0.15-0.14,0.24
		c-0.04,0.12-0.06,0.24-0.05,0.37c0,0.12,0.01,0.24,0.05,0.36c0.03,0.09,0.07,0.17,0.13,0.23c0.05,0.06,0.12,0.1,0.19,0.13
		c0.07,0.02,0.15,0.04,0.22,0.04c0.17,0.01,0.33-0.06,0.44-0.19C261.34,710.7,261.39,710.5,261.38,710.29L261.38,710.29z
		 M261.81,710.29c0,0.15-0.02,0.29-0.06,0.43c-0.03,0.12-0.09,0.24-0.17,0.34c-0.07,0.1-0.17,0.17-0.28,0.22
		c-0.13,0.05-0.26,0.08-0.4,0.08c-0.07,0-0.15-0.01-0.22-0.02c-0.07-0.02-0.14-0.04-0.2-0.07c-0.06-0.03-0.12-0.07-0.17-0.12
		c-0.05-0.05-0.09-0.11-0.13-0.17h-0.01c0,0.05,0.01,0.1,0.01,0.13s0,0.07,0,0.11v1.02h-0.41v-2.66c0-0.05,0-0.09,0-0.13
		c0-0.04-0.01-0.1-0.01-0.17h0.4c0.01,0.06,0.01,0.1,0.01,0.14s0,0.08,0.01,0.12c0.01,0.04,0,0.08,0,0.11h0.01
		c0.14-0.28,0.44-0.44,0.75-0.42c0.13,0,0.27,0.02,0.39,0.08c0.11,0.05,0.2,0.13,0.27,0.22c0.07,0.1,0.13,0.22,0.16,0.34
		C261.79,710.01,261.81,710.15,261.81,710.29L261.81,710.29z M257.28,711.33v-1.15c0-0.08-0.01-0.17-0.02-0.25
		c-0.01-0.07-0.04-0.14-0.08-0.19c-0.04-0.05-0.08-0.1-0.14-0.13c-0.07-0.03-0.14-0.05-0.22-0.05c-0.16,0-0.3,0.07-0.4,0.19
		c-0.05,0.06-0.09,0.14-0.11,0.21c-0.03,0.09-0.04,0.18-0.04,0.27v1.09h-0.41v-1.72c0-0.05,0-0.1,0-0.14c0-0.05,0-0.11-0.01-0.19
		h0.39c0.01,0.08,0.01,0.15,0.01,0.19s0,0.08,0.01,0.13c0.01,0.05,0,0.08,0,0.11h0.01c0.06-0.14,0.17-0.27,0.29-0.35
		c0.12-0.08,0.27-0.12,0.42-0.11c0.09,0,0.18,0.01,0.26,0.03c0.07,0.02,0.14,0.06,0.2,0.1c0.05,0.04,0.1,0.1,0.14,0.15
		c0.04,0.06,0.07,0.13,0.08,0.2h0.01c0.07-0.15,0.17-0.27,0.3-0.37c0.13-0.09,0.28-0.13,0.44-0.13c0.12,0,0.23,0.02,0.34,0.06
		c0.09,0.04,0.16,0.1,0.22,0.18c0.06,0.08,0.1,0.17,0.12,0.26c0.03,0.1,0.04,0.21,0.04,0.32v1.26h-0.41v-1.15
		c0-0.08-0.01-0.17-0.02-0.25c-0.01-0.07-0.04-0.13-0.08-0.19c-0.04-0.05-0.09-0.1-0.14-0.13c-0.07-0.03-0.14-0.05-0.22-0.05
		c-0.07,0-0.14,0.02-0.21,0.05c-0.07,0.03-0.13,0.08-0.17,0.14c-0.05,0.06-0.09,0.13-0.12,0.21c-0.03,0.08-0.04,0.17-0.04,0.26v1.12
		h-0.42L257.28,711.33z M254.87,710.3c0-0.11-0.01-0.23-0.04-0.34c-0.02-0.09-0.06-0.17-0.12-0.24c-0.05-0.06-0.12-0.11-0.19-0.14
		c-0.08-0.03-0.17-0.05-0.26-0.04c-0.18-0.01-0.35,0.06-0.47,0.19c-0.12,0.17-0.18,0.37-0.16,0.57c0,0.12,0.01,0.23,0.04,0.34
		c0.02,0.09,0.07,0.17,0.12,0.24c0.05,0.06,0.12,0.11,0.19,0.14c0.08,0.03,0.16,0.05,0.25,0.05c0.09,0,0.18-0.01,0.27-0.04
		c0.08-0.03,0.14-0.08,0.2-0.14c0.06-0.07,0.1-0.15,0.12-0.24C254.86,710.54,254.87,710.42,254.87,710.3z M255.31,710.3
		c0,0.15-0.02,0.29-0.07,0.43c-0.04,0.13-0.11,0.24-0.2,0.34c-0.09,0.1-0.21,0.17-0.33,0.22c-0.15,0.06-0.3,0.08-0.46,0.08
		c-0.15,0-0.3-0.02-0.45-0.08c-0.12-0.05-0.23-0.12-0.33-0.22c-0.09-0.1-0.16-0.21-0.2-0.34c-0.05-0.14-0.07-0.29-0.07-0.43
		c0-0.14,0.02-0.29,0.06-0.42c0.04-0.13,0.11-0.24,0.19-0.34c0.09-0.1,0.2-0.17,0.33-0.22c0.15-0.06,0.31-0.08,0.47-0.08
		c0.16,0,0.33,0.02,0.48,0.08c0.12,0.05,0.24,0.12,0.33,0.22c0.09,0.1,0.15,0.21,0.19,0.34
		C255.29,710.02,255.31,710.16,255.31,710.3L255.31,710.3z M251.64,711.37c-0.2,0-0.4-0.03-0.59-0.11c-0.16-0.07-0.3-0.17-0.41-0.3
		c-0.11-0.14-0.2-0.29-0.24-0.46c-0.05-0.19-0.08-0.39-0.08-0.59c0-0.2,0.02-0.4,0.08-0.59c0.05-0.17,0.13-0.32,0.24-0.45
		c0.11-0.13,0.25-0.23,0.4-0.29c0.18-0.07,0.38-0.11,0.57-0.1c0.15,0,0.29,0.02,0.44,0.06c0.11,0.04,0.22,0.09,0.32,0.16
		c0.09,0.06,0.16,0.14,0.22,0.22c0.06,0.08,0.11,0.17,0.15,0.26l-0.39,0.15c-0.03-0.06-0.06-0.12-0.1-0.18
		c-0.04-0.06-0.09-0.11-0.15-0.16c-0.06-0.05-0.13-0.09-0.21-0.11c-0.09-0.03-0.18-0.05-0.28-0.04c-0.13,0-0.27,0.02-0.39,0.08
		c-0.11,0.05-0.2,0.13-0.27,0.22c-0.07,0.1-0.13,0.22-0.15,0.34c-0.03,0.15-0.05,0.3-0.05,0.45c0,0.15,0.02,0.3,0.06,0.45
		c0.03,0.13,0.09,0.25,0.16,0.35c0.07,0.1,0.17,0.17,0.27,0.23c0.12,0.06,0.25,0.09,0.39,0.08c0.1,0,0.19-0.02,0.29-0.05
		c0.08-0.03,0.15-0.08,0.22-0.13c0.06-0.05,0.11-0.11,0.16-0.18c0.04-0.06,0.08-0.13,0.11-0.2l0.39,0.16
		c-0.05,0.1-0.1,0.19-0.16,0.28c-0.06,0.09-0.14,0.17-0.23,0.24c-0.1,0.07-0.21,0.13-0.32,0.17
		C251.94,711.35,251.79,711.37,251.64,711.37L251.64,711.37z M248.09,710.29c0.01-0.2-0.04-0.39-0.15-0.56
		c-0.1-0.13-0.27-0.21-0.44-0.2c-0.08,0-0.15,0.01-0.22,0.04c-0.07,0.03-0.14,0.07-0.19,0.13c-0.06,0.07-0.11,0.15-0.14,0.24
		c-0.04,0.12-0.06,0.24-0.05,0.37c0,0.12,0.01,0.24,0.05,0.36c0.03,0.09,0.07,0.17,0.13,0.23c0.05,0.06,0.12,0.1,0.19,0.13
		c0.07,0.02,0.15,0.04,0.22,0.04c0.17,0.01,0.33-0.06,0.43-0.19C248.05,710.7,248.1,710.5,248.09,710.29L248.09,710.29z
		 M248.53,710.29c0,0.15-0.02,0.29-0.06,0.43c-0.03,0.12-0.09,0.24-0.17,0.34c-0.07,0.1-0.17,0.17-0.28,0.22
		c-0.13,0.05-0.26,0.08-0.4,0.08c-0.07,0-0.15-0.01-0.22-0.02c-0.07-0.02-0.14-0.04-0.2-0.07c-0.06-0.03-0.12-0.07-0.17-0.12
		c-0.05-0.05-0.09-0.11-0.13-0.17h-0.01c0,0.05,0.01,0.1,0.01,0.13s0,0.07,0,0.11v1.02h-0.41v-2.66c0-0.05,0-0.09,0-0.13
		s-0.01-0.1-0.01-0.17h0.4c0.01,0.06,0.01,0.1,0.01,0.14s0,0.08,0.01,0.12c0.01,0.04,0,0.08,0,0.11h0.01
		c0.14-0.28,0.44-0.44,0.75-0.42c0.13,0,0.27,0.02,0.39,0.08c0.11,0.05,0.2,0.13,0.27,0.22c0.07,0.1,0.13,0.22,0.16,0.34
		C248.5,710.01,248.52,710.15,248.53,710.29L248.53,710.29z M244.32,709.28v1.15c0,0.08,0.01,0.17,0.03,0.25
		c0.01,0.07,0.04,0.14,0.08,0.19c0.04,0.05,0.09,0.1,0.15,0.13c0.07,0.03,0.15,0.05,0.23,0.05c0.16,0,0.31-0.07,0.42-0.19
		c0.05-0.06,0.09-0.13,0.12-0.21c0.03-0.09,0.04-0.18,0.04-0.27v-1.1h0.42v1.72c0,0.05,0,0.1,0,0.14s0,0.11,0.01,0.19h-0.39
		c-0.01-0.08-0.01-0.14-0.01-0.19s0-0.09-0.01-0.13c-0.01-0.04,0-0.08,0-0.11h-0.01c-0.13,0.3-0.42,0.49-0.75,0.47
		c-0.12,0-0.24-0.02-0.35-0.06c-0.09-0.04-0.17-0.1-0.23-0.18c-0.06-0.08-0.1-0.17-0.13-0.26c-0.03-0.11-0.04-0.21-0.04-0.32v-1.25
		L244.32,709.28L244.32,709.28z M242.94,710.3c0-0.11-0.01-0.23-0.04-0.34c-0.02-0.09-0.06-0.17-0.12-0.24
		c-0.05-0.06-0.12-0.11-0.19-0.14c-0.08-0.03-0.17-0.05-0.26-0.04c-0.18-0.01-0.35,0.06-0.47,0.19c-0.12,0.17-0.18,0.37-0.16,0.57
		c0,0.12,0.01,0.23,0.04,0.34c0.02,0.09,0.07,0.17,0.12,0.24c0.05,0.06,0.12,0.11,0.19,0.14c0.08,0.03,0.16,0.05,0.25,0.05
		c0.09,0,0.18-0.01,0.27-0.04c0.08-0.03,0.14-0.08,0.2-0.14c0.06-0.07,0.1-0.15,0.12-0.24C242.93,710.54,242.94,710.42,242.94,710.3
		z M243.37,710.3c0,0.15-0.02,0.29-0.07,0.43c-0.04,0.13-0.11,0.24-0.2,0.34c-0.09,0.1-0.21,0.17-0.33,0.22
		c-0.15,0.06-0.3,0.08-0.46,0.08c-0.15,0-0.3-0.02-0.45-0.08c-0.12-0.05-0.23-0.12-0.33-0.22c-0.09-0.1-0.16-0.21-0.2-0.34
		c-0.05-0.14-0.07-0.29-0.07-0.43c0-0.14,0.02-0.29,0.06-0.42c0.04-0.13,0.11-0.24,0.19-0.34c0.09-0.1,0.2-0.17,0.33-0.22
		c0.15-0.06,0.31-0.08,0.47-0.08c0.16,0,0.33,0.02,0.48,0.08c0.12,0.05,0.24,0.12,0.33,0.22c0.09,0.1,0.15,0.21,0.19,0.34
		C243.35,710.02,243.37,710.16,243.37,710.3L243.37,710.3z M240.96,709.63c-0.03-0.01-0.06-0.02-0.09-0.02
		c-0.04-0.01-0.08-0.01-0.12-0.01c-0.08,0-0.15,0.02-0.22,0.05c-0.06,0.04-0.12,0.09-0.16,0.15c-0.05,0.07-0.08,0.15-0.1,0.23
		c-0.02,0.1-0.04,0.2-0.03,0.3v0.99h-0.41v-1.69c0-0.05,0-0.1,0-0.15c0-0.05,0-0.12-0.01-0.2h0.39c0.01,0.08,0.01,0.16,0.01,0.2
		s0.01,0.1,0.01,0.14c0,0.05,0,0.08,0,0.11h0.01c0.02-0.07,0.05-0.15,0.09-0.22c0.03-0.06,0.07-0.11,0.12-0.16
		c0.04-0.04,0.1-0.08,0.15-0.1c0.07-0.02,0.14-0.03,0.21-0.03c0.03,0,0.06,0,0.09,0.01s0.05,0.01,0.07,0.01L240.96,709.63
		L240.96,709.63z M239.18,710.88c-0.06,0.07-0.13,0.13-0.2,0.19c-0.08,0.06-0.17,0.11-0.26,0.15c-0.1,0.04-0.21,0.08-0.32,0.1
		c-0.12,0.03-0.24,0.04-0.37,0.04c-0.2,0-0.4-0.03-0.58-0.11c-0.16-0.07-0.3-0.17-0.41-0.3c-0.11-0.14-0.2-0.29-0.24-0.46
		c-0.06-0.19-0.09-0.39-0.08-0.59c0-0.2,0.02-0.4,0.08-0.59c0.05-0.17,0.13-0.32,0.24-0.45c0.11-0.13,0.25-0.23,0.41-0.29
		c0.32-0.12,0.66-0.13,0.99-0.05c0.11,0.03,0.22,0.08,0.31,0.14c0.09,0.06,0.17,0.13,0.23,0.22c0.06,0.08,0.12,0.17,0.16,0.26
		l-0.4,0.15c-0.03-0.06-0.06-0.12-0.1-0.18c-0.04-0.06-0.09-0.11-0.15-0.15c-0.06-0.04-0.13-0.08-0.2-0.1
		c-0.09-0.03-0.18-0.04-0.26-0.04c-0.13,0-0.26,0.02-0.38,0.08c-0.1,0.05-0.2,0.13-0.26,0.22c-0.07,0.1-0.13,0.22-0.15,0.34
		c-0.03,0.15-0.05,0.3-0.05,0.45c0,0.15,0.02,0.3,0.06,0.45c0.03,0.13,0.09,0.25,0.17,0.35c0.07,0.1,0.16,0.18,0.27,0.23
		c0.12,0.06,0.25,0.09,0.38,0.08c0.09,0,0.17-0.01,0.25-0.03c0.07-0.02,0.14-0.04,0.21-0.07c0.06-0.03,0.12-0.06,0.17-0.09
		c0.04-0.03,0.09-0.07,0.12-0.1v-0.49h-0.74v-0.34h1.15L239.18,710.88L239.18,710.88z M234.94,710.74c0,0.09-0.02,0.18-0.06,0.26
		c-0.04,0.08-0.1,0.15-0.17,0.2c-0.09,0.06-0.18,0.1-0.28,0.13c-0.12,0.03-0.25,0.05-0.38,0.04c-0.12,0-0.24-0.01-0.35-0.03
		c-0.09-0.02-0.18-0.05-0.27-0.09c-0.07-0.04-0.14-0.1-0.19-0.17c-0.05-0.08-0.09-0.17-0.11-0.26l0.36-0.06
		c0.01,0.06,0.04,0.12,0.07,0.17c0.03,0.04,0.07,0.08,0.12,0.1c0.05,0.02,0.11,0.04,0.16,0.05c0.07,0.01,0.13,0.01,0.2,0.01
		c0.07,0,0.13-0.01,0.2-0.02c0.06-0.01,0.11-0.03,0.16-0.05c0.04-0.02,0.08-0.05,0.11-0.1c0.03-0.04,0.04-0.09,0.04-0.14
		c0-0.05-0.02-0.1-0.05-0.15c-0.04-0.04-0.08-0.07-0.14-0.1c-0.07-0.03-0.14-0.05-0.21-0.06c-0.08-0.02-0.16-0.03-0.25-0.05
		c-0.09-0.02-0.17-0.04-0.25-0.06c-0.08-0.02-0.15-0.06-0.22-0.1c-0.06-0.04-0.12-0.1-0.16-0.16c-0.04-0.08-0.06-0.16-0.06-0.25
		c0-0.09,0.02-0.18,0.06-0.25c0.04-0.08,0.09-0.14,0.16-0.19c0.08-0.06,0.17-0.1,0.26-0.12c0.12-0.03,0.24-0.04,0.36-0.04
		c0.1,0,0.21,0.01,0.31,0.03c0.09,0.02,0.18,0.05,0.25,0.09c0.15,0.08,0.25,0.23,0.28,0.4l-0.36,0.05c-0.01-0.05-0.03-0.1-0.06-0.14
		c-0.03-0.04-0.06-0.07-0.1-0.09c-0.04-0.02-0.09-0.04-0.14-0.05c-0.06-0.01-0.11-0.01-0.17-0.01c-0.12-0.01-0.23,0.02-0.34,0.07
		c-0.07,0.04-0.12,0.12-0.12,0.2c0,0.05,0.01,0.09,0.04,0.13c0.03,0.04,0.07,0.07,0.12,0.08c0.06,0.02,0.12,0.04,0.18,0.06
		l0.23,0.05c0.1,0.02,0.19,0.04,0.28,0.07c0.09,0.02,0.17,0.06,0.25,0.11c0.07,0.04,0.13,0.1,0.17,0.17
		C234.92,710.55,234.94,710.65,234.94,710.74L234.94,710.74z M232.35,710.11c-0.01-0.08-0.02-0.16-0.05-0.24
		c-0.02-0.07-0.06-0.13-0.11-0.18c-0.05-0.05-0.11-0.09-0.17-0.11c-0.08-0.03-0.16-0.04-0.24-0.04c-0.07,0-0.14,0.01-0.21,0.03
		c-0.07,0.02-0.13,0.05-0.19,0.1c-0.06,0.05-0.1,0.11-0.14,0.18c-0.04,0.09-0.06,0.18-0.06,0.28L232.35,710.11L232.35,710.11z
		 M231.18,710.39c0,0.09,0.01,0.19,0.03,0.28c0.02,0.08,0.06,0.15,0.1,0.22c0.05,0.06,0.11,0.11,0.18,0.14
		c0.08,0.04,0.18,0.05,0.27,0.05c0.07,0,0.13-0.01,0.19-0.02c0.06-0.01,0.11-0.03,0.16-0.06c0.05-0.02,0.09-0.06,0.13-0.1
		c0.03-0.04,0.06-0.08,0.08-0.13l0.37,0.08c-0.03,0.07-0.06,0.13-0.1,0.19c-0.05,0.07-0.11,0.12-0.18,0.17
		c-0.08,0.06-0.18,0.1-0.27,0.13c-0.12,0.03-0.25,0.05-0.37,0.05c-0.28,0.02-0.56-0.08-0.76-0.27c-0.19-0.22-0.28-0.51-0.26-0.81
		c-0.01-0.17,0.02-0.34,0.08-0.5c0.05-0.12,0.13-0.24,0.23-0.33c0.1-0.08,0.21-0.14,0.33-0.17c0.12-0.04,0.25-0.05,0.38-0.05
		c0.15,0,0.31,0.02,0.45,0.08c0.12,0.05,0.23,0.13,0.31,0.23c0.08,0.1,0.14,0.22,0.18,0.35c0.04,0.15,0.06,0.29,0.06,0.45v0.04
		L231.18,710.39L231.18,710.39z M228.37,711.33v-1.15c0-0.08-0.01-0.17-0.02-0.25c-0.01-0.07-0.04-0.14-0.08-0.19
		c-0.04-0.05-0.08-0.1-0.14-0.13c-0.07-0.03-0.14-0.05-0.22-0.05c-0.08,0-0.15,0.02-0.22,0.05c-0.07,0.03-0.12,0.08-0.17,0.14
		c-0.05,0.06-0.09,0.13-0.11,0.21c-0.03,0.09-0.04,0.18-0.04,0.27v1.09h-0.41v-1.72c0-0.05,0-0.1,0-0.14c0-0.05,0-0.11-0.01-0.19
		h0.39c0.01,0.08,0.01,0.15,0.01,0.19c0,0.04,0,0.08,0.01,0.13c0.01,0.05,0,0.08,0,0.11h0.01c0.06-0.14,0.17-0.27,0.29-0.35
		c0.12-0.08,0.27-0.12,0.42-0.11c0.09,0,0.18,0.01,0.26,0.03c0.07,0.02,0.14,0.06,0.2,0.1c0.05,0.04,0.1,0.1,0.14,0.15
		c0.04,0.06,0.07,0.13,0.08,0.2h0.01c0.07-0.15,0.17-0.27,0.3-0.37c0.13-0.09,0.28-0.13,0.43-0.13c0.12,0,0.23,0.02,0.34,0.06
		c0.09,0.04,0.16,0.1,0.22,0.18c0.06,0.08,0.1,0.17,0.12,0.26c0.02,0.1,0.04,0.21,0.04,0.32v1.26h-0.41v-1.15
		c0-0.08-0.01-0.17-0.02-0.25c-0.01-0.07-0.04-0.13-0.08-0.19c-0.04-0.05-0.09-0.1-0.14-0.13c-0.07-0.03-0.14-0.05-0.22-0.05
		c-0.07,0-0.14,0.02-0.21,0.05c-0.07,0.03-0.13,0.08-0.17,0.14c-0.05,0.06-0.09,0.13-0.12,0.21c-0.03,0.08-0.04,0.17-0.04,0.26v1.12
		h-0.42L228.37,711.33z M225.86,711.33v-2.05h0.41v2.05L225.86,711.33z M225.86,708.78v-0.36h0.41v0.36H225.86z M225.44,708.51v0.36
		h-0.95v2.46h-0.44v-2.46h-0.92v-0.36H225.44z M219.6,710.32c0-0.15,0.02-0.29,0.06-0.43c0.03-0.12,0.09-0.24,0.17-0.34
		c0.07-0.09,0.17-0.17,0.28-0.22c0.13-0.06,0.26-0.08,0.4-0.08c0.15,0,0.3,0.03,0.43,0.1c0.12,0.07,0.22,0.17,0.29,0.3
		c0-0.06,0-0.11,0-0.14v-1.08h0.42v2.6c0,0.05,0,0.09,0,0.13s0,0.1,0.01,0.17h-0.4c-0.01-0.06-0.01-0.11-0.02-0.14
		c0-0.03-0.01-0.07-0.01-0.11c0-0.04,0-0.08,0-0.11c-0.07,0.13-0.17,0.23-0.3,0.3c-0.14,0.07-0.3,0.1-0.46,0.1
		c-0.13,0-0.26-0.02-0.38-0.08c-0.11-0.05-0.2-0.13-0.27-0.22c-0.07-0.1-0.13-0.21-0.16-0.33
		C219.62,710.6,219.6,710.46,219.6,710.32L219.6,710.32z M220.03,710.32c-0.01,0.2,0.04,0.39,0.15,0.56
		c0.11,0.13,0.27,0.2,0.44,0.19c0.08,0,0.15-0.01,0.22-0.04c0.07-0.03,0.14-0.07,0.19-0.13c0.06-0.07,0.11-0.15,0.14-0.24
		c0.04-0.12,0.06-0.24,0.05-0.36c0-0.12-0.01-0.25-0.05-0.36c-0.03-0.09-0.07-0.17-0.13-0.24c-0.05-0.06-0.12-0.1-0.19-0.13
		c-0.07-0.02-0.15-0.04-0.22-0.04c-0.17-0.01-0.33,0.06-0.43,0.19C220.07,709.9,220.01,710.11,220.03,710.32L220.03,710.32z
		 M218.64,711.33v-1.15c0-0.09-0.01-0.17-0.03-0.25c-0.01-0.07-0.04-0.14-0.08-0.19c-0.04-0.05-0.09-0.09-0.15-0.12
		c-0.07-0.03-0.15-0.05-0.22-0.04c-0.08,0-0.16,0.02-0.24,0.05c-0.07,0.03-0.13,0.08-0.18,0.14c-0.05,0.06-0.09,0.13-0.12,0.21
		c-0.03,0.09-0.05,0.18-0.04,0.27v1.1h-0.41v-1.72c0-0.05,0-0.1,0-0.14s-0.01-0.1-0.01-0.18h0.39c0.01,0.08,0.01,0.14,0.01,0.18
		s0.01,0.08,0.01,0.13s0,0.08,0,0.11h0.01c0.2-0.4,0.68-0.58,1.1-0.41c0.09,0.04,0.17,0.1,0.23,0.17c0.06,0.08,0.1,0.17,0.13,0.26
		c0.03,0.11,0.04,0.21,0.04,0.32v1.27L218.64,711.33L218.64,711.33z M214.52,710.76c0-0.11,0.02-0.21,0.08-0.31
		c0.05-0.08,0.12-0.15,0.21-0.2c0.09-0.06,0.2-0.09,0.3-0.11c0.12-0.02,0.25-0.04,0.37-0.04l0.51-0.01V710
		c0.01-0.13-0.03-0.27-0.12-0.37c-0.1-0.09-0.22-0.13-0.35-0.12c-0.06,0-0.12,0.01-0.18,0.02c-0.05,0.01-0.1,0.03-0.15,0.06
		c-0.04,0.03-0.08,0.07-0.1,0.11c-0.03,0.05-0.05,0.11-0.05,0.17l-0.43-0.03c0.01-0.08,0.04-0.16,0.08-0.24
		c0.04-0.07,0.1-0.14,0.17-0.19c0.08-0.06,0.18-0.1,0.28-0.13c0.13-0.03,0.26-0.05,0.4-0.04c0.13,0,0.25,0.01,0.37,0.05
		c0.1,0.03,0.19,0.08,0.27,0.14c0.07,0.06,0.13,0.14,0.17,0.23c0.04,0.1,0.06,0.21,0.06,0.31v0.81c0,0.08,0.01,0.15,0.04,0.22
		c0.03,0.05,0.08,0.08,0.14,0.08c0.01,0,0.02,0,0.03,0c0.01,0,0.03,0,0.04-0.01c0.01,0,0.03,0,0.04-0.01s0.02,0,0.03-0.01v0.25
		l-0.16,0.03c-0.06,0.01-0.11,0.01-0.17,0.01c-0.06,0-0.12-0.01-0.18-0.03c-0.05-0.02-0.09-0.04-0.12-0.08
		c-0.03-0.04-0.06-0.08-0.07-0.13c-0.02-0.06-0.03-0.12-0.03-0.18h-0.01c-0.07,0.13-0.18,0.24-0.31,0.32
		c-0.15,0.08-0.32,0.12-0.49,0.12c-0.1,0-0.2-0.01-0.29-0.04c-0.08-0.02-0.15-0.07-0.21-0.12c-0.06-0.05-0.1-0.12-0.13-0.19
		C214.53,710.92,214.51,710.84,214.52,710.76L214.52,710.76z M214.95,710.74c-0.01,0.09,0.03,0.18,0.09,0.24
		c0.08,0.06,0.18,0.09,0.28,0.08c0.1,0,0.2-0.02,0.29-0.05c0.08-0.03,0.15-0.08,0.21-0.14c0.05-0.06,0.1-0.12,0.13-0.19
		c0.03-0.07,0.04-0.14,0.04-0.21v-0.15l-0.4,0.01c-0.08,0-0.17,0.01-0.25,0.02c-0.07,0.01-0.14,0.03-0.2,0.06
		c-0.06,0.03-0.1,0.07-0.14,0.12C214.97,710.6,214.95,710.67,214.95,710.74L214.95,710.74z M212.47,711.33v-1.15
		c0-0.09-0.01-0.17-0.03-0.25c-0.01-0.07-0.04-0.14-0.08-0.19c-0.04-0.05-0.09-0.09-0.15-0.12c-0.07-0.03-0.15-0.05-0.23-0.04
		c-0.08,0-0.16,0.02-0.24,0.05c-0.07,0.03-0.13,0.08-0.18,0.14c-0.05,0.06-0.09,0.13-0.12,0.21c-0.03,0.09-0.05,0.18-0.04,0.27v1.1
		h-0.41v-1.72c0-0.05,0-0.1,0-0.14s-0.01-0.1-0.01-0.18h0.39c0.01,0.08,0.01,0.14,0.01,0.18s0.01,0.08,0.01,0.13s0,0.08,0,0.11h0.01
		c0.2-0.4,0.68-0.58,1.1-0.41c0.09,0.04,0.17,0.1,0.23,0.17c0.06,0.08,0.1,0.17,0.13,0.26c0.03,0.11,0.04,0.21,0.04,0.32v1.27
		L212.47,711.33L212.47,711.33z M210,710.3c0-0.11-0.01-0.23-0.04-0.34c-0.02-0.09-0.06-0.17-0.12-0.24
		c-0.05-0.06-0.12-0.11-0.19-0.14c-0.08-0.03-0.17-0.05-0.26-0.04c-0.18-0.01-0.35,0.06-0.47,0.19c-0.12,0.17-0.18,0.37-0.16,0.57
		c0,0.12,0.01,0.23,0.04,0.34c0.02,0.09,0.07,0.17,0.12,0.24c0.05,0.06,0.12,0.11,0.19,0.14c0.08,0.03,0.16,0.05,0.25,0.05
		c0.09,0,0.18-0.01,0.27-0.04c0.08-0.03,0.14-0.08,0.2-0.14c0.06-0.07,0.1-0.15,0.12-0.24C209.98,710.54,210,710.42,210,710.3z
		 M210.43,710.3c0,0.15-0.02,0.29-0.07,0.43c-0.04,0.13-0.11,0.24-0.2,0.34c-0.09,0.1-0.21,0.17-0.33,0.22
		c-0.15,0.06-0.3,0.08-0.46,0.08c-0.15,0-0.3-0.02-0.45-0.08c-0.12-0.05-0.23-0.12-0.33-0.22c-0.09-0.1-0.16-0.21-0.2-0.34
		c-0.05-0.14-0.07-0.29-0.07-0.43c0-0.14,0.02-0.29,0.06-0.42c0.04-0.13,0.11-0.24,0.19-0.34c0.09-0.1,0.2-0.17,0.33-0.22
		c0.15-0.06,0.31-0.08,0.47-0.08c0.16,0,0.33,0.02,0.48,0.08c0.12,0.05,0.24,0.12,0.33,0.22c0.09,0.1,0.15,0.21,0.19,0.34
		C210.41,710.02,210.43,710.16,210.43,710.3z M206.18,710.3c-0.01,0.19,0.04,0.38,0.15,0.54c0.1,0.13,0.27,0.21,0.44,0.19
		c0.08,0,0.15-0.01,0.22-0.04c0.07-0.02,0.14-0.07,0.19-0.13c0.06-0.07,0.11-0.15,0.14-0.23c0.04-0.12,0.06-0.24,0.05-0.36
		c0-0.12-0.01-0.24-0.05-0.35c-0.03-0.09-0.07-0.16-0.13-0.23c-0.05-0.06-0.12-0.1-0.19-0.13c-0.07-0.03-0.15-0.04-0.22-0.04
		c-0.17-0.01-0.33,0.06-0.44,0.19C206.22,709.9,206.16,710.1,206.18,710.3z M205.75,710.3c0-0.15,0.02-0.29,0.06-0.43
		c0.03-0.12,0.09-0.24,0.17-0.34c0.08-0.09,0.17-0.17,0.28-0.22c0.13-0.06,0.26-0.08,0.4-0.08c0.15,0,0.3,0.03,0.43,0.1
		c0.12,0.07,0.22,0.17,0.29,0.3c0-0.03,0-0.07,0.01-0.11c0.01-0.04,0.01-0.08,0.01-0.11s0.01-0.08,0.02-0.14h0.4
		c0,0.07-0.01,0.13-0.01,0.17s0,0.08,0,0.13v1.69c0,0.14-0.02,0.28-0.07,0.41c-0.04,0.12-0.11,0.22-0.2,0.31
		c-0.09,0.09-0.2,0.15-0.32,0.19c-0.14,0.05-0.29,0.07-0.43,0.06c-0.12,0-0.25-0.01-0.37-0.04c-0.1-0.02-0.19-0.06-0.27-0.11
		c-0.07-0.04-0.14-0.1-0.18-0.17c-0.05-0.07-0.08-0.15-0.1-0.23l0.41-0.06c0.03,0.1,0.09,0.18,0.17,0.23
		c0.11,0.06,0.23,0.09,0.35,0.08c0.08,0,0.17-0.01,0.24-0.04c0.07-0.02,0.13-0.07,0.18-0.13c0.05-0.06,0.09-0.13,0.12-0.21
		c0.03-0.1,0.05-0.2,0.04-0.3v-0.34c-0.07,0.13-0.17,0.23-0.3,0.31c-0.14,0.07-0.3,0.11-0.46,0.1c-0.13,0-0.26-0.02-0.38-0.08
		c-0.1-0.05-0.2-0.12-0.27-0.22c-0.07-0.1-0.13-0.21-0.16-0.33C205.77,710.58,205.75,710.44,205.75,710.3z M204.92,710.11
		c-0.01-0.08-0.02-0.16-0.05-0.24c-0.02-0.07-0.06-0.13-0.11-0.18c-0.05-0.05-0.11-0.09-0.17-0.11c-0.08-0.03-0.16-0.04-0.24-0.04
		c-0.07,0-0.14,0.01-0.21,0.03c-0.07,0.02-0.13,0.05-0.19,0.1c-0.06,0.05-0.11,0.11-0.14,0.18c-0.04,0.09-0.06,0.18-0.06,0.28
		L204.92,710.11L204.92,710.11z M203.75,710.39c0,0.09,0.01,0.19,0.03,0.28c0.02,0.08,0.06,0.15,0.1,0.22
		c0.05,0.06,0.11,0.11,0.18,0.14c0.08,0.04,0.18,0.05,0.27,0.05c0.07,0,0.13-0.01,0.19-0.02c0.06-0.01,0.11-0.03,0.16-0.06
		c0.05-0.02,0.09-0.06,0.13-0.1c0.04-0.04,0.06-0.08,0.08-0.13l0.37,0.08c-0.03,0.07-0.06,0.13-0.1,0.19
		c-0.05,0.07-0.11,0.12-0.18,0.17c-0.08,0.06-0.18,0.1-0.27,0.13c-0.12,0.03-0.25,0.05-0.37,0.05c-0.28,0.02-0.56-0.08-0.76-0.27
		c-0.19-0.22-0.28-0.51-0.26-0.81c-0.01-0.17,0.02-0.34,0.08-0.5c0.05-0.12,0.13-0.24,0.23-0.33c0.1-0.08,0.21-0.14,0.33-0.17
		c0.12-0.04,0.25-0.05,0.38-0.05c0.15,0,0.31,0.02,0.45,0.08c0.12,0.05,0.23,0.13,0.31,0.23c0.08,0.1,0.14,0.22,0.18,0.35
		c0.04,0.15,0.06,0.29,0.06,0.45v0.04L203.75,710.39L203.75,710.39z M201.77,708.86l-0.47,1.35h0.94L201.77,708.86z M202.02,708.52
		l1.04,2.82h-0.45l-0.28-0.79h-1.14l-0.29,0.79h-0.45l1.05-2.82H202.02z M198.6,711.34v-1.15c0-0.09-0.01-0.17-0.03-0.25
		c-0.01-0.07-0.04-0.14-0.08-0.19c-0.04-0.05-0.09-0.09-0.15-0.12c-0.07-0.03-0.15-0.05-0.22-0.04c-0.08,0-0.16,0.02-0.24,0.05
		c-0.07,0.03-0.13,0.08-0.18,0.14c-0.05,0.06-0.09,0.13-0.12,0.21c-0.03,0.09-0.04,0.18-0.04,0.27v1.1h-0.41v-1.72
		c0-0.05,0-0.1,0-0.14s-0.01-0.1-0.01-0.18h0.39c0.01,0.08,0.01,0.14,0.01,0.18s0.01,0.08,0.01,0.13s0,0.08,0,0.11h0.01
		c0.2-0.4,0.68-0.58,1.1-0.41c0.09,0.04,0.17,0.1,0.23,0.17c0.06,0.08,0.1,0.17,0.13,0.26c0.03,0.11,0.04,0.21,0.04,0.32v1.27
		L198.6,711.34L198.6,711.34z M195.44,708.86l-0.47,1.35h0.94L195.44,708.86z M195.69,708.52l1.04,2.82h-0.45l-0.28-0.79h-1.14
		l-0.29,0.79h-0.45l1.05-2.82H195.69z"/>
	<path id="Path_10" class="st0" d="M270.33,692.96c0.03-0.4-0.02-0.79-0.15-1.17c-0.12-0.32-0.31-0.61-0.56-0.84
		c-0.24-0.23-0.53-0.4-0.84-0.52c-0.32-0.11-0.66-0.17-1-0.17c-0.73-0.03-1.43,0.26-1.93,0.79c-0.49,0.57-0.74,1.3-0.71,2.05v2.09
		c0.68,0.07,1.37,0.07,2.05,0.02c0.55-0.04,1.09-0.15,1.61-0.34c0.42-0.15,0.79-0.4,1.09-0.73
		C270.16,693.81,270.32,693.39,270.33,692.96 M267.77,689.31c0.55,0,1.1,0.09,1.62,0.25c0.51,0.16,0.98,0.41,1.39,0.74
		c0.4,0.32,0.72,0.73,0.94,1.18c0.23,0.49,0.34,1.03,0.31,1.57c-0.01,0.48-0.16,0.94-0.42,1.34c-0.25,0.38-0.58,0.7-0.95,0.95
		c-0.4,0.27-0.84,0.47-1.31,0.61c-0.48,0.15-0.98,0.25-1.48,0.31c-0.49,0.06-0.98,0.08-1.47,0.05c-0.43-0.02-0.85-0.08-1.27-0.18
		v1.02c-0.02,0.49,0.13,0.98,0.4,1.39c0.24,0.32,0.56,0.58,0.93,0.74c0.37,0.16,0.76,0.27,1.17,0.31c0.41,0.04,0.78,0.06,1.11,0.06
		h2.17v0.65c-0.23,0.11-0.46,0.19-0.71,0.23c-0.39,0.07-0.78,0.1-1.17,0.09h-0.81c-0.5-0.01-0.99-0.04-1.48-0.11
		c-0.56-0.07-1.1-0.23-1.61-0.48c-0.51-0.25-0.95-0.61-1.29-1.06c-0.38-0.56-0.56-1.22-0.51-1.9v-3.23c-0.01-0.61,0.1-1.22,0.31-1.8
		c0.19-0.53,0.49-1.02,0.87-1.44c0.39-0.41,0.86-0.74,1.39-0.95C266.5,689.41,267.13,689.3,267.77,689.31L267.77,689.31z
		 M261.53,686.43c-0.32,0-0.64,0.02-0.96,0.06c-0.3,0.03-0.59,0.15-0.84,0.33c-0.26,0.2-0.47,0.48-0.58,0.79
		c-0.16,0.47-0.22,0.97-0.17,1.46v0.95h3.3v0.65c-0.23,0.11-0.46,0.19-0.71,0.23c-0.39,0.07-0.78,0.1-1.17,0.09h-1.42v9.63h-1.8
		v-9.65h-0.97v-0.95h0.97V689c-0.06-0.66,0.09-1.31,0.42-1.89c0.28-0.45,0.67-0.82,1.13-1.07c0.45-0.24,0.95-0.41,1.46-0.48
		c0.46-0.07,0.92-0.11,1.39-0.11h1.84v0.65c-0.23,0.11-0.46,0.19-0.71,0.23C262.32,686.4,261.92,686.43,261.53,686.43L261.53,686.43
		z M254.46,689.55h-1.8v11.07h1.8V689.55z M254.57,687c0.05,0.56-0.37,1.05-0.92,1.1s-1.05-0.37-1.1-0.92
		c-0.01-0.06-0.01-0.12,0-0.18c0-0.27,0.1-0.52,0.29-0.71c0.38-0.4,1.01-0.41,1.41-0.03c0.01,0.01,0.02,0.02,0.03,0.03
		C254.47,686.48,254.58,686.73,254.57,687L254.57,687z M249.04,699.65c0.39,0.02,0.78,0.05,1.17,0.11c0.25,0.03,0.49,0.11,0.72,0.21
		v0.65h-1.88c-0.29,0-0.6-0.01-0.95-0.04c-0.36-0.03-0.72-0.08-1.07-0.17c-0.37-0.09-0.73-0.21-1.07-0.36
		c-0.34-0.15-0.66-0.36-0.92-0.63c-0.27-0.28-0.49-0.6-0.64-0.96c-0.17-0.43-0.25-0.89-0.22-1.35v-11.65h1.8v11.55
		c-0.03,0.46,0.06,0.93,0.27,1.34c0.18,0.32,0.44,0.59,0.75,0.78c0.31,0.19,0.65,0.32,1,0.38
		C248.33,699.59,248.69,699.63,249.04,699.65L249.04,699.65z"/>
	<path id="Path_11" class="st5" d="M185.99,695.85l-2.19-6.73l-2.19,6.74L185.99,695.85z"/>
	<path id="Path_12" class="st0" d="M180.79,698.37l-0.74,2.34h-2.88l4.92-15.18h3.42l-1.43-4.39l-21.43,7l7,21.43l18.83-6.15
		l-1.65-5.06H180.79z"/>
	<path id="Path_13" class="st6" d="M198.82,697.91l-8.13,0.01V694l5.73-0.01l-0.01-2.52l-5.73,0.01v-3.46h7.56v-2.64h-10.42v7.17
		l2.61,8h8.38L198.82,697.91z M238.92,685.47v10.25l-6.32-10.25h-2.71v15.16h2.61v-10.4l6.42,10.4h2.62v-15.16L238.92,685.47z
		 M192.14,705.82h40.37v-1.54h-40.88L192.14,705.82z M221,701.03c4.42,0,7.08-3.69,7.08-7.97s-2.67-7.96-7.1-7.96
		s-7.07,3.69-7.06,7.97C213.92,697.35,216.58,701.04,221,701.03L221,701.03z M220.98,687.74c2.95-0.01,4.18,2.68,4.18,5.32
		c0,2.63-1.22,5.33-4.17,5.33c-2.95,0-4.18-2.68-4.18-5.32C216.81,690.43,218.05,687.75,220.98,687.74L220.98,687.74z
		 M206.03,701.05c1.45-0.01,2.82-0.62,3.8-1.69v1.3h2.36v-8.29h-6.07l0.01,2.51l3.58-0.01c-0.03,1.97-1.65,3.55-3.62,3.53
		c-0.02,0-0.04,0-0.06,0c-2.89,0-4.1-2.68-4.1-5.32s1.19-5.32,4.08-5.32c1.76-0.07,3.3,1.16,3.63,2.89l2.54-1.09
		c-1.1-2.9-3.22-4.45-6.17-4.45c-4.34,0.01-6.94,3.69-6.94,7.97S201.39,701.06,206.03,701.05L206.03,701.05z"/>
</g>
<g id="Aegon_Watermark" transform="translate(0.644 0.619)">
	<path id="Path_30" class="st7" d="M267.16,684.18l-3.21-9.22l-3.21,9.23L267.16,684.18z"/>
	<path id="Path_31" class="st7" d="M259.53,687.63l-1.09,3.21l-4.22,0l7.21-20.79l5.01,0l-2.09-6.01l-31.42,9.59l10.26,29.35
		l27.6-8.42l-2.42-6.93L259.53,687.63z"/>
</g>
<g id="Help_Icon">
	<path id="Path_46" class="st8" d="M195.39,480.06h-29.56V450.5h29.56V480.06z"/>
	<path id="Path_47" class="st9" d="M180.6,477.59c-6.8-0.01-12.31-5.52-12.31-12.33c0.01-6.8,5.52-12.31,12.33-12.31
		s12.31,5.52,12.31,12.33c0,6.79-5.5,12.3-12.29,12.31C180.63,477.59,180.61,477.59,180.6,477.59z M180.6,476.36
		c6.12,0.01,11.09-4.95,11.1-11.07s-4.95-11.09-11.08-11.1c-6.12-0.01-11.09,4.95-11.1,11.07c0,0.01,0,0.01,0,0.02
		C169.53,471.4,174.48,476.36,180.6,476.36C180.6,476.36,180.6,476.36,180.6,476.36L180.6,476.36z"/>
	<path id="Path_48" class="st9" d="M178.17,462.74c0.05-1.42,1.25-2.54,2.68-2.48c0.02,0,0.04,0,0.07,0
		c1.27-0.12,2.4,0.82,2.51,2.09c0.01,0.09,0.01,0.18,0.01,0.27c0,1.04-0.72,1.71-1.93,2.51c-1.1,0.55-1.76,1.72-1.66,2.95v0.9h1.28
		v-0.72c-0.13-1.02,0.43-2.01,1.38-2.42c1.32-0.85,2.28-1.85,2.28-3.27c0-1.96-1.51-3.44-3.84-3.44c-2.06-0.17-3.87,1.36-4.04,3.42
		c-0.01,0.07-0.01,0.13-0.01,0.2H178.17z M180.61,471.74c0.51,0,0.92-0.41,0.92-0.92c0-0.51-0.41-0.92-0.92-0.92
		s-0.92,0.41-0.92,0.92l0,0c-0.01,0.5,0.39,0.92,0.9,0.92C180.59,471.74,180.6,471.74,180.61,471.74z"/>
</g>
<g id="Group_28" transform="translate(1.179 -0.896)" class="st10">
	<path id="Path_43" class="st5" d="M333.87,318.81h-18.22l6.92-6.91c0.35-0.34,0.35-0.9,0.01-1.24s-0.9-0.35-1.24-0.01l-0.01,0.01
		l-8.41,8.41c-0.34,0.34-0.34,0.9,0,1.24l8.41,8.41c0.34,0.34,0.9,0.34,1.24,0c0.34-0.34,0.34-0.9,0-1.24l-6.92-6.92h18.22
		c0.48,0,0.88-0.39,0.88-0.88C334.75,319.2,334.36,318.81,333.87,318.81L333.87,318.81z"/>
</g>
<g id="Policy_Doc_Icon" transform="translate(-49.9 -143.9)">
	<g id="Group_2_1_" transform="translate(-623.1 -228.1)">
		<path id="Path_14_1_" class="st3" d="M1067.71,774.54c0.1,0.06,0.22,0.07,0.33,0.02l1.86-0.86l1.86,0.86
			c0.17,0.08,0.37,0,0.45-0.17c0.02-0.04,0.03-0.09,0.03-0.14v-1.79h8.08c0.19,0,0.34-0.15,0.34-0.34l0,0v-18.68
			c0-0.19-0.15-0.34-0.34-0.34h-20.67c-0.19,0-0.34,0.15-0.34,0.34l0,0v18.68c0,0.19,0.15,0.34,0.34,0.34h7.91v1.79
			C1067.56,774.37,1067.61,774.48,1067.71,774.54z M1069.98,769.67c-1.79,0-3.24-1.45-3.24-3.24c0-1.79,1.45-3.24,3.24-3.24
			c1.79,0,3.24,1.45,3.24,3.24l0,0C1073.22,768.22,1071.77,769.67,1069.98,769.67z M1068.24,769.94c0.41,0.21,0.86,0.34,1.32,0.39
			v2.78l-1.32,0.61V769.94z M1070.24,773.11v-2.77c0.46-0.03,0.9-0.14,1.32-0.32v3.7L1070.24,773.11z M1059.99,771.77v-18h19.99v18
			h-7.73v-2.15c1.77-1.25,2.2-3.69,0.95-5.47c-1.25-1.77-3.69-2.2-5.47-0.95c-1.77,1.25-2.2,3.69-0.95,5.47
			c0.22,0.31,0.48,0.59,0.78,0.82v2.27H1059.99z"/>
		<path id="Path_15_1_" class="st3" d="M1063.61,758.43h9.1c0.19,0.01,0.35-0.13,0.36-0.32c0.01-0.19-0.13-0.35-0.32-0.36l0,0
			c-0.01,0-0.02,0-0.04,0h-9.1c-0.19,0.01-0.33,0.17-0.32,0.36C1063.29,758.29,1063.43,758.42,1063.61,758.43z"/>
	</g>
</g>
<g id="info_Icon" transform="translate(-47.9 -251.9)">
	<path id="Path_68" class="st11" d="M299.15,729.47c6.79,0,12.29-5.5,12.29-12.29c0-6.79-5.5-12.29-12.29-12.29
		c-6.79,0-12.29,5.5-12.29,12.29C286.86,723.96,292.36,729.47,299.15,729.47C299.15,729.47,299.15,729.47,299.15,729.47z
		 M299.15,728.66c-6.34,0-11.48-5.14-11.48-11.49c0-6.34,5.14-11.48,11.48-11.48s11.49,5.14,11.49,11.48l0,0
		C310.62,723.51,305.49,728.65,299.15,728.66L299.15,728.66z M298.21,720.77c-0.23,0.25-0.36,0.57-0.38,0.91
		c0,0.34,0.14,0.67,0.38,0.91c0.5,0.52,1.33,0.54,1.85,0.03c0.52-0.5,0.54-1.33,0.03-1.85c-0.5-0.52-1.33-0.54-1.85-0.03
		C298.23,720.75,298.22,720.76,298.21,720.77L298.21,720.77z M298.03,711.37v8h2.24v-8H298.03z"/>
</g>
<g id="Notification_Icon" transform="translate(-51 -365)">
	<g id="Group_35" transform="translate(51 365)">
		<path id="Path_69" class="st0" d="M328.55,474.27c-0.24,2.02-2.07,3.47-4.09,3.23c-1.69-0.2-3.03-1.53-3.23-3.23h-5.01
			c-1.32,0-2.39-1.07-2.39-2.39s1.07-2.39,2.39-2.39l0,0c0.12,0,0.22-0.1,0.22-0.22v-5.2c0-3.67,2.36-6.92,5.85-8.05v-0.41
			c0-1.44,1.16-2.6,2.6-2.6s2.6,1.16,2.6,2.6v0.41c3.49,1.13,5.85,4.38,5.85,8.05v5.2c0,0.12,0.09,0.22,0.21,0.22c0,0,0,0,0,0
			c1.32,0,2.39,1.07,2.39,2.39s-1.07,2.39-2.39,2.39L328.55,474.27z M327.23,474.27h-4.69c0.24,1.3,1.48,2.15,2.78,1.91
			C326.29,476.01,327.05,475.25,327.23,474.27z M323.1,457.15c-3.16,0.82-5.37,3.67-5.37,6.93v5.2c0,0.84-0.68,1.52-1.52,1.52
			c-0.6,0-1.08,0.48-1.08,1.08c0,0.6,0.48,1.08,1.08,1.08c0,0,0,0,0,0h17.34c0.6,0,1.08-0.48,1.08-1.08c0-0.6-0.48-1.08-1.08-1.08
			c0,0,0,0,0,0c-0.84,0-1.52-0.68-1.52-1.51c0,0,0,0,0,0v-5.2c0-3.26-2.21-6.11-5.37-6.93l-0.48-0.13v-1.4c0-0.72-0.58-1.3-1.3-1.3
			c-0.72,0-1.3,0.58-1.3,1.3c0,0,0,0,0,0v1.4L323.1,457.15z"/>
	</g>
</g>
<g id="My_Account_Icon" transform="translate(-51 -196.364)">
	<path id="Path_67" class="st0" d="M170.47,597.66v1.26c0,0.15-0.12,0.27-0.27,0.28h-21.44c-0.15,0-0.27-0.13-0.27-0.28v-1.26
		l8.23-4.52c0.04-0.03,0.08-0.06,0.11-0.1c0.01-0.01,0.02-0.01,0.03-0.03l0,0c0.07-0.07,0.1-0.17,0.1-0.27
		c0.01-0.03,0.01-0.07,0.01-0.1c0-0.02-0.01-0.03-0.02-0.05c-0.01-0.05-0.02-0.09-0.04-0.14l0,0c-0.02-0.02-0.04-0.05-0.06-0.07
		c-0.02-0.03-0.04-0.05-0.06-0.08c-2.78-2.29-2.82-6.43-2.82-6.47v-4.52c0.43-2.42,3.23-4.11,5.49-4.11h0.04
		c2.25,0.02,5.02,1.7,5.45,4.1v4.52c0,0.04-0.03,4.17-2.82,6.47c-0.03,0.03-0.05,0.05-0.07,0.09c-0.02,0.02-0.04,0.04-0.05,0.06l0,0
		c-0.02,0.04-0.04,0.09-0.04,0.14c0,0.02-0.01,0.03-0.01,0.05c0,0.03,0,0.06,0.01,0.09c0,0.03,0,0.07,0.01,0.1
		c0,0.02,0.02,0.03,0.02,0.04c0.02,0.05,0.04,0.09,0.07,0.13l0,0c0.02,0.02,0.05,0.04,0.08,0.06c0.02,0.02,0.04,0.04,0.07,0.06h0.01
		l0,0L170.47,597.66z M170.2,600.19c0.7,0,1.27-0.57,1.27-1.28v-1.56c0-0.18-0.1-0.35-0.26-0.44l-7.88-4.33
		c1.66-1.86,2.6-4.26,2.65-6.75v-4.56c0-0.03,0-0.05-0.01-0.08c-0.5-2.98-3.75-4.98-6.48-4.98c-0.02,0-0.03,0-0.05,0
		c-2.72,0.02-5.94,2.02-6.43,4.98c0,0.03-0.01,0.05-0.01,0.08v4.56c0.05,2.49,0.99,4.89,2.64,6.75l-7.88,4.33
		c-0.16,0.09-0.26,0.26-0.26,0.44v1.55c0,0.7,0.56,1.27,1.27,1.28L170.2,600.19z"/>
</g>
<g id="Notification_Badge" transform="translate(-243 -256)">
	<circle id="Ellipse_7" class="st12" cx="494.25" cy="793.53" r="11.5"/>
	<text transform="matrix(1 0 0 1 490.9357 798.0286)" class="st13 st14 st15">1</text>
</g>
<g id="Cloce_Icon" transform="translate(-292.439 -23.188)" class="st10">
	<line id="Line_18" class="st16" x1="695.55" y1="335.85" x2="683.3" y2="348.1"/>
	<line id="Line_19" class="st16" x1="683.3" y1="335.85" x2="695.55" y2="348.1"/>
</g>
<g id="Phone_Icon" transform="translate(-362.819 -26.856)" class="st10">
	<path id="Path_75" class="st5" d="M834.73,355.3c-2.27,0-5.37-0.98-8.97-4.67c-3.98-4.1-4.72-7.47-4.63-9.57
		c0.02-1.67,0.71-3.26,1.91-4.41c0.67-0.61,1.62-0.82,2.48-0.55c1.63,0.65,2.91,1.96,3.53,3.6c0.41,1.34-0.5,2.39-1.24,3.24
		c-0.33,0.38-0.84,0.98-0.79,1.19l0,0c0.12,0.45,1.67,2.34,4.34,4.89c0.98,0.93,1.29,0.69,1.93,0.02c0.17-0.17,0.31-0.33,0.45-0.5
		c0.55-0.78,1.39-1.3,2.34-1.43c1.6-0.17,3.53,1.81,4.15,2.74c0.83,1.24-0.14,3.13-1.48,4.25
		C837.57,354.9,836.16,355.32,834.73,355.3z M824.74,337.41c-0.29,0-0.56,0.11-0.76,0.31c-0.91,0.89-1.42,2.11-1.43,3.39
		c-0.07,1.81,0.6,4.77,4.25,8.52c5.53,5.7,9.85,4.36,11.04,3.36c0.91-0.76,1.5-1.91,1.22-2.34c-0.67-0.98-2.15-2.17-2.82-2.1
		c-0.6,0.05-0.86,0.33-1.41,0.95c-0.14,0.17-0.31,0.36-0.5,0.55c-0.88,0.91-2.15,1.74-3.96,0.02c-1.65-1.57-4.48-4.41-4.75-5.58
		c-0.21-0.93,0.45-1.72,1.1-2.46c0.69-0.79,1.12-1.36,0.95-1.88c-0.47-1.18-1.39-2.14-2.55-2.65
		C825,337.44,824.87,337.41,824.74,337.41z"/>
</g>
<g id="Whatsapp" transform="translate(-92 -454.462)">
	<g id="whatsapp" transform="translate(92 454.462)">
		<path id="Path_72" class="st9" d="M468.2,401.55c-1.68,0-3.34-0.42-4.82-1.23l-5.52,1.75l1.8-5.31c-0.94-1.54-1.43-3.31-1.43-5.11
			c-0.04-5.51,4.39-10,9.89-10.05c5.51-0.04,10,4.39,10.05,9.89c0.04,5.51-4.39,10-9.89,10.05
			C468.26,401.55,468.23,401.55,468.2,401.55L468.2,401.55z M468.2,383.34c-4.61-0.01-8.36,3.71-8.38,8.32
			c0,1.75,0.56,3.46,1.6,4.88l-1.05,3.09l3.22-1.02c3.82,2.57,9,1.56,11.57-2.26c2.57-3.82,1.56-9-2.26-11.57
			C471.52,383.83,469.88,383.33,468.2,383.34L468.2,383.34z M473.24,393.94c-0.06-0.1-0.22-0.16-0.47-0.28
			c-0.24-0.12-1.45-0.71-1.67-0.79s-0.39-0.12-0.55,0.12c-0.16,0.24-0.63,0.79-0.77,0.95c-0.14,0.16-0.29,0.18-0.53,0.06
			c-0.72-0.28-1.38-0.69-1.96-1.2c-0.53-0.49-0.99-1.06-1.36-1.68c-0.14-0.24-0.01-0.37,0.11-0.49c0.12-0.12,0.24-0.28,0.37-0.43
			c0.1-0.12,0.18-0.26,0.24-0.4c0.07-0.14,0.06-0.3-0.02-0.42c-0.06-0.12-0.55-1.31-0.75-1.8c-0.2-0.49-0.41-0.4-0.55-0.4
			c-0.14,0-0.31-0.02-0.47-0.02c-0.25,0.01-0.48,0.11-0.65,0.3c-0.56,0.52-0.87,1.26-0.85,2.02c0.08,0.92,0.43,1.79,1,2.51
			c1.02,1.59,2.46,2.86,4.17,3.66c2.49,0.97,2.49,0.65,2.93,0.61c0.69-0.13,1.29-0.55,1.65-1.15
			C473.26,394.74,473.31,394.33,473.24,393.94L473.24,393.94z"/>
	</g>
</g>
<g id="Virtual_Assistant_icon" transform="translate(-91.183 -529.145)">
	<path id="Path_73" class="st17" d="M493.51,983.76l-0.97,0.33l-14.07,4.66l-0.97,0.33l0.33,0.97l4.67,14.07l0.33,0.97l0.97-0.33
		l14.07-4.67l0.97-0.33l-0.33-0.97l-4.67-14.06L493.51,983.76z M488.03,997.44c-0.75,0-1.48-0.3-2.01-0.84
		c-0.12-0.12-0.27-0.18-0.44-0.18c-0.16,0-0.32,0.07-0.44,0.18c-0.24,0.24-0.24,0.64,0,0.89c0.7,0.69,1.61,1.1,2.59,1.18
		c0.09,0.01,0.18,0.01,0.27,0.01c1.09,0,2.13-0.43,2.9-1.19c0.24-0.24,0.25-0.63,0.02-0.89c-0.12-0.12-0.27-0.18-0.44-0.18
		c-0.16,0-0.32,0.07-0.44,0.18C489.52,997.14,488.79,997.44,488.03,997.44z M485.67,993.49c0.32,0,0.58-0.26,0.58-0.58v-1.37
		c0-0.32-0.26-0.58-0.58-0.58c-0.32,0-0.58,0.26-0.58,0.58l0,0v1.37C485.09,993.22,485.35,993.48,485.67,993.49
		C485.67,993.49,485.67,993.49,485.67,993.49L485.67,993.49z M490.46,993.49c0.32,0,0.58-0.26,0.58-0.58v-1.37
		c0-0.32-0.26-0.58-0.58-0.58c-0.32,0-0.58,0.26-0.58,0.58l0,0v1.37c0,0.32,0.25,0.58,0.57,0.58
		C490.45,993.49,490.46,993.49,490.46,993.49L490.46,993.49z M492.86,985.04l4.67,14.07l-14.07,4.67l-4.67-14.07L492.86,985.04z"/>
</g>
<g id="Email_icon" transform="translate(-92.25 -610.381)">
	<path id="Path_74" class="st17" d="M552.01,1069.86h16.52c0.08,0,0.16,0.01,0.24,0.04l-8.5,7.29l-8.5-7.29
		C551.85,1069.87,551.93,1069.86,552.01,1069.86z M551.15,1080.63v-9.94c0-0.07,0.01-0.13,0.03-0.2l8.82,7.56
		c0.15,0.13,0.38,0.13,0.54,0l8.82-7.56c0.02,0.07,0.03,0.13,0.03,0.2v9.94c-0.01,0.46-0.39,0.84-0.86,0.83h-16.52
		C551.55,1081.47,551.16,1081.1,551.15,1080.63L551.15,1080.63z M568.53,1082.29c0.92,0.01,1.68-0.73,1.68-1.66v-9.94
		c-0.01-0.92-0.76-1.66-1.68-1.66h-16.52c-0.92-0.01-1.68,0.74-1.68,1.66v9.94c0.01,0.92,0.76,1.66,1.68,1.66H568.53z"/>
</g>
<g class="st10">
	<path class="st18" d="M388.23,537.57c0.55-0.55,1.1-1.1,1.63-1.63c1.58,1.58,3.13,3.13,4.71,4.71c3.54-3.54,7.08-7.08,10.59-10.59
		c0.55,0.55,1.1,1.1,1.63,1.63c-4.09,4.09-8.16,8.16-12.24,12.24c-2.1-2.1-4.23-4.23-6.34-6.34L388.23,537.57z"/>
</g>
</svg>
