<svg xmlns="http://www.w3.org/2000/svg" xmlns:xlink="http://www.w3.org/1999/xlink" width="59.423" height="59.423" viewBox="0 0 59.423 59.423"><defs><style>.a{fill:url(#a);}.b{fill:#ffac4f;}.c{fill:#fbc04e;}.d{fill:#313133;}.e{fill:url(#b);}.f{fill:url(#c);}</style><radialGradient id="a" cx="20.336" cy="4.864" r="85.018" gradientTransform="translate(15.472 4.586) scale(0.239 0.057)" gradientUnits="userSpaceOnUse"><stop offset="0" stop-color="#a8a8a8"/><stop offset="0.404" stop-color="#d1d1d1"/><stop offset="0.79" stop-color="#f2f2f2"/><stop offset="1" stop-color="#fff"/></radialGradient><radialGradient id="b" cx="4.929" cy="4.929" r="4.929" gradientTransform="matrix(0.987, 0.158, -0.158, 0.987, 0.839, -0.716)" gradientUnits="userSpaceOnUse"><stop offset="0" stop-color="#e73256"/><stop offset="0.269" stop-color="#ed6053"/><stop offset="0.606" stop-color="#f49350"/><stop offset="0.86" stop-color="#f9b34e"/><stop offset="1" stop-color="#fbc04e"/></radialGradient><radialGradient id="c" cx="4.929" cy="4.929" r="4.929" gradientTransform="matrix(0.994, 0.107, -0.107, 0.994, 0.555, -0.498)" xlink:href="#b"/></defs><g transform="translate(-267 -387)"><ellipse class="a" cx="20.336" cy="4.864" rx="20.336" ry="4.864" transform="translate(276.375 432.69)"/><g transform="translate(267 387)"><circle class="b" cx="21.009" cy="21.009" r="21.009" transform="translate(0 29.711) rotate(-45)"/><ellipse class="c" cx="19.421" cy="20.95" rx="19.421" ry="20.95" transform="matrix(0.999, -0.051, 0.051, 0.999, 10.84, 9.692)"/><g transform="translate(16.966 20.303)"><path class="d" d="M368.551,384.124a.883.883,0,0,1-1.037-.913,6.327,6.327,0,0,1,10.808-4.188.882.882,0,0,1-1.24,1.253,4.564,4.564,0,0,0-7.807,3.025A.882.882,0,0,1,368.551,384.124Z" transform="translate(-367.513 -377.163)"/></g><g transform="translate(32.831 18.309)"><path class="d" d="M450.519,373.2a.882.882,0,0,1-.965-.519,4.565,4.565,0,0,0-8.372-.12.881.881,0,1,1-1.6-.744,6.328,6.328,0,0,1,11.59.165.883.883,0,0,1-.655,1.217Z" transform="translate(-439.502 -368.116)"/></g><ellipse class="e" cx="4.929" cy="4.929" rx="4.929" ry="4.929" transform="translate(12.078 29.318) rotate(-14.336)"/><ellipse class="f" cx="4.929" cy="4.929" rx="4.929" ry="4.929" transform="matrix(0.98, -0.198, 0.198, 0.98, 39.143, 24.286)"/><g transform="translate(23.157 27.25)"><path class="d" d="M403.635,417.838a9.045,9.045,0,0,1-7.922-4.7.881.881,0,1,1,1.55-.84,7.217,7.217,0,0,0,13.533-2.814.881.881,0,1,1,1.756.152,9.036,9.036,0,0,1-7.118,8.012A8.844,8.844,0,0,1,403.635,417.838Z" transform="translate(-395.606 -408.684)"/></g></g></g></svg>