<?xml version="1.0" encoding="utf-8"?>
<!-- Generator: Adobe Illustrator 14.0.0, SVG Export Plug-In . SVG Version: 6.00 Build 43363)  -->
<!DOCTYPE svg PUBLIC "-//W3C//DTD SVG 1.1//EN" "http://www.w3.org/Graphics/SVG/1.1/DTD/svg11.dtd">
<svg version="1.1" id="Layer_1" xmlns="http://www.w3.org/2000/svg" xmlns:xlink="http://www.w3.org/1999/xlink" x="0px" y="0px"
	 width="25px" height="23px" viewBox="0 0 25 23" enable-background="new 0 0 25 23" xml:space="preserve">
<g id="Hamburger_Menu" transform="translate(0 0)">
	<g id="Group_1" transform="translate(93 0.593)">
		<path id="Path_6" fill="#ffffff" d="M-91.31,3.047h21.63c0.9,0,1.629-0.73,1.629-1.63s-0.729-1.63-1.629-1.63h-21.63
			c-0.9,0-1.63,0.73-1.63,1.63C-92.939,2.307-92.209,3.047-91.31,3.047L-91.31,3.047z"/>
		<path id="Path_7" fill="#ffffff" d="M-91.31,12.537H-75.9c0.9,0,1.631-0.73,1.631-1.63c0-0.9-0.73-1.63-1.631-1.63H-91.31
			c-0.9,0-1.63,0.73-1.63,1.63C-92.939,11.806-92.209,12.537-91.31,12.537z"/>
		<path id="Path_8" fill="#ffffff" d="M-69.68,18.757h-21.63c-0.9,0-1.63,0.73-1.64,1.63c-0.01,0.9,0.73,1.631,1.63,1.641l0,0h21.63
			c0.898,0,1.629-0.73,1.639-1.631C-68.041,19.497-68.77,18.757-69.68,18.757L-69.68,18.757z"/>
	</g>
</g>
</svg>
