<svg xmlns="http://www.w3.org/2000/svg" viewBox="0 0 109.38 31.11"><defs><style>.cls-1{fill:#087ec3;}.cls-2{fill:#0c7ac0;}.cls-3{fill:#231f20;}</style></defs><title>Asset 1</title><g id="Layer_2" data-name="Layer 2"><g id="Layer_1-2" data-name="Layer 1"><g id="Aegon_Life_Logo_Color" data-name="Aegon Life Logo_Color"><path id="Path_9" data-name="Path 9" class="cls-1" d="M105.76,30.34a2.26,2.26,0,0,1-.17.35,1,1,0,0,1-.17.24.67.67,0,0,1-.19.14.57.57,0,0,1-.22,0h-.16l-.13,0v-.31h.16a.32.32,0,0,0,.28-.13,1.3,1.3,0,0,0,.1-.15l.09-.21,0-.1-.85-2H105l.63,1.59.58-1.59h.44Zm-2-.15V29a1,1,0,0,0,0-.25.41.41,0,0,0-.08-.19.44.44,0,0,0-.15-.12.45.45,0,0,0-.23,0,.69.69,0,0,0-.24,0,.49.49,0,0,0-.18.14.72.72,0,0,0-.12.21.63.63,0,0,0,0,.27v1.1h-.41V28.35s0-.1,0-.18h.39a1.36,1.36,0,0,1,0,.18s0,.08,0,.13v.11h0a.87.87,0,0,1,1.1-.41.66.66,0,0,1,.23.17.91.91,0,0,1,.13.26,1.17,1.17,0,0,1,0,.32V30.2Zm-4.13-.57a.55.55,0,0,1,.29-.51.82.82,0,0,1,.31-.11,2.33,2.33,0,0,1,.37,0h.51v-.09a.49.49,0,0,0-.12-.37.46.46,0,0,0-.35-.12l-.18,0a.47.47,0,0,0-.15.06.35.35,0,0,0-.1.11.34.34,0,0,0-.05.17l-.43,0a.75.75,0,0,1,.08-.24.77.77,0,0,1,.17-.19,1,1,0,0,1,.28-.13,1.33,1.33,0,0,1,.4,0,1.14,1.14,0,0,1,.37,0,.87.87,0,0,1,.27.14.66.66,0,0,1,.17.23.85.85,0,0,1,.06.31v.81a.54.54,0,0,0,0,.22.16.16,0,0,0,.14.08h.14v.25l-.16,0h-.17l-.18,0a.25.25,0,0,1-.12-.08.33.33,0,0,1-.07-.13.57.57,0,0,1,0-.18h0a.86.86,0,0,1-.31.32,1,1,0,0,1-.49.12.92.92,0,0,1-.29,0,.55.55,0,0,1-.21-.12.5.5,0,0,1-.13-.19.59.59,0,0,1-.05-.25Zm.43,0a.3.3,0,0,0,.09.24.4.4,0,0,0,.28.08.93.93,0,0,0,.29-.05.6.6,0,0,0,.21-.14.8.8,0,0,0,.13-.19.52.52,0,0,0,0-.21v-.15h-.4l-.25,0a.66.66,0,0,0-.2.06.41.41,0,0,0-.14.12.54.54,0,0,0,0,.21Zm-1.3-.45a.93.93,0,0,0-.15-.56.53.53,0,0,0-.44-.2.54.54,0,0,0-.22,0,.5.5,0,0,0-.19.13.72.72,0,0,0-.14.24.92.92,0,0,0,0,.37,1.12,1.12,0,0,0,0,.36.58.58,0,0,0,.13.23.5.5,0,0,0,.19.13.85.85,0,0,0,.22,0,.53.53,0,0,0,.44-.19,1,1,0,0,0,.16-.59Zm.43,0a1.54,1.54,0,0,1-.06.43.91.91,0,0,1-.17.34.67.67,0,0,1-.28.22,1.1,1.1,0,0,1-.4.08l-.22,0-.2-.07a.66.66,0,0,1-.17-.12,1.09,1.09,0,0,1-.13-.17h0c0,.05,0,.1,0,.13V31.1h-.41V28.31s0-.1,0-.17h.4a.76.76,0,0,1,0,.14.49.49,0,0,0,0,.12.4.4,0,0,1,0,.11h0a.78.78,0,0,1,.75-.42.88.88,0,0,1,.39.08.73.73,0,0,1,.27.22,1.06,1.06,0,0,1,.16.34,2,2,0,0,1,0,.42Zm-4.53,1V29a2.11,2.11,0,0,0,0-.25.41.41,0,0,0-.08-.19.44.44,0,0,0-.14-.13.54.54,0,0,0-.22,0,.51.51,0,0,0-.4.19.61.61,0,0,0-.11.21.84.84,0,0,0,0,.27v1.09h-.41V28.32a1.42,1.42,0,0,0,0-.19h.39a1.49,1.49,0,0,1,0,.19.62.62,0,0,0,0,.13.4.4,0,0,1,0,.11h0a.83.83,0,0,1,.29-.35.68.68,0,0,1,.42-.11,1.09,1.09,0,0,1,.26,0,.75.75,0,0,1,.2.1,1,1,0,0,1,.14.15.5.5,0,0,1,.08.2h0a1,1,0,0,1,.3-.37.76.76,0,0,1,.44-.13,1,1,0,0,1,.34.06.55.55,0,0,1,.22.18.68.68,0,0,1,.12.26,1.12,1.12,0,0,1,0,.32v1.26h-.41V29a2.11,2.11,0,0,0,0-.25.46.46,0,0,0-.08-.19.57.57,0,0,0-.14-.13.54.54,0,0,0-.22-.05.54.54,0,0,0-.21.05.39.39,0,0,0-.17.14.72.72,0,0,0-.12.21.75.75,0,0,0,0,.26v1.12h-.42Zm-2.41-1a1.32,1.32,0,0,0,0-.34.55.55,0,0,0-.12-.24.52.52,0,0,0-.19-.14.57.57,0,0,0-.26,0,.59.59,0,0,0-.47.19.84.84,0,0,0-.16.57,1.27,1.27,0,0,0,0,.34.68.68,0,0,0,.12.24.52.52,0,0,0,.19.14.7.7,0,0,0,.25.05.84.84,0,0,0,.27,0,.56.56,0,0,0,.2-.14.55.55,0,0,0,.12-.24A1,1,0,0,0,92.22,29.16Zm.44,0a1.25,1.25,0,0,1-.07.43.9.9,0,0,1-.2.34.91.91,0,0,1-.33.22,1.21,1.21,0,0,1-.46.08,1.19,1.19,0,0,1-.45-.08,1,1,0,0,1-.33-.22.9.9,0,0,1-.2-.34,1.29,1.29,0,0,1-.07-.43,1.47,1.47,0,0,1,.06-.42,1,1,0,0,1,.19-.34.83.83,0,0,1,.33-.22,1.26,1.26,0,0,1,.47-.08,1.31,1.31,0,0,1,.48.08.91.91,0,0,1,.33.22.88.88,0,0,1,.19.34,1.52,1.52,0,0,1,.06.42ZM89,30.23a1.51,1.51,0,0,1-.59-.11,1.12,1.12,0,0,1-.41-.3,1.2,1.2,0,0,1-.24-.46,2.33,2.33,0,0,1-.08-.59,2,2,0,0,1,.08-.59,1.22,1.22,0,0,1,.24-.45,1,1,0,0,1,.4-.29,1.4,1.4,0,0,1,.57-.1,1.67,1.67,0,0,1,.44.06,1.37,1.37,0,0,1,.32.16.92.92,0,0,1,.22.22,1.35,1.35,0,0,1,.15.26l-.39.15a1.62,1.62,0,0,0-.1-.18.75.75,0,0,0-.15-.16.53.53,0,0,0-.21-.11.66.66,0,0,0-.28,0,.88.88,0,0,0-.39.08.73.73,0,0,0-.27.22.87.87,0,0,0-.15.34,2.3,2.3,0,0,0-.05.45,1.74,1.74,0,0,0,.06.45,1,1,0,0,0,.16.35.85.85,0,0,0,.27.23.74.74,0,0,0,.39.08.76.76,0,0,0,.51-.18.93.93,0,0,0,.16-.18,1.28,1.28,0,0,0,.11-.2l.39.16a2.54,2.54,0,0,1-.16.28,1,1,0,0,1-.23.24,1.41,1.41,0,0,1-.32.17,3.42,3.42,0,0,1-.45,0Zm-3.55-1.08a.93.93,0,0,0-.15-.56.53.53,0,0,0-.44-.2.54.54,0,0,0-.22,0,.5.5,0,0,0-.19.13.72.72,0,0,0-.14.24.92.92,0,0,0,0,.37,1.12,1.12,0,0,0,0,.36.58.58,0,0,0,.13.23.5.5,0,0,0,.19.13.85.85,0,0,0,.22,0,.5.5,0,0,0,.43-.19.91.91,0,0,0,.17-.59Zm.44,0a1.54,1.54,0,0,1-.06.43.91.91,0,0,1-.17.34.67.67,0,0,1-.28.22,1.1,1.1,0,0,1-.4.08l-.22,0-.2-.07a.66.66,0,0,1-.17-.12,1.09,1.09,0,0,1-.13-.17h0c0,.05,0,.1,0,.13V31.1h-.41V28.31s0-.1,0-.17h.4a.76.76,0,0,1,0,.14.49.49,0,0,0,0,.12.4.4,0,0,1,0,.11h0a.78.78,0,0,1,.75-.42.88.88,0,0,1,.39.08.73.73,0,0,1,.27.22,1.06,1.06,0,0,1,.16.34c0,.14,0,.28,0,.42Zm-4.21-1v1.15a1.07,1.07,0,0,0,0,.25.41.41,0,0,0,.08.19.47.47,0,0,0,.15.13.59.59,0,0,0,.23.05.57.57,0,0,0,.42-.19.72.72,0,0,0,.12-.21.84.84,0,0,0,0-.27v-1.1h.42V30a1.49,1.49,0,0,0,0,.19h-.39a1.42,1.42,0,0,1,0-.19.53.53,0,0,0,0-.13.4.4,0,0,1,0-.11h0a.76.76,0,0,1-.75.47,1,1,0,0,1-.35-.06.58.58,0,0,1-.23-.18.91.91,0,0,1-.13-.26,1.17,1.17,0,0,1,0-.32V28.16l.42,0Zm-1.38,1a1.32,1.32,0,0,0,0-.34.55.55,0,0,0-.12-.24.52.52,0,0,0-.19-.14.57.57,0,0,0-.26,0,.59.59,0,0,0-.47.19.84.84,0,0,0-.16.57,1.27,1.27,0,0,0,0,.34.68.68,0,0,0,.12.24.52.52,0,0,0,.19.14.7.7,0,0,0,.25.05.84.84,0,0,0,.27,0,.56.56,0,0,0,.2-.14.55.55,0,0,0,.12-.24A1,1,0,0,0,80.29,29.16Zm.43,0a1.25,1.25,0,0,1-.07.43.9.9,0,0,1-.2.34.91.91,0,0,1-.33.22,1.21,1.21,0,0,1-.46.08,1.19,1.19,0,0,1-.45-.08,1,1,0,0,1-.33-.22.9.9,0,0,1-.2-.34,1.29,1.29,0,0,1-.07-.43,1.47,1.47,0,0,1,.06-.42,1,1,0,0,1,.19-.34.83.83,0,0,1,.33-.22,1.26,1.26,0,0,1,.47-.08,1.31,1.31,0,0,1,.48.08.91.91,0,0,1,.33.22.88.88,0,0,1,.19.34,1.52,1.52,0,0,1,.06.42Zm-2.41-.67-.09,0H78.1a.54.54,0,0,0-.22.05.57.57,0,0,0-.16.15.67.67,0,0,0-.1.23,1,1,0,0,0,0,.3v1h-.41V28.34a1.56,1.56,0,0,0,0-.2h.39a1.64,1.64,0,0,1,0,.2s0,.1,0,.14v.11h0a1,1,0,0,1,.09-.22.61.61,0,0,1,.12-.16.49.49,0,0,1,.15-.1.76.76,0,0,1,.21,0h.16v.39Zm-1.78,1.25a1.8,1.8,0,0,1-.2.19,1.35,1.35,0,0,1-.26.15,1.7,1.7,0,0,1-.32.1,1.5,1.5,0,0,1-.37,0,1.43,1.43,0,0,1-.58-.11,1.12,1.12,0,0,1-.41-.3,1.2,1.2,0,0,1-.24-.46,1.68,1.68,0,0,1-.08-.59,2,2,0,0,1,.08-.59,1.22,1.22,0,0,1,.24-.45,1,1,0,0,1,.41-.29,1.67,1.67,0,0,1,1-.05,1.09,1.09,0,0,1,.31.14.8.8,0,0,1,.23.22,1.4,1.4,0,0,1,.16.26l-.4.15A1.62,1.62,0,0,0,76,28a.54.54,0,0,0-.15-.15.75.75,0,0,0-.2-.1.82.82,0,0,0-.26,0,.84.84,0,0,0-.38.08.7.7,0,0,0-.26.22.87.87,0,0,0-.15.34,2.3,2.3,0,0,0,0,.45,1.74,1.74,0,0,0,.06.45.88.88,0,0,0,.17.35.67.67,0,0,0,.27.23.73.73,0,0,0,.38.08,1,1,0,0,0,.25,0l.21-.07.17-.09.12-.1V29.1h-.74v-.34h1.15l0,1Zm-4.24-.14a.58.58,0,0,1-.06.26.55.55,0,0,1-.17.2,1,1,0,0,1-.28.13,1.2,1.2,0,0,1-.38,0,2,2,0,0,1-.35,0,1.43,1.43,0,0,1-.27-.09.61.61,0,0,1-.19-.17.85.85,0,0,1-.11-.26l.36-.06a.51.51,0,0,0,.07.17.29.29,0,0,0,.12.1l.16.05h.2l.2,0,.16-.05a.26.26,0,0,0,.11-.1.23.23,0,0,0,0-.14.3.3,0,0,0-.05-.15.5.5,0,0,0-.14-.1.83.83,0,0,0-.21-.06l-.25,0L71,29.22a.88.88,0,0,1-.22-.1.61.61,0,0,1-.16-.16.54.54,0,0,1-.06-.25.51.51,0,0,1,.06-.25.49.49,0,0,1,.16-.19.68.68,0,0,1,.26-.12,1.47,1.47,0,0,1,.36,0,1.63,1.63,0,0,1,.31,0,.92.92,0,0,1,.25.09.56.56,0,0,1,.28.4l-.36.05a.35.35,0,0,0-.06-.14.28.28,0,0,0-.1-.09l-.14-.05h-.17a.67.67,0,0,0-.34.07.24.24,0,0,0-.12.2.21.21,0,0,0,.16.21l.18.06.23.05.28.07a.8.8,0,0,1,.25.11.46.46,0,0,1,.17.17.52.52,0,0,1,.07.27ZM69.7,29a1,1,0,0,0,0-.24.42.42,0,0,0-.11-.18.45.45,0,0,0-.17-.11.67.67,0,0,0-.24,0,.76.76,0,0,0-.21,0,.5.5,0,0,0-.19.1.62.62,0,0,0-.14.18.67.67,0,0,0-.06.28l1.17,0Zm-1.17.28a1.33,1.33,0,0,0,0,.28.88.88,0,0,0,.1.22.49.49,0,0,0,.18.14.62.62,0,0,0,.27.05l.19,0a.44.44,0,0,0,.16-.06.41.41,0,0,0,.13-.1.57.57,0,0,0,.08-.13l.37.08a1.14,1.14,0,0,1-.1.19.73.73,0,0,1-.18.17,1,1,0,0,1-.27.13,1.57,1.57,0,0,1-.37.05,1,1,0,0,1-.76-.27,1.12,1.12,0,0,1-.26-.81,1.22,1.22,0,0,1,.08-.5.94.94,0,0,1,.23-.33.87.87,0,0,1,.33-.17,1.2,1.2,0,0,1,.38-.05,1.16,1.16,0,0,1,.45.08.79.79,0,0,1,.31.23,1.06,1.06,0,0,1,.18.35,1.68,1.68,0,0,1,.06.45v0l-1.59,0Zm-2.81.94V29a2.11,2.11,0,0,0,0-.25.41.41,0,0,0-.08-.19.44.44,0,0,0-.14-.13.51.51,0,0,0-.44,0,.46.46,0,0,0-.17.14.53.53,0,0,0-.11.21.84.84,0,0,0,0,.27v1.09h-.41V28.32a1.42,1.42,0,0,0,0-.19h.39a1.49,1.49,0,0,1,0,.19.62.62,0,0,0,0,.13.4.4,0,0,1,0,.11h0a.83.83,0,0,1,.29-.35.68.68,0,0,1,.42-.11,1.09,1.09,0,0,1,.26,0,.75.75,0,0,1,.2.1,1,1,0,0,1,.14.15.5.5,0,0,1,.08.2h0a1,1,0,0,1,.3-.37.75.75,0,0,1,.43-.13,1,1,0,0,1,.34.06.55.55,0,0,1,.22.18.68.68,0,0,1,.12.26,1.65,1.65,0,0,1,0,.32v1.26h-.41V29a2.11,2.11,0,0,0,0-.25.46.46,0,0,0-.08-.19.57.57,0,0,0-.14-.13.54.54,0,0,0-.22-.05.54.54,0,0,0-.21.05.39.39,0,0,0-.17.14.72.72,0,0,0-.12.21.75.75,0,0,0,0,.26v1.12h-.42Zm-2.51,0V28.14h.41v2.05Zm0-2.55v-.36h.41v.36Zm-.42-.27v.36h-.95v2.46H61.4V27.73h-.92v-.36ZM57,29.18a1.54,1.54,0,0,1,.06-.43.91.91,0,0,1,.17-.34.76.76,0,0,1,.28-.22.92.92,0,0,1,.4-.08.91.91,0,0,1,.43.1.76.76,0,0,1,.29.3V27.29H59V30a1.16,1.16,0,0,0,0,.17h-.4c0-.06,0-.11,0-.14s0-.07,0-.11v-.11a.72.72,0,0,1-.3.3,1,1,0,0,1-.46.1.84.84,0,0,1-.38-.08.73.73,0,0,1-.27-.22A1,1,0,0,1,57,29.6a1.52,1.52,0,0,1-.06-.42Zm.43,0a.93.93,0,0,0,.15.56.53.53,0,0,0,.44.19.54.54,0,0,0,.22,0,.5.5,0,0,0,.19-.13.72.72,0,0,0,.14-.24.9.9,0,0,0,0-.36,1.08,1.08,0,0,0,0-.36.7.7,0,0,0-.13-.24.5.5,0,0,0-.19-.13.85.85,0,0,0-.22,0,.5.5,0,0,0-.43.19.88.88,0,0,0-.17.6Zm-1.39,1V29a1,1,0,0,0,0-.25.41.41,0,0,0-.08-.19.44.44,0,0,0-.15-.12.43.43,0,0,0-.22,0,.69.69,0,0,0-.24,0,.49.49,0,0,0-.18.14.72.72,0,0,0-.12.21.63.63,0,0,0,0,.27v1.1h-.41V28.35s0-.1,0-.18h.39a1.36,1.36,0,0,1,0,.18s0,.08,0,.13v.11h0a.87.87,0,0,1,1.1-.41.66.66,0,0,1,.23.17.91.91,0,0,1,.13.26,1.17,1.17,0,0,1,0,.32V30.2Zm-4.12-.57a.55.55,0,0,1,.29-.51.84.84,0,0,1,.3-.11,2.33,2.33,0,0,1,.37,0h.51v-.09a.5.5,0,0,0-.12-.37.46.46,0,0,0-.35-.12l-.18,0a.47.47,0,0,0-.15.06.35.35,0,0,0-.1.11.34.34,0,0,0,0,.17l-.43,0a.75.75,0,0,1,.08-.24.61.61,0,0,1,.17-.19.9.9,0,0,1,.28-.13,1.33,1.33,0,0,1,.4,0,1.14,1.14,0,0,1,.37,0,.87.87,0,0,1,.27.14.66.66,0,0,1,.17.23.85.85,0,0,1,.06.31v.81a.54.54,0,0,0,0,.22.16.16,0,0,0,.14.08h.14v.25l-.16,0h-.17a.57.57,0,0,1-.18,0,.25.25,0,0,1-.12-.08.33.33,0,0,1-.07-.13.57.57,0,0,1,0-.18h0a.86.86,0,0,1-.31.32,1,1,0,0,1-.49.12.92.92,0,0,1-.29,0,.55.55,0,0,1-.21-.12.5.5,0,0,1-.13-.19.57.57,0,0,1,0-.25Zm.43,0a.3.3,0,0,0,.09.24.4.4,0,0,0,.28.08.93.93,0,0,0,.29-.05.6.6,0,0,0,.21-.14.8.8,0,0,0,.13-.19.52.52,0,0,0,0-.21v-.15h-.4l-.25,0a.66.66,0,0,0-.2.06.41.41,0,0,0-.14.12.54.54,0,0,0-.05.21Zm-2.48.59V29a1,1,0,0,0,0-.25.41.41,0,0,0-.08-.19.44.44,0,0,0-.15-.12.45.45,0,0,0-.23,0,.69.69,0,0,0-.24,0,.49.49,0,0,0-.18.14.72.72,0,0,0-.12.21.63.63,0,0,0,0,.27v1.1h-.41V28.35s0-.1,0-.18h.39a1.36,1.36,0,0,1,0,.18s0,.08,0,.13v.11h0a.87.87,0,0,1,1.1-.41.66.66,0,0,1,.23.17.91.91,0,0,1,.13.26,1.17,1.17,0,0,1,0,.32V30.2Zm-2.47-1a1.32,1.32,0,0,0,0-.34.55.55,0,0,0-.12-.24.52.52,0,0,0-.19-.14.57.57,0,0,0-.26,0,.59.59,0,0,0-.47.19.84.84,0,0,0-.16.57,1.27,1.27,0,0,0,0,.34.68.68,0,0,0,.12.24.52.52,0,0,0,.19.14.7.7,0,0,0,.25.05.84.84,0,0,0,.27,0,.56.56,0,0,0,.2-.14.55.55,0,0,0,.12-.24A1.34,1.34,0,0,0,47.35,29.16Zm.43,0a1.25,1.25,0,0,1-.07.43.9.9,0,0,1-.2.34.91.91,0,0,1-.33.22,1.21,1.21,0,0,1-.46.08,1.19,1.19,0,0,1-.45-.08,1,1,0,0,1-.33-.22.9.9,0,0,1-.2-.34,1.29,1.29,0,0,1-.07-.43,1.47,1.47,0,0,1,.06-.42,1,1,0,0,1,.19-.34.83.83,0,0,1,.33-.22,1.26,1.26,0,0,1,.47-.08,1.31,1.31,0,0,1,.48.08.91.91,0,0,1,.33.22.88.88,0,0,1,.19.34A1.52,1.52,0,0,1,47.78,29.16Zm-4.25,0a.87.87,0,0,0,.15.54.49.49,0,0,0,.44.19.54.54,0,0,0,.22,0,.41.41,0,0,0,.19-.13.79.79,0,0,0,.14-.23.9.9,0,0,0,0-.36,1,1,0,0,0,0-.35.65.65,0,0,0-.13-.23.5.5,0,0,0-.19-.13.57.57,0,0,0-.22,0,.53.53,0,0,0-.44.19A.93.93,0,0,0,43.53,29.16Zm-.43,0a1.54,1.54,0,0,1,.06-.43.91.91,0,0,1,.17-.34.85.85,0,0,1,.28-.22.92.92,0,0,1,.4-.08.91.91,0,0,1,.43.1.76.76,0,0,1,.29.3.45.45,0,0,1,0-.11.45.45,0,0,0,0-.11,1.15,1.15,0,0,1,0-.14h.4c0,.07,0,.13,0,.17v1.82a1.14,1.14,0,0,1-.07.41.79.79,0,0,1-.2.31.8.8,0,0,1-.32.19,1.07,1.07,0,0,1-.43.06,1.55,1.55,0,0,1-.37,0,.81.81,0,0,1-.27-.11.49.49,0,0,1-.18-.17.67.67,0,0,1-.1-.23l.41-.06a.4.4,0,0,0,.17.23.62.62,0,0,0,.35.08.64.64,0,0,0,.24,0,.38.38,0,0,0,.18-.13.72.72,0,0,0,.12-.21.78.78,0,0,0,0-.3v-.34a.81.81,0,0,1-.3.31.91.91,0,0,1-.46.1.84.84,0,0,1-.38-.08.71.71,0,0,1-.27-.22,1,1,0,0,1-.16-.33A1.18,1.18,0,0,1,43.1,29.16ZM42.27,29a1,1,0,0,0-.05-.24.42.42,0,0,0-.11-.18.45.45,0,0,0-.17-.11.67.67,0,0,0-.24,0,.76.76,0,0,0-.21,0,.5.5,0,0,0-.19.1.49.49,0,0,0-.14.18.67.67,0,0,0-.06.28l1.17,0Zm-1.17.28a1.33,1.33,0,0,0,0,.28.88.88,0,0,0,.1.22.49.49,0,0,0,.18.14.62.62,0,0,0,.27.05l.19,0a.44.44,0,0,0,.16-.06.41.41,0,0,0,.13-.1.35.35,0,0,0,.08-.13l.37.08a1.14,1.14,0,0,1-.1.19.73.73,0,0,1-.18.17,1,1,0,0,1-.27.13,1.57,1.57,0,0,1-.37.05,1,1,0,0,1-.76-.27,1.12,1.12,0,0,1-.26-.81,1.22,1.22,0,0,1,.08-.5.94.94,0,0,1,.23-.33.87.87,0,0,1,.33-.17,1.2,1.2,0,0,1,.38-.05,1.16,1.16,0,0,1,.45.08.79.79,0,0,1,.31.23,1.06,1.06,0,0,1,.18.35,1.68,1.68,0,0,1,.06.45v0l-1.59,0Zm-2-1.53-.47,1.35h.94Zm.25-.34,1,2.82H40l-.28-.79H38.54l-.29.79H37.8l1.05-2.82ZM36,30.2V29.05a1,1,0,0,0,0-.25.41.41,0,0,0-.08-.19.44.44,0,0,0-.15-.12.43.43,0,0,0-.22,0,.69.69,0,0,0-.24.05.49.49,0,0,0-.18.14.72.72,0,0,0-.12.21.84.84,0,0,0,0,.27v1.1h-.41V28.36s0-.1,0-.18h.39a1.36,1.36,0,0,1,0,.18s0,.08,0,.13v.11h0a.87.87,0,0,1,1.1-.41.66.66,0,0,1,.23.17.91.91,0,0,1,.13.26,1.17,1.17,0,0,1,0,.32v1.27Zm-3.16-2.48-.47,1.35h.94Zm.25-.34,1,2.82h-.45l-.28-.79H32.21l-.29.79h-.45l1.05-2.82Z"/><path id="Path_10" data-name="Path 10" class="cls-1" d="M107.68,11.82a2.91,2.91,0,0,0-.15-1.17,2.18,2.18,0,0,0-.56-.84,2.52,2.52,0,0,0-.84-.52,3.09,3.09,0,0,0-1-.17,2.51,2.51,0,0,0-1.93.79,3,3,0,0,0-.71,2.05v2.09a11.7,11.7,0,0,0,2.05,0,5.93,5.93,0,0,0,1.61-.34,2.69,2.69,0,0,0,1.09-.73,2,2,0,0,0,.44-1.18m-2.56-3.65a5.54,5.54,0,0,1,1.62.25,4.23,4.23,0,0,1,1.39.74,3.46,3.46,0,0,1,.94,1.18,3.27,3.27,0,0,1,.31,1.57,2.55,2.55,0,0,1-.42,1.34,3.44,3.44,0,0,1-.95.95,4.75,4.75,0,0,1-1.31.61,8.28,8.28,0,0,1-1.48.31,8,8,0,0,1-1.47.05,6.82,6.82,0,0,1-1.27-.18v1a2.37,2.37,0,0,0,.4,1.39,2.32,2.32,0,0,0,.93.74,3.89,3.89,0,0,0,1.17.31q.61.06,1.11.06h2.17v.65a2.57,2.57,0,0,1-.71.23,5.77,5.77,0,0,1-1.17.09h-.81a12.13,12.13,0,0,1-1.48-.11,5.07,5.07,0,0,1-1.61-.48,3.59,3.59,0,0,1-1.29-1.06,3,3,0,0,1-.51-1.9V12.7a5.05,5.05,0,0,1,.31-1.8,4.34,4.34,0,0,1,.87-1.44,3.92,3.92,0,0,1,1.39-1,4.8,4.8,0,0,1,1.87-.34ZM98.88,5.29a7.73,7.73,0,0,0-1,.06A1.69,1.69,0,0,0,96.5,6.47a3.45,3.45,0,0,0-.17,1.46v1h3.3v.65a2.57,2.57,0,0,1-.71.23,5.77,5.77,0,0,1-1.17.09H96.33v9.63h-1.8V9.83h-1V8.88h1v-1A3.21,3.21,0,0,1,95,6,3.05,3.05,0,0,1,96.08,4.9a4.4,4.4,0,0,1,1.46-.48,9.2,9.2,0,0,1,1.39-.11h1.84V5a2.57,2.57,0,0,1-.71.23,6.72,6.72,0,0,1-1.18.1ZM91.81,8.41H90V19.48h1.8Zm.11-2.55a1,1,0,1,1-2,.18.54.54,0,0,1,0-.18,1,1,0,0,1,1.7-.74l0,0a1,1,0,0,1,.29.71ZM86.39,18.51a11.57,11.57,0,0,1,1.17.11,2.59,2.59,0,0,1,.72.21v.65H86.4c-.29,0-.6,0-1,0a6.63,6.63,0,0,1-2.14-.53,2.9,2.9,0,0,1-.92-.63A3,3,0,0,1,81.53,16V4.32h1.8V15.87a2.59,2.59,0,0,0,.27,1.34,2.16,2.16,0,0,0,.75.78,2.84,2.84,0,0,0,1,.38,5.92,5.92,0,0,0,1,.14Z"/><path id="Path_11" data-name="Path 11" class="cls-2" d="M23.34,14.71,21.15,8,19,14.72Z"/><path id="Path_12" data-name="Path 12" class="cls-1" d="M18.14,17.23l-.74,2.34H14.52L19.44,4.39h3.42L21.43,0,0,7,7,28.43l18.83-6.15-1.65-5.06h-6Z"/><path id="Path_13" data-name="Path 13" class="cls-3" d="M36.17,16.77H28V12.86h5.73V10.33H28V6.88h7.56V4.24H25.17v7.17l2.61,8h8.38ZM76.27,4.33V14.58L70,4.33H67.24V19.49h2.61V9.09l6.42,10.4h2.62V4.33ZM29.49,24.68H69.86V23.14H29Zm28.86-4.79c4.42,0,7.08-3.69,7.08-8s-2.67-8-7.1-8-7.07,3.69-7.06,8,2.66,8,7.08,8Zm0-13.29c3,0,4.18,2.68,4.18,5.32s-1.22,5.33-4.17,5.33-4.18-2.68-4.18-5.32S55.4,6.61,58.33,6.6ZM43.38,19.91a5.19,5.19,0,0,0,3.8-1.69v1.3h2.36V11.23H43.47v2.51h3.58a3.59,3.59,0,0,1-3.62,3.53h-.06c-2.89,0-4.1-2.68-4.1-5.32s1.19-5.32,4.08-5.32A3.55,3.55,0,0,1,47,9.51l2.54-1.09A6.26,6.26,0,0,0,43.36,4c-4.34,0-6.94,3.69-6.94,8s2.32,8,7,8Z"/></g></g></g></svg>