<svg xmlns="http://www.w3.org/2000/svg" viewBox="0 0 21.55 21.69"><defs><style>.cls-1{fill:#087ec3;stroke:#087ec3;stroke-miterlimit:10;stroke-width:0.2px;}</style></defs><title>Asset 11</title><g id="Layer_2" data-name="Layer 2"><g id="Layer_1-2" data-name="Layer 1"><g id="Policy_Doc_Icon" data-name="Policy Doc Icon"><g id="Group_2" data-name="Group 2"><path id="Path_14" data-name="Path 14" class="cls-1" d="M8.5,21.54a.35.35,0,0,0,.33,0l1.86-.86,1.86.86a.34.34,0,0,0,.45-.17.32.32,0,0,0,0-.14V19.46h8.08a.34.34,0,0,0,.34-.34h0V.44A.34.34,0,0,0,21.11.1H.44A.34.34,0,0,0,.1.44h0V19.12a.34.34,0,0,0,.34.34H8.35v1.79A.33.33,0,0,0,8.5,21.54Zm2.27-4.87A3.24,3.24,0,1,1,14,13.43h0A3.24,3.24,0,0,1,10.77,16.67ZM9,16.94a3.8,3.8,0,0,0,1.32.39v2.78L9,20.72Zm2,3.17V17.34A4,4,0,0,0,12.35,17v3.7ZM.78,18.77V.77h20v18H13V16.62a3.93,3.93,0,1,0-5.47-1,3.8,3.8,0,0,0,.78.82v2.27H.78Z"/><path id="Path_15" data-name="Path 15" class="cls-1" d="M4.4,5.43h9.1a.34.34,0,0,0,0-.68H4.4a.34.34,0,0,0-.32.36A.32.32,0,0,0,4.4,5.43Z"/></g></g></g></g></svg>