<?xml version="1.0" encoding="utf-8"?>
<!-- Generator: Adobe Illustrator 23.0.3, SVG Export Plug-In . SVG Version: 6.00 Build 0)  -->
<svg version="1.1" id="Layer_1" xmlns="http://www.w3.org/2000/svg" xmlns:xlink="http://www.w3.org/1999/xlink" x="0px" y="0px"
	 viewBox="0 0 60 60" style="enable-background:new 0 0 60 60;" xml:space="preserve">
<style type="text/css">
	.st0{fill:url(#SVGID_1_);}
	.st1{fill:#FFAC4F;}
	.st2{fill:#FBC04E;}
	.st3{fill:#313133;}
	.st4{fill:#252425;}
</style>
<g transform="translate(-168 -387.22)">
	
		<radialGradient id="SVGID_1_" cx="2264.6736" cy="-5395.3511" r="85.0169" gradientTransform="matrix(0.239 0 0 -5.700000e-02 -343.2574 130.5275)" gradientUnits="userSpaceOnUse">
		<stop  offset="0" style="stop-color:#A8A8A8"/>
		<stop  offset="0.404" style="stop-color:#D1D1D1"/>
		<stop  offset="0.79" style="stop-color:#F2F2F2"/>
		<stop  offset="1" style="stop-color:#FFFFFF"/>
	</radialGradient>
	<ellipse class="st0" cx="198" cy="438.1" rx="20.3" ry="4.9"/>
	<g transform="translate(168 387.22)">
		<circle class="st1" cx="30" cy="30" r="21"/>
		
			<ellipse transform="matrix(0.9987 -5.066266e-02 5.066266e-02 0.9987 -1.4752 1.6387)" class="st2" cx="31.6" cy="29.9" rx="19.4" ry="21"/>
		<g transform="translate(20.522 34.63)">
			<path class="st3" d="M1.2,3.4C0.7,3.4,0.3,3,0.3,2.6c0-0.5,0.4-0.9,0.8-0.9L22,0.3c0.5,0,0.9,0.3,0.9,0.8C23,1.6,22.6,2,22.1,2
				l0,0L1.2,3.4L1.2,3.4z"/>
		</g>
		<g transform="translate(18.428 22.123)">
			<ellipse transform="matrix(0.8762 -0.482 0.482 0.8762 -1.6492 2.6856)" class="st4" cx="4.4" cy="4.6" rx="2.9" ry="3.3"/>
		</g>
		<g transform="translate(34.354 21.669)">
			<ellipse transform="matrix(0.2619 -0.9651 0.9651 0.2619 -1.1216 6.723)" class="st4" cx="3.8" cy="4.1" rx="3.2" ry="2.8"/>
		</g>
		<path class="st3" d="M21.6,28.7c0.2,0.4,0.5,0.8,0.9,1.1c0.7,0.2,1.4,0.1,2-0.2c1.4-0.9,1.9-2.8,1-4.3c-0.2-0.4-0.5-0.8-0.9-1.1
			c-0.7-0.2-1.4-0.1-2,0.2C21.1,25.4,20.6,27.3,21.6,28.7z"/>
		<path class="st3" d="M38,28.9c1.3,0.2,2.6-0.6,2.9-2c0,0,0,0,0,0c0.2-0.7,0.1-1.5-0.2-2.2c-0.2-0.2-0.4-0.3-0.7-0.4
			c-1.3-0.2-2.6,0.6-2.9,2c0,0,0,0,0,0c-0.2,0.7-0.1,1.5,0.2,2.2C37.5,28.7,37.8,28.8,38,28.9z"/>
	</g>
</g>
</svg>
