<?xml version="1.0" encoding="utf-8"?>
<!-- Generator: Adobe Illustrator 23.0.3, SVG Export Plug-In . SVG Version: 6.00 Build 0)  -->
<svg version="1.1" id="Layer_1" xmlns="http://www.w3.org/2000/svg" xmlns:xlink="http://www.w3.org/1999/xlink" x="0px" y="0px"
	 viewBox="0 0 60 60" style="enable-background:new 0 0 60 60;" xml:space="preserve">
<style type="text/css">
	.st0{fill:url(#SVGID_1_);}
	.st1{fill:url(#SVGID_2_);}
	.st2{fill:url(#SVGID_3_);}
	.st3{fill:#313133;}
</style>
<g transform="translate(-86 -394.713)">
	
		<radialGradient id="SVGID_1_" cx="2220.5159" cy="-5528.019" r="85.0159" gradientTransform="matrix(0.239 0 0 -5.700000e-02 -414.2203 132.2734)" gradientUnits="userSpaceOnUse">
		<stop  offset="0" style="stop-color:#A8A8A8"/>
		<stop  offset="0.404" style="stop-color:#D1D1D1"/>
		<stop  offset="0.79" style="stop-color:#F2F2F2"/>
		<stop  offset="1" style="stop-color:#FFFFFF"/>
	</radialGradient>
	<ellipse class="st0" cx="116.5" cy="447.4" rx="20.3" ry="4.9"/>
	<g transform="translate(86 394.713)">
		
			<linearGradient id="SVGID_2_" gradientUnits="userSpaceOnUse" x1="-635.7141" y1="406.6592" x2="-634.8761" y2="406.1152" gradientTransform="matrix(42.018 0 0 -42.018 26724.2949 17106.0332)">
			<stop  offset="0" style="stop-color:#E73256"/>
			<stop  offset="1" style="stop-color:#FBC04E"/>
		</linearGradient>
		<ellipse class="st1" cx="30.5" cy="30.5" rx="21" ry="21"/>
		
			<linearGradient id="SVGID_3_" gradientUnits="userSpaceOnUse" x1="-634.2333" y1="405.1625" x2="-634.7853" y2="405.9825" gradientTransform="matrix(38.8032 -1.9809 -2.1369 -41.8581 25519.7148 15749.9521)">
			<stop  offset="0" style="stop-color:#FBC04E"/>
			<stop  offset="1" style="stop-color:#E73256"/>
		</linearGradient>
		<path class="st2" d="M31,9.5c10.7-0.5,19.9,8.4,20.5,19.9s-7.6,21.4-18.3,21.9c-10.7,0.5-19.9-8.4-20.5-19.9
			C12.1,19.8,20.3,10,31,9.5z"/>
		<path class="st3" d="M45,30.4c0.1,0,0.1,0,0.2,0c0.5,0.1,0.8,0.5,0.7,1c0,0,0,0,0,0c-0.6,3.4-3.9,5.8-7.3,5.2
			c-1.6-0.3-3-1.1-3.9-2.4c-0.3-0.4-0.2-0.9,0.2-1.2s0.9-0.2,1.2,0.2c1.5,2,4.4,2.4,6.4,0.9c0.9-0.7,1.5-1.7,1.7-2.9
			C44.3,30.7,44.6,30.4,45,30.4z"/>
		<path class="st3" d="M18.9,31c0.4,0,0.8,0.2,0.9,0.6c0.7,2.4,3.2,3.9,5.6,3.2c1.1-0.3,2.1-1,2.7-2c0.3-0.4,0.8-0.5,1.2-0.3
			s0.5,0.8,0.3,1.2l0,0c-1.8,3-5.7,3.9-8.7,2c-1.4-0.8-2.3-2.1-2.8-3.7c-0.1-0.5,0.1-1,0.6-1.1C18.8,31,18.8,31,18.9,31z"/>
		<g transform="translate(18.478 33.868)">
			<path class="st3" d="M16.8,10.2h-6.5c-0.5,0-0.9-0.4-0.9-0.9c0-0.5,0.4-0.8,0.9-0.9h6.5c0.5,0,0.9,0.4,0.9,0.9
				C17.8,9.8,17.4,10.2,16.8,10.2C16.9,10.2,16.8,10.2,16.8,10.2z"/>
		</g>
	</g>
</g>
</svg>
