<svg xmlns="http://www.w3.org/2000/svg" viewBox="0 0 24.9 22.24"><defs><style>.cls-1{fill:#fff;}</style></defs><title>Asset 1</title><g id="Layer_2" data-name="Layer 2"><g id="Layer_1-2" data-name="Layer 1"><g id="Hamburger_Menu" data-name="Hamburger Menu"><g id="Group_1" data-name="Group 1"><path id="Path_6" data-name="Path 6" class="cls-1" d="M1.64,3.26H23.27a1.63,1.63,0,0,0,0-3.26H1.64a1.63,1.63,0,0,0,0,3.26Z"/><path id="Path_7" data-name="Path 7" class="cls-1" d="M1.64,12.75H17.05a1.63,1.63,0,0,0,0-3.26H1.64a1.63,1.63,0,0,0,0,3.26Z"/><path id="Path_8" data-name="Path 8" class="cls-1" d="M23.27,19H1.64a1.64,1.64,0,1,0,0,3.27H23.26a1.65,1.65,0,0,0,1.64-1.63A1.63,1.63,0,0,0,23.27,19Z"/></g></g></g></g></svg>