<svg xmlns="http://www.w3.org/2000/svg" viewBox="0 0 29.56 29.56"><defs><style>.cls-1{fill:none;}.cls-2{fill:#087ec3;fill-rule:evenodd;}</style></defs><title>Asset 14</title><g id="Layer_2" data-name="Layer 2"><g id="Layer_1-2" data-name="Layer 1"><g id="Help_Icon" data-name="Help Icon"><path id="Path_46" data-name="Path 46" class="cls-1" d="M29.56,29.56H0V0H29.56Z"/><path id="Path_47" data-name="Path 47" class="cls-2" d="M14.77,27.09A12.32,12.32,0,1,1,27.1,14.78,12.33,12.33,0,0,1,14.77,27.09Zm0-1.23A11.09,11.09,0,1,0,3.69,14.76v0A11.09,11.09,0,0,0,14.77,25.86Z"/><path id="Path_48" data-name="Path 48" class="cls-2" d="M12.34,12.24A2.58,2.58,0,0,1,15,9.76h.07a2.3,2.3,0,0,1,2.51,2.09,2.44,2.44,0,0,1,0,.27c0,1-.72,1.71-1.93,2.51A3,3,0,0,0,14,17.58v.9H15.3v-.72a2.32,2.32,0,0,1,1.38-2.42C18,14.49,19,13.49,19,12.07c0-2-1.51-3.44-3.84-3.44a3.74,3.74,0,0,0-4,3.42,1.34,1.34,0,0,0,0,.2h1.27Zm2.44,9a.92.92,0,1,0-.92-.92h0a.9.9,0,0,0,.9.92Z"/></g></g></g></svg>