<svg xmlns="http://www.w3.org/2000/svg" viewBox="0 0 22.11 24.52"><defs><style>.cls-1{fill:#087ec3;}</style></defs><title>Asset 16</title><g id="Layer_2" data-name="Layer 2"><g id="Layer_1-2" data-name="Layer 1"><g id="Notification_Icon" data-name="Notification Icon"><g id="Group_35" data-name="Group 35"><path id="Path_69" data-name="Path 69" class="cls-1" d="M14.72,21.26a3.69,3.69,0,0,1-7.32,0h-5a2.39,2.39,0,0,1,0-4.78h0a.22.22,0,0,0,.22-.22v-5.2A8.46,8.46,0,0,1,8.46,3V2.6a2.6,2.6,0,1,1,5.2,0V3a8.46,8.46,0,0,1,5.85,8.05v5.2a.21.21,0,0,0,.21.22h0a2.39,2.39,0,0,1,0,4.78Zm-1.32,0H8.71a2.39,2.39,0,0,0,4.69,0ZM9.27,4.14A7.17,7.17,0,0,0,3.9,11.07v5.2a1.52,1.52,0,0,1-1.52,1.52,1.08,1.08,0,0,0,0,2.16H19.72a1.08,1.08,0,0,0,0-2.16h0a1.52,1.52,0,0,1-1.52-1.51h0v-5.2a7.17,7.17,0,0,0-5.37-6.93L12.35,4V2.62a1.3,1.3,0,0,0-2.6,0h0V4Z"/></g></g></g></g></svg>