<svg xmlns="http://www.w3.org/2000/svg" viewBox="0 0 31 31"><defs><style>.cls-1{fill:#0d7ec3;}</style></defs><title>Asset 3</title><g id="Layer_2" data-name="Layer 2"><g id="Layer_1-2" data-name="Layer 1"><g id="Share"><path id="Path_32" data-name="Path 32" class="cls-1" d="M15.5,0A15.5,15.5,0,1,0,31,15.5,15.5,15.5,0,0,0,15.5,0Zm0,29.47a14,14,0,1,1,14-14A14,14,0,0,1,15.5,29.47Z"/><path id="Path_33" data-name="Path 33" class="cls-1" d="M19.73,13.49a2.61,2.61,0,1,0-2.59-2.63,3.4,3.4,0,0,0,0,.45l-4.38,2.1a2.59,2.59,0,1,0,0,4.18l4.38,2.11a2.59,2.59,0,1,0,3-2.16,2.69,2.69,0,0,0-.4,0,2.6,2.6,0,0,0-1.91.84l-4.11-2a2.51,2.51,0,0,0,0-1.75l4.11-2A2.54,2.54,0,0,0,19.73,13.49Z"/></g></g></g></svg>