<svg xmlns="http://www.w3.org/2000/svg" viewBox="0 0 23.97 23.98"><defs><style>.cls-1{fill:#087ec3;}</style></defs><title>Asset 7</title><g id="Layer_2" data-name="Layer 2"><g id="Layer_1-2" data-name="Layer 1"><g id="My_Account_Icon" data-name="My Account Icon"><path id="Path_67" data-name="Path 67" class="cls-1" d="M23,21.45v1.26a.28.28,0,0,1-.27.28H1.26A.28.28,0,0,1,1,22.71V21.45l8.23-4.52a.52.52,0,0,0,.11-.1s0,0,0,0h0a.38.38,0,0,0,.1-.27.34.34,0,0,0,0-.1s0,0,0-.05a.74.74,0,0,0,0-.14h0l-.06-.07-.06-.08C6.51,13.8,6.47,9.66,6.47,9.62V5.1C6.9,2.68,9.7,1,12,1h0c2.25,0,5,1.7,5.45,4.1V9.61s0,4.17-2.82,6.47a.31.31,0,0,0-.07.09l-.05.06h0a.33.33,0,0,0,0,.14s0,0,0,.05a.28.28,0,0,0,0,.09.34.34,0,0,0,0,.1s0,0,0,0a.54.54,0,0,0,.07.13h0l.08.06.07.06h0ZM22.7,24A1.27,1.27,0,0,0,24,22.7V21.14a.51.51,0,0,0-.26-.44l-7.88-4.33a10.46,10.46,0,0,0,2.65-6.75V5.06a.22.22,0,0,0,0-.08C18,2,14.72,0,12,0h-.05C9.22,0,6,2,5.51,5c0,0,0,0,0,.08V9.62a10.51,10.51,0,0,0,2.64,6.75L.26,20.7a.51.51,0,0,0-.26.44v1.55A1.28,1.28,0,0,0,1.27,24Z"/></g></g></g></svg>