<svg xmlns="http://www.w3.org/2000/svg" viewBox="0 0 20.31 20.47"><defs><style>.cls-1{fill:#087ec3;fill-rule:evenodd;}</style></defs><title>Asset 12</title><g id="Layer_2" data-name="Layer 2"><g id="Layer_1-2" data-name="Layer 1"><g id="Whatsapp"><g id="whatsapp-2" data-name="whatsapp"><path id="Path_72" data-name="Path 72" class="cls-1" d="M10.34,20a10,10,0,0,1-4.82-1.23L0,20.47l1.8-5.31A9.81,9.81,0,0,1,.37,10.05a10,10,0,1,1,10.05,9.89Zm0-18.21A8.36,8.36,0,0,0,2,10.06a8.26,8.26,0,0,0,1.6,4.88L2.51,18l3.22-1A8.34,8.34,0,1,0,15,3.18a8.2,8.2,0,0,0-4.7-1.44Zm5,10.6c-.06-.1-.22-.16-.47-.28s-1.45-.71-1.67-.79-.39-.12-.55.12-.63.79-.77.95-.29.18-.53.06a6.59,6.59,0,0,1-2-1.2A7.59,7.59,0,0,1,8.07,9.52c-.14-.24,0-.37.11-.49s.24-.28.37-.43a1.63,1.63,0,0,0,.24-.4.42.42,0,0,0,0-.42C8.71,7.66,8.22,6.47,8,6s-.41-.4-.55-.4L7,5.56a.9.9,0,0,0-.65.3,2.67,2.67,0,0,0-.85,2,4.7,4.7,0,0,0,1,2.51,10,10,0,0,0,4.17,3.66c2.49,1,2.49.65,2.93.61a2.46,2.46,0,0,0,1.65-1.15,2.13,2.13,0,0,0,.13-1.17Z"/></g></g></g></g></svg>