<svg xmlns="http://www.w3.org/2000/svg" xmlns:xlink="http://www.w3.org/1999/xlink" width="43.052" height="49.043" viewBox="0 0 43.052 49.043"><defs><style>.a{fill:url(#a);}.b{fill:url(#b);}.c{fill:url(#c);}.d{fill:#313133;}</style><radialGradient id="a" cx="20.336" cy="4.864" r="85.017" gradientTransform="translate(15.472 4.586) scale(0.239 0.057)" gradientUnits="userSpaceOnUse"><stop offset="0" stop-color="#a8a8a8"/><stop offset="0.404" stop-color="#d1d1d1"/><stop offset="0.79" stop-color="#f2f2f2"/><stop offset="1" stop-color="#fff"/></radialGradient><linearGradient id="b" x1="0.081" y1="0.228" x2="0.919" y2="0.772" gradientUnits="objectBoundingBox"><stop offset="0" stop-color="#e73256"/><stop offset="1" stop-color="#fbc04e"/></linearGradient><linearGradient id="c" x1="0.776" y1="0.91" x2="0.224" y2="0.09" gradientUnits="objectBoundingBox"><stop offset="0" stop-color="#fbc04e"/><stop offset="1" stop-color="#e73256"/></linearGradient></defs><g transform="translate(-86 -394.713)"><ellipse class="a" cx="20.336" cy="4.864" rx="20.336" ry="4.864" transform="translate(86.673 434.028)"/><g transform="translate(86 394.713)"><ellipse class="b" cx="21.009" cy="21.009" rx="21.009" ry="21.009" transform="translate(0 0.978)"/><ellipse class="c" cx="19.421" cy="20.95" rx="19.421" ry="20.95" transform="matrix(0.999, -0.051, 0.051, 0.999, 2.138, 1.967)"/><path class="d" d="M722.373,143.109a.869.869,0,0,1,.2.013.881.881,0,0,1,.711,1.024,6.327,6.327,0,0,1-11.251,2.785.881.881,0,0,1,1.389-1.086,4.565,4.565,0,0,0,8.127-2.012A.881.881,0,0,1,722.373,143.109Z" transform="translate(-686.825 -121.158)"/><path class="d" d="M638.093,145.66a.882.882,0,0,1,.891.637,4.565,4.565,0,0,0,8.289,1.179.881.881,0,1,1,1.492.94,6.328,6.328,0,0,1-11.475-1.632.882.882,0,0,1,.6-1.091A.891.891,0,0,1,638.093,145.66Z" transform="translate(-628.671 -123.147)"/><g transform="translate(18.478 33.868)"><path class="d" d="M689.5,198.955h-6.472a.882.882,0,0,1,0-1.763H689.5a.882.882,0,1,1,0,1.763Z" transform="translate(-682.149 -197.192)"/></g></g></g></svg>