<svg xmlns="http://www.w3.org/2000/svg" xmlns:xlink="http://www.w3.org/1999/xlink" width="59.423" height="59.423" viewBox="0 0 59.423 59.423"><defs><style>.a{fill:url(#a);}.b{fill:#ffac4f;}.c{fill:#fbc04e;}.d{fill:#313133;}.e{fill:#252425;}</style><radialGradient id="a" cx="20.336" cy="4.864" r="85.018" gradientTransform="translate(15.472 4.586) scale(0.239 0.057)" gradientUnits="userSpaceOnUse"><stop offset="0" stop-color="#a8a8a8"/><stop offset="0.404" stop-color="#d1d1d1"/><stop offset="0.79" stop-color="#f2f2f2"/><stop offset="1" stop-color="#fff"/></radialGradient></defs><g transform="translate(-168 -387.22)"><ellipse class="a" cx="20.336" cy="4.864" rx="20.336" ry="4.864" transform="translate(177.375 432.91)"/><g transform="translate(168 387.22)"><circle class="b" cx="21.009" cy="21.009" r="21.009" transform="translate(0 29.711) rotate(-45)"/><ellipse class="c" cx="19.421" cy="20.95" rx="19.421" ry="20.95" transform="translate(10.84 9.692) rotate(-2.904)"/><g transform="translate(20.522 34.63)"><path class="d" d="M652.817,445.3a.881.881,0,0,1-.057-1.761l20.889-1.365a.881.881,0,1,1,.115,1.759L652.875,445.3Z" transform="translate(-651.936 -442.175)"/></g><g transform="translate(18.428 22.123)"><ellipse class="e" cx="2.893" cy="3.275" rx="2.893" ry="3.275" transform="translate(0 2.789) rotate(-28.818)"/></g><g transform="translate(34.354 21.669)"><ellipse class="e" cx="3.181" cy="2.811" rx="3.181" ry="2.811" transform="translate(0 6.14) rotate(-74.817)"/></g><path class="d" d="M652.9,396.594a3.623,3.623,0,0,0,.874,1.056,2.686,2.686,0,0,0,1.976-.231,3.1,3.1,0,0,0,.957-4.264,3.629,3.629,0,0,0-.874-1.056,2.687,2.687,0,0,0-1.976.231A3.1,3.1,0,0,0,652.9,396.594Z" transform="translate(-631.632 -368.163)"/><path class="d" d="M725.695,397.5a2.458,2.458,0,0,0,2.866-2.019,3.053,3.053,0,0,0-.219-2.17,1.955,1.955,0,0,0-.692-.364,2.458,2.458,0,0,0-2.866,2.019,3.052,3.052,0,0,0,.219,2.17A1.952,1.952,0,0,0,725.695,397.5Z" transform="translate(-687.962 -368.904)"/></g></g></svg>