<svg xmlns="http://www.w3.org/2000/svg" width="129.246" height="36.738" viewBox="0 0 129.246 36.738"><defs><style>.a{fill:#fff;}</style></defs><g transform="translate(-142 -19)"><path class="a" d="M556.977,466.388a3.345,3.345,0,0,1-.2.412,1.356,1.356,0,0,1-.2.282.709.709,0,0,1-.227.161.661.661,0,0,1-.265.052,1.533,1.533,0,0,1-.189-.01c-.055-.007-.107-.014-.158-.024V466.9l.1.01c.038,0,.072,0,.1,0a.393.393,0,0,0,.33-.151.839.839,0,0,0,.12-.182,2.14,2.14,0,0,0,.107-.247l.045-.117L555.53,463.8h.526l.739,1.883.684-1.883H558Zm-2.4-.172v-1.364a1.155,1.155,0,0,0-.034-.3.575.575,0,0,0-.1-.227.489.489,0,0,0-.179-.144.631.631,0,0,0-.268-.052.684.684,0,0,0-.278.058.568.568,0,0,0-.216.165.69.69,0,0,0-.141.251.924.924,0,0,0-.052.316v1.3h-.488v-2.034c0-.058,0-.113,0-.165s-.007-.124-.014-.216h.464c.007.093.01.165.014.216s.007.1.007.158,0,.1,0,.131h.01a1.02,1.02,0,0,1,1.3-.481.762.762,0,0,1,.275.206.814.814,0,0,1,.151.309,1.507,1.507,0,0,1,.045.381v1.5h-.488Zm-4.876-.677a.706.706,0,0,1,.089-.364.683.683,0,0,1,.244-.241,1.125,1.125,0,0,1,.361-.134,2.538,2.538,0,0,1,.44-.048l.608-.01v-.1a.584.584,0,0,0-.141-.44.56.56,0,0,0-.412-.141,1.053,1.053,0,0,0-.216.021.456.456,0,0,0-.172.072.437.437,0,0,0-.12.131.525.525,0,0,0-.062.2l-.512-.038a.858.858,0,0,1,.1-.282.792.792,0,0,1,.206-.223,1.044,1.044,0,0,1,.33-.148,1.846,1.846,0,0,1,.467-.052,1.554,1.554,0,0,1,.44.055.9.9,0,0,1,.323.165.682.682,0,0,1,.2.271.966.966,0,0,1,.069.371v.952a.585.585,0,0,0,.045.261.171.171,0,0,0,.165.089.2.2,0,0,0,.041,0,.266.266,0,0,0,.052-.007c.017,0,.034,0,.048-.007s.027,0,.038-.007v.3l-.189.031a1.879,1.879,0,0,1-.2.01.65.65,0,0,1-.213-.031.35.35,0,0,1-.144-.093.42.42,0,0,1-.086-.155.784.784,0,0,1-.038-.216h-.017a1,1,0,0,1-.361.378,1.106,1.106,0,0,1-.584.137,1.153,1.153,0,0,1-.344-.048.669.669,0,0,1-.251-.144.582.582,0,0,1-.155-.227A.747.747,0,0,1,549.7,465.539Zm.515-.021a.37.37,0,0,0,.11.289.468.468,0,0,0,.33.1.828.828,0,0,0,.344-.065.767.767,0,0,0,.247-.168.738.738,0,0,0,.148-.227.63.63,0,0,0,.048-.244v-.172l-.471.01a2.474,2.474,0,0,0-.292.027.9.9,0,0,0-.241.076.42.42,0,0,0-.165.144A.411.411,0,0,0,550.218,465.519Zm-1.546-.526a1.1,1.1,0,0,0-.172-.66.609.609,0,0,0-.519-.234.746.746,0,0,0-.261.045.55.55,0,0,0-.227.151.822.822,0,0,0-.161.282,1.322,1.322,0,0,0-.062.436,1.389,1.389,0,0,0,.058.426.782.782,0,0,0,.158.275.542.542,0,0,0,.227.148.855.855,0,0,0,.265.045.629.629,0,0,0,.515-.227A1.1,1.1,0,0,0,548.672,464.993Zm.515,0a1.848,1.848,0,0,1-.065.512,1.1,1.1,0,0,1-.2.4.864.864,0,0,1-.333.261,1.117,1.117,0,0,1-.471.093,1.3,1.3,0,0,1-.261-.027.91.91,0,0,1-.234-.086.818.818,0,0,1-.2-.144.891.891,0,0,1-.151-.2h-.014c0,.062.007.113.007.155s0,.086,0,.134v1.2h-.488v-3.141c0-.055,0-.107,0-.155s-.007-.113-.014-.2h.474c.007.069.014.124.014.168s0,.089.007.137,0,.093,0,.131h.007a.919.919,0,0,1,.886-.491,1.054,1.054,0,0,1,.457.093.834.834,0,0,1,.316.261,1.135,1.135,0,0,1,.186.4A1.671,1.671,0,0,1,549.188,464.993Zm-5.353,1.223v-1.361a1.537,1.537,0,0,0-.027-.292.6.6,0,0,0-.093-.23.447.447,0,0,0-.168-.151.572.572,0,0,0-.258-.055.577.577,0,0,0-.471.223.8.8,0,0,0-.134.251,1.033,1.033,0,0,0-.048.316v1.292h-.488v-2.031c0-.058,0-.113,0-.168s0-.127-.01-.22h.464c.007.1.01.172.014.223s0,.1.007.155,0,.093,0,.127h.01a1.026,1.026,0,0,1,.347-.419.884.884,0,0,1,.491-.134,1.1,1.1,0,0,1,.313.041.771.771,0,0,1,.237.12.755.755,0,0,1,.165.182.834.834,0,0,1,.1.234h.01a1.145,1.145,0,0,1,.357-.436.884.884,0,0,1,.515-.148.917.917,0,0,1,.4.076.661.661,0,0,1,.261.21.914.914,0,0,1,.144.309,1.479,1.479,0,0,1,.045.378V466.2h-.488v-1.361a1.531,1.531,0,0,0-.028-.292.734.734,0,0,0-.093-.23.475.475,0,0,0-.168-.151.588.588,0,0,0-.261-.055.568.568,0,0,0-.247.058.624.624,0,0,0-.206.162.809.809,0,0,0-.141.244.878.878,0,0,0-.052.306V466.2h-.495ZM540.986,465a1.71,1.71,0,0,0-.045-.4.7.7,0,0,0-.138-.278.562.562,0,0,0-.227-.161.852.852,0,0,0-.306-.052.69.69,0,0,0-.553.22,1.008,1.008,0,0,0-.192.677,1.416,1.416,0,0,0,.052.405.806.806,0,0,0,.144.282.605.605,0,0,0,.227.165.79.79,0,0,0,.292.055.91.91,0,0,0,.316-.052.584.584,0,0,0,.234-.161.663.663,0,0,0,.144-.282A1.547,1.547,0,0,0,540.986,465Zm.512,0a1.615,1.615,0,0,1-.079.512,1.061,1.061,0,0,1-.237.4,1.111,1.111,0,0,1-.392.258,1.479,1.479,0,0,1-.546.093,1.412,1.412,0,0,1-.529-.093,1.052,1.052,0,0,1-.385-.258,1.078,1.078,0,0,1-.237-.4,1.524,1.524,0,0,1-.083-.512,1.689,1.689,0,0,1,.076-.5,1.1,1.1,0,0,1,.23-.4,1.033,1.033,0,0,1,.388-.261,1.5,1.5,0,0,1,.553-.093,1.555,1.555,0,0,1,.567.093.993.993,0,0,1,.385.261,1.048,1.048,0,0,1,.22.4A1.771,1.771,0,0,1,541.5,465Zm-4.333,1.258a1.788,1.788,0,0,1-.694-.127,1.324,1.324,0,0,1-.488-.357,1.488,1.488,0,0,1-.289-.546,2.439,2.439,0,0,1-.093-.694,2.479,2.479,0,0,1,.093-.7,1.392,1.392,0,0,1,.285-.533,1.239,1.239,0,0,1,.478-.34,1.777,1.777,0,0,1,.677-.12,1.749,1.749,0,0,1,.515.069,1.361,1.361,0,0,1,.375.186,1.208,1.208,0,0,1,.265.265,1.689,1.689,0,0,1,.182.313l-.464.172a1.306,1.306,0,0,0-.12-.21.912.912,0,0,0-.175-.189.849.849,0,0,0-.247-.134.943.943,0,0,0-.326-.052,1.047,1.047,0,0,0-.46.093.859.859,0,0,0-.316.258,1.139,1.139,0,0,0-.182.4,2.238,2.238,0,0,0-.058.526,1.967,1.967,0,0,0,.065.526,1.253,1.253,0,0,0,.192.416.868.868,0,0,0,.323.268,1.006,1.006,0,0,0,.457.1.865.865,0,0,0,.337-.062.979.979,0,0,0,.258-.158,1.1,1.1,0,0,0,.189-.213,1.559,1.559,0,0,0,.127-.234l.457.192a2.261,2.261,0,0,1-.192.326,1.334,1.334,0,0,1-.271.285,1.26,1.26,0,0,1-.381.2A1.479,1.479,0,0,1,537.165,466.261Zm-4.192-1.268a1.1,1.1,0,0,0-.172-.66.609.609,0,0,0-.519-.234.746.746,0,0,0-.261.045.55.55,0,0,0-.227.151.822.822,0,0,0-.161.282,1.319,1.319,0,0,0-.062.436,1.385,1.385,0,0,0,.058.426.781.781,0,0,0,.158.275.542.542,0,0,0,.227.148.855.855,0,0,0,.265.045.618.618,0,0,0,.512-.227A1.073,1.073,0,0,0,532.973,464.993Zm.515,0a1.848,1.848,0,0,1-.065.512,1.1,1.1,0,0,1-.2.4.878.878,0,0,1-.33.261,1.117,1.117,0,0,1-.471.093,1.3,1.3,0,0,1-.261-.027.91.91,0,0,1-.234-.086.821.821,0,0,1-.2-.144.893.893,0,0,1-.151-.2h-.014c0,.062.007.113.007.155s0,.086,0,.134v1.2h-.488v-3.141c0-.055,0-.107,0-.155s-.007-.113-.014-.2h.474c.007.069.014.124.014.168s0,.089.007.137,0,.093,0,.131h.007a.919.919,0,0,1,.887-.491,1.054,1.054,0,0,1,.457.093.834.834,0,0,1,.316.261,1.135,1.135,0,0,1,.185.4A1.79,1.79,0,0,1,533.488,464.993Zm-4.969-1.2v1.361a1.29,1.29,0,0,0,.031.292.608.608,0,0,0,.1.23.441.441,0,0,0,.179.148.652.652,0,0,0,.275.055.644.644,0,0,0,.495-.22.738.738,0,0,0,.137-.251.937.937,0,0,0,.048-.316v-1.3h.5v2.027c0,.058,0,.117,0,.168s0,.127.01.22h-.464c-.007-.1-.01-.168-.014-.22s0-.107-.007-.158,0-.1,0-.131h-.014a.906.906,0,0,1-.883.553,1.051,1.051,0,0,1-.412-.076.732.732,0,0,1-.275-.21.868.868,0,0,1-.151-.309,1.491,1.491,0,0,1-.045-.381V463.8h.491ZM526.887,465a1.544,1.544,0,0,0-.045-.4.7.7,0,0,0-.137-.278.562.562,0,0,0-.227-.161.858.858,0,0,0-.309-.052.69.69,0,0,0-.553.22,1.007,1.007,0,0,0-.192.677,1.418,1.418,0,0,0,.052.405.808.808,0,0,0,.144.282.6.6,0,0,0,.227.165.791.791,0,0,0,.292.055.911.911,0,0,0,.316-.052.585.585,0,0,0,.234-.161.663.663,0,0,0,.144-.282A1.415,1.415,0,0,0,526.887,465Zm.512,0a1.617,1.617,0,0,1-.079.512,1.061,1.061,0,0,1-.237.4,1.111,1.111,0,0,1-.392.258,1.48,1.48,0,0,1-.546.093,1.411,1.411,0,0,1-.529-.093,1.053,1.053,0,0,1-.385-.258,1.128,1.128,0,0,1-.237-.4,1.524,1.524,0,0,1-.082-.512,1.687,1.687,0,0,1,.076-.5,1.1,1.1,0,0,1,.23-.4,1.033,1.033,0,0,1,.388-.261,1.5,1.5,0,0,1,.553-.093,1.555,1.555,0,0,1,.567.093.994.994,0,0,1,.385.261,1.048,1.048,0,0,1,.22.4A1.658,1.658,0,0,1,527.4,465Zm-2.848-.794a1.023,1.023,0,0,0-.11-.027.9.9,0,0,0-.141-.007.53.53,0,0,0-.258.062.513.513,0,0,0-.186.179.8.8,0,0,0-.113.275,1.41,1.41,0,0,0-.041.354v1.172h-.488v-2c0-.062,0-.124,0-.182s0-.137-.01-.234h.46c.007.1.01.186.014.241s.007.113.007.168,0,.1,0,.131h.01a1.351,1.351,0,0,1,.107-.254.654.654,0,0,1,.137-.186.479.479,0,0,1,.182-.113.748.748,0,0,1,.247-.038c.034,0,.072,0,.107.007s.062.01.082.014v.443Zm-2.106,1.481a1.881,1.881,0,0,1-.24.22,1.736,1.736,0,0,1-.313.182,2.12,2.12,0,0,1-.378.124,1.978,1.978,0,0,1-.436.045,1.769,1.769,0,0,1-.691-.127,1.353,1.353,0,0,1-.488-.357,1.488,1.488,0,0,1-.289-.546,2.319,2.319,0,0,1-.1-.694,2.479,2.479,0,0,1,.093-.7,1.392,1.392,0,0,1,.285-.533,1.251,1.251,0,0,1,.481-.34,1.961,1.961,0,0,1,1.165-.058,1.315,1.315,0,0,1,.371.168,1.128,1.128,0,0,1,.271.254,1.617,1.617,0,0,1,.189.313l-.471.172a1.282,1.282,0,0,0-.124-.21.846.846,0,0,0-.175-.175.829.829,0,0,0-.241-.12.967.967,0,0,0-.313-.045,1.027,1.027,0,0,0-.454.093.847.847,0,0,0-.313.258,1.081,1.081,0,0,0-.182.4,2.235,2.235,0,0,0-.058.526,1.964,1.964,0,0,0,.065.526,1.259,1.259,0,0,0,.2.416.843.843,0,0,0,.323.268.987.987,0,0,0,.45.1,1.373,1.373,0,0,0,.3-.031,1.157,1.157,0,0,0,.247-.082,1.367,1.367,0,0,0,.2-.11.9.9,0,0,0,.144-.124v-.577h-.88v-.4h1.361v1.168Zm-5.013-.168a.705.705,0,0,1-.069.309.669.669,0,0,1-.206.234,1.043,1.043,0,0,1-.33.148,1.783,1.783,0,0,1-.45.052,2.476,2.476,0,0,1-.416-.031,1.006,1.006,0,0,1-.316-.107.634.634,0,0,1-.22-.2.831.831,0,0,1-.131-.306l.423-.076a.492.492,0,0,0,.086.2.369.369,0,0,0,.144.117.632.632,0,0,0,.192.055,1.7,1.7,0,0,0,.237.014,1.27,1.27,0,0,0,.237-.021.678.678,0,0,0,.189-.062.313.313,0,0,0,.127-.113.293.293,0,0,0,.045-.168.26.26,0,0,0-.058-.172.45.45,0,0,0-.161-.113,1.28,1.28,0,0,0-.244-.076c-.093-.021-.192-.041-.3-.065a2.781,2.781,0,0,1-.3-.076,1.167,1.167,0,0,1-.265-.12.581.581,0,0,1-.185-.192.549.549,0,0,1-.072-.292.634.634,0,0,1,.065-.3.588.588,0,0,1,.189-.223.918.918,0,0,1,.309-.141,1.753,1.753,0,0,1,.426-.048,1.78,1.78,0,0,1,.368.034.942.942,0,0,1,.3.11.673.673,0,0,1,.33.474l-.429.058a.4.4,0,0,0-.069-.165.407.407,0,0,0-.124-.106.537.537,0,0,0-.168-.055,1.23,1.23,0,0,0-.2-.017.738.738,0,0,0-.4.086.27.27,0,0,0-.137.237.233.233,0,0,0,.052.155.384.384,0,0,0,.137.1,1.56,1.56,0,0,0,.213.069l.271.065c.113.024.223.052.333.086a1.19,1.19,0,0,1,.292.127.612.612,0,0,1,.206.2A.565.565,0,0,1,517.431,465.522Zm-3.051-.746a1.137,1.137,0,0,0-.055-.285.612.612,0,0,0-.127-.216.55.55,0,0,0-.2-.134.786.786,0,0,0-.285-.048.884.884,0,0,0-.251.034.538.538,0,0,0-.22.113.589.589,0,0,0-.161.21.869.869,0,0,0-.072.33h1.374ZM513,465.1a1.211,1.211,0,0,0,.041.326.691.691,0,0,0,.124.258.559.559,0,0,0,.216.168.732.732,0,0,0,.316.058.985.985,0,0,0,.23-.024.636.636,0,0,0,.192-.069.545.545,0,0,0,.148-.113.443.443,0,0,0,.093-.155l.436.089a.956.956,0,0,1-.124.22.87.87,0,0,1-.216.2,1.124,1.124,0,0,1-.323.148,1.558,1.558,0,0,1-.443.058,1.2,1.2,0,0,1-.9-.316,1.316,1.316,0,0,1-.309-.952,1.493,1.493,0,0,1,.1-.591,1.037,1.037,0,0,1,.271-.385,1.008,1.008,0,0,1,.388-.206,1.637,1.637,0,0,1,.45-.062,1.363,1.363,0,0,1,.529.093.925.925,0,0,1,.364.268,1.114,1.114,0,0,1,.21.412,1.949,1.949,0,0,1,.069.526v.052H513Zm-3.323,1.117v-1.361a1.534,1.534,0,0,0-.027-.292.6.6,0,0,0-.093-.23.447.447,0,0,0-.168-.151.572.572,0,0,0-.258-.055.609.609,0,0,0-.265.058.631.631,0,0,0-.2.165.731.731,0,0,0-.134.251,1.033,1.033,0,0,0-.048.316v1.292h-.488v-2.031c0-.058,0-.113,0-.168s0-.127-.01-.22h.464c.007.1.01.172.014.223s0,.1.007.155,0,.093,0,.127h.01a1.026,1.026,0,0,1,.347-.419.884.884,0,0,1,.491-.134,1.094,1.094,0,0,1,.313.041.77.77,0,0,1,.237.12.757.757,0,0,1,.165.182.837.837,0,0,1,.1.234h.01a1.114,1.114,0,0,1,.357-.436.88.88,0,0,1,.512-.148.916.916,0,0,1,.4.076.661.661,0,0,1,.261.21.915.915,0,0,1,.144.309,1.651,1.651,0,0,1,.045.378V466.2h-.488v-1.361a1.534,1.534,0,0,0-.027-.292.735.735,0,0,0-.093-.23.474.474,0,0,0-.168-.151.587.587,0,0,0-.261-.055.569.569,0,0,0-.247.058.624.624,0,0,0-.206.162.812.812,0,0,0-.141.244.88.88,0,0,0-.051.306V466.2h-.495Zm-2.972,0V463.8h.488v2.419Zm0-3.01v-.426h.484v.426Zm-.495-.32v.423h-1.124v2.907h-.519v-2.907h-1.089v-.423Zm-6.9,2.13a1.863,1.863,0,0,1,.065-.512,1.1,1.1,0,0,1,.2-.4.906.906,0,0,1,.33-.261,1.106,1.106,0,0,1,.471-.093,1.049,1.049,0,0,1,.509.12.867.867,0,0,1,.34.354c0-.072,0-.127,0-.165v-1.275h.491v3.072c0,.055,0,.11,0,.155s0,.113.007.2h-.467c-.01-.072-.017-.127-.021-.168s-.007-.086-.007-.134,0-.089,0-.127a.907.907,0,0,1-.354.357,1.124,1.124,0,0,1-.543.117,1.012,1.012,0,0,1-.45-.093.852.852,0,0,1-.316-.258,1.149,1.149,0,0,1-.186-.392A1.883,1.883,0,0,1,499.31,465.017Zm.512,0a1.087,1.087,0,0,0,.172.66.605.605,0,0,0,.519.227.872.872,0,0,0,.265-.045.586.586,0,0,0,.227-.151.773.773,0,0,0,.161-.278,1.3,1.3,0,0,0,.062-.43,1.394,1.394,0,0,0-.058-.43.749.749,0,0,0-.158-.278.541.541,0,0,0-.227-.148.872.872,0,0,0-.265-.045.618.618,0,0,0-.512.227A1.063,1.063,0,0,0,499.822,465.017Zm-1.636,1.2v-1.364a1.155,1.155,0,0,0-.034-.3.575.575,0,0,0-.1-.227.489.489,0,0,0-.179-.144.615.615,0,0,0-.265-.052.684.684,0,0,0-.278.058.569.569,0,0,0-.216.165.743.743,0,0,0-.141.251.924.924,0,0,0-.052.316v1.3h-.488v-2.034c0-.058,0-.113,0-.165s-.007-.124-.014-.216h.464c.007.093.01.165.014.216s.007.1.007.158,0,.1,0,.131h.01a1.02,1.02,0,0,1,1.3-.481.763.763,0,0,1,.275.206.814.814,0,0,1,.151.309,1.507,1.507,0,0,1,.045.381v1.5h-.491Zm-4.876-.677a.706.706,0,0,1,.089-.364.682.682,0,0,1,.244-.241A1.125,1.125,0,0,1,494,464.8a2.538,2.538,0,0,1,.44-.048l.608-.01v-.1a.6.6,0,0,0-.137-.44.56.56,0,0,0-.412-.141,1.054,1.054,0,0,0-.216.021.456.456,0,0,0-.172.072.437.437,0,0,0-.12.131.526.526,0,0,0-.062.2l-.512-.038a.862.862,0,0,1,.1-.282.746.746,0,0,1,.206-.223,1.01,1.01,0,0,1,.33-.148,1.846,1.846,0,0,1,.467-.052,1.554,1.554,0,0,1,.44.055.9.9,0,0,1,.323.165.716.716,0,0,1,.2.271.966.966,0,0,1,.069.371v.952a.585.585,0,0,0,.045.261.171.171,0,0,0,.165.089.2.2,0,0,0,.041,0,.267.267,0,0,0,.052-.007c.017,0,.034,0,.048-.007s.027,0,.038-.007v.3l-.189.031a1.88,1.88,0,0,1-.2.01.649.649,0,0,1-.213-.031.349.349,0,0,1-.144-.093.421.421,0,0,1-.086-.155.788.788,0,0,1-.038-.216h-.017a1,1,0,0,1-.361.378,1.106,1.106,0,0,1-.584.137,1.152,1.152,0,0,1-.344-.048.668.668,0,0,1-.251-.144.581.581,0,0,1-.155-.227A.682.682,0,0,1,493.31,465.539Zm.515-.021a.37.37,0,0,0,.11.289.469.469,0,0,0,.33.1.829.829,0,0,0,.344-.065.768.768,0,0,0,.247-.168.737.737,0,0,0,.148-.227.63.63,0,0,0,.048-.244v-.172l-.471.01a2.474,2.474,0,0,0-.292.027.9.9,0,0,0-.241.076.42.42,0,0,0-.165.144A.411.411,0,0,0,493.826,465.519Zm-2.934.7v-1.364a1.153,1.153,0,0,0-.034-.3.575.575,0,0,0-.1-.227.489.489,0,0,0-.179-.144.631.631,0,0,0-.268-.052.684.684,0,0,0-.278.058.569.569,0,0,0-.216.165.69.69,0,0,0-.141.251.924.924,0,0,0-.052.316v1.3h-.488v-2.034c0-.058,0-.113,0-.165s-.007-.124-.014-.216h.464c.007.093.01.165.014.216s.007.1.007.158,0,.1,0,.131h.01a1.02,1.02,0,0,1,1.3-.481.763.763,0,0,1,.275.206.814.814,0,0,1,.151.309,1.507,1.507,0,0,1,.045.381v1.5h-.488ZM487.967,465a1.544,1.544,0,0,0-.045-.4.705.705,0,0,0-.137-.278.562.562,0,0,0-.227-.161.852.852,0,0,0-.306-.052.69.69,0,0,0-.553.22,1.007,1.007,0,0,0-.192.677,1.417,1.417,0,0,0,.052.405.807.807,0,0,0,.144.282.6.6,0,0,0,.227.165.8.8,0,0,0,.292.055.91.91,0,0,0,.316-.052.584.584,0,0,0,.234-.161.663.663,0,0,0,.144-.282A1.547,1.547,0,0,0,487.967,465Zm.512,0a1.617,1.617,0,0,1-.079.512,1.062,1.062,0,0,1-.237.4,1.111,1.111,0,0,1-.392.258,1.479,1.479,0,0,1-.546.093,1.411,1.411,0,0,1-.529-.093,1.053,1.053,0,0,1-.385-.258,1.079,1.079,0,0,1-.237-.4,1.524,1.524,0,0,1-.082-.512,1.687,1.687,0,0,1,.076-.5,1.1,1.1,0,0,1,.23-.4,1.033,1.033,0,0,1,.388-.261,1.5,1.5,0,0,1,.553-.093,1.555,1.555,0,0,1,.567.093.994.994,0,0,1,.385.261,1.047,1.047,0,0,1,.22.4A1.771,1.771,0,0,1,488.479,465ZM483.456,465a1.058,1.058,0,0,0,.172.643.605.605,0,0,0,.515.23.778.778,0,0,0,.265-.045.541.541,0,0,0,.227-.148.757.757,0,0,0,.161-.275,1.248,1.248,0,0,0,.062-.423,1.317,1.317,0,0,0-.058-.416.717.717,0,0,0-.158-.271.541.541,0,0,0-.227-.148.778.778,0,0,0-.265-.045.62.62,0,0,0-.515.227A1.082,1.082,0,0,0,483.456,465Zm-.509,0a1.824,1.824,0,0,1,.065-.509,1.042,1.042,0,0,1,.2-.4.934.934,0,0,1,.33-.258,1.107,1.107,0,0,1,.471-.093,1.026,1.026,0,0,1,.505.12.838.838,0,0,1,.337.354c0-.038,0-.079.007-.127s.007-.093.007-.134.01-.1.021-.165h.467c0,.086-.007.155-.007.2s0,.1,0,.155v1.993a1.424,1.424,0,0,1-.079.488.992.992,0,0,1-.234.361,1.016,1.016,0,0,1-.375.223,1.574,1.574,0,0,1-.512.076,2.054,2.054,0,0,1-.436-.045,1.025,1.025,0,0,1-.323-.131.691.691,0,0,1-.216-.206.785.785,0,0,1-.117-.268l.488-.069a.478.478,0,0,0,.206.271.763.763,0,0,0,.412.1.847.847,0,0,0,.289-.048.5.5,0,0,0,.216-.148.718.718,0,0,0,.141-.247,1.083,1.083,0,0,0,.052-.354v-.405a.917.917,0,0,1-.354.361,1.113,1.113,0,0,1-.543.12,1.062,1.062,0,0,1-.45-.089.879.879,0,0,1-.316-.254,1.164,1.164,0,0,1-.186-.388A1.939,1.939,0,0,1,482.947,465Zm-.979-.22a1.136,1.136,0,0,0-.055-.285.612.612,0,0,0-.127-.216.551.551,0,0,0-.2-.134.786.786,0,0,0-.285-.048.884.884,0,0,0-.251.034.538.538,0,0,0-.22.113.59.59,0,0,0-.162.21.869.869,0,0,0-.072.33h1.374Zm-1.381.323a1.214,1.214,0,0,0,.041.326.692.692,0,0,0,.124.258.56.56,0,0,0,.216.168.742.742,0,0,0,.316.058.984.984,0,0,0,.23-.024.637.637,0,0,0,.192-.069.545.545,0,0,0,.148-.113.442.442,0,0,0,.093-.155l.436.089a.956.956,0,0,1-.124.22.87.87,0,0,1-.216.2,1.123,1.123,0,0,1-.323.148,1.542,1.542,0,0,1-.443.058,1.2,1.2,0,0,1-.9-.316,1.317,1.317,0,0,1-.309-.952,1.493,1.493,0,0,1,.1-.591,1.037,1.037,0,0,1,.271-.385,1.008,1.008,0,0,1,.388-.206,1.636,1.636,0,0,1,.45-.062,1.362,1.362,0,0,1,.529.093.924.924,0,0,1,.364.268,1.064,1.064,0,0,1,.21.412,1.946,1.946,0,0,1,.069.526v.052h-1.869Zm-2.343-1.811-.56,1.591h1.11Zm.3-.4,1.23,3.33h-.526l-.333-.935h-1.347l-.34.935H476.7l1.237-3.33Zm-4.037,3.33v-1.364a1.153,1.153,0,0,0-.034-.3.575.575,0,0,0-.1-.227.489.489,0,0,0-.179-.144.615.615,0,0,0-.265-.052.684.684,0,0,0-.278.058.569.569,0,0,0-.216.165.69.69,0,0,0-.141.251.925.925,0,0,0-.052.316v1.3h-.488v-2.034c0-.058,0-.113,0-.165s-.007-.124-.014-.216h.464c.007.093.01.165.014.216s.007.1.007.158,0,.1,0,.131h.01a1.02,1.02,0,0,1,1.3-.481.763.763,0,0,1,.275.206.814.814,0,0,1,.151.309,1.508,1.508,0,0,1,.045.381v1.5H474.5Zm-3.738-2.928-.56,1.591h1.11Zm.3-.4,1.23,3.33h-.526l-.333-.935h-1.347l-.34.935h-.529l1.237-3.33Z" transform="translate(-290.025 -411.557)"/><path class="a" d="M672.158,392.672a3.279,3.279,0,0,0-.179-1.378,2.65,2.65,0,0,0-.66-.993,2.88,2.88,0,0,0-.993-.612,3.494,3.494,0,0,0-1.185-.2,2.906,2.906,0,0,0-2.275.935,3.478,3.478,0,0,0-.838,2.419v2.467a13.649,13.649,0,0,0,2.419.024,7.045,7.045,0,0,0,1.9-.405,3.163,3.163,0,0,0,1.282-.862,2.242,2.242,0,0,0,.526-1.392m-3.017-4.309a6.261,6.261,0,0,1,1.917.3,5.051,5.051,0,0,1,1.642.873,4.113,4.113,0,0,1,1.113,1.4,3.745,3.745,0,0,1,.361,1.855,3.092,3.092,0,0,1-.491,1.581,4,4,0,0,1-1.127,1.127,5.815,5.815,0,0,1-1.546.718,10.226,10.226,0,0,1-1.749.371,9.532,9.532,0,0,1-1.735.058,7.571,7.571,0,0,1-1.5-.216v1.2a2.733,2.733,0,0,0,.478,1.639,2.792,2.792,0,0,0,1.1.873,4.528,4.528,0,0,0,1.378.361c.488.048.921.072,1.306.072h2.563v.766a3.476,3.476,0,0,1-.838.275,6.962,6.962,0,0,1-1.388.107h-.959a14.047,14.047,0,0,1-1.749-.131,6.248,6.248,0,0,1-1.9-.564,4.155,4.155,0,0,1-1.522-1.258,3.524,3.524,0,0,1-.6-2.24V393.72a6.121,6.121,0,0,1,.361-2.13,4.984,4.984,0,0,1,1.031-1.7,4.715,4.715,0,0,1,1.639-1.127A5.777,5.777,0,0,1,669.142,388.363Zm-7.377-3.4a8.913,8.913,0,0,0-1.137.072,2.1,2.1,0,0,0-.993.385,2.058,2.058,0,0,0-.684.935,4.191,4.191,0,0,0-.2,1.725V389.2h3.9v.766a3.477,3.477,0,0,1-.838.275,6.962,6.962,0,0,1-1.388.106h-1.677v11.377h-2.13v-11.4h-1.151V389.2h1.151v-1.2a3.8,3.8,0,0,1,.491-2.227,3.628,3.628,0,0,1,1.34-1.268,5.17,5.17,0,0,1,1.725-.564,11.5,11.5,0,0,1,1.639-.131h2.179v.766a3.475,3.475,0,0,1-.838.275A7.543,7.543,0,0,1,661.764,384.961Zm-8.357,3.687h-2.13v13.078h2.13Zm.141-3.017a1.2,1.2,0,1,1-2.391,0,1.175,1.175,0,0,1,.347-.838,1.179,1.179,0,0,1,1.7,0A1.161,1.161,0,0,1,653.549,385.631Zm-6.539,14.943a13.782,13.782,0,0,1,1.378.131,3,3,0,0,1,.849.251v.766H647.01c-.337,0-.711-.017-1.127-.048a7.962,7.962,0,0,1-1.268-.2,7.447,7.447,0,0,1-1.268-.43,3.481,3.481,0,0,1-1.089-.742,3.6,3.6,0,0,1-.756-1.137,3.83,3.83,0,0,1-.265-1.6V383.81h2.13v13.651a2.98,2.98,0,0,0,.323,1.581,2.485,2.485,0,0,0,.887.921,3.692,3.692,0,0,0,1.185.454A7.165,7.165,0,0,0,647.01,400.575Z" transform="translate(-402.935 -359.721)"/><path class="a" d="M431.371,404.354l-2.587-7.954-2.584,7.961Z" transform="translate(-261.787 -367.985)"/><path class="a" d="M382.408,389.342l-.88,2.769-3.4,0,5.807-17.929,4.041,0L386.29,369l-25.32,8.267,8.267,25.314,22.245-7.26-1.948-5.979Z" transform="translate(-218.97 -350)"/><path class="a" d="M460.571,397.726l-9.6.01v-4.625l6.772-.007-.007-2.972-6.766.01V386.06H459.9v-3.12H447.59v8.466l3.089,9.446h9.9Zm47.373-14.693v12.105l-7.47-12.105h-3.206v17.916h3.082V388.665l7.583,12.284h3.092V383.033Zm-55.273,24.046h47.7v-1.825h-48.3Zm34.1-5.659c5.223,0,8.367-4.364,8.363-9.422s-3.158-9.4-8.387-9.4-8.353,4.364-8.346,9.418S481.552,401.426,486.775,401.419Zm-.024-15.7c3.488-.007,4.944,3.168,4.944,6.281s-1.447,6.3-4.931,6.3-4.934-3.165-4.934-6.288S483.28,385.723,486.751,385.72Zm-17.665,15.723a6.159,6.159,0,0,0,4.494-1.993v1.539h2.783V391.2h-7.174l.007,2.969,4.23-.007a4.222,4.222,0,0,1-4.343,4.164c-3.419,0-4.841-3.165-4.841-6.291s1.409-6.288,4.824-6.291a4.2,4.2,0,0,1,4.285,3.419l3-1.285c-1.3-3.426-3.8-5.257-7.291-5.254-5.127.01-8.2,4.364-8.2,9.415S463.605,401.454,469.086,401.443Z" transform="translate(-275.827 -358.927)"/></g></svg>