<svg xmlns="http://www.w3.org/2000/svg" viewBox="0 0 22.78 29.39"><defs><style>.cls-1,.cls-2{fill:#087ec3;}.cls-1{stroke:#087ec3;stroke-miterlimit:10;stroke-width:0.2px;}</style></defs><title>Asset 10</title><g id="Layer_2" data-name="Layer 2"><g id="Layer_1-2" data-name="Layer 1"><g id="Claim_Icon" data-name="Claim Icon"><g id="Group_17" data-name="Group 17"><g id="POlicy_Doc_Icon" data-name="POlicy Doc Icon"><g id="Group_2" data-name="Group 2"><path id="Path_14" data-name="Path 14" class="cls-1" d="M9.38,19.55a.35.35,0,0,0,.33,0l1.86-.86,1.86.86a.34.34,0,0,0,.45-.17.32.32,0,0,0,0-.14v-1.8H21a.34.34,0,0,0,.34-.34h0V.44A.34.34,0,0,0,21,.1H2.32A.34.34,0,0,0,2,.44H2V17.12a.34.34,0,0,0,.34.34H9.23v1.79A.33.33,0,0,0,9.38,19.55Zm2.27-4.86a3.24,3.24,0,1,1,3.24-3.24h0A3.25,3.25,0,0,1,11.65,14.69ZM9.91,15a3.8,3.8,0,0,0,1.32.39v2.78l-1.32.61Zm2,3.17V15.36A4,4,0,0,0,13.23,15v3.7ZM2.66,16.79V.79h18v16H13.92V14.64a3.92,3.92,0,1,0-5.46-1,3.8,3.8,0,0,0,.78.82v2.27H2.66Z"/><path id="Path_15" data-name="Path 15" class="cls-1" d="M5.28,4.45h9.1a.34.34,0,1,0,0-.68H5.28a.34.34,0,0,0,0,.68Z"/></g></g><path id="Path_36" data-name="Path 36" class="cls-2" d="M21.75,23.91a1.06,1.06,0,0,1-.55,1.36l-.05,0-5.7,3.15A19.63,19.63,0,0,1,11,27.83c-.57-.18-1.25-.44-1.92-.68a15.29,15.29,0,0,0-3.51-1.06,25,25,0,0,0-3.72.82L1,23a27.87,27.87,0,0,1,8.8-1.18l5.58,1.77A1.06,1.06,0,0,1,15.92,25a1,1,0,0,1-.55.56,1,1,0,0,1-.72,0l-.05,0L9.17,23.76a.47.47,0,0,0-.3.9l5.41,1.74a1.89,1.89,0,0,0,1.44,0,1.94,1.94,0,0,0,1.08-1.08c0-.05,0-.1.05-.16l3.65-1.86a1,1,0,0,1,.71,0A1.11,1.11,0,0,1,21.75,23.91Zm-.15,2.23a2,2,0,0,0,1-2.56,1.94,1.94,0,0,0-1.06-1.1,1.85,1.85,0,0,0-1.46,0h0L16.9,24.12a2,2,0,0,0-1.1-1.36h-.05l-5.67-1.8-.09,0c-.13,0-3.37-.38-9.64,1.32a.47.47,0,0,0-.34.55L1,27.6a.5.5,0,0,0,.22.31.46.46,0,0,0,.38.05,29.41,29.41,0,0,1,4-.92,18.63,18.63,0,0,1,3.18,1c.67.25,1.37.5,1.95.69a21,21,0,0,0,4.86.66h0a.46.46,0,0,0,.23-.06Z"/></g></g></g></g></svg>