<svg xmlns="http://www.w3.org/2000/svg" viewBox="0 0 21.97 21.96"><defs><style>.cls-1{fill:#087ec3;stroke:#087ec3;stroke-width:0.5px;}</style></defs><title>Asset 17</title><g id="Layer_2" data-name="Layer 2"><g id="Layer_1-2" data-name="Layer 1"><g id="Virtual_Assistant_icon" data-name="Virtual Assistant icon"><path id="Path_73" data-name="Path 73" class="cls-1" d="M16.33.32l-1,.33L1.29,5.31l-1,.33.33,1L5.32,20.68l.33,1,1-.33,14.07-4.67,1-.33-.33-1L16.66,1.29ZM10.85,14a2.82,2.82,0,0,1-2-.84A.6.6,0,0,0,8.4,13a.67.67,0,0,0-.44.18.64.64,0,0,0,0,.89,4.15,4.15,0,0,0,2.59,1.18h.27a4.13,4.13,0,0,0,2.9-1.19.65.65,0,0,0,0-.89A.6.6,0,0,0,13.3,13a.67.67,0,0,0-.44.18A2.79,2.79,0,0,1,10.85,14ZM8.49,10.05a.58.58,0,0,0,.58-.58V8.1a.58.58,0,0,0-1.16,0h0V9.47a.59.59,0,0,0,.58.58Zm4.79,0a.58.58,0,0,0,.58-.58V8.1a.58.58,0,0,0-1.16,0h0V9.47a.57.57,0,0,0,.57.58Zm2.4-8.45,4.67,14.07L6.28,20.34,1.61,6.27Z"/></g></g></g></svg>