<?xml version="1.0" encoding="utf-8"?>
<!-- Generator: Adobe Illustrator 23.0.3, SVG Export Plug-In . SVG Version: 6.00 Build 0)  -->
<svg version="1.1" id="Layer_1" xmlns="http://www.w3.org/2000/svg" xmlns:xlink="http://www.w3.org/1999/xlink" x="0px" y="0px"
	 viewBox="0 0 129.2 36.7" style="enable-background:new 0 0 129.2 36.7;" xml:space="preserve">
<style type="text/css">
	.st0{fill:#FFFFFF;}
</style>
<path class="st0" d="M38.3,33.1l-0.4,1.2h-0.5l1.3-3.9h0.6l1.3,3.9h-0.5l-0.4-1.2H38.3z M39.5,32.7l-0.4-1.1
	c-0.1-0.3-0.1-0.5-0.2-0.7h0c-0.1,0.2-0.1,0.5-0.2,0.7l-0.4,1.1H39.5z"/>
<path class="st0" d="M41.1,32.3c0-0.3,0-0.5,0-0.8h0.4l0,0.5h0c0.1-0.3,0.5-0.5,0.9-0.5c0.4,0,1,0.2,1,1.2v1.7H43v-1.6
	c0-0.5-0.2-0.8-0.6-0.8c-0.3,0-0.6,0.2-0.7,0.5c0,0.1,0,0.2,0,0.2v1.7h-0.5V32.3z"/>
<path class="st0" d="M46.2,33.1l-0.4,1.2h-0.5l1.3-3.9h0.6l1.3,3.9H48l-0.4-1.2H46.2z M47.5,32.7l-0.4-1.1c-0.1-0.3-0.1-0.5-0.2-0.7
	h0c-0.1,0.2-0.1,0.5-0.2,0.7l-0.4,1.1H47.5z"/>
<path class="st0" d="M49.1,32.4c0-0.4,0-0.6,0-0.9h0.5l0,0.5h0c0.2-0.3,0.5-0.5,1-0.5c0.7,0,1.2,0.6,1.2,1.4c0,1-0.6,1.5-1.3,1.5
	c-0.4,0-0.7-0.2-0.9-0.4h0v1.5h-0.5V32.4z M49.6,33.2c0,0.1,0,0.1,0,0.2c0.1,0.4,0.4,0.6,0.8,0.6c0.5,0,0.8-0.4,0.8-1.1
	c0-0.6-0.3-1-0.8-1c-0.3,0-0.7,0.2-0.8,0.6c0,0.1,0,0.1,0,0.2V33.2z"/>
<path class="st0" d="M52.3,32.4c0-0.4,0-0.6,0-0.9h0.5l0,0.5h0c0.2-0.3,0.5-0.5,1-0.5c0.7,0,1.2,0.6,1.2,1.4c0,1-0.6,1.5-1.3,1.5
	c-0.4,0-0.7-0.2-0.9-0.4h0v1.5h-0.5V32.4z M52.8,33.2c0,0.1,0,0.1,0,0.2c0.1,0.4,0.4,0.6,0.8,0.6c0.5,0,0.8-0.4,0.8-1.1
	c0-0.6-0.3-1-0.8-1c-0.3,0-0.7,0.2-0.8,0.6c0,0.1,0,0.1,0,0.2V33.2z"/>
<path class="st0" d="M55.6,30.2h0.5v4.1h-0.5V30.2z"/>
<path class="st0" d="M57.3,33c0,0.7,0.5,1,1,1c0.4,0,0.6-0.1,0.8-0.1l0.1,0.4c-0.2,0.1-0.5,0.2-0.9,0.2c-0.9,0-1.4-0.6-1.4-1.4
	s0.5-1.5,1.3-1.5c0.9,0,1.2,0.8,1.2,1.3c0,0.1,0,0.2,0,0.2H57.3z M58.8,32.7c0-0.3-0.1-0.8-0.7-0.8c-0.5,0-0.7,0.5-0.8,0.8H58.8z"/>
<path class="st0" d="M62.6,34.3l0-0.4h0c-0.2,0.2-0.5,0.4-0.9,0.4c-0.6,0-0.9-0.4-0.9-0.8c0-0.7,0.6-1,1.7-1v-0.1
	c0-0.2-0.1-0.6-0.6-0.6c-0.3,0-0.5,0.1-0.7,0.2l-0.1-0.3c0.2-0.1,0.6-0.2,0.9-0.2c0.9,0,1.1,0.6,1.1,1.1v1c0,0.2,0,0.5,0,0.7H62.6z
	 M62.6,32.9c-0.6,0-1.2,0.1-1.2,0.6c0,0.3,0.2,0.5,0.5,0.5c0.4,0,0.6-0.2,0.7-0.5c0-0.1,0-0.1,0-0.2V32.9z"/>
<path class="st0" d="M63.9,32.3c0-0.3,0-0.5,0-0.8h0.4l0,0.5h0c0.1-0.3,0.5-0.5,0.9-0.5c0.4,0,1,0.2,1,1.2v1.7h-0.5v-1.6
	c0-0.5-0.2-0.8-0.6-0.8c-0.3,0-0.6,0.2-0.7,0.5c0,0.1,0,0.2,0,0.2v1.7h-0.5V32.3z"/>
<path class="st0" d="M69.5,30.2v3.4c0,0.2,0,0.5,0,0.7H69l0-0.5h0c-0.2,0.3-0.5,0.5-1,0.5c-0.7,0-1.2-0.6-1.2-1.4
	c0-0.9,0.6-1.5,1.3-1.5c0.4,0,0.7,0.2,0.8,0.4h0v-1.7H69.5z M69,32.7c0-0.1,0-0.2,0-0.2c-0.1-0.3-0.4-0.6-0.7-0.6
	c-0.5,0-0.8,0.5-0.8,1.1c0,0.6,0.3,1,0.8,1c0.3,0,0.7-0.2,0.7-0.6c0-0.1,0-0.1,0-0.2V32.7z"/>
<path class="st0" d="M71.6,30.4h0.5v3.5h1.7v0.4h-2.2V30.4z"/>
<path class="st0" d="M74.8,30.7c0,0.2-0.1,0.3-0.3,0.3c-0.2,0-0.3-0.1-0.3-0.3c0-0.2,0.1-0.3,0.3-0.3C74.7,30.4,74.8,30.6,74.8,30.7
	z M74.3,34.3v-2.8h0.5v2.8H74.3z"/>
<path class="st0" d="M75.8,31.5l0.5,1.6c0.1,0.3,0.2,0.5,0.2,0.7h0c0.1-0.2,0.1-0.5,0.2-0.7l0.5-1.6h0.5l-1.1,2.8h-0.5l-1.1-2.8
	H75.8z"/>
<path class="st0" d="M82.6,34.1c-0.2,0.1-0.7,0.2-1.2,0.2c-0.6,0-1.1-0.1-1.5-0.5c-0.3-0.3-0.5-0.8-0.5-1.4c0-1.2,0.8-2,2.1-2
	c0.5,0,0.8,0.1,1,0.2L82.3,31c-0.2-0.1-0.5-0.2-0.9-0.2c-0.9,0-1.6,0.6-1.6,1.6c0,1,0.6,1.6,1.5,1.6c0.3,0,0.6,0,0.7-0.1v-1.2h-0.8
	v-0.4h1.3V34.1z"/>
<path class="st0" d="M83.3,32.4c0-0.3,0-0.6,0-0.9h0.4l0,0.5h0c0.1-0.4,0.4-0.6,0.8-0.6c0.1,0,0.1,0,0.1,0V32c-0.1,0-0.1,0-0.2,0
	c-0.4,0-0.6,0.3-0.7,0.7c0,0.1,0,0.2,0,0.2v1.5h-0.5V32.4z"/>
<path class="st0" d="M87.7,32.9c0,1-0.7,1.5-1.4,1.5c-0.8,0-1.3-0.6-1.3-1.4c0-0.9,0.6-1.5,1.4-1.5C87.1,31.5,87.7,32,87.7,32.9z
	 M85.5,32.9c0,0.6,0.4,1.1,0.8,1.1c0.5,0,0.8-0.5,0.8-1.1c0-0.5-0.2-1.1-0.8-1.1S85.5,32.4,85.5,32.9z"/>
<path class="st0" d="M90.7,33.6c0,0.3,0,0.5,0,0.8h-0.5l0-0.5h0c-0.1,0.2-0.4,0.5-0.9,0.5c-0.4,0-1-0.2-1-1.2v-1.6h0.5v1.5
	c0,0.5,0.2,0.9,0.6,0.9c0.3,0,0.6-0.2,0.7-0.5c0-0.1,0-0.2,0-0.3v-1.7h0.5V33.6z"/>
<path class="st0" d="M91.5,32.4c0-0.4,0-0.6,0-0.9h0.5l0,0.5h0c0.2-0.3,0.5-0.5,1-0.5c0.7,0,1.2,0.6,1.2,1.4c0,1-0.6,1.5-1.3,1.5
	c-0.4,0-0.7-0.2-0.9-0.4h0v1.5h-0.5V32.4z M92,33.2c0,0.1,0,0.1,0,0.2c0.1,0.4,0.4,0.6,0.8,0.6c0.5,0,0.8-0.4,0.8-1.1
	c0-0.6-0.3-1-0.8-1c-0.3,0-0.7,0.2-0.8,0.6c0,0.1,0,0.1,0,0.2V33.2z"/>
<path class="st0" d="M98.7,34.2c-0.2,0.1-0.6,0.2-1,0.2c-1.1,0-1.9-0.7-1.9-2c0-1.2,0.8-2,2-2c0.5,0,0.8,0.1,0.9,0.2l-0.1,0.4
	c-0.2-0.1-0.5-0.2-0.8-0.2c-0.9,0-1.5,0.6-1.5,1.6c0,1,0.5,1.6,1.5,1.6c0.3,0,0.6-0.1,0.8-0.2L98.7,34.2z"/>
<path class="st0" d="M101.8,32.9c0,1-0.7,1.5-1.4,1.5c-0.8,0-1.3-0.6-1.3-1.4c0-0.9,0.6-1.5,1.4-1.5C101.3,31.5,101.8,32,101.8,32.9
	z M99.6,32.9c0,0.6,0.4,1.1,0.8,1.1c0.5,0,0.8-0.5,0.8-1.1c0-0.5-0.2-1.1-0.8-1.1S99.6,32.4,99.6,32.9z"/>
<path class="st0" d="M102.4,32.3c0-0.3,0-0.5,0-0.8h0.4l0,0.5h0c0.2-0.3,0.4-0.5,0.9-0.5c0.4,0,0.7,0.2,0.8,0.6h0
	c0.1-0.2,0.2-0.3,0.3-0.4c0.2-0.1,0.4-0.2,0.6-0.2c0.4,0,0.9,0.2,0.9,1.2v1.6h-0.5v-1.6c0-0.5-0.2-0.9-0.6-0.9
	c-0.3,0-0.5,0.2-0.6,0.5c0,0.1,0,0.2,0,0.3v1.7h-0.5v-1.7c0-0.4-0.2-0.8-0.6-0.8c-0.3,0-0.5,0.3-0.6,0.5c0,0.1,0,0.2,0,0.2v1.7h-0.5
	V32.3z"/>
<path class="st0" d="M107.3,32.4c0-0.4,0-0.6,0-0.9h0.5l0,0.5h0c0.2-0.3,0.5-0.5,1-0.5c0.7,0,1.2,0.6,1.2,1.4c0,1-0.6,1.5-1.3,1.5
	c-0.4,0-0.7-0.2-0.9-0.4h0v1.5h-0.5V32.4z M107.8,33.2c0,0.1,0,0.1,0,0.2c0.1,0.4,0.4,0.6,0.8,0.6c0.5,0,0.8-0.4,0.8-1.1
	c0-0.6-0.3-1-0.8-1c-0.3,0-0.7,0.2-0.8,0.6c0,0.1,0,0.1,0,0.2V33.2z"/>
<path class="st0" d="M112.1,34.3l0-0.4h0c-0.2,0.2-0.5,0.4-0.9,0.4c-0.6,0-0.9-0.4-0.9-0.8c0-0.7,0.6-1,1.7-1v-0.1
	c0-0.2-0.1-0.6-0.6-0.6c-0.3,0-0.5,0.1-0.7,0.2l-0.1-0.3c0.2-0.1,0.6-0.2,0.9-0.2c0.9,0,1.1,0.6,1.1,1.1v1c0,0.2,0,0.5,0,0.7H112.1z
	 M112,32.9c-0.6,0-1.2,0.1-1.2,0.6c0,0.3,0.2,0.5,0.5,0.5c0.4,0,0.6-0.2,0.7-0.5c0-0.1,0-0.1,0-0.2V32.9z"/>
<path class="st0" d="M113.3,32.3c0-0.3,0-0.5,0-0.8h0.4l0,0.5h0c0.1-0.3,0.5-0.5,0.9-0.5c0.4,0,1,0.2,1,1.2v1.7h-0.5v-1.6
	c0-0.5-0.2-0.8-0.6-0.8c-0.3,0-0.6,0.2-0.7,0.5c0,0.1,0,0.2,0,0.2v1.7h-0.5V32.3z"/>
<path class="st0" d="M116.6,31.5l0.6,1.7c0.1,0.2,0.1,0.4,0.2,0.6h0c0.1-0.2,0.1-0.4,0.2-0.6l0.6-1.6h0.5l-0.8,2
	c-0.4,1-0.6,1.4-1,1.7c-0.2,0.2-0.5,0.3-0.6,0.3l-0.1-0.4c0.1,0,0.3-0.1,0.4-0.2c0.1-0.1,0.3-0.3,0.4-0.6c0-0.1,0-0.1,0-0.1
	c0,0,0-0.1,0-0.1l-1-2.6H116.6z"/>
<g>
	<path class="st0" d="M17.6,27.4l-1-2.6h-6.5l-1,2.6H5.5l5.8-15.1h4l5.8,15.1H17.6z M13.4,15.5L11,22h4.7L13.4,15.5z"/>
	<path class="st0" d="M22.6,27.4V14.9h6.3c2.8,0,4.4,1.9,4.4,4.1c0,2.2-1.5,4.1-4.4,4.1h-3.3v4.3H22.6z M30.2,19
		c0-0.9-0.6-1.5-1.7-1.5h-2.9v3h2.9C29.6,20.5,30.2,19.9,30.2,19z"/>
	<path class="st0" d="M35.1,27.4V14.9h6.3c2.8,0,4.4,1.9,4.4,4.1c0,2.2-1.5,4.1-4.4,4.1h-3.3v4.3H35.1z M42.8,19
		c0-0.9-0.6-1.5-1.7-1.5h-2.9v3h2.9C42.2,20.5,42.8,19.9,42.8,19z"/>
	<path class="st0" d="M47.7,27.4V14.9h3v9.9h5.5v2.6H47.7z"/>
	<path class="st0" d="M58.3,27.4V14.9h9.4v2.6h-6.4v2.2h6.3v2.6h-6.3v2.4h6.4v2.6H58.3z"/>
	<path class="st0" d="M75.9,27.4V12.3h3.2v12.3h6.4v2.8H75.9z"/>
	<path class="st0" d="M87.6,27.4V14.9h3v12.5H87.6z"/>
	<path class="st0" d="M97,27.4l-5.1-12.5h3.4l3.5,9.2l3.5-9.2h3.4l-5.1,12.5H97z"/>
</g>
<path class="st0" d="M113.9,12.5c0,0.7,0.2,1.5,0.5,2.1c-1-0.4-1.8-1.2-2.3-2.1c0.5-0.9,1.4-1.7,2.3-2.1
	C114.1,11,113.9,11.7,113.9,12.5z"/>
<path class="st0" d="M116.5,16.9c-0.9-0.5-1.7-1.4-2.1-2.3c0.6,0.3,1.4,0.5,2.1,0.5s1.5-0.2,2.1-0.5
	C118.1,15.6,117.4,16.4,116.5,16.9z"/>
<path class="st0" d="M118.6,14.6c0.3-0.6,0.5-1.4,0.5-2.1c0-0.7-0.2-1.5-0.5-2.1c1,0.4,1.8,1.2,2.3,2.1
	C120.4,13.4,119.6,14.2,118.6,14.6z"/>
<path class="st0" d="M121.1,17.1c-0.8,1.8-2.6,3-4.7,3c-2.1,0-3.9-1.2-4.7-3c0.6,0.3,1.4,0.5,2.1,0.5c0.9,0,1.8-0.2,2.6-0.7
	c0.7,0.4,1.6,0.7,2.6,0.7C119.8,17.6,120.5,17.4,121.1,17.1z"/>
<path class="st0" d="M113.9,12.5c0,0.7,0.2,1.5,0.5,2.1c-1-0.4-1.8-1.2-2.3-2.1c0.5-0.9,1.4-1.7,2.3-2.1
	C114.1,11,113.9,11.7,113.9,12.5z"/>
<path class="st0" d="M116.5,8.1c0.9,0.5,1.7,1.3,2.1,2.3c-0.6-0.3-1.4-0.5-2.1-0.5s-1.5,0.2-2.1,0.5C114.8,9.4,115.6,8.6,116.5,8.1z
	"/>
<path class="st0" d="M119,7.4c-0.9,0-1.8,0.2-2.6,0.7c-0.7-0.4-1.6-0.7-2.6-0.7c-0.7,0-1.5,0.2-2.1,0.5c0.8-1.8,2.6-3,4.7-3
	c2.1,0,3.9,1.2,4.7,3C120.5,7.5,119.8,7.4,119,7.4z"/>
<path class="st0" d="M120.9,12.5c-0.5,0.9-1.4,1.7-2.3,2.1c0.3-0.6,0.5-1.4,0.5-2.1c0-0.7-0.2-1.5-0.5-2.1
	C119.6,10.8,120.4,11.6,120.9,12.5z"/>
<path class="st0" d="M111.4,9.9c0,0.9,0.2,1.8,0.7,2.6c-0.4,0.7-0.7,1.6-0.7,2.6c0,0.7,0.2,1.5,0.5,2.1c-1.8-0.8-3-2.6-3-4.7
	c0-2.1,1.2-3.9,3-4.7C111.5,8.5,111.4,9.2,111.4,9.9z"/>
<path class="st0" d="M113.9,12.5c0,0.7,0.2,1.5,0.5,2.1c-1-0.4-1.8-1.2-2.3-2.1c0.5-0.9,1.4-1.7,2.3-2.1
	C114.1,11,113.9,11.7,113.9,12.5z"/>
<path class="st0" d="M118.6,14.6c-0.4,1-1.2,1.8-2.1,2.3c-0.9-0.5-1.7-1.4-2.1-2.3c0.6,0.3,1.4,0.5,2.1,0.5S117.9,14.9,118.6,14.6z"
	/>
<path class="st0" d="M116.5,9.9c-0.7,0-1.5,0.2-2.1,0.5c0.4-1,1.2-1.8,2.1-2.3c0.9,0.5,1.7,1.3,2.1,2.3
	C117.9,10.1,117.2,9.9,116.5,9.9z"/>
<path class="st0" d="M118.6,10.4c-0.6-0.3-1.4-0.5-2.1-0.5s-1.5,0.2-2.1,0.5c0.4-1,1.2-1.8,2.1-2.3C117.4,8.6,118.1,9.4,118.6,10.4z
	"/>
<path class="st0" d="M116.5,15c0.7,0,1.5-0.2,2.1-0.5c-0.4,1-1.2,1.8-2.1,2.3c-0.9-0.5-1.7-1.4-2.1-2.3C115,14.9,115.7,15,116.5,15z
	"/>
<path class="st0" d="M120.9,12.5c-0.5,0.9-1.4,1.7-2.3,2.1c0.3-0.6,0.5-1.4,0.5-2.1c0-0.7-0.2-1.5-0.5-2.1
	C119.6,10.8,120.4,11.6,120.9,12.5z"/>
<path class="st0" d="M124.2,12.5c0,2.1-1.2,3.9-3,4.7c0.3-0.6,0.5-1.4,0.5-2.1c0-0.9-0.2-1.8-0.7-2.6c0.4-0.8,0.7-1.6,0.7-2.6
	c0-0.7-0.2-1.5-0.5-2.1C122.9,8.6,124.2,10.4,124.2,12.5z"/>
</svg>
