<svg xmlns="http://www.w3.org/2000/svg" viewBox="0 0 20.38 13.76"><defs><style>.cls-1{fill:#087ec3;stroke:#087ec3;stroke-width:0.5px;}</style></defs><title>Asset 18</title><g id="Layer_2" data-name="Layer 2"><g id="Layer_1-2" data-name="Layer 1"><g id="Email_icon" data-name="Email icon"><path id="Path_74" data-name="Path 74" class="cls-1" d="M1.93,1.08H18.45a.67.67,0,0,1,.24,0l-8.5,7.29L1.69,1.12A.67.67,0,0,1,1.93,1.08ZM1.07,11.85V1.91a.69.69,0,0,1,0-.2L9.92,9.27a.42.42,0,0,0,.54,0l8.82-7.56a.69.69,0,0,1,0,.2v9.94a.85.85,0,0,1-.86.83H1.93a.85.85,0,0,1-.86-.83Zm17.38,1.66a1.66,1.66,0,0,0,1.68-1.66V1.91A1.68,1.68,0,0,0,18.45.25H1.93A1.67,1.67,0,0,0,.25,1.91v9.94a1.68,1.68,0,0,0,1.68,1.66Z"/></g></g></g></svg>