<svg xmlns="http://www.w3.org/2000/svg" viewBox="0 0 29.94 24.72"><defs><style>.cls-1,.cls-2{fill:#087ec3;}.cls-2{stroke:#087ec3;stroke-miterlimit:10;stroke-width:0.5px;}</style></defs><title>Asset 9</title><g id="Layer_2" data-name="Layer 2"><g id="Layer_1-2" data-name="Layer 1"><g id="Add_Nominee" data-name="Add Nominee"><g id="_02_Update_Nominee" data-name=" 02 Update Nominee"><path id="Path_26" data-name="Path 26" class="cls-1" d="M16.64,17.43,16,16.79a10.6,10.6,0,0,0,2.83-7V5.15a.19.19,0,0,0,0-.08C18.3,2,15,0,12.21,0h-.05c-2.77,0-6,2.05-6.56,5.07,0,0,0,.06,0,.08V9.79a10.67,10.67,0,0,0,2.7,6.88l-8,4.4a.51.51,0,0,0-.26.44V23.1a1.31,1.31,0,0,0,1.29,1.3H13.21a.51.51,0,0,0,0-1H1.3A.28.28,0,0,1,1,23.1V21.83l8.39-4.6a.52.52,0,0,0,.11-.1l0,0h0A.54.54,0,0,0,9.64,17s0,0,0-.05a.31.31,0,0,0,0-.1.34.34,0,0,0,0-.1s0,0,0-.05a.57.57,0,0,0,0-.14h0l-.06-.06a.27.27,0,0,0-.07-.08C6.67,14.07,6.63,9.85,6.63,9.81V5.21C7.07,2.74,9.93,1,12.23,1h0c2.29,0,5.11,1.73,5.55,4.18V9.8s0,4.26-2.87,6.59c0,0,0,0,0,0h0a.16.16,0,0,0,0,.07l-.06.08,0,.1a.3.3,0,0,0,0,.1.38.38,0,0,0,0,.1.44.44,0,0,0,0,.1.41.41,0,0,0,0,.09.25.25,0,0,0,0,.07h0s0,0,0,0l1,1a.51.51,0,0,0,.72,0A.58.58,0,0,0,16.64,17.43Z"/><path id="Path_27" data-name="Path 27" class="cls-2" d="M29.56,22.82l-4.18-2.27A5,5,0,0,0,26.73,17V14.6A3.48,3.48,0,0,0,23.36,12h0A3.48,3.48,0,0,0,20,14.6V17a5.41,5.41,0,0,0,1.37,3.51l-4.09,2.25a.24.24,0,0,0-.13.23v.81a.66.66,0,0,0,.66.66h6.09V24H17.8a.15.15,0,0,1-.14-.15h0v-.66l4.28-2.35.06-.05,0,0h0a.43.43,0,0,0,0-.07,0,0,0,0,0,0,0v-.1a0,0,0,0,0,0,0,.24.24,0,0,0,0-.08h0l0,0,0,0A4.83,4.83,0,0,1,20.51,17V14.65a3,3,0,0,1,2.85-2.14h0a3,3,0,0,1,2.83,2.13V17a4.83,4.83,0,0,1-1.46,3.36h0s0,0,0,0l0,0,0,0a.09.09,0,0,0,0,0,.43.43,0,0,0,0,.05v.05s0,0,0,.05,0,0,0,0,0,0,0,0,0,0,0,0h0l4.41,2.4v.53a.34.34,0,0,1,0,.2.21.21,0,0,1-.13.07h-5.1v.52l5.29,0a.66.66,0,0,0,.5-.74s0-.17,0-.37S29.66,22.89,29.56,22.82Z"/></g></g></g></g></svg>