<svg xmlns="http://www.w3.org/2000/svg" viewBox="0 0 19.41 19.32"><defs><style>.cls-1{isolation:isolate;}.cls-2{fill:#0c7ac0;}</style></defs><title>Asset 6</title><g id="Layer_2" data-name="Layer 2"><g id="Layer_1-2" data-name="Layer 1"><g id="Phone_Icon" data-name="Phone Icon" class="cls-1"><path id="Path_75" data-name="Path 75" class="cls-2" d="M13.61,19.32c-2.27,0-5.37-1-9-4.67C.66,10.55-.08,7.18,0,5.08A6.21,6.21,0,0,1,1.92.67,2.56,2.56,0,0,1,4.4.12a6.26,6.26,0,0,1,3.53,3.6C8.34,5.06,7.43,6.11,6.69,7c-.33.38-.84,1-.79,1.19h0C6,8.6,7.57,10.49,10.24,13c1,.93,1.29.69,1.93,0,.17-.17.31-.33.45-.5A3.43,3.43,0,0,1,15,11.13c1.6-.17,3.53,1.81,4.15,2.74.83,1.24-.14,3.13-1.48,4.25A7,7,0,0,1,13.61,19.32ZM3.62,1.43a1.07,1.07,0,0,0-.76.31A4.78,4.78,0,0,0,1.43,5.13C1.36,6.94,2,9.9,5.68,13.65c5.53,5.7,9.85,4.36,11,3.36.91-.76,1.5-1.91,1.22-2.34-.67-1-2.15-2.17-2.82-2.1s-.86.33-1.41.95c-.14.17-.31.36-.5.55-.88.91-2.15,1.74-4,0C7.6,12.52,4.77,9.68,4.5,8.51,4.29,7.58,5,6.79,5.6,6.05s1.12-1.36,1-1.88A4.87,4.87,0,0,0,4,1.52.85.85,0,0,0,3.62,1.43Z"/></g></g></g></svg>