<svg xmlns="http://www.w3.org/2000/svg" viewBox="0 0 18 18"><defs><style>.cls-1{fill:#087ec3;}</style></defs><title>Asset 19</title><g id="Layer_2" data-name="Layer 2"><g id="Layer_1-2" data-name="Layer 1"><g id="Video"><path id="Play_Video" data-name="Play Video" class="cls-1" d="M12.53,9.34,6.82,12.63a.35.35,0,0,1-.49,0,.35.35,0,0,1-.1-.39V5.7a.35.35,0,0,1,.2-.45.36.36,0,0,1,.39.1l5.71,3.29a.39.39,0,0,1,.19.51A.44.44,0,0,1,12.53,9.34ZM18,9A9,9,0,1,1,9,0,9,9,0,0,1,18,9ZM16.61,9A7.62,7.62,0,1,0,9,16.61,7.61,7.61,0,0,0,16.61,9Z"/></g></g></g></svg>