<svg xmlns="http://www.w3.org/2000/svg" viewBox="0 0 29.03 27.04"><defs><style>.cls-1{fill:#087ec3;}</style></defs><title>Asset 2</title><g id="Layer_2" data-name="Layer 2"><g id="Layer_1-2" data-name="Layer 1"><g id="Support"><g id="Support-2" data-name="Support"><g id="Group_19" data-name="Group 19"><g id="Group_18" data-name="Group 18"><path id="Path_38" data-name="Path 38" class="cls-1" d="M4.77,17.28H3.43c-.45,0-.92,0-1.37,0l.36.05a.9.9,0,0,1-.22-.06l.32.13a1.18,1.18,0,0,1-.19-.11l.27.21a1.06,1.06,0,0,1-.15-.15l.21.27a1.18,1.18,0,0,1-.11-.19c0,.11.09.21.13.32a.79.79,0,0,1-.06-.22c0,.12,0,.24,0,.36,0-.25,0-.51,0-.77V11.63c0-.31,0-.63,0-.94,0,.12,0,.24,0,.36a.9.9,0,0,1,.06-.22c0,.11-.09.21-.13.32A1.18,1.18,0,0,1,2.66,11l-.21.27a1.06,1.06,0,0,1,.15-.15l-.27.21a1.18,1.18,0,0,1,.19-.11l-.32.13a.79.79,0,0,1,.22-.06l-.36.05c.46,0,.94,0,1.4,0s.94,0,1.4,0l-.36-.05a.9.9,0,0,1,.22.06l-.32-.13a1.18,1.18,0,0,1,.19.11l-.27-.21.15.15L4.26,11a1.18,1.18,0,0,1,.11.19c0-.11-.09-.21-.13-.32a.79.79,0,0,1,.06.22c0-.12,0-.24,0-.36,0,.25,0,.51,0,.77v5.48c0,.31,0,.63,0,.94,0-.12,0-.24,0-.36a.9.9,0,0,1-.06.22c0-.11.09-.21.13-.32a1.18,1.18,0,0,1-.11.19l.21-.27a1.06,1.06,0,0,1-.15.15l.27-.21a1.18,1.18,0,0,1-.19.11l.32-.13a.79.79,0,0,1-.22.06l.36-.05H4.77a1.47,1.47,0,0,0-.95.39A1.34,1.34,0,0,0,4.77,20a2.21,2.21,0,0,0,2.17-2.21V10.8a2.18,2.18,0,0,0-2.2-2.17c-.84,0-1.67,0-2.5,0A2.18,2.18,0,0,0,0,10.74v7a2.18,2.18,0,0,0,1.67,2.17A7.37,7.37,0,0,0,3,20H4.79a1.34,1.34,0,0,0,1.34-1.34,1.36,1.36,0,0,0-1.36-1.35Z"/></g></g><g id="Group_21" data-name="Group 21"><g id="Group_20" data-name="Group 20"><path id="Path_39" data-name="Path 39" class="cls-1" d="M26.87,17.28H25.54c-.45,0-.91,0-1.35,0l.36.05a.9.9,0,0,1-.22-.06l.32.13a1.18,1.18,0,0,1-.19-.11l.27.21a1.06,1.06,0,0,1-.15-.15l.21.27a1.18,1.18,0,0,1-.11-.19c0,.11.09.21.13.32a.79.79,0,0,1-.06-.22c0,.12,0,.24.05.36,0-.25,0-.51,0-.77V11.63c0-.31,0-.63,0-.94,0,.12,0,.24-.05.36a.9.9,0,0,1,.06-.22c0,.11-.09.21-.13.32a1.18,1.18,0,0,1,.11-.19l-.21.27a1.06,1.06,0,0,1,.15-.15l-.27.21a1.18,1.18,0,0,1,.19-.11l-.32.13a.79.79,0,0,1,.22-.06l-.36.05c.46,0,.93,0,1.39,0s.93,0,1.39,0l-.36-.05a.9.9,0,0,1,.22.06l-.32-.13a1.18,1.18,0,0,1,.19.11l-.27-.21a1.06,1.06,0,0,1,.15.15L26.37,11a1.18,1.18,0,0,1,.11.19c0-.11-.09-.21-.13-.32a.79.79,0,0,1,.06.22c0-.12,0-.24-.05-.36,0,.25,0,.51,0,.77v5.48c0,.31,0,.63,0,.94,0-.12,0-.24.05-.36a.9.9,0,0,1-.06.22c0-.11.09-.21.13-.32a1.18,1.18,0,0,1-.11.19l.21-.27a1.06,1.06,0,0,1-.15.15l.27-.21a1.18,1.18,0,0,1-.19.11l.32-.13a.79.79,0,0,1-.22.06l.36-.05h-.1a1.47,1.47,0,0,0-.95.39A1.34,1.34,0,0,0,26.87,20,2.19,2.19,0,0,0,29,17.75V10.8a2.19,2.19,0,0,0-2.19-2.17c-.83,0-1.65,0-2.48,0a2.18,2.18,0,0,0-2.24,2.11v7a2.2,2.2,0,0,0,1.63,2.17,6,6,0,0,0,1.34.07h1.78a1.35,1.35,0,0,0,0-2.69Z"/></g></g><g id="Group_23" data-name="Group 23"><g id="Group_22" data-name="Group 22"><path id="Path_40" data-name="Path 40" class="cls-1" d="M15.26,24.3h-.83a6.58,6.58,0,0,1-.89,0l.36,0a1.62,1.62,0,0,1-.43-.12l.32.13a1.79,1.79,0,0,1-.38-.22l.27.21a1.82,1.82,0,0,1-.34-.34l.21.27a2.08,2.08,0,0,1-.22-.38c0,.11.09.22.13.32a2.11,2.11,0,0,1-.12-.43c0,.12,0,.24.05.36a1.77,1.77,0,0,1,0-.46c0,.12,0,.24-.05.36a1.62,1.62,0,0,1,.12-.43c0,.11-.09.22-.13.32a1.79,1.79,0,0,1,.22-.38l-.21.27a1.82,1.82,0,0,1,.34-.34l-.27.21a2.08,2.08,0,0,1,.38-.22l-.32.13a2.11,2.11,0,0,1,.43-.12l-.36.05q1,0,2,0l-.36-.05a1.62,1.62,0,0,1,.43.12l-.32-.13a1.79,1.79,0,0,1,.38.22l-.27-.21a1.82,1.82,0,0,1,.34.34l-.21-.27a2.08,2.08,0,0,1,.22.38c0-.11-.09-.22-.13-.32a2.11,2.11,0,0,1,.12.43c0-.12,0-.24,0-.36a1.77,1.77,0,0,1,0,.46c0-.12,0-.24,0-.36a1.62,1.62,0,0,1-.12.43c0-.11.09-.22.13-.32a1.79,1.79,0,0,1-.22.38l.21-.27a1.82,1.82,0,0,1-.34.34l.27-.21a2.08,2.08,0,0,1-.38.22l.32-.13a2.11,2.11,0,0,1-.43.12l.36,0a.93.93,0,0,1-.23,0,1.43,1.43,0,0,0-.95.39A1.34,1.34,0,0,0,15.26,27a3.23,3.23,0,0,0,1.46-.37,3.11,3.11,0,0,0,1.08-1,3,3,0,0,0,.43-2.54,3.11,3.11,0,0,0-1.79-2,3.93,3.93,0,0,0-1.59-.25H13.79a3.11,3.11,0,0,0-2.23.94A3.25,3.25,0,0,0,10.82,23a3.13,3.13,0,0,0-.07,1.49,3.06,3.06,0,0,0,1.48,2.08,5.92,5.92,0,0,0,3,.42,1.35,1.35,0,0,0,1.34-1.35,1.37,1.37,0,0,0-1.34-1.34Z"/></g></g><g id="Group_25" data-name="Group 25"><g id="Group_24" data-name="Group 24"><path id="Path_41" data-name="Path 41" class="cls-1" d="M17,25.24h4.06a4,4,0,0,0,1.24-.16,3.53,3.53,0,0,0,2.05-1.68,3.68,3.68,0,0,0,.43-1.72V12a18.13,18.13,0,0,0-.24-3.89A10.28,10.28,0,0,0,4.25,9.51c0,.56,0,1.12,0,1.68v5.14a1.34,1.34,0,1,0,2.68,0v-5.7A11.21,11.21,0,0,1,7,9.1c0,.12,0,.24-.05.36a9,9,0,0,1,.61-2.27c0,.11-.09.21-.13.32a9,9,0,0,1,1.16-2l-.21.27A9.2,9.2,0,0,1,10,4.14l-.27.21a9,9,0,0,1,2-1.16l-.32.13a9,9,0,0,1,2.27-.61l-.36,0a9.09,9.09,0,0,1,2.33,0l-.36,0a9,9,0,0,1,2.27.61l-.32-.13a9,9,0,0,1,2,1.16L19,4.14a9.2,9.2,0,0,1,1.65,1.65l-.21-.27a9,9,0,0,1,1.16,2c0-.11-.09-.21-.13-.32A9,9,0,0,1,22,9.46c0-.12,0-.24-.05-.36A15.66,15.66,0,0,1,22.07,11V21.71a2.83,2.83,0,0,1,0,.29c0-.12,0-.24.05-.36a2.82,2.82,0,0,1-.15.57c0-.11.09-.21.13-.32a2.25,2.25,0,0,1-.29.5l.21-.27a2.59,2.59,0,0,1-.37.37l.27-.21a1.92,1.92,0,0,1-.5.29l.32-.13a2.18,2.18,0,0,1-.57.15l.36-.05a14.42,14.42,0,0,1-1.61,0H17a1.34,1.34,0,1,0,0,2.68Z"/></g></g></g></g></g></g></svg>