<?xml version="1.0" encoding="utf-8"?>
<!-- Generator: Adobe Illustrator 23.0.3, SVG Export Plug-In . SVG Version: 6.00 Build 0)  -->
<svg version="1.1" id="Layer_1" xmlns="http://www.w3.org/2000/svg" xmlns:xlink="http://www.w3.org/1999/xlink" x="0px" y="0px"
	 viewBox="0 0 24.2 25.2" style="enable-background:new 0 0 24.2 25.2;" xml:space="preserve">
<style type="text/css">
	.st0{fill:#087EC3;}
</style>
<title>Asset 8</title>
<path id="Update_Ac" class="st0" d="M17.2,18l-0.7-0.7c2.9-2.8,2.9-7,2.9-7.2V5.3c0,0,0-0.1,0-0.1C18.9,2.1,15.5,0,12.6,0
	c0,0,0,0-0.1,0C9.7,0,6.3,2.1,5.8,5.2c0,0,0,0.1,0,0.1v4.8c0.1,2.6,1,5.1,2.8,7.1l-8.3,4.5C0.1,21.9,0,22.1,0,22.2v1.6
	c0,0.7,0.6,1.3,1.3,1.3h12.3c0.3,0,0.5-0.2,0.5-0.5s-0.2-0.5-0.5-0.5H1.3C1.2,24.2,1,24,1,23.9v-1.3l8.7-4.8c0,0,0.1-0.1,0.1-0.1
	c0,0,0,0,0,0l0,0c0,0,0.1-0.1,0.1-0.1c0,0,0,0,0,0c0,0,0-0.1,0-0.1c0,0,0-0.1,0-0.1c0,0,0,0,0,0c0,0,0-0.1,0-0.1l0,0
	c0,0,0,0-0.1-0.1c0,0,0-0.1-0.1-0.1c-2.9-2.4-3-6.8-3-6.8V5.4C7.3,2.8,10.2,1,12.6,1h0c2.4,0,5.3,1.8,5.7,4.3v4.8c0,0,0,4.4-3,6.8
	c0,0,0,0,0,0c0,0,0,0,0,0c0,0,0,0,0,0.1c0,0,0,0.1-0.1,0.1c0,0,0,0.1,0,0.1s0,0.1,0,0.1s0,0.1,0,0.1c0,0,0,0.1,0,0.1
	c0,0,0,0.1,0.1,0.1c0,0,0,0,0,0.1c0,0,0,0,0,0s0,0,0,0l1.1,1c0.2,0.2,0.5,0.2,0.8,0l0,0C17.4,18.6,17.4,18.2,17.2,18z M23,18
	c0.1,0.1,0.2,0.2,0.2,0.4c0,0.3-0.2,0.5-0.4,0.7c0,0,0,0,0,0c0,0,0,0,0,0l-4.6,4.5L17,24l0.2-1.1l4.6-4.5c0,0,0,0,0,0c0,0,0,0,0,0
	c0.2-0.2,0.5-0.4,0.8-0.4C22.7,17.9,22.9,17.9,23,18z M23.5,19.9c0.4-0.4,0.7-0.9,0.7-1.5c0-0.4-0.2-0.8-0.5-1.1
	c-0.3-0.3-0.7-0.5-1.1-0.5l0,0c-0.6,0-1.1,0.3-1.5,0.7c0,0,0,0,0,0c0,0,0,0,0,0l-4.7,4.6c0,0,0,0,0,0c0,0-0.1,0.1-0.1,0.1
	c0,0,0,0,0,0.1c0,0,0,0,0,0.1l-0.4,2.1c-0.1,0.3,0.1,0.6,0.4,0.6c0,0,0.1,0,0.1,0c0,0,0.1,0,0.1,0l2-0.5c0,0,0,0,0,0
	c0,0,0.1,0,0.1,0c0,0,0.1,0,0.1,0c0,0,0,0,0,0L23.5,19.9C23.4,20,23.4,19.9,23.5,19.9C23.5,19.9,23.5,19.9,23.5,19.9L23.5,19.9z"/>
</svg>
