<?xml version="1.0" encoding="utf-8"?>
<!-- Generator: Adobe Illustrator 23.0.2, SVG Export Plug-In . SVG Version: 6.00 Build 0)  -->
<svg version="1.1" id="Layer_1" xmlns="http://www.w3.org/2000/svg" xmlns:xlink="http://www.w3.org/1999/xlink" x="0px" y="0px"
	 viewBox="0 0 1366 768" style="enable-background:new 0 0 1366 768;" xml:space="preserve">
<style type="text/css">
	.st0{fill:#007EC4;}
	.st1{fill:#007AC2;}
	.st2{fill:#231F20;}
</style>
<g>
	<path class="st0" d="M724.62,473.28c-0.19,0.47-0.38,0.87-0.57,1.2c-0.19,0.33-0.38,0.61-0.59,0.82c-0.21,0.21-0.42,0.37-0.66,0.47
		c-0.23,0.1-0.49,0.15-0.77,0.15c-0.21,0-0.39-0.01-0.55-0.03c-0.16-0.02-0.31-0.04-0.46-0.07v-1.05c0.09,0.01,0.19,0.02,0.3,0.03
		c0.11,0.01,0.21,0.01,0.29,0.01c0.22,0,0.41-0.04,0.55-0.11c0.15-0.07,0.28-0.18,0.41-0.33c0.13-0.14,0.24-0.32,0.35-0.53
		c0.11-0.21,0.21-0.45,0.31-0.72l0.13-0.34l-2.95-7.04h1.53l2.15,5.48l1.99-5.48h1.51L724.62,473.28z M717.64,472.78v-3.97
		c0-0.32-0.03-0.61-0.1-0.87c-0.06-0.26-0.16-0.48-0.3-0.66c-0.14-0.18-0.31-0.32-0.52-0.42c-0.22-0.1-0.47-0.15-0.78-0.15
		c-0.29,0-0.56,0.06-0.81,0.17c-0.25,0.11-0.46,0.27-0.63,0.48c-0.18,0.2-0.32,0.45-0.41,0.73c-0.1,0.28-0.15,0.58-0.15,0.92v3.78
		h-1.42v-5.44c0-0.15,0-0.31,0-0.48c0-0.17-0.01-0.33-0.01-0.48c-0.01-0.15-0.02-0.36-0.04-0.63h1.35c0.02,0.27,0.03,0.48,0.04,0.63
		c0.01,0.15,0.02,0.3,0.02,0.46c0.01,0.16,0.01,0.28,0.01,0.38h0.03c0.28-0.56,0.63-0.98,1.05-1.23c0.43-0.26,0.93-0.39,1.51-0.39
		c0.48,0,0.89,0.07,1.21,0.22c0.33,0.15,0.59,0.35,0.8,0.6c0.2,0.25,0.35,0.55,0.44,0.9c0.09,0.35,0.13,0.71,0.13,1.11v4.36H717.64z
		 M703.45,470.81c0-0.42,0.09-0.77,0.26-1.06c0.17-0.29,0.41-0.52,0.71-0.7c0.3-0.18,0.65-0.31,1.05-0.39
		c0.4-0.08,0.83-0.13,1.28-0.14l1.77-0.03v-0.29c0-0.59-0.13-1.01-0.41-1.28c-0.27-0.27-0.67-0.41-1.2-0.41
		c-0.23,0-0.44,0.02-0.63,0.06c-0.19,0.04-0.36,0.11-0.5,0.21c-0.14,0.1-0.26,0.23-0.35,0.38c-0.09,0.15-0.15,0.35-0.18,0.57
		l-1.49-0.11c0.05-0.3,0.15-0.57,0.29-0.82c0.15-0.25,0.35-0.46,0.6-0.65c0.26-0.18,0.58-0.33,0.96-0.43
		c0.38-0.1,0.83-0.15,1.36-0.15c0.48,0,0.91,0.05,1.28,0.16c0.37,0.11,0.69,0.27,0.94,0.48c0.26,0.21,0.45,0.48,0.58,0.79
		c0.13,0.31,0.2,0.68,0.2,1.08v2.77c0,0.33,0.04,0.59,0.13,0.76c0.09,0.17,0.25,0.26,0.48,0.26c0.03,0,0.07,0,0.12-0.01
		c0.05,0,0.1-0.01,0.15-0.02c0.05-0.01,0.1-0.01,0.14-0.02c0.05-0.01,0.08-0.01,0.11-0.02v0.88c-0.18,0.03-0.37,0.06-0.55,0.09
		c-0.19,0.02-0.38,0.03-0.58,0.03c-0.24,0-0.45-0.03-0.62-0.09c-0.17-0.06-0.31-0.15-0.42-0.27c-0.11-0.12-0.19-0.27-0.25-0.45
		c-0.06-0.18-0.1-0.39-0.11-0.63h-0.05c-0.26,0.47-0.61,0.83-1.05,1.1c-0.44,0.27-1.01,0.4-1.7,0.4c-0.38,0-0.71-0.05-1-0.14
		c-0.29-0.1-0.53-0.23-0.73-0.42c-0.2-0.18-0.35-0.4-0.45-0.66C703.5,471.43,703.45,471.14,703.45,470.81z M704.95,470.75
		c0,0.37,0.11,0.65,0.32,0.84c0.21,0.2,0.54,0.3,0.96,0.3c0.38,0,0.71-0.06,1-0.19c0.29-0.13,0.53-0.29,0.72-0.49
		c0.19-0.2,0.33-0.42,0.43-0.66c0.1-0.24,0.14-0.48,0.14-0.71v-0.5l-1.37,0.03c-0.3,0.01-0.59,0.04-0.85,0.08
		c-0.27,0.05-0.5,0.12-0.7,0.22c-0.2,0.1-0.36,0.24-0.48,0.42C705.01,470.26,704.95,470.48,704.95,470.75z M700.45,469.22
		c0-0.83-0.17-1.47-0.5-1.92c-0.34-0.45-0.84-0.68-1.51-0.68c-0.26,0-0.52,0.04-0.76,0.13c-0.25,0.09-0.47,0.23-0.66,0.44
		c-0.19,0.21-0.35,0.48-0.47,0.82c-0.12,0.34-0.18,0.76-0.18,1.27c0,0.49,0.06,0.9,0.17,1.24c0.12,0.33,0.27,0.6,0.46,0.8
		c0.19,0.2,0.41,0.35,0.66,0.43c0.25,0.08,0.5,0.13,0.77,0.13c0.64,0,1.14-0.22,1.5-0.66C700.28,470.78,700.45,470.11,700.45,469.22
		z M701.95,469.22c0,0.54-0.06,1.04-0.19,1.49c-0.12,0.45-0.31,0.84-0.57,1.17c-0.25,0.33-0.58,0.58-0.97,0.76
		c-0.39,0.18-0.85,0.27-1.37,0.27c-0.26,0-0.52-0.03-0.76-0.08c-0.24-0.05-0.47-0.14-0.68-0.25c-0.21-0.11-0.41-0.25-0.58-0.42
		c-0.17-0.17-0.32-0.37-0.44-0.59h-0.04c0.01,0.18,0.02,0.33,0.02,0.45c0,0.12,0.01,0.25,0.01,0.39c0,0.14,0,0.27,0,0.4v3.1h-1.42
		v-8.63c0-0.18,0-0.35,0-0.51c0-0.16-0.01-0.31-0.01-0.45c-0.01-0.14-0.02-0.33-0.04-0.58h1.38c0.02,0.2,0.04,0.36,0.04,0.49
		c0.01,0.13,0.01,0.26,0.02,0.4c0.01,0.14,0.01,0.27,0.01,0.38h0.02c0.5-0.95,1.36-1.43,2.58-1.43c0.51,0,0.95,0.09,1.33,0.27
		c0.37,0.18,0.68,0.43,0.92,0.76c0.24,0.32,0.42,0.7,0.54,1.15C701.89,468.21,701.95,468.69,701.95,469.22z M686.37,472.78v-3.96
		c0-0.31-0.03-0.59-0.08-0.85c-0.05-0.26-0.14-0.48-0.27-0.67c-0.12-0.19-0.29-0.33-0.49-0.44c-0.2-0.1-0.45-0.16-0.75-0.16
		c-0.28,0-0.54,0.06-0.78,0.17c-0.23,0.12-0.43,0.28-0.59,0.48c-0.17,0.2-0.29,0.45-0.39,0.73c-0.09,0.28-0.14,0.59-0.14,0.92v3.76
		h-1.42v-5.43c0-0.15,0-0.31,0-0.48s0-0.33-0.01-0.49c0-0.15-0.01-0.37-0.03-0.64h1.35c0.02,0.28,0.03,0.5,0.04,0.65
		c0.01,0.15,0.01,0.3,0.02,0.45c0,0.15,0.01,0.27,0.01,0.37h0.03c0.28-0.56,0.61-0.96,1.01-1.22c0.4-0.26,0.88-0.39,1.43-0.39
		c0.34,0,0.64,0.04,0.91,0.12c0.26,0.08,0.49,0.2,0.69,0.35c0.19,0.15,0.35,0.33,0.48,0.53c0.12,0.2,0.22,0.43,0.28,0.68h0.03
		c0.28-0.55,0.62-0.98,1.04-1.27c0.42-0.29,0.92-0.43,1.5-0.43c0.46,0,0.85,0.07,1.16,0.22c0.32,0.15,0.57,0.35,0.76,0.61
		c0.19,0.26,0.33,0.56,0.42,0.9c0.09,0.34,0.13,0.71,0.13,1.1v4.34h-1.42v-3.96c0-0.31-0.03-0.59-0.08-0.85
		c-0.06-0.26-0.15-0.48-0.27-0.67c-0.13-0.19-0.29-0.33-0.49-0.44c-0.2-0.1-0.46-0.16-0.76-0.16c-0.25,0-0.49,0.06-0.72,0.17
		c-0.23,0.11-0.43,0.27-0.6,0.47c-0.17,0.2-0.31,0.44-0.41,0.71c-0.1,0.27-0.15,0.57-0.15,0.89v3.83H686.37z M678.08,469.25
		c0-0.45-0.05-0.84-0.13-1.17c-0.09-0.33-0.22-0.6-0.4-0.81c-0.18-0.21-0.4-0.37-0.66-0.47c-0.26-0.1-0.56-0.15-0.89-0.15
		c-0.7,0-1.24,0.21-1.61,0.64c-0.37,0.42-0.56,1.08-0.56,1.97c0,0.45,0.05,0.85,0.15,1.18c0.1,0.33,0.24,0.6,0.42,0.82
		c0.18,0.21,0.4,0.37,0.66,0.48c0.25,0.1,0.54,0.16,0.85,0.16c0.34,0,0.65-0.05,0.92-0.15c0.27-0.1,0.49-0.26,0.68-0.47
		c0.19-0.21,0.33-0.48,0.42-0.82C678.03,470.1,678.08,469.7,678.08,469.25z M679.57,469.25c0,0.54-0.08,1.04-0.23,1.49
		c-0.15,0.45-0.38,0.83-0.69,1.16c-0.31,0.32-0.69,0.57-1.14,0.75c-0.45,0.18-0.99,0.27-1.59,0.27c-0.58,0-1.09-0.09-1.54-0.27
		c-0.45-0.18-0.82-0.43-1.12-0.75c-0.3-0.32-0.54-0.71-0.69-1.16c-0.16-0.45-0.24-0.95-0.24-1.49c0-0.52,0.08-1.01,0.22-1.46
		c0.15-0.45,0.37-0.83,0.67-1.16c0.3-0.33,0.68-0.58,1.13-0.76c0.46-0.18,0.99-0.27,1.61-0.27c0.64,0,1.19,0.09,1.65,0.27
		c0.45,0.18,0.83,0.43,1.12,0.76c0.29,0.32,0.5,0.71,0.64,1.16C679.5,468.23,679.57,468.72,679.57,469.25z M666.96,472.91
		c-0.77,0-1.45-0.13-2.02-0.37c-0.57-0.25-1.05-0.6-1.42-1.04c-0.38-0.45-0.66-0.98-0.84-1.59c-0.18-0.61-0.27-1.28-0.27-2.02
		c0-0.76,0.09-1.44,0.27-2.05c0.18-0.61,0.46-1.13,0.83-1.55c0.37-0.43,0.83-0.76,1.39-0.99c0.56-0.23,1.22-0.35,1.97-0.35
		c0.58,0,1.08,0.07,1.5,0.2c0.42,0.14,0.79,0.32,1.09,0.54c0.31,0.23,0.56,0.48,0.77,0.77c0.21,0.29,0.39,0.59,0.53,0.91l-1.35,0.5
		c-0.09-0.2-0.21-0.41-0.35-0.61c-0.14-0.2-0.31-0.39-0.51-0.55c-0.2-0.16-0.44-0.29-0.72-0.39c-0.27-0.1-0.59-0.15-0.95-0.15
		c-0.52,0-0.97,0.09-1.34,0.27c-0.37,0.18-0.68,0.43-0.92,0.75c-0.24,0.32-0.41,0.71-0.53,1.17c-0.11,0.46-0.17,0.96-0.17,1.53
		c0,0.55,0.06,1.06,0.19,1.53c0.13,0.47,0.31,0.87,0.56,1.21c0.25,0.34,0.57,0.6,0.94,0.78c0.38,0.19,0.82,0.28,1.33,0.28
		c0.37,0,0.69-0.06,0.98-0.18c0.28-0.12,0.53-0.27,0.75-0.46c0.21-0.19,0.4-0.39,0.55-0.62c0.15-0.23,0.27-0.45,0.37-0.68l1.33,0.56
		c-0.16,0.33-0.34,0.64-0.56,0.95c-0.22,0.31-0.48,0.59-0.79,0.83c-0.31,0.25-0.68,0.44-1.11,0.59
		C668.03,472.84,667.53,472.91,666.96,472.91z M654.76,469.22c0-0.83-0.17-1.47-0.5-1.92c-0.34-0.45-0.84-0.68-1.51-0.68
		c-0.26,0-0.52,0.04-0.76,0.13c-0.25,0.09-0.47,0.23-0.66,0.44c-0.19,0.21-0.35,0.48-0.47,0.82c-0.12,0.34-0.18,0.76-0.18,1.27
		c0,0.49,0.06,0.9,0.17,1.24c0.12,0.33,0.27,0.6,0.46,0.8c0.19,0.2,0.41,0.35,0.66,0.43c0.25,0.08,0.5,0.13,0.77,0.13
		c0.64,0,1.14-0.22,1.49-0.66C654.59,470.78,654.76,470.11,654.76,469.22z M656.26,469.22c0,0.54-0.06,1.04-0.19,1.49
		c-0.12,0.45-0.31,0.84-0.57,1.17c-0.25,0.33-0.58,0.58-0.96,0.76c-0.39,0.18-0.85,0.27-1.37,0.27c-0.26,0-0.52-0.03-0.76-0.08
		c-0.24-0.05-0.47-0.14-0.68-0.25c-0.21-0.11-0.41-0.25-0.58-0.42c-0.17-0.17-0.32-0.37-0.44-0.59h-0.04
		c0.01,0.18,0.02,0.33,0.02,0.45c0,0.12,0.01,0.25,0.01,0.39c0,0.14,0,0.27,0,0.4v3.1h-1.42v-8.63c0-0.18,0-0.35,0-0.51
		c0-0.16-0.01-0.31-0.01-0.45c-0.01-0.14-0.02-0.33-0.04-0.58h1.38c0.02,0.2,0.04,0.36,0.04,0.49c0.01,0.13,0.01,0.26,0.02,0.4
		c0.01,0.14,0.01,0.27,0.01,0.38h0.02c0.5-0.95,1.36-1.43,2.58-1.43c0.51,0,0.95,0.09,1.33,0.27c0.37,0.18,0.68,0.43,0.92,0.76
		c0.24,0.32,0.42,0.7,0.54,1.15C656.2,468.21,656.26,468.69,656.26,469.22z M641.8,465.74v3.96c0,0.31,0.03,0.59,0.09,0.85
		c0.06,0.26,0.15,0.48,0.29,0.67c0.13,0.19,0.31,0.33,0.52,0.43c0.22,0.1,0.48,0.16,0.8,0.16c0.3,0,0.57-0.06,0.81-0.17
		c0.24-0.11,0.45-0.27,0.63-0.47c0.17-0.2,0.31-0.45,0.4-0.73c0.1-0.28,0.14-0.59,0.14-0.92v-3.77h1.45v5.41c0,0.16,0,0.32,0,0.49
		c0,0.17,0.01,0.34,0.01,0.49c0,0.15,0.01,0.37,0.03,0.64h-1.35c-0.02-0.28-0.03-0.49-0.04-0.64c-0.01-0.15-0.01-0.31-0.02-0.46
		c-0.01-0.15-0.01-0.28-0.01-0.38h-0.04c-0.29,0.57-0.64,0.98-1.06,1.23c-0.42,0.25-0.92,0.38-1.51,0.38c-0.47,0-0.87-0.08-1.2-0.22
		c-0.33-0.15-0.59-0.35-0.8-0.61c-0.2-0.26-0.35-0.56-0.44-0.9c-0.09-0.34-0.13-0.71-0.13-1.11v-4.33H641.8z M637.05,469.25
		c0-0.45-0.04-0.84-0.13-1.17c-0.09-0.33-0.22-0.6-0.4-0.81c-0.18-0.21-0.4-0.37-0.66-0.47c-0.26-0.1-0.56-0.15-0.9-0.15
		c-0.7,0-1.24,0.21-1.61,0.64c-0.37,0.42-0.56,1.08-0.56,1.97c0,0.45,0.05,0.85,0.15,1.18c0.1,0.33,0.24,0.6,0.42,0.82
		c0.18,0.21,0.4,0.37,0.66,0.48c0.25,0.1,0.54,0.16,0.85,0.16c0.34,0,0.65-0.05,0.92-0.15c0.27-0.1,0.49-0.26,0.68-0.47
		c0.19-0.21,0.33-0.48,0.42-0.82C637,470.1,637.05,469.7,637.05,469.25z M638.54,469.25c0,0.54-0.08,1.04-0.23,1.49
		c-0.15,0.45-0.38,0.83-0.69,1.16c-0.31,0.32-0.69,0.57-1.14,0.75c-0.45,0.18-0.99,0.27-1.59,0.27c-0.58,0-1.09-0.09-1.54-0.27
		c-0.45-0.18-0.82-0.43-1.12-0.75c-0.3-0.32-0.53-0.71-0.69-1.16c-0.16-0.45-0.24-0.95-0.24-1.49c0-0.52,0.08-1.01,0.22-1.46
		c0.15-0.45,0.37-0.83,0.67-1.16c0.3-0.33,0.68-0.58,1.13-0.76c0.46-0.18,0.99-0.27,1.61-0.27c0.64,0,1.19,0.09,1.65,0.27
		c0.45,0.18,0.83,0.43,1.12,0.76c0.29,0.32,0.5,0.71,0.64,1.16C638.48,468.23,638.54,468.72,638.54,469.25z M630.25,466.94
		c-0.1-0.03-0.21-0.06-0.32-0.08c-0.12-0.02-0.26-0.02-0.41-0.02c-0.28,0-0.53,0.06-0.75,0.18c-0.22,0.12-0.4,0.3-0.54,0.52
		c-0.15,0.22-0.26,0.49-0.33,0.8c-0.08,0.31-0.12,0.65-0.12,1.03v3.41h-1.42v-5.31c0-0.16,0-0.33,0-0.52c0-0.18,0-0.36-0.01-0.53
		c0-0.17-0.01-0.4-0.03-0.68h1.34c0.02,0.3,0.03,0.54,0.04,0.7c0.01,0.17,0.02,0.33,0.02,0.49c0.01,0.16,0.01,0.29,0.01,0.38h0.03
		c0.09-0.28,0.19-0.53,0.31-0.74c0.11-0.22,0.25-0.4,0.4-0.54c0.15-0.15,0.33-0.26,0.53-0.33c0.2-0.07,0.44-0.11,0.72-0.11
		c0.1,0,0.21,0.01,0.31,0.02c0.1,0.02,0.18,0.03,0.24,0.04V466.94z M624.12,471.25c-0.2,0.22-0.43,0.43-0.7,0.64
		c-0.27,0.2-0.58,0.38-0.91,0.53c-0.34,0.15-0.71,0.27-1.1,0.36c-0.4,0.09-0.82,0.13-1.27,0.13c-0.77,0-1.44-0.13-2.01-0.37
		c-0.57-0.25-1.04-0.6-1.42-1.04c-0.38-0.45-0.66-0.98-0.84-1.59c-0.19-0.61-0.28-1.28-0.28-2.02c0-0.76,0.09-1.44,0.27-2.05
		c0.18-0.61,0.46-1.13,0.83-1.55c0.37-0.43,0.84-0.76,1.4-0.99c0.56-0.23,1.21-0.35,1.96-0.35c0.54,0,1.02,0.06,1.43,0.18
		c0.41,0.12,0.77,0.28,1.08,0.49c0.31,0.21,0.57,0.45,0.79,0.74c0.22,0.28,0.4,0.59,0.55,0.91l-1.37,0.5
		c-0.1-0.21-0.22-0.42-0.36-0.61c-0.14-0.19-0.31-0.36-0.51-0.51c-0.2-0.15-0.43-0.26-0.7-0.35c-0.26-0.09-0.57-0.13-0.91-0.13
		c-0.51,0-0.95,0.09-1.32,0.27c-0.37,0.18-0.67,0.43-0.91,0.75c-0.24,0.32-0.42,0.71-0.53,1.17c-0.11,0.46-0.17,0.96-0.17,1.53
		c0,0.55,0.06,1.06,0.19,1.53c0.13,0.47,0.32,0.87,0.57,1.21c0.25,0.34,0.56,0.6,0.94,0.78c0.38,0.19,0.81,0.28,1.31,0.28
		c0.31,0,0.6-0.03,0.87-0.09c0.27-0.06,0.51-0.14,0.72-0.24c0.21-0.1,0.41-0.2,0.58-0.32c0.17-0.12,0.31-0.24,0.42-0.36V469h-2.56
		v-1.15h3.96V471.25z M609.53,470.76c0,0.33-0.07,0.63-0.2,0.9c-0.14,0.27-0.34,0.49-0.6,0.68c-0.26,0.18-0.58,0.33-0.96,0.43
		c-0.38,0.1-0.82,0.15-1.31,0.15c-0.46,0-0.86-0.03-1.21-0.09c-0.36-0.06-0.66-0.17-0.92-0.31c-0.26-0.14-0.47-0.33-0.64-0.57
		c-0.17-0.24-0.3-0.53-0.38-0.89l1.23-0.22c0.05,0.23,0.14,0.43,0.25,0.57c0.11,0.15,0.25,0.26,0.42,0.34
		c0.16,0.08,0.35,0.13,0.56,0.16c0.21,0.03,0.44,0.04,0.69,0.04c0.25,0,0.48-0.02,0.69-0.06c0.21-0.04,0.4-0.1,0.55-0.18
		c0.16-0.08,0.28-0.19,0.37-0.33c0.09-0.13,0.13-0.3,0.13-0.49c0-0.2-0.06-0.37-0.17-0.5c-0.11-0.13-0.27-0.24-0.47-0.33
		c-0.2-0.09-0.44-0.16-0.71-0.22c-0.27-0.06-0.56-0.12-0.86-0.19c-0.3-0.06-0.6-0.13-0.88-0.22c-0.29-0.09-0.54-0.21-0.77-0.35
		c-0.23-0.15-0.41-0.34-0.54-0.56c-0.14-0.23-0.21-0.51-0.21-0.85c0-0.32,0.06-0.61,0.19-0.86c0.12-0.26,0.31-0.47,0.55-0.65
		c0.24-0.18,0.54-0.31,0.9-0.41c0.36-0.09,0.77-0.14,1.24-0.14c0.38,0,0.74,0.03,1.07,0.1c0.33,0.07,0.61,0.17,0.86,0.32
		c0.25,0.15,0.45,0.33,0.62,0.56c0.16,0.23,0.28,0.5,0.34,0.82l-1.25,0.17c-0.04-0.19-0.1-0.35-0.2-0.48
		c-0.1-0.13-0.22-0.23-0.36-0.31c-0.15-0.08-0.31-0.13-0.49-0.16c-0.18-0.03-0.38-0.05-0.58-0.05c-0.51,0-0.9,0.08-1.16,0.25
		c-0.26,0.16-0.4,0.4-0.4,0.69c0,0.18,0.05,0.33,0.15,0.45c0.1,0.12,0.23,0.21,0.4,0.29c0.17,0.07,0.38,0.14,0.62,0.2
		c0.24,0.06,0.5,0.12,0.79,0.19c0.33,0.07,0.65,0.15,0.97,0.25c0.32,0.09,0.6,0.22,0.85,0.37c0.25,0.15,0.45,0.35,0.6,0.59
		C609.45,470.09,609.53,470.4,609.53,470.76z M600.65,468.59c-0.02-0.31-0.08-0.59-0.16-0.83c-0.09-0.25-0.21-0.46-0.37-0.63
		c-0.16-0.17-0.36-0.3-0.59-0.39c-0.23-0.09-0.51-0.14-0.83-0.14c-0.25,0-0.49,0.03-0.73,0.1c-0.24,0.06-0.45,0.17-0.64,0.33
		c-0.19,0.15-0.35,0.36-0.47,0.61c-0.12,0.25-0.19,0.57-0.21,0.96H600.65z M596.63,469.53c0,0.35,0.04,0.66,0.12,0.95
		c0.08,0.29,0.19,0.54,0.36,0.75c0.16,0.21,0.37,0.37,0.63,0.49c0.25,0.12,0.56,0.17,0.92,0.17c0.24,0,0.46-0.02,0.67-0.07
		c0.21-0.04,0.4-0.11,0.56-0.2c0.17-0.09,0.31-0.2,0.43-0.33c0.12-0.13,0.21-0.28,0.27-0.45l1.27,0.26
		c-0.08,0.21-0.2,0.42-0.36,0.64c-0.16,0.21-0.37,0.41-0.63,0.58c-0.26,0.18-0.57,0.32-0.94,0.43s-0.8,0.17-1.29,0.17
		c-1.14,0-2.01-0.31-2.61-0.92c-0.6-0.62-0.9-1.54-0.9-2.77c0-0.68,0.1-1.26,0.3-1.72c0.2-0.46,0.46-0.84,0.79-1.12
		c0.33-0.28,0.7-0.48,1.13-0.6c0.42-0.12,0.86-0.18,1.31-0.18c0.6,0,1.11,0.09,1.54,0.27c0.43,0.18,0.78,0.44,1.06,0.78
		c0.27,0.33,0.48,0.73,0.61,1.2c0.13,0.46,0.2,0.98,0.2,1.53v0.15H596.63z M586.96,472.78v-3.96c0-0.31-0.03-0.59-0.08-0.85
		c-0.05-0.26-0.14-0.48-0.27-0.67c-0.12-0.19-0.29-0.33-0.49-0.44c-0.2-0.1-0.45-0.16-0.75-0.16c-0.28,0-0.54,0.06-0.77,0.17
		c-0.23,0.12-0.43,0.28-0.59,0.48c-0.17,0.2-0.3,0.45-0.39,0.73c-0.09,0.28-0.14,0.59-0.14,0.92v3.76h-1.42v-5.43
		c0-0.15,0-0.31,0-0.48c0-0.17,0-0.33-0.01-0.49c0-0.15-0.01-0.37-0.03-0.64h1.35c0.02,0.28,0.03,0.5,0.04,0.65
		c0.01,0.15,0.01,0.3,0.02,0.45c0,0.15,0.01,0.27,0.01,0.37h0.03c0.28-0.56,0.61-0.96,1.01-1.22c0.4-0.26,0.88-0.39,1.43-0.39
		c0.34,0,0.64,0.04,0.91,0.12c0.26,0.08,0.49,0.2,0.69,0.35c0.19,0.15,0.35,0.33,0.48,0.53c0.12,0.2,0.22,0.43,0.28,0.68h0.03
		c0.27-0.55,0.62-0.98,1.04-1.27c0.42-0.29,0.92-0.43,1.49-0.43c0.46,0,0.85,0.07,1.16,0.22c0.32,0.15,0.57,0.35,0.76,0.61
		c0.19,0.26,0.33,0.56,0.42,0.9c0.08,0.34,0.13,0.71,0.13,1.1v4.34h-1.42v-3.96c0-0.31-0.03-0.59-0.08-0.85
		c-0.06-0.26-0.15-0.48-0.27-0.67c-0.13-0.19-0.29-0.33-0.49-0.44c-0.2-0.1-0.46-0.16-0.76-0.16c-0.25,0-0.49,0.06-0.72,0.17
		c-0.23,0.11-0.43,0.27-0.6,0.47c-0.17,0.2-0.31,0.44-0.41,0.71c-0.1,0.27-0.15,0.57-0.15,0.89v3.83H586.96z M578.31,472.78v-7.04
		h1.42v7.04H578.31z M578.31,464.02v-1.24h1.41v1.24H578.31z M576.87,463.09v1.23h-3.27v8.46h-1.51v-8.46h-3.17v-1.23H576.87z
		 M556.79,469.29c0-0.54,0.06-1.03,0.19-1.49c0.12-0.45,0.31-0.84,0.57-1.17c0.26-0.33,0.58-0.58,0.96-0.76
		c0.39-0.18,0.84-0.27,1.37-0.27c0.56,0,1.06,0.12,1.48,0.35c0.42,0.24,0.75,0.58,0.99,1.03c0-0.21-0.01-0.37-0.01-0.48
		s0-0.23,0-0.36c0-0.13,0-0.25,0-0.38v-2.97h1.43v8.43c0,0.18,0,0.35,0,0.51c0,0.16,0.01,0.32,0.01,0.45c0,0.14,0.01,0.33,0.02,0.59
		h-1.36c-0.03-0.21-0.05-0.37-0.06-0.49c-0.01-0.13-0.02-0.25-0.02-0.39c-0.01-0.14-0.01-0.26-0.01-0.37
		c-0.27,0.47-0.61,0.81-1.03,1.04c-0.42,0.23-0.95,0.34-1.58,0.34c-0.51,0-0.94-0.09-1.31-0.27c-0.37-0.18-0.67-0.42-0.92-0.75
		c-0.24-0.32-0.42-0.7-0.54-1.14C556.85,470.3,556.79,469.82,556.79,469.29z M558.28,469.29c0,0.84,0.17,1.48,0.5,1.92
		c0.33,0.44,0.83,0.66,1.51,0.66c0.26,0,0.52-0.05,0.77-0.13c0.25-0.09,0.47-0.24,0.66-0.44c0.19-0.2,0.35-0.47,0.47-0.81
		c0.12-0.34,0.18-0.76,0.18-1.25c0-0.5-0.06-0.91-0.17-1.25c-0.11-0.33-0.27-0.61-0.46-0.81c-0.19-0.2-0.41-0.35-0.66-0.43
		c-0.25-0.08-0.51-0.13-0.77-0.13c-0.64,0-1.14,0.22-1.49,0.66C558.45,467.73,558.28,468.39,558.28,469.29z M553.52,472.78v-3.97
		c0-0.32-0.03-0.61-0.1-0.87c-0.06-0.26-0.16-0.48-0.3-0.66c-0.14-0.18-0.31-0.32-0.52-0.42c-0.21-0.1-0.47-0.15-0.77-0.15
		c-0.29,0-0.56,0.06-0.81,0.17c-0.25,0.11-0.46,0.27-0.63,0.48c-0.18,0.2-0.31,0.45-0.41,0.73c-0.1,0.28-0.15,0.58-0.15,0.92v3.78
		h-1.42v-5.44c0-0.15,0-0.31,0-0.48c0-0.17-0.01-0.33-0.01-0.48c-0.01-0.15-0.02-0.36-0.04-0.63h1.35c0.02,0.27,0.03,0.48,0.04,0.63
		c0.01,0.15,0.02,0.3,0.02,0.46c0.01,0.16,0.01,0.28,0.01,0.38h0.03c0.28-0.56,0.63-0.98,1.05-1.23c0.43-0.26,0.93-0.39,1.51-0.39
		c0.48,0,0.89,0.07,1.21,0.22c0.33,0.15,0.59,0.35,0.8,0.6c0.2,0.25,0.35,0.55,0.44,0.9c0.09,0.35,0.13,0.71,0.13,1.11v4.36H553.52z
		 M539.33,470.81c0-0.42,0.09-0.77,0.26-1.06c0.17-0.29,0.41-0.52,0.71-0.7c0.3-0.18,0.65-0.31,1.05-0.39
		c0.4-0.08,0.83-0.13,1.28-0.14l1.77-0.03v-0.29c0-0.59-0.13-1.01-0.4-1.28c-0.27-0.27-0.67-0.41-1.2-0.41
		c-0.23,0-0.44,0.02-0.63,0.06c-0.19,0.04-0.36,0.11-0.5,0.21c-0.14,0.1-0.26,0.23-0.35,0.38c-0.09,0.15-0.15,0.35-0.18,0.57
		l-1.49-0.11c0.05-0.3,0.15-0.57,0.29-0.82c0.15-0.25,0.34-0.46,0.6-0.65c0.26-0.18,0.57-0.33,0.96-0.43
		c0.38-0.1,0.83-0.15,1.36-0.15c0.48,0,0.91,0.05,1.28,0.16c0.37,0.11,0.69,0.27,0.94,0.48c0.25,0.21,0.45,0.48,0.58,0.79
		c0.13,0.31,0.2,0.68,0.2,1.08v2.77c0,0.33,0.04,0.59,0.13,0.76c0.09,0.17,0.25,0.26,0.48,0.26c0.03,0,0.07,0,0.12-0.01
		c0.05,0,0.1-0.01,0.15-0.02c0.05-0.01,0.1-0.01,0.14-0.02c0.05-0.01,0.08-0.01,0.11-0.02v0.88c-0.18,0.03-0.37,0.06-0.55,0.09
		c-0.19,0.02-0.38,0.03-0.58,0.03c-0.24,0-0.45-0.03-0.62-0.09c-0.17-0.06-0.31-0.15-0.42-0.27c-0.11-0.12-0.19-0.27-0.25-0.45
		c-0.06-0.18-0.1-0.39-0.11-0.63h-0.05c-0.26,0.47-0.61,0.83-1.05,1.1c-0.44,0.27-1.01,0.4-1.7,0.4c-0.38,0-0.71-0.05-1-0.14
		c-0.29-0.1-0.53-0.23-0.73-0.42c-0.2-0.18-0.35-0.4-0.45-0.66C539.38,471.43,539.33,471.14,539.33,470.81z M540.83,470.75
		c0,0.37,0.11,0.65,0.32,0.84c0.21,0.2,0.54,0.3,0.96,0.3c0.38,0,0.71-0.06,1-0.19c0.29-0.13,0.53-0.29,0.72-0.49
		c0.19-0.2,0.33-0.42,0.43-0.66c0.1-0.24,0.14-0.48,0.14-0.71v-0.5l-1.37,0.03c-0.3,0.01-0.59,0.04-0.85,0.08
		c-0.27,0.05-0.5,0.12-0.7,0.22c-0.2,0.1-0.36,0.24-0.48,0.42C540.89,470.26,540.83,470.48,540.83,470.75z M532.29,472.78v-3.97
		c0-0.32-0.03-0.61-0.1-0.87c-0.06-0.26-0.16-0.48-0.3-0.66c-0.14-0.18-0.31-0.32-0.52-0.42c-0.22-0.1-0.47-0.15-0.78-0.15
		c-0.29,0-0.56,0.06-0.81,0.17c-0.25,0.11-0.46,0.27-0.63,0.48c-0.18,0.2-0.32,0.45-0.41,0.73c-0.1,0.28-0.15,0.58-0.15,0.92v3.78
		h-1.42v-5.44c0-0.15,0-0.31,0-0.48c0-0.17-0.01-0.33-0.01-0.48c-0.01-0.15-0.02-0.36-0.04-0.63h1.35c0.02,0.27,0.03,0.48,0.04,0.63
		c0.01,0.15,0.02,0.3,0.02,0.46c0.01,0.16,0.01,0.28,0.01,0.38h0.03c0.28-0.56,0.63-0.98,1.05-1.23c0.43-0.26,0.93-0.39,1.51-0.39
		c0.48,0,0.89,0.07,1.21,0.22c0.33,0.15,0.59,0.35,0.8,0.6c0.2,0.25,0.35,0.55,0.44,0.9c0.09,0.35,0.13,0.71,0.13,1.11v4.36H532.29z
		 M523.78,469.25c0-0.45-0.04-0.84-0.13-1.17c-0.09-0.33-0.22-0.6-0.4-0.81c-0.18-0.21-0.4-0.37-0.66-0.47
		c-0.26-0.1-0.56-0.15-0.89-0.15c-0.7,0-1.24,0.21-1.61,0.64c-0.37,0.42-0.56,1.08-0.56,1.97c0,0.45,0.05,0.85,0.15,1.18
		c0.1,0.33,0.24,0.6,0.42,0.82c0.18,0.21,0.4,0.37,0.66,0.48c0.26,0.1,0.54,0.16,0.85,0.16c0.34,0,0.65-0.05,0.92-0.15
		c0.27-0.1,0.49-0.26,0.68-0.47c0.19-0.21,0.33-0.48,0.42-0.82C523.73,470.1,523.78,469.7,523.78,469.25z M525.27,469.25
		c0,0.54-0.08,1.04-0.23,1.49c-0.15,0.45-0.38,0.83-0.69,1.16c-0.31,0.32-0.69,0.57-1.14,0.75c-0.45,0.18-0.99,0.27-1.59,0.27
		c-0.58,0-1.09-0.09-1.54-0.27c-0.45-0.18-0.82-0.43-1.12-0.75c-0.3-0.32-0.54-0.71-0.69-1.16c-0.16-0.45-0.24-0.95-0.24-1.49
		c0-0.52,0.08-1.01,0.22-1.46c0.15-0.45,0.37-0.83,0.67-1.16c0.3-0.33,0.68-0.58,1.13-0.76c0.46-0.18,0.99-0.27,1.61-0.27
		c0.64,0,1.19,0.09,1.65,0.27c0.45,0.18,0.83,0.43,1.12,0.76c0.29,0.32,0.5,0.71,0.64,1.16
		C525.2,468.23,525.27,468.72,525.27,469.25z M510.65,469.23c0,0.8,0.17,1.43,0.5,1.87c0.33,0.44,0.83,0.67,1.5,0.67
		c0.26,0,0.52-0.04,0.77-0.13c0.25-0.08,0.47-0.23,0.66-0.43c0.19-0.2,0.35-0.46,0.47-0.8c0.12-0.33,0.18-0.74,0.18-1.23
		c0-0.48-0.06-0.88-0.17-1.21c-0.11-0.33-0.27-0.59-0.46-0.79c-0.19-0.2-0.41-0.35-0.66-0.43c-0.25-0.09-0.51-0.13-0.77-0.13
		c-0.65,0-1.15,0.22-1.5,0.66C510.83,467.72,510.65,468.37,510.65,469.23z M509.17,469.23c0-0.54,0.06-1.03,0.19-1.48
		c0.12-0.45,0.31-0.83,0.57-1.15c0.26-0.32,0.58-0.57,0.96-0.75c0.39-0.18,0.84-0.27,1.37-0.27c0.56,0,1.06,0.12,1.47,0.35
		c0.42,0.24,0.75,0.58,0.98,1.03c0-0.11,0.01-0.23,0.02-0.37c0.01-0.14,0.02-0.27,0.02-0.39c0.01-0.12,0.03-0.28,0.06-0.48h1.36
		c-0.01,0.25-0.02,0.45-0.02,0.58c0,0.13-0.01,0.28-0.01,0.45c0,0.17,0,0.33,0,0.51v5.29c0,0.53-0.08,1.01-0.23,1.42
		c-0.16,0.41-0.38,0.76-0.68,1.05c-0.29,0.28-0.66,0.5-1.09,0.65c-0.44,0.15-0.93,0.22-1.49,0.22c-0.48,0-0.9-0.05-1.27-0.13
		c-0.37-0.09-0.68-0.21-0.94-0.38c-0.26-0.16-0.47-0.36-0.63-0.6c-0.16-0.23-0.27-0.49-0.34-0.78l1.42-0.2
		c0.1,0.33,0.3,0.6,0.6,0.79c0.3,0.19,0.7,0.29,1.2,0.29c0.31,0,0.59-0.05,0.84-0.14c0.25-0.09,0.46-0.23,0.63-0.43
		c0.17-0.19,0.31-0.43,0.41-0.72c0.1-0.29,0.15-0.63,0.15-1.03v-1.18c-0.27,0.47-0.61,0.82-1.03,1.05
		c-0.42,0.23-0.94,0.35-1.58,0.35c-0.51,0-0.94-0.09-1.31-0.26c-0.37-0.18-0.67-0.42-0.92-0.74c-0.24-0.32-0.42-0.7-0.54-1.13
		C509.23,470.23,509.17,469.75,509.17,469.23z M506.32,468.59c-0.02-0.31-0.08-0.59-0.16-0.83c-0.09-0.25-0.21-0.46-0.37-0.63
		c-0.16-0.17-0.36-0.3-0.59-0.39c-0.23-0.09-0.51-0.14-0.83-0.14c-0.25,0-0.49,0.03-0.73,0.1c-0.24,0.06-0.45,0.17-0.64,0.33
		c-0.19,0.15-0.35,0.36-0.47,0.61c-0.12,0.25-0.19,0.57-0.21,0.96H506.32z M502.3,469.53c0,0.35,0.04,0.66,0.12,0.95
		c0.08,0.29,0.19,0.54,0.36,0.75c0.16,0.21,0.37,0.37,0.63,0.49c0.26,0.12,0.56,0.17,0.92,0.17c0.24,0,0.46-0.02,0.67-0.07
		c0.21-0.04,0.4-0.11,0.56-0.2c0.17-0.09,0.31-0.2,0.43-0.33c0.12-0.13,0.21-0.28,0.27-0.45l1.27,0.26
		c-0.08,0.21-0.2,0.42-0.36,0.64c-0.16,0.21-0.37,0.41-0.63,0.58c-0.26,0.18-0.57,0.32-0.94,0.43c-0.36,0.11-0.8,0.17-1.29,0.17
		c-1.14,0-2.01-0.31-2.61-0.92c-0.6-0.62-0.9-1.54-0.9-2.77c0-0.68,0.1-1.26,0.3-1.72c0.2-0.46,0.46-0.84,0.79-1.12
		c0.33-0.28,0.7-0.48,1.13-0.6c0.42-0.12,0.86-0.18,1.31-0.18c0.6,0,1.11,0.09,1.54,0.27c0.43,0.18,0.78,0.44,1.06,0.78
		c0.28,0.33,0.48,0.73,0.61,1.2c0.13,0.46,0.2,0.98,0.2,1.53v0.15H502.3z M495.48,464.26l-1.63,4.63h3.23L495.48,464.26z
		 M496.35,463.09l3.58,9.69h-1.53l-0.97-2.72h-3.92l-0.99,2.72h-1.54l3.6-9.69H496.35z M484.6,472.78v-3.97
		c0-0.32-0.03-0.61-0.1-0.87c-0.06-0.26-0.16-0.48-0.3-0.66c-0.14-0.18-0.31-0.32-0.52-0.42c-0.21-0.1-0.47-0.15-0.77-0.15
		c-0.29,0-0.56,0.06-0.81,0.17c-0.25,0.11-0.46,0.27-0.63,0.48c-0.18,0.2-0.32,0.45-0.41,0.73c-0.1,0.28-0.15,0.58-0.15,0.92v3.78
		h-1.42v-5.44c0-0.15,0-0.31,0-0.48c0-0.17-0.01-0.33-0.01-0.48c-0.01-0.15-0.02-0.36-0.04-0.63h1.35c0.02,0.27,0.03,0.48,0.04,0.63
		c0.01,0.15,0.02,0.3,0.02,0.46c0.01,0.16,0.01,0.28,0.01,0.38h0.03c0.28-0.56,0.63-0.98,1.05-1.23c0.43-0.26,0.93-0.39,1.51-0.39
		c0.48,0,0.89,0.07,1.21,0.22c0.33,0.15,0.59,0.35,0.8,0.6c0.2,0.25,0.35,0.55,0.44,0.9c0.09,0.35,0.13,0.71,0.13,1.11v4.36H484.6z
		 M473.72,464.26l-1.63,4.63h3.23L473.72,464.26z M474.59,463.09l3.58,9.69h-1.53l-0.97-2.72h-3.92l-0.99,2.72h-1.54l3.6-9.69
		H474.59z"/>
	<path class="st0" d="M731.23,409.6c0.09-1.53-0.08-2.87-0.52-4.01c-0.44-1.14-1.08-2.1-1.92-2.89c-0.84-0.79-1.8-1.38-2.89-1.78
		c-1.09-0.39-2.24-0.59-3.45-0.59c-2.79,0-4.99,0.91-6.62,2.72c-1.63,1.81-2.44,4.16-2.44,7.04v7.18c2.56,0.23,4.9,0.26,7.04,0.07
		c2.14-0.19,3.98-0.58,5.54-1.18c1.56-0.6,2.8-1.44,3.73-2.51C730.63,412.58,731.14,411.23,731.23,409.6 M722.45,397.06
		c1.91,0,3.76,0.29,5.58,0.87c1.81,0.58,3.4,1.43,4.78,2.54c1.37,1.11,2.45,2.47,3.24,4.08c0.79,1.6,1.14,3.4,1.05,5.4
		c-0.09,1.77-0.57,3.3-1.43,4.6c-0.86,1.3-1.95,2.39-3.28,3.28c-1.32,0.88-2.82,1.58-4.5,2.09c-1.67,0.51-3.37,0.87-5.09,1.08
		c-1.72,0.21-3.4,0.27-5.05,0.17c-1.65-0.09-3.1-0.3-4.36-0.63v3.48c0.05,2.04,0.51,3.64,1.39,4.77c0.88,1.14,1.95,1.99,3.21,2.54
		s2.59,0.91,4.01,1.05c1.42,0.14,2.68,0.21,3.8,0.21h2.79h4.67v2.23c-0.65,0.33-1.46,0.59-2.44,0.8c-0.98,0.21-2.32,0.31-4.04,0.31
		h-2.79c-1.44,0-3.14-0.13-5.09-0.38c-1.95-0.26-3.8-0.8-5.54-1.64c-1.74-0.84-3.22-2.06-4.43-3.66c-1.21-1.6-1.79-3.78-1.74-6.52
		v-11.08c0-2.23,0.35-4.3,1.05-6.2c0.7-1.91,1.7-3.55,3-4.95c1.3-1.39,2.89-2.49,4.77-3.28
		C717.88,397.45,720.03,397.06,722.45,397.06z M700.98,387.16c-1.12,0-2.22,0.07-3.31,0.21c-1.09,0.14-2.06,0.51-2.89,1.12
		c-0.84,0.6-1.5,1.51-1.99,2.72c-0.49,1.21-0.69,2.88-0.59,5.02v3.28h11.36v2.23c-0.65,0.33-1.46,0.59-2.44,0.8
		c-0.98,0.21-2.32,0.31-4.04,0.31h-4.88v33.11H686v-33.18h-3.35v-3.28H686v-3.48c-0.09-2.7,0.38-4.86,1.43-6.48
		c1.05-1.63,2.35-2.86,3.9-3.69c1.56-0.84,3.23-1.38,5.02-1.64c1.79-0.26,3.38-0.38,4.77-0.38h6.34v2.23
		c-0.65,0.33-1.46,0.59-2.44,0.8C704.05,387.05,702.7,387.16,700.98,387.16z M676.66,397.89h-6.2v38.06h6.2V397.89z M677.07,389.11
		c0,0.98-0.34,1.8-1.01,2.47c-0.67,0.67-1.5,1.01-2.47,1.01c-0.98,0-1.8-0.34-2.47-1.01c-0.67-0.67-1.01-1.5-1.01-2.47
		c0-0.93,0.34-1.74,1.01-2.44c0.67-0.7,1.5-1.05,2.47-1.05c0.98,0,1.8,0.35,2.47,1.05C676.74,387.37,677.07,388.18,677.07,389.11z
		 M658.04,432.6c1.67,0.09,3.01,0.22,4.01,0.38c1,0.16,1.82,0.41,2.47,0.73v2.23h-6.48c-0.98,0-2.07-0.05-3.28-0.14
		c-1.21-0.09-2.44-0.29-3.69-0.59c-1.25-0.3-2.49-0.72-3.69-1.25c-1.21-0.53-2.27-1.25-3.17-2.16c-0.91-0.91-1.64-2.01-2.2-3.31
		c-0.56-1.3-0.81-2.86-0.77-4.67v-40.01h6.2v39.73c-0.05,1.91,0.27,3.44,0.94,4.6c0.67,1.16,1.53,2.06,2.58,2.68
		c1.05,0.63,2.2,1.07,3.45,1.32C655.68,432.41,656.88,432.56,658.04,432.6z"/>
	<polygon class="st1" points="441.25,419.55 433.72,396.4 426.2,419.57 	"/>
	<polygon class="st0" points="423.36,428.2 420.8,436.26 410.9,436.27 427.8,384.09 439.56,384.08 434.66,369 360.97,393.06 
		385.03,466.73 449.77,445.6 444.1,428.2 	"/>
	<path class="st2" d="M485.37,426.62l-27.95,0.03v-13.46l19.71-0.02l-0.02-8.65l-19.69,0.03v-11.88h26v-9.08h-35.83v24.64
		l8.99,27.49h28.8L485.37,426.62z M623.24,383.86v35.23l-21.74-35.23h-9.33V436h8.97v-35.75L623.21,436h9v-52.14H623.24z
		 M462.38,453.84h138.81v-5.31H460.63L462.38,453.84z M561.63,437.37c15.2-0.01,24.35-12.7,24.34-27.42
		c-0.03-14.71-9.19-27.35-24.41-27.35c-15.19,0.02-24.31,12.7-24.29,27.41C537.27,424.74,546.43,437.39,561.63,437.37z
		 M561.56,391.68c10.15-0.02,14.39,9.22,14.39,18.28c0.01,9.1-4.21,18.33-14.35,18.34c-10.11,0.01-14.36-9.21-14.36-18.3
		C547.25,400.94,551.46,391.69,561.56,391.68z M510.15,437.44c4.33,0,9.79-1.92,13.08-5.8v4.48h8.1v-28.48h-20.88l0.02,8.64
		l12.31-0.02c0.01,7.18-6,12.11-12.64,12.12c-9.95,0-14.09-9.21-14.09-18.31c-0.01-9.06,4.1-18.3,14.04-18.31
		c8.26-0.02,11.41,5.79,12.47,9.95l8.74-3.74c-3.79-9.97-11.07-15.3-21.22-15.29c-14.92,0.03-23.86,12.7-23.85,27.4
		C486.25,424.81,494.2,437.47,510.15,437.44z"/>
</g>
</svg>
