<svg xmlns="http://www.w3.org/2000/svg" width="29.563" height="29.563" viewBox="0 0 29.563 29.563"><defs><style>.a{fill:none;}.a,.b{fill-rule:evenodd;}.b{fill:rgba(255,255,255,0.8);}</style></defs><path class="a" d="M29.563,5.563H0V-24H29.563Z" transform="translate(0 24)"/><path class="b" d="M14.307,26.635A12.318,12.318,0,1,1,26.635,14.327,12.3,12.3,0,0,1,14.307,26.635Zm0-1.232A11.086,11.086,0,1,0,3.232,14.326,11.073,11.073,0,0,0,14.308,25.4Z" transform="translate(0.464 0.464)"/><path class="b" d="M10.256,10.621A2.582,2.582,0,0,1,13,8.143,2.311,2.311,0,0,1,15.522,10.5c0,1.037-.72,1.71-1.927,2.507a3.009,3.009,0,0,0-1.656,2.949v.9h1.284v-.72a2.315,2.315,0,0,1,1.376-2.42c1.323-.845,2.284-1.854,2.284-3.275C16.883,8.479,15.374,7,13.047,7A3.743,3.743,0,0,0,9,10.621Zm2.44,9a.924.924,0,1,0-.924-.924.911.911,0,0,0,.924.924Z" transform="translate(2.086 1.622)"/></svg>